<svg width="58" height="58" viewBox="0 0 58 58" fill="none" xmlns="http://www.w3.org/2000/svg">
<g id="modal_flamm">
<circle id="Ellipse 40" cx="29" cy="29" r="29" fill="#F5F9FF"/>
<path id="Vector" d="M38.2969 19.4987C38.0069 19.2459 37.5995 19.166 37.2336 19.2858C36.8677 19.4055 36.5915 19.6983 36.5086 20.0642C36.3567 20.7561 36.0184 22.1 35.5696 23.4239C35.0656 21.428 34.1542 19.492 32.8769 17.6957C31.3096 15.5002 29.7422 14.2828 29.6801 14.2295C29.2865 13.9235 28.7204 13.9235 28.3268 14.2295C28.2578 14.2828 26.6974 15.5002 25.13 17.6891C23.8458 19.4854 22.9413 21.4214 22.4373 23.4173C21.9885 22.0933 21.6502 20.7494 21.4983 20.0575C21.4223 19.6916 21.1461 19.3922 20.7733 19.2791C20.4005 19.166 20 19.2459 19.71 19.492C16.0299 22.6855 14 27.7084 14 33.6362C14 35.7452 14.3936 37.7278 15.1738 39.5308C15.9264 41.2672 17.0104 42.7974 18.4051 44.0814C21.1461 46.6095 24.9091 48 28.9965 48C33.084 48 36.847 46.6095 39.588 44.0814C40.9827 42.7974 42.0736 41.2672 42.8193 39.5308C43.5995 37.7278 44 35.7452 44 33.6362C44 27.7084 41.977 22.6855 38.2969 19.4987ZM25.0748 41.0743C25.0748 38.28 27.664 34.867 29.0104 33.277C30.557 35.1065 32.939 38.4663 32.939 41.0743C32.939 43.2764 32.2555 45.9043 29.0104 45.9043C25.7514 45.911 25.0748 43.283 25.0748 41.0743ZM34.313 44.9263C34.8377 43.8752 35.1001 42.5911 35.1001 41.0809C35.1001 36.5037 30.0115 31.1946 29.7906 30.9684C29.5834 30.7555 29.3003 30.6358 28.9965 30.6358C28.6927 30.6358 28.4097 30.7555 28.2025 30.9684C27.9885 31.1946 22.893 36.5037 22.893 41.0809C22.893 42.5911 23.1623 43.8752 23.6801 44.9263C19.1231 43.1034 16.1611 38.9054 16.1611 33.6362C16.1611 29.0856 17.4522 25.167 19.8343 22.3794C20.3176 24.0959 21.1323 26.5309 22.1818 27.8149C22.4649 28.1675 22.9551 28.3006 23.3901 28.1542C23.8251 28.0078 24.122 27.6087 24.122 27.1629C24.122 24.2755 25.0472 21.5079 26.87 18.9265C27.6571 17.8155 28.4511 16.9772 28.9965 16.4583C30.4741 17.8687 33.8642 21.7008 33.8642 27.1562C33.8642 27.602 34.1542 28.0012 34.5961 28.1475C35.0311 28.2939 35.5144 28.1542 35.8044 27.8082C36.8539 26.5242 37.6755 24.0892 38.1519 22.3728C40.5339 25.1537 41.8251 29.079 41.8251 33.6296C41.832 38.9054 38.87 43.1034 34.313 44.9263Z" fill="#409AF4"/>
</g>
</svg>
