<svg width="58" height="58" viewBox="0 0 58 58" fill="none" xmlns="http://www.w3.org/2000/svg">
<g id="modal_blood_pen">
<circle id="Ellipse 42" cx="29" cy="29" r="29" fill="#F5F9FF"/>
<g id="Group">
<path id="Vector" d="M26.704 22.5766C26.2352 21.9722 25.82 21.4874 25.4852 21.1354C25.003 20.6373 24.6079 20.3252 24.1056 20.3252C23.6033 20.3252 23.2082 20.6373 22.7261 21.1354C22.3845 21.4874 21.976 21.9722 21.5072 22.5766C20.5094 23.8517 19.3977 25.4722 18.3597 27.1325C16.7323 29.7492 14 34.6106 14 37.7254C14 43.2509 18.5338 47.7404 24.0989 47.7404C29.664 47.7404 34.1978 43.2443 34.1978 37.7254C34.1978 34.6106 31.4655 29.7558 29.8382 27.1325C28.8135 25.4722 27.6952 23.8517 26.704 22.5766ZM24.1056 45.7481C19.6455 45.7481 16.0158 42.1485 16.0158 37.7254C16.0158 35.899 17.3886 32.5983 19.7794 28.6667C21.5742 25.7113 23.302 23.4665 24.1056 22.5899C24.9159 23.4599 26.637 25.7113 28.4318 28.6667C30.8226 32.5983 32.1955 35.9057 32.1955 37.7254C32.1955 42.1485 28.5657 45.7481 24.1056 45.7481Z" fill="#409AF4"/>
<path id="Vector_2" d="M42.0533 17.5755C41.4974 16.6789 40.8947 15.8023 40.3523 15.1116C39.5219 14.0423 39.1267 13.7368 38.5977 13.7368C38.0686 13.7368 37.6802 14.0423 36.8431 15.1116C36.3073 15.8023 35.6979 16.6789 35.1421 17.5755C34.0572 19.3288 32.758 21.7661 32.758 23.4464C32.758 26.6408 35.3765 29.2376 38.5977 29.2376C41.8189 29.2376 44.4374 26.6408 44.4374 23.4464C44.4374 21.7661 43.1382 19.3288 42.0533 17.5755ZM38.5977 27.2452C36.4882 27.2452 34.7738 25.545 34.7738 23.453C34.7738 22.5963 35.4702 20.9227 36.6422 18.9834C37.3855 17.7482 38.1222 16.7254 38.5977 16.1343C39.0799 16.732 39.8098 17.7482 40.5532 18.9834C41.7251 20.9293 42.4216 22.5963 42.4216 23.453C42.4283 25.5384 40.7072 27.2452 38.5977 27.2452Z" fill="#409AF4"/>
</g>
<g id="Group_2">
<path id="Vector_3" d="M20.5429 42.9387C20.2683 42.9387 19.9937 42.8059 19.8263 42.5668C18.1253 40.1228 17.7637 37.3069 18.7816 34.4179C19.5317 32.2861 20.7773 30.8649 20.8242 30.8117C21.1389 30.4531 21.6948 30.4199 22.0497 30.732C22.4113 31.0442 22.4448 31.5888 22.13 31.9474C22.11 31.9673 21.0318 33.2159 20.4022 35.0422C19.5852 37.3999 19.8732 39.6048 21.2595 41.5905C21.534 41.9824 21.4336 42.5203 21.0385 42.7926C20.8844 42.8856 20.7103 42.9387 20.5429 42.9387Z" fill="#409AF4"/>
</g>
<g id="Group_3">
<path id="Vector_4" d="M37.1847 25.6383C36.9168 25.6383 36.6556 25.5121 36.4949 25.2796C34.968 23.088 36.1199 20.7503 36.9436 19.8271C37.2516 19.4818 37.7807 19.4486 38.1222 19.7541C38.4705 20.0529 38.504 20.5776 38.2026 20.923C38.1423 20.996 36.7159 22.6763 37.8744 24.3432C38.1356 24.7218 38.0419 25.2398 37.6602 25.4988C37.5195 25.5851 37.3521 25.6383 37.1847 25.6383Z" fill="#409AF4"/>
</g>
</g>
</svg>
