<svg width="58" height="58" viewBox="0 0 58 58" fill="none" xmlns="http://www.w3.org/2000/svg">
<g id="modal_part_filt">
<circle id="Ellipse 41" cx="29" cy="29" r="29" fill="#F5F9FF"/>
<g id="Group">
<g id="Group_2">
<path id="Vector" d="M31.9314 21.7051C32.0788 21.3 32.139 20.8616 32.0855 20.3967C31.9381 18.9622 30.7528 17.8266 29.2996 17.7269C27.545 17.6074 26.0716 18.9888 26.0716 20.7089C26.0716 21.0609 26.1319 21.3929 26.2458 21.7051H17.359C16.6223 21.7051 16.0263 22.2961 16.0263 23.0267V26.5267C16.0263 26.9251 16.2071 27.3103 16.5286 27.5561L26.0716 35.1271V38.4411C26.0716 39.1717 26.6677 39.7627 27.4043 39.7627H30.7662C31.5028 39.7627 32.0989 39.1717 32.0989 38.4411V35.1271L41.6419 27.5561C41.9567 27.3037 42.1442 26.9251 42.1442 26.5267V23.0267C42.1442 22.2961 41.5482 21.7051 40.8115 21.7051H31.9314ZM28.958 19.7193C29.6143 19.6396 30.1701 20.1842 30.0831 20.8351C30.0295 21.28 29.6679 21.6387 29.2192 21.6918C28.5629 21.7715 28.0071 21.2269 28.0941 20.5761C28.1477 20.1377 28.5093 19.7791 28.958 19.7193ZM30.0898 34.7087V36.7808C30.0898 37.332 29.6411 37.777 29.0852 37.777C28.5294 37.777 28.0807 37.332 28.0807 36.7808V34.7087C28.0807 34.37 27.9267 34.0512 27.6588 33.8454L20.1248 27.8682C20.0444 27.8084 20.0913 27.6822 20.1918 27.6822H37.972C38.0725 27.6822 38.1127 27.8084 38.039 27.8682L30.505 33.8454C30.2438 34.0512 30.0898 34.37 30.0898 34.7087ZM39.1306 25.6898H19.0399C18.4841 25.6898 18.0354 25.2449 18.0354 24.6937C18.0354 24.1424 18.4841 23.6975 19.0399 23.6975H39.1306C39.6864 23.6975 40.1351 24.1424 40.1351 24.6937C40.1351 25.2449 39.6864 25.6898 39.1306 25.6898Z" fill="#409AF4"/>
</g>
</g>
<g id="Group_3">
<g id="Group_4">
<path id="Vector_2" d="M21.3236 13.749C19.4484 13.583 17.8813 15.137 18.0488 16.9966C18.176 18.4245 19.3346 19.5734 20.7744 19.6996C22.6495 19.8656 24.2166 18.3116 24.0492 16.452C23.922 15.0241 22.7634 13.8752 21.3236 13.749ZM21.1829 17.7138C20.5266 17.7935 19.9708 17.249 20.0578 16.5981C20.1114 16.1531 20.473 15.7945 20.9217 15.7414C21.578 15.6617 22.1339 16.2063 22.0468 16.8571C21.9932 17.2954 21.6316 17.6541 21.1829 17.7138Z" fill="#409AF4"/>
</g>
</g>
<g id="Group_5">
<g id="Group_6">
<path id="Vector_3" d="M37.3961 13.749C35.521 13.583 33.9539 15.137 34.1213 16.9966C34.2486 18.4245 35.4071 19.5734 36.8469 19.6996C38.7221 19.8656 40.2892 18.3116 40.1217 16.452C39.9945 15.0241 38.8359 13.8752 37.3961 13.749ZM37.2555 17.7138C36.5992 17.7935 36.0433 17.249 36.1304 16.5981C36.184 16.1531 36.5456 15.7945 36.9943 15.7414C37.6506 15.6617 38.2064 16.2063 38.1194 16.8571C38.0658 17.2954 37.7041 17.6541 37.2555 17.7138Z" fill="#409AF4"/>
</g>
</g>
<g id="Group_7">
<g id="Group_8">
<path id="Vector_4" d="M29.3598 41.7754C27.4847 41.6093 25.9176 43.1634 26.085 45.023C26.2123 46.4508 27.3708 47.5998 28.8107 47.726C30.6858 47.892 32.2529 46.3379 32.0855 44.4784C31.9582 43.0505 30.7997 41.9016 29.3598 41.7754ZM29.2192 45.7402C28.5629 45.8199 28.007 45.2753 28.0941 44.6245C28.1477 44.1795 28.5093 43.8209 28.958 43.7678C29.6143 43.6881 30.1701 44.2326 30.0831 44.8835C30.0295 45.3218 29.6679 45.6804 29.2192 45.7402Z" fill="#409AF4"/>
</g>
</g>
</g>
</svg>
