<svg width="58" height="58" viewBox="0 0 58 58" fill="none" xmlns="http://www.w3.org/2000/svg">
<g id="modal_bact_filt">
<circle id="Ellipse 39" cx="29" cy="29" r="29" fill="#F5F9FF"/>
<g id="Group 41">
<path id="Vector" d="M44.3289 27.4384L42.8288 27.1926C42.4805 25.519 41.8108 23.9185 40.8666 22.4906L41.7505 21.262C42.4872 20.2326 42.3734 18.8445 41.476 17.948C40.5786 17.058 39.1722 16.9385 38.1342 17.6757L36.8953 18.5523C35.4555 17.6159 33.8415 16.9518 32.1539 16.6064L31.9061 15.1188C31.6985 13.8768 30.6203 12.9736 29.3479 12.9736C28.0755 12.9736 26.9973 13.8768 26.7897 15.1188L26.5419 16.6064C24.8543 16.9518 23.2403 17.6159 21.8005 18.5523L20.5683 17.6823C19.5303 16.9518 18.1306 17.0647 17.2265 17.9546C16.3291 18.8445 16.2086 20.2392 16.9519 21.2686L17.8359 22.4972C16.8917 23.9251 16.222 25.5257 15.8737 27.1993L14.3736 27.445C13.1213 27.6509 12.2105 28.7201 12.2105 29.982C12.2105 31.2438 13.1213 32.3131 14.3736 32.519L15.8737 32.7647C16.222 34.4383 16.8917 36.0388 17.8359 37.4667L16.9519 38.6954C16.2153 39.7248 16.3291 41.1128 17.2265 42.0094C18.1239 42.8993 19.5303 43.0188 20.5683 42.2816L21.8072 41.405C23.247 42.3414 24.861 43.0056 26.5486 43.3509L26.7964 44.8385C27.004 46.0805 28.0822 46.9837 29.3546 46.9837C30.627 46.9837 31.7052 46.0805 31.9128 44.8385L32.1606 43.3509C33.8482 43.0056 35.4622 42.3414 36.902 41.405L38.1409 42.2816C39.1789 43.0122 40.5786 42.8993 41.4827 42.0094C42.3801 41.1194 42.5006 39.7248 41.7573 38.6954L40.8733 37.4667C41.8175 36.0388 42.4872 34.4383 42.8355 32.7647L44.3356 32.519C45.5879 32.3131 46.4986 31.2438 46.4986 29.982C46.4986 28.7201 45.5879 27.6442 44.3289 27.4384ZM44.0007 30.5465L41.8041 30.9118C41.3755 30.9848 41.0407 31.3169 40.9737 31.7419C40.6924 33.5948 39.9491 35.3681 38.8307 36.8756C38.5762 37.221 38.5695 37.6925 38.824 38.0445L40.1165 39.8443C40.2839 40.0767 40.2571 40.3889 40.0562 40.5881C39.8553 40.7874 39.5406 40.8139 39.3062 40.6479L37.4913 39.3661C37.1364 39.1138 36.6609 39.1204 36.3127 39.3728C34.7925 40.4819 33.0044 41.219 31.136 41.498C30.7074 41.5644 30.3658 41.8965 30.2989 42.3215L29.9305 44.4998C29.8836 44.7788 29.6426 44.9847 29.3546 44.9847C29.0666 44.9847 28.8255 44.7788 28.7787 44.4998L28.4103 42.3215C28.3367 41.8965 28.0018 41.5644 27.5732 41.498C25.7048 41.219 23.9167 40.4819 22.3965 39.3728C22.2224 39.2466 22.0081 39.1802 21.8005 39.1802C21.5929 39.1802 21.392 39.2399 21.2179 39.3661L19.403 40.6479C19.1686 40.8139 18.8539 40.7874 18.653 40.5881C18.4521 40.3889 18.4253 40.0767 18.5927 39.8443L19.8852 38.0445C20.1397 37.6925 20.133 37.221 19.8785 36.8756C18.7601 35.3681 18.0167 33.5948 17.7355 31.7419C17.6685 31.3169 17.3337 30.9782 16.9051 30.9118L14.7085 30.5465C14.4272 30.5 14.2196 30.2609 14.2196 29.9753C14.2196 29.6898 14.4272 29.4507 14.7085 29.4042L16.9051 29.0389C17.3337 28.9659 17.6685 28.6338 17.7355 28.2088C18.0167 26.3558 18.7601 24.5826 19.8785 23.075C20.133 22.7297 20.1397 22.2582 19.8852 21.9062L18.5927 20.1064C18.4253 19.8739 18.4521 19.5618 18.653 19.3626C18.8539 19.1633 19.1686 19.1368 19.403 19.3028L21.2179 20.5846C21.5728 20.8369 22.0483 20.8303 22.3965 20.5779C23.9167 19.4688 25.7048 18.7316 27.5732 18.4527C28.0018 18.3863 28.3434 18.0542 28.4103 17.6292L28.7787 15.4508C28.8255 15.1719 29.0666 14.966 29.3546 14.966C29.6426 14.966 29.8836 15.1719 29.9305 15.4508L30.2989 17.6292C30.3725 18.0542 30.7074 18.3863 31.136 18.4527C33.0044 18.7316 34.7925 19.4688 36.3127 20.5779C36.6609 20.8303 37.1364 20.8369 37.4913 20.5846L39.3062 19.3028C39.5406 19.1368 39.8553 19.1633 40.0562 19.3626C40.2571 19.5618 40.2839 19.8739 40.1165 20.1064L38.824 21.9062C38.5695 22.2582 38.5762 22.7297 38.8307 23.075C39.9491 24.5826 40.6924 26.3558 40.9737 28.2088C41.0407 28.6338 41.3755 28.9725 41.8041 29.0389L44.0007 29.4042C44.282 29.4507 44.4896 29.6898 44.4896 29.9753C44.4896 30.2609 44.282 30.5 44.0007 30.5465Z" fill="#409AF4"/>
<path id="Vector_2" d="M34.0424 22.3374C32.3816 22.3374 31.0288 23.6789 31.0288 25.326C31.0288 26.973 32.3816 28.3146 34.0424 28.3146C35.7032 28.3146 37.056 26.973 37.056 25.326C37.056 23.6789 35.7032 22.3374 34.0424 22.3374ZM34.0424 26.3222C33.4866 26.3222 33.0379 25.8772 33.0379 25.326C33.0379 24.7748 33.4866 24.3298 34.0424 24.3298C34.5983 24.3298 35.0469 24.7748 35.0469 25.326C35.0469 25.8772 34.5916 26.3222 34.0424 26.3222Z" fill="#409AF4"/>
<path id="Vector_3" d="M34.0424 31.6357C32.3816 31.6357 31.0288 32.9773 31.0288 34.6243C31.0288 36.2714 32.3816 37.6129 34.0424 37.6129C35.7032 37.6129 37.056 36.2714 37.056 34.6243C37.056 32.9773 35.7032 31.6357 34.0424 31.6357ZM34.0424 35.6205C33.4866 35.6205 33.0379 35.1755 33.0379 34.6243C33.0379 34.0731 33.4866 33.6281 34.0424 33.6281C34.5983 33.6281 35.0469 34.0731 35.0469 34.6243C35.0469 35.1755 34.5916 35.6205 34.0424 35.6205Z" fill="#409AF4"/>
<path id="Vector_4" d="M29.0197 29.6368C29.0197 29.0856 28.5711 28.6406 28.0152 28.6406H27.5062C27.379 28.2886 27.1915 27.9698 26.9571 27.6975L27.2116 27.2592C27.4862 26.781 27.3254 26.1767 26.8433 25.8977C26.3611 25.6254 25.7517 25.7848 25.4704 26.263L25.2159 26.7013C25.0351 26.6681 24.8543 26.6482 24.6668 26.6482C24.4793 26.6482 24.2917 26.6681 24.1176 26.7013L23.8631 26.263C23.5886 25.7848 22.9724 25.6254 22.4903 25.8977C22.0081 26.17 21.8474 26.781 22.1219 27.2592L22.3764 27.6975C22.1353 27.9765 21.9478 28.2952 21.8273 28.6406H21.3183C20.7625 28.6406 20.3138 29.0856 20.3138 29.6368C20.3138 30.188 20.7625 30.633 21.3183 30.633H21.8273C21.9545 30.985 22.142 31.3037 22.3764 31.576L22.1219 32.0144C21.8474 32.4925 22.0081 33.0969 22.4903 33.3758C22.651 33.4688 22.8184 33.5087 22.9925 33.5087C23.3408 33.5087 23.6756 33.3293 23.8631 33.0106L24.1176 32.5722C24.2984 32.6054 24.4793 32.6254 24.6668 32.6254C24.8543 32.6254 25.0418 32.6054 25.2159 32.5722L25.4704 33.0106C25.6579 33.3293 25.9927 33.5087 26.341 33.5087C26.5084 33.5087 26.6825 33.4688 26.8433 33.3758C27.3254 33.1035 27.4862 32.4925 27.2116 32.0144L26.9571 31.576C27.1982 31.2971 27.3857 30.9783 27.5062 30.633H28.0152C28.5644 30.633 29.0197 30.188 29.0197 29.6368ZM24.6668 30.633C24.1109 30.633 23.6622 30.188 23.6622 29.6368C23.6622 29.0856 24.1109 28.6406 24.6668 28.6406C25.2226 28.6406 25.6713 29.0856 25.6713 29.6368C25.6713 30.188 25.2159 30.633 24.6668 30.633Z" fill="#409AF4"/>
</g>
</g>
</svg>
