<svg width="64" height="85" viewBox="0 0 64 85" fill="none" xmlns="http://www.w3.org/2000/svg">
<path d="M62.5648 16.0213C62.4328 15.6241 62.2569 15.271 62.0809 14.9179C61.2009 13.2849 59.969 12.2256 58.253 12.2256C56.8011 12.2256 55.2612 13.3731 55.2612 16.6834C55.2612 42.6797 45.9337 35.3972 45.8897 35.353C44.3058 34.0731 50.3775 29.9243 50.3775 25.5548C50.3775 23.7893 49.8055 22.4652 48.0456 22.4652C44.8337 22.4652 42.9858 26.4816 38.85 28.2029C35.8142 29.4829 34.0103 32.4842 32.9543 36.4123C32.9103 36.5889 32.8663 36.8095 32.8663 36.9861V81.7403C32.8663 83.0644 33.9663 84.0796 35.2862 83.9913C38.85 83.7265 42.2379 82.9762 45.4497 81.7845C46.3297 81.4755 46.9016 80.6369 46.9016 79.6659V53.6696C46.9016 45.4161 63.9728 48.7263 63.9728 25.6872C64.0608 22.2887 64.0168 19.6846 62.5648 16.0213Z" fill="url(#paint0_linear)"/>
<path d="M25.1227 28.2476C20.9869 26.5263 19.139 22.5099 15.9272 22.5099C14.2113 22.5099 13.5953 23.7899 13.5953 25.5994C13.5953 29.9689 19.667 34.1178 18.0831 35.3977C18.0391 35.4418 8.71156 42.7243 8.71156 16.728C8.71156 13.4178 7.21564 12.2703 5.71971 12.2703C4.0038 12.2703 2.77186 13.3295 1.8919 14.9626C1.71591 15.3157 1.53992 15.6688 1.40793 16.066C0 19.6852 0 22.2892 0 25.776C0 48.771 17.0711 45.5049 17.0711 53.7584V79.7547C17.0711 80.6816 17.6431 81.5202 18.5231 81.8733C21.7349 83.065 25.1667 83.8153 28.6866 84.0801C30.0065 84.1684 31.1064 83.1532 31.1064 81.8291V37.119C31.1064 36.9425 31.0624 36.7218 31.0184 36.5453C30.0065 32.573 28.2026 29.5276 25.1227 28.2476Z" fill="url(#paint1_linear)"/>
<path d="M32.0304 4.01641C32.0304 4.01641 34.2743 0 39.026 0C43.1618 0 46.0217 3.97227 46.0217 8.56245C46.0217 13.0644 43.1618 21.2737 31.9864 24.4074C20.8109 21.2296 17.9511 13.0202 17.9511 8.56245C17.9951 3.97227 20.8549 0 25.0347 0C29.7865 0 32.0304 4.01641 32.0304 4.01641Z" fill="#FF8794"/>
<path d="M62.5648 16.0213C62.4328 15.6241 62.2569 15.271 62.0809 14.9179C61.2009 13.2849 59.969 12.2256 58.253 12.2256C56.8011 12.2256 55.2612 13.3731 55.2612 16.6834C55.2612 42.6797 45.9337 35.3972 45.8897 35.353C44.3058 34.0731 50.3775 29.9243 50.3775 25.5548C50.3775 23.7893 49.8055 22.4652 48.0456 22.4652C44.8337 22.4652 42.9858 26.4816 38.85 28.2029C35.7262 29.527 33.9223 32.6166 32.8663 36.7213V66.4692C37.8381 66.425 42.5459 65.3657 46.9016 63.5562V53.7138C46.9016 45.4603 63.9728 48.7705 63.9728 25.7313C64.0608 22.2887 64.0168 19.6846 62.5648 16.0213Z" fill="#4990FF"/>
<path d="M25.1227 28.2476C20.9869 26.5263 19.139 22.5099 15.9272 22.5099C14.2113 22.5099 13.5953 23.7899 13.5953 25.5994C13.5953 29.9689 19.667 34.1178 18.0831 35.3977C18.0391 35.4419 8.71156 42.7244 8.71156 16.728C8.71156 13.4178 7.21564 12.2703 5.71971 12.2703C4.0038 12.2703 2.77186 13.3295 1.8919 14.9626C1.71591 15.3157 1.53992 15.6688 1.40793 16.066C0 19.6852 0 22.2892 0 25.776C0 48.771 17.0711 45.5049 17.0711 53.7584V63.6009C21.3829 65.4104 26.1347 66.4256 31.1064 66.5139V36.8101C30.0945 32.7054 28.2466 29.5717 25.1227 28.2476Z" fill="#4990FF"/>
<path d="M23.3188 6.39977C24.2422 6.39977 24.9907 5.64887 24.9907 4.72259C24.9907 3.79631 24.2422 3.04541 23.3188 3.04541C22.3954 3.04541 21.6469 3.79631 21.6469 4.72259C21.6469 5.64887 22.3954 6.39977 23.3188 6.39977Z" fill="white"/>
<defs>
<linearGradient id="paint0_linear" x1="48.627" y1="56.959" x2="49.4919" y2="81.9635" gradientUnits="userSpaceOnUse">
<stop stop-color="#FFA09F"/>
<stop offset="1" stop-color="#FEC7C6"/>
</linearGradient>
<linearGradient id="paint1_linear" x1="16.467" y1="57.9798" x2="17.3303" y2="82.935" gradientUnits="userSpaceOnUse">
<stop stop-color="#FFA09F"/>
<stop offset="1" stop-color="#FEC7C6"/>
</linearGradient>
</defs>
</svg>
