<svg id="brand_logo" viewBox="0 0 278 32" fill="none" xmlns="http://www.w3.org/2000/svg">
    <g>
        <path id="Vector" d="M85.1681 17.1891C85.1681 20.944 85.2096 24.6988 85.1681 28.412C85.1681 29.5385 84.8776 30.665 83.9645 31.4159C83.6739 31.6663 83.2589 31.7914 82.9269 31.8749C80.8516 32.1669 79.6895 30.9987 78.7764 29.2882C78.1123 28.0782 77.1992 26.9935 76.4106 25.8253C75.539 24.532 74.6259 23.2386 73.7543 21.9035C73.0487 20.8188 72.3431 19.7341 71.596 18.6493C71.43 18.4407 71.1395 18.3573 70.8904 18.1904C70.8074 18.399 70.6829 18.6076 70.6829 18.8162C70.6829 22.1956 70.6829 25.575 70.6414 28.9544C70.6414 29.7471 70.5999 30.5815 70.5584 31.3742C70.5584 31.4159 70.5584 31.5411 70.5584 31.5411C69.9358 31.6245 69.2717 31.7497 68.6492 31.7914C68.4831 31.7914 68.1926 31.4159 68.1926 31.2073C68.1511 29.4133 68.1511 27.6193 68.1511 25.7836C68.1511 21.3194 68.1511 16.8553 68.1511 12.3494C68.1511 11.7236 68.2341 11.0561 68.2756 10.4303C68.2756 10.3468 68.3171 10.3051 68.3586 10.2217C68.4001 10.2634 68.4831 10.3468 68.5246 10.3885C69.5623 11.8905 70.5999 13.4342 71.679 14.9361C72.4261 15.9792 73.2147 16.9387 73.9203 17.9818C75.7465 20.5685 77.5312 23.1969 79.3159 25.7836C79.98 26.7432 80.6441 27.7028 81.3497 28.6623C81.5157 28.8709 81.8892 29.0378 82.1383 28.9961C82.3043 28.9961 82.5118 28.5789 82.5118 28.3286C82.5533 25.6584 82.5948 22.9883 82.5948 20.3181C82.5948 15.854 82.5948 11.3899 82.5948 6.96743C82.5948 6.38333 82.5533 5.75752 82.6363 5.17342C82.6363 5.00654 82.9269 4.83965 83.1344 4.79793C83.3834 4.75621 83.6739 4.83965 83.9645 4.79793C84.9606 4.67277 85.1266 4.79793 85.1266 5.84096C85.1681 9.63757 85.1681 13.4342 85.1681 17.1891Z" fill="#005B91"/>
        <path id="Vector_2" d="M269.658 16.4798C269.658 13.1004 269.658 9.67929 269.658 6.29989C269.658 4.75621 269.658 4.79793 271.193 4.79793C271.816 4.79793 272.023 5.00654 271.982 5.67407C271.94 11.8905 271.982 18.1069 271.94 24.3234C271.94 24.8657 272.189 25.0743 272.687 25.0743C274.223 25.0743 275.759 25.1161 277.294 25.1161C277.751 25.1161 277.958 25.3247 277.917 25.7836C277.917 25.9922 277.917 26.2008 277.917 26.4511C277.917 27.6193 277.709 27.8279 276.506 27.8279C274.431 27.8279 272.355 27.8279 270.28 27.8279C269.782 27.8279 269.574 27.661 269.574 27.1187C269.658 23.5724 269.658 20.0261 269.658 16.4798Z" fill="#4EABE0"/>
        <path id="Vector_3" d="M177.434 17.2725C176.105 17.2725 174.777 17.2725 173.449 17.2725C173.283 17.2725 173.034 17.0222 173.034 16.8553C172.993 14.3938 173.034 11.8905 173.034 9.42896C173.034 9.30379 173.283 9.05347 173.408 9.05347C175.234 9.01175 177.06 9.01175 178.886 9.01175C179.384 9.01175 179.882 9.05347 180.422 9.01175C181.211 8.97002 181.709 9.55412 181.46 10.3468C181.46 10.3885 181.418 10.472 181.418 10.5137C181.128 11.5984 181.128 11.5984 180.007 11.5984C178.803 11.5984 177.6 11.5984 176.437 11.5984C175.524 11.5984 175.358 11.7653 175.358 12.6832C175.358 12.9752 175.358 13.2673 175.358 13.5593C175.4 14.4772 175.607 14.6858 176.52 14.6858C177.766 14.6858 179.052 14.7275 180.297 14.6858C180.961 14.6858 181.211 15.0196 181.211 15.5619C181.252 16.0209 181.211 16.4798 181.127 16.9387C181.086 17.0639 180.795 17.2725 180.629 17.2725C179.592 17.2725 178.513 17.2725 177.434 17.2725Z" fill="#4EABE0"/>
        <path id="Vector_4" d="M64.4986 19.5672C64.4986 15.854 64.4986 12.1408 64.4986 8.42766C64.4986 7.7184 64.4986 7.00914 64.5817 6.29988C64.8307 4.5476 66.6154 3.50458 68.2756 4.08867C69.6453 4.5476 70.2263 5.63235 70.8904 6.67537C72.2601 8.76142 73.5882 10.8892 74.9164 12.9752C75.9125 14.5189 76.8671 16.1043 77.8632 17.648C77.9878 17.8566 78.3198 17.94 78.5688 18.1069C78.6518 17.8983 78.7763 17.6897 78.8178 17.4811C78.8593 15.7706 78.8178 14.06 78.8594 12.3077C78.8594 10.0965 78.9009 7.88528 78.9424 5.71579C78.9424 5.1317 79.1084 4.83965 79.814 4.83965C81.3912 4.83965 81.3912 4.79793 81.3912 6.38333C81.3912 12.0574 81.4327 17.7314 81.4327 23.4055C81.4327 24.0313 81.3081 24.6154 81.2666 25.2412C81.2666 25.2829 81.2251 25.3664 81.2251 25.4081C81.1421 25.3664 81.0591 25.3664 81.0176 25.2829C80.6026 24.6988 80.1875 24.1147 79.7725 23.5307C79.3159 22.9466 78.8178 22.3625 78.4443 21.7784C77.4897 20.3181 76.6181 18.8162 75.622 17.3977C74.7919 16.1878 73.7957 15.0196 72.9241 13.8097C71.6375 12.0157 70.3923 10.1799 69.1472 8.34421C68.8152 7.88528 68.5661 7.42635 68.1926 7.00914C68.0266 6.84226 67.57 6.75882 67.321 6.84226C67.155 6.88398 66.9889 7.30119 66.9889 7.55151C66.9474 13.9765 66.9474 20.4016 66.9474 26.8266C66.9474 28.3286 66.9059 29.8305 66.9059 31.2908C66.9059 31.3742 66.9474 31.4576 66.9059 31.4994C66.3664 32.0835 65.6608 31.708 65.0382 31.7914C64.9137 31.7914 64.6647 31.4994 64.6647 31.3325C64.6232 29.4968 64.6232 27.7028 64.6232 25.867C64.4571 23.8227 64.4571 21.6949 64.4986 19.5672Z" fill="#005B91"/>
        <path id="Vector_5" d="M99.6533 14.1434C99.6533 11.5984 99.6533 9.01174 99.6533 6.46676C99.6533 6.09127 99.5288 5.71579 99.6118 5.38202C99.6533 5.17341 99.9024 4.88137 100.11 4.88137C100.608 4.79792 101.106 4.83965 101.646 4.88137C101.812 4.88137 102.061 5.17341 102.061 5.3403C102.061 10.764 102.102 16.2295 101.978 21.6532C101.895 24.4485 100.774 26.9518 98.8232 28.9961C97.9931 29.8722 96.914 30.4563 95.7519 30.957C93.5936 31.8748 91.3523 31.9583 89.0696 32C88.613 32 88.1565 32 87.6999 31.9166C87.5754 31.8748 87.3679 31.6662 87.3679 31.4994C87.2848 30.9987 87.2849 30.4981 87.2849 30.0391C87.2849 29.6219 87.3679 29.2464 87.9074 29.2881C89.4846 29.4133 91.0203 29.2881 92.5975 29.0378C94.1332 28.7875 95.3783 28.1617 96.5405 27.2021C97.246 26.5763 97.9931 25.867 98.4497 25.0743C99.3213 23.6141 99.6533 21.9453 99.6533 20.2347C99.6533 18.2321 99.6533 16.2295 99.6533 14.2269C99.6118 14.1434 99.6118 14.1434 99.6533 14.1434Z" fill="#005B91"/>
        <path id="Vector_6" d="M119.908 11.0561C119.908 12.9335 119.908 14.8527 119.908 16.7301C119.908 17.3142 119.617 17.6063 119.036 17.6063C115.965 17.6063 112.893 17.6063 109.864 17.6063C109.365 17.6063 109.075 17.4394 109.075 16.8553C109.075 13.2256 109.033 9.59584 109.033 5.92439C109.033 4.83964 109.075 4.83964 110.154 4.83964C111.524 4.83964 111.399 4.67276 111.441 6.09127C111.441 8.38593 111.441 10.7223 111.441 13.017C111.441 13.4759 111.399 13.9348 111.565 14.352C111.69 14.6024 112.105 14.8944 112.395 14.8944C113.848 14.9361 115.301 14.9361 116.753 14.8944C117.002 14.8944 117.417 14.4772 117.459 14.2269C117.583 13.1838 117.625 12.1408 117.625 11.0978C117.625 9.17863 117.583 7.25946 117.625 5.34029C117.625 5.17341 117.915 4.92308 118.123 4.88136C118.58 4.79792 119.078 4.88136 119.534 4.83964C119.908 4.83964 119.991 4.96481 119.991 5.34029C119.866 7.25946 119.908 9.17863 119.908 11.0561Z" fill="#005B91"/>
        <path id="Vector_7" d="M119.908 25.4915C119.908 27.4524 119.908 29.3716 119.908 31.3325C119.908 31.7497 119.7 31.9166 119.327 31.9166C119.202 31.9166 119.078 31.9166 118.953 31.9166C117.583 31.9583 117.417 31.6662 117.5 30.2477C117.583 27.9114 117.5 25.5333 117.5 23.1969C117.5 22.9883 117.5 22.7797 117.5 22.5293C117.459 22.0287 117.21 21.6949 116.712 21.6949C115.176 21.6949 113.64 21.7366 112.105 21.8201C111.856 21.8201 111.482 22.2373 111.482 22.4459C111.441 25.1578 111.441 27.9114 111.524 30.6232C111.565 31.6662 111.441 31.8748 110.403 31.8748C109.033 31.8748 109.033 31.8748 109.033 30.5398C109.033 27.5776 109.033 24.6154 109.033 21.6115C109.033 20.9022 109.075 20.1512 109.116 19.442C109.116 19.3168 109.448 19.1082 109.615 19.1082C112.561 19.1082 115.508 19.1082 118.414 19.1082C118.704 19.1082 119.036 19.1082 119.285 19.0248C119.908 18.7745 119.908 19.1917 119.908 19.5672C119.908 21.528 119.866 23.4889 119.908 25.4915Z" fill="#005B91"/>
        <path id="Vector_8" d="M98.2837 13.4759C98.2837 15.854 98.4082 18.2738 98.2422 20.6519C98.0762 23.1969 97.1215 25.4081 94.7143 26.6597C93.2201 27.4524 91.6429 27.7862 89.9412 27.7445C89.1941 27.7028 88.447 27.7028 87.6999 27.661C87.5339 27.661 87.3264 27.3273 87.2849 27.1187C87.2434 26.6597 87.3264 26.2008 87.2849 25.7419C87.2434 25.1995 87.4924 25.0743 87.9905 25.0743C88.9866 25.1161 89.9827 25.1995 90.9788 25.0743C92.224 24.9074 93.5936 24.6988 94.4652 23.781C95.1293 23.03 95.7104 21.8618 95.7519 20.8605C95.8764 16.7719 95.7934 12.6415 95.7934 8.5111C95.7934 7.46808 95.7934 6.38333 95.8349 5.34031C95.8349 5.17342 96.1254 4.9231 96.3329 4.88137C96.7065 4.79793 97.1215 4.83965 97.5366 4.83965C98.3252 4.83965 98.4082 5.00654 98.4082 6.21645C98.4082 8.63626 98.4082 11.0561 98.4082 13.4759H98.2837Z" fill="#005B91"/>
        <path id="Vector_9" d="M107.581 18.3155C107.581 22.4876 107.581 26.6597 107.581 30.8318C107.581 31.7497 107.332 31.9583 106.377 31.9166C105.049 31.8331 105.09 31.8331 105.09 30.498C105.09 26.4094 105.049 22.3207 105.049 18.2321C105.049 14.9778 105.09 11.6819 105.09 8.42764C105.09 7.38462 105.132 6.29987 105.215 5.25685C105.215 5.08996 105.464 4.88136 105.63 4.83964C106.045 4.7562 106.502 4.7562 106.958 4.7562C107.373 4.7562 107.622 4.9648 107.581 5.46545C107.581 9.76271 107.622 14.06 107.581 18.3155Z" fill="#005B91"/>
        <path id="Vector_10" d="M123.685 18.3572C123.685 22.6545 123.685 26.9518 123.685 31.249C123.685 31.708 123.56 31.8748 123.062 31.8748C121.236 31.8331 121.236 31.8748 121.277 29.9557C121.319 28.1199 121.36 26.3259 121.36 24.4902C121.36 19.0665 121.36 13.6428 121.36 8.21903C121.36 7.21773 121.36 6.25815 121.36 5.25684C121.36 5.08996 121.609 4.83963 121.775 4.83963C123.685 4.75619 123.685 4.75619 123.685 6.67536C123.685 10.5971 123.685 14.4772 123.685 18.3572Z" fill="#005B91"/>
        <path id="Vector_11" d="M162.99 19.442C162.99 15.5202 162.99 11.6402 162.99 7.71838C162.99 7.50978 162.824 7.09257 162.782 7.09257C162.492 7.09257 162.118 7.13429 161.952 7.30117C160.541 8.84485 159.171 10.3885 157.802 11.9322C156.847 13.0169 155.893 14.1017 154.896 15.1864C154.232 15.9374 153.527 16.6884 152.821 17.4394C152.697 17.5645 152.531 17.648 152.406 17.7314C152.323 17.5645 152.24 17.3977 152.199 17.2308C152.157 16.9387 152.157 16.605 152.157 16.3129C152.157 13.5593 152.157 10.8057 152.157 8.09387C152.157 7.92699 152.116 7.71838 152.116 7.5515C152.033 7.05085 151.451 6.84224 151.119 7.21773C149.75 8.76141 148.38 10.3468 147.01 11.9322C145.973 13.1004 144.935 14.3103 143.898 15.4785C142.86 16.6467 141.781 17.7314 140.743 18.8996C139.747 20.0261 138.876 21.1943 137.879 22.3207C136.385 23.9896 134.85 25.6167 133.355 27.2855C132.235 28.5372 131.114 29.7888 129.993 31.0821C129.578 31.5411 129.163 31.9583 128.458 31.8748C128.001 31.7914 127.503 31.8748 127.047 31.8331C126.798 31.8331 126.549 31.708 126.299 31.6662C126.424 31.4159 126.466 31.1239 126.632 30.9153C127.462 29.9139 128.333 28.9961 129.205 27.9948C130.325 26.7432 131.488 25.4915 132.567 24.2399C133.978 22.6128 135.389 20.9439 136.8 19.3168C138.336 17.5645 139.872 15.7705 141.407 14.0183C142.901 12.3077 144.354 10.5554 145.89 8.84485C147.01 7.5515 148.173 6.29987 149.376 5.08996C150.414 4.04694 152.116 3.75489 153.319 4.58931C153.859 4.9648 154.274 5.84094 154.398 6.5502C154.606 7.71838 154.481 8.92829 154.523 10.0965C154.523 10.3468 154.689 10.5554 154.772 10.764C154.979 10.6389 155.27 10.5971 155.436 10.4302C156.806 8.88657 158.175 7.30117 159.503 5.7575C160.583 4.50587 161.869 3.88005 163.529 4.25554C164.193 4.3807 165.231 5.59061 165.273 6.38331C165.356 8.59453 165.439 10.764 165.439 12.9752C165.48 18.8162 165.439 24.6571 165.439 30.498C165.439 31.6245 165.356 31.708 164.277 31.708C162.948 31.708 162.948 31.708 162.948 30.3729V19.442H162.99Z" fill="#4EABE0"/>
        <path id="Vector_12" d="M204.619 18.8996C204.329 20.3181 204.163 21.8618 203.748 23.3638C203.001 25.9505 201.465 28.0365 199.431 29.6636C198.643 30.2894 197.605 30.6649 196.65 31.0821C195.115 31.7914 193.454 31.8748 191.753 31.8331C189.47 31.7914 187.187 31.7914 184.904 31.8331C184.489 31.8331 184.365 31.7497 184.365 31.2907C184.365 23.4472 184.323 15.6454 184.323 7.80183C184.323 6.96741 184.323 6.17471 184.323 5.34029C184.323 4.9648 184.448 4.79792 184.863 4.79792C188.059 4.79792 191.296 4.67276 194.492 4.88136C196.318 5.00652 198.062 5.79922 199.473 7.09257C200.22 7.76011 201.008 8.38592 201.631 9.17862C202.752 10.5971 203.623 12.1825 203.955 13.9765C204.246 15.5619 204.37 17.1473 204.619 18.8996ZM186.731 18.5241C186.731 21.7784 186.731 25.0743 186.731 28.3286C186.731 28.9544 186.98 29.2047 187.561 29.2047C189.179 29.2047 190.798 29.2047 192.417 29.2047C194.243 29.2047 196.028 28.8709 197.48 27.8696C198.518 27.1604 199.431 26.2008 200.303 25.2412C201.216 24.1982 201.299 22.9048 201.714 21.7366C202.253 20.3181 202.046 18.7745 202.129 17.2725C202.212 16.0209 201.88 14.8944 201.382 13.8514C200.759 12.4746 200.137 11.0561 198.975 10.013C198.601 9.67928 198.062 9.47067 197.646 9.17862C196.111 7.96871 194.368 7.55151 192.5 7.55151C191.089 7.55151 189.678 7.63495 188.308 7.50978C186.855 7.42634 186.648 7.46806 186.648 8.88658V18.5241H186.731Z" fill="#4EABE0"/>
        <path id="Vector_13" d="M259.613 19.734C259.613 15.9374 259.613 12.0991 259.613 8.30248C259.613 7.92699 259.323 7.50978 259.157 7.13429C258.783 7.30117 258.285 7.38461 258.036 7.67666C256.21 9.72099 254.425 11.807 252.599 13.8514C251.395 15.2282 250.109 16.5215 248.905 17.8983C247.494 19.4837 246.166 21.1108 244.796 22.6962C242.845 24.9074 240.895 27.0769 238.944 29.2881C238.363 29.9557 237.865 30.7066 237.201 31.3325C236.869 31.6662 236.288 31.8748 235.831 31.9583C235.208 32.0417 234.544 31.8748 233.922 31.7914C233.839 31.7914 233.714 31.7497 233.631 31.708C233.673 31.6245 233.714 31.5411 233.797 31.4576C234.378 30.7484 234.959 30.0391 235.54 29.3299C236.703 27.9948 237.865 26.7014 239.027 25.3664C240.895 23.2386 242.762 21.0691 244.63 18.9413C246.083 17.2725 247.535 15.6037 248.988 13.9765C250.524 12.2243 252.101 10.5137 253.637 8.76141C254.633 7.63494 255.546 6.42503 256.583 5.29857C257.497 4.29726 258.659 4.1721 259.945 4.33898C261.44 4.54759 261.938 5.9661 261.938 7.30117C261.938 14.1851 261.938 21.0691 261.938 27.9531C261.938 29.0795 261.979 30.1643 261.896 31.2907C261.896 31.4993 261.606 31.7914 261.398 31.8748C261.19 32 260.9 31.9583 260.609 31.9166C259.613 31.8748 259.572 31.8748 259.572 30.8318C259.53 27.1186 259.572 23.4055 259.613 19.734Z" fill="#4EABE0"/>
        <path id="Vector_14" d="M169.174 18.3155C169.174 14.0183 169.174 9.67927 169.174 5.38201C169.174 4.92308 169.34 4.79791 169.755 4.79791C172.411 4.79791 175.068 4.79791 177.724 4.79791C178.803 4.79791 179.841 4.79791 180.92 4.88135C181.127 4.88135 181.418 5.21512 181.418 5.42373C181.46 7.59322 181.584 7.50978 179.467 7.46806C177.6 7.46806 175.732 7.50978 173.823 7.5515C173.491 7.5515 173.159 7.50978 172.827 7.46806C171.913 7.38461 171.581 7.67666 171.581 8.59452C171.581 11.5984 171.581 14.6023 171.581 17.6063C171.581 21.1943 171.581 24.824 171.54 28.412C171.54 28.9544 171.789 29.2047 172.328 29.2047C174.943 29.2047 177.6 29.2047 180.214 29.2464C181.211 29.2464 181.709 29.8722 181.418 30.8318C181.127 31.8748 181.127 31.8748 179.965 31.8748C177.351 31.8748 174.777 31.9166 172.162 31.9166C171.291 31.9166 170.461 31.9166 169.589 31.8331C169.423 31.8331 169.174 31.4993 169.174 31.2907C169.174 26.9935 169.174 22.6545 169.174 18.3155Z" fill="#4EABE0"/>
        <path id="Vector_15" d="M229.066 31.8748C227.489 32 225.579 31.9166 223.836 31.1656C222.549 30.6232 221.304 29.914 220.267 28.9961C218.648 27.661 217.61 25.867 216.905 23.9061C216.075 21.528 215.743 19.0665 216.075 16.605C216.241 15.3116 216.49 14.06 216.905 12.8083C218.025 9.47067 220.225 7.09257 223.421 5.59061C224.002 5.34029 224.666 5.29857 225.247 5.08996C227.53 4.46415 229.854 4.88136 232.137 4.83964C232.262 4.83964 232.511 5.08996 232.552 5.21513C232.594 5.71578 232.677 6.21643 232.552 6.67536C232.511 6.96741 232.137 7.30118 231.888 7.3429C231.099 7.46806 230.311 7.42634 229.481 7.42634C227.696 7.42634 225.953 7.46806 224.293 8.21904C222.466 9.01174 221.097 10.2216 220.018 11.8488C218.482 14.2269 218.15 16.897 218.357 19.6506C218.357 19.7758 218.44 19.9009 218.44 20.0678C218.482 22.6962 219.852 24.6988 221.512 26.4928C222.3 27.369 223.338 28.0365 224.5 28.4954C226.7 29.3299 228.941 29.1213 231.182 29.1213C231.431 29.1213 231.681 29.1213 231.93 29.1213C232.345 29.1213 232.552 29.3299 232.552 29.7888C232.552 30.2894 232.677 30.7901 232.635 31.2907C232.635 31.4576 232.262 31.7497 232.096 31.7497C231.182 31.9166 230.311 31.8748 229.066 31.8748Z" fill="#4EABE0"/>
        <path id="Vector_16" d="M148.38 24.4485C148.38 22.1956 148.38 19.9426 148.38 17.6897C148.38 17.4394 148.256 17.189 148.173 16.9387C147.924 17.1056 147.633 17.189 147.426 17.3976C145.682 19.3168 143.939 21.236 142.237 23.1969C141.034 24.5737 139.872 25.9504 138.709 27.3272C137.423 28.7875 136.136 30.2477 134.849 31.7079C134.725 31.8331 134.517 31.9166 134.31 31.9166C133.563 31.9166 132.857 31.8748 132.11 31.8331C132.027 31.8331 131.944 31.7914 131.861 31.7497C131.903 31.6662 131.944 31.5411 131.986 31.4993C133.936 29.2881 135.887 27.0352 137.838 24.824C139.208 23.2386 140.577 21.6949 141.947 20.1095C143.815 17.94 145.724 15.8122 147.592 13.6428C148.339 12.7666 149.003 11.8905 149.75 11.0143C149.957 10.764 150.248 10.6388 150.497 10.4302C150.58 10.764 150.663 11.0561 150.704 11.3898C150.704 12.8501 150.704 14.352 150.704 15.8122C150.704 19.9843 150.704 24.1982 150.704 28.3703C150.704 29.3298 150.704 30.2894 150.704 31.2907C150.704 31.7079 150.497 31.8748 150.082 31.9166C148.38 31.9583 148.38 31.9583 148.38 30.2477V24.4485Z" fill="#4EABE0"/>
        <path id="Vector_17" d="M152.24 27.7027C152.24 25.4498 152.24 23.2386 152.24 20.9857C152.24 20.7353 152.323 20.4016 152.489 20.2347C153.61 18.8996 154.772 17.6063 155.934 16.3129C157.096 14.9778 158.175 13.6428 159.337 12.3077C159.877 11.6819 160.541 11.0978 161.164 10.5137C161.205 10.472 161.413 10.5554 161.413 10.5971C161.454 12.7666 161.496 14.9361 161.537 17.1473C161.537 17.9817 161.537 18.8162 161.537 19.6506C161.537 23.2386 161.62 26.7849 161.579 30.3729C161.537 32.0417 161.828 31.7497 160.25 31.7914C159.13 31.7914 159.13 31.7914 159.13 30.6649C159.171 27.2021 159.171 23.781 159.213 20.3181C159.213 19.4003 159.171 18.5241 159.13 17.6063C159.13 17.4394 158.964 17.1056 158.839 17.1056C158.673 17.1056 158.383 17.2308 158.258 17.3559C157.262 18.4407 156.391 19.5671 155.353 20.6102C154.772 21.1943 154.564 21.7366 154.606 22.5293C154.647 24.2816 154.564 26.0339 154.564 27.7862C154.564 28.9961 154.564 30.1643 154.523 31.3742C154.523 31.5411 154.232 31.8748 154.066 31.8748C151.825 31.9166 152.282 32.1669 152.24 30.1226C152.24 29.3299 152.24 28.5372 152.24 27.7027C152.199 27.7027 152.199 27.7027 152.24 27.7027Z" fill="#4EABE0"/>
        <path id="Vector_18" d="M265.798 19.6923C265.798 15.9374 265.798 12.1825 265.798 8.38592C265.798 7.34289 265.798 6.34159 265.881 5.29856C265.881 5.13168 266.13 4.92308 266.296 4.88135C266.711 4.79791 267.167 4.79791 267.582 4.79791C268.039 4.79791 268.205 5.00652 268.205 5.50717C268.205 13.0587 268.205 20.6102 268.205 28.1617C268.205 28.9126 268.454 29.2047 269.201 29.2047C271.691 29.2047 274.223 29.2047 276.713 29.2047C277.834 29.2047 277.958 29.3299 277.958 30.4563C277.958 31.9166 277.958 31.9166 276.506 31.8748C273.185 31.8748 269.824 31.8748 266.503 31.8748C265.964 31.8748 265.798 31.6662 265.798 31.1656C265.798 27.369 265.798 23.5306 265.798 19.6923Z" fill="#4EABE0"/>
        <path id="Vector_19" d="M251.893 25.2412C250.109 25.2412 248.283 25.2412 246.498 25.2412C246.124 25.2412 245.709 25.0743 245.336 24.9492C245.543 24.6154 245.668 24.2399 245.917 23.9478C247.328 22.279 248.739 20.6519 250.192 18.983C251.935 16.9804 253.678 14.9778 255.421 12.9752C256.168 12.1408 256.916 11.3481 257.704 10.5137C257.787 10.4302 257.912 10.3885 257.995 10.3468C258.036 10.4302 258.078 10.5554 258.078 10.6388C258.078 13.9348 258.078 17.189 258.119 20.485C258.119 21.7784 258.119 23.0717 258.202 24.3651C258.244 24.9492 258.078 25.2412 257.414 25.2412C255.504 25.1995 253.678 25.2412 251.893 25.2412ZM253.429 22.5293C253.969 22.5293 254.55 22.5711 255.089 22.4876C255.338 22.4459 255.712 22.1538 255.712 21.987C255.753 20.5267 255.753 19.0665 255.712 17.6063C255.712 17.1056 255.297 16.9804 254.882 17.3142C254.757 17.4394 254.633 17.5645 254.55 17.6897C253.471 18.983 252.391 20.3181 251.312 21.6115C251.188 21.7784 251.105 22.0287 251.146 22.2373C251.146 22.3624 251.478 22.4876 251.644 22.4876C252.225 22.5711 252.807 22.5293 253.429 22.5293Z" fill="#4EABE0"/>
        <path id="Vector_20" d="M229.564 27.8696C228.277 27.7027 226.99 27.6193 225.745 27.3273C224.915 27.1186 224.21 26.5763 223.421 26.2008C222.217 25.6584 221.595 24.5319 220.972 23.4889C220.184 22.1956 219.852 20.7353 219.769 19.2334C219.686 17.5645 219.81 15.9374 220.433 14.3937C221.055 12.8501 221.927 11.4733 223.338 10.5137C225.538 8.97001 228.028 8.92829 230.518 9.01173C231.016 9.01173 231.514 9.01173 232.054 9.05345C232.22 9.05345 232.428 9.26205 232.469 9.38722C232.552 10.013 232.594 10.6388 232.552 11.2647C232.552 11.3898 232.22 11.6402 232.013 11.6402C230.767 11.6819 229.522 11.515 228.319 11.7236C227.073 11.8905 225.787 12.1825 224.666 12.7249C223.338 13.3924 222.757 14.7692 222.383 16.146C222.01 17.6063 221.968 19.1499 222.342 20.6102C222.923 22.9883 224.417 24.4902 226.866 24.8657C228.07 25.0743 229.315 25.0326 230.56 25.116C230.975 25.1578 231.348 25.1995 231.764 25.1578C232.469 25.0743 232.594 25.4915 232.552 26.0339C232.552 26.4094 232.594 26.8683 232.469 27.2021C232.386 27.4524 232.013 27.7445 231.722 27.7445C230.975 27.8279 230.228 27.7862 229.522 27.7862C229.564 27.7862 229.564 27.8279 229.564 27.8696Z" fill="#4EABE0"/>
        <path id="Vector_21" d="M209.434 18.399C209.434 22.6962 209.434 26.9518 209.434 31.249C209.434 31.7497 209.268 31.9166 208.77 31.9166C208.479 31.9166 208.147 31.9583 207.857 31.9583C207.027 32 207.027 31.4576 207.027 30.8735C207.027 27.9531 207.068 25.0326 207.068 22.1121C207.068 19.5671 207.11 16.9804 207.11 14.4355C207.11 11.5567 207.068 8.67796 207.027 5.79922C207.027 4.83963 207.027 4.79791 208.023 4.79791C208.396 4.79791 208.77 4.79791 209.102 4.92308C209.226 4.9648 209.392 5.29856 209.392 5.46545C209.392 9.47066 209.392 13.4342 209.392 17.4394C209.434 17.7314 209.434 18.0652 209.434 18.399Z" fill="#4EABE0"/>
        <path id="Vector_22" d="M210.928 18.4824C210.928 14.352 210.928 10.1799 210.928 6.04956C210.928 4.75621 210.97 4.75621 212.256 4.79793C212.962 4.83965 213.252 5.00654 213.252 5.79923C213.211 12.9335 213.252 20.0261 213.252 27.1604C213.252 28.5372 213.252 29.914 213.211 31.3325C213.211 31.5411 212.879 31.708 212.713 31.9166H212.671C210.887 32 210.928 32 210.928 30.1226C210.887 26.2425 210.887 22.3625 210.928 18.4824Z" fill="#4EABE0"/>
        <path id="Vector_23" d="M250.482 26.7014C252.682 26.7014 254.882 26.7014 257.082 26.7014C258.119 26.7014 258.119 26.7849 258.119 27.7862C258.119 28.9544 258.119 30.1643 258.078 31.3325C258.078 31.4994 257.787 31.708 257.621 31.8748C257.58 31.9166 257.497 31.8748 257.455 31.8748C255.795 31.8748 255.836 31.8748 255.712 30.2477C255.67 29.6636 255.421 29.2464 254.716 29.2464C251.395 29.3299 248.075 29.3299 244.755 29.455C244.34 29.455 243.8 29.914 243.592 30.2894C242.97 31.4576 241.766 32.0417 240.106 31.7914C240.065 31.7914 240.023 31.7497 239.982 31.7497C239.691 31.708 239.359 31.6662 239.068 31.6245C239.276 31.3742 239.442 31.0821 239.691 30.8318C240.853 29.4968 242.015 28.1617 243.219 26.8683C243.343 26.7432 243.592 26.6597 243.758 26.6597C245.958 26.7014 248.241 26.7014 250.482 26.7014Z" fill="#4EABE0"/>
        <path id="Vector_24" d="M173.034 23.9479C173.034 22.4876 173.034 21.0274 173.034 19.5672C173.034 19.4003 173.283 19.1499 173.449 19.1499C175.234 19.1082 177.019 19.1499 178.803 19.1082C179.384 19.1082 179.924 19.0248 180.505 18.9831C181.003 18.9413 181.169 19.2751 181.252 19.6506C181.294 19.734 181.252 19.8175 181.252 19.9426C181.294 21.6532 181.252 21.6949 179.55 21.6949C178.43 21.6949 177.351 21.6949 176.23 21.6949C175.607 21.6949 175.317 21.987 175.317 22.6128C175.358 23.0717 175.317 23.5724 175.317 24.0313C175.317 24.6988 175.607 25.0326 176.271 25.0326C177.724 25.0326 179.177 25.0743 180.629 25.116C181.252 25.116 181.46 25.4498 181.377 26.1173C181.335 26.2842 181.335 26.4928 181.335 26.6597C181.335 27.6193 181.127 27.7862 180.173 27.7445C178.513 27.7445 176.853 27.7862 175.234 27.7445C174.611 27.7445 173.989 27.7027 173.366 27.661C173.242 27.661 173.076 27.4107 173.076 27.2438C173.034 26.2008 173.034 25.0743 173.034 23.9479Z" fill="#4EABE0"/>
        <path id="Vector_25" d="M198.767 12.2242C197.522 10.3885 195.654 9.38722 193.496 9.1369C191.836 8.97001 190.134 9.05345 188.474 9.05345C188.391 9.05345 188.183 9.3455 188.183 9.47066C188.183 12.1408 188.183 14.8527 188.183 17.5228C188.183 20.6936 188.183 23.8644 188.183 27.0352C188.183 27.5776 188.432 27.7027 188.889 27.7027C189.968 27.7027 191.047 27.7027 192.126 27.7027C193.911 27.7027 195.571 27.2855 197.065 26.2425C198.809 24.9909 199.846 23.2803 200.344 21.2777C200.593 20.1512 200.469 18.983 200.593 17.8149C200.759 15.6871 199.929 13.8931 198.767 12.2242ZM196.36 23.6558C195.779 24.2816 194.741 24.5737 193.87 24.824C193.164 25.0326 192.375 25.0326 191.587 25.0326C190.425 25.0743 190.259 24.824 190.259 23.6975C190.3 19.9009 190.259 16.146 190.342 12.3494C190.342 12.1408 190.757 11.7653 191.006 11.7236C192.707 11.3481 194.243 11.8905 195.737 12.6832C197.024 13.3924 197.605 14.6023 197.979 15.8957C198.186 16.6467 198.269 17.4394 198.394 18.2321C198.56 20.4016 197.688 22.1538 196.36 23.6558Z" fill="#4EABE0"/>
        <path id="Vector_26" d="M30.2571 30.8318C35.8187 21.9035 46.9006 16.3129 55.3676 14.8109C42.584 18.3155 36.0678 24.073 30.8381 30.7901C36.1923 25.1995 48.6023 17.3559 56.8617 14.8527C50.0964 17.648 39.4712 22.9465 31.2947 30.7901C38.8901 25.9505 47.5646 20.6519 58.1069 15.0613C48.1042 21.5698 39.2636 26.4928 31.4607 31.1239C37.1054 29.3299 50.0134 22.8631 57.6918 16.2712C50.9265 23.0717 39.5957 29.0795 31.2532 31.4993C39.4297 30.206 49.3078 25.9505 57.0693 17.6897C51.6736 24.073 41.6294 31.1239 30.9627 32C41.5464 32.5424 55.4921 24.0313 59.435 14.352C48.8928 12.8083 34.7396 20.9439 30.2571 30.8318Z" fill="#4EABE0"/>
        <path id="Vector_27" d="M26.3557 24.4485C20.0469 20.6936 15.8964 12.9752 14.6928 7.05086C17.3906 15.9792 21.5411 20.4433 26.3141 24.0313C22.3297 20.3599 16.602 11.7653 14.6928 6.00784C16.768 10.7223 20.6695 18.1069 26.3141 23.6975C22.7862 18.4407 18.9263 12.4329 14.8173 5.08998C19.5903 12.0574 23.1598 18.1904 26.5632 23.5724C25.235 19.6506 20.4204 10.6806 15.6889 5.38202C20.5865 10.0131 24.986 17.8566 26.8122 23.7393C25.7331 18.0235 22.5787 11.1395 16.685 5.84096C21.2505 9.5124 26.3557 16.4381 27.1442 23.9479C27.3103 16.4798 21.126 6.84226 14.2777 4.21384C13.4476 11.6819 19.3828 21.4863 26.3557 24.4485Z" fill="#4EABE0"/>
        <path id="Vector_28" d="M38.9731 18.4407C40.3428 13.4759 44.7838 9.30378 48.5608 7.42633C43.0406 10.8475 40.7579 14.4772 39.2222 18.3572C40.9654 14.9778 45.6969 9.59582 49.2664 7.25945C46.4855 9.51238 42.2105 13.4759 39.4712 18.2738C42.3765 14.9361 45.6969 11.2647 49.8889 7.17601C46.0705 11.6402 42.6256 15.1447 39.5957 18.399C42.003 16.7718 47.1496 11.9322 49.8474 7.80182C47.6062 11.9322 43.1236 16.3129 39.5127 18.6076C43.1651 16.8553 47.2326 13.4759 49.7229 8.5528C48.0627 12.3077 44.3273 17.0222 39.4297 18.8996C44.4933 17.6897 49.8474 11.7653 50.387 6.67535C45.2404 7.38461 39.7202 13.1838 38.9731 18.4407Z" fill="#4EABE0"/>
        <path id="Vector_29" d="M16.436 17.8566C12.41 16.7719 9.00658 13.1838 7.4709 10.1382C10.2932 14.6024 13.1986 16.3964 16.353 17.6063C13.6136 16.2295 9.21411 12.4329 7.30488 9.59584C9.1311 11.8488 12.3685 15.2699 16.3115 17.4811C13.6136 15.1447 10.5838 12.4746 7.26338 9.09519C10.8743 12.1408 13.7796 14.9361 16.436 17.3559C15.0663 15.4368 11.1233 11.2647 7.76144 9.09519C11.1233 10.8892 14.6928 14.4772 16.602 17.3977C15.1493 14.4355 12.41 11.1395 8.38401 9.17863C11.4139 10.472 15.2323 13.4759 16.8095 17.4811C15.7719 13.3507 10.9573 9.05347 6.84833 8.67798C7.4709 12.8501 12.2025 17.3142 16.436 17.8566Z" fill="#4EABE0"/>
        <path id="Vector_30" d="M28.3479 27.0352C28.1819 18.8162 33.0794 10.3468 37.9355 5.75749C31.0457 13.5176 29.261 20.1095 28.7214 26.7432C29.8421 20.7771 34.6151 10.3051 38.9731 5.13168C35.7358 9.88787 31.0457 17.8983 29.012 26.5763C31.9173 20.1095 35.3622 12.9752 39.8863 4.75619C36.1093 13.309 32.4154 20.3181 29.261 26.7014C32.1663 23.1134 37.8525 13.309 40.0938 5.71577C38.5996 13.0587 33.7435 21.8618 29.261 27.0352C34.0341 22.6545 38.7241 15.6454 40.2598 6.92568C39.4712 13.4342 35.8603 22.3624 29.261 27.4941C36.4413 23.2803 41.92 11.7236 40.3843 3.71317C32.8719 7.21773 27.0612 18.6076 28.3479 27.0352Z" fill="#F9C5C7"/>
        <path id="Vector_31" d="M27.3517 17.5228C24.7784 12.6832 25.152 6.17471 26.6461 1.96089C24.9029 8.67797 25.816 13.1421 27.4762 17.2308C26.3556 13.3507 26.0651 5.67406 27.0612 1.29335C26.5631 5.08996 26.1896 11.3064 27.6007 17.0222C27.3932 12.3077 27.2687 7.00913 27.4762 0.750981C27.8083 7.00913 27.7253 12.266 27.7668 17.0222C28.4308 14.0183 28.8459 6.46676 27.8913 1.25163C29.2194 6.09127 28.9704 12.8083 27.8498 17.2308C29.3855 13.1838 30.0495 7.59322 28.3478 1.91917C29.8005 6.00783 30.3816 12.4329 27.9743 17.4811C30.9626 12.8083 30.7551 4.29727 27.4347 -0.0417175C24.1143 4.38071 24.0728 12.9335 27.3517 17.5228Z" fill="#F9C5C7"/>
        <path id="Vector_32" d="M27.3933 31.1239C17.5981 31.0404 7.67841 24.9074 2.32428 18.8579C11.3723 27.4107 19.1753 29.7888 27.0612 30.6649C20.0054 29.1212 7.71992 23.03 1.6602 17.6062C7.22186 21.6532 16.6435 27.5776 26.8952 30.2894C19.2998 26.5763 10.8743 22.1956 1.20364 16.5215C11.2893 21.3611 19.5488 26.0339 27.0612 29.9974C22.8692 26.3677 11.3723 19.1916 2.36578 16.2295C11.0818 18.3155 21.4165 24.4485 27.4348 29.9974C22.3712 24.073 14.1532 18.2321 3.81845 16.0626C11.5384 17.2308 22.0806 21.8201 28.0158 29.9974C23.2428 21.236 9.62914 14.2268 0 15.8122C3.94297 25.0326 17.3491 32.3755 27.3933 31.1239Z" fill="#F9C5C7"/>
    </g>
</svg>
