<?xml version="1.0" encoding="utf-8"?>
<!-- Generator: Adobe Illustrator 24.2.0, SVG Export Plug-In . SVG Version: 6.00 Build 0)  -->
<svg version="1.1" id="Layer_1" xmlns="http://www.w3.org/2000/svg" xmlns:xlink="http://www.w3.org/1999/xlink" x="0px" y="0px"
	 viewBox="0 0 512 397" style="enable-background:new 0 0 512 397;" xml:space="preserve">
<style type="text/css">
	.st0{fill:#E6F1FF;}
	.st1{fill:#E6F1FF;filter:url(#Adobe_OpacityMaskFilter);}
	.st2{mask:url(#mask0_1_);}
	.st3{fill:#5095FF;}
	.st4{fill:url(#Vector_4_1_);}
	.st5{fill:#FFFFFF;}
	.st6{fill:url(#Vector_12_1_);}
	.st7{fill:url(#Vector_13_1_);}
	.st8{fill:url(#Vector_14_1_);}
	.st9{fill:#292C56;}
	.st10{fill:#323364;}
	.st11{fill:#595B86;}
	.st12{fill:#85B7FF;}
	.st13{fill:#EEF7FF;}
	.st14{fill:#89B9FF;}
	.st15{fill-rule:evenodd;clip-rule:evenodd;fill:#FFFFFF;}
	.st16{enable-background:new    ;}
	.st17{fill:#6984AE;}
	.st18{fill:none;stroke:#5095FF;stroke-width:3;stroke-linecap:round;stroke-linejoin:round;stroke-miterlimit:10;}
</style>
<g>
	<g class="side_bubble">
		<path class="st0" d="M359.8,310.4c7.6,5.6,5,22-5.8,36.7c-10.8,14.7-25.7,22.1-33.2,16.5c-7.6-5.6,2.6-16.1,13.4-30.8
			C344.9,318.1,352.2,304.9,359.8,310.4z"/>
	</g>
	<g class="superhero_bubble">
		<g id="Vector">
			<path class="st0" d="M176,396c97.2,0,176-78.6,176-175.5S273.2,45,176,45C78.8,45,0,123.6,0,220.5S78.8,396,176,396z"/>
		</g>
		<defs>
			<filter id="Adobe_OpacityMaskFilter" filterUnits="userSpaceOnUse" x="43.2" y="115.9" width="230.9" height="282.9">
				<feColorMatrix  type="matrix" values="1 0 0 0 0  0 1 0 0 0  0 0 1 0 0  0 0 0 1 0"/>
			</filter>
		</defs>
		<mask maskUnits="userSpaceOnUse" x="43.2" y="115.9" width="230.9" height="282.9" id="mask0_1_">
			<path id="Vector_2_1_" class="st1" d="M176.1,395.3c97,0,175.6-78.6,175.6-175.6S273.1,44,176.1,44C79.1,44,0.4,122.6,0.4,219.6
				S79.1,395.3,176.1,395.3z"/>
		</mask>
		<g class="st2">
			<g id="Group">
				<g id="Group_2">
					<g id="Group_3">
						<g id="Vector_3">
							<path class="st3" d="M274.1,398.8H43.2c0.4-63.5,51.9-150.1,115.4-150.1C222.2,248.7,273.7,335.4,274.1,398.8z"/>
						</g>

							<linearGradient id="Vector_4_1_" gradientUnits="userSpaceOnUse" x1="157.5257" y1="117.102" x2="157.9817" y2="148.539" gradientTransform="matrix(1 0 0 -1 0 398)">
							<stop  offset="0" style="stop-color:#FFA09F"/>
							<stop  offset="1" style="stop-color:#FEC7C6"/>
						</linearGradient>
						<path id="Vector_4" class="st4" d="M143.5,232.4v30.5c0,5.5,6.5,9.9,14.5,9.9c8,0,14.5-4.5,14.5-9.9v-30.5H143.5z"/>
						<g id="Group_4">
							<path id="Vector_5" class="st5" d="M171.1,342.2c8.1-15.9,26-27.2,40.2-31.1c-21.2,7.9-31.3,18.8-39.2,31
								c8.2-10.3,28-25.6,41.7-31.1c-11,5.8-28.3,16.4-40.9,31c12.2-9.4,26.1-19.7,43.1-30.9c-16,12.6-30.2,22.3-42.7,31.4
								c9.3-3.9,30.2-16.9,42.2-29.3c-10.4,12.6-28.7,24.6-42.6,30c13.7-3.5,29.8-12.3,41.6-27.4c-8.1,11.6-24.1,25.1-42.1,28.3
								c18.1-0.8,40.4-17.4,45.6-34.4C199.9,308.7,177.2,324.8,171.1,342.2z"/>
							<path id="Vector_6" class="st5" d="M163.5,332c-11.3-5.3-19.5-17.7-22.6-27.6c6,14.7,13.7,21.6,22.5,26.8
								c-7.4-5.6-18.4-19.2-22.6-28.6c4.3,7.6,12.1,19.5,22.5,28.1c-6.9-8.4-14.3-17.8-22.5-29.6c9.1,11,16.2,20.8,22.8,29.3
								c-2.9-6.4-12.5-20.8-21.3-29c9.1,7.1,17.8,19.6,21.8,29.3c-2.8-9.6-9.2-20.7-20-28.7c8.3,5.5,18.1,16.4,20.7,29
								c-0.8-12.7-13-28-24.9-31.3C139.5,312.5,151.2,328.2,163.5,332z"/>
							<path id="Vector_7" class="st5" d="M184,319.9c1.6-8.6,8.4-16.4,14.5-20.1c-8.9,6.7-12.1,13.1-14.1,19.9
								c2.5-5.9,9.6-15.9,15.3-20.3c-4.4,4.2-11,11.6-14.9,20.2c4.4-6.1,9.5-12.8,16-20.5c-5.7,8.1-11.1,14.7-15.7,20.6
								c3.8-3.1,11.8-12.1,15.8-19.5c-3.1,7.4-10.1,15.5-15.9,19.9c5.9-3.5,12.3-9.8,15.8-18.6c-2.2,6.6-7.9,15.2-15.9,19.1
								c8.4-2.8,16.6-13.7,16.6-22.5C192.9,300.2,184.4,310.8,184,319.9z"/>
							<path id="Vector_8" class="st5" d="M145.6,322.4c-7-1.2-13.3-6.7-16.4-11.6c5.5,7.1,10.8,9.7,16.3,11.3
								c-4.9-1.9-13-7.6-16.6-12.2c3.5,3.5,9.6,8.8,16.5,11.9c-5-3.5-10.5-7.6-16.7-12.7c6.7,4.6,12,8.9,16.9,12.5
								c-2.5-3-9.9-9.5-16-12.6c6,2.5,12.7,8,16.3,12.7c-2.9-4.8-8.1-9.9-15.2-12.6c5.4,1.7,12.3,6.2,15.7,12.7
								c-2.4-6.8-11.3-13.3-18.3-13.3C129.6,315.4,138.3,322.2,145.6,322.4z"/>
							<path id="Vector_9" class="st5" d="M167.3,336c-1.6-13.9,5.4-29,13-37.5c-10.5,14.2-12.5,25.6-12.4,37
								c1-10.3,7.4-28.7,14-38.2c-4.7,8.6-11.5,22.9-13.5,37.8c4-11.4,8.6-24,15-38.7c-5,15.1-10.2,27.6-14.5,38.8
								c4.4-6.5,12.5-24,15.1-37.3c-1.4,12.7-8.3,28.3-15.1,37.8c7.4-8.1,14.3-20.8,15.6-35.8c-0.4,11.1-5,26.8-15.4,36.5
								c11.5-8.2,19.1-28.6,15.2-42C171.8,301.8,163.7,322.1,167.3,336z"/>
							<path id="Vector_10" class="st5" d="M164.1,320.1c-5.1-7.8-5.5-18.8-3.6-26.2c-1.9,11.6,0.4,19,3.8,25.7
								c-2.5-6.4-4.3-19.3-3.2-26.9c-0.2,6.5,0.1,17.1,3.4,26.6c-1.1-7.9-2.1-16.9-2.8-27.5c1.6,10.5,2.3,19.5,3.1,27.5
								c0.6-5.2,0.2-18.1-2.3-26.7c3,8,3.6,19.3,2.5,27c2-7.1,2.2-16.6-1.6-25.9c3.1,6.7,5.1,17.4,1.8,26.4
								c4.4-8.4,2.6-22.7-3.7-29.5C156.5,298.4,157.8,312.9,164.1,320.1z"/>
							<path id="Vector_11" class="st5" d="M166.4,343.1c-16.7,1.4-34.5-7.4-44.5-16.8c16.7,13,30.3,15.8,43.9,16
								c-12.3-1.5-34.1-9.8-45.3-18c10.1,5.9,27.1,14.4,44.9,17.4c-13.5-5.1-28.5-11.1-45.8-19.3c17.9,6.6,32.7,13.2,46,18.7
								c-7.6-5.5-28.3-15.8-44.1-19.3c15.2,2.1,33.7,10.8,44.8,19.3c-9.6-9.2-24.4-17.8-42.4-19.8c13.3,0.8,31.9,6.9,43.3,19.7
								c-9.5-14-33.7-23.7-49.8-19.4C125.5,336.5,149.4,346.8,166.4,343.1z"/>
						</g>
						<g id="Group_5">

								<linearGradient id="Vector_12_1_" gradientUnits="userSpaceOnUse" x1="188.1321" y1="217.9445" x2="198.9851" y2="202.0255" gradientTransform="matrix(1 0 0 -1 0 398)">
								<stop  offset="0" style="stop-color:#FFCECC"/>
								<stop  offset="1" style="stop-color:#FFA09F"/>
							</linearGradient>
							<path id="Vector_12" class="st6" d="M201.1,188.2c0.6,5.2-2.1,9.8-5.9,10.2c-3.8,0.4-7.4-3.5-8-8.7s2.1-9.8,5.9-10.2
								C197,179.1,200.6,183,201.1,188.2z"/>

								<linearGradient id="Vector_13_1_" gradientUnits="userSpaceOnUse" x1="112.8124" y1="209.6465" x2="123.6654" y2="193.7265" gradientTransform="matrix(1 0 0 -1 0 398)">
								<stop  offset="0" style="stop-color:#FFCECC"/>
								<stop  offset="1" style="stop-color:#FFA09F"/>
							</linearGradient>
							<path id="Vector_13" class="st7" d="M125.9,196.6c0.6,5.2-2.1,9.8-5.9,10.2c-3.8,0.4-7.4-3.5-8-8.7
								c-0.6-5.2,2.1-9.8,5.9-10.2C121.7,187.4,125.3,191.3,125.9,196.6z"/>

								<linearGradient id="Vector_14_1_" gradientUnits="userSpaceOnUse" x1="118.9033" y1="200.0719" x2="194.2544" y2="208.373" gradientTransform="matrix(1 0 0 -1 0 398)">
								<stop  offset="0" style="stop-color:#FFA09F"/>
								<stop  offset="1" style="stop-color:#FEC7C6"/>
							</linearGradient>
							<path id="Vector_14" class="st8" d="M192.8,176.3l2.1,19.3c0.3,2.4,0.3,5,0.1,7.4c-0.2,2.9-0.7,5.7-1.4,8.6
								c-4.1,15.6-20.2,32-31.1,33.2c-8.8,1-29.4-10.3-37.1-23.6c-1.1-1.8-1.9-3.6-2.8-5.5c-1.6-3.8-2.7-7.9-3.1-11.9l-2.1-19.3
								c-2.3-20.8,12.7-39.5,33.5-41.8c10.4-1.1,20.3,2.1,27.8,8.1C186.4,157,191.6,165.9,192.8,176.3z"/>
							<path id="Vector_15" class="st9" d="M194.4,184.2c0,0.4,0,0.9,0.1,1.3c0,0.1,0,0.1,0,0.2c0,0.5,0,0.9,0,1.3
								c0.1,2.8,0.1,5.2,0.3,7.2c-0.2-1.9-0.7-4.1-1.5-6.4c-0.1-0.4-0.3-0.9-0.5-1.3c0-0.1-0.1-0.2-0.1-0.4
								c-0.1-0.4-0.4-0.8-0.6-1.3c-3.7-8.4-10.9-17.1-21.8-18.5c-4.6-0.6,10.6-13.3,18.1-3.4C193.2,169.1,194.1,177.3,194.4,184.2z"
								/>
							<path id="Vector_16" class="st10" d="M214.9,138.5c2.5,43.8-79.5,24-90.1,32.7c-5.7,4.6-6.3,14.8-5.9,23.2
								c0.2-0.4,0.3,4,0.4,5.2c0.1,0.6,0.1,1.3,0.2,1.8c0.4,3.8,0.8,6.2,0.5,6.1c0,0-1-2.4-2.5-6.3c-0.2-0.6-0.4-1.1-0.6-1.7
								c-6.7-17.4-20.3-57.7-6.2-63.1c3.6-1.4,7.9-0.6,12.7,0.5c2.3-3.8,4.7-7.6,8.1-10.2c3.5-2.7,7.8-3.9,12-3.5
								c2.6,0.3,5.1,1.2,7.1,3c1.1,1,2.5,2.5,3.3,4c2.5-4,5-8,8.5-10.8c3.5-2.7,7.8-3.9,12-3.5c2.6,0.3,5.1,1.2,7.1,3
								c0.9,0.9,2.1,2,2.8,3.2C199.7,117.6,213.7,118.3,214.9,138.5z"/>
							<g id="Group_6">
								<path id="Vector_17" class="st10" d="M148,182.4c0,0.9-3,1.5-6.2,3.4c-3.1,1.8-5.1,4.3-5.8,3.9c-0.4-0.2-0.3-1.1,0.4-2.4
									c0.6-1.3,2-2.8,3.9-4c1.9-1.1,3.9-1.6,5.3-1.6C147.1,181.6,148,182,148,182.4z"/>
							</g>
							<g id="Group_7">
								<path id="Vector_18" class="st10" d="M166.4,182.5c0.4,0.7,3.4-0.3,7-0.2c3.6,0,6.6,1.1,7,0.4c0.2-0.4-0.4-1.1-1.6-1.8
									c-1.2-0.8-3.2-1.4-5.4-1.4c-2.2,0-4.2,0.6-5.5,1.3C166.7,181.4,166.2,182.2,166.4,182.5z"/>
							</g>
							<path id="Vector_19" class="st10" d="M146.7,200.9c1-0.1,1.6-1.9,1.3-4.1c-0.2-2.1-1.2-3.8-2.2-3.7c-1,0.1-1.6,1.9-1.3,4.1
								C144.7,199.4,145.7,201,146.7,200.9z"/>
							<path id="Vector_20" class="st10" d="M173.4,198c1-0.1,1.6-1.9,1.3-4.1c-0.2-2.1-1.2-3.8-2.2-3.7c-1,0.1-1.6,1.9-1.3,4.1
								C171.5,196.5,172.5,198.1,173.4,198z"/>
							<path id="Vector_21" class="st5" d="M181.6,226l-13.2,4.4c-5.7,1.9-11.7,2.5-17.6,1.9l-13-1.4c-2.9,0.3-5.5-2.2-5.9-5.7
								l-1.1-10.5c-0.4-3.5,1.6-6.5,4.5-6.8l13.4,1.4c5.9,0.6,12,0,17.6-1.9l12.7-4.3c2.9-0.3,5.5,2.2,5.9,5.7l1.1,10.5
								C186.5,222.7,184.4,225.7,181.6,226z"/>
							<g id="Group_8">
								<path id="Vector_22" class="st5" d="M194.4,185.4c0,0.1,0,0.1,0,0.2c0,0.5,0,0.9,0,1.3c-0.4,0.2-0.8,0.5-1.2,0.8
									c-6.5,4.9-11,18-11,18.2c-0.1,0.3-0.4,0.5-0.8,0.5c-0.1,0-0.1,0-0.1,0c-0.4-0.1-0.6-0.5-0.4-0.9c0.2-0.7,4.7-14.1,11.8-19.1
									C193.3,186.1,193.8,185.7,194.4,185.4z"/>
							</g>
							<g id="Group_9">
								<path id="Vector_23" class="st5" d="M195.1,203c-0.2,2.9-0.7,5.7-1.4,8.6c-2,3.8-4.8,7.2-8.5,9.3c-0.1,0.1-0.2,0.1-0.3,0.1
									c-0.3,0-0.6-0.1-0.7-0.4c-0.2-0.4-0.1-0.8,0.3-1C190.3,216.2,194.1,209.1,195.1,203z"/>
							</g>
							<g id="Group_10">
								<path id="Vector_24" class="st5" d="M134.8,226.1c-0.1,0.3-0.4,0.4-0.6,0.5c-0.1,0-0.2,0-0.3,0c-3.2-1.1-6-2.9-8.4-5.2
									c-1.1-1.8-1.9-3.6-2.8-5.5c2.8,4.2,6.8,7.9,11.6,9.4C134.7,225.3,134.9,225.7,134.8,226.1z"/>
							</g>
							<g id="Group_11">
								<path id="Vector_25" class="st5" d="M135.6,212.1c-0.1,0.1-0.1,0.1-0.2,0.1c-0.3,0-0.6-0.1-0.7-0.4
									c-5-11.3-14-15.3-15.7-15.9c-0.1-0.5-0.1-1-0.1-1.5c0.1,0,0.2,0,0.3,0c0.4,0.1,11,3.8,16.8,16.8
									C136.2,211.6,136,211.9,135.6,212.1z"/>
							</g>
						</g>
						<g id="Group_12">
							<path id="Vector_26" class="st11" d="M210.6,138.1c0,0.1,0,0.2,0,0.1c0-0.1,0-0.1,0-0.3c0-0.1,0-0.1,0-0.1c0-0.1,0-0.1,0-0.2
								C210.7,137.8,210.7,138,210.6,138.1z"/>
							<path id="Vector_27" class="st11" d="M203.1,150.6C203.1,150.5,203.1,150.5,203.1,150.6C203.1,150.5,203.1,150.6,203.1,150.6
								z"/>
							<path id="Vector_28" class="st11" d="M202.2,151.1C202.3,151,202.3,151,202.2,151.1C202.3,151,202.2,151,202.2,151.1z"/>
							<path id="Vector_29" class="st11" d="M207,146.5l-0.1,0.1C206.9,146.6,206.9,146.6,207,146.5z"/>
							<path id="Vector_30" class="st11" d="M209.1,142.6C209.1,142.7,209.2,142.7,209.1,142.6C209.1,142.7,209.1,142.7,209.1,142.6
								z"/>
							<path id="Vector_31" class="st11" d="M186.1,158.7c0.2,0.1-0.2,0.3,0.1,0.4C186.1,159,186.3,158.7,186.1,158.7z"/>
							<path id="Vector_32" class="st11" d="M197.3,154.1L197.3,154.1C197.4,154.2,197.4,154.1,197.3,154.1z"/>
							<path id="Vector_33" class="st11" d="M200.1,152.8L200.1,152.8C200,152.9,200,152.8,200.1,152.8z"/>
							<path id="Vector_34" class="st11" d="M196,155.1C196,155.1,196,155.1,196,155.1C196,155.1,196,155.1,196,155.1z"/>
							<path id="Vector_35" class="st11" d="M163.5,163.3C163.5,163.3,163.5,163.2,163.5,163.3C163.5,163.3,163.2,163.3,163.5,163.3
								z"/>
							<path id="Vector_36" class="st11" d="M196.7,156.5l-0.3,0.1C196.5,156.5,196.6,156.5,196.7,156.5z"/>
							<path id="Vector_37" class="st11" d="M195.8,157c-0.1-0.1-0.1-0.1-0.2-0.1c0,0,0,0,0,0.1H195.8z"/>
							<path id="Vector_38" class="st11" d="M161.8,163.4c0.3,0,0.1-0.1,0.1-0.1c0.3,0,0.1,0.1,0.2,0.1c0.2,0,0.4-0.1,0.5-0.1
								c0,0,0.1,0,0,0.1c0.2-0.1,0.6,0,0.9-0.1c-0.1-0.1-0.1-0.1-0.1-0.1c0.1,0,0.2-0.1,0.3,0c-0.1,0-0.1,0-0.1,0.1l0.1-0.1
								c0.1,0.1-0.1,0.1-0.1,0.1c0.2-0.1,0.5-0.1,0.6-0.1c0.1,0.1-0.4,0.1-0.1,0.1l-0.3-0.1c0.2,0.1-0.1,0,0,0.1
								c0.4,0.1,0.4-0.1,0.8,0c0.1-0.1,0-0.1,0.1-0.1c0.5-0.1,0.4,0.3,0.8,0.1c0.1-0.1,0.1-0.3,0.4-0.1l-0.1,0.1
								c0.4,0,0.2-0.2,0.6-0.1c-0.1,0.1-0.3,0.1-0.2,0.1c0.2,0.1,0.1-0.1,0.4-0.1l0.1,0.1c0.4,0,0.8-0.1,1.2-0.2
								c0,0.1-0.1,0.1,0,0.1c0.5-0.1,1.1-0.1,1.6,0l0.2-0.1c0.1,0,0.1,0.1,0.1,0.1c0.2,0.1,0-0.1,0.1-0.1c0.1,0,0.1,0.1,0.1,0.1
								c0.4-0.1,0.9-0.4,1.3-0.2l-0.1,0.1c0.3,0.1,0.3-0.4,0.6-0.2h-0.1c0.6,0,1.3-0.2,1.8,0c0.1-0.3,0.6,0.1,0.6-0.3
								c0.4,0.1,0.3,0.2,0.8,0.3c0.1,0,0.1-0.2,0.4-0.3v0.2l0.2-0.2l0.1,0.2l0.1-0.1c-0.1,0-0.1-0.1-0.1-0.1
								c0.2-0.1,0.6,0.1,0.6,0.1l0.6-0.2c0,0.1-0.1,0.1-0.1,0.1c0.3-0.2,0.1,0.2,0.4,0c-0.1-0.1,0-0.1,0-0.1c0.1,0.1,0.5,0.1,0.7,0
								v0.1c0.4,0,0.9-0.2,1.3-0.3c-0.2-0.1-0.2-0.3-0.1-0.4l0.1,0.2c0.1-0.1-0.1-0.1,0-0.2c0.2,0,0.1,0.2,0.1,0.3l0.2-0.1
								c0,0.1,0,0.1,0,0.2c0.1-0.1,0.4,0.1,0.5-0.1v0.1c0.5-0.1,0.6-0.2,1.1-0.3c0-0.2,0.1-0.1,0.2-0.4c0.3,0,0.6,0.1,1,0
								c0.2-0.1,0-0.1,0.1-0.3c0.1,0.1,0.4,0.1,0.2,0.2c0.4-0.1,0.5-0.1,1-0.4c-0.1-0.1-0.1-0.1-0.1-0.1c0.1-0.1,0.2,0,0.2,0.1
								c0.5-0.4,1.4,0.2,1.8-0.3l0.4-0.3c0.2,0-0.1,0.1,0.1,0.2c0.4-0.4,0.8-0.1,1.1-0.5c0.5,0.4,1.1-0.4,1.6-0.1l-0.1-0.1
								c0.1-0.1,0.1,0,0.2,0c-0.1-0.1-0.1-0.1-0.1-0.1c0.4-0.2,0.9-0.4,1.4-0.4c0.5-0.1,1-0.1,1.5-0.3c0.4-0.1,0-0.7,0.5-0.6
								l-0.1,0.3c0.6-0.5,1.4-0.6,2-1.1c0,0.1,0,0.1-0.1,0.1c0.2,0.1,0.5-0.2,0.5-0.4c0.1,0,0.1,0.1,0.1,0.1c0.2,0,0.3-0.4,0.4-0.2
								c0,0,0,0.1-0.1,0.1c0.1-0.1,0.4-0.2,0.3-0.3c0.3-0.1,0.4-0.3,0.7-0.3c0.1-0.3,0.5-0.1,0.4-0.4c0.1,0.3,0.6,0,0.6-0.2
								c0,0.1,0.1,0,0.1,0.1c0.1-0.1,0.3-0.2,0.2-0.4c0.5,0.1,0.5-0.6,0.9-0.3c0.4-0.4,0.8-0.8,1.3-1.1c0.1,0.3-0.5,0.4-0.3,0.6
								c0.4-0.4,0.5-0.8,0.9-1c0.1-0.1,0,0.1,0,0.2c0.4-0.4,0.9-0.5,1.1-0.9c0,0,0,0.1-0.1,0.1c0.1-0.1,0.2-0.1,0.1-0.2l-0.1,0.1
								c-0.2-0.1,0.1-0.5,0-0.6c0.1,0.4,0.4-0.2,0.5,0.3c0-0.1,0.1-0.1,0-0.2c0.1,0,0.1,0,0.1,0.1c0.2-0.2,0.1-0.3,0.3-0.4
								c0,0.1,0,0.1,0,0.1c0.1-0.2,0.1-0.4,0.3-0.5c0,0.1,0.1,0.1,0,0.1c0.3-0.3,0.4-0.6,0.8-0.8c0.1,0.3,0.1-0.1,0.3,0.1l0.1-0.2
								h-0.1c0.1-0.1,0.2-0.4,0.4-0.4l-0.1,0.1l0.3-0.3l-0.2,0.1c0.1-0.2-0.2-0.1,0.1-0.4c0,0.1,0.1-0.1,0.4-0.1
								c0-0.1,0.1-0.2,0.2-0.3c0.1,0,0.1,0.2,0.1,0.2c0-0.2,0.4-0.4,0.3-0.6c0,0.1,0.1,0.1,0.1,0.1v-0.1c0.1-0.1,0.1-0.1,0.1,0
								c0.2-0.2-0.2-0.1,0.1-0.3c0,0,0,0,0,0.1c0.3-0.2,0.4-0.6,0.6-0.8c0.2,0.1-0.1,0.2,0,0.3c0.3-0.4,0.5-0.9,0.8-1.2l-0.1,0.1
								c-0.1-0.2,0.3-0.2,0.4-0.4c0,0.1,0.1,0.1,0.1,0.1c0.2-0.2,0.4-0.6,0.6-1v0.1c0.1-0.1,0.3-0.4,0.4-0.6c0-0.1,0.1-0.1-0.1-0.1
								c0.6-0.4,0.5-1.1,0.9-1.4c0,0.1-0.1,0.1,0,0.1c0.1-0.1,0.1-0.3,0.2-0.4c-0.1,0-0.1,0.1-0.1,0.1c0-0.1,0-0.2,0.1-0.3
								c-0.1,0.2,0.1,0.1,0.1,0c0,0,0-0.1-0.1-0.1c0.2-0.1-0.1-0.1,0.1-0.4c0-0.1,0.1-0.2,0.1-0.4c0.1,0,0,0.1,0,0.1
								c0.1-0.1,0-0.4,0.1-0.5c0,0.1-0.1,0.2-0.1,0.3c0.1-0.1,0.1-0.1,0.2-0.3l0.1-0.3l-0.1,0.1c-0.1-0.3,0.1-0.4,0.2-0.8
								c0,0.3,0.1,0.1,0.1,0.1c0.1-0.1,0.1-0.1,0.1-0.1c0-0.1,0.1-0.2,0.1-0.4c0,0,0.1-0.1,0.1-0.1c0.1-0.2-0.1,0-0.1,0
								c0-0.3,0.3-0.6,0.3-1.1c0.1-0.4,0.1-0.4,0.1-0.8c0.1-0.1,0,0.1,0,0.1c0.1-0.1,0.1-0.3,0.1-0.5c0,0.1,0,0,0.1-0.1
								c0-0.1,0-0.1,0-0.3c0,0,0,0.1,0,0.1c0-0.1,0.1-0.4,0.1-0.5c0-0.1,0,0.1,0,0.1c0-0.2,0.1-0.5,0.1-0.6v0.1c0-0.1,0,0,0,0
								c0,0.1-0.1,0.2-0.1,0.2v-0.1c-0.1,0.1-0.1,0.5-0.1,0.7V139v0.3c0,0.1-0.1,0.1-0.1-0.1c-0.1,0.1,0,0.1-0.1,0.3v0.1
								c0-0.1-0.1,0,0-0.1c-0.1,0.3-0.1,0.5-0.2,0.6c-0.1,0.4,0,0.1,0,0.4l-0.2,0.1l0.1,0.1c0,0.1-0.1,0.1-0.1,0.1
								c0,0.1,0,0,0.1,0.1c-0.1,0.2-0.1,0.6-0.3,0.6c0,0.1,0.1-0.1,0.1,0.1c-0.1,0-0.1,0.3-0.1,0.4c-0.1-0.1,0.1-0.2-0.1-0.1
								c0.1,0.1-0.1,0.4-0.2,0.5c0.1,0.1-0.1,0.4-0.2,0.6c0,0-0.3,0.4-0.4,0.6c0.1,0.1-0.1,0.3-0.1,0.5c-0.1-0.1-0.1-0.1-0.1-0.2
								l-0.1,0.1c0,0.1,0,0.1-0.1,0.2l-0.1-0.1c-0.1,0.2-0.1,0.4-0.4,0.7c0.1,0.1,0.4-0.1,0.2,0.2c-0.1,0-0.1-0.1-0.1-0.1
								c0,0,0,0.1-0.1,0.1v-0.1c-0.1,0.1,0,0.1-0.1,0.2c-0.1-0.1-0.1,0.1-0.1,0c0,0,0.1-0.1,0.1-0.1c-0.1,0.1-0.2,0.2-0.3,0.2
								c0.1,0,0.1,0.1,0.1,0.1c-0.1,0.2-0.1,0-0.2,0.1c0,0.1-0.1,0.1,0,0.2c-0.1,0.1-0.1,0.1-0.1,0.1c0,0.1-0.3,0.5-0.1,0.4
								c-0.1,0.4-0.6,0.6-0.8,0.9c-0.1,0.2-0.3,0.4-0.4,0.6c-0.1,0.1-0.1,0.1-0.2,0c-0.1,0.1-0.1,0.2-0.3,0.4c0.1-0.2-0.1,0,0.1-0.1
								c-0.2,0.1-0.3,0.1-0.4,0.4c0-0.1-0.2,0-0.3,0.1l0.2-0.1c-0.1,0.1-0.1,0.1-0.2,0.2l-0.1-0.1c-0.5,0.2-0.4,0.9-0.9,0.9
								c0,0.1,0.2-0.1,0.3,0.1c-0.1,0.1-0.5,0.1-0.6,0.1c-0.3,0.1-0.1,0.4-0.4,0.5c0.1,0,0.2,0.1,0.1,0.4c-0.2,0.1-0.4,0-0.3-0.1
								c0.1-0.1,0.1-0.1,0.1,0c0.1-0.1,0.1-0.1,0-0.1v0.1c-0.1,0-0.4,0.2-0.4,0.1c-0.1,0.1,0,0.1,0.1,0.1c-0.3,0.1-0.4,0.3-0.6,0.4
								c0.1,0,0.1,0,0.1,0.1c-0.4,0.2-0.1,0.2-0.3,0.4c-0.2,0-0.1-0.2-0.3,0c-0.2,0.1-0.1-0.1-0.1-0.2c-0.1,0.3-0.4,0.2-0.6,0.3
								l0.1-0.1c-0.1,0.1-0.1,0.1-0.1,0.1l0.1,0.1c-0.1,0-0.1,0.1-0.1,0c0,0.1,0.2,0.1,0.1,0.4c-0.1,0-0.2,0.3-0.4,0.1
								c0.3-0.1-0.1-0.1,0.1-0.4c0,0.1-0.1,0.1-0.1,0.1v-0.1c-0.4,0.1,0,0.3-0.3,0.4c0-0.1-0.2-0.1-0.2-0.1c0.1-0.1,0.1,0.1,0.1,0.3
								c-0.2,0.1-0.1,0.2-0.3,0.2l0.1-0.1c0,0.1-0.1,0.1-0.2,0.3c-0.1-0.1,0.1-0.1,0-0.1c-0.1,0.3-0.4,0.1-0.6,0.3
								c-0.1,0-0.1-0.1-0.2-0.1c-0.1,0.3-0.4,0-0.5,0.3c0.1,0.1,0.1,0.1,0.1,0.3l0.4-0.4l-0.1,0.4c0.1-0.1,0.2-0.2,0.3-0.3
								c-0.1,0.1-0.1,0.1,0.1,0.2c-0.3-0.1-0.2,0.3-0.5,0.3l-0.2-0.4c-0.4,0-0.4,0.5-0.8,0.6h0.1c0,0.1-0.2,0.1-0.3,0.3
								c-0.1-0.1-0.1-0.1-0.2-0.1c0.1,0.1-0.3,0.1-0.2,0.4l-0.3-0.1c-0.4,0.1-0.1,0.5-0.5,0.6c0-0.1-0.1-0.2,0-0.4
								c-0.1,0.1-0.2,0.1-0.1,0.1c-0.1-0.1-0.2,0.3-0.4,0.2c0,0.1,0,0.2-0.1,0.2v-0.1c0,0.1-0.1,0.1,0,0.2c-0.5-0.2-0.8,0.4-1.3,0.2
								c-0.2,0.1-0.4,0.3-0.6,0.4c0-0.1,0-0.1,0-0.1c-0.4,0,0,0.4-0.4,0.4c-0.3-0.1,0.1-0.2,0-0.2c-0.2-0.4-0.4,0.2-0.7,0.1l0.1-0.1
								c-0.2-0.1-0.4,0.4-0.6,0.4v-0.1c-0.1,0.3-0.4,0.5-0.6,0.6c0-0.2,0.1-0.1,0-0.3c-0.1,0.1,0.1,0.3-0.1,0.4
								c-0.1-0.1-0.3-0.1-0.4-0.3l0.2-0.1c-0.2-0.2-0.3,0.1-0.4,0.1v-0.1c-0.4,0.1-0.2,0.4-0.6,0.5l0.1,0.1
								c-0.1,0.4-0.2-0.1-0.4,0.2l-0.1-0.2c-0.1,0.1-0.4,0.4-0.6,0.6c0.1-0.2,0.3-0.4,0.4-0.6c-0.1,0.1-0.4,0.2-0.4,0.4
								c0.1-0.1,0.1-0.1,0.1-0.1c-0.1,0.3-0.3,0.4-0.5,0.5c-0.1-0.5-0.7,0.1-1.1-0.3c-0.4,0.4-0.9,0.2-1.5,0.4
								c0.3,0.4-0.1,0.1,0,0.5c-0.1,0.1-0.1,0.1-0.2,0.1l-0.4-0.1c-0.1-0.1,0.1-0.1,0.1-0.2c-0.3,0.1-0.1-0.1-0.4-0.2
								c0.1,0.1-0.1,0.2-0.2,0.2l0.3,0.1c-0.4,0.4-0.4-0.3-0.8,0.1l0.1-0.1c-0.2,0.1-0.7,0.2-0.8,0.6c-0.1-0.1-0.1-0.1-0.1-0.2
								c-0.5,0.1-1,0.6-1.4,0.5V159c-0.1,0.1-0.1,0.2-0.3,0.1c0-0.1,0-0.1,0-0.1c-0.1,0.1-0.2,0.2-0.4,0.2l0.1-0.1
								c-0.5,0-0.6,0.4-1.1,0.6c-0.1-0.3-0.4-0.3-0.6-0.3v-0.1c-0.6,0.1-0.9,0.4-1.4,0.6c-0.4-0.2-1.1,0.1-1.6,0
								c0.1,0,0,0.2-0.1,0.3c-0.1,0-0.3,0.3-0.4,0h0.1c-0.1-0.2-0.4-0.1-0.6-0.1v0.4c-0.6-0.4-1.3,0.4-1.6,0
								c-0.1,0.1-0.3,0.1-0.4,0.2v-0.1c-0.4,0-0.5,0-0.9,0.1l0.1-0.1c-0.2,0-0.2,0.5-0.5,0.6l-0.1-0.2c-0.4,0.1-0.8-0.1-1.3,0.2
								c0,0,0-0.1,0.1-0.1c-0.2,0-0.8-0.1-0.7,0.3c0-0.2-0.4,0.1-0.6,0.1v-0.1c-0.1,0.2-0.1,0.3-0.4,0.4c-0.1,0-0.1-0.1,0-0.1
								c-0.2-0.1-0.1,0.1-0.4,0.1l0.1-0.1c-0.2,0-0.2,0.1-0.3,0.1c-0.1,0.1-0.4,0-0.4-0.1c0,0.1-0.1,0.2-0.3,0.1
								c0-0.1,0-0.1,0.1-0.1c-0.4-0.1-0.5,0.2-0.8,0.1c0-0.1,0-0.1-0.1-0.1c0.3,0,0.5-0.1,0.5,0c0-0.1-0.2-0.1-0.1-0.3
								c-0.2,0.1-0.5,0.4-0.7,0.3c0,0,0,0,0-0.1c-0.1,0-0.1,0-0.1,0s-0.1,0-0.2,0c0-0.1-0.3,0-0.4,0c0,0.1-0.1,0.1,0,0.2
								c0,0,0,0,0.1,0h0.1c0.1,0,0.1,0,0.3-0.1c-0.1,0.1-0.2,0.1-0.3,0.1c-0.1,0.1-0.1,0.1-0.1,0.2c-0.1-0.1-0.5-0.2-0.6-0.3
								c-0.4,0.1-0.8,0.1-1.1,0.4c-0.1,0-0.1-0.1-0.1-0.1c0.1,0,0.1,0,0.1-0.1c-0.2,0.1-0.6,0.1-0.6,0.2c-0.3-0.1,0.1-0.1-0.2-0.1
								l0.1-0.1c-0.7-0.1-1.1,0.4-1.9,0.2c0.1,0,0.1,0,0.1,0c-0.9,0-1.8,0.1-2.7,0.1c-0.2,0-0.3,0.1-0.4,0.1l-0.1-0.1l-0.3,0.1
								c-0.4,0-0.6-0.1-1.1,0h0.1c-0.1,0-0.5,0-0.5,0s-0.1,0-0.1,0h-0.4c-0.3,0,0.1,0-0.4,0c-0.1,0-0.5,0-0.4,0c0.1,0,0.1,0,0.2,0
								h-0.1c0,0-0.1,0,0.2,0h0.3h0.1h-0.2c0.1,0,0.2,0,0.3,0c0,0,0.1,0,0.1,0h0.3c0,0-0.1,0,0.1,0c0.1,0-0.1,0,0.1,0
								c0.1,0,0.1,0,0.2,0c0,0,0,0-0.1,0c0.1,0,0.4,0,0.4,0c0.1,0,0.4,0,0.4,0.1c0.1,0,0.2,0,0.4,0c-0.2,0.1,0.5,0,0.4,0.1
								c0.1-0.1,0.6,0,0.9-0.1h-0.1c0.1,0,0.2,0.1,0.4,0.1c0-0.1,0.3-0.1,0.4-0.1c0.2,0.1-0.1,0.1-0.1,0.1c0-0.1,0.4-0.1,0.3-0.1
								c0.1,0.1,0.1,0,0.2,0.1c0-0.1,0.1,0,0.3-0.1c0.2,0.1,0.1,0.1,0.3,0.1C162,163.3,161.8,163.4,161.8,163.4z M167.6,163
								c-0.1,0-0.1,0-0.1,0C167.5,163,167.6,163,167.6,163z M168.1,163c-0.1,0-0.1,0-0.2,0c0-0.1,0-0.1,0.1-0.1
								C167.9,162.9,168,162.9,168.1,163z M167,162.2c0.1,0,0.1,0,0.1,0C167.1,162.2,167,162.2,167,162.2z"/>
							<path id="Vector_39" class="st11" d="M207,146.4C207,146.5,207.1,146.4,207,146.4C207.1,146.5,207.1,146.4,207,146.4z"/>
							<path id="Vector_40" class="st11" d="M209.2,143.2l0.1-0.1C209.3,143.2,209.2,143.2,209.2,143.2z"/>
							<path id="Vector_41" class="st11" d="M200.7,153.7C200.6,153.9,200.7,153.8,200.7,153.7L200.7,153.7z"/>
							<path id="Vector_42" class="st11" d="M203.8,150.7c0,0.1,0,0.1-0.1,0.1C203.8,150.8,203.9,150.7,203.8,150.7z"/>
							<path id="Vector_43" class="st11" d="M203.6,150.9c0.1,0,0.1-0.1,0.1-0.1C203.8,150.9,203.7,150.9,203.6,150.9z"/>
							<path id="Vector_44" class="st11" d="M210.3,140.1c0-0.1,0.1-0.2,0.1-0.4C210.4,139.8,210.3,140,210.3,140.1z"/>
							<path id="Vector_45" class="st11" d="M209.6,141.5l0.1-0.3c-0.1,0.1-0.1,0.1-0.1,0C209.5,141.5,209.8,141.1,209.6,141.5z"/>
							<path id="Vector_46" class="st11" d="M209.3,142.4C209.4,142.2,209.2,142.4,209.3,142.4C209.2,142.4,209.2,142.4,209.3,142.4
								z"/>
							<path id="Vector_47" class="st11" d="M205.7,148L205.7,148C205.5,148,205.6,148,205.7,148z"/>
							<path id="Vector_48" class="st11" d="M205.2,149.4h0.1l-0.1-0.1L205.2,149.4z"/>
							<path id="Vector_49" class="st11" d="M204,149.3L204,149.3l-0.1,0.1L204,149.3z"/>
							<path id="Vector_50" class="st11" d="M194.8,155.6l0.1,0.2C195,155.7,194.8,155.4,194.8,155.6z"/>
							<path id="Vector_51" class="st11" d="M190.4,157.6c-0.1-0.1-0.2-0.1-0.3,0C190.2,157.6,190.3,157.7,190.4,157.6z"/>
							<path id="Vector_52" class="st11" d="M176,160.9l0.1-0.1L176,160.9L176,160.9z"/>
						</g>
						<g id="Group_13">
							<path id="Vector_53" class="st12" d="M178.9,266.4l-0.1,0.1L178.9,266.4z"/>
							<path id="Vector_54" class="st12" d="M178.7,266.8c0,0.1-0.1,0.1,0,0.1C178.7,266.9,178.7,266.9,178.7,266.8
								c0.1-0.1,0.1-0.1,0.1-0.1c0-0.1,0-0.1,0.1-0.1C178.8,266.6,178.8,266.7,178.7,266.8C178.7,266.9,178.7,266.8,178.7,266.8z"/>
							<path id="Vector_55" class="st12" d="M174,272.3l-0.1,0.1C173.9,272.3,174,272.3,174,272.3z"/>
							<path id="Vector_56" class="st12" d="M176.4,269.8c0,0,0,0.1,0.1,0.1C176.5,269.9,176.5,269.9,176.4,269.8
								C176.5,269.8,176.5,269.8,176.4,269.8z"/>
							<path id="Vector_57" class="st12" d="M156.2,277.6c0.1,0.2-0.2,0.2,0,0.4C156.2,277.9,156.4,277.7,156.2,277.6z"/>
							<path id="Vector_58" class="st12" d="M178.3,267.7C178.2,267.8,178.2,267.8,178.3,267.7L178.3,267.7z"/>
							<path id="Vector_59" class="st12" d="M164.3,277L164.3,277C164.2,277,164.2,277,164.3,277C164.2,277,164.2,276.9,164.3,277z"
								/>
							<path id="Vector_60" class="st12" d="M140,271.3C140,271.2,140,271.2,140,271.3C140,271.3,139.9,271.1,140,271.3z"/>
							<path id="Vector_61" class="st12" d="M164.7,278.4h-0.2C164.5,278.5,164.6,278.4,164.7,278.4z"/>
							<path id="Vector_62" class="st12" d="M163.8,278.6c-0.1-0.1-0.1-0.1-0.1-0.1c0,0,0,0,0,0.1H163.8z"/>
							<path id="Vector_63" class="st12" d="M139.1,270.2c0.1,0.1,0.1,0,0.2,0c0.1,0.1,0,0.1,0,0.2c0.1,0.1,0.2,0.1,0.3,0.2
								c0,0,0,0.1,0,0c0.1,0.1,0.3,0.4,0.5,0.4c0,0,0,0,0,0.1c0-0.1,0.1-0.1,0.1-0.1c0.1,0.1,0.1,0.1,0.1,0.1c0-0.1-0.1,0-0.1,0
								l0.1,0.1c0,0.1-0.1-0.1-0.1,0c0.1,0.1,0.4,0.2,0.4,0.4c-0.1,0.1-0.2-0.2-0.2,0l-0.1-0.2c0,0.2-0.1-0.1-0.1,0.1
								c0.1,0.2,0.2,0.2,0.4,0.4c0.1,0,0.1-0.1,0.1-0.1c0.4,0.2,0,0.4,0.3,0.6c0.1,0,0.2-0.1,0.4,0.1l-0.1,0.1
								c0.2,0.2,0.3-0.1,0.4,0.2c-0.1,0-0.2-0.1-0.1-0.1c0.1,0.2,0.1,0,0.3,0.1l-0.1,0.1c0.2,0.2,0.6,0.4,0.8,0.5
								c-0.1,0-0.1,0-0.1,0.1c0.4,0.2,0.6,0.6,0.9,0.9h0.2v0.1c0.1,0.1,0.1-0.1,0.1-0.1c0.1,0.1,0.1,0.1,0,0.1
								c0.3,0.1,0.8,0.3,0.9,0.6h-0.1c0.1,0.2,0.4-0.1,0.5,0.1h-0.1c0.4,0.3,0.9,0.5,1.1,0.9c0.1-0.1,0.4,0.4,0.6,0.1
								c0.1,0.3,0.1,0.3,0.4,0.6c0.1,0.1,0.2-0.1,0.4-0.1L147,277l0.2-0.1v0.2h0.1c-0.1,0-0.1-0.1,0-0.1c0.2,0,0.4,0.4,0.4,0.4
								l0.5,0.1c-0.1,0.1-0.1,0.1-0.2,0.1c0.3-0.1-0.1,0.2,0.2,0.1c0-0.1,0.1-0.1,0.1-0.1c0.1,0.1,0.3,0.2,0.5,0.3l-0.1,0.1
								c0.3,0.1,0.7,0.2,1.1,0.3c-0.1-0.1,0-0.4,0.1-0.3v0.2c0.1-0.1-0.1-0.1,0.1-0.2c0.1,0.1,0,0.3-0.1,0.3h0.2
								c0,0.1-0.1,0.1-0.1,0.1c0.1-0.1,0.2,0.3,0.4,0.1v0.1c0.4,0.1,0.6,0.1,0.9,0.1c0.1-0.2,0.1-0.1,0.3-0.2
								c0.2,0.1,0.4,0.3,0.7,0.4c0.2-0.1,0.1-0.1,0.2-0.2c0,0.1,0.2,0.2,0.1,0.3c0.4,0.1,0.4,0.1,0.9,0c0-0.1-0.1-0.1-0.1-0.1
								c0.1,0,0.1,0.1,0.1,0.1c0.5-0.2,1,0.6,1.4,0.4l0.4-0.1c0.1,0.1-0.1,0.1,0,0.3c0.4-0.2,0.6,0.1,1-0.1c0.2,0.6,0.9,0,1.3,0.3
								v-0.1c0.1-0.1,0.1,0.1,0.2,0.1c0-0.1-0.1-0.1-0.1-0.2c0.8-0.1,1.6,0.1,2.4,0.1c0.3,0,0.1-0.6,0.5-0.4l-0.1,0.2
								c0.3-0.1,0.6-0.2,0.9-0.2c0.3-0.1,0.6-0.1,0.8-0.3c0,0.1,0,0.1-0.1,0.1c0.1,0.1,0.4-0.1,0.4-0.2c0.1,0,0.1,0.1,0.1,0.1
								c0.1,0.1,0.3-0.3,0.4-0.1c0,0,0,0.1-0.1,0.1c0.1-0.1,0.4-0.1,0.3-0.2c0.2,0.1,0.4-0.1,0.6-0.1c0.1-0.2,0.4,0,0.4-0.3
								c0.1,0.3,0.4,0.1,0.5-0.1c0,0.1,0.1,0.1,0.1,0.2c0.1-0.1,0.3-0.1,0.2-0.3c0.4,0.3,0.5-0.4,0.8-0.1c0.4-0.3,0.8-0.5,1.1-0.7
								c0.1,0.3-0.4,0.2-0.3,0.5c0.4-0.3,0.4-0.6,0.8-0.6c0.1,0,0,0.1,0,0.2c0.4-0.3,0.7-0.3,1-0.6c0,0,0,0.1-0.1,0.1
								c0.1,0,0.1,0,0.1-0.1l-0.1,0.1c-0.1-0.1,0.1-0.4,0.1-0.6c0.1,0.4,0.4-0.1,0.4,0.4c0-0.1,0.1-0.1,0-0.2c0.1,0,0.1,0,0.1,0.1
								c0.2-0.1,0.1-0.3,0.3-0.4c0,0.1,0,0.1,0,0.1c0.1-0.1,0.1-0.3,0.3-0.4c0,0.1,0.1,0.1,0,0.1c0.3-0.1,0.4-0.5,0.7-0.6
								c0,0.3,0.1,0,0.3,0.2l0.1-0.1l-0.1-0.1c0.1-0.1,0.2-0.3,0.4-0.3l-0.1,0.1l0.2-0.2h-0.2c0.1-0.2-0.1-0.2,0.1-0.3
								c0,0.1,0.1-0.1,0.3,0c0.1-0.1,0.1-0.2,0.2-0.2c0.1,0.1,0.1,0.2,0.1,0.2c0-0.2,0.3-0.2,0.3-0.4c0,0.1,0.1,0.1,0.1,0.1v-0.1
								c0.1,0,0.1,0,0.1,0.1c0.2-0.1-0.2-0.1,0.1-0.2c0,0,0,0,0,0.1c0.3-0.1,0.4-0.4,0.6-0.5c0.1,0.1-0.1,0.1,0,0.2
								c0.3-0.3,0.5-0.6,0.8-0.8h-0.1c-0.1-0.2,0.3-0.1,0.4-0.3c0,0.1,0.1,0.1,0,0.1c0.2-0.1,0.4-0.4,0.6-0.6v0.1
								c0.1-0.1,0.3-0.2,0.4-0.3c0-0.1,0.1-0.1,0-0.1c0.5-0.1,0.5-0.8,1-0.8c0,0.1-0.1,0.1,0,0.1l0.2-0.3c-0.1,0-0.1,0-0.1,0
								c0-0.1,0.1-0.1,0.1-0.2c-0.1,0.1,0.1,0.1,0.1,0.1c0,0,0-0.1-0.1-0.1c0.2-0.1-0.1-0.1,0.1-0.3c0.1-0.1,0.1-0.2,0.1-0.3
								c0.1,0-0.1,0.1,0,0.1c0.1-0.1,0.1-0.3,0.2-0.4c0,0.1-0.1,0.1-0.1,0.2c0.1-0.1,0.1-0.1,0.2-0.1l0.2-0.1h-0.1
								c0-0.3,0.2-0.3,0.3-0.6c-0.1,0.3,0,0.1,0.1,0.1c0.1-0.1,0.1-0.1,0.1-0.1c0-0.1,0.1-0.1,0.2-0.3l0.1-0.1c0.1-0.1-0.1,0-0.1,0
								c0.1-0.2,0.4-0.4,0.5-0.7c0.1-0.3,0.1-0.4,0.2-0.6c0.1-0.1,0,0.1,0,0.1c0.1-0.1,0.1-0.2,0.2-0.4c0,0,0,0,0.1,0
								c0.1-0.1,0-0.1,0.1-0.2c0,0,0,0.1,0,0.1c0.1-0.1,0.1-0.2,0.1-0.4c0,0,0,0.1,0,0.1c0.1-0.1,0.1-0.4,0.1-0.4l-0.1,0.1
								c0-0.1,0,0,0,0c-0.1,0.1-0.1,0.1-0.1,0.1l0.1-0.1c-0.1,0.1-0.2,0.4-0.3,0.5v-0.1l-0.1,0.2c0,0-0.1,0.1,0-0.1
								c-0.1,0.1-0.1,0.1-0.1,0.2l-0.1,0.1c0,0-0.1,0,0-0.1c-0.1,0.2-0.2,0.4-0.3,0.4c-0.1,0.3,0,0.1-0.1,0.3l-0.2,0.1v0.1l-0.1,0.1
								c-0.1,0.1,0,0,0,0.1c-0.1,0.1-0.3,0.4-0.4,0.4c0,0.1,0.1-0.1,0.1,0.1c-0.1,0-0.1,0.1-0.2,0.3c0-0.1,0.1-0.1-0.1-0.1
								c0,0.1-0.2,0.2-0.3,0.3c0.1,0.1-0.1,0.2-0.3,0.4c0,0-0.3,0.3-0.5,0.4c0.1,0.1-0.1,0.2-0.2,0.4c-0.1-0.1-0.1-0.1,0-0.1
								l-0.1,0.1c0,0.1,0,0.1-0.1,0.1l-0.1-0.1c-0.1,0.1-0.2,0.4-0.4,0.4c0.1,0.1,0.3,0.1,0.1,0.3c-0.1,0-0.1-0.1-0.1-0.1
								c0,0,0,0.1-0.1,0.1v-0.1c-0.1,0.1,0,0.1-0.1,0.1c-0.1-0.1-0.1,0-0.1-0.1c0,0,0.1,0,0.1-0.1c-0.1,0.1-0.2,0.1-0.3,0.1
								c0,0,0.1,0.1,0,0.1c-0.1,0.1-0.1,0-0.2,0c0,0.1-0.1,0.1-0.1,0.2c-0.1,0.1-0.1,0-0.1,0c-0.1,0.1-0.4,0.3-0.1,0.3
								c-0.1,0.3-0.6,0.4-0.8,0.6c-0.1,0.1-0.3,0.3-0.4,0.4c-0.1,0-0.1,0-0.1-0.1c-0.1,0.1-0.1,0.1-0.3,0.2c0.1-0.1-0.1,0,0.1-0.1
								c-0.1,0.1-0.3,0-0.4,0.3c0-0.1-0.2-0.1-0.3,0h0.1c-0.1,0.1-0.1,0.1-0.2,0.1l-0.1-0.1c-0.4,0.1-0.4,0.6-0.8,0.5
								c0,0.1,0.2,0,0.2,0.1c-0.1,0.1-0.4-0.1-0.5,0c-0.3,0-0.1,0.4-0.3,0.4c0.1,0.1,0.1,0.1,0.1,0.3c-0.1,0.1-0.3-0.1-0.3-0.2h0.1
								c0.1-0.1,0.1-0.1,0-0.1v0.1c-0.1,0-0.3,0.1-0.3,0c-0.1,0.1,0,0.1,0.1,0.1c-0.2,0-0.3,0.1-0.5,0.2c0.1,0,0.1,0.1,0.1,0.1
								c-0.4,0.1-0.1,0.1-0.3,0.3c-0.1-0.1-0.1-0.2-0.2-0.1c-0.1,0-0.1-0.1-0.1-0.2c-0.1,0.2-0.4,0.1-0.5,0.1l0.1-0.1
								c-0.1,0.1-0.1,0.1-0.1,0.1l0.1,0.1c-0.1,0-0.1,0-0.1,0c0,0.1,0.1,0.2,0.1,0.4c-0.1,0-0.2,0.2-0.3,0c0.3-0.1-0.1-0.1,0.1-0.3
								c0,0.1-0.1,0.1-0.1,0.1v-0.1c-0.3-0.1,0,0.2-0.3,0.4c0-0.1-0.1-0.1-0.1-0.1c0.1-0.1,0.1,0.1,0.1,0.3c-0.2,0-0.1,0.1-0.2,0.1
								h0.1c0,0.1-0.1,0.1-0.1,0.2c-0.1-0.1,0.1-0.1,0-0.1c-0.1,0.2-0.4-0.1-0.5,0.1c-0.1-0.1-0.1-0.2-0.1-0.2
								c-0.1,0.2-0.3-0.1-0.4,0.1c0.1,0.1,0.1,0.1,0,0.3l0.3-0.2l-0.1,0.3c0.1,0,0.2-0.1,0.2-0.1c-0.1,0.1-0.1,0.1,0,0.2
								c-0.2-0.1-0.2,0.2-0.4,0.1l-0.1-0.4c-0.3-0.1-0.4,0.4-0.7,0.4c0.1,0,0.1,0,0.1,0c0,0.1-0.2,0.1-0.3,0.1
								c0-0.1-0.1-0.1-0.1-0.2c0,0.1-0.2,0.1-0.2,0.3l-0.2-0.1c-0.3,0-0.2,0.4-0.4,0.5c0.1-0.1-0.1-0.2,0.1-0.4
								c-0.1,0-0.1,0-0.1,0.1c-0.1-0.1-0.2,0.2-0.3,0.1c0,0.1,0,0.2-0.1,0.2v-0.1c0,0.1-0.1,0.1,0,0.2c-0.4-0.4-0.7,0.2-1-0.1
								c-0.1,0.1-0.4,0.1-0.6,0.2c0-0.1,0-0.1,0-0.1c-0.3-0.1-0.1,0.4-0.4,0.3c-0.1-0.2,0.1-0.1,0-0.2c-0.1-0.4-0.3,0.1-0.5-0.1h0.1
								c-0.1-0.1-0.3,0.2-0.5,0.2v-0.1c-0.1,0.3-0.4,0.4-0.6,0.4c0.1-0.2,0.1-0.1,0-0.3c-0.1,0,0.1,0.3-0.1,0.4
								c-0.1-0.1-0.2-0.1-0.3-0.4h0.2c-0.1-0.2-0.2,0-0.4,0v-0.1c-0.3,0.1-0.3,0.4-0.6,0.4l0.1,0.1c-0.1,0.3-0.1-0.1-0.3,0.1
								l-0.1-0.3c-0.1,0.1-0.4,0.3-0.6,0.4c0.1-0.2,0.3-0.4,0.4-0.5c-0.1,0-0.4,0.1-0.4,0.2c0.1,0,0.1-0.1,0.1-0.1
								c-0.1,0.2-0.3,0.4-0.5,0.4c0-0.6-0.6-0.1-0.7-0.6c-0.4,0.2-0.7-0.1-1.2-0.1c0.1,0.4-0.1,0-0.1,0.4c-0.1,0-0.1,0-0.1,0
								l-0.3-0.3c-0.1-0.1,0.1-0.1,0.1-0.2c-0.2,0-0.1-0.2-0.2-0.3c0,0.1-0.1,0.2-0.2,0.1c0.1,0.1,0.1,0.1,0.1,0.2
								c-0.4,0.2-0.2-0.4-0.6-0.2l0.1-0.1c-0.1,0.1-0.6-0.1-0.8,0.3c0-0.1-0.1-0.1,0-0.2c-0.4-0.1-0.9,0.3-1.1,0l0.1-0.1
								c-0.1,0-0.1,0.2-0.2,0.1c0-0.1,0.1-0.1,0-0.1c-0.1,0.1-0.2,0.1-0.3,0.1l0.1-0.1c-0.4-0.2-0.6,0.1-0.9,0.1
								c0.1-0.3-0.2-0.4-0.4-0.5v-0.1c-0.4-0.1-0.8,0.1-1.2,0.1c-0.1-0.4-0.8-0.4-1.1-0.6c0.1,0.1-0.1,0.2-0.1,0.2
								c-0.1-0.1-0.3,0.1-0.2-0.1c0-0.3-0.2-0.3-0.4-0.3l-0.1,0.3c-0.2-0.6-1-0.3-1.1-0.7c-0.1,0-0.2,0-0.4,0l0.1-0.1
								c-0.2-0.1-0.4-0.2-0.6-0.4l0.1-0.1c-0.1-0.1-0.4,0.3-0.6,0.2l0.1-0.2c-0.3-0.1-0.5-0.5-0.9-0.4c0,0,0.1-0.1,0.1-0.1
								c-0.1-0.1-0.4-0.4-0.6-0.1c0.1-0.1-0.3-0.2-0.4-0.2l0.1-0.1c-0.2,0.1-0.3,0.1-0.4,0c0-0.1,0-0.1,0.1-0.1
								c-0.1-0.1-0.2,0-0.3-0.1h0.1c-0.1-0.1-0.1-0.1-0.3,0c-0.1,0-0.2-0.2-0.2-0.3c-0.1,0.1-0.2,0.1-0.3,0c0-0.1,0.1-0.1,0.1-0.1
								c-0.1-0.2-0.4-0.1-0.5-0.4v-0.1c0.1,0.1,0.3,0.3,0.3,0.3c0.1-0.1-0.1-0.2,0.1-0.3c-0.1,0-0.5,0-0.6-0.1c0,0,0,0,0-0.1
								l-0.1-0.1c0-0.1-0.1-0.1-0.1-0.1c0.1-0.1-0.1-0.1-0.2-0.2c-0.1,0.1-0.1,0-0.1,0.1c0,0,0,0,0.1,0c0,0,0,0,0.1,0
								c0.1,0.1,0.1,0.1,0.2,0.1c-0.1,0-0.2,0-0.2-0.1c-0.1,0-0.2,0.1-0.2,0.1c0-0.2-0.1-0.4-0.1-0.5c-0.2-0.1-0.5-0.4-0.8-0.4
								c-0.1-0.1,0-0.1,0-0.1c0.1,0,0.1,0.1,0.1,0.1c-0.1-0.1-0.4-0.3-0.5-0.2c-0.1-0.1,0.1,0-0.1-0.2h0.1c-0.2-0.5-0.8-0.4-1.1-1.1
								c0,0.1,0,0.1,0,0.1c-0.4-0.6-1-1.1-1.3-1.6c-0.1-0.1-0.1-0.1-0.2-0.2V268l-0.1-0.1c-0.2-0.2-0.2-0.4-0.4-0.7v0.1
								c-0.1-0.1-0.2-0.4-0.2-0.4s0,0-0.1-0.1l-0.1-0.3c-0.1-0.2,0.1,0-0.1-0.3c-0.1-0.1-0.2-0.4-0.1-0.3c0,0,0,0.1,0.1,0.1
								l-0.1,0.4c0,0-0.1-0.1,0.1,0.1l0.1,0.2v0.1l-0.1-0.1c0,0.1,0.1,0.1,0.1,0.2v0.1l0.1,0.1c0,0-0.1-0.1,0,0.1
								c0.1,0.1,0-0.1,0.1,0.1c0,0.1,0,0.1,0.1,0.1c0,0,0,0-0.1-0.1c0.1,0.1,0.1,0.3,0.1,0.3c0,0.1,0.1,0.3,0.1,0.4
								c0,0,0.1,0.1,0.1,0.2c-0.1-0.1,0.1,0.4,0.1,0.4c0.1,0.1,0.3,0.4,0.4,0.6c0,0-0.1,0-0.1-0.1c0.1,0.1,0.1,0.1,0.1,0.2
								c0.1,0,0.2,0.1,0.3,0.2c0,0.2-0.1,0-0.1,0.1c0.1-0.1,0.2,0.2,0.2,0.1c0,0.1,0.1,0.1,0,0.2c0.1-0.1,0.1,0.1,0.2,0.1
								C139,270.2,138.9,270.1,139.1,270.2C139.2,270.4,139.1,270.2,139.1,270.2z M142.4,273.5L142.4,273.5
								C142.3,273.5,142.4,273.5,142.4,273.5z M142.6,273.8c0-0.1-0.1-0.1-0.1-0.1c0-0.1,0.1-0.1,0.1-0.1
								C142.6,273.6,142.6,273.7,142.6,273.8z M142.6,272.6C142.6,272.6,142.6,272.7,142.6,272.6L142.6,272.6z"/>
							<path id="Vector_64" class="st12" d="M142.4,272.6C142.4,272.6,142.4,272.7,142.4,272.6L142.4,272.6z"/>
							<path id="Vector_65" class="st12" d="M176.5,270.3L176.5,270.3C176.5,270.3,176.5,270.3,176.5,270.3z"/>
							<path id="Vector_66" class="st12" d="M168.2,276.9C168.1,277,168.1,277,168.2,276.9L168.2,276.9z"/>
							<path id="Vector_67" class="st12" d="M171,275c0,0.1,0,0.1-0.1,0.1C171,275.1,171,275.1,171,275z"/>
							<path id="Vector_68" class="st12" d="M170.8,275.2c0.1,0,0.1-0.1,0.1-0.1C170.9,275.1,170.8,275.2,170.8,275.2z"/>
							<path id="Vector_69" class="st12" d="M178,268.2c0.1-0.1,0.1-0.1,0.1-0.2C178.1,268.1,178,268.2,178,268.2z"/>
							<path id="Vector_70" class="st12" d="M177.1,269.1c0.1-0.1,0.1-0.1,0.1-0.1c-0.1,0-0.1,0.1-0.1-0.1
								C177,269.1,177.3,268.9,177.1,269.1z"/>
							<path id="Vector_71" class="st12" d="M176.6,269.6C176.7,269.5,176.6,269.6,176.6,269.6C176.6,269.6,176.6,269.7,176.6,269.6
								z"/>
							<path id="Vector_72" class="st12" d="M172.7,273.2L172.7,273.2C172.6,273.2,172.7,273.1,172.7,273.2z"/>
							<path id="Vector_73" class="st12" d="M172.3,274.3h0.1l-0.1-0.1L172.3,274.3z"/>
							<path id="Vector_74" class="st12" d="M171.3,273.9L171.3,273.9l-0.1,0.1L171.3,273.9z"/>
							<path id="Vector_75" class="st12" d="M163.2,277.1l0.1,0.2C163.4,277.2,163.4,277,163.2,277.1z"/>
							<path id="Vector_76" class="st12" d="M159.6,277.8c-0.1-0.1-0.1-0.1-0.2-0.1C159.4,277.7,159.5,277.9,159.6,277.8z"/>
						</g>
						<g id="Group_14">
							<path id="Vector_77" class="st13" d="M178.5,208.7L178.5,208.7L178.5,208.7z"/>
							<path id="Vector_78" class="st13" d="M178.1,208.8C178.1,208.8,178,208.9,178.1,208.8C178.1,208.8,178.1,208.8,178.1,208.8
								c0.1-0.1,0.1-0.1,0.1-0.1c0.1,0,0,0,0.1-0.1C178.3,208.7,178.3,208.8,178.1,208.8z"/>
							<path id="Vector_79" class="st13" d="M172.4,210.7L172.4,210.7C172.2,210.8,172.3,210.7,172.4,210.7z"/>
							<path id="Vector_80" class="st13" d="M156.7,214.8c0.1,0.1-0.2,0.1,0,0.3C156.7,215,156.8,214.8,156.7,214.8z"/>
							<path id="Vector_81" class="st13" d="M163.8,214.7l-0.1,0.1C163.7,214.8,163.7,214.7,163.8,214.7z"/>
							<path id="Vector_82" class="st13" d="M163.1,214.9c-0.1-0.1-0.1-0.1-0.1-0.1c0,0,0,0,0,0.1H163.1z"/>
							<path id="Vector_83" class="st13" d="M140.3,214.3c0.1,0,0.1-0.1,0.1-0.1c0.2,0,0.1,0.1,0.1,0.1c0.1,0,0.2-0.1,0.3-0.1
								c0.1-0.1,0.4,0.1,0.6,0c0-0.1,0-0.1,0-0.1c0.1,0,0.1-0.1,0.1,0c-0.1,0-0.1,0-0.1,0h0.1c0.1,0.1-0.1,0-0.1,0.1
								c0.1,0,0.4-0.1,0.4,0c0,0.1-0.3,0-0.1,0.1l-0.1-0.1c0.1,0.1-0.1,0,0,0.1c0.2,0.1,0.3,0,0.5,0.1c0.1-0.1,0-0.1,0.1-0.1
								c0.4-0.1,0.2,0.3,0.5,0.1c0.1-0.1,0.1-0.1,0.3-0.1l-0.1,0.1c0.2,0.1,0.1-0.1,0.4-0.1c-0.1,0.1-0.2,0-0.1,0
								c0.1,0.1,0.1-0.1,0.2-0.1v0.1c0.2,0,0.5,0,0.8,0c0,0-0.1,0.1,0,0.1c0.4,0,0.7,0.1,1.1,0.2l0.1-0.1c0,0,0.1,0.1,0,0.1
								c0.1,0.1,0-0.1,0.1-0.1c0.1,0,0.1,0.1,0.1,0.1c0.2-0.1,0.6-0.1,0.9,0h-0.1c0.2,0.1,0.2-0.2,0.4-0.1c0.4,0.1,0.9,0.1,1.1,0.3
								c0.1-0.1,0.4,0.1,0.4-0.1c0.2,0.1,0.1,0.2,0.4,0.3c0.1,0,0.1-0.1,0.3-0.1v0.1l0.1-0.1l0.1,0.1h0.1c-0.1,0-0.1-0.1-0.1-0.1
								c0.1-0.1,0.4,0.1,0.4,0.2l0.4-0.1c0,0.1-0.1,0.1-0.1,0.1c0.2-0.1,0,0.1,0.2,0.1c0-0.1,0-0.1,0-0.1c0.1,0.1,0.3,0.1,0.4,0.1
								l-0.1,0.1c0.3,0.1,0.6,0,0.9,0.1c-0.1-0.1-0.1-0.2,0-0.2v0.1c0.1-0.1-0.1-0.1,0.1-0.1c0.1,0,0.1,0.2,0,0.2l0.1-0.1
								c0,0.1,0,0.1-0.1,0.1c0.1-0.1,0.2,0.2,0.4,0v0.1c0.3,0.1,0.4,0,0.7,0c0-0.1,0.1-0.1,0.2-0.2c0.2,0.1,0.4,0.2,0.6,0.2
								c0.1-0.1,0.1-0.1,0.1-0.2c0,0.1,0.2,0.1,0.1,0.2c0.3,0,0.4,0,0.7-0.1c0-0.1-0.1-0.1-0.1-0.1c0.1,0,0.1,0.1,0.1,0.1
								c0.4-0.1,0.8,0.4,1.2,0.2l0.4-0.1c0.1,0-0.1,0.1,0,0.2c0.4-0.2,0.6,0.1,0.8-0.1c0.2,0.4,0.8-0.1,1.1,0.1v-0.1
								c0.1-0.1,0.1,0.1,0.1,0.1c0-0.1-0.1-0.1-0.1-0.1c0.6-0.1,1.3,0,2.1-0.1c0.3,0,0.1-0.5,0.4-0.4l-0.1,0.2
								c0.4-0.3,1-0.2,1.4-0.5c0,0.1,0,0.1-0.1,0.1c0.1,0.1,0.4-0.1,0.4-0.2c0.1,0,0.1,0.1,0.1,0.1c0.1,0.1,0.2-0.2,0.3-0.1v0.1
								c0.1-0.1,0.3-0.1,0.2-0.2c0.2,0,0.3-0.1,0.5-0.1c0.1-0.2,0.4,0,0.3-0.3c0.1,0.2,0.4,0.1,0.4-0.1c0,0.1,0.1,0,0.1,0.1
								c0.1-0.1,0.2-0.1,0.1-0.2c0.3,0.1,0.4-0.4,0.6-0.1c0.3-0.2,0.6-0.4,0.9-0.6c0.1,0.2-0.4,0.1-0.3,0.4c0.3-0.2,0.4-0.4,0.7-0.5
								c0.1,0,0,0.1,0,0.1c0.3-0.2,0.6-0.2,0.9-0.4c0,0,0,0.1-0.1,0.1c0.1,0,0.1,0,0.1-0.1l-0.1,0.1c-0.1-0.1,0.1-0.4,0.1-0.4
								c0,0.3,0.3,0,0.3,0.4c0,0,0.1-0.1,0-0.1c0.1,0,0.1,0,0.1,0.1c0.1-0.1,0.1-0.2,0.2-0.3c0,0.1,0,0.1,0,0.1
								c0.1-0.1,0.1-0.2,0.3-0.2v0.1c0.2-0.1,0.4-0.4,0.6-0.4c0,0.2,0.1,0,0.2,0.1l0.1-0.1l-0.1-0.1c0.1-0.1,0.2-0.2,0.4-0.2
								l-0.1,0.1l0.2-0.1h-0.1c0.1-0.1-0.1-0.1,0.1-0.2c0,0,0.1-0.1,0.2,0c0.1-0.1,0.1-0.1,0.2-0.1c0.1,0,0,0.1,0.1,0.2
								c0-0.1,0.3-0.1,0.4-0.3c0,0.1,0,0.1,0,0.1v-0.1c0.1,0,0.1,0,0.1,0.1c0.2-0.1-0.1-0.1,0.1-0.1c0,0,0,0,0,0.1
								c0.2-0.1,0.4-0.2,0.6-0.2c0.1,0.1-0.1,0.1-0.1,0.2c0.3-0.1,0.6-0.4,0.8-0.4h-0.1c0-0.2,0.2,0,0.4-0.1c0,0,0,0.1,0,0.1
								c0.2-0.1,0.4-0.2,0.6-0.4v0.1c0.1,0,0.3-0.1,0.4-0.1c0-0.1,0.1-0.1,0-0.1c0.4,0.1,0.6-0.4,1.1-0.4c-0.1,0-0.1,0.1-0.1,0.1
								l0.3-0.1c-0.1-0.1-0.1,0-0.1-0.1c0-0.1,0.1-0.1,0.1-0.1c-0.1,0.1,0,0.1,0.1,0.1v-0.1c0.2,0,0-0.1,0.2-0.1
								c0.1-0.1,0.1-0.1,0.2-0.1c0.1,0.1-0.1,0.1-0.1,0.1c0.1-0.1,0.2-0.2,0.3-0.1c-0.1,0-0.1,0.1-0.1,0.1c0.1,0,0.1,0,0.2,0
								l0.2-0.1h-0.1c0.1-0.2,0.3-0.1,0.4-0.3c-0.1,0.1,0,0.1,0,0.1c0.1,0,0.1,0,0.1,0c0.1-0.1,0.1,0,0.3-0.1c0,0,0.1-0.1,0.1,0
								c0.1-0.1-0.1,0,0-0.1c0.1-0.1,0.4-0.1,0.7-0.3c0.2-0.1,0.2-0.1,0.4-0.2c0.1,0-0.1,0.1-0.1,0.1c0.1,0,0.2-0.1,0.3-0.1
								c0,0,0,0,0.1,0c0.1-0.1,0.1-0.1,0.1-0.1c0,0-0.1,0-0.1,0.1c0.1-0.1,0.2-0.1,0.3-0.1l-0.1,0.1c0.1-0.1,0.3-0.1,0.4-0.1h-0.1
								c0.1,0,0,0,0,0c-0.1,0.1-0.1,0.1-0.1,0.1h0.1c-0.1,0-0.3,0.1-0.4,0.1l0.1-0.1l-0.1,0.1c-0.1,0-0.1,0,0-0.1
								c-0.1,0-0.1,0.1-0.2,0.1l-0.1,0.1c0,0,0,0,0.1-0.1c-0.2,0.1-0.3,0.1-0.4,0.1c-0.3,0.1,0,0.1-0.2,0.1l-0.1-0.1v0.1h-0.1
								c-0.1,0.1,0,0,0,0.1c-0.1,0-0.4,0.1-0.4,0.1c0,0.1,0.1,0,0,0.1c-0.1-0.1-0.1,0.1-0.3,0.1c0-0.1,0.1-0.1,0-0.1
								c-0.1,0.1-0.2,0.1-0.4,0.1c0,0.1-0.2,0.1-0.4,0.2c0,0-0.4,0.1-0.5,0.1c0,0.1-0.1,0.1-0.3,0.2c0-0.1,0-0.1,0.1-0.1l-0.1,0.1
								c0,0-0.1,0.1-0.1,0.1v-0.1c-0.1,0.1-0.3,0.1-0.5,0.2c0,0.1,0.2,0.1,0,0.2c0,0-0.1-0.1,0-0.1l-0.1,0.1l0.1-0.1
								c-0.1,0,0,0.1-0.1,0.1c0-0.1-0.1,0-0.1-0.1h0.1c-0.1,0-0.2,0-0.2,0v0.1c-0.1,0.1-0.1-0.1-0.1-0.1c0,0.1-0.1,0.1-0.1,0.1
								c-0.1,0-0.1,0-0.1-0.1c-0.1,0.1-0.4,0.1-0.2,0.2c-0.2,0.1-0.6,0.1-0.8,0.3c-0.1,0.1-0.4,0.1-0.4,0.2c-0.1,0-0.1,0-0.1-0.1
								c-0.1,0.1-0.1,0.1-0.3,0.1c0.1-0.1-0.1-0.1,0.1-0.1c-0.1,0-0.2,0-0.4,0.1c0-0.1-0.1-0.1-0.2,0h0.1c-0.1,0.1-0.1,0.1-0.2,0.1
								v-0.1c-0.4-0.1-0.4,0.4-0.8,0.3c-0.1,0.1,0.2,0,0.1,0.1c-0.1,0-0.4-0.1-0.4-0.1c-0.2,0-0.1,0.2-0.4,0.3
								c0.1,0.1,0.1,0.1,0,0.2c-0.1,0-0.2-0.1-0.1-0.2h0.1c0.1,0,0.1-0.1,0-0.1v0.1c-0.1,0-0.3,0.1-0.3-0.1c-0.1,0.1,0,0.1,0.1,0.1
								c-0.2,0-0.3,0.1-0.5,0.1c0.1,0,0.1,0.1,0.1,0.1c-0.3,0-0.1,0.1-0.3,0.2c-0.1-0.1,0-0.2-0.2-0.1c-0.1,0-0.1-0.1-0.1-0.1
								c-0.1,0.1-0.4,0.1-0.4,0.1l0.1-0.1c-0.1,0.1-0.1,0.1-0.1,0.1l0.1,0.1c-0.1,0-0.1,0-0.1,0c0,0.1,0.1,0.1,0,0.3
								c-0.1,0-0.2,0.1-0.3,0c0.2,0-0.1-0.1,0.1-0.2c0,0-0.1,0.1-0.1,0.1c0,0,0,0,0-0.1c-0.3-0.1-0.1,0.2-0.3,0.3
								c0-0.1-0.1-0.1-0.1-0.1c0.1,0,0.1,0.1,0,0.2c-0.1,0-0.1,0.1-0.2,0.1h0.1c0,0.1-0.1,0.1-0.1,0.1c0-0.1,0.1-0.1,0-0.1
								c-0.1,0.1-0.3-0.1-0.4,0.1c-0.1,0-0.1-0.1-0.1-0.1c-0.1,0.1-0.2-0.1-0.4,0.1c0.1,0.1,0.1,0.1,0,0.2l0.3-0.1l-0.1,0.2
								c0.1,0,0.1-0.1,0.2-0.1c-0.1,0.1-0.1,0.1,0,0.1c-0.1-0.1-0.2,0.1-0.4,0.1l-0.1-0.3c-0.3-0.1-0.4,0.3-0.6,0.3h0.1
								c0,0.1-0.1,0.1-0.2,0.1c0-0.1-0.1-0.1-0.1-0.1c0,0.1-0.2,0.1-0.1,0.3l-0.1-0.1c-0.2,0-0.1,0.4-0.4,0.4c0-0.1-0.1-0.1,0-0.3
								c-0.1,0-0.1,0-0.1,0.1c-0.1-0.1-0.1,0.2-0.2,0.1c0,0.1,0,0.1-0.1,0.1v-0.1c0,0.1-0.1,0.1,0,0.2c-0.3-0.2-0.6,0.2-0.9,0
								c-0.1,0.1-0.3,0.1-0.4,0.2v-0.1c-0.2,0,0,0.3-0.3,0.3c-0.1-0.1,0.1-0.1,0-0.1c-0.1-0.3-0.3,0.1-0.4,0
								c-0.1-0.1-0.2,0.2-0.4,0.2c0,0,0,0,0-0.1c-0.1,0.2-0.3,0.3-0.5,0.4c0-0.1,0.1-0.1,0-0.2c-0.1,0.1,0.1,0.2-0.1,0.3
								c-0.1-0.1-0.2-0.1-0.2-0.2l0.1-0.1c-0.1-0.1-0.2,0.1-0.3,0v-0.1c-0.2,0.1-0.2,0.3-0.4,0.3l0.1,0.1c-0.1,0.2-0.1-0.1-0.2,0.1
								l-0.1-0.2c-0.1,0.1-0.3,0.2-0.4,0.3c0.1-0.1,0.3-0.3,0.4-0.4c-0.1,0-0.3,0.1-0.4,0.1c0,0,0.1-0.1,0.1-0.1
								c-0.1,0.1-0.2,0.3-0.4,0.3c0-0.4-0.5-0.1-0.6-0.4c-0.3,0.2-0.6,0-1,0c0.1,0.3-0.1,0-0.1,0.4c-0.1,0-0.1,0-0.1,0l-0.3-0.2
								c-0.1-0.1,0.1-0.1,0.1-0.1c-0.2,0-0.1-0.1-0.2-0.2c0,0.1-0.1,0.1-0.1,0.1l0.1,0.1c-0.3,0.1-0.2-0.3-0.5-0.1l0.1-0.1
								c-0.1,0.1-0.5,0-0.6,0.2c0-0.1-0.1-0.1,0-0.1c-0.3-0.1-0.7,0.2-1,0.1v-0.1c-0.1,0-0.1,0.1-0.2,0.1v-0.1c0,0-0.2,0.1-0.3,0.1
								l0.1-0.1c-0.3-0.1-0.5,0.1-0.8,0.2c0-0.2-0.2-0.3-0.4-0.4c-0.4-0.1-0.6,0.1-1,0.2c-0.2-0.3-0.7-0.1-1.1-0.3
								c0.1,0.1,0,0.1-0.1,0.2c-0.1-0.1-0.2,0.1-0.2-0.1c-0.1-0.2-0.2-0.1-0.4-0.1l-0.1,0.2c-0.3-0.4-0.9,0.1-1.1-0.3
								c-0.1,0.1-0.2,0.1-0.3,0.1v-0.1c-0.2-0.1-0.4-0.1-0.6-0.1l0.1-0.1c-0.1,0-0.2,0.4-0.4,0.4v-0.2c-0.3,0-0.6-0.2-0.9-0.1
								c0,0,0-0.1,0.1-0.1c-0.1,0-0.5-0.1-0.5,0.1c0-0.1-0.3,0-0.4,0v-0.1c-0.1,0.1-0.1,0.1-0.4,0.2c-0.1,0,0-0.1,0-0.1
								c-0.1-0.1-0.1,0.1-0.3,0l0.1-0.1c-0.1,0-0.1,0-0.2,0.1c-0.1,0-0.3-0.1-0.3-0.1c0,0.1-0.1,0.1-0.2,0.1c0,0,0-0.1,0.1-0.1
								c-0.2-0.1-0.4,0.1-0.5,0v-0.1c0.2,0,0.4,0,0.4,0.1c0-0.1-0.1-0.1,0-0.2c-0.1,0.1-0.4,0.2-0.5,0.1h-0.1c-0.1,0-0.1,0-0.1,0
								c0-0.1-0.1-0.1-0.3-0.1c0,0.1-0.1,0.1,0,0.1c0,0,0,0,0.1,0s0.1,0,0.2,0c-0.1,0.1-0.1,0.1-0.2,0c-0.1,0.1-0.1,0.1-0.1,0.1
								c-0.1-0.1-0.3-0.2-0.3-0.3c-0.2,0-0.6,0-0.7,0.1c-0.1,0-0.1-0.1-0.1-0.1c0.1,0,0.1,0,0.1,0c-0.1,0-0.4,0-0.4,0.1
								c-0.1-0.1,0.1-0.1-0.1-0.1c-0.4-0.1-0.8,0.1-1.3-0.1h0.1c-0.6-0.1-1.2-0.1-1.8-0.1c-0.1,0-0.2,0-0.3,0v-0.1h-0.1
								c-0.2,0-0.4-0.1-0.7-0.1h0.1c-0.1,0-0.4,0-0.4,0h-0.1h-0.3c-0.2,0,0,0-0.3,0c-0.1,0-0.2,0-0.3,0c0,0,0.1,0,0.1,0h-0.1
								c0,0-0.1,0,0.1,0h0.1h0.1h-0.1c0.1,0,0.1,0,0.2,0h0.1h0.1c0,0-0.1,0,0.1,0c0.1,0-0.1,0,0.1,0c0.1,0,0.1,0,0.1,0
								c0,0,0,0-0.1,0c0.1,0,0.2,0,0.3,0s0.3,0.1,0.3,0.1s0.1,0,0.2,0c-0.1,0,0.3,0.1,0.3,0.1c0.1-0.1,0.4,0.1,0.6,0c0,0,0,0-0.1,0
								c0.1,0,0.1,0.1,0.2,0.1c0-0.1,0.2-0.1,0.3-0.1c0.1,0.1-0.1,0.1-0.1,0.1c0-0.1,0.2,0,0.2-0.1c0.1,0.1,0.1,0,0.1,0.1
								c0-0.1,0.1,0,0.2-0.1c0.1,0.1,0,0.1,0.2,0.1C140.4,214.3,140.3,214.3,140.3,214.3z M144.2,214.6L144.2,214.6
								C144.1,214.6,144.1,214.6,144.2,214.6z M144.5,214.6c-0.1,0-0.1,0-0.1,0C144.3,214.6,144.3,214.5,144.5,214.6L144.5,214.6z
								 M143.9,213.9C144,213.9,144,213.9,143.9,213.9C143.9,214,143.9,214,143.9,213.9C143.8,214,143.8,213.9,143.9,213.9z"/>
							<path id="Vector_84" class="st13" d="M166.7,213.4C166.6,213.5,166.6,213.5,166.7,213.4L166.7,213.4z"/>
							<path id="Vector_85" class="st13" d="M169.3,212.1L169.3,212.1C169.2,212.3,169.3,212.2,169.3,212.1z"/>
							<path id="Vector_86" class="st13" d="M169.1,212.3c0.1,0,0.1,0,0.1-0.1C169.1,212.3,169.1,212.3,169.1,212.3z"/>
							<path id="Vector_87" class="st13" d="M176.9,209.3c0.1,0,0.1,0,0.2-0.1C177.1,209.3,177,209.3,176.9,209.3z"/>
							<path id="Vector_88" class="st13" d="M175.9,209.5l0.2-0.1c-0.1,0-0.1,0,0-0.1C175.9,209.4,176.2,209.4,175.9,209.5z"/>
							<path id="Vector_89" class="st13" d="M175.4,209.7C175.4,209.7,175.3,209.7,175.4,209.7C175.3,209.7,175.2,209.7,175.4,209.7
								z"/>
							<path id="Vector_90" class="st13" d="M171,211.1L171,211.1C171,211.1,171,211.1,171,211.1z"/>
							<path id="Vector_91" class="st13" d="M170.4,211.9L170.4,211.9l0.1-0.1L170.4,211.9z"/>
							<path id="Vector_92" class="st13" d="M169.7,211.4L169.7,211.4L169.7,211.4L169.7,211.4z"/>
							<path id="Vector_93" class="st13" d="M162.5,213.8l0.1,0.1C162.7,213.9,162.6,213.7,162.5,213.8z"/>
							<path id="Vector_94" class="st13" d="M159.5,214.7c-0.1-0.1-0.1-0.1-0.2,0C159.4,214.7,159.5,214.8,159.5,214.7z"/>
							<path id="Vector_95" class="st13" d="M149.9,214.3L149.9,214.3L149.9,214.3L149.9,214.3z"/>
						</g>
						<g id="Group_15">
							<path id="Vector_96" class="st13" d="M178.5,218.6L178.5,218.6L178.5,218.6z"/>
							<path id="Vector_97" class="st13" d="M178.1,218.7C178.1,218.7,178,218.8,178.1,218.7C178.1,218.7,178.1,218.8,178.1,218.7
								c0.1-0.1,0.1-0.1,0.1-0.1c0.1,0,0,0,0.1-0.1C178.3,218.7,178.3,218.7,178.1,218.7z"/>
							<path id="Vector_98" class="st13" d="M172.4,220.7L172.4,220.7C172.3,220.8,172.3,220.7,172.4,220.7z"/>
							<path id="Vector_99" class="st13" d="M156.7,224.8c0.1,0.1-0.2,0.1,0,0.3C156.7,225.1,156.9,224.9,156.7,224.8z"/>
							<path id="Vector_100" class="st13" d="M163.5,223.8L163.5,223.8C163.5,223.8,163.5,223.8,163.5,223.8
								C163.5,223.8,163.5,223.7,163.5,223.8z"/>
							<path id="Vector_101" class="st13" d="M162.5,224L162.5,224L162.5,224L162.5,224z"/>
							<path id="Vector_102" class="st13" d="M163.9,224.8l-0.1,0.1C163.7,224.8,163.8,224.8,163.9,224.8z"/>
							<path id="Vector_103" class="st13" d="M163.2,225c-0.1-0.1-0.1-0.1-0.1-0.1c0,0,0,0,0,0.1H163.2z"/>
							<path id="Vector_104" class="st13" d="M140.4,224.7c0.1,0,0.1-0.1,0.1-0.1c0.2,0,0.1,0.1,0.1,0.1c0.1,0,0.2-0.1,0.3-0.1
								c0.1-0.1,0.4,0.1,0.6,0c0-0.1,0-0.1,0-0.1c0.1,0,0.1-0.1,0.1,0c-0.1,0-0.1,0-0.1,0h0.1c0.1,0.1-0.1,0-0.1,0.1
								c0.1,0,0.4-0.1,0.4,0c0,0.1-0.3,0-0.1,0.1l-0.2-0.1c0.1,0.1-0.1,0,0,0.1c0.2,0.1,0.3,0,0.5,0.1c0.1-0.1,0-0.1,0.1-0.1
								c0.4-0.1,0.3,0.3,0.5,0.1c0.1-0.1,0.1-0.2,0.3-0.1l-0.1,0.1c0.2,0.1,0.1-0.1,0.4-0.1c-0.1,0.1-0.2,0-0.1,0.1
								c0.1,0.1,0.1-0.1,0.2-0.1v0.1c0.2,0,0.5-0.1,0.8-0.1c0,0-0.1,0.1,0,0.1c0.4,0,0.7,0.1,1.1,0.2l0.1-0.1c0,0,0.1,0.1,0,0.1
								c0.1,0.1,0-0.1,0.1-0.1c0.1,0,0.1,0.1,0.1,0.1c0.2-0.1,0.6-0.1,0.9,0h-0.1c0.2,0.1,0.2-0.2,0.4-0.1c0.4,0.1,0.8,0,1.1,0.2
								c0.1-0.1,0.4,0.1,0.4-0.1c0.2,0.1,0.1,0.2,0.5,0.3c0.1,0,0.1-0.1,0.2-0.1v0.1l0.1-0.1l0.1,0.1h0.1c-0.1,0-0.1-0.1-0.1-0.1
								c0.1-0.1,0.4,0.1,0.4,0.2l0.4-0.1c0,0.1-0.1,0.1-0.1,0.1c0.2-0.1,0,0.1,0.2,0c0,0,0-0.1,0-0.1c0.1,0.1,0.3,0.1,0.4,0.1
								l-0.1,0.1c0.3,0.1,0.6,0,0.9,0c-0.1-0.1-0.1-0.2,0-0.2v0.1c0.1-0.1-0.1-0.1,0.1-0.2c0.1,0,0.1,0.2,0,0.2l0.1-0.1
								c0,0.1,0,0.1-0.1,0.1c0.1-0.1,0.2,0.2,0.4,0v0.1c0.3,0,0.4,0,0.7,0c0-0.1,0.1-0.1,0.2-0.2c0.2,0.1,0.4,0.2,0.6,0.2
								c0.1-0.1,0.1-0.1,0.1-0.2c0,0.1,0.2,0.1,0.1,0.2c0.3,0,0.4,0,0.7-0.1c0-0.1-0.1-0.1-0.1-0.1c0.1,0,0.1,0.1,0.1,0.1
								c0.4-0.1,0.8,0.4,1.2,0.2l0.4-0.1c0.1,0-0.1,0.1,0,0.2c0.4-0.2,0.6,0.1,0.8-0.1c0.2,0.4,0.8-0.1,1.1,0.2v-0.1
								c0.1-0.1,0.1,0.1,0.1,0.1c0-0.1-0.1-0.1-0.1-0.1c0.6-0.1,1.3,0,2.1,0c0.3,0,0.1-0.5,0.4-0.4l-0.1,0.2c0.4-0.3,1-0.2,1.4-0.5
								c0,0.1,0,0.1-0.1,0.1c0.1,0.1,0.4-0.1,0.4-0.2c0.1,0,0.1,0.1,0.1,0.1c0.1,0.1,0.2-0.2,0.3-0.1v0.1c0.1-0.1,0.3-0.1,0.2-0.2
								c0.2,0,0.3-0.1,0.5-0.1c0.1-0.2,0.4,0,0.3-0.3c0.1,0.2,0.4,0.1,0.4-0.1c0,0.1,0.1,0,0.1,0.1c0.1-0.1,0.2-0.1,0.1-0.2
								c0.3,0.1,0.4-0.4,0.6-0.1c0.3-0.3,0.6-0.4,0.9-0.6c0.1,0.2-0.4,0.1-0.3,0.4c0.3-0.2,0.4-0.4,0.7-0.5c0.1,0,0,0.1,0,0.1
								c0.3-0.2,0.6-0.2,0.9-0.4c0,0,0,0.1-0.1,0.1c0.1,0,0.1,0,0.1-0.1l-0.1,0.1c-0.1-0.1,0.1-0.4,0.1-0.4c0,0.3,0.3-0.1,0.3,0.4
								c0,0,0.1-0.1,0-0.1c0.1,0,0.1,0,0.1,0.1c0.1-0.1,0.1-0.2,0.2-0.3c0,0.1,0,0.1,0,0.1c0.1-0.1,0.1-0.2,0.3-0.3v0.1
								c0.2-0.1,0.4-0.4,0.6-0.4c0,0.2,0.1,0,0.2,0.1l0.1-0.1l-0.1-0.1c0.1-0.1,0.2-0.2,0.4-0.2l-0.1,0.1l0.2-0.1h-0.1
								c0.1-0.1-0.1-0.1,0.1-0.2c0,0,0.1-0.1,0.2,0c0.1-0.1,0.1-0.1,0.2-0.1c0.1,0,0.1,0.1,0.1,0.2c0-0.1,0.3-0.1,0.4-0.3
								c0,0.1,0,0.1,0,0.1v-0.1c0.1,0,0.1,0,0.1,0.1c0.2-0.1-0.1-0.1,0.1-0.1c0,0,0,0,0,0.1c0.2-0.1,0.4-0.2,0.6-0.2
								c0.1,0.1-0.1,0.1-0.1,0.2c0.3-0.1,0.5-0.4,0.8-0.4h-0.1c0-0.2,0.2,0,0.4-0.1c0,0,0,0.1,0,0.1c0.2-0.1,0.4-0.2,0.6-0.4v0.1
								c0.1,0,0.3-0.1,0.4-0.1c0-0.1,0.1-0.1,0-0.1c0.4,0.1,0.6-0.4,1.1-0.4c-0.1,0-0.1,0.1-0.1,0.1l0.3-0.1c-0.1-0.1-0.1,0-0.1-0.1
								c0-0.1,0.1-0.1,0.1-0.1c-0.1,0.1,0,0.1,0.1,0.1v-0.1c0.2,0,0-0.1,0.2-0.1c0.1-0.1,0.1-0.1,0.2-0.1c0.1,0.1-0.1,0.1-0.1,0.1
								c0.1-0.1,0.2-0.2,0.3-0.1c-0.1,0-0.1,0.1-0.1,0.1c0.1,0,0.1,0,0.2,0l0.2-0.1h-0.1c0.1-0.2,0.3-0.1,0.4-0.3
								c-0.1,0.1,0,0.1,0,0.1c0.1,0,0.1,0,0.1,0c0.1-0.1,0.1,0,0.3-0.1c0,0,0.1-0.1,0.1,0c0.1-0.1-0.1,0,0,0
								c0.1-0.1,0.4-0.1,0.7-0.3c0.2-0.1,0.2-0.1,0.4-0.3c0.1,0-0.1,0.1-0.1,0.1c0.1,0,0.2-0.1,0.3-0.1c0,0,0,0,0.1,0
								c0.1-0.1,0.1-0.1,0.1-0.1l-0.1,0.1c0.1-0.1,0.2-0.1,0.3-0.1l-0.1,0.1c0.1-0.1,0.3-0.1,0.4-0.1h-0.1c0.1,0,0,0,0,0
								c-0.1,0.1-0.1,0.1-0.1,0.1h0.1c-0.1,0-0.3,0.1-0.4,0.2l0.1-0.1l-0.1,0.1c-0.1,0-0.1,0,0-0.1c-0.1,0-0.1,0.1-0.2,0.1l-0.1,0.1
								c0,0,0,0,0.1-0.1c-0.2,0.1-0.3,0.1-0.4,0.1c-0.3,0.1,0,0.1-0.2,0.1l-0.1-0.1v0.1h-0.1c-0.1,0.1,0,0,0,0.1
								c-0.1,0-0.4,0.1-0.4,0.1c0,0.1,0.1,0,0,0.1c-0.1-0.1-0.1,0.1-0.3,0.1c0-0.1,0.1-0.1,0-0.1c-0.1,0.1-0.2,0.1-0.4,0.1
								c0,0.1-0.2,0.1-0.4,0.2c0,0-0.4,0.1-0.5,0.1c0,0.1-0.1,0.1-0.3,0.2c0-0.1,0-0.1,0.1-0.1l-0.1,0.1c0,0-0.1,0.1-0.1,0.1v-0.1
								c-0.1,0.1-0.3,0.2-0.5,0.2c0,0.1,0.2,0.1,0,0.2c0,0-0.1-0.1,0-0.1l-0.1,0.1l0.1-0.1c-0.1,0,0,0.1-0.1,0.1
								c0-0.1-0.1,0-0.1-0.1h0.1c-0.1,0-0.2,0-0.2,0v0.1c-0.1,0.1-0.1-0.1-0.1-0.1c0,0.1-0.1,0.1-0.1,0.1c-0.1,0-0.1,0-0.1-0.1
								c-0.1,0.1-0.4,0.1-0.2,0.2c-0.2,0.1-0.6,0.1-0.8,0.3c-0.1,0.1-0.4,0.1-0.4,0.2c-0.1,0-0.1,0-0.1-0.1
								c-0.1,0.1-0.1,0.1-0.3,0.1c0.1-0.1-0.1-0.1,0.1-0.1c-0.1,0-0.2,0-0.4,0.1c0-0.1-0.1-0.1-0.2,0h0.1c-0.1,0.1-0.1,0.1-0.2,0.1
								v-0.1c-0.4-0.1-0.4,0.4-0.8,0.3c-0.1,0.1,0.2,0,0.1,0.1c-0.1,0-0.4-0.1-0.4-0.1c-0.2,0-0.1,0.2-0.4,0.3
								c0.1,0.1,0.1,0.1,0,0.2c-0.1,0-0.2-0.1-0.1-0.2h0.1c0.1,0,0.1-0.1,0-0.1v0.1c-0.1,0-0.3,0.1-0.3-0.1c-0.1,0.1,0,0.1,0.1,0.1
								c-0.2,0-0.3,0.1-0.5,0.1c0.1,0,0.1,0.1,0.1,0.1c-0.3,0.1-0.1,0.1-0.3,0.2c-0.1-0.1,0-0.2-0.2-0.1c-0.1,0-0.1-0.1-0.1-0.1
								c-0.1,0.1-0.4,0.1-0.4,0.1l0.1-0.1c-0.1,0.1-0.1,0.1-0.1,0.1l0.1,0.1c-0.1,0-0.1,0-0.1,0c0,0.1,0.1,0.1,0,0.3
								c-0.1,0-0.2,0.1-0.3,0c0.2,0-0.1-0.1,0.1-0.2c0,0-0.1,0.1-0.1,0.1c0,0,0,0,0-0.1c-0.3-0.1-0.1,0.2-0.3,0.3
								c0-0.1-0.1-0.1-0.1-0.1c0.1,0,0.1,0.1,0,0.2c-0.1,0-0.1,0.1-0.2,0.1h0.1c0,0.1-0.1,0.1-0.1,0.1c0-0.1,0.1-0.1,0-0.1
								c-0.1,0.1-0.3-0.1-0.4,0.1c-0.1,0-0.1-0.1-0.1-0.1c-0.1,0.1-0.2-0.1-0.4,0.1c0.1,0.1,0.1,0.1,0,0.2l0.3-0.1l-0.1,0.2
								c0.1,0,0.1-0.1,0.2-0.1c-0.1,0.1-0.1,0.1,0,0.1c-0.1-0.1-0.2,0.2-0.4,0.1l-0.1-0.3c-0.3-0.1-0.3,0.3-0.6,0.3h0.1
								c0,0.1-0.1,0.1-0.2,0.1c0-0.1-0.1-0.1-0.1-0.1c0,0.1-0.2,0.1-0.1,0.3l-0.1-0.1c-0.2,0-0.1,0.4-0.4,0.4c0-0.1-0.1-0.1,0-0.3
								c-0.1,0-0.1,0-0.1,0.1c-0.1-0.1-0.1,0.2-0.2,0.1c0,0.1,0,0.1-0.1,0.1v-0.1c0,0.1-0.1,0.1,0,0.2c-0.3-0.2-0.6,0.2-0.9,0
								c-0.1,0.1-0.3,0.1-0.4,0.2V224c-0.2-0.1-0.1,0.3-0.3,0.3c-0.1-0.1,0.1-0.1,0-0.1c-0.1-0.3-0.3,0.1-0.4-0.1
								c-0.1-0.1-0.2,0.2-0.4,0.2c0,0,0,0,0-0.1c-0.1,0.2-0.3,0.3-0.5,0.4c0-0.1,0.1-0.1,0-0.2c-0.1,0.1,0.1,0.2-0.1,0.3
								c-0.1-0.1-0.2-0.1-0.2-0.2l0.1-0.1c-0.1-0.1-0.2,0.1-0.3,0v-0.1c-0.2,0.1-0.2,0.3-0.4,0.3l0.1,0.1c-0.1,0.2-0.1-0.1-0.2,0.1
								l-0.1-0.2c-0.1,0.1-0.3,0.2-0.4,0.3c0.1-0.1,0.3-0.3,0.4-0.4c-0.1,0-0.3,0.1-0.4,0.1c0,0,0.1-0.1,0.1-0.1
								c-0.1,0.2-0.2,0.3-0.4,0.3c0-0.4-0.5-0.1-0.6-0.4c-0.3,0.1-0.6,0-1,0c0.1,0.3-0.1,0-0.1,0.4c-0.1,0-0.1,0-0.1,0l-0.3-0.2
								c-0.1-0.1,0.1-0.1,0.1-0.1c-0.2,0-0.1-0.1-0.2-0.2c0,0.1-0.1,0.1-0.1,0.1l0.1,0.1c-0.3,0.1-0.2-0.3-0.5-0.1l0.1-0.1
								c-0.1,0.1-0.5,0-0.6,0.2c0-0.1-0.1-0.1,0-0.1c-0.3-0.1-0.8,0.2-1,0.1v-0.1c-0.1,0-0.1,0.1-0.2,0.1v-0.1c0,0-0.1,0.1-0.3,0.1
								l0.1-0.1c-0.3-0.1-0.5,0.2-0.8,0.2c0-0.2-0.2-0.3-0.4-0.4c-0.4-0.1-0.6,0.1-1,0.2c-0.2-0.2-0.7-0.1-1.1-0.3
								c0.1,0.1,0,0.1-0.1,0.2c-0.1-0.1-0.2,0.1-0.2-0.1c-0.1-0.2-0.2-0.1-0.4-0.1l-0.1,0.2c-0.4-0.4-0.9,0.1-1.1-0.2
								c-0.1,0.1-0.2,0.1-0.3,0.1v-0.1c-0.2-0.1-0.4-0.1-0.6-0.1l0.1-0.1c-0.1,0-0.2,0.4-0.4,0.4v-0.2c-0.3,0-0.6-0.1-0.8,0
								c0,0,0-0.1,0.1-0.1c-0.1,0-0.5-0.1-0.5,0.1c0-0.1-0.3,0-0.4,0v-0.1c-0.1,0.1-0.1,0.1-0.4,0.2c-0.1,0,0-0.1,0-0.1
								c-0.1-0.1-0.1,0.1-0.3,0l0.1-0.1c-0.1,0-0.1,0-0.2,0.1s-0.3-0.1-0.3-0.1c0,0.1-0.1,0.1-0.2,0.1c0,0,0-0.1,0.1-0.1
								c-0.2-0.1-0.4,0.1-0.5,0v-0.1c0.2,0,0.4,0,0.4,0c0-0.1-0.1-0.1,0-0.2c-0.1,0.1-0.4,0.2-0.5,0.1h-0.1c-0.1,0-0.1,0-0.1,0
								c0-0.1-0.1-0.1-0.3-0.1c0,0.1-0.1,0.1,0,0.1c0,0,0,0,0.1,0c0.1,0,0.1,0,0.2,0c-0.1,0.1-0.1,0.1-0.2,0
								c-0.1,0.1-0.1,0.1-0.1,0.1c-0.1-0.1-0.3-0.2-0.4-0.3c-0.2,0.1-0.6,0-0.7,0.1c-0.1,0-0.1-0.1-0.1-0.1c0.1,0,0.1,0,0.1,0
								c-0.1,0-0.4,0-0.4,0.1c-0.1-0.1,0.1-0.1-0.1-0.1c-0.4-0.1-0.8,0.2-1.3,0h0.1c-0.6-0.1-1.2,0-1.8-0.1c-0.1,0-0.2,0-0.3,0v-0.1
								h-0.1c-0.2,0-0.4-0.1-0.7-0.1h0.1c-0.1,0-0.4,0-0.4,0h-0.1h-0.3c-0.2,0,0,0-0.3,0c-0.1,0-0.2,0-0.3,0c0,0,0.1,0,0.1,0h-0.1
								c0,0-0.1,0,0.1,0h0.1h0.1h-0.1c0.1,0,0.1,0,0.2,0h0.1h0.1c0,0-0.1,0,0.1,0c0.1,0-0.1,0,0.1,0c0.1,0,0.1,0,0.1,0
								c0,0,0,0-0.1,0c0.1,0,0.2,0,0.3,0s0.3,0,0.3,0.1c0,0,0.1,0,0.2,0c-0.1,0,0.3,0.1,0.3,0.1c0.1-0.1,0.4,0,0.6,0c0,0,0,0-0.1,0
								c0.1,0,0.1,0.1,0.2,0.1c0-0.1,0.2-0.1,0.3-0.1c0.1,0.1-0.1,0.1-0.1,0.1c0-0.1,0.2,0,0.2-0.1c0.1,0.1,0.1,0,0.1,0.1
								c0-0.1,0.1,0,0.2-0.1C140.4,224.7,140.2,224.7,140.4,224.7S140.4,224.7,140.4,224.7z M144.2,225L144.2,225L144.2,225z
								 M144.6,225c-0.1,0-0.1,0-0.1,0C144.4,225,144.4,224.9,144.6,225C144.4,225,144.5,225,144.6,225z M143.9,224.3
								C144,224.3,144,224.3,143.9,224.3C143.9,224.3,143.9,224.3,143.9,224.3C143.8,224.3,143.8,224.3,143.9,224.3z"/>
							<path id="Vector_105" class="st13" d="M149,225.6L149,225.6L149,225.6L149,225.6z"/>
							<path id="Vector_106" class="st13" d="M169.3,222.2L169.3,222.2C169.3,222.3,169.3,222.3,169.3,222.2z"/>
							<path id="Vector_107" class="st13" d="M169.1,222.3c0.1,0,0.1,0,0.1-0.1C169.2,222.3,169.1,222.3,169.1,222.3z"/>
							<path id="Vector_108" class="st13" d="M176.9,219.3c0.1,0,0.1-0.1,0.2-0.1C177.1,219.2,177,219.2,176.9,219.3z"/>
							<path id="Vector_109" class="st13" d="M175.9,219.5l0.2-0.1c-0.1,0-0.1,0,0-0.1C175.9,219.4,176.2,219.4,175.9,219.5z"/>
							<path id="Vector_110" class="st13" d="M175.4,219.6C175.4,219.6,175.4,219.6,175.4,219.6
								C175.3,219.6,175.3,219.6,175.4,219.6z"/>
							<path id="Vector_111" class="st13" d="M171.1,221.1L171.1,221.1C171,221.1,171.1,221.1,171.1,221.1z"/>
							<path id="Vector_112" class="st13" d="M170.5,221.8L170.5,221.8L170.5,221.8L170.5,221.8z"/>
							<path id="Vector_113" class="st13" d="M169.8,221.4L169.8,221.4h-0.1H169.8z"/>
							<path id="Vector_114" class="st13" d="M162.6,223.9l0.1,0.1C162.8,224,162.7,223.8,162.6,223.9z"/>
							<path id="Vector_115" class="st13" d="M159.6,224.7c-0.1-0.1-0.1-0.1-0.2,0C159.5,224.7,159.6,224.8,159.6,224.7z"/>
						</g>
						<g id="Group_16">
							<path id="Vector_116" class="st14" d="M83.9,389.3c0-0.1,0-0.2,0-0.1C83.9,389.3,83.9,389.3,83.9,389.3
								c0,0.1-0.1,0.2-0.1,0.2c0,0.1,0,0.1,0,0.1C83.8,389.6,83.8,389.4,83.9,389.3C83.9,389.3,83.9,389.3,83.9,389.3z"/>
							<path id="Vector_117" class="st14" d="M85.4,382.3l0.1-0.1C85.4,382.1,85.4,382.2,85.4,382.3z"/>
							<path id="Vector_118" class="st14" d="M84.8,385.7L84.8,385.7C84.7,385.7,84.7,385.7,84.8,385.7
								C84.7,385.7,84.7,385.7,84.8,385.7z"/>
							<path id="Vector_119" class="st14" d="M93.5,339.8L93.5,339.8L93.5,339.8z"/>
							<path id="Vector_120" class="st14" d="M87.3,375.9C87.3,376,87.3,375.9,87.3,375.9L87.3,375.9z"/>
							<path id="Vector_121" class="st14" d="M89.7,363.3c-0.2,0.1-0.2-0.3-0.4-0.1C89.4,363.2,89.6,363.4,89.7,363.3z"/>
							<path id="Vector_122" class="st14" d="M87.9,372.7L87.9,372.7C87.8,372.8,87.8,372.8,87.9,372.7z"/>
							<path id="Vector_123" class="st14" d="M87.9,371.4C87.9,371.4,88,371.4,87.9,371.4C87.9,371.4,87.9,371.4,87.9,371.4z"/>
							<path id="Vector_124" class="st14" d="M92,345.4C92,345.4,92.1,345.4,92,345.4C92,345.4,92.1,345.1,92,345.4z"/>
							<path id="Vector_125" class="st14" d="M84,388.4C83.9,388.4,83.9,388.3,84,388.4C83.9,388.4,83.9,388.4,84,388.4z"/>
							<path id="Vector_126" class="st14" d="M86.4,371.1l0.1-0.2C86.5,371,86.4,371.1,86.4,371.1z"/>
							<path id="Vector_127" class="st14" d="M86.5,370.3c0.1,0,0.1-0.1,0.1-0.1S86.7,370.2,86.5,370.3L86.5,370.3z"/>
							<path id="Vector_128" class="st14" d="M92.2,344c-0.1,0.2,0.1,0.1,0.1,0.1c0,0.2-0.1,0.1-0.1,0.1c0,0.1,0.1,0.3,0,0.4
								c0,0,0,0-0.1,0c0.1,0.1-0.1,0.4-0.1,0.6c0.1,0,0.1,0,0.1,0c0,0.1,0.1,0.1-0.1,0.2c0-0.1,0-0.1,0-0.1v0.1
								c-0.1,0.1,0-0.1-0.1-0.1c0,0.2,0.1,0.4,0,0.6c-0.1,0,0-0.4-0.1-0.1l0.1-0.2c-0.2,0.1,0.1-0.1-0.1,0c-0.1,0.3,0,0.3-0.1,0.6
								c0.1,0.1,0.1,0,0.1,0.1c0,0.4-0.4,0.2-0.3,0.6c0.1,0.1,0.2,0.1,0.1,0.4l-0.1-0.1c-0.1,0.3,0.2,0.2,0,0.4
								c-0.1-0.1,0-0.2,0-0.2c-0.1,0.1,0.1,0.1,0,0.3h-0.1c-0.1,0.3,0,0.6-0.1,0.9c-0.1,0-0.1-0.1-0.1,0c0,0.4-0.2,0.9-0.4,1.2
								l0.1,0.1c0,0-0.1,0.1-0.1,0c-0.1,0.1,0.1,0,0.1,0.1c0,0.1-0.1,0.1-0.1,0c0.1,0.3,0.1,0.8-0.1,1.1V351
								c-0.1,0.2,0.3,0.3,0.1,0.5v-0.1c-0.1,0.4-0.1,1-0.4,1.3c0.2,0.1-0.2,0.4,0.1,0.6c-0.2,0.2-0.3,0.1-0.5,0.5
								c-0.1,0.1,0.2,0.2,0.2,0.4h-0.2l0.1,0.2l-0.2,0.1v0.1c0-0.1,0.1-0.1,0.1-0.1c0.1,0.2-0.2,0.4-0.4,0.4l0.1,0.4
								c-0.1,0-0.1-0.1-0.1-0.1c0.1,0.3-0.2,0-0.1,0.2c0.1,0,0.1,0.1,0.1,0.1c-0.1,0.1-0.2,0.4-0.2,0.5l-0.1-0.1
								c-0.1,0.3-0.1,0.7-0.1,1.1c0.1-0.1,0.3-0.1,0.4,0.1h-0.2c0.1,0.1,0.1-0.1,0.2,0.1c-0.1,0.1-0.3,0.1-0.3-0.1l0.1,0.1
								c-0.1,0-0.1-0.1-0.1-0.1c0.1,0.1-0.3,0.2-0.1,0.4H89c-0.1,0.4-0.1,0.6-0.1,0.9c0.2,0.1,0.1,0.1,0.3,0.3
								c-0.1,0.2-0.3,0.4-0.4,0.6c0.1,0.2,0.1,0.1,0.2,0.2c-0.1,0-0.2,0.2-0.3,0.1c-0.1,0.3-0.1,0.4,0,0.9c0.1,0,0.1-0.1,0.1,0
								s-0.1,0.1-0.2,0.1c0.1,0.5-0.7,0.9-0.4,1.3l0.1,0.4c-0.1,0.1-0.1-0.1-0.2,0c0.2,0.4-0.1,0.6,0,1c-0.6,0.1-0.1,0.9-0.6,1.1
								h0.1c0.1,0.1-0.1,0.1-0.1,0.1c0.1,0,0.1-0.1,0.2,0c0,0.8-0.5,1.5-0.7,2.2c-0.1,0.3,0.6,0.3,0.2,0.6l-0.2-0.1
								c0.1,0.6-0.2,1.1-0.1,1.8c-0.1-0.1-0.1-0.1-0.1-0.1c-0.2,0.1-0.1,0.4,0.1,0.4c0,0.1-0.1,0-0.2,0.1c-0.1,0.1,0.1,0.4,0,0.4
								l-0.1-0.1c0.1,0.1-0.1,0.4,0.1,0.3c-0.1,0.2,0,0.4-0.1,0.6c0.2,0.1-0.1,0.4,0.1,0.4c-0.3-0.1-0.3,0.3-0.2,0.5
								c-0.1-0.1-0.1,0.1-0.2,0c0,0.1,0,0.3,0.1,0.3c-0.4,0.2,0.2,0.6-0.3,0.6c0.1,0.5,0.1,0.9,0.1,1.3c-0.3-0.1,0.1-0.4-0.3-0.5
								c0.1,0.4,0.3,0.6,0.1,1c-0.1,0.1-0.1-0.1-0.1-0.1c0.1,0.4-0.1,0.7-0.1,1.1l-0.1-0.1c0,0.1-0.1,0.1,0.1,0.1V375
								c0.2-0.1,0.4,0.4,0.4,0.4c-0.4-0.2-0.1,0.3-0.6,0.1c0,0.1,0.1,0.1,0.1,0.1c0,0.1-0.1,0.1-0.1,0c0,0.3,0.1,0.2,0.1,0.4
								c-0.1,0-0.1-0.1-0.1-0.1c0.1,0.1,0.2,0.3,0.1,0.4c0,0-0.1,0-0.1-0.1c-0.1,0.3,0.2,0.6,0,0.9c-0.2-0.1-0.1,0.1-0.3,0.1v0.2
								l0.1-0.1c0,0.1,0.1,0.4,0,0.4l-0.1-0.1v0.3l0.1-0.1c0.1,0.2,0.3,0,0.1,0.2c0-0.1,0,0.1-0.1,0.2c0.1,0.1,0.1,0.2,0,0.3
								c-0.1,0-0.2-0.1-0.3-0.1c0.1,0.1,0,0.4,0.1,0.5c0-0.1-0.1-0.1-0.1-0.1l0.1,0.1c-0.1,0.1-0.1,0.1-0.1,0.1
								c-0.1,0.2,0.3,0,0.1,0.2c0,0,0,0-0.1-0.1c-0.1,0.3,0,0.6-0.1,0.8c-0.2,0.1,0-0.2-0.1-0.1c0,0.4,0.1,0.8,0,1.1v-0.1
								c0.2,0.1-0.1,0.2-0.1,0.4c0-0.1-0.1-0.1-0.1-0.1c-0.1,0.2,0,0.5,0,0.8L85,382c-0.1,0.1-0.1,0.4-0.1,0.5
								c0.1,0.1,0,0.1,0.1,0.1c-0.4,0.4,0,0.9-0.3,1.3c0-0.1,0-0.1,0-0.1v0.4c0.1,0,0.1-0.1,0.1-0.1c0.1,0.1,0.1,0.1,0,0.2
								c0-0.1-0.1,0-0.1,0.1h0.1c-0.1,0.1,0.1,0.1,0,0.3c0,0.1,0,0.2,0,0.3c-0.1,0,0-0.1-0.1-0.1c0,0.1,0.1,0.3,0,0.4
								c0-0.1,0-0.1,0-0.2c-0.1,0.1-0.1,0.1-0.1,0.2l-0.1,0.2v-0.1c0.1,0.2,0,0.4,0.1,0.6c-0.1-0.3-0.1-0.1-0.1-0.1
								c0,0.1-0.1,0.1-0.1,0.1c0.1,0.1-0.1,0.2,0,0.4c0,0,0,0.1-0.1,0.1c0,0.1,0.1,0,0.1,0c0,0.2-0.1,0.5-0.1,0.8c0,0.3,0,0.4,0,0.6
								c0,0.1,0-0.1,0-0.1c-0.1,0.1-0.1,0.2-0.1,0.4c0,0,0,0,0,0.1c0,0.1,0,0.1,0,0.2c0,0,0-0.1,0-0.1c0,0.1,0,0.3,0,0.4
								c0,0,0-0.1,0-0.1c0,0.1-0.1,0.4-0.1,0.4v-0.1c0,0.1,0,0,0,0c0-0.1,0-0.2,0.1-0.2v0.1c0.1-0.1,0.1-0.4,0.1-0.6v0.1v-0.2
								c0-0.1,0.1-0.1,0.1,0c0.1-0.1,0-0.1,0.1-0.2v-0.1c0,0,0.1,0,0,0.1c0.1-0.2,0.1-0.4,0.1-0.5c0.1-0.4-0.1-0.1-0.1-0.3l0.1-0.1
								l-0.1-0.1c0,0,0-0.1,0.1-0.1c0-0.1,0,0-0.1-0.1c0.1-0.1,0.1-0.4,0.1-0.5c-0.1-0.1-0.1,0.1-0.1,0c0.1,0,0-0.2,0.1-0.4
								c0.1,0.1,0,0.2,0.1,0.1c-0.1-0.1,0.1-0.3,0.1-0.4c-0.1,0,0-0.3,0-0.5c0,0,0.1-0.4,0.2-0.6c-0.1-0.1-0.1-0.3,0-0.4
								c0.1,0,0.1,0.1,0.1,0.1V384c0-0.1-0.1-0.1,0-0.1l0.1,0.1c0.1-0.2,0-0.4,0.1-0.6c-0.1,0-0.3,0.1-0.3-0.1c0.1,0,0.1,0,0.1,0.1
								c0,0,0-0.1,0-0.1l0.1,0.1c0.1-0.1-0.1-0.1,0-0.1c0.1,0,0.1-0.1,0.1,0c0,0-0.1,0.1,0,0.1c0-0.1,0.1-0.2,0.1-0.2
								c-0.1,0-0.1,0-0.1-0.1c0-0.2,0.1-0.1,0.1-0.1c-0.1-0.1,0.1-0.1-0.1-0.2c0-0.1,0.1-0.1,0.1-0.1c0-0.1,0.1-0.4-0.1-0.4
								c-0.1-0.4,0.2-0.6,0.2-0.9h0.1c0-0.2,0.1-0.4,0-0.6c0-0.1,0.1-0.1,0.1-0.1c0-0.1-0.1-0.1,0.1-0.4c0.1,0.1,0.1,0,0,0.1
								c0.1-0.1,0.1-0.2,0.1-0.4c0.1,0.1,0.2-0.1,0.1-0.2l-0.1,0.1c0-0.1,0-0.2,0.1-0.3l0.1,0.1c0.3-0.4-0.2-0.7,0.2-0.9
								c-0.1-0.1-0.1,0.2-0.2,0.1c0.1-0.1,0.4-0.3,0.4-0.4c0.1-0.2-0.2-0.3-0.1-0.5c-0.1,0-0.2,0-0.3-0.2c0.1-0.1,0.3-0.1,0.4-0.1
								c0,0.1,0,0.1-0.1,0.1c0,0.1,0,0.1,0.1,0.1h-0.1c0.1-0.1,0.1-0.3,0.2-0.2c0-0.1-0.1-0.1-0.1,0c0.1-0.2,0.1-0.4,0.2-0.6
								c-0.1,0-0.1,0.1-0.1,0c0.1-0.3-0.1-0.1-0.1-0.4c0.1-0.1,0.2,0.1,0.2-0.1c0.1-0.1,0.2,0,0.2,0.1c-0.1-0.2,0.1-0.4,0.2-0.5v0.1
								c0-0.1,0-0.1,0-0.1h-0.1c0.1-0.1,0.1-0.1,0.1-0.1c-0.1-0.1-0.2,0-0.4-0.1c0.1-0.1,0-0.3,0.1-0.3c-0.1,0.3,0.2,0,0.1,0.2
								c0-0.1,0-0.1,0.1-0.1c0,0,0.1,0,0.1,0.1c0.2-0.2-0.2-0.1-0.1-0.4c0.1,0.1,0.2,0,0.2-0.1c0,0.1-0.2,0-0.2-0.1
								c0.1-0.1,0-0.2,0-0.3l-0.1,0.1c-0.1-0.1-0.1-0.1-0.1-0.3c0.1,0,0,0.1,0.1,0.1c-0.1-0.1,0.3-0.3,0.1-0.5c0.1-0.1,0.2,0,0.3,0
								c-0.1-0.2,0.2-0.2,0.1-0.4c-0.1,0-0.1,0.1-0.2-0.1v0.4l-0.1-0.3c0,0.1,0.1,0.2,0,0.3c-0.1-0.1-0.1-0.1-0.2-0.1
								c0.3-0.1-0.1-0.3,0.1-0.4l0.4,0.1c0.2-0.2-0.1-0.5,0.1-0.8l-0.1,0.1c-0.1-0.1,0-0.2,0-0.4c0.1,0,0.2,0,0.3-0.1
								c-0.1,0,0.1-0.2-0.2-0.3l0.2-0.1c0.1-0.3-0.3-0.4-0.2-0.6c0.1,0.1,0.2,0,0.3,0.2c0-0.1,0.1-0.1,0-0.1c0.1,0-0.1-0.3,0-0.4
								c-0.1-0.1-0.2-0.1-0.1-0.2h0.1c-0.1,0-0.1-0.1-0.2-0.1c0.5-0.2,0.1-0.7,0.5-0.9c0-0.2,0-0.4,0-0.6c0.1,0,0.1,0,0.1,0.1
								c0.1-0.2-0.4-0.2-0.1-0.4c0.2-0.1,0.1,0.1,0.2,0.1c0.4,0.1,0-0.4,0.3-0.5v0.1c0.2-0.1-0.1-0.4,0-0.6h0.1
								c-0.2-0.2-0.2-0.5-0.2-0.7c0.1,0.1,0.1,0.1,0.3,0.1c0-0.1-0.3,0-0.3-0.2c0.1-0.1,0.2-0.1,0.4-0.1v0.2
								c0.3-0.1,0.1-0.2,0.1-0.4h0.1c0-0.3-0.3-0.4-0.1-0.6h-0.1c-0.2-0.2,0.2-0.1,0-0.3h0.3c-0.1-0.1-0.2-0.4-0.2-0.6
								c0.2,0.1,0.2,0.4,0.4,0.6c0-0.1,0.1-0.4-0.1-0.4c0,0.1,0.1,0.1,0,0.1c-0.2-0.1-0.3-0.4-0.2-0.6c0.5,0.1,0.2-0.5,0.7-0.6
								c-0.1-0.4,0.2-0.7,0.3-1.2c-0.4,0.1,0-0.1-0.4-0.2c0-0.1,0-0.1,0.1-0.1l0.3-0.3c0.1-0.1,0.1,0.1,0.1,0.1
								c0.1-0.2,0.2-0.1,0.4-0.2c-0.1,0-0.2-0.1-0.1-0.2l-0.2,0.1c-0.1-0.4,0.4-0.2,0.2-0.6l0.1,0.1c-0.1-0.1,0.1-0.6-0.2-0.9
								c0.1,0,0.1,0,0.2,0.1c0.1-0.4-0.2-0.9,0.1-1.2l0.1,0.1c0-0.1-0.1-0.1-0.1-0.2c0.1,0,0.1,0.1,0.1,0c0-0.1-0.1-0.2-0.1-0.3
								l0.1,0.1c0.2-0.4-0.1-0.6-0.1-1c0.3,0.1,0.4-0.2,0.5-0.4h0.1c0.1-0.4-0.1-0.8-0.1-1.2c0.4-0.2,0.3-0.9,0.5-1.2
								c-0.1,0.1-0.2-0.1-0.2-0.1c0.1-0.1-0.1-0.3,0.1-0.2c0.3,0,0.2-0.2,0.3-0.4l-0.3-0.1c0.6-0.3,0-1.1,0.5-1.2
								c-0.1-0.1-0.1-0.2-0.1-0.4l0.1,0.1c0.1-0.3,0.1-0.4,0.1-0.7l0.1,0.1c0.1-0.2-0.4-0.4-0.4-0.5h0.2c0.1-0.4,0.3-0.6,0.1-1
								c0,0,0.1,0,0.1,0.1c0-0.1,0.2-0.6-0.1-0.6c0.2,0,0.1-0.4,0-0.5l0.1,0.1c-0.1-0.2-0.2-0.2-0.2-0.4c0-0.1,0.1,0,0.1,0.1
								c0.1-0.1-0.1-0.1,0-0.4l0.1,0.1c0.1-0.1,0-0.1-0.1-0.3c0-0.1,0.1-0.3,0.2-0.3c-0.1-0.1-0.1-0.1-0.1-0.2
								c0.1,0,0.1,0.1,0.1,0.1c0.1-0.3-0.1-0.4,0.1-0.6c0.1,0,0.1,0,0.1,0c-0.1,0.2-0.1,0.4-0.1,0.4c0.1,0,0.1-0.1,0.3,0
								c-0.1-0.1-0.2-0.4-0.1-0.6c0,0,0,0,0.1,0c0-0.1,0-0.1,0-0.1c0-0.1,0.1-0.1,0.1-0.1c0.1,0,0.1-0.2,0.1-0.3
								c-0.1,0-0.1-0.1-0.2-0.1c0,0,0,0,0,0.1c0,0,0,0,0,0.1c0,0.1,0,0.1,0,0.2c-0.1-0.1-0.1-0.1,0-0.3c-0.1-0.1-0.1-0.1-0.1-0.1
								c0.2-0.1,0.3-0.3,0.4-0.4c0-0.3,0.1-0.6-0.1-0.9c0-0.1,0.1-0.1,0.1-0.1c0,0.1,0,0.1,0,0.1c0-0.1,0.1-0.5-0.1-0.6
								c0.1-0.2,0.1,0.1,0.1-0.1v0.1c0.3-0.5-0.1-0.9,0.2-1.5c0,0.1,0,0.1-0.1,0.1c0.2-0.6,0.1-1.4,0.4-2.1c0.1-0.2,0-0.2,0-0.4H93
								v-0.2c0-0.3,0.1-0.5,0.1-0.9v0.1c0-0.1,0.1-0.4,0.1-0.4v-0.1l0.1-0.3c0.1-0.2,0,0.1,0.1-0.3c0-0.1,0-0.3,0.1-0.4
								c0,0,0,0.1,0,0.1v-0.1c0,0,0-0.1-0.1,0.1l-0.1,0.2v0.1l0.1-0.1c0,0.1-0.1,0.1-0.1,0.2v0.1v0.2c0,0,0-0.1-0.1,0.1
								c0,0.1,0.1-0.1,0,0.1c-0.1,0.1-0.1,0.1-0.1,0.2c0,0,0,0,0-0.1c0,0.1-0.1,0.3-0.1,0.4c-0.1,0.1-0.1,0.4-0.1,0.4
								c0,0,0,0.2,0,0.3c0-0.2-0.1,0.4-0.1,0.3c0.1,0.1-0.1,0.4-0.1,0.7v-0.1c-0.1,0.1-0.1,0.1-0.1,0.2c0.1,0,0.1,0.2,0.1,0.4
								c-0.1,0.1-0.1-0.1-0.1-0.1c0.1,0,0,0.3,0.1,0.2c-0.1,0.1-0.1,0.1-0.1,0.1c0.1,0.1,0,0.1,0.1,0.2c-0.1,0.1-0.1,0-0.1,0.2
								C92.2,344.2,92.2,344,92.2,344z M91.4,348.5C91.4,348.4,91.4,348.4,91.4,348.5L91.4,348.5z M91.4,348.9c0-0.1,0-0.1,0.1-0.1
								c0.1,0,0.1,0,0.1,0.1C91.4,348.8,91.4,348.8,91.4,348.9z M92.4,348.3C92.4,348.3,92.4,348.3,92.4,348.3
								C92.3,348.3,92.3,348.3,92.4,348.3C92.3,348.2,92.4,348.2,92.4,348.3z"/>
							<path id="Vector_129" class="st14" d="M84.5,385.2l-0.1,0.1C84.4,385.3,84.4,385.3,84.5,385.2z"/>
							<path id="Vector_130" class="st14" d="M85.8,378.2c0-0.1-0.1-0.1-0.1-0.1C85.7,378.2,85.7,378.2,85.8,378.2z"/>
							<path id="Vector_131" class="st14" d="M85.8,377.9c-0.1,0.1-0.1,0.1,0,0.1C85.8,378,85.8,378,85.8,377.9z"/>
							<path id="Vector_132" class="st14" d="M84.1,387.7c0,0.1-0.1,0.1-0.1,0.3C84,388,84.1,387.8,84.1,387.7z"/>
							<path id="Vector_133" class="st14" d="M84.5,386.7l-0.1,0.2c0-0.1,0.1-0.1,0.1,0C84.6,386.6,84.4,386.9,84.5,386.7z"/>
							<path id="Vector_134" class="st14" d="M84.6,385.9C84.6,386,84.7,385.9,84.6,385.9C84.7,385.9,84.7,385.8,84.6,385.9z"/>
							<path id="Vector_135" class="st14" d="M85.8,380.7H86C85.9,380.6,85.9,380.8,85.8,380.7z"/>
							<path id="Vector_136" class="st14" d="M85.4,379.6l-0.1,0.1l0.1,0.1V379.6z"/>
							<path id="Vector_137" class="st14" d="M88.2,370.4H88C88,370.5,88.3,370.6,88.2,370.4z"/>
							<path id="Vector_138" class="st14" d="M88.8,366.6c0.1,0,0.2-0.1,0.1-0.2C88.9,366.5,88.7,366.5,88.8,366.6z"/>
							<path id="Vector_139" class="st14" d="M91.2,355.3l0.1,0.1L91.2,355.3L91.2,355.3z"/>
						</g>
						<g id="Group_17">
							<path id="Vector_140" class="st14" d="M241.8,387.7v-0.1C241.7,387.6,241.8,387.6,241.8,387.7z"/>
							<path id="Vector_141" class="st14" d="M242.1,389.9C242.2,390,242.2,390,242.1,389.9L242.1,389.9z"/>
							<path id="Vector_142" class="st14" d="M242.3,391.6C242.3,391.5,242.2,391.5,242.3,391.6L242.3,391.6z"/>
							<path id="Vector_143" class="st14" d="M242,388.7C242.1,388.7,242.1,388.7,242,388.7C242.1,388.6,242.1,388.7,242,388.7z"/>
							<path id="Vector_144" class="st14" d="M235.5,366.8c-0.1,0.2-0.3-0.1-0.4,0.1C235.2,366.9,235.5,367,235.5,366.8z"/>
							<path id="Vector_145" class="st14" d="M239.5,376.8C239.5,376.9,239.5,376.9,239.5,376.8
								C239.5,376.9,239.5,376.9,239.5,376.8z"/>
							<path id="Vector_146" class="st14" d="M224.9,349.5C224.9,349.4,224.9,349.4,224.9,349.5
								C224.9,349.5,224.8,349.3,224.9,349.5z"/>
							<path id="Vector_147" class="st14" d="M237.4,376l-0.1-0.2C237.3,375.9,237.4,376,237.4,376z"/>
							<path id="Vector_148" class="st14" d="M237,375.2c0.1-0.1,0.1-0.1,0.1-0.1s0,0-0.1,0V375.2z"/>
							<path id="Vector_149" class="st14" d="M224,348.2c0.1,0.2,0.1,0.1,0.2,0.1c0.1,0.2,0,0.1,0,0.3c0.1,0.1,0.2,0.2,0.3,0.3
								c0,0,0,0.1-0.1,0c0.1,0.1,0.3,0.4,0.4,0.6c0,0,0,0,0,0.1c0-0.1,0.1-0.1,0.1-0.1c0.1,0.1,0.1,0.1,0.1,0.2
								c0-0.1-0.1-0.1-0.1-0.1l0.1,0.1c-0.1,0.1-0.1-0.1-0.1-0.1c0.1,0.1,0.4,0.3,0.4,0.4c-0.1,0.1-0.2-0.3-0.2-0.1l-0.1-0.2
								c-0.1,0.3-0.1-0.1-0.1,0.1c0.1,0.3,0.2,0.3,0.4,0.6c0.1,0,0.1-0.1,0.1-0.1c0.4,0.4-0.1,0.5,0.2,0.6c0.1,0,0.3,0,0.3,0.2h-0.1
								c0.1,0.3,0.3,0.1,0.4,0.4c-0.1,0-0.1-0.2-0.1-0.1c0,0.2,0.1,0.1,0.2,0.2l-0.1,0.1c0.1,0.3,0.4,0.6,0.6,0.9
								c-0.1,0-0.1,0-0.1,0.1c0.3,0.4,0.4,0.9,0.6,1.3l0.2,0.1c0,0,0,0.1-0.1,0.1c0,0.1,0.1-0.1,0.1,0c0.1,0.1,0,0.1-0.1,0.1
								c0.2,0.2,0.6,0.6,0.6,1H228c0.1,0.3,0.4,0.1,0.4,0.4h-0.1c0.2,0.5,0.6,0.9,0.6,1.4c0.2-0.1,0.1,0.5,0.5,0.4
								c0,0.4-0.1,0.3,0,0.7c0.1,0.1,0.3,0.1,0.4,0.1l-0.1,0.1l0.3,0.1l-0.1,0.2l0.1,0.1c0-0.1,0-0.1,0.1-0.1c0.1,0.1,0.1,0.5,0,0.6
								l0.4,0.4c-0.1,0-0.1,0-0.2-0.1c0.3,0.1-0.1,0.1,0.1,0.3c0-0.1,0.1-0.1,0.1-0.1c-0.1,0.1,0.1,0.4,0.2,0.6h-0.1
								c0.1,0.4,0.4,0.6,0.6,1c0-0.1,0.2-0.2,0.3-0.1l-0.1,0.1c0.1,0,0-0.1,0.2-0.1c0.1,0.1-0.1,0.2-0.3,0.1l0.1,0.1
								c-0.1,0.1-0.1,0-0.2,0.1c0.1,0-0.1,0.4,0.2,0.4l-0.1,0.1c0.1,0.4,0.4,0.5,0.5,0.8c0.1-0.1,0.2,0.1,0.4,0.1
								c0.1,0.2,0.1,0.6,0.2,0.8c0.1,0.1,0.1,0,0.3,0c-0.1,0.1,0,0.4-0.2,0.3c0.2,0.3,0.2,0.4,0.6,0.7c0.1-0.1,0.1-0.1,0.1-0.1
								c0.1,0.1,0,0.2-0.1,0.2c0.4,0.4,0,1.3,0.5,1.5l0.4,0.3c0.1,0.2-0.1-0.1-0.2,0.1c0.4,0.3,0.3,0.6,0.6,0.9
								c-0.4,0.5,0.4,0.9,0.3,1.4l0.1-0.1c0.1,0.1,0,0.1,0,0.2c0.1-0.1,0.1-0.1,0.1-0.1c0.5,0.7,0.5,1.6,0.8,2.5
								c0.1,0.3,0.6-0.1,0.6,0.4h-0.3c0.5,0.5,0.5,1.2,0.9,1.7c-0.1,0-0.1,0-0.1-0.1c-0.1,0.2,0.1,0.4,0.3,0.4
								c0,0.1-0.1,0.1-0.1,0.1c-0.1,0.1,0.4,0.2,0.2,0.4h-0.1c0.1,0.1,0.1,0.4,0.3,0.2c0,0.3,0.2,0.4,0.2,0.6
								c0.2,0.1,0.1,0.4,0.4,0.4c-0.3,0.1-0.1,0.5,0.1,0.6c-0.1,0-0.1,0.1-0.2,0.1c0.1,0.1,0.1,0.3,0.3,0.2
								c-0.2,0.4,0.5,0.5,0.1,0.8c0.3,0.4,0.6,0.9,0.8,1.2c-0.3,0.1-0.2-0.4-0.5-0.4c0.3,0.4,0.6,0.5,0.6,0.9c0,0.1-0.1,0-0.2-0.1
								c0.3,0.4,0.2,0.8,0.5,1.1c0,0-0.1,0-0.1-0.1c0,0.1,0,0.1,0.1,0.1l-0.1-0.1c0.1-0.1,0.4,0.1,0.6,0.1c-0.4,0,0,0.4-0.5,0.4
								c0.1,0.1,0.1,0.1,0.2,0.1c0,0.1-0.1,0.1-0.1,0.1c0.1,0.2,0.2,0.1,0.3,0.4c-0.1,0-0.1,0-0.1,0c0.1,0.1,0.3,0.1,0.3,0.4
								c-0.1,0-0.1,0-0.1,0c0.1,0.4,0.4,0.5,0.4,0.9c-0.3-0.1-0.1,0.1-0.2,0.2l0.1,0.2l0.1-0.1c0.1,0.1,0.2,0.3,0.2,0.4l-0.1-0.1
								l0.1,0.3v-0.2c0.1,0.1,0.2-0.1,0.3,0.1c0-0.1,0.1,0.1-0.1,0.3c0.1,0.1,0.1,0.1,0.1,0.3c-0.1,0.1-0.2,0-0.3,0.1
								c0.2,0.1,0.1,0.4,0.4,0.5c-0.1,0-0.1,0-0.1,0l0.1,0.1c0,0.1-0.1,0.1-0.1,0.1c0.1,0.3,0.2-0.1,0.2,0.2c0,0,0,0-0.1-0.1
								c0,0.3,0.2,0.6,0.2,0.8c-0.1,0.1-0.1-0.2-0.2-0.1c0.1,0.4,0.4,0.8,0.4,1.1v-0.1c0.2,0-0.1,0.3,0.1,0.5c0-0.1-0.1-0.1-0.1,0
								c0,0.3,0.1,0.5,0.4,0.9l-0.1-0.1c0,0.1,0.1,0.4,0.1,0.6c0.1,0.1,0.1,0.1,0.1,0.1c-0.2,0.6,0.3,1,0.1,1.4
								c0-0.1-0.1-0.1-0.1-0.1l0.1,0.4c0.1-0.1,0-0.1,0.1-0.1c0.1,0.1,0.1,0.1,0.1,0.2c-0.1-0.1-0.1,0-0.1,0.1h0.1
								c-0.1,0.2,0.1,0,0.1,0.3h-0.1c0,0.1,0.1,0.2,0.1,0.3c-0.1,0.1-0.1-0.1-0.1-0.1c0,0.1,0.2,0.3,0.1,0.4c0-0.1-0.1-0.1-0.1-0.2
								c-0.1,0.1-0.1,0.2-0.1,0.3v0.3v-0.1c0.2,0.2,0.1,0.4,0.2,0.6c-0.1-0.3-0.1-0.1-0.1-0.1c0,0.1,0,0.1-0.1,0.1
								c0.1,0.1,0,0.2,0.1,0.4c0,0,0,0.1-0.1,0.1c0,0.1,0-0.1,0.1,0c0.1,0.3,0,0.6,0.1,1c0.1,0.3,0.1,0.4,0.1,0.6
								c0,0.1-0.1-0.1-0.1-0.1c0,0.1,0,0.3,0,0.4c0,0,0,0,0,0.1c0,0.1,0.1,0.1,0,0.2c0,0,0-0.1-0.1-0.1c0,0.1,0,0.3,0.1,0.4
								c0,0.1,0-0.1,0-0.1c0,0.1,0,0.4,0.1,0.5v-0.1c0,0.1,0,0,0,0c0-0.1,0-0.2,0-0.2v0.1c0.1-0.1,0-0.4,0-0.6l0.1,0.1l-0.1-0.2
								c0-0.1,0.1-0.1,0.1,0c0-0.1,0-0.1,0-0.3c0-0.1,0-0.1,0-0.1c0,0,0.1,0,0,0.1c0-0.3-0.1-0.4,0-0.5c-0.1-0.4-0.1,0-0.1-0.3
								l0.1-0.2H242c0-0.1,0-0.1,0-0.1c-0.1-0.1,0,0-0.1-0.1c0.1-0.2-0.1-0.5,0.1-0.6c-0.1-0.1,0,0.2-0.1,0c0.1-0.1,0-0.2,0-0.4
								c0.1,0.1,0.1,0.2,0.1,0c-0.1-0.1,0-0.4,0-0.5c-0.1,0-0.1-0.3-0.1-0.6c0,0,0-0.4,0.1-0.7c-0.1,0-0.1-0.3-0.1-0.4
								c0.1,0,0.1,0,0.1,0.1v-0.1c-0.1,0-0.1-0.1-0.1-0.1h0.1c0-0.2-0.1-0.4-0.1-0.7c-0.1,0-0.2,0.2-0.4,0c0.1,0,0.1-0.1,0.1,0
								c0,0-0.1-0.1-0.1-0.1l0.1,0.1c0-0.1-0.1-0.1-0.1-0.1c0.1,0,0.1-0.1,0.1-0.1s0,0.1,0,0.1c0-0.1,0-0.3,0.1-0.3
								c-0.1,0-0.1,0-0.1-0.1c0-0.2,0.1-0.1,0.1-0.2c-0.1-0.1,0-0.2-0.1-0.1c0-0.1,0.1-0.1,0.1-0.1c-0.1-0.1-0.1-0.5-0.2-0.4
								c-0.2-0.4-0.1-0.7-0.1-1.1h0.1c-0.1-0.2-0.1-0.4-0.2-0.6c0-0.1,0.1-0.1,0.1-0.1c-0.1-0.1-0.1-0.1-0.1-0.4
								c0.1,0.1,0.1-0.1,0.1,0.1c0-0.2,0.1-0.3-0.1-0.5c0.1,0.1,0.1-0.2,0.1-0.3l-0.1,0.1c-0.1-0.1-0.1-0.2-0.1-0.3h0.1
								c0.1-0.5-0.5-0.7-0.2-1.1c-0.1-0.1,0,0.2-0.2,0.2c0-0.2,0.2-0.4,0.1-0.5c0.1-0.3-0.3-0.2-0.3-0.5c-0.1,0.1-0.2,0.1-0.4-0.1
								c0-0.2,0.2-0.3,0.3-0.2c0,0.1,0,0.1,0,0.1c0.1,0.1,0.1,0.1,0.1,0.1h-0.1c0.1-0.1,0-0.4,0.1-0.4c-0.1-0.1-0.1,0-0.1,0.1
								c0-0.3-0.1-0.4-0.1-0.6c0,0.1-0.1,0.1-0.1,0.1c0-0.4-0.1-0.1-0.3-0.4c0.1-0.1,0.3,0,0.1-0.2c0-0.1,0.1-0.1,0.2-0.1
								c-0.2-0.2,0-0.4,0-0.6l0.1,0.1c-0.1-0.1-0.1-0.1-0.1-0.2l-0.1,0.1c0-0.1,0-0.1,0.1-0.1c-0.1-0.1-0.2,0.1-0.4,0
								c0.1-0.1-0.1-0.3,0-0.4c0,0.3,0.1-0.1,0.3,0.1c0-0.1-0.1-0.1-0.1-0.2h0.1c0.1-0.4-0.2-0.1-0.3-0.4c0.1,0,0.1-0.1,0.1-0.1
								c0,0.1-0.1,0.1-0.3,0c0-0.2-0.1-0.2-0.1-0.3v0.1c-0.1,0-0.1-0.1-0.2-0.2c0.1-0.1,0.1,0.1,0.1,0.1c-0.2-0.1,0.1-0.4-0.1-0.6
								c0.1-0.1,0.2-0.1,0.2-0.1c-0.2-0.2,0.1-0.3-0.1-0.5c-0.1,0.1-0.1,0.1-0.3,0l0.2,0.4l-0.3-0.2c0.1,0.1,0.1,0.2,0.1,0.3
								c-0.1-0.1-0.1-0.1-0.2,0c0.1-0.2-0.2-0.3-0.1-0.5l0.4-0.1c0.1-0.4-0.4-0.4-0.4-0.9v0.1c-0.1,0-0.1-0.2-0.2-0.3
								c0.1,0,0.1-0.1,0.2-0.2c-0.1,0.1-0.1-0.3-0.4-0.2l0.1-0.2c0-0.3-0.5-0.2-0.5-0.5c0.1,0.1,0.2-0.1,0.4,0
								c0-0.1-0.1-0.2-0.1-0.1c0.1-0.1-0.3-0.2-0.1-0.4c-0.1,0-0.2,0-0.2-0.1h0.1c-0.1,0-0.1-0.1-0.2,0c0.3-0.4-0.3-0.8-0.1-1.1
								c-0.1-0.2-0.3-0.4-0.4-0.6c0.1,0,0.1,0,0.1,0c0-0.3-0.4,0-0.4-0.4c0.1-0.2,0.1,0.1,0.2,0c0.4-0.2-0.2-0.4,0-0.6l0.1,0.1
								c0.1-0.2-0.3-0.3-0.4-0.6h0.1c-0.3-0.1-0.5-0.4-0.6-0.6c0.2,0,0.1,0.1,0.3-0.1c-0.1-0.1-0.3,0.1-0.4-0.1
								c0.1-0.1,0.1-0.3,0.3-0.4l0.1,0.2c0.2-0.2-0.1-0.2-0.1-0.4h0.1c-0.1-0.3-0.4-0.2-0.5-0.5l-0.1,0.1c-0.4-0.1,0.1-0.2-0.1-0.3
								l0.2-0.1c-0.1-0.1-0.4-0.3-0.6-0.5c0.2,0,0.4,0.2,0.6,0.4c-0.1-0.1-0.2-0.4-0.4-0.4c0.1,0,0.1,0.1,0.1,0.1
								c-0.3-0.1-0.4-0.2-0.6-0.4c0.5-0.1-0.1-0.6,0.2-1c-0.4-0.3-0.3-0.9-0.5-1.3c-0.3,0.4-0.1-0.1-0.4,0.1
								c-0.1-0.1-0.1-0.1-0.1-0.1l0.1-0.4c0.1-0.1,0.1,0.1,0.2,0c-0.1-0.2,0.1-0.1,0.1-0.4c-0.1,0.1-0.2,0-0.2-0.1l-0.1,0.3
								c-0.4-0.2,0.2-0.4-0.1-0.6l0.1,0.1c-0.1-0.1-0.3-0.6-0.7-0.6c0-0.1,0.1-0.1,0.2-0.1c-0.1-0.4-0.8-0.7-0.7-1.1h0.1
								c-0.1-0.1-0.2-0.1-0.2-0.2c0.1,0,0.1,0,0.1-0.1c-0.1,0-0.3-0.1-0.3-0.2h0.1c-0.1-0.4-0.6-0.5-0.8-0.8
								c0.3-0.1,0.2-0.5,0.1-0.6h0.1c-0.2-0.5-0.6-0.6-0.9-1c0.1-0.4-0.4-0.9-0.4-1.4c0,0.1-0.2,0.1-0.3,0c0-0.1-0.3-0.1-0.1-0.3
								v0.1c0.2-0.2,0-0.4-0.1-0.5l-0.3,0.1c0.2-0.6-0.7-1-0.5-1.4c-0.1-0.1-0.2-0.2-0.3-0.2l0.1-0.1c-0.1-0.3-0.1-0.4-0.4-0.7h0.1
								c-0.1-0.2-0.6,0-0.6-0.1l0.2-0.1c-0.2-0.4-0.2-0.7-0.6-1c0,0,0.1,0,0.1,0c-0.1-0.1-0.2-0.6-0.4-0.4c0.1-0.1-0.2-0.4-0.4-0.5
								l0.1-0.1c-0.2-0.1-0.3,0-0.4-0.2c0-0.1,0.1-0.1,0.1,0c0-0.2-0.2-0.1-0.2-0.3h0.1c-0.1-0.1-0.1-0.1-0.3-0.1
								c-0.1-0.1-0.1-0.4-0.1-0.4c-0.1,0-0.2,0-0.2-0.1h0.1c-0.1-0.3-0.4-0.4-0.4-0.6l0.1-0.1c0.1,0.2,0.2,0.4,0.2,0.4
								c0.1-0.1,0-0.2,0.2-0.2c-0.1-0.1-0.5-0.2-0.6-0.4c0,0,0,0,0-0.1c0-0.1-0.1-0.1-0.1-0.1c0-0.1,0-0.1-0.1-0.1
								c0.1-0.1-0.1-0.2-0.1-0.3c-0.1,0.1-0.1-0.1-0.1,0.1c0,0,0,0,0.1,0.1c0.1,0.1,0.1,0.1,0.1,0.2c-0.1-0.1-0.2-0.1-0.2-0.2
								c-0.1,0-0.2,0-0.2,0c0.1-0.2,0-0.5,0.1-0.6c-0.2-0.2-0.4-0.6-0.7-0.6c-0.1-0.1,0-0.1,0-0.1c0.1,0,0.1,0.1,0.1,0.1
								c-0.1-0.1-0.3-0.4-0.4-0.4c-0.1-0.2,0.1,0.1,0-0.2h0.1c-0.2-0.6-0.8-0.7-1-1.3c0,0.1,0,0.1,0,0.1c-0.4-0.7-0.9-1.3-1.3-2
								c-0.1-0.2-0.1-0.2-0.3-0.3v-0.1l-0.1-0.1c-0.2-0.2-0.2-0.5-0.5-0.8v0.1c-0.1-0.1-0.3-0.4-0.2-0.4c0,0-0.1,0-0.1-0.1l-0.2-0.3
								c-0.1-0.2,0.1,0-0.2-0.3c-0.1-0.1-0.2-0.2-0.2-0.3c0,0,0.1,0.1,0.1,0.1l-0.1-0.1c0,0-0.1-0.1,0.1,0.2l0.1,0.2v0.1l-0.1-0.1
								c0.1,0.1,0.1,0.1,0.1,0.2c0,0,0,0.1,0.1,0.1l0.1,0.2c0,0-0.1-0.1,0,0.1c0.1,0.1,0-0.1,0.1,0.1c0.1,0.1,0,0.1,0.1,0.2
								c0,0,0,0-0.1-0.1c0.1,0.1,0.1,0.3,0.2,0.3c0.1,0.1,0.2,0.4,0.1,0.4c0,0,0.1,0.1,0.2,0.2c-0.1-0.1,0.2,0.4,0.1,0.4
								c0.1,0.1,0.3,0.4,0.4,0.6c0,0-0.1,0-0.1-0.1c0.1,0.1,0.1,0.2,0.1,0.3c0.1,0,0.2,0.1,0.3,0.2c0,0.2-0.1-0.1-0.1,0.1
								c0.1-0.1,0.2,0.2,0.2,0.1c0,0.1,0.1,0.1,0,0.2c0.1-0.1,0.1,0.1,0.2,0.1c0.1,0.2-0.1,0.1,0.1,0.3
								C224.2,348.3,224,348.2,224,348.2z M226.8,352.5C226.8,352.4,226.7,352.4,226.8,352.5C226.7,352.4,226.7,352.4,226.8,352.5z
								 M227,352.9c0-0.1-0.1-0.1-0.1-0.1c0,0,0.1-0.1,0.1,0C226.9,352.7,227,352.8,227,352.9z M227.3,351.7
								C227.3,351.7,227.3,351.7,227.3,351.7C227.3,351.7,227.2,351.7,227.3,351.7C227.2,351.7,227.2,351.7,227.3,351.7z"/>
							<path id="Vector_150" class="st14" d="M239,379.9C239,379.9,239,379.9,239,379.9C238.9,379.8,239,379.9,239,379.9z"/>
							<path id="Vector_151" class="st14" d="M240.4,383.3C240.4,383.3,240.4,383.3,240.4,383.3
								C240.3,383.3,240.3,383.4,240.4,383.3z"/>
							<path id="Vector_152" class="st14" d="M240.3,383.1c0,0.1,0,0.1,0.1,0.1C240.3,383.2,240.3,383.1,240.3,383.1z"/>
							<path id="Vector_153" class="st14" d="M242.1,394c0,0.1,0,0.2,0,0.3C242.1,394.3,242.2,394.1,242.1,394z"/>
							<path id="Vector_154" class="st14" d="M242.3,392.7v0.3c0-0.1,0.1-0.1,0.1,0C242.4,392.6,242.3,393,242.3,392.7z"/>
							<path id="Vector_155" class="st14" d="M242.3,391.9C242.3,392,242.4,391.9,242.3,391.9C242.3,391.8,242.3,391.8,242.3,391.9z
								"/>
							<path id="Vector_156" class="st14" d="M241.5,385.9h0.1C241.7,385.8,241.6,385.9,241.5,385.9z"/>
							<path id="Vector_157" class="st14" d="M240.7,385v0.1h0.1L240.7,385z"/>
							<path id="Vector_158" class="st14" d="M241.4,384.1l-0.1-0.1L241.4,384.1z"/>
							<path id="Vector_159" class="st14" d="M238.6,374.4l-0.2,0.1C238.5,374.5,238.7,374.5,238.6,374.4z"/>
							<path id="Vector_160" class="st14" d="M236.8,370.4c0.1-0.1,0.1-0.2,0-0.3C236.8,370.3,236.8,370.4,236.8,370.4z"/>
							<path id="Vector_161" class="st14" d="M231.4,358.5l0.1,0.1L231.4,358.5L231.4,358.5z"/>
						</g>
					</g>
				</g>
			</g>
		</g>
	</g>
	<g class="speech_bubble">
		<path id="Vector_162" class="st5" d="M380.6,184.1C451,184.1,508,143,508,92.3S451,0.6,380.6,0.6c-70.4,0-127.4,41.1-127.4,91.7
			S310.3,184.1,380.6,184.1z"/>
		<path id="Vector_163" class="st15" d="M249.2,184.6l55.1-19.5c2.4-0.9,3.1-3.9,1.4-5.7l-33.6-34.9c-1.7-1.8-4.9-1.2-5.7,1.1
			L244.8,180C243.8,182.8,246.4,185.6,249.2,184.6z"/>
		<a>
		</a>
		<g class="st16">
			<path class="st17" d="M291.5,103.6c0-0.7,0.5-1.2,1.3-1.2s1.3,0.5,1.3,1.2c0,0.7-0.5,1.2-1.3,1.2
				C292.1,104.8,291.5,104.3,291.5,103.6z M291.8,106.2h2v8.5h-2V106.2z"/>
			<path class="st17" d="M304.8,109.8v4.9h-2v-4.6c0-1.5-0.8-2.3-2-2.3c-1.4,0-2.4,0.9-2.4,2.6v4.3h-2v-8.5h1.9v1.1
				c0.7-0.8,1.7-1.2,2.9-1.2C303.3,106.1,304.8,107.3,304.8,109.8z"/>
			<path class="st17" d="M309.6,105.7v0.5h2.4v1.6h-2.3v6.9h-2v-6.9h-1.4v-1.6h1.4v-0.5c0-1.8,1.1-3,3.1-3c0.7,0,1.4,0.1,1.8,0.5
				l-0.6,1.5c-0.3-0.2-0.7-0.4-1.1-0.4C310,104.4,309.6,104.8,309.6,105.7z"/>
			<path class="st17" d="M312.4,110.5c0-2.6,1.9-4.4,4.5-4.4c2.7,0,4.6,1.8,4.6,4.4c0,2.6-1.9,4.4-4.6,4.4
				C314.4,114.8,312.4,113,312.4,110.5z M319.5,110.5c0-1.6-1.1-2.7-2.5-2.7c-1.4,0-2.5,1-2.5,2.7s1.1,2.7,2.5,2.7
				C318.4,113.1,319.5,112.1,319.5,110.5z"/>
			<path class="st17" d="M338,110.4c0,2.8-1.2,4.4-3.1,4.4c-1,0-1.8-0.5-2-1.4c-0.6,0.9-1.6,1.4-2.9,1.4c-2.2,0-3.8-1.7-3.8-4.1
				c0-2.4,1.6-4,3.8-4c1.1,0,2,0.4,2.7,1.1v-1h1.8v5.4c0,0.8,0.4,1.1,0.8,1.1c0.9,0,1.3-1,1.3-2.9c0-3.4-2.5-5.7-6.1-5.7
				c-3.7,0-6.2,2.5-6.2,6c0,3.5,2.4,6,6.1,6c1,0,2.1-0.2,3.1-0.7l0.4,1.3c-1,0.5-2.4,0.8-3.5,0.8c-4.5,0-7.6-3.1-7.6-7.3
				c0-4.2,3.1-7.3,7.7-7.3C334.9,103.4,338,106.3,338,110.4z M332.7,110.8c0-1.6-1-2.5-2.4-2.5c-1.4,0-2.4,1-2.4,2.5
				c0,1.6,1,2.5,2.4,2.5C331.7,113.3,332.7,112.4,332.7,110.8z"/>
			<path class="st17" d="M350.2,103.5v11.2h-2.1v-4.8h-5.8v4.8h-2.1v-11.2h2.1v4.6h5.8v-4.6H350.2z"/>
			<path class="st17" d="M351.5,113.3l1.2-1.4c0.6,0.8,1.3,1.3,2.2,1.3c1.2,0,1.7-0.7,1.7-2.1v-5.8h-4v-1.7h6.1v7.4
				c0,2.6-1.3,3.9-3.8,3.9C353.5,114.9,352.2,114.3,351.5,113.3z"/>
			<path class="st17" d="M371.6,103.5v11.2h-2.1v-4.8h-5.8v4.8h-2.1v-11.2h2.1v4.6h5.8v-4.6H371.6z"/>
			<path class="st17" d="M384.8,114.7l0-7.4l-3.7,6.1h-0.9l-3.7-6.1v7.3h-2v-11.2h1.7l4.4,7.4l4.4-7.4h1.7l0,11.2H384.8z"/>
			<path class="st17" d="M397.6,111.1h-6.7c0.2,1.2,1.3,2,2.8,2c1,0,1.7-0.3,2.3-0.9l1.1,1.2c-0.8,0.9-2,1.4-3.4,1.4
				c-2.9,0-4.7-1.8-4.7-4.4s1.9-4.4,4.4-4.4c2.5,0,4.3,1.7,4.3,4.4C397.7,110.7,397.7,110.9,397.6,111.1z M390.9,109.8h4.8
				c-0.2-1.2-1.1-2.1-2.4-2.1C392.1,107.7,391.1,108.5,390.9,109.8z"/>
			<path class="st17" d="M408,102.9v11.9H406v-1.1c-0.7,0.8-1.7,1.2-2.8,1.2c-2.5,0-4.3-1.7-4.3-4.4s1.8-4.4,4.3-4.4
				c1.1,0,2.1,0.4,2.8,1.2v-4.4H408z M406,110.5c0-1.6-1.1-2.7-2.5-2.7s-2.5,1-2.5,2.7s1.1,2.7,2.5,2.7S406,112.1,406,110.5z"/>
			<path class="st17" d="M410.3,103.6c0-0.7,0.5-1.2,1.3-1.2s1.3,0.5,1.3,1.2c0,0.7-0.5,1.2-1.3,1.2
				C410.9,104.8,410.3,104.3,410.3,103.6z M410.6,106.2h2v8.5h-2V106.2z"/>
			<path class="st17" d="M414.5,110.5c0-2.6,1.9-4.4,4.6-4.4c1.7,0,3,0.7,3.7,2l-1.5,0.9c-0.5-0.8-1.3-1.2-2.1-1.2
				c-1.5,0-2.6,1-2.6,2.7c0,1.7,1.1,2.7,2.6,2.7c0.8,0,1.6-0.4,2.1-1.2l1.5,0.9c-0.7,1.3-2,2-3.7,2
				C416.4,114.8,414.5,113,414.5,110.5z"/>
			<path class="st17" d="M431.7,109.7v5h-1.9v-1c-0.5,0.7-1.4,1.2-2.7,1.2c-2,0-3.2-1.1-3.2-2.6c0-1.4,1-2.5,3.6-2.5h2.2v-0.1
				c0-1.2-0.7-1.9-2.1-1.9c-1,0-2,0.3-2.6,0.8l-0.8-1.5c0.9-0.7,2.2-1.1,3.6-1.1C430.2,106.1,431.7,107.3,431.7,109.7z M429.7,112.1
				v-1h-2.1c-1.4,0-1.7,0.5-1.7,1.1c0,0.7,0.6,1.2,1.6,1.2C428.5,113.4,429.3,112.9,429.7,112.1z"/>
			<path class="st17" d="M434.2,102.9h2v11.9h-2V102.9z"/>
			<path class="st17" d="M438.2,113.5c0-0.8,0.6-1.3,1.3-1.3c0.7,0,1.3,0.5,1.3,1.3c0,0.8-0.6,1.3-1.3,1.3
				C438.8,114.8,438.2,114.3,438.2,113.5z"/>
			<path class="st17" d="M441.9,110.5c0-2.6,1.9-4.4,4.6-4.4c1.7,0,3,0.7,3.7,2l-1.5,0.9c-0.5-0.8-1.3-1.2-2.1-1.2
				c-1.5,0-2.6,1-2.6,2.7c0,1.7,1.1,2.7,2.6,2.7c0.8,0,1.6-0.4,2.1-1.2l1.5,0.9c-0.7,1.3-2,2-3.7,2
				C443.8,114.8,441.9,113,441.9,110.5z"/>
			<path class="st17" d="M451.1,110.5c0-2.6,1.9-4.4,4.5-4.4c2.7,0,4.6,1.8,4.6,4.4c0,2.6-1.9,4.4-4.6,4.4
				C453,114.8,451.1,113,451.1,110.5z M458.1,110.5c0-1.6-1.1-2.7-2.5-2.7c-1.4,0-2.5,1-2.5,2.7s1.1,2.7,2.5,2.7
				C457.1,113.1,458.1,112.1,458.1,110.5z"/>
			<path class="st17" d="M476.4,109.8v4.9h-2v-4.6c0-1.5-0.7-2.3-1.9-2.3c-1.3,0-2.2,0.9-2.2,2.6v4.3h-2v-4.6c0-1.5-0.7-2.3-1.9-2.3
				c-1.3,0-2.2,0.9-2.2,2.6v4.3h-2v-8.5h1.9v1.1c0.6-0.8,1.6-1.2,2.8-1.2c1.2,0,2.3,0.5,2.9,1.4c0.7-0.9,1.8-1.4,3.2-1.4
				C474.9,106.1,476.4,107.3,476.4,109.8z"/>
		</g>
		<g>
			<path class="st18" d="M401.3,85.4h-37c-2.8,0-5-2.2-5-5v-26c0-2.8,2.2-5,5-5h37c2.8,0,5,2.2,5,5v26
				C406.3,83.2,404,85.4,401.3,85.4z"/>
			<polyline class="st18" points="359.3,56.8 382.8,71.4 406,56.8 			"/>
		</g>
	</g>
</g>
</svg>
