<?xml version="1.0" encoding="utf-8"?>
<!-- Generator: Adobe Illustrator 24.2.0, SVG Export Plug-In . SVG Version: 6.00 Build 0)  -->
<svg version="1.1" id="Layer_1" xmlns="http://www.w3.org/2000/svg" xmlns:xlink="http://www.w3.org/1999/xlink" x="0px" y="0px"
	 viewBox="0 0 579.1 449" style="enable-background:new 0 0 579.1 449;" xml:space="preserve">
<style type="text/css">
	.st0{fill:#E6F1FF;}
	.st1{fill:#E6F1FF;filter:url(#Adobe_OpacityMaskFilter);}
	.st2{mask:url(#mask0_1_);}
	.st3{fill:#5095FF;}
	.st4{fill:url(#Vector_4_1_);}
	.st5{fill:#FFFFFF;}
	.st6{fill:url(#Vector_12_1_);}
	.st7{fill:url(#Vector_13_1_);}
	.st8{fill:url(#Vector_14_1_);}
	.st9{fill:#292C56;}
	.st10{fill:#323364;}
	.st11{fill:#595B86;}
	.st12{fill:#85B7FF;}
	.st13{fill:#EEF7FF;}
	.st14{fill:#89B9FF;}
	.st15{fill-rule:evenodd;clip-rule:evenodd;fill:#FFFFFF;}
	.st16{fill:#6984AE;}
</style>
<g>
	<g class="side_bubble">
		<path class="st0" d="M393.3,336.4c7.6,5.6,5,22-5.8,36.7c-10.8,14.7-25.7,22.1-33.2,16.5c-7.6-5.6,2.6-16.1,13.4-30.8
			C378.5,344.1,385.8,330.9,393.3,336.4z"/>
	</g>
	<g class="superhero_bubble">
		<g id="Vector">
			<path class="st0" d="M209.5,422c97.2,0,176-78.6,176-175.5S306.7,71,209.5,71s-176,78.6-176,175.5S112.3,422,209.5,422z"/>
		</g>
		<defs>
			<filter id="Adobe_OpacityMaskFilter" filterUnits="userSpaceOnUse" x="76.7" y="141.9" width="230.9" height="282.9">
				<feColorMatrix  type="matrix" values="1 0 0 0 0  0 1 0 0 0  0 0 1 0 0  0 0 0 1 0"/>
			</filter>
		</defs>
		<mask maskUnits="userSpaceOnUse" x="76.7" y="141.9" width="230.9" height="282.9" id="mask0_1_">
			<path id="Vector_2_1_" class="st1" d="M209.6,421.3c97,0,175.6-78.6,175.6-175.6S306.6,70,209.6,70C112.6,70,34,148.6,34,245.6
				S112.6,421.3,209.6,421.3z"/>
		</mask>
		<g class="st2">
			<g id="Group">
				<g id="Group_2">
					<g id="Group_3">
						<g id="Vector_3">
							<path class="st3" d="M307.6,424.8H76.7c0.4-63.5,51.9-150.1,115.4-150.1C255.7,274.7,307.2,361.4,307.6,424.8z"/>
						</g>

							<linearGradient id="Vector_4_1_" gradientUnits="userSpaceOnUse" x1="191.0572" y1="143.102" x2="191.5132" y2="174.539" gradientTransform="matrix(1 0 0 -1 0 450)">
							<stop  offset="0" style="stop-color:#FFA09F"/>
							<stop  offset="1" style="stop-color:#FEC7C6"/>
						</linearGradient>
						<path id="Vector_4" class="st4" d="M177,258.4v30.5c0,5.5,6.5,9.9,14.5,9.9c8,0,14.5-4.5,14.5-9.9v-30.5H177z"/>
						<g id="Group_4">
							<path id="Vector_5" class="st5" d="M204.6,368.2c8.1-15.9,26-27.2,40.2-31.1c-21.2,7.9-31.3,18.8-39.2,31
								c8.2-10.3,28-25.6,41.7-31.1c-11,5.8-28.3,16.4-40.9,31c12.2-9.4,26.1-19.7,43.1-30.9c-16,12.6-30.2,22.3-42.7,31.4
								c9.3-3.9,30.2-16.9,42.2-29.3c-10.4,12.6-28.7,24.6-42.6,30c13.7-3.5,29.8-12.3,41.6-27.4c-8.1,11.6-24.1,25.1-42.1,28.3
								c18.1-0.8,40.4-17.4,45.6-34.4C233.5,334.7,210.7,350.8,204.6,368.2z"/>
							<path id="Vector_6" class="st5" d="M197.1,358c-11.3-5.3-19.5-17.7-22.6-27.6c6,14.7,13.7,21.6,22.5,26.8
								c-7.4-5.6-18.4-19.2-22.6-28.6c4.3,7.6,12.1,19.5,22.5,28.1c-6.9-8.4-14.3-17.8-22.5-29.6c9.1,11,16.2,20.8,22.8,29.3
								c-2.9-6.4-12.5-20.8-21.3-29c9.1,7.1,17.8,19.6,21.8,29.3c-2.8-9.6-9.2-20.7-20-28.7c8.3,5.5,18.1,16.4,20.7,29
								c-0.8-12.7-13-28-24.9-31.3C173.1,338.5,184.7,354.2,197.1,358z"/>
							<path id="Vector_7" class="st5" d="M217.5,345.9c1.6-8.6,8.4-16.4,14.5-20.1c-8.9,6.7-12.1,13.1-14.1,19.9
								c2.5-5.9,9.6-15.9,15.3-20.3c-4.4,4.2-11,11.6-14.9,20.2c4.4-6.1,9.5-12.8,16-20.5c-5.7,8.1-11.1,14.7-15.7,20.6
								c3.8-3.1,11.8-12.1,15.8-19.5c-3.1,7.4-10.1,15.5-15.9,19.9c5.9-3.5,12.3-9.8,15.8-18.6c-2.2,6.6-7.9,15.2-15.9,19.1
								c8.4-2.8,16.6-13.7,16.6-22.5C226.4,326.2,218,336.8,217.5,345.9z"/>
							<path id="Vector_8" class="st5" d="M179.1,348.4c-7-1.2-13.3-6.7-16.4-11.6c5.5,7.1,10.8,9.7,16.3,11.3
								c-4.9-1.9-13-7.6-16.6-12.2c3.5,3.5,9.6,8.8,16.5,11.9c-5-3.5-10.5-7.6-16.7-12.7c6.7,4.6,12,8.9,16.9,12.5
								c-2.5-3-9.9-9.5-16-12.6c6,2.5,12.7,8,16.3,12.7c-2.9-4.8-8.1-9.9-15.2-12.6c5.4,1.7,12.3,6.2,15.7,12.7
								c-2.4-6.8-11.3-13.3-18.3-13.3C163.1,341.4,171.9,348.2,179.1,348.4z"/>
							<path id="Vector_9" class="st5" d="M200.8,362c-1.6-13.9,5.4-29,13-37.5c-10.5,14.2-12.5,25.6-12.4,37
								c1-10.3,7.4-28.7,14-38.2c-4.7,8.6-11.5,22.9-13.5,37.8c4-11.4,8.6-24,15-38.7c-5,15.1-10.2,27.6-14.5,38.8
								c4.4-6.5,12.5-24,15.1-37.3c-1.4,12.7-8.3,28.3-15.1,37.8c7.4-8.1,14.3-20.8,15.6-35.8c-0.4,11.1-5,26.8-15.4,36.5
								c11.5-8.2,19.1-28.6,15.2-42C205.4,327.8,197.3,348.1,200.8,362z"/>
							<path id="Vector_10" class="st5" d="M197.6,346.1c-5.1-7.8-5.5-18.8-3.6-26.2c-1.9,11.6,0.4,19,3.8,25.7
								c-2.5-6.4-4.3-19.3-3.2-26.9c-0.2,6.5,0.1,17.1,3.4,26.6c-1.1-7.9-2.1-16.9-2.8-27.5c1.6,10.5,2.3,19.5,3.1,27.5
								c0.6-5.2,0.2-18.1-2.3-26.7c3,8,3.6,19.3,2.5,27c2-7.1,2.2-16.6-1.6-25.9c3.1,6.7,5.1,17.4,1.8,26.4
								c4.4-8.4,2.6-22.7-3.7-29.5C190.1,324.4,191.3,338.9,197.6,346.1z"/>
							<path id="Vector_11" class="st5" d="M199.9,369.1c-16.7,1.4-34.5-7.4-44.5-16.8c16.7,13,30.3,15.8,43.9,16
								c-12.3-1.5-34.1-9.8-45.3-18c10.1,5.9,27.1,14.4,44.9,17.4c-13.5-5.1-28.5-11.1-45.8-19.3c17.9,6.6,32.7,13.2,46,18.7
								c-7.6-5.5-28.3-15.8-44.1-19.3c15.2,2.1,33.7,10.8,44.8,19.3c-9.6-9.2-24.4-17.8-42.4-19.8c13.3,0.8,31.9,6.9,43.3,19.7
								c-9.5-14-33.7-23.7-49.8-19.4C159,362.5,183,372.8,199.9,369.1z"/>
						</g>
						<g id="Group_5">

								<linearGradient id="Vector_12_1_" gradientUnits="userSpaceOnUse" x1="221.6636" y1="243.9445" x2="232.5166" y2="228.0255" gradientTransform="matrix(1 0 0 -1 0 450)">
								<stop  offset="0" style="stop-color:#FFCECC"/>
								<stop  offset="1" style="stop-color:#FFA09F"/>
							</linearGradient>
							<path id="Vector_12" class="st6" d="M234.7,214.2c0.6,5.2-2.1,9.8-5.9,10.2c-3.8,0.4-7.4-3.5-8-8.7s2.1-9.8,5.9-10.2
								C230.6,205.1,234.1,209,234.7,214.2z"/>

								<linearGradient id="Vector_13_1_" gradientUnits="userSpaceOnUse" x1="146.3439" y1="235.6465" x2="157.1969" y2="219.7265" gradientTransform="matrix(1 0 0 -1 0 450)">
								<stop  offset="0" style="stop-color:#FFCECC"/>
								<stop  offset="1" style="stop-color:#FFA09F"/>
							</linearGradient>
							<path id="Vector_13" class="st7" d="M159.4,222.6c0.6,5.2-2.1,9.8-5.9,10.2c-3.8,0.4-7.4-3.5-8-8.7
								c-0.6-5.2,2.1-9.8,5.9-10.2C155.2,213.4,158.8,217.3,159.4,222.6z"/>

								<linearGradient id="Vector_14_1_" gradientUnits="userSpaceOnUse" x1="152.4348" y1="226.0719" x2="227.7859" y2="234.373" gradientTransform="matrix(1 0 0 -1 0 450)">
								<stop  offset="0" style="stop-color:#FFA09F"/>
								<stop  offset="1" style="stop-color:#FEC7C6"/>
							</linearGradient>
							<path id="Vector_14" class="st8" d="M226.3,202.3l2.1,19.3c0.3,2.4,0.3,5,0.1,7.4c-0.2,2.9-0.7,5.7-1.4,8.6
								c-4.1,15.6-20.2,32-31.1,33.2c-8.8,1-29.4-10.3-37.1-23.6c-1.1-1.8-1.9-3.6-2.8-5.5c-1.6-3.8-2.7-7.9-3.1-11.9l-2.1-19.3
								c-2.3-20.8,12.7-39.5,33.5-41.8c10.4-1.1,20.3,2.1,27.8,8.1C219.9,183,225.2,191.9,226.3,202.3z"/>
							<path id="Vector_15" class="st9" d="M227.9,210.2c0,0.4,0,0.9,0.1,1.3c0,0.1,0,0.1,0,0.2c0,0.5,0,0.9,0,1.3
								c0.1,2.8,0.1,5.2,0.3,7.2c-0.2-1.9-0.7-4.1-1.5-6.4c-0.1-0.4-0.3-0.9-0.5-1.3c0-0.1-0.1-0.2-0.1-0.4
								c-0.1-0.4-0.4-0.8-0.6-1.3c-3.7-8.4-10.9-17.1-21.8-18.5c-4.6-0.6,10.6-13.3,18.1-3.4C226.7,195.1,227.7,203.3,227.9,210.2z"
								/>
							<path id="Vector_16" class="st10" d="M248.4,164.5c2.5,43.8-79.5,24-90.1,32.7c-5.7,4.6-6.3,14.8-5.9,23.2
								c0.2-0.4,0.3,4,0.4,5.2c0.1,0.6,0.1,1.3,0.2,1.8c0.4,3.8,0.9,6.2,0.5,6.1c0,0-1-2.4-2.6-6.3c-0.2-0.6-0.4-1.1-0.6-1.7
								c-6.7-17.4-20.3-57.7-6.2-63.1c3.6-1.4,7.9-0.6,12.7,0.5c2.3-3.8,4.7-7.6,8.1-10.2c3.5-2.7,7.8-3.9,12-3.5
								c2.6,0.3,5.1,1.2,7.1,3c1.1,1,2.5,2.5,3.3,4c2.5-4,5-8,8.5-10.8c3.5-2.7,7.8-3.9,12-3.5c2.6,0.3,5.1,1.2,7.1,3
								c0.9,0.9,2.1,2,2.8,3.2C233.2,143.6,247.3,144.3,248.4,164.5z"/>
							<g id="Group_6">
								<path id="Vector_17" class="st10" d="M181.5,208.4c0,0.9-3,1.5-6.2,3.4c-3.1,1.8-5.1,4.3-5.8,3.9c-0.4-0.2-0.3-1.1,0.4-2.4
									c0.6-1.3,2-2.8,3.9-4c1.9-1.1,3.9-1.6,5.3-1.6C180.6,207.6,181.5,208,181.5,208.4z"/>
							</g>
							<g id="Group_7">
								<path id="Vector_18" class="st10" d="M199.9,208.5c0.4,0.7,3.4-0.3,7-0.2c3.6,0,6.6,1.1,7,0.4c0.2-0.4-0.4-1.1-1.6-1.8
									c-1.2-0.8-3.2-1.4-5.4-1.4c-2.2,0-4.2,0.6-5.5,1.3C200.3,207.4,199.8,208.2,199.9,208.5z"/>
							</g>
							<path id="Vector_19" class="st10" d="M180.2,226.9c1-0.1,1.6-1.9,1.3-4.1c-0.2-2.1-1.2-3.8-2.2-3.7c-1,0.1-1.6,1.9-1.3,4.1
								C178.3,225.4,179.2,227,180.2,226.9z"/>
							<path id="Vector_20" class="st10" d="M207,224c1-0.1,1.6-1.9,1.3-4.1c-0.2-2.1-1.2-3.8-2.2-3.7c-1,0.1-1.6,1.9-1.3,4.1
								C205,222.5,206,224.1,207,224z"/>
							<path id="Vector_21" class="st5" d="M215.1,252l-13.2,4.4c-5.7,1.9-11.7,2.5-17.6,1.9l-13-1.4c-2.9,0.3-5.5-2.2-5.9-5.7
								l-1.1-10.5c-0.4-3.5,1.6-6.5,4.5-6.8l13.4,1.4c5.9,0.6,12,0,17.6-1.9l12.7-4.3c2.9-0.3,5.5,2.2,5.9,5.7l1.1,10.5
								C220,248.7,218,251.7,215.1,252z"/>
							<g id="Group_8">
								<path id="Vector_22" class="st5" d="M227.9,211.4c0,0.1,0,0.1,0,0.2c0,0.5,0,0.9,0,1.3c-0.4,0.2-0.8,0.5-1.2,0.8
									c-6.5,4.9-11,18-11,18.2c-0.1,0.3-0.4,0.5-0.8,0.5c-0.1,0-0.1,0-0.1,0c-0.4-0.1-0.6-0.5-0.4-0.9c0.2-0.7,4.7-14.1,11.8-19.1
									C226.8,212.1,227.4,211.7,227.9,211.4z"/>
							</g>
							<g id="Group_9">
								<path id="Vector_23" class="st5" d="M228.6,229c-0.2,2.9-0.7,5.7-1.4,8.6c-2,3.8-4.8,7.2-8.5,9.3c-0.1,0.1-0.2,0.1-0.3,0.1
									c-0.3,0-0.6-0.1-0.7-0.4c-0.2-0.4-0.1-0.8,0.3-1C223.8,242.2,227.6,235.1,228.6,229z"/>
							</g>
							<g id="Group_10">
								<path id="Vector_24" class="st5" d="M168.3,252.1c-0.1,0.3-0.4,0.4-0.6,0.5c-0.1,0-0.2,0-0.3,0c-3.2-1.1-6-2.9-8.4-5.2
									c-1.1-1.8-1.9-3.6-2.8-5.5c2.8,4.2,6.8,7.9,11.6,9.4C168.2,251.3,168.5,251.7,168.3,252.1z"/>
							</g>
							<g id="Group_11">
								<path id="Vector_25" class="st5" d="M169.2,238.1c-0.1,0.1-0.1,0.1-0.2,0.1c-0.3,0-0.6-0.1-0.7-0.4
									c-5-11.3-14-15.3-15.7-15.9c-0.1-0.5-0.1-1-0.1-1.5c0.1,0,0.2,0,0.3,0c0.4,0.1,11,3.8,16.8,16.8
									C169.7,237.6,169.5,237.9,169.2,238.1z"/>
							</g>
						</g>
						<g id="Group_12">
							<path id="Vector_26" class="st11" d="M244.2,164.1c0,0.1,0,0.2,0,0.1c0-0.1,0-0.1,0-0.3c0-0.1,0-0.1,0-0.1c0-0.1,0-0.1,0-0.2
								C244.2,163.8,244.2,164,244.2,164.1z"/>
							<path id="Vector_27" class="st11" d="M236.6,176.6C236.7,176.5,236.7,176.5,236.6,176.6C236.6,176.5,236.6,176.6,236.6,176.6
								z"/>
							<path id="Vector_28" class="st11" d="M235.7,177.1C235.8,177,235.8,177,235.7,177.1C235.8,177,235.7,177,235.7,177.1z"/>
							<path id="Vector_29" class="st11" d="M240.6,172.5l-0.1,0.1C240.4,172.6,240.5,172.6,240.6,172.5z"/>
							<path id="Vector_30" class="st11" d="M242.7,168.6C242.7,168.7,242.7,168.7,242.7,168.6C242.7,168.7,242.7,168.7,242.7,168.6
								z"/>
							<path id="Vector_31" class="st11" d="M219.7,184.7c0.2,0.1-0.2,0.3,0.1,0.4C219.7,185,219.9,184.7,219.7,184.7z"/>
							<path id="Vector_32" class="st11" d="M230.8,180.1L230.8,180.1C230.9,180.2,230.9,180.1,230.8,180.1z"/>
							<path id="Vector_33" class="st11" d="M233.6,178.8L233.6,178.8C233.5,178.9,233.5,178.8,233.6,178.8z"/>
							<path id="Vector_34" class="st11" d="M229.6,181.1C229.5,181.1,229.5,181.1,229.6,181.1C229.5,181.1,229.6,181.1,229.6,181.1
								z"/>
							<path id="Vector_35" class="st11" d="M197.1,189.3C197,189.3,197,189.2,197.1,189.3C197.1,189.3,196.8,189.3,197.1,189.3z"/>
							<path id="Vector_36" class="st11" d="M230.2,182.5l-0.3,0.1C230.1,182.5,230.1,182.5,230.2,182.5z"/>
							<path id="Vector_37" class="st11" d="M229.3,183c-0.1-0.1-0.1-0.1-0.2-0.1c0,0,0,0,0,0.1H229.3z"/>
							<path id="Vector_38" class="st11" d="M195.3,189.4c0.3,0,0.1-0.1,0.1-0.1c0.3,0,0.1,0.1,0.2,0.1c0.2,0,0.4-0.1,0.5-0.1
								c0,0,0.1,0,0,0.1c0.2-0.1,0.6,0,0.9-0.1c-0.1-0.1-0.1-0.1-0.1-0.1c0.1,0,0.2-0.1,0.3,0c-0.1,0-0.1,0-0.1,0.1l0.1-0.1
								c0.1,0.1-0.1,0.1-0.1,0.1c0.2-0.1,0.5-0.1,0.6-0.1c0.1,0.1-0.4,0.1-0.1,0.1l-0.3-0.1c0.2,0.1-0.1,0,0,0.1
								c0.4,0.1,0.4-0.1,0.8,0c0.1-0.1,0-0.1,0.1-0.1c0.5-0.1,0.4,0.3,0.8,0.1c0.1-0.1,0.1-0.3,0.4-0.1l-0.1,0.1
								c0.4,0,0.2-0.2,0.6-0.1c-0.1,0.1-0.3,0.1-0.2,0.1c0.2,0.1,0.1-0.1,0.4-0.1l0.1,0.1c0.4,0,0.8-0.1,1.2-0.2
								c0,0.1-0.1,0.1,0,0.1c0.5-0.1,1.1-0.1,1.6,0l0.2-0.1c0.1,0,0.1,0.1,0.1,0.1c0.2,0.1,0-0.1,0.1-0.1c0.1,0,0.1,0.1,0.1,0.1
								c0.4-0.1,0.9-0.4,1.3-0.2l-0.1,0.1c0.3,0.1,0.3-0.4,0.6-0.2h-0.1c0.6,0,1.3-0.2,1.8,0c0.1-0.3,0.6,0.1,0.6-0.3
								c0.4,0.1,0.3,0.2,0.8,0.3c0.1,0,0.1-0.2,0.4-0.3v0.2l0.2-0.2l0.1,0.2l0.1-0.1c-0.1,0-0.1-0.1-0.1-0.1
								c0.2-0.1,0.6,0.1,0.6,0.1l0.6-0.2c0,0.1-0.1,0.1-0.1,0.1c0.3-0.2,0.1,0.2,0.4,0c-0.1-0.1,0-0.1,0-0.1c0.1,0.1,0.5,0.1,0.7,0
								v0.1c0.4,0,0.9-0.2,1.3-0.3c-0.2-0.1-0.2-0.3-0.1-0.4l0.1,0.2c0.1-0.1-0.1-0.1,0-0.2c0.2,0,0.1,0.2,0.1,0.3l0.2-0.1
								c0,0.1,0,0.1,0,0.2c0.1-0.1,0.4,0.1,0.5-0.1v0.1c0.5-0.1,0.6-0.2,1.1-0.3c0-0.2,0.1-0.1,0.2-0.4c0.3,0,0.6,0.1,1,0
								c0.2-0.1,0-0.1,0.1-0.3c0.1,0.1,0.4,0.1,0.2,0.2c0.4-0.1,0.5-0.1,1-0.4c-0.1-0.1-0.1-0.1-0.1-0.1c0.1-0.1,0.2,0,0.2,0.1
								c0.5-0.4,1.4,0.2,1.8-0.3l0.4-0.3c0.2,0-0.1,0.1,0.1,0.2c0.4-0.4,0.8-0.1,1.1-0.5c0.5,0.4,1.1-0.4,1.6-0.1l-0.1-0.1
								c0.1-0.1,0.1,0,0.2,0c-0.1-0.1-0.1-0.1-0.1-0.1c0.4-0.2,0.9-0.4,1.4-0.4c0.5-0.1,1-0.1,1.5-0.3c0.4-0.1,0-0.7,0.5-0.6
								l-0.1,0.3c0.6-0.5,1.4-0.6,2-1.1c0,0.1,0,0.1-0.1,0.1c0.2,0.1,0.5-0.2,0.5-0.4c0.1,0,0.1,0.1,0.1,0.1c0.2,0,0.3-0.4,0.4-0.2
								c0,0,0,0.1-0.1,0.1c0.1-0.1,0.4-0.2,0.3-0.3c0.3-0.1,0.4-0.3,0.7-0.3c0.1-0.3,0.5-0.1,0.4-0.4c0.1,0.3,0.6,0,0.6-0.2
								c0,0.1,0.1,0,0.1,0.1c0.1-0.1,0.3-0.2,0.2-0.4c0.5,0.1,0.5-0.6,0.9-0.3c0.4-0.4,0.8-0.8,1.3-1.1c0.1,0.3-0.5,0.4-0.3,0.6
								c0.4-0.4,0.5-0.8,0.9-1c0.1-0.1,0,0.1,0,0.2c0.4-0.4,0.9-0.5,1.1-0.9c0,0,0,0.1-0.1,0.1c0.1-0.1,0.2-0.1,0.1-0.2l-0.1,0.1
								c-0.2-0.1,0.1-0.5,0-0.6c0.1,0.4,0.4-0.2,0.5,0.3c0-0.1,0.1-0.1,0-0.2c0.1,0,0.1,0,0.1,0.1c0.2-0.2,0.1-0.3,0.3-0.4
								c0,0.1,0,0.1,0,0.1c0.1-0.2,0.1-0.4,0.3-0.5c0,0.1,0.1,0.1,0,0.1c0.3-0.3,0.4-0.6,0.8-0.8c0.1,0.3,0.1-0.1,0.3,0.1l0.1-0.2
								h-0.1c0.1-0.1,0.2-0.4,0.4-0.4l-0.1,0.1l0.3-0.3l-0.2,0.1c0.1-0.2-0.2-0.1,0.1-0.4c0,0.1,0.1-0.1,0.4-0.1
								c0-0.1,0.1-0.2,0.2-0.3c0.1,0,0.1,0.2,0.1,0.2c0-0.2,0.4-0.4,0.3-0.6c0,0.1,0.1,0.1,0.1,0.1v-0.1c0.1-0.1,0.1-0.1,0.1,0
								c0.2-0.2-0.2-0.1,0.1-0.3c0,0,0,0,0,0.1c0.3-0.2,0.4-0.6,0.6-0.8c0.2,0.1-0.1,0.2,0,0.3c0.3-0.4,0.5-0.9,0.8-1.2l-0.1,0.1
								c-0.1-0.2,0.3-0.2,0.4-0.4c0,0.1,0.1,0.1,0.1,0.1c0.2-0.2,0.4-0.6,0.6-1v0.1c0.1-0.1,0.3-0.4,0.4-0.6c0-0.1,0.1-0.1-0.1-0.1
								c0.6-0.4,0.5-1.1,0.9-1.4c0,0.1-0.1,0.1,0,0.1c0.1-0.1,0.1-0.3,0.2-0.4c-0.1,0-0.1,0.1-0.1,0.1c0-0.1,0-0.2,0.1-0.3
								c-0.1,0.2,0.1,0.1,0.1,0c0,0,0-0.1-0.1-0.1c0.2-0.1-0.1-0.1,0.1-0.4c0-0.1,0.1-0.2,0.1-0.4c0.1,0,0,0.1,0,0.1
								c0.1-0.1,0-0.4,0.1-0.5c0,0.1-0.1,0.2-0.1,0.3c0.1-0.1,0.1-0.1,0.2-0.3l0.1-0.3l-0.1,0.1c-0.1-0.3,0.1-0.4,0.2-0.8
								c0,0.3,0.1,0.1,0.1,0.1c0.1-0.1,0.1-0.1,0.1-0.1c0-0.1,0.1-0.2,0.1-0.4c0,0,0.1-0.1,0.1-0.1c0.1-0.2-0.1,0-0.1,0
								c0-0.3,0.3-0.6,0.3-1.1c0.1-0.4,0.1-0.4,0.1-0.8c0.1-0.1,0,0.1,0,0.1c0.1-0.1,0.1-0.3,0.1-0.5c0,0.1,0,0,0.1-0.1
								c0-0.1,0-0.1,0-0.3c0,0,0,0.1,0,0.1c0-0.1,0.1-0.4,0.1-0.5c0-0.1,0,0.1,0,0.1c0-0.2,0.1-0.5,0.1-0.6v0.1c0-0.1,0,0,0,0
								c0,0.1-0.1,0.2-0.1,0.2v-0.1c-0.1,0.1-0.1,0.5-0.1,0.7V165v0.3c0,0.1-0.1,0.1-0.1-0.1c-0.1,0.1,0,0.1-0.1,0.3v0.1
								c0-0.1-0.1,0,0-0.1c-0.1,0.3-0.1,0.5-0.2,0.6c-0.1,0.4,0,0.1,0,0.4l-0.2,0.1l0.1,0.1c0,0.1-0.1,0.1-0.1,0.1
								c0,0.1,0,0,0.1,0.1c-0.1,0.2-0.1,0.6-0.3,0.6c0,0.1,0.1-0.1,0.1,0.1c-0.1,0-0.1,0.3-0.1,0.4c-0.1-0.1,0.1-0.2-0.1-0.1
								c0.1,0.1-0.1,0.4-0.2,0.5c0.1,0.1-0.1,0.4-0.2,0.6c0,0-0.3,0.4-0.4,0.6c0.1,0.1-0.1,0.3-0.1,0.5c-0.1-0.1-0.1-0.1-0.1-0.2
								l-0.1,0.1c0,0.1,0,0.1-0.1,0.2l-0.1-0.1c-0.1,0.2-0.1,0.4-0.4,0.7c0.1,0.1,0.4-0.1,0.2,0.2c-0.1,0-0.1-0.1-0.1-0.1
								c0,0,0,0.1-0.1,0.1v-0.1c-0.1,0.1,0,0.1-0.1,0.2c-0.1-0.1-0.1,0.1-0.1,0c0,0,0.1-0.1,0.1-0.1c-0.1,0.1-0.2,0.2-0.3,0.2
								c0.1,0,0.1,0.1,0.1,0.1c-0.1,0.2-0.1,0-0.2,0.1c0,0.1-0.1,0.1,0,0.2c-0.1,0.1-0.1,0.1-0.1,0.1c0,0.1-0.3,0.5-0.1,0.4
								c-0.1,0.4-0.6,0.6-0.8,0.9c-0.1,0.2-0.3,0.4-0.4,0.6c-0.1,0.1-0.1,0.1-0.2,0c-0.1,0.1-0.1,0.2-0.3,0.4c0.1-0.2-0.1,0,0.1-0.1
								c-0.2,0.1-0.3,0.1-0.4,0.4c0-0.1-0.2,0-0.3,0.1l0.2-0.1c-0.1,0.1-0.1,0.1-0.2,0.2l-0.1-0.1c-0.5,0.2-0.4,0.9-0.9,0.9
								c0,0.1,0.2-0.1,0.3,0.1c-0.1,0.1-0.5,0.1-0.6,0.1c-0.3,0.1-0.1,0.4-0.4,0.5c0.1,0,0.2,0.1,0.1,0.4c-0.2,0.1-0.4,0-0.3-0.1
								c0.1-0.1,0.1-0.1,0.1,0c0.1-0.1,0.1-0.1,0-0.1v0.1c-0.1,0-0.4,0.2-0.4,0.1c-0.1,0.1,0,0.1,0.1,0.1c-0.3,0.1-0.4,0.3-0.6,0.4
								c0.1,0,0.1,0,0.1,0.1c-0.4,0.2-0.1,0.2-0.3,0.4c-0.2,0-0.1-0.2-0.3,0c-0.2,0.1-0.1-0.1-0.1-0.2c-0.1,0.3-0.4,0.2-0.6,0.3
								l0.1-0.1c-0.1,0.1-0.1,0.1-0.1,0.1l0.1,0.1c-0.1,0-0.1,0.1-0.1,0c0,0.1,0.2,0.1,0.1,0.4c-0.1,0-0.2,0.3-0.4,0.1
								c0.3-0.1-0.1-0.1,0.1-0.4c0,0.1-0.1,0.1-0.1,0.1v-0.1c-0.4,0.1,0,0.3-0.3,0.4c0-0.1-0.2-0.1-0.2-0.1c0.1-0.1,0.1,0.1,0.1,0.3
								c-0.2,0.1-0.1,0.2-0.3,0.2l0.1-0.1c0,0.1-0.1,0.1-0.2,0.3c-0.1-0.1,0.1-0.1,0-0.1c-0.1,0.3-0.4,0.1-0.6,0.3
								c-0.1,0-0.1-0.1-0.2-0.1c-0.1,0.3-0.4,0-0.5,0.3c0.1,0.1,0.1,0.1,0.1,0.3l0.4-0.4l-0.1,0.4c0.1-0.1,0.2-0.2,0.3-0.3
								c-0.1,0.1-0.1,0.1,0.1,0.2c-0.3-0.1-0.2,0.3-0.5,0.3l-0.2-0.4c-0.4,0-0.4,0.5-0.8,0.6h0.1c0,0.1-0.2,0.1-0.3,0.3
								c-0.1-0.1-0.1-0.1-0.2-0.1c0.1,0.1-0.3,0.1-0.2,0.4l-0.3-0.1c-0.4,0.1-0.1,0.5-0.5,0.6c0-0.1-0.1-0.2,0-0.4
								c-0.1,0.1-0.2,0.1-0.1,0.1c-0.1-0.1-0.2,0.3-0.4,0.2c0,0.1,0,0.2-0.1,0.2v-0.1c0,0.1-0.1,0.1,0,0.2c-0.5-0.2-0.8,0.4-1.3,0.2
								c-0.2,0.1-0.4,0.3-0.6,0.4c0-0.1,0-0.1,0-0.1c-0.4,0,0,0.4-0.4,0.4c-0.3-0.1,0.1-0.2,0-0.2c-0.2-0.4-0.4,0.2-0.7,0.1l0.1-0.1
								c-0.2-0.1-0.4,0.4-0.6,0.4v-0.1c-0.1,0.3-0.4,0.5-0.6,0.6c0-0.2,0.1-0.1,0-0.3c-0.1,0.1,0.1,0.3-0.1,0.4
								c-0.1-0.1-0.3-0.1-0.4-0.3l0.2-0.1c-0.2-0.2-0.3,0.1-0.4,0.1v-0.1c-0.4,0.1-0.2,0.4-0.6,0.5l0.1,0.1
								c-0.1,0.4-0.2-0.1-0.4,0.2l-0.1-0.2c-0.1,0.1-0.4,0.4-0.6,0.6c0.1-0.2,0.3-0.4,0.4-0.6c-0.1,0.1-0.4,0.2-0.4,0.4
								c0.1-0.1,0.1-0.1,0.1-0.1c-0.1,0.3-0.3,0.4-0.5,0.5c-0.1-0.5-0.7,0.1-1.1-0.3c-0.4,0.4-0.9,0.2-1.5,0.4
								c0.3,0.4-0.1,0.1,0,0.5c-0.1,0.1-0.1,0.1-0.2,0.1l-0.4-0.1c-0.1-0.1,0.1-0.1,0.1-0.2c-0.3,0.1-0.1-0.1-0.4-0.2
								c0.1,0.1-0.1,0.2-0.2,0.2l0.3,0.1c-0.4,0.4-0.4-0.3-0.8,0.1l0.1-0.1c-0.2,0.1-0.7,0.2-0.8,0.6c-0.1-0.1-0.1-0.1-0.1-0.2
								c-0.5,0.1-1,0.6-1.4,0.5V185c-0.1,0.1-0.1,0.2-0.3,0.1c0-0.1,0-0.1,0-0.1c-0.1,0.1-0.2,0.2-0.4,0.2l0.1-0.1
								c-0.5,0-0.6,0.4-1.1,0.6c-0.1-0.3-0.4-0.3-0.6-0.3v-0.1c-0.6,0.1-0.9,0.4-1.4,0.6c-0.4-0.2-1.1,0.1-1.6,0
								c0.1,0,0,0.2-0.1,0.3c-0.1,0-0.3,0.3-0.4,0h0.1c-0.1-0.2-0.4-0.1-0.6-0.1v0.4c-0.6-0.4-1.3,0.4-1.6,0
								c-0.1,0.1-0.3,0.1-0.4,0.2v-0.1c-0.4,0-0.5,0-0.9,0.1l0.1-0.1c-0.2,0-0.2,0.5-0.5,0.6l-0.1-0.2c-0.4,0.1-0.8-0.1-1.3,0.2
								c0,0,0-0.1,0.1-0.1c-0.2,0-0.8-0.1-0.7,0.3c0-0.2-0.4,0.1-0.6,0.1v-0.1c-0.1,0.2-0.1,0.3-0.4,0.4c-0.1,0-0.1-0.1,0-0.1
								c-0.2-0.1-0.1,0.1-0.4,0.1l0.1-0.1c-0.2,0-0.2,0.1-0.3,0.1c-0.1,0.1-0.4,0-0.4-0.1c0,0.1-0.1,0.2-0.3,0.1
								c0-0.1,0-0.1,0.1-0.1c-0.4-0.1-0.5,0.2-0.8,0.1c0-0.1,0-0.1-0.1-0.1c0.3,0,0.5-0.1,0.5,0c0-0.1-0.2-0.1-0.1-0.3
								c-0.2,0.1-0.5,0.4-0.7,0.3c0,0,0,0,0-0.1c-0.1,0-0.1,0-0.1,0s-0.1,0-0.2,0c0-0.1-0.3,0-0.4,0c0,0.1-0.1,0.1,0,0.2
								c0,0,0,0,0.1,0h0.1c0.1,0,0.1,0,0.3-0.1c-0.1,0.1-0.2,0.1-0.3,0.1c-0.1,0.1-0.1,0.1-0.1,0.2c-0.1-0.1-0.5-0.2-0.6-0.3
								c-0.4,0.1-0.8,0.1-1.1,0.4c-0.1,0-0.1-0.1-0.1-0.1c0.1,0,0.1,0,0.1-0.1c-0.2,0.1-0.6,0.1-0.6,0.2c-0.3-0.1,0.1-0.1-0.2-0.1
								l0.1-0.1c-0.7-0.1-1.1,0.4-1.9,0.2c0.1,0,0.1,0,0.1,0c-0.9,0-1.8,0.1-2.7,0.1c-0.2,0-0.3,0.1-0.4,0.1l-0.1-0.1l-0.3,0.1
								c-0.4,0-0.6-0.1-1.1,0h0.1c-0.1,0-0.5,0-0.5,0s-0.1,0-0.1,0h-0.4c-0.3,0,0.1,0-0.4,0c-0.1,0-0.5,0-0.4,0c0.1,0,0.1,0,0.2,0
								h-0.1c0,0-0.1,0,0.2,0h0.3h0.1h-0.2c0.1,0,0.2,0,0.3,0c0,0,0.1,0,0.1,0h0.3c0,0-0.1,0,0.1,0c0.1,0-0.1,0,0.1,0
								c0.1,0,0.1,0,0.2,0c0,0,0,0-0.1,0c0.1,0,0.4,0,0.4,0c0.1,0,0.4,0,0.4,0.1c0.1,0,0.2,0,0.4,0c-0.2,0.1,0.5,0,0.4,0.1
								c0.1-0.1,0.6,0,0.9-0.1h-0.1c0.1,0,0.2,0.1,0.4,0.1c0-0.1,0.3-0.1,0.4-0.1c0.2,0.1-0.1,0.1-0.1,0.1c0-0.1,0.4-0.1,0.3-0.1
								c0.1,0.1,0.1,0,0.2,0.1c0-0.1,0.1,0,0.3-0.1c0.2,0.1,0.1,0.1,0.3,0.1C195.5,189.3,195.3,189.4,195.3,189.4z M201.2,189
								c-0.1,0-0.1,0-0.1,0C201,189,201.1,189,201.2,189z M201.7,189c-0.1,0-0.1,0-0.2,0c0-0.1,0-0.1,0.1-0.1
								C201.5,188.9,201.5,188.9,201.7,189z M200.5,188.2c0.1,0,0.1,0,0.1,0C200.6,188.2,200.5,188.2,200.5,188.2z"/>
							<path id="Vector_39" class="st11" d="M240.6,172.4C240.6,172.5,240.6,172.4,240.6,172.4C240.6,172.5,240.6,172.4,240.6,172.4
								z"/>
							<path id="Vector_40" class="st11" d="M242.7,169.2l0.1-0.1C242.8,169.2,242.7,169.2,242.7,169.2z"/>
							<path id="Vector_41" class="st11" d="M234.2,179.7C234.2,179.9,234.2,179.8,234.2,179.7L234.2,179.7z"/>
							<path id="Vector_42" class="st11" d="M237.4,176.7c0,0.1,0,0.1-0.1,0.1C237.4,176.8,237.4,176.7,237.4,176.7z"/>
							<path id="Vector_43" class="st11" d="M237.2,176.9c0.1,0,0.1-0.1,0.1-0.1C237.3,176.9,237.2,176.9,237.2,176.9z"/>
							<path id="Vector_44" class="st11" d="M243.8,166.1c0-0.1,0.1-0.2,0.1-0.4C244,165.8,243.9,166,243.8,166.1z"/>
							<path id="Vector_45" class="st11" d="M243.2,167.5l0.1-0.3c-0.1,0.1-0.1,0.1-0.1,0C243,167.5,243.3,167.1,243.2,167.5z"/>
							<path id="Vector_46" class="st11" d="M242.8,168.4C242.9,168.2,242.7,168.4,242.8,168.4C242.7,168.4,242.7,168.4,242.8,168.4
								z"/>
							<path id="Vector_47" class="st11" d="M239.2,174L239.2,174C239.1,174,239.1,174,239.2,174z"/>
							<path id="Vector_48" class="st11" d="M238.8,175.4h0.1l-0.1-0.1L238.8,175.4z"/>
							<path id="Vector_49" class="st11" d="M237.6,175.3L237.6,175.3l-0.1,0.1L237.6,175.3z"/>
							<path id="Vector_50" class="st11" d="M228.3,181.6l0.1,0.2C228.5,181.7,228.4,181.4,228.3,181.6z"/>
							<path id="Vector_51" class="st11" d="M223.9,183.6c-0.1-0.1-0.2-0.1-0.3,0C223.7,183.6,223.8,183.7,223.9,183.6z"/>
							<path id="Vector_52" class="st11" d="M209.5,186.9l0.1-0.1L209.5,186.9L209.5,186.9z"/>
						</g>
						<g id="Group_13">
							<path id="Vector_53" class="st12" d="M212.4,292.4l-0.1,0.1L212.4,292.4z"/>
							<path id="Vector_54" class="st12" d="M212.2,292.8c0,0.1-0.1,0.1,0,0.1C212.2,292.9,212.2,292.9,212.2,292.8
								c0.1-0.1,0.1-0.1,0.1-0.1c0-0.1,0-0.1,0.1-0.1C212.3,292.6,212.3,292.7,212.2,292.8C212.2,292.9,212.2,292.8,212.2,292.8z"/>
							<path id="Vector_55" class="st12" d="M207.5,298.3l-0.1,0.1C207.5,298.3,207.5,298.3,207.5,298.3z"/>
							<path id="Vector_56" class="st12" d="M210,295.8c0,0,0,0.1,0.1,0.1C210,295.9,210,295.9,210,295.8
								C210,295.8,210,295.8,210,295.8z"/>
							<path id="Vector_57" class="st12" d="M189.8,303.6c0.1,0.2-0.2,0.2,0,0.4C189.7,303.9,189.9,303.7,189.8,303.6z"/>
							<path id="Vector_58" class="st12" d="M211.8,293.7C211.7,293.8,211.7,293.8,211.8,293.7L211.8,293.7z"/>
							<path id="Vector_59" class="st12" d="M197.8,303L197.8,303C197.8,303,197.8,303,197.8,303C197.8,303,197.8,302.9,197.8,303z"
								/>
							<path id="Vector_60" class="st12" d="M173.6,297.3C173.6,297.2,173.6,297.2,173.6,297.3C173.6,297.3,173.4,297.1,173.6,297.3
								z"/>
							<path id="Vector_61" class="st12" d="M198.2,304.4H198C198.1,304.5,198.1,304.4,198.2,304.4z"/>
							<path id="Vector_62" class="st12" d="M197.3,304.6c-0.1-0.1-0.1-0.1-0.1-0.1c0,0,0,0,0,0.1H197.3z"/>
							<path id="Vector_63" class="st12" d="M172.6,296.2c0.1,0.1,0.1,0,0.2,0c0.1,0.1,0,0.1,0,0.2c0.1,0.1,0.2,0.1,0.3,0.2
								c0,0,0,0.1,0,0c0.1,0.1,0.3,0.4,0.5,0.4c0,0,0,0,0,0.1c0-0.1,0.1-0.1,0.1-0.1c0.1,0.1,0.1,0.1,0.1,0.1c0-0.1-0.1,0-0.1,0
								l0.1,0.1c0,0.1-0.1-0.1-0.1,0c0.1,0.1,0.4,0.2,0.4,0.4c-0.1,0.1-0.2-0.2-0.2,0l-0.1-0.2c0,0.2-0.1-0.1-0.1,0.1
								c0.1,0.2,0.2,0.2,0.4,0.4c0.1,0,0.1-0.1,0.1-0.1c0.4,0.2,0,0.4,0.3,0.6c0.1,0,0.2-0.1,0.4,0.1l-0.1,0.1
								c0.2,0.2,0.3-0.1,0.4,0.2c-0.1,0-0.2-0.1-0.1-0.1c0.1,0.2,0.1,0,0.3,0.1l-0.1,0.1c0.2,0.2,0.6,0.4,0.8,0.5
								c-0.1,0-0.1,0-0.1,0.1c0.4,0.2,0.6,0.6,0.9,0.9h0.2v0.1c0.1,0.1,0.1-0.1,0.1-0.1c0.1,0.1,0.1,0.1,0,0.1
								c0.3,0.1,0.8,0.3,0.9,0.6H178c0.1,0.2,0.4-0.1,0.5,0.1h-0.1c0.4,0.3,0.9,0.5,1.1,0.9c0.1-0.1,0.4,0.4,0.6,0.1
								c0.1,0.3,0.1,0.3,0.4,0.6c0.1,0.1,0.2-0.1,0.4-0.1l-0.3,0.1l0.2-0.1v0.2h0.1c-0.1,0-0.1-0.1,0-0.1c0.2,0,0.4,0.4,0.4,0.4
								l0.5,0.1c-0.1,0.1-0.1,0.1-0.2,0.1c0.3-0.1-0.1,0.2,0.2,0.1c0-0.1,0.1-0.1,0.1-0.1c0.1,0.1,0.3,0.2,0.5,0.3l-0.1,0.1
								c0.3,0.1,0.7,0.2,1.1,0.3c-0.1-0.1,0-0.4,0.1-0.3v0.2c0.1-0.1-0.1-0.1,0.1-0.2c0.1,0.1,0,0.3-0.1,0.3h0.2
								c0,0.1-0.1,0.1-0.1,0.1c0.1-0.1,0.2,0.3,0.4,0.1v0.1c0.4,0.1,0.6,0.1,0.9,0.1c0.1-0.2,0.1-0.1,0.3-0.2
								c0.2,0.1,0.4,0.3,0.7,0.4c0.2-0.1,0.1-0.1,0.2-0.2c0,0.1,0.2,0.2,0.1,0.3c0.4,0.1,0.4,0.1,0.9,0c0-0.1-0.1-0.1-0.1-0.1
								c0.1,0,0.1,0.1,0.1,0.1c0.5-0.2,1,0.6,1.4,0.4l0.4-0.1c0.1,0.1-0.1,0.1,0,0.3c0.4-0.2,0.6,0.1,1-0.1c0.2,0.6,0.9,0,1.3,0.3
								v-0.1c0.1-0.1,0.1,0.1,0.2,0.1c0-0.1-0.1-0.1-0.1-0.2c0.8-0.1,1.6,0.1,2.4,0.1c0.3,0,0.1-0.6,0.5-0.4l-0.1,0.2
								c0.3-0.1,0.6-0.2,0.9-0.2c0.3-0.1,0.6-0.1,0.8-0.3c0,0.1,0,0.1-0.1,0.1c0.1,0.1,0.4-0.1,0.4-0.2c0.1,0,0.1,0.1,0.1,0.1
								c0.1,0.1,0.3-0.3,0.4-0.1c0,0,0,0.1-0.1,0.1c0.1-0.1,0.4-0.1,0.3-0.2c0.2,0.1,0.4-0.1,0.6-0.1c0.1-0.2,0.4,0,0.4-0.3
								c0.1,0.3,0.4,0.1,0.5-0.1c0,0.1,0.1,0.1,0.1,0.2c0.1-0.1,0.3-0.1,0.2-0.3c0.4,0.3,0.5-0.4,0.8-0.1c0.4-0.3,0.8-0.5,1.1-0.7
								c0.1,0.3-0.4,0.2-0.3,0.5c0.4-0.3,0.4-0.6,0.8-0.6c0.1,0,0,0.1,0,0.2c0.4-0.3,0.7-0.3,1-0.6c0,0,0,0.1-0.1,0.1
								c0.1,0,0.1,0,0.1-0.1l-0.1,0.1c-0.1-0.1,0.1-0.4,0.1-0.6c0.1,0.4,0.4-0.1,0.4,0.4c0-0.1,0.1-0.1,0-0.2c0.1,0,0.1,0,0.1,0.1
								c0.2-0.1,0.1-0.3,0.3-0.4c0,0.1,0,0.1,0,0.1c0.1-0.1,0.1-0.3,0.3-0.4c0,0.1,0.1,0.1,0,0.1c0.3-0.1,0.4-0.5,0.7-0.6
								c0,0.3,0.1,0,0.3,0.2l0.1-0.1l-0.1-0.1c0.1-0.1,0.2-0.3,0.4-0.3l-0.1,0.1l0.2-0.2h-0.2c0.1-0.2-0.1-0.2,0.1-0.3
								c0,0.1,0.1-0.1,0.3,0c0.1-0.1,0.1-0.2,0.2-0.2c0.1,0.1,0.1,0.2,0.1,0.2c0-0.2,0.3-0.2,0.3-0.4c0,0.1,0.1,0.1,0.1,0.1v-0.1
								c0.1,0,0.1,0,0.1,0.1c0.2-0.1-0.2-0.1,0.1-0.2c0,0,0,0,0,0.1c0.3-0.1,0.4-0.4,0.6-0.5c0.1,0.1-0.1,0.1,0,0.2
								c0.3-0.3,0.5-0.6,0.8-0.8H207c-0.1-0.2,0.3-0.1,0.4-0.3c0,0.1,0.1,0.1,0,0.1c0.2-0.1,0.4-0.4,0.6-0.6v0.1
								c0.1-0.1,0.3-0.2,0.4-0.3c0-0.1,0.1-0.1,0-0.1c0.5-0.1,0.5-0.8,1-0.8c0,0.1-0.1,0.1,0,0.1l0.2-0.3c-0.1,0-0.1,0-0.1,0
								c0-0.1,0.1-0.1,0.1-0.2c-0.1,0.1,0.1,0.1,0.1,0.1c0,0,0-0.1-0.1-0.1c0.2-0.1-0.1-0.1,0.1-0.3c0.1-0.1,0.1-0.2,0.1-0.3
								c0.1,0-0.1,0.1,0,0.1c0.1-0.1,0.1-0.3,0.2-0.4c0,0.1-0.1,0.1-0.1,0.2c0.1-0.1,0.1-0.1,0.2-0.1l0.2-0.1h-0.1
								c0-0.3,0.2-0.3,0.3-0.6c-0.1,0.3,0,0.1,0.1,0.1c0.1-0.1,0.1-0.1,0.1-0.1c0-0.1,0.1-0.1,0.2-0.3l0.1-0.1c0.1-0.1-0.1,0-0.1,0
								c0.1-0.2,0.4-0.4,0.5-0.7c0.1-0.3,0.1-0.4,0.2-0.6c0.1-0.1,0,0.1,0,0.1c0.1-0.1,0.1-0.2,0.2-0.4c0,0,0,0,0.1,0
								c0.1-0.1,0-0.1,0.1-0.2c0,0,0,0.1,0,0.1c0.1-0.1,0.1-0.2,0.1-0.4c0,0,0,0.1,0,0.1c0.1-0.1,0.1-0.4,0.1-0.4l-0.1,0.1
								c0-0.1,0,0,0,0c-0.1,0.1-0.1,0.1-0.1,0.1l0.1-0.1c-0.1,0.1-0.2,0.4-0.3,0.5v-0.1l-0.1,0.2c0,0-0.1,0.1,0-0.1
								c-0.1,0.1-0.1,0.1-0.1,0.2l-0.1,0.1c0,0-0.1,0,0-0.1c-0.1,0.2-0.2,0.4-0.3,0.4c-0.1,0.3,0,0.1-0.1,0.3l-0.2,0.1v0.1l-0.1,0.1
								c-0.1,0.1,0,0,0,0.1c-0.1,0.1-0.3,0.4-0.4,0.4c0,0.1,0.1-0.1,0.1,0.1c-0.1,0-0.1,0.1-0.2,0.3c0-0.1,0.1-0.1-0.1-0.1
								c0,0.1-0.2,0.2-0.3,0.3c0.1,0.1-0.1,0.2-0.3,0.4c0,0-0.3,0.3-0.5,0.4c0.1,0.1-0.1,0.2-0.2,0.4c-0.1-0.1-0.1-0.1,0-0.1
								l-0.1,0.1c0,0.1,0,0.1-0.1,0.1L209,297c-0.1,0.1-0.2,0.4-0.4,0.4c0.1,0.1,0.3,0.1,0.1,0.3c-0.1,0-0.1-0.1-0.1-0.1
								c0,0,0,0.1-0.1,0.1v-0.1c-0.1,0.1,0,0.1-0.1,0.1c-0.1-0.1-0.1,0-0.1-0.1c0,0,0.1,0,0.1-0.1c-0.1,0.1-0.2,0.1-0.3,0.1
								c0,0,0.1,0.1,0,0.1c-0.1,0.1-0.1,0-0.2,0c0,0.1-0.1,0.1-0.1,0.2c-0.1,0.1-0.1,0-0.1,0c-0.1,0.1-0.4,0.3-0.1,0.3
								c-0.1,0.3-0.6,0.4-0.8,0.6c-0.1,0.1-0.3,0.3-0.4,0.4c-0.1,0-0.1,0-0.1-0.1c-0.1,0.1-0.1,0.1-0.3,0.2c0.1-0.1-0.1,0,0.1-0.1
								c-0.1,0.1-0.3,0-0.4,0.3c0-0.1-0.2-0.1-0.3,0h0.1c-0.1,0.1-0.1,0.1-0.2,0.1l-0.1-0.1c-0.4,0.1-0.4,0.6-0.8,0.5
								c0,0.1,0.2,0,0.2,0.1c-0.1,0.1-0.4-0.1-0.5,0c-0.3,0-0.1,0.4-0.3,0.4c0.1,0.1,0.1,0.1,0.1,0.3c-0.1,0.1-0.3-0.1-0.3-0.2h0.1
								c0.1-0.1,0.1-0.1,0-0.1v0.1c-0.1,0-0.3,0.1-0.3,0c-0.1,0.1,0,0.1,0.1,0.1c-0.2,0-0.3,0.1-0.5,0.2c0.1,0,0.1,0.1,0.1,0.1
								c-0.4,0.1-0.1,0.1-0.3,0.3c-0.1-0.1-0.1-0.2-0.2-0.1c-0.1,0-0.1-0.1-0.1-0.2c-0.1,0.2-0.4,0.1-0.5,0.1l0.1-0.1
								c-0.1,0.1-0.1,0.1-0.1,0.1l0.1,0.1c-0.1,0-0.1,0-0.1,0c0,0.1,0.1,0.2,0.1,0.4c-0.1,0-0.2,0.2-0.3,0c0.3-0.1-0.1-0.1,0.1-0.3
								c0,0.1-0.1,0.1-0.1,0.1v-0.1c-0.3-0.1,0,0.2-0.3,0.4c0-0.1-0.1-0.1-0.1-0.1c0.1-0.1,0.1,0.1,0.1,0.3c-0.2,0-0.1,0.1-0.2,0.1
								h0.1c0,0.1-0.1,0.1-0.1,0.2c-0.1-0.1,0.1-0.1,0-0.1c-0.1,0.2-0.4-0.1-0.5,0.1c-0.1-0.1-0.1-0.2-0.1-0.2
								c-0.1,0.2-0.3-0.1-0.4,0.1c0.1,0.1,0.1,0.1,0,0.3l0.3-0.2l-0.1,0.3c0.1,0,0.2-0.1,0.2-0.1c-0.1,0.1-0.1,0.1,0,0.2
								c-0.2-0.1-0.2,0.2-0.4,0.1L200,302c-0.3-0.1-0.4,0.4-0.7,0.4c0.1,0,0.1,0,0.1,0c0,0.1-0.2,0.1-0.3,0.1c0-0.1-0.1-0.1-0.1-0.2
								c0,0.1-0.2,0.1-0.2,0.3l-0.2-0.1c-0.3,0-0.2,0.4-0.4,0.5c0.1-0.1-0.1-0.2,0.1-0.4c-0.1,0-0.1,0-0.1,0.1
								c-0.1-0.1-0.2,0.2-0.3,0.1c0,0.1,0,0.2-0.1,0.2v-0.1c0,0.1-0.1,0.1,0,0.2c-0.4-0.4-0.7,0.2-1-0.1c-0.1,0.1-0.4,0.1-0.6,0.2
								c0-0.1,0-0.1,0-0.1c-0.3-0.1-0.1,0.4-0.4,0.3c-0.1-0.2,0.1-0.1,0-0.2c-0.1-0.4-0.3,0.1-0.5-0.1h0.1c-0.1-0.1-0.3,0.2-0.5,0.2
								v-0.1c-0.1,0.3-0.4,0.4-0.6,0.4c0.1-0.2,0.1-0.1,0-0.3c-0.1,0,0.1,0.3-0.1,0.4c-0.1-0.1-0.2-0.1-0.3-0.4h0.2
								c-0.1-0.2-0.2,0-0.4,0v-0.1c-0.3,0.1-0.3,0.4-0.6,0.4l0.1,0.1c-0.1,0.3-0.1-0.1-0.3,0.1l-0.1-0.3c-0.1,0.1-0.4,0.3-0.6,0.4
								c0.1-0.2,0.3-0.4,0.4-0.5c-0.1,0-0.4,0.1-0.4,0.2c0.1,0,0.1-0.1,0.1-0.1c-0.1,0.2-0.3,0.4-0.5,0.4c0-0.6-0.6-0.1-0.7-0.6
								c-0.4,0.2-0.7-0.1-1.2-0.1c0.1,0.4-0.1,0-0.1,0.4c-0.1,0-0.1,0-0.1,0l-0.3-0.3c-0.1-0.1,0.1-0.1,0.1-0.2
								c-0.2,0-0.1-0.2-0.2-0.3c0,0.1-0.1,0.2-0.2,0.1c0.1,0.1,0.1,0.1,0.1,0.2c-0.4,0.2-0.2-0.4-0.6-0.2l0.1-0.1
								c-0.1,0.1-0.6-0.1-0.8,0.3c0-0.1-0.1-0.1,0-0.2c-0.4-0.1-0.9,0.3-1.1,0l0.1-0.1c-0.1,0-0.1,0.2-0.2,0.1c0-0.1,0.1-0.1,0-0.1
								c-0.1,0.1-0.2,0.1-0.3,0.1l0.1-0.1c-0.4-0.2-0.6,0.1-0.9,0.1c0.1-0.3-0.2-0.4-0.4-0.5v-0.1c-0.4-0.1-0.8,0.1-1.2,0.1
								c-0.1-0.4-0.8-0.4-1.1-0.6c0.1,0.1-0.1,0.2-0.1,0.2c-0.1-0.1-0.3,0.1-0.2-0.1c0-0.3-0.2-0.3-0.4-0.3l-0.1,0.3
								c-0.2-0.6-1-0.3-1.1-0.7c-0.1,0-0.2,0-0.4,0l0.1-0.1c-0.2-0.1-0.4-0.2-0.6-0.4l0.1-0.1c-0.1-0.1-0.4,0.3-0.6,0.2l0.1-0.2
								c-0.3-0.1-0.5-0.5-0.9-0.4c0,0,0.1-0.1,0.1-0.1c-0.1-0.1-0.4-0.4-0.6-0.1c0.1-0.1-0.3-0.2-0.4-0.2l0.1-0.1
								c-0.2,0.1-0.3,0.1-0.4,0c0-0.1,0-0.1,0.1-0.1c-0.1-0.1-0.2,0-0.3-0.1h0.1c-0.1-0.1-0.1-0.1-0.3,0c-0.1,0-0.2-0.2-0.2-0.3
								c-0.1,0.1-0.2,0.1-0.3,0c0-0.1,0.1-0.1,0.1-0.1c-0.1-0.2-0.4-0.1-0.5-0.4v-0.1c0.1,0.1,0.3,0.3,0.3,0.3
								c0.1-0.1-0.1-0.2,0.1-0.3c-0.1,0-0.5,0-0.6-0.1c0,0,0,0,0-0.1l-0.1-0.1c0-0.1-0.1-0.1-0.1-0.1c0.1-0.1-0.1-0.1-0.2-0.2
								c-0.1,0.1-0.1,0-0.1,0.1c0,0,0,0,0.1,0c0,0,0,0,0.1,0c0.1,0.1,0.1,0.1,0.2,0.1c-0.1,0-0.2,0-0.2-0.1c-0.1,0-0.2,0.1-0.2,0.1
								c0-0.2-0.1-0.4-0.1-0.5c-0.2-0.1-0.5-0.4-0.8-0.4c-0.1-0.1,0-0.1,0-0.1c0.1,0,0.1,0.1,0.1,0.1c-0.1-0.1-0.4-0.3-0.5-0.2
								c-0.1-0.1,0.1,0-0.1-0.2h0.1c-0.2-0.5-0.8-0.4-1.1-1.1c0,0.1,0,0.1,0,0.1c-0.4-0.6-1-1.1-1.3-1.6c-0.1-0.1-0.1-0.1-0.2-0.2
								V294l-0.1-0.1c-0.2-0.2-0.2-0.4-0.4-0.7v0.1c-0.1-0.1-0.2-0.4-0.2-0.4s0,0-0.1-0.1l-0.1-0.3c-0.1-0.2,0.1,0-0.1-0.3
								c-0.1-0.1-0.2-0.4-0.1-0.3c0,0,0,0.1,0.1,0.1l-0.1,0.4c0,0-0.1-0.1,0.1,0.1l0.1,0.2v0.1l-0.1-0.1c0,0.1,0.1,0.1,0.1,0.2v0.1
								l0.1,0.1c0,0-0.1-0.1,0,0.1c0.1,0.1,0-0.1,0.1,0.1c0,0.1,0,0.1,0.1,0.1c0,0,0,0-0.1-0.1c0.1,0.1,0.1,0.3,0.1,0.3
								c0,0.1,0.1,0.3,0.1,0.4c0,0,0.1,0.1,0.1,0.2c-0.1-0.1,0.1,0.4,0.1,0.4c0.1,0.1,0.3,0.4,0.4,0.6c0,0-0.1,0-0.1-0.1
								c0.1,0.1,0.1,0.1,0.1,0.2c0.1,0,0.2,0.1,0.3,0.2c0,0.2-0.1,0-0.1,0.1c0.1-0.1,0.2,0.2,0.2,0.1c0,0.1,0.1,0.1,0,0.2
								c0.1-0.1,0.1,0.1,0.2,0.1C172.6,296.2,172.4,296.1,172.6,296.2C172.8,296.4,172.6,296.2,172.6,296.2z M175.9,299.5
								L175.9,299.5C175.8,299.5,175.9,299.5,175.9,299.5z M176.2,299.8c0-0.1-0.1-0.1-0.1-0.1c0-0.1,0.1-0.1,0.1-0.1
								C176.1,299.6,176.2,299.7,176.2,299.8z M176.1,298.6C176.2,298.6,176.2,298.7,176.1,298.6L176.1,298.6z"/>
							<path id="Vector_64" class="st12" d="M176,298.6C175.9,298.6,175.9,298.7,176,298.6L176,298.6z"/>
							<path id="Vector_65" class="st12" d="M210,296.3L210,296.3C210,296.3,210,296.3,210,296.3z"/>
							<path id="Vector_66" class="st12" d="M201.7,302.9C201.7,303,201.7,303,201.7,302.9L201.7,302.9z"/>
							<path id="Vector_67" class="st12" d="M204.6,301c0,0.1,0,0.1-0.1,0.1C204.6,301.1,204.6,301.1,204.6,301z"/>
							<path id="Vector_68" class="st12" d="M204.4,301.2c0.1,0,0.1-0.1,0.1-0.1C204.4,301.1,204.4,301.2,204.4,301.2z"/>
							<path id="Vector_69" class="st12" d="M211.5,294.2c0.1-0.1,0.1-0.1,0.1-0.2C211.7,294.1,211.5,294.2,211.5,294.2z"/>
							<path id="Vector_70" class="st12" d="M210.7,295.1c0.1-0.1,0.1-0.1,0.1-0.1c-0.1,0-0.1,0.1-0.1-0.1
								C210.5,295.1,210.9,294.9,210.7,295.1z"/>
							<path id="Vector_71" class="st12" d="M210.2,295.6C210.2,295.5,210.1,295.6,210.2,295.6C210.1,295.6,210.1,295.7,210.2,295.6
								z"/>
							<path id="Vector_72" class="st12" d="M206.3,299.2L206.3,299.2C206.1,299.2,206.3,299.1,206.3,299.2z"/>
							<path id="Vector_73" class="st12" d="M205.8,300.3h0.1l-0.1-0.1L205.8,300.3z"/>
							<path id="Vector_74" class="st12" d="M204.9,299.9L204.9,299.9l-0.1,0.1L204.9,299.9z"/>
							<path id="Vector_75" class="st12" d="M196.8,303.1l0.1,0.2C196.9,303.2,196.9,303,196.8,303.1z"/>
							<path id="Vector_76" class="st12" d="M193.1,303.8c-0.1-0.1-0.1-0.1-0.2-0.1C193,303.7,193,303.9,193.1,303.8z"/>
						</g>
						<g id="Group_14">
							<path id="Vector_77" class="st13" d="M212.1,234.7L212.1,234.7L212.1,234.7z"/>
							<path id="Vector_78" class="st13" d="M211.7,234.8C211.6,234.8,211.5,234.9,211.7,234.8C211.7,234.8,211.7,234.8,211.7,234.8
								c0.1-0.1,0.1-0.1,0.1-0.1c0.1,0,0,0,0.1-0.1C211.9,234.7,211.8,234.8,211.7,234.8z"/>
							<path id="Vector_79" class="st13" d="M205.9,236.7L205.9,236.7C205.8,236.8,205.8,236.7,205.9,236.7z"/>
							<path id="Vector_80" class="st13" d="M190.2,240.8c0.1,0.1-0.2,0.1,0,0.3C190.2,241,190.3,240.8,190.2,240.8z"/>
							<path id="Vector_81" class="st13" d="M197.3,240.7l-0.1,0.1C197.2,240.8,197.3,240.7,197.3,240.7z"/>
							<path id="Vector_82" class="st13" d="M196.6,240.9c-0.1-0.1-0.1-0.1-0.1-0.1c0,0,0,0,0,0.1H196.6z"/>
							<path id="Vector_83" class="st13" d="M173.8,240.3c0.1,0,0.1-0.1,0.1-0.1c0.2,0,0.1,0.1,0.1,0.1c0.1,0,0.2-0.1,0.3-0.1
								c0.1-0.1,0.4,0.1,0.6,0c0-0.1,0-0.1,0-0.1c0.1,0,0.1-0.1,0.1,0c-0.1,0-0.1,0-0.1,0h0.1c0.1,0.1-0.1,0-0.1,0.1
								c0.1,0,0.4-0.1,0.4,0c0,0.1-0.3,0-0.1,0.1l-0.1-0.1c0.1,0.1-0.1,0,0,0.1c0.2,0.1,0.3,0,0.5,0.1c0.1-0.1,0-0.1,0.1-0.1
								c0.4-0.1,0.2,0.3,0.5,0.1c0.1-0.1,0.1-0.1,0.3-0.1l-0.1,0.1c0.2,0.1,0.1-0.1,0.4-0.1c-0.1,0.1-0.2,0-0.1,0
								c0.1,0.1,0.1-0.1,0.2-0.1v0.1c0.2,0,0.5,0,0.8,0c0,0-0.1,0.1,0,0.1c0.4,0,0.7,0.1,1.1,0.2l0.1-0.1c0,0,0.1,0.1,0,0.1
								c0.1,0.1,0-0.1,0.1-0.1c0.1,0,0.1,0.1,0.1,0.1c0.2-0.1,0.6-0.1,0.9,0h-0.1c0.2,0.1,0.2-0.2,0.4-0.1c0.4,0.1,0.9,0.1,1.1,0.3
								c0.1-0.1,0.4,0.1,0.4-0.1c0.2,0.1,0.1,0.2,0.4,0.3c0.1,0,0.1-0.1,0.3-0.1v0.1l0.1-0.1l0.1,0.1h0.1c-0.1,0-0.1-0.1-0.1-0.1
								c0.1-0.1,0.4,0.1,0.4,0.2l0.4-0.1c0,0.1-0.1,0.1-0.1,0.1c0.2-0.1,0,0.1,0.2,0.1c0-0.1,0-0.1,0-0.1c0.1,0.1,0.3,0.1,0.4,0.1
								l-0.1,0.1c0.3,0.1,0.6,0,0.9,0.1c-0.1-0.1-0.1-0.2,0-0.2v0.1c0.1-0.1-0.1-0.1,0.1-0.1c0.1,0,0.1,0.2,0,0.2l0.1-0.1
								c0,0.1,0,0.1-0.1,0.1c0.1-0.1,0.2,0.2,0.4,0v0.1c0.3,0.1,0.4,0,0.7,0c0-0.1,0.1-0.1,0.2-0.2c0.2,0.1,0.4,0.2,0.6,0.2
								c0.1-0.1,0.1-0.1,0.1-0.2c0,0.1,0.2,0.1,0.1,0.2c0.3,0,0.4,0,0.7-0.1c0-0.1-0.1-0.1-0.1-0.1c0.1,0,0.1,0.1,0.1,0.1
								c0.4-0.1,0.8,0.4,1.2,0.2l0.4-0.1c0.1,0-0.1,0.1,0,0.2c0.4-0.2,0.6,0.1,0.8-0.1c0.2,0.4,0.8-0.1,1.1,0.1v-0.1
								c0.1-0.1,0.1,0.1,0.1,0.1c0-0.1-0.1-0.1-0.1-0.1c0.6-0.1,1.3,0,2.1-0.1c0.3,0,0.1-0.5,0.4-0.4l-0.1,0.2
								c0.4-0.3,1-0.2,1.4-0.5c0,0.1,0,0.1-0.1,0.1c0.1,0.1,0.4-0.1,0.4-0.2c0.1,0,0.1,0.1,0.1,0.1c0.1,0.1,0.2-0.2,0.3-0.1v0.1
								c0.1-0.1,0.3-0.1,0.2-0.2c0.2,0,0.3-0.1,0.5-0.1c0.1-0.2,0.4,0,0.3-0.3c0.1,0.2,0.4,0.1,0.4-0.1c0,0.1,0.1,0,0.1,0.1
								c0.1-0.1,0.2-0.1,0.1-0.2c0.3,0.1,0.4-0.4,0.6-0.1c0.3-0.2,0.6-0.4,0.9-0.6c0.1,0.2-0.4,0.1-0.3,0.4c0.3-0.2,0.4-0.4,0.7-0.5
								c0.1,0,0,0.1,0,0.1c0.3-0.2,0.6-0.2,0.9-0.4c0,0,0,0.1-0.1,0.1c0.1,0,0.1,0,0.1-0.1l-0.1,0.1c-0.1-0.1,0.1-0.4,0.1-0.4
								c0,0.3,0.3,0,0.3,0.4c0,0,0.1-0.1,0-0.1c0.1,0,0.1,0,0.1,0.1c0.1-0.1,0.1-0.2,0.2-0.3c0,0.1,0,0.1,0,0.1
								c0.1-0.1,0.1-0.2,0.3-0.2v0.1c0.2-0.1,0.4-0.4,0.6-0.4c0,0.2,0.1,0,0.2,0.1l0.1-0.1l-0.1-0.1c0.1-0.1,0.2-0.2,0.4-0.2
								l-0.1,0.1l0.2-0.1h-0.1c0.1-0.1-0.1-0.1,0.1-0.2c0,0,0.1-0.1,0.2,0c0.1-0.1,0.1-0.1,0.2-0.1c0.1,0,0,0.1,0.1,0.2
								c0-0.1,0.3-0.1,0.4-0.3c0,0.1,0,0.1,0,0.1v-0.1c0.1,0,0.1,0,0.1,0.1c0.2-0.1-0.1-0.1,0.1-0.1c0,0,0,0,0,0.1
								c0.2-0.1,0.4-0.2,0.6-0.2c0.1,0.1-0.1,0.1-0.1,0.2c0.3-0.1,0.6-0.4,0.8-0.4h-0.1c0-0.2,0.2,0,0.4-0.1c0,0,0,0.1,0,0.1
								c0.2-0.1,0.4-0.2,0.6-0.4v0.1c0.1,0,0.3-0.1,0.4-0.1c0-0.1,0.1-0.1,0-0.1c0.4,0.1,0.6-0.4,1.1-0.4c-0.1,0-0.1,0.1-0.1,0.1
								l0.3-0.1c-0.1-0.1-0.1,0-0.1-0.1c0-0.1,0.1-0.1,0.1-0.1c-0.1,0.1,0,0.1,0.1,0.1v-0.1c0.2,0,0-0.1,0.2-0.1
								c0.1-0.1,0.1-0.1,0.2-0.1c0.1,0.1-0.1,0.1-0.1,0.1c0.1-0.1,0.2-0.2,0.3-0.1c-0.1,0-0.1,0.1-0.1,0.1c0.1,0,0.1,0,0.2,0
								l0.2-0.1h-0.1c0.1-0.2,0.3-0.1,0.4-0.3c-0.1,0.1,0,0.1,0,0.1c0.1,0,0.1,0,0.1,0c0.1-0.1,0.1,0,0.3-0.1c0,0,0.1-0.1,0.1,0
								c0.1-0.1-0.1,0,0-0.1c0.1-0.1,0.4-0.1,0.7-0.3c0.2-0.1,0.2-0.1,0.4-0.2c0.1,0-0.1,0.1-0.1,0.1c0.1,0,0.2-0.1,0.3-0.1
								c0,0,0,0,0.1,0c0.1-0.1,0.1-0.1,0.1-0.1c0,0-0.1,0-0.1,0.1c0.1-0.1,0.2-0.1,0.3-0.1l-0.1,0.1c0.1-0.1,0.3-0.1,0.4-0.1h-0.1
								c0.1,0,0,0,0,0c-0.1,0.1-0.1,0.1-0.1,0.1h0.1c-0.1,0-0.3,0.1-0.4,0.1l0.1-0.1l-0.1,0.1c-0.1,0-0.1,0,0-0.1
								c-0.1,0-0.1,0.1-0.2,0.1l-0.1,0.1c0,0,0,0,0.1-0.1c-0.2,0.1-0.3,0.1-0.4,0.1c-0.3,0.1,0,0.1-0.2,0.1l-0.1-0.1v0.1h-0.1
								c-0.1,0.1,0,0,0,0.1c-0.1,0-0.4,0.1-0.4,0.1c0,0.1,0.1,0,0,0.1c-0.1-0.1-0.1,0.1-0.3,0.1c0-0.1,0.1-0.1,0-0.1
								c-0.1,0.1-0.2,0.1-0.4,0.1c0,0.1-0.2,0.1-0.4,0.2c0,0-0.4,0.1-0.5,0.1c0,0.1-0.1,0.1-0.3,0.2c0-0.1,0-0.1,0.1-0.1l-0.1,0.1
								c0,0-0.1,0.1-0.1,0.1v-0.1c-0.1,0.1-0.3,0.1-0.5,0.2c0,0.1,0.2,0.1,0,0.2c0,0-0.1-0.1,0-0.1l-0.1,0.1l0.1-0.1
								c-0.1,0,0,0.1-0.1,0.1c0-0.1-0.1,0-0.1-0.1h0.1c-0.1,0-0.2,0-0.2,0v0.1c-0.1,0.1-0.1-0.1-0.1-0.1c0,0.1-0.1,0.1-0.1,0.1
								c-0.1,0-0.1,0-0.1-0.1c-0.1,0.1-0.4,0.1-0.2,0.2c-0.2,0.1-0.6,0.1-0.8,0.3c-0.1,0.1-0.4,0.1-0.4,0.2c-0.1,0-0.1,0-0.1-0.1
								c-0.1,0.1-0.1,0.1-0.3,0.1c0.1-0.1-0.1-0.1,0.1-0.1c-0.1,0-0.2,0-0.4,0.1c0-0.1-0.1-0.1-0.2,0h0.1c-0.1,0.1-0.1,0.1-0.2,0.1
								v-0.1c-0.4-0.1-0.4,0.4-0.8,0.3c-0.1,0.1,0.2,0,0.1,0.1c-0.1,0-0.4-0.1-0.4-0.1c-0.2,0-0.1,0.2-0.4,0.3
								c0.1,0.1,0.1,0.1,0,0.2c-0.1,0-0.2-0.1-0.1-0.2h0.1c0.1,0,0.1-0.1,0-0.1v0.1c-0.1,0-0.3,0.1-0.3-0.1c-0.1,0.1,0,0.1,0.1,0.1
								c-0.2,0-0.3,0.1-0.5,0.1c0.1,0,0.1,0.1,0.1,0.1c-0.3,0-0.1,0.1-0.3,0.2c-0.1-0.1,0-0.2-0.2-0.1c-0.1,0-0.1-0.1-0.1-0.1
								c-0.1,0.1-0.4,0.1-0.4,0.1l0.1-0.1c-0.1,0.1-0.1,0.1-0.1,0.1l0.1,0.1c-0.1,0-0.1,0-0.1,0c0,0.1,0.1,0.1,0,0.3
								c-0.1,0-0.2,0.1-0.3,0c0.2,0-0.1-0.1,0.1-0.2c0,0-0.1,0.1-0.1,0.1c0,0,0,0,0-0.1c-0.3-0.1-0.1,0.2-0.3,0.3
								c0-0.1-0.1-0.1-0.1-0.1c0.1,0,0.1,0.1,0,0.2c-0.1,0-0.1,0.1-0.2,0.1h0.1c0,0.1-0.1,0.1-0.1,0.1c0-0.1,0.1-0.1,0-0.1
								c-0.1,0.1-0.3-0.1-0.4,0.1c-0.1,0-0.1-0.1-0.1-0.1c-0.1,0.1-0.2-0.1-0.4,0.1c0.1,0.1,0.1,0.1,0,0.2l0.3-0.1l-0.1,0.2
								c0.1,0,0.1-0.1,0.2-0.1c-0.1,0.1-0.1,0.1,0,0.1c-0.1-0.1-0.2,0.1-0.4,0.1l-0.1-0.3c-0.3-0.1-0.4,0.3-0.6,0.3h0.1
								c0,0.1-0.1,0.1-0.2,0.1c0-0.1-0.1-0.1-0.1-0.1c0,0.1-0.2,0.1-0.1,0.3l-0.1-0.1c-0.2,0-0.1,0.4-0.4,0.4c0-0.1-0.1-0.1,0-0.3
								c-0.1,0-0.1,0-0.1,0.1c-0.1-0.1-0.1,0.2-0.2,0.1c0,0.1,0,0.1-0.1,0.1v-0.1c0,0.1-0.1,0.1,0,0.2c-0.3-0.2-0.6,0.2-0.9,0
								c-0.1,0.1-0.3,0.1-0.4,0.2v-0.1c-0.2,0,0,0.3-0.3,0.3c-0.1-0.1,0.1-0.1,0-0.1c-0.1-0.3-0.3,0.1-0.4,0
								c-0.1-0.1-0.2,0.2-0.4,0.2c0,0,0,0,0-0.1c-0.1,0.2-0.3,0.3-0.5,0.4c0-0.1,0.1-0.1,0-0.2c-0.1,0.1,0.1,0.2-0.1,0.3
								c-0.1-0.1-0.2-0.1-0.2-0.2l0.1-0.1c-0.1-0.1-0.2,0.1-0.3,0v-0.1c-0.2,0.1-0.2,0.3-0.4,0.3l0.1,0.1c-0.1,0.2-0.1-0.1-0.2,0.1
								l-0.1-0.2c-0.1,0.1-0.3,0.2-0.4,0.3c0.1-0.1,0.3-0.3,0.4-0.4c-0.1,0-0.3,0.1-0.4,0.1c0,0,0.1-0.1,0.1-0.1
								c-0.1,0.1-0.2,0.3-0.4,0.3c0-0.4-0.5-0.1-0.6-0.4c-0.3,0.2-0.6,0-1,0c0.1,0.3-0.1,0-0.1,0.4c-0.1,0-0.1,0-0.1,0l-0.3-0.2
								c-0.1-0.1,0.1-0.1,0.1-0.1c-0.2,0-0.1-0.1-0.2-0.2c0,0.1-0.1,0.1-0.1,0.1l0.1,0.1c-0.3,0.1-0.2-0.3-0.5-0.1l0.1-0.1
								c-0.1,0.1-0.5,0-0.6,0.2c0-0.1-0.1-0.1,0-0.1c-0.3-0.1-0.7,0.2-1,0.1v-0.1c-0.1,0-0.1,0.1-0.2,0.1v-0.1c0,0-0.2,0.1-0.3,0.1
								l0.1-0.1c-0.3-0.1-0.5,0.1-0.8,0.2c0-0.2-0.2-0.3-0.4-0.4c-0.4-0.1-0.6,0.1-1,0.2c-0.2-0.3-0.7-0.1-1.1-0.3
								c0.1,0.1,0,0.1-0.1,0.2c-0.1-0.1-0.2,0.1-0.2-0.1c-0.1-0.2-0.2-0.1-0.4-0.1l-0.1,0.2c-0.3-0.4-0.9,0.1-1.1-0.3
								c-0.1,0.1-0.2,0.1-0.3,0.1v-0.1c-0.2-0.1-0.4-0.1-0.6-0.1l0.1-0.1c-0.1,0-0.2,0.4-0.4,0.4v-0.2c-0.3,0-0.6-0.2-0.9-0.1
								c0,0,0-0.1,0.1-0.1c-0.1,0-0.5-0.1-0.5,0.1c0-0.1-0.3,0-0.4,0v-0.1c-0.1,0.1-0.1,0.1-0.4,0.2c-0.1,0,0-0.1,0-0.1
								c-0.1-0.1-0.1,0.1-0.3,0l0.1-0.1c-0.1,0-0.1,0-0.2,0.1c-0.1,0-0.3-0.1-0.3-0.1c0,0.1-0.1,0.1-0.2,0.1c0,0,0-0.1,0.1-0.1
								c-0.2-0.1-0.4,0.1-0.5,0v-0.1c0.2,0,0.4,0,0.4,0.1c0-0.1-0.1-0.1,0-0.2c-0.1,0.1-0.4,0.2-0.5,0.1h-0.1c-0.1,0-0.1,0-0.1,0
								c0-0.1-0.1-0.1-0.3-0.1c0,0.1-0.1,0.1,0,0.1c0,0,0,0,0.1,0s0.1,0,0.2,0c-0.1,0.1-0.1,0.1-0.2,0c-0.1,0.1-0.1,0.1-0.1,0.1
								c-0.1-0.1-0.3-0.2-0.3-0.3c-0.2,0-0.6,0-0.7,0.1c-0.1,0-0.1-0.1-0.1-0.1c0.1,0,0.1,0,0.1,0c-0.1,0-0.4,0-0.4,0.1
								c-0.1-0.1,0.1-0.1-0.1-0.1c-0.4-0.1-0.8,0.1-1.3-0.1h0.1c-0.6-0.1-1.2-0.1-1.8-0.1c-0.1,0-0.2,0-0.3,0v-0.1h-0.1
								c-0.2,0-0.4-0.1-0.7-0.1h0.1c-0.1,0-0.4,0-0.4,0H171h-0.3c-0.2,0,0,0-0.3,0c-0.1,0-0.2,0-0.3,0c0,0,0.1,0,0.1,0h-0.1
								c0,0-0.1,0,0.1,0h0.1h0.1h-0.1c0.1,0,0.1,0,0.2,0h0.1h0.1c0,0-0.1,0,0.1,0c0.1,0-0.1,0,0.1,0c0.1,0,0.1,0,0.1,0
								c0,0,0,0-0.1,0c0.1,0,0.2,0,0.3,0s0.3,0.1,0.3,0.1s0.1,0,0.2,0c-0.1,0,0.3,0.1,0.3,0.1c0.1-0.1,0.4,0.1,0.6,0c0,0,0,0-0.1,0
								c0.1,0,0.1,0.1,0.2,0.1c0-0.1,0.2-0.1,0.3-0.1c0.1,0.1-0.1,0.1-0.1,0.1c0-0.1,0.2,0,0.2-0.1c0.1,0.1,0.1,0,0.1,0.1
								c0-0.1,0.1,0,0.2-0.1c0.1,0.1,0,0.1,0.2,0.1C174,240.3,173.8,240.3,173.8,240.3z M177.7,240.6L177.7,240.6
								C177.7,240.6,177.7,240.6,177.7,240.6z M178,240.6c-0.1,0-0.1,0-0.1,0C177.9,240.6,177.9,240.5,178,240.6L178,240.6z
								 M177.4,239.9C177.5,239.9,177.5,239.9,177.4,239.9C177.4,240,177.4,240,177.4,239.9C177.4,240,177.4,239.9,177.4,239.9z"/>
							<path id="Vector_84" class="st13" d="M200.3,239.4C200.2,239.5,200.2,239.5,200.3,239.4L200.3,239.4z"/>
							<path id="Vector_85" class="st13" d="M202.8,238.1L202.8,238.1C202.7,238.3,202.8,238.2,202.8,238.1z"/>
							<path id="Vector_86" class="st13" d="M202.6,238.3c0.1,0,0.1,0,0.1-0.1C202.7,238.3,202.6,238.3,202.6,238.3z"/>
							<path id="Vector_87" class="st13" d="M210.5,235.3c0.1,0,0.1,0,0.2-0.1C210.7,235.3,210.5,235.3,210.5,235.3z"/>
							<path id="Vector_88" class="st13" d="M209.5,235.5l0.2-0.1c-0.1,0-0.1,0,0-0.1C209.4,235.4,209.7,235.4,209.5,235.5z"/>
							<path id="Vector_89" class="st13" d="M208.9,235.7C209,235.7,208.8,235.7,208.9,235.7C208.8,235.7,208.7,235.7,208.9,235.7z"
								/>
							<path id="Vector_90" class="st13" d="M204.6,237.1L204.6,237.1C204.5,237.1,204.6,237.1,204.6,237.1z"/>
							<path id="Vector_91" class="st13" d="M203.9,237.9L203.9,237.9l0.1-0.1L203.9,237.9z"/>
							<path id="Vector_92" class="st13" d="M203.2,237.4L203.2,237.4L203.2,237.4L203.2,237.4z"/>
							<path id="Vector_93" class="st13" d="M196.1,239.8l0.1,0.1C196.2,239.9,196.1,239.7,196.1,239.8z"/>
							<path id="Vector_94" class="st13" d="M193,240.7c-0.1-0.1-0.1-0.1-0.2,0C193,240.7,193,240.8,193,240.7z"/>
							<path id="Vector_95" class="st13" d="M183.5,240.3L183.5,240.3L183.5,240.3L183.5,240.3z"/>
						</g>
						<g id="Group_15">
							<path id="Vector_96" class="st13" d="M212.1,244.6L212.1,244.6L212.1,244.6z"/>
							<path id="Vector_97" class="st13" d="M211.7,244.7C211.6,244.7,211.5,244.8,211.7,244.7C211.7,244.7,211.7,244.8,211.7,244.7
								c0.1-0.1,0.1-0.1,0.1-0.1c0.1,0,0,0,0.1-0.1C211.9,244.7,211.8,244.7,211.7,244.7z"/>
							<path id="Vector_98" class="st13" d="M205.9,246.7L205.9,246.7C205.8,246.8,205.8,246.7,205.9,246.7z"/>
							<path id="Vector_99" class="st13" d="M190.3,250.8c0.1,0.1-0.2,0.1,0,0.3C190.3,251.1,190.4,250.9,190.3,250.8z"/>
							<path id="Vector_100" class="st13" d="M197.1,249.8L197.1,249.8C197,249.8,197,249.8,197.1,249.8
								C197,249.8,197,249.7,197.1,249.8z"/>
							<path id="Vector_101" class="st13" d="M196,250L196,250L196,250L196,250z"/>
							<path id="Vector_102" class="st13" d="M197.4,250.8l-0.1,0.1C197.3,250.8,197.3,250.8,197.4,250.8z"/>
							<path id="Vector_103" class="st13" d="M196.7,251c-0.1-0.1-0.1-0.1-0.1-0.1c0,0,0,0,0,0.1H196.7z"/>
							<path id="Vector_104" class="st13" d="M173.9,250.7c0.1,0,0.1-0.1,0.1-0.1c0.2,0,0.1,0.1,0.1,0.1c0.1,0,0.2-0.1,0.3-0.1
								c0.1-0.1,0.4,0.1,0.6,0c0-0.1,0-0.1,0-0.1c0.1,0,0.1-0.1,0.1,0c-0.1,0-0.1,0-0.1,0h0.1c0.1,0.1-0.1,0-0.1,0.1
								c0.1,0,0.4-0.1,0.4,0c0,0.1-0.3,0-0.1,0.1l-0.2-0.1c0.1,0.1-0.1,0,0,0.1c0.2,0.1,0.3,0,0.5,0.1c0.1-0.1,0-0.1,0.1-0.1
								c0.4-0.1,0.3,0.3,0.5,0.1c0.1-0.1,0.1-0.2,0.3-0.1l-0.1,0.1c0.2,0.1,0.1-0.1,0.4-0.1c-0.1,0.1-0.2,0-0.1,0.1
								c0.1,0.1,0.1-0.1,0.2-0.1v0.1c0.2,0,0.5-0.1,0.8-0.1c0,0-0.1,0.1,0,0.1c0.4,0,0.7,0.1,1.1,0.2l0.1-0.1c0,0,0.1,0.1,0,0.1
								c0.1,0.1,0-0.1,0.1-0.1c0.1,0,0.1,0.1,0.1,0.1c0.2-0.1,0.6-0.1,0.9,0h-0.1c0.2,0.1,0.2-0.2,0.4-0.1c0.4,0.1,0.8,0,1.1,0.2
								c0.1-0.1,0.4,0.1,0.4-0.1c0.2,0.1,0.1,0.2,0.5,0.3c0.1,0,0.1-0.1,0.2-0.1v0.1l0.1-0.1l0.1,0.1h0.1c-0.1,0-0.1-0.1-0.1-0.1
								c0.1-0.1,0.4,0.1,0.4,0.2l0.4-0.1c0,0.1-0.1,0.1-0.1,0.1c0.2-0.1,0,0.1,0.2,0c0,0,0-0.1,0-0.1c0.1,0.1,0.3,0.1,0.4,0.1
								l-0.1,0.1c0.3,0.1,0.6,0,0.9,0c-0.1-0.1-0.1-0.2,0-0.2v0.1c0.1-0.1-0.1-0.1,0.1-0.2c0.1,0,0.1,0.2,0,0.2l0.1-0.1
								c0,0.1,0,0.1-0.1,0.1c0.1-0.1,0.2,0.2,0.4,0v0.1c0.3,0,0.4,0,0.7,0c0-0.1,0.1-0.1,0.2-0.2c0.2,0.1,0.4,0.2,0.6,0.2
								c0.1-0.1,0.1-0.1,0.1-0.2c0,0.1,0.2,0.1,0.1,0.2c0.3,0,0.4,0,0.7-0.1c0-0.1-0.1-0.1-0.1-0.1c0.1,0,0.1,0.1,0.1,0.1
								c0.4-0.1,0.8,0.4,1.2,0.2l0.4-0.1c0.1,0-0.1,0.1,0,0.2c0.4-0.2,0.6,0.1,0.8-0.1c0.2,0.4,0.8-0.1,1.1,0.2v-0.1
								c0.1-0.1,0.1,0.1,0.1,0.1c0-0.1-0.1-0.1-0.1-0.1c0.6-0.1,1.3,0,2.1,0c0.3,0,0.1-0.5,0.4-0.4l-0.1,0.2c0.4-0.3,1-0.2,1.4-0.5
								c0,0.1,0,0.1-0.1,0.1c0.1,0.1,0.4-0.1,0.4-0.2c0.1,0,0.1,0.1,0.1,0.1c0.1,0.1,0.2-0.2,0.3-0.1v0.1c0.1-0.1,0.3-0.1,0.2-0.2
								c0.2,0,0.3-0.1,0.5-0.1c0.1-0.2,0.4,0,0.3-0.3c0.1,0.2,0.4,0.1,0.4-0.1c0,0.1,0.1,0,0.1,0.1c0.1-0.1,0.2-0.1,0.1-0.2
								c0.3,0.1,0.4-0.4,0.6-0.1c0.3-0.3,0.6-0.4,0.9-0.6c0.1,0.2-0.4,0.1-0.3,0.4c0.3-0.2,0.4-0.4,0.7-0.5c0.1,0,0,0.1,0,0.1
								c0.3-0.2,0.6-0.2,0.9-0.4c0,0,0,0.1-0.1,0.1c0.1,0,0.1,0,0.1-0.1l-0.1,0.1c-0.1-0.1,0.1-0.4,0.1-0.4c0,0.3,0.3-0.1,0.3,0.4
								c0,0,0.1-0.1,0-0.1c0.1,0,0.1,0,0.1,0.1c0.1-0.1,0.1-0.2,0.2-0.3c0,0.1,0,0.1,0,0.1c0.1-0.1,0.1-0.2,0.3-0.3v0.1
								c0.2-0.1,0.4-0.4,0.6-0.4c0,0.2,0.1,0,0.2,0.1l0.1-0.1l-0.1-0.1c0.1-0.1,0.2-0.2,0.4-0.2l-0.1,0.1l0.2-0.1h-0.1
								c0.1-0.1-0.1-0.1,0.1-0.2c0,0,0.1-0.1,0.2,0c0.1-0.1,0.1-0.1,0.2-0.1c0.1,0,0.1,0.1,0.1,0.2c0-0.1,0.3-0.1,0.4-0.3
								c0,0.1,0,0.1,0,0.1v-0.1c0.1,0,0.1,0,0.1,0.1c0.2-0.1-0.1-0.1,0.1-0.1c0,0,0,0,0,0.1c0.2-0.1,0.4-0.2,0.6-0.2
								c0.1,0.1-0.1,0.1-0.1,0.2c0.3-0.1,0.5-0.4,0.8-0.4h-0.1c0-0.2,0.2,0,0.4-0.1c0,0,0,0.1,0,0.1c0.2-0.1,0.4-0.2,0.6-0.4v0.1
								c0.1,0,0.3-0.1,0.4-0.1c0-0.1,0.1-0.1,0-0.1c0.4,0.1,0.6-0.4,1.1-0.4c-0.1,0-0.1,0.1-0.1,0.1l0.3-0.1c-0.1-0.1-0.1,0-0.1-0.1
								c0-0.1,0.1-0.1,0.1-0.1c-0.1,0.1,0,0.1,0.1,0.1v-0.1c0.2,0,0-0.1,0.2-0.1c0.1-0.1,0.1-0.1,0.2-0.1c0.1,0.1-0.1,0.1-0.1,0.1
								c0.1-0.1,0.2-0.2,0.3-0.1c-0.1,0-0.1,0.1-0.1,0.1c0.1,0,0.1,0,0.2,0l0.2-0.1h-0.1c0.1-0.2,0.3-0.1,0.4-0.3
								c-0.1,0.1,0,0.1,0,0.1c0.1,0,0.1,0,0.1,0c0.1-0.1,0.1,0,0.3-0.1c0,0,0.1-0.1,0.1,0c0.1-0.1-0.1,0,0,0
								c0.1-0.1,0.4-0.1,0.7-0.3c0.2-0.1,0.2-0.1,0.4-0.3c0.1,0-0.1,0.1-0.1,0.1c0.1,0,0.2-0.1,0.3-0.1c0,0,0,0,0.1,0
								c0.1-0.1,0.1-0.1,0.1-0.1l-0.1,0.1c0.1-0.1,0.2-0.1,0.3-0.1l-0.1,0.1c0.1-0.1,0.3-0.1,0.4-0.1h-0.1c0.1,0,0,0,0,0
								c-0.1,0.1-0.1,0.1-0.1,0.1h0.1c-0.1,0-0.3,0.1-0.4,0.2l0.1-0.1l-0.1,0.1c-0.1,0-0.1,0,0-0.1c-0.1,0-0.1,0.1-0.2,0.1l-0.1,0.1
								c0,0,0,0,0.1-0.1c-0.2,0.1-0.3,0.1-0.4,0.1c-0.3,0.1,0,0.1-0.2,0.1l-0.1-0.1v0.1h-0.1c-0.1,0.1,0,0,0,0.1
								c-0.1,0-0.4,0.1-0.4,0.1c0,0.1,0.1,0,0,0.1c-0.1-0.1-0.1,0.1-0.3,0.1c0-0.1,0.1-0.1,0-0.1c-0.1,0.1-0.2,0.1-0.4,0.1
								c0,0.1-0.2,0.1-0.4,0.2c0,0-0.4,0.1-0.5,0.1c0,0.1-0.1,0.1-0.3,0.2c0-0.1,0-0.1,0.1-0.1l-0.1,0.1c0,0-0.1,0.1-0.1,0.1v-0.1
								c-0.1,0.1-0.3,0.2-0.5,0.2c0,0.1,0.2,0.1,0,0.2c0,0-0.1-0.1,0-0.1l-0.1,0.1l0.1-0.1c-0.1,0,0,0.1-0.1,0.1
								c0-0.1-0.1,0-0.1-0.1h0.1c-0.1,0-0.2,0-0.2,0v0.1c-0.1,0.1-0.1-0.1-0.1-0.1c0,0.1-0.1,0.1-0.1,0.1c-0.1,0-0.1,0-0.1-0.1
								c-0.1,0.1-0.4,0.1-0.2,0.2c-0.2,0.1-0.6,0.1-0.8,0.3c-0.1,0.1-0.4,0.1-0.4,0.2c-0.1,0-0.1,0-0.1-0.1
								c-0.1,0.1-0.1,0.1-0.3,0.1c0.1-0.1-0.1-0.1,0.1-0.1c-0.1,0-0.2,0-0.4,0.1c0-0.1-0.1-0.1-0.2,0h0.1c-0.1,0.1-0.1,0.1-0.2,0.1
								v-0.1c-0.4-0.1-0.4,0.4-0.8,0.3c-0.1,0.1,0.2,0,0.1,0.1c-0.1,0-0.4-0.1-0.4-0.1c-0.2,0-0.1,0.2-0.4,0.3
								c0.1,0.1,0.1,0.1,0,0.2c-0.1,0-0.2-0.1-0.1-0.2h0.1c0.1,0,0.1-0.1,0-0.1v0.1c-0.1,0-0.3,0.1-0.3-0.1c-0.1,0.1,0,0.1,0.1,0.1
								c-0.2,0-0.3,0.1-0.5,0.1c0.1,0,0.1,0.1,0.1,0.1c-0.3,0.1-0.1,0.1-0.3,0.2c-0.1-0.1,0-0.2-0.2-0.1c-0.1,0-0.1-0.1-0.1-0.1
								c-0.1,0.1-0.4,0.1-0.4,0.1l0.1-0.1c-0.1,0.1-0.1,0.1-0.1,0.1l0.1,0.1c-0.1,0-0.1,0-0.1,0c0,0.1,0.1,0.1,0,0.3
								c-0.1,0-0.2,0.1-0.3,0c0.2,0-0.1-0.1,0.1-0.2c0,0-0.1,0.1-0.1,0.1c0,0,0,0,0-0.1c-0.3-0.1-0.1,0.2-0.3,0.3
								c0-0.1-0.1-0.1-0.1-0.1c0.1,0,0.1,0.1,0,0.2c-0.1,0-0.1,0.1-0.2,0.1h0.1c0,0.1-0.1,0.1-0.1,0.1c0-0.1,0.1-0.1,0-0.1
								c-0.1,0.1-0.3-0.1-0.4,0.1c-0.1,0-0.1-0.1-0.1-0.1c-0.1,0.1-0.2-0.1-0.4,0.1c0.1,0.1,0.1,0.1,0,0.2l0.3-0.1l-0.1,0.2
								c0.1,0,0.1-0.1,0.2-0.1c-0.1,0.1-0.1,0.1,0,0.1c-0.1-0.1-0.2,0.2-0.4,0.1l-0.1-0.3c-0.3-0.1-0.3,0.3-0.6,0.3h0.1
								c0,0.1-0.1,0.1-0.2,0.1c0-0.1-0.1-0.1-0.1-0.1c0,0.1-0.2,0.1-0.1,0.3l-0.1-0.1c-0.2,0-0.1,0.4-0.4,0.4c0-0.1-0.1-0.1,0-0.3
								c-0.1,0-0.1,0-0.1,0.1c-0.1-0.1-0.1,0.2-0.2,0.1c0,0.1,0,0.1-0.1,0.1v-0.1c0,0.1-0.1,0.1,0,0.2c-0.3-0.2-0.6,0.2-0.9,0
								c-0.1,0.1-0.3,0.1-0.4,0.2V250c-0.2-0.1-0.1,0.3-0.3,0.3c-0.1-0.1,0.1-0.1,0-0.1c-0.1-0.3-0.3,0.1-0.4-0.1
								c-0.1-0.1-0.2,0.2-0.4,0.2c0,0,0,0,0-0.1c-0.1,0.2-0.3,0.3-0.5,0.4c0-0.1,0.1-0.1,0-0.2c-0.1,0.1,0.1,0.2-0.1,0.3
								c-0.1-0.1-0.2-0.1-0.2-0.2l0.1-0.1c-0.1-0.1-0.2,0.1-0.3,0v-0.1c-0.2,0.1-0.2,0.3-0.4,0.3l0.1,0.1c-0.1,0.2-0.1-0.1-0.2,0.1
								l-0.1-0.2c-0.1,0.1-0.3,0.2-0.4,0.3c0.1-0.1,0.3-0.3,0.4-0.4c-0.1,0-0.3,0.1-0.4,0.1c0,0,0.1-0.1,0.1-0.1
								c-0.1,0.2-0.2,0.3-0.4,0.3c0-0.4-0.5-0.1-0.6-0.4c-0.3,0.1-0.6,0-1,0c0.1,0.3-0.1,0-0.1,0.4c-0.1,0-0.1,0-0.1,0l-0.3-0.2
								c-0.1-0.1,0.1-0.1,0.1-0.1c-0.2,0-0.1-0.1-0.2-0.2c0,0.1-0.1,0.1-0.1,0.1l0.1,0.1c-0.3,0.1-0.2-0.3-0.5-0.1l0.1-0.1
								c-0.1,0.1-0.5,0-0.6,0.2c0-0.1-0.1-0.1,0-0.1c-0.3-0.1-0.8,0.2-1,0.1v-0.1c-0.1,0-0.1,0.1-0.2,0.1v-0.1c0,0-0.1,0.1-0.3,0.1
								l0.1-0.1c-0.3-0.1-0.5,0.2-0.8,0.2c0-0.2-0.2-0.3-0.4-0.4c-0.4-0.1-0.6,0.1-1,0.2c-0.2-0.2-0.7-0.1-1.1-0.3
								c0.1,0.1,0,0.1-0.1,0.2c-0.1-0.1-0.2,0.1-0.2-0.1c-0.1-0.2-0.2-0.1-0.4-0.1l-0.1,0.2c-0.4-0.4-0.9,0.1-1.1-0.2
								c-0.1,0.1-0.2,0.1-0.3,0.1v-0.1c-0.2-0.1-0.4-0.1-0.6-0.1l0.1-0.1c-0.1,0-0.2,0.4-0.4,0.4v-0.2c-0.3,0-0.6-0.1-0.8,0
								c0,0,0-0.1,0.1-0.1c-0.1,0-0.5-0.1-0.5,0.1c0-0.1-0.3,0-0.4,0v-0.1c-0.1,0.1-0.1,0.1-0.4,0.2c-0.1,0,0-0.1,0-0.1
								c-0.1-0.1-0.1,0.1-0.3,0l0.1-0.1c-0.1,0-0.1,0-0.2,0.1s-0.3-0.1-0.3-0.1c0,0.1-0.1,0.1-0.2,0.1c0,0,0-0.1,0.1-0.1
								c-0.2-0.1-0.4,0.1-0.5,0v-0.1c0.2,0,0.4,0,0.4,0c0-0.1-0.1-0.1,0-0.2c-0.1,0.1-0.4,0.2-0.5,0.1h-0.1c-0.1,0-0.1,0-0.1,0
								c0-0.1-0.1-0.1-0.3-0.1c0,0.1-0.1,0.1,0,0.1c0,0,0,0,0.1,0c0.1,0,0.1,0,0.2,0c-0.1,0.1-0.1,0.1-0.2,0
								c-0.1,0.1-0.1,0.1-0.1,0.1c-0.1-0.1-0.3-0.2-0.4-0.3c-0.2,0.1-0.6,0-0.7,0.1c-0.1,0-0.1-0.1-0.1-0.1c0.1,0,0.1,0,0.1,0
								c-0.1,0-0.4,0-0.4,0.1c-0.1-0.1,0.1-0.1-0.1-0.1c-0.4-0.1-0.8,0.2-1.3,0h0.1c-0.6-0.1-1.2,0-1.8-0.1c-0.1,0-0.2,0-0.3,0v-0.1
								h-0.1c-0.2,0-0.4-0.1-0.7-0.1h0.1c-0.1,0-0.4,0-0.4,0h-0.1h-0.3c-0.2,0,0,0-0.3,0c-0.1,0-0.2,0-0.3,0c0,0,0.1,0,0.1,0h-0.1
								c0,0-0.1,0,0.1,0h0.1h0.1h-0.1c0.1,0,0.1,0,0.2,0h0.1h0.1c0,0-0.1,0,0.1,0c0.1,0-0.1,0,0.1,0c0.1,0,0.1,0,0.1,0
								c0,0,0,0-0.1,0c0.1,0,0.2,0,0.3,0s0.3,0,0.3,0.1c0,0,0.1,0,0.2,0c-0.1,0,0.3,0.1,0.3,0.1c0.1-0.1,0.4,0,0.6,0c0,0,0,0-0.1,0
								c0.1,0,0.1,0.1,0.2,0.1c0-0.1,0.2-0.1,0.3-0.1c0.1,0.1-0.1,0.1-0.1,0.1c0-0.1,0.2,0,0.2-0.1c0.1,0.1,0.1,0,0.1,0.1
								c0-0.1,0.1,0,0.2-0.1C173.9,250.7,173.8,250.7,173.9,250.7S173.9,250.7,173.9,250.7z M177.7,251L177.7,251L177.7,251z
								 M178.1,251c-0.1,0-0.1,0-0.1,0C177.9,251,177.9,250.9,178.1,251C177.9,251,178,251,178.1,251z M177.4,250.3
								C177.5,250.3,177.5,250.3,177.4,250.3C177.4,250.3,177.4,250.3,177.4,250.3C177.4,250.3,177.4,250.3,177.4,250.3z"/>
							<path id="Vector_105" class="st13" d="M182.5,251.6L182.5,251.6L182.5,251.6L182.5,251.6z"/>
							<path id="Vector_106" class="st13" d="M202.8,248.2L202.8,248.2C202.8,248.3,202.8,248.3,202.8,248.2z"/>
							<path id="Vector_107" class="st13" d="M202.6,248.3c0.1,0,0.1,0,0.1-0.1C202.7,248.3,202.7,248.3,202.6,248.3z"/>
							<path id="Vector_108" class="st13" d="M210.5,245.3c0.1,0,0.1-0.1,0.2-0.1C210.7,245.2,210.5,245.2,210.5,245.3z"/>
							<path id="Vector_109" class="st13" d="M209.5,245.5l0.2-0.1c-0.1,0-0.1,0,0-0.1C209.4,245.4,209.7,245.4,209.5,245.5z"/>
							<path id="Vector_110" class="st13" d="M208.9,245.6C209,245.6,208.9,245.6,208.9,245.6C208.8,245.6,208.8,245.6,208.9,245.6z
								"/>
							<path id="Vector_111" class="st13" d="M204.6,247.1L204.6,247.1C204.5,247.1,204.6,247.1,204.6,247.1z"/>
							<path id="Vector_112" class="st13" d="M204,247.8L204,247.8L204,247.8L204,247.8z"/>
							<path id="Vector_113" class="st13" d="M203.3,247.4L203.3,247.4h-0.1H203.3z"/>
							<path id="Vector_114" class="st13" d="M196.1,249.9l0.1,0.1C196.3,250,196.2,249.8,196.1,249.9z"/>
							<path id="Vector_115" class="st13" d="M193.1,250.7c-0.1-0.1-0.1-0.1-0.2,0C193,250.7,193.1,250.8,193.1,250.7z"/>
						</g>
						<g id="Group_16">
							<path id="Vector_116" class="st14" d="M117.4,415.3c0-0.1,0-0.2,0-0.1C117.4,415.3,117.4,415.3,117.4,415.3
								c0,0.1-0.1,0.2-0.1,0.2c0,0.1,0,0.1,0,0.1C117.3,415.6,117.3,415.4,117.4,415.3C117.4,415.3,117.4,415.3,117.4,415.3z"/>
							<path id="Vector_117" class="st14" d="M118.9,408.3l0.1-0.1C118.9,408.1,118.9,408.2,118.9,408.3z"/>
							<path id="Vector_118" class="st14" d="M118.3,411.7L118.3,411.7C118.2,411.7,118.2,411.7,118.3,411.7
								C118.2,411.7,118.2,411.7,118.3,411.7z"/>
							<path id="Vector_119" class="st14" d="M127,365.8L127,365.8L127,365.8z"/>
							<path id="Vector_120" class="st14" d="M120.8,401.9C120.8,402,120.9,401.9,120.8,401.9L120.8,401.9z"/>
							<path id="Vector_121" class="st14" d="M123.3,389.3c-0.2,0.1-0.2-0.3-0.4-0.1C122.9,389.2,123.1,389.4,123.3,389.3z"/>
							<path id="Vector_122" class="st14" d="M121.4,398.7L121.4,398.7C121.4,398.8,121.4,398.8,121.4,398.7z"/>
							<path id="Vector_123" class="st14" d="M121.4,397.4C121.4,397.4,121.5,397.4,121.4,397.4
								C121.4,397.4,121.4,397.4,121.4,397.4z"/>
							<path id="Vector_124" class="st14" d="M125.5,371.4C125.5,371.4,125.6,371.4,125.5,371.4
								C125.5,371.4,125.6,371.1,125.5,371.4z"/>
							<path id="Vector_125" class="st14" d="M117.5,414.4C117.5,414.4,117.5,414.3,117.5,414.4
								C117.5,414.4,117.5,414.4,117.5,414.4z"/>
							<path id="Vector_126" class="st14" d="M119.9,397.1l0.1-0.2C120,397,119.9,397.1,119.9,397.1z"/>
							<path id="Vector_127" class="st14" d="M120.1,396.3c0.1,0,0.1-0.1,0.1-0.1S120.2,396.2,120.1,396.3L120.1,396.3z"/>
							<path id="Vector_128" class="st14" d="M125.7,370c-0.1,0.2,0.1,0.1,0.1,0.1c0,0.2-0.1,0.1-0.1,0.1c0,0.1,0.1,0.3,0,0.4
								c0,0,0,0-0.1,0c0.1,0.1-0.1,0.4-0.1,0.6c0.1,0,0.1,0,0.1,0c0,0.1,0.1,0.1-0.1,0.2c0-0.1,0-0.1,0-0.1v0.1
								c-0.1,0.1,0-0.1-0.1-0.1c0,0.2,0.1,0.4,0,0.6c-0.1,0,0-0.4-0.1-0.1l0.1-0.2c-0.2,0.1,0.1-0.1-0.1,0c-0.1,0.3,0,0.3-0.1,0.6
								c0.1,0.1,0.1,0,0.1,0.1c0,0.4-0.4,0.2-0.3,0.6c0.1,0.1,0.2,0.1,0.1,0.4l-0.1-0.1c-0.1,0.3,0.2,0.2,0,0.4
								c-0.1-0.1,0-0.2,0-0.2c-0.1,0.1,0.1,0.1,0,0.3h-0.1c-0.1,0.3,0,0.6-0.1,0.9c-0.1,0-0.1-0.1-0.1,0c0,0.4-0.2,0.9-0.4,1.2
								l0.1,0.1c0,0-0.1,0.1-0.1,0c-0.1,0.1,0.1,0,0.1,0.1c0,0.1-0.1,0.1-0.1,0c0.1,0.3,0.1,0.8-0.1,1.1V377
								c-0.1,0.2,0.3,0.3,0.1,0.5v-0.1c-0.1,0.4-0.1,1-0.4,1.3c0.2,0.1-0.2,0.4,0.1,0.6c-0.2,0.2-0.3,0.1-0.5,0.5
								c-0.1,0.1,0.2,0.2,0.2,0.4h-0.2l0.1,0.2l-0.2,0.1v0.1c0-0.1,0.1-0.1,0.1-0.1c0.1,0.2-0.2,0.4-0.4,0.4l0.1,0.4
								c-0.1,0-0.1-0.1-0.1-0.1c0.1,0.3-0.2,0-0.1,0.2c0.1,0,0.1,0.1,0.1,0.1c-0.1,0.1-0.2,0.4-0.2,0.5l-0.1-0.1
								c-0.1,0.3-0.1,0.7-0.1,1.1c0.1-0.1,0.3-0.1,0.4,0.1h-0.2c0.1,0.1,0.1-0.1,0.2,0.1c-0.1,0.1-0.3,0.1-0.3-0.1l0.1,0.1
								c-0.1,0-0.1-0.1-0.1-0.1c0.1,0.1-0.3,0.2-0.1,0.4h-0.1c-0.1,0.4-0.1,0.6-0.1,0.9c0.2,0.1,0.1,0.1,0.3,0.3
								c-0.1,0.2-0.3,0.4-0.4,0.6c0.1,0.2,0.1,0.1,0.2,0.2c-0.1,0-0.2,0.2-0.3,0.1c-0.1,0.3-0.1,0.4,0,0.9c0.1,0,0.1-0.1,0.1,0
								s-0.1,0.1-0.2,0.1c0.1,0.5-0.7,0.9-0.4,1.3l0.1,0.4c-0.1,0.1-0.1-0.1-0.2,0c0.2,0.4-0.1,0.6,0,1c-0.6,0.1-0.1,0.9-0.6,1.1
								h0.1c0.1,0.1-0.1,0.1-0.1,0.1c0.1,0,0.1-0.1,0.2,0c0,0.8-0.5,1.5-0.7,2.2c-0.1,0.3,0.6,0.3,0.2,0.6l-0.2-0.1
								c0.1,0.6-0.2,1.1-0.1,1.8c-0.1-0.1-0.1-0.1-0.1-0.1c-0.2,0.1-0.1,0.4,0.1,0.4c0,0.1-0.1,0-0.2,0.1c-0.1,0.1,0.1,0.4,0,0.4
								l-0.1-0.1c0.1,0.1-0.1,0.4,0.1,0.3c-0.1,0.2,0,0.4-0.1,0.6c0.2,0.1-0.1,0.4,0.1,0.4c-0.3-0.1-0.3,0.3-0.2,0.5
								c-0.1-0.1-0.1,0.1-0.2,0c0,0.1,0,0.3,0.1,0.3c-0.4,0.2,0.2,0.6-0.3,0.6c0.1,0.5,0.1,0.9,0.1,1.3c-0.3-0.1,0.1-0.4-0.3-0.5
								c0.1,0.4,0.3,0.6,0.1,1c-0.1,0.1-0.1-0.1-0.1-0.1c0.1,0.4-0.1,0.7-0.1,1.1l-0.1-0.1c0,0.1-0.1,0.1,0.1,0.1V401
								c0.2-0.1,0.4,0.4,0.4,0.4c-0.4-0.2-0.1,0.3-0.6,0.1c0,0.1,0.1,0.1,0.1,0.1c0,0.1-0.1,0.1-0.1,0c0,0.3,0.1,0.2,0.1,0.4
								c-0.1,0-0.1-0.1-0.1-0.1c0.1,0.1,0.2,0.3,0.1,0.4c0,0-0.1,0-0.1-0.1c-0.1,0.3,0.2,0.6,0,0.9c-0.2-0.1-0.1,0.1-0.3,0.1v0.2
								l0.1-0.1c0,0.1,0.1,0.4,0,0.4l-0.1-0.1v0.3l0.1-0.1c0.1,0.2,0.3,0,0.1,0.2c0-0.1,0,0.1-0.1,0.2c0.1,0.1,0.1,0.2,0,0.3
								c-0.1,0-0.2-0.1-0.3-0.1c0.1,0.1,0,0.4,0.1,0.5c0-0.1-0.1-0.1-0.1-0.1l0.1,0.1c-0.1,0.1-0.1,0.1-0.1,0.1
								c-0.1,0.2,0.3,0,0.1,0.2c0,0,0,0-0.1-0.1c-0.1,0.3,0,0.6-0.1,0.8c-0.2,0.1,0-0.2-0.1-0.1c0,0.4,0.1,0.8,0,1.1v-0.1
								c0.2,0.1-0.1,0.2-0.1,0.4c0-0.1-0.1-0.1-0.1-0.1c-0.1,0.2,0,0.5,0,0.8l-0.1-0.1c-0.1,0.1-0.1,0.4-0.1,0.5
								c0.1,0.1,0,0.1,0.1,0.1c-0.4,0.4,0,0.9-0.3,1.3c0-0.1,0-0.1,0-0.1v0.4c0.1,0,0.1-0.1,0.1-0.1c0.1,0.1,0.1,0.1,0,0.2
								c0-0.1-0.1,0-0.1,0.1h0.1c-0.1,0.1,0.1,0.1,0,0.3c0,0.1,0,0.2,0,0.3c-0.1,0,0-0.1-0.1-0.1c0,0.1,0.1,0.3,0,0.4
								c0-0.1,0-0.1,0-0.2c-0.1,0.1-0.1,0.1-0.1,0.2l-0.1,0.2v-0.1c0.1,0.2,0,0.4,0.1,0.6c-0.1-0.3-0.1-0.1-0.1-0.1
								c0,0.1-0.1,0.1-0.1,0.1c0.1,0.1-0.1,0.2,0,0.4c0,0,0,0.1-0.1,0.1c0,0.1,0.1,0,0.1,0c0,0.2-0.1,0.5-0.1,0.8c0,0.3,0,0.4,0,0.6
								c0,0.1,0-0.1,0-0.1c-0.1,0.1-0.1,0.2-0.1,0.4c0,0,0,0,0,0.1c0,0.1,0,0.1,0,0.2c0,0,0-0.1,0-0.1c0,0.1,0,0.3,0,0.4
								c0,0,0-0.1,0-0.1c0,0.1-0.1,0.4-0.1,0.4v-0.1c0,0.1,0,0,0,0c0-0.1,0-0.2,0.1-0.2v0.1c0.1-0.1,0.1-0.4,0.1-0.6v0.1v-0.2
								c0-0.1,0.1-0.1,0.1,0c0.1-0.1,0-0.1,0.1-0.2v-0.1c0,0,0.1,0,0,0.1c0.1-0.2,0.1-0.4,0.1-0.5c0.1-0.4-0.1-0.1-0.1-0.3l0.1-0.1
								l-0.1-0.1c0,0,0-0.1,0.1-0.1c0-0.1,0,0-0.1-0.1c0.1-0.1,0.1-0.4,0.1-0.5c-0.1-0.1-0.1,0.1-0.1,0c0.1,0,0-0.2,0.1-0.4
								c0.1,0.1,0,0.2,0.1,0.1c-0.1-0.1,0.1-0.3,0.1-0.4c-0.1,0,0-0.3,0-0.5c0,0,0.1-0.4,0.2-0.6c-0.1-0.1-0.1-0.3,0-0.4
								c0.1,0,0.1,0.1,0.1,0.1V410c0-0.1-0.1-0.1,0-0.1l0.1,0.1c0.1-0.2,0-0.4,0.1-0.6c-0.1,0-0.3,0.1-0.3-0.1c0.1,0,0.1,0,0.1,0.1
								c0,0,0-0.1,0-0.1l0.1,0.1c0.1-0.1-0.1-0.1,0-0.1c0.1,0,0.1-0.1,0.1,0c0,0-0.1,0.1,0,0.1c0-0.1,0.1-0.2,0.1-0.2
								c-0.1,0-0.1,0-0.1-0.1c0-0.2,0.1-0.1,0.1-0.1c-0.1-0.1,0.1-0.1-0.1-0.2c0-0.1,0.1-0.1,0.1-0.1c0-0.1,0.1-0.4-0.1-0.4
								c-0.1-0.4,0.2-0.6,0.2-0.9h0.1c0-0.2,0.1-0.4,0-0.6c0-0.1,0.1-0.1,0.1-0.1c0-0.1-0.1-0.1,0.1-0.4c0.1,0.1,0.1,0,0,0.1
								c0.1-0.1,0.1-0.2,0.1-0.4c0.1,0.1,0.2-0.1,0.1-0.2l-0.1,0.1c0-0.1,0-0.2,0.1-0.3l0.1,0.1c0.3-0.4-0.2-0.7,0.2-0.9
								c-0.1-0.1-0.1,0.2-0.2,0.1c0.1-0.1,0.4-0.3,0.4-0.4c0.1-0.2-0.2-0.3-0.1-0.5c-0.1,0-0.2,0-0.3-0.2c0.1-0.1,0.3-0.1,0.4-0.1
								c0,0.1,0,0.1-0.1,0.1c0,0.1,0,0.1,0.1,0.1h-0.1c0.1-0.1,0.1-0.3,0.2-0.2c0-0.1-0.1-0.1-0.1,0c0.1-0.2,0.1-0.4,0.2-0.6
								c-0.1,0-0.1,0.1-0.1,0c0.1-0.3-0.1-0.1-0.1-0.4c0.1-0.1,0.2,0.1,0.2-0.1c0.1-0.1,0.2,0,0.2,0.1c-0.1-0.2,0.1-0.4,0.2-0.5v0.1
								c0-0.1,0-0.1,0-0.1h-0.1c0.1-0.1,0.1-0.1,0.1-0.1c-0.1-0.1-0.2,0-0.4-0.1c0.1-0.1,0-0.3,0.1-0.3c-0.1,0.3,0.2,0,0.1,0.2
								c0-0.1,0-0.1,0.1-0.1c0,0,0.1,0,0.1,0.1c0.2-0.2-0.2-0.1-0.1-0.4c0.1,0.1,0.2,0,0.2-0.1c0,0.1-0.2,0-0.2-0.1
								c0.1-0.1,0-0.2,0-0.3l-0.1,0.1c-0.1-0.1-0.1-0.1-0.1-0.3c0.1,0,0,0.1,0.1,0.1c-0.1-0.1,0.3-0.3,0.1-0.5c0.1-0.1,0.2,0,0.3,0
								c-0.1-0.2,0.2-0.2,0.1-0.4c-0.1,0-0.1,0.1-0.2-0.1v0.4l-0.1-0.3c0,0.1,0.1,0.2,0,0.3c-0.1-0.1-0.1-0.1-0.2-0.1
								c0.3-0.1-0.1-0.3,0.1-0.4l0.4,0.1c0.2-0.2-0.1-0.5,0.1-0.8l-0.1,0.1c-0.1-0.1,0-0.2,0-0.4c0.1,0,0.2,0,0.3-0.1
								c-0.1,0,0.1-0.2-0.2-0.3l0.2-0.1c0.1-0.3-0.3-0.4-0.2-0.6c0.1,0.1,0.2,0,0.3,0.2c0-0.1,0.1-0.1,0-0.1c0.1,0-0.1-0.3,0-0.4
								c-0.1-0.1-0.2-0.1-0.1-0.2h0.1c-0.1,0-0.1-0.1-0.2-0.1c0.5-0.2,0.1-0.7,0.5-0.9c0-0.2,0-0.4,0-0.6c0.1,0,0.1,0,0.1,0.1
								c0.1-0.2-0.4-0.2-0.1-0.4c0.2-0.1,0.1,0.1,0.2,0.1c0.4,0.1,0-0.4,0.3-0.5v0.1c0.2-0.1-0.1-0.4,0-0.6h0.1
								c-0.2-0.2-0.2-0.5-0.2-0.7c0.1,0.1,0.1,0.1,0.3,0.1c0-0.1-0.3,0-0.3-0.2c0.1-0.1,0.2-0.1,0.4-0.1v0.2
								c0.3-0.1,0.1-0.2,0.1-0.4h0.1c0-0.3-0.3-0.4-0.1-0.6h-0.1c-0.2-0.2,0.2-0.1,0-0.3h0.3c-0.1-0.1-0.2-0.4-0.2-0.6
								c0.2,0.1,0.2,0.4,0.4,0.6c0-0.1,0.1-0.4-0.1-0.4c0,0.1,0.1,0.1,0,0.1c-0.2-0.1-0.3-0.4-0.2-0.6c0.5,0.1,0.2-0.5,0.7-0.6
								c-0.1-0.4,0.2-0.7,0.3-1.2c-0.4,0.1,0-0.1-0.4-0.2c0-0.1,0-0.1,0.1-0.1l0.3-0.3c0.1-0.1,0.1,0.1,0.1,0.1
								c0.1-0.2,0.2-0.1,0.4-0.2c-0.1,0-0.2-0.1-0.1-0.2l-0.2,0.1c-0.1-0.4,0.4-0.2,0.2-0.6l0.1,0.1c-0.1-0.1,0.1-0.6-0.2-0.9
								c0.1,0,0.1,0,0.2,0.1c0.1-0.4-0.2-0.9,0.1-1.2l0.1,0.1c0-0.1-0.1-0.1-0.1-0.2c0.1,0,0.1,0.1,0.1,0c0-0.1-0.1-0.2-0.1-0.3
								l0.1,0.1c0.2-0.4-0.1-0.6-0.1-1c0.3,0.1,0.4-0.2,0.5-0.4h0.1c0.1-0.4-0.1-0.8-0.1-1.2c0.4-0.2,0.3-0.9,0.5-1.2
								c-0.1,0.1-0.2-0.1-0.2-0.1c0.1-0.1-0.1-0.3,0.1-0.2c0.3,0,0.2-0.2,0.3-0.4l-0.3-0.1c0.6-0.3,0-1.1,0.5-1.2
								c-0.1-0.1-0.1-0.2-0.1-0.4l0.1,0.1c0.1-0.3,0.1-0.4,0.1-0.7l0.1,0.1c0.1-0.2-0.4-0.4-0.4-0.5h0.2c0.1-0.4,0.3-0.6,0.1-1
								c0,0,0.1,0,0.1,0.1c0-0.1,0.2-0.6-0.1-0.6c0.2,0,0.1-0.4,0-0.5l0.1,0.1c-0.1-0.2-0.2-0.2-0.2-0.4c0-0.1,0.1,0,0.1,0.1
								c0.1-0.1-0.1-0.1,0-0.4l0.1,0.1c0.1-0.1,0-0.1-0.1-0.3c0-0.1,0.1-0.3,0.2-0.3c-0.1-0.1-0.1-0.1-0.1-0.2
								c0.1,0,0.1,0.1,0.1,0.1c0.1-0.3-0.1-0.4,0.1-0.6c0.1,0,0.1,0,0.1,0c-0.1,0.2-0.1,0.4-0.1,0.4c0.1,0,0.1-0.1,0.3,0
								c-0.1-0.1-0.2-0.4-0.1-0.6c0,0,0,0,0.1,0c0-0.1,0-0.1,0-0.1c0-0.1,0.1-0.1,0.1-0.1c0.1,0,0.1-0.2,0.1-0.3
								c-0.1,0-0.1-0.1-0.2-0.1c0,0,0,0,0,0.1c0,0,0,0,0,0.1c0,0.1,0,0.1,0,0.2c-0.1-0.1-0.1-0.1,0-0.3c-0.1-0.1-0.1-0.1-0.1-0.1
								c0.2-0.1,0.3-0.3,0.4-0.4c0-0.3,0.1-0.6-0.1-0.9c0-0.1,0.1-0.1,0.1-0.1c0,0.1,0,0.1,0,0.1c0-0.1,0.1-0.5-0.1-0.6
								c0.1-0.2,0.1,0.1,0.1-0.1v0.1c0.3-0.5-0.1-0.9,0.2-1.5c0,0.1,0,0.1-0.1,0.1c0.2-0.6,0.1-1.4,0.4-2.1c0.1-0.2,0-0.2,0-0.4h0.1
								v-0.2c0-0.3,0.1-0.5,0.1-0.9v0.1c0-0.1,0.1-0.4,0.1-0.4v-0.1l0.1-0.3c0.1-0.2,0,0.1,0.1-0.3c0-0.1,0-0.3,0.1-0.4
								c0,0,0,0.1,0,0.1v-0.1c0,0,0-0.1-0.1,0.1l-0.1,0.2v0.1l0.1-0.1c0,0.1-0.1,0.1-0.1,0.2v0.1v0.2c0,0,0-0.1-0.1,0.1
								c0,0.1,0.1-0.1,0,0.1c-0.1,0.1-0.1,0.1-0.1,0.2c0,0,0,0,0-0.1c0,0.1-0.1,0.3-0.1,0.4c-0.1,0.1-0.1,0.4-0.1,0.4
								c0,0,0,0.2,0,0.3c0-0.2-0.1,0.4-0.1,0.3c0.1,0.1-0.1,0.4-0.1,0.7v-0.1c-0.1,0.1-0.1,0.1-0.1,0.2c0.1,0,0.1,0.2,0.1,0.4
								c-0.1,0.1-0.1-0.1-0.1-0.1c0.1,0,0,0.3,0.1,0.2c-0.1,0.1-0.1,0.1-0.1,0.1c0.1,0.1,0,0.1,0.1,0.2c-0.1,0.1-0.1,0-0.1,0.2
								C125.7,370.2,125.7,370,125.7,370z M125,374.5C125,374.4,125,374.4,125,374.5L125,374.5z M124.9,374.9c0-0.1,0-0.1,0.1-0.1
								c0.1,0,0.1,0,0.1,0.1C125,374.8,125,374.8,124.9,374.9z M125.9,374.3C125.9,374.3,125.9,374.3,125.9,374.3
								C125.8,374.3,125.8,374.3,125.9,374.3C125.8,374.2,125.9,374.2,125.9,374.3z"/>
							<path id="Vector_129" class="st14" d="M118,411.2l-0.1,0.1C118,411.3,118,411.3,118,411.2z"/>
							<path id="Vector_130" class="st14" d="M119.3,404.2c0-0.1-0.1-0.1-0.1-0.1C119.2,404.2,119.2,404.2,119.3,404.2z"/>
							<path id="Vector_131" class="st14" d="M119.3,403.9c-0.1,0.1-0.1,0.1,0,0.1C119.3,404,119.3,404,119.3,403.9z"/>
							<path id="Vector_132" class="st14" d="M117.6,413.7c0,0.1-0.1,0.1-0.1,0.3C117.5,414,117.6,413.8,117.6,413.7z"/>
							<path id="Vector_133" class="st14" d="M118,412.7l-0.1,0.2c0-0.1,0.1-0.1,0.1,0C118.1,412.6,118,412.9,118,412.7z"/>
							<path id="Vector_134" class="st14" d="M118.2,411.9C118.2,412,118.2,411.9,118.2,411.9C118.2,411.9,118.2,411.8,118.2,411.9z
								"/>
							<path id="Vector_135" class="st14" d="M119.4,406.7h0.1C119.4,406.6,119.4,406.8,119.4,406.7z"/>
							<path id="Vector_136" class="st14" d="M118.9,405.6l-0.1,0.1l0.1,0.1V405.6z"/>
							<path id="Vector_137" class="st14" d="M121.8,396.4h-0.2C121.6,396.5,121.8,396.6,121.8,396.4z"/>
							<path id="Vector_138" class="st14" d="M122.3,392.6c0.1,0,0.2-0.1,0.1-0.2C122.4,392.5,122.3,392.5,122.3,392.6z"/>
							<path id="Vector_139" class="st14" d="M124.8,381.3l0.1,0.1L124.8,381.3L124.8,381.3z"/>
						</g>
						<g id="Group_17">
							<path id="Vector_140" class="st14" d="M275.3,413.7v-0.1C275.3,413.6,275.3,413.6,275.3,413.7z"/>
							<path id="Vector_141" class="st14" d="M275.7,415.9C275.8,416,275.8,416,275.7,415.9L275.7,415.9z"/>
							<path id="Vector_142" class="st14" d="M275.8,417.6C275.8,417.5,275.8,417.5,275.8,417.6L275.8,417.6z"/>
							<path id="Vector_143" class="st14" d="M275.5,414.7C275.6,414.7,275.6,414.7,275.5,414.7
								C275.6,414.6,275.6,414.7,275.5,414.7z"/>
							<path id="Vector_144" class="st14" d="M269,392.8c-0.1,0.2-0.3-0.1-0.4,0.1C268.7,392.9,269,393,269,392.8z"/>
							<path id="Vector_145" class="st14" d="M273.1,402.8C273,402.9,273,402.9,273.1,402.8C273,402.9,273,402.9,273.1,402.8z"/>
							<path id="Vector_146" class="st14" d="M258.4,375.5C258.4,375.4,258.4,375.4,258.4,375.5
								C258.4,375.5,258.3,375.3,258.4,375.5z"/>
							<path id="Vector_147" class="st14" d="M270.9,402l-0.1-0.2C270.9,401.9,270.9,402,270.9,402z"/>
							<path id="Vector_148" class="st14" d="M270.6,401.2c0.1-0.1,0.1-0.1,0.1-0.1s0,0-0.1,0V401.2z"/>
							<path id="Vector_149" class="st14" d="M257.5,374.2c0.1,0.2,0.1,0.1,0.2,0.1c0.1,0.2,0,0.1,0,0.3c0.1,0.1,0.2,0.2,0.3,0.3
								c0,0,0,0.1-0.1,0c0.1,0.1,0.3,0.4,0.4,0.6c0,0,0,0,0,0.1c0-0.1,0.1-0.1,0.1-0.1c0.1,0.1,0.1,0.1,0.1,0.2
								c0-0.1-0.1-0.1-0.1-0.1l0.1,0.1c-0.1,0.1-0.1-0.1-0.1-0.1c0.1,0.1,0.4,0.3,0.4,0.4c-0.1,0.1-0.2-0.3-0.2-0.1l-0.1-0.2
								c-0.1,0.3-0.1-0.1-0.1,0.1c0.1,0.3,0.2,0.3,0.4,0.6c0.1,0,0.1-0.1,0.1-0.1c0.4,0.4-0.1,0.5,0.2,0.6c0.1,0,0.3,0,0.3,0.2h-0.1
								c0.1,0.3,0.3,0.1,0.4,0.4c-0.1,0-0.1-0.2-0.1-0.1c0,0.2,0.1,0.1,0.2,0.2l-0.1,0.1c0.1,0.3,0.4,0.6,0.6,0.9
								c-0.1,0-0.1,0-0.1,0.1c0.3,0.4,0.4,0.9,0.6,1.3l0.2,0.1c0,0,0,0.1-0.1,0.1c0,0.1,0.1-0.1,0.1,0c0.1,0.1,0,0.1-0.1,0.1
								c0.2,0.2,0.6,0.6,0.6,1h-0.1c0.1,0.3,0.4,0.1,0.4,0.4h-0.1c0.2,0.5,0.6,0.9,0.6,1.4c0.2-0.1,0.1,0.5,0.5,0.4
								c0,0.4-0.1,0.3,0,0.7c0.1,0.1,0.3,0.1,0.4,0.1l-0.1,0.1l0.3,0.1l-0.1,0.2l0.1,0.1c0-0.1,0-0.1,0.1-0.1c0.1,0.1,0.1,0.5,0,0.6
								l0.4,0.4c-0.1,0-0.1,0-0.2-0.1c0.3,0.1-0.1,0.1,0.1,0.3c0-0.1,0.1-0.1,0.1-0.1c-0.1,0.1,0.1,0.4,0.2,0.6h-0.1
								c0.1,0.4,0.4,0.6,0.6,1c0-0.1,0.2-0.2,0.3-0.1l-0.1,0.1c0.1,0,0-0.1,0.2-0.1c0.1,0.1-0.1,0.2-0.3,0.1l0.1,0.1
								c-0.1,0.1-0.1,0-0.2,0.1c0.1,0-0.1,0.4,0.2,0.4l-0.1,0.1c0.1,0.4,0.4,0.5,0.5,0.8c0.1-0.1,0.2,0.1,0.4,0.1
								c0.1,0.2,0.1,0.6,0.2,0.8c0.1,0.1,0.1,0,0.3,0c-0.1,0.1,0,0.4-0.2,0.3c0.2,0.3,0.2,0.4,0.6,0.7c0.1-0.1,0.1-0.1,0.1-0.1
								c0.1,0.1,0,0.2-0.1,0.2c0.4,0.4,0,1.3,0.5,1.5l0.4,0.3c0.1,0.2-0.1-0.1-0.2,0.1c0.4,0.3,0.3,0.6,0.6,0.9
								c-0.4,0.5,0.4,0.9,0.3,1.4l0.1-0.1c0.1,0.1,0,0.1,0,0.2c0.1-0.1,0.1-0.1,0.1-0.1c0.5,0.7,0.5,1.6,0.8,2.5
								c0.1,0.3,0.6-0.1,0.6,0.4h-0.3c0.5,0.5,0.5,1.2,0.9,1.7c-0.1,0-0.1,0-0.1-0.1c-0.1,0.2,0.1,0.4,0.3,0.4
								c0,0.1-0.1,0.1-0.1,0.1c-0.1,0.1,0.4,0.2,0.2,0.4h-0.1c0.1,0.1,0.1,0.4,0.3,0.2c0,0.3,0.2,0.4,0.2,0.6
								c0.2,0.1,0.1,0.4,0.4,0.4c-0.3,0.1-0.1,0.5,0.1,0.6c-0.1,0-0.1,0.1-0.2,0.1c0.1,0.1,0.1,0.3,0.3,0.2
								c-0.2,0.4,0.5,0.5,0.1,0.8c0.3,0.4,0.6,0.9,0.8,1.2c-0.3,0.1-0.2-0.4-0.5-0.4c0.3,0.4,0.6,0.5,0.6,0.9c0,0.1-0.1,0-0.2-0.1
								c0.3,0.4,0.2,0.8,0.5,1.1c0,0-0.1,0-0.1-0.1c0,0.1,0,0.1,0.1,0.1l-0.1-0.1c0.1-0.1,0.4,0.1,0.6,0.1c-0.4,0,0,0.4-0.5,0.4
								c0.1,0.1,0.1,0.1,0.2,0.1c0,0.1-0.1,0.1-0.1,0.1c0.1,0.2,0.2,0.1,0.3,0.4c-0.1,0-0.1,0-0.1,0c0.1,0.1,0.3,0.1,0.3,0.4
								c-0.1,0-0.1,0-0.1,0c0.1,0.4,0.4,0.5,0.4,0.9c-0.3-0.1-0.1,0.1-0.2,0.2l0.1,0.2l0.1-0.1c0.1,0.1,0.2,0.3,0.2,0.4l-0.1-0.1
								l0.1,0.3v-0.2c0.1,0.1,0.2-0.1,0.3,0.1c0-0.1,0.1,0.1-0.1,0.3c0.1,0.1,0.1,0.1,0.1,0.3c-0.1,0.1-0.2,0-0.3,0.1
								c0.2,0.1,0.1,0.4,0.4,0.5c-0.1,0-0.1,0-0.1,0l0.1,0.1c0,0.1-0.1,0.1-0.1,0.1c0.1,0.3,0.2-0.1,0.2,0.2c0,0,0,0-0.1-0.1
								c0,0.3,0.2,0.6,0.2,0.8c-0.1,0.1-0.1-0.2-0.2-0.1c0.1,0.4,0.4,0.8,0.4,1.1v-0.1c0.2,0-0.1,0.3,0.1,0.5c0-0.1-0.1-0.1-0.1,0
								c0,0.3,0.1,0.5,0.4,0.9l-0.1-0.1c0,0.1,0.1,0.4,0.1,0.6c0.1,0.1,0.1,0.1,0.1,0.1c-0.2,0.6,0.3,1,0.1,1.4
								c0-0.1-0.1-0.1-0.1-0.1l0.1,0.4c0.1-0.1,0-0.1,0.1-0.1c0.1,0.1,0.1,0.1,0.1,0.2c-0.1-0.1-0.1,0-0.1,0.1h0.1
								c-0.1,0.2,0.1,0,0.1,0.3h-0.1c0,0.1,0.1,0.2,0.1,0.3c-0.1,0.1-0.1-0.1-0.1-0.1c0,0.1,0.2,0.3,0.1,0.4c0-0.1-0.1-0.1-0.1-0.2
								c-0.1,0.1-0.1,0.2-0.1,0.3v0.3v-0.1c0.2,0.2,0.1,0.4,0.2,0.6c-0.1-0.3-0.1-0.1-0.1-0.1c0,0.1,0,0.1-0.1,0.1
								c0.1,0.1,0,0.2,0.1,0.4c0,0,0,0.1-0.1,0.1c0,0.1,0-0.1,0.1,0c0.1,0.3,0,0.6,0.1,1c0.1,0.3,0.1,0.4,0.1,0.6
								c0,0.1-0.1-0.1-0.1-0.1c0,0.1,0,0.3,0,0.4c0,0,0,0,0,0.1c0,0.1,0.1,0.1,0,0.2c0,0,0-0.1-0.1-0.1c0,0.1,0,0.3,0.1,0.4
								c0,0.1,0-0.1,0-0.1c0,0.1,0,0.4,0.1,0.5v-0.1c0,0.1,0,0,0,0c0-0.1,0-0.2,0-0.2v0.1c0.1-0.1,0-0.4,0-0.6l0.1,0.1l-0.1-0.2
								c0-0.1,0.1-0.1,0.1,0c0-0.1,0-0.1,0-0.3c0-0.1,0-0.1,0-0.1c0,0,0.1,0,0,0.1c0-0.3-0.1-0.4,0-0.5c-0.1-0.4-0.1,0-0.1-0.3
								l0.1-0.2h-0.1c0-0.1,0-0.1,0-0.1c-0.1-0.1,0,0-0.1-0.1c0.1-0.2-0.1-0.5,0.1-0.6c-0.1-0.1,0,0.2-0.1,0c0.1-0.1,0-0.2,0-0.4
								c0.1,0.1,0.1,0.2,0.1,0c-0.1-0.1,0-0.4,0-0.5c-0.1,0-0.1-0.3-0.1-0.6c0,0,0-0.4,0.1-0.7c-0.1,0-0.1-0.3-0.1-0.4
								c0.1,0,0.1,0,0.1,0.1v-0.1c-0.1,0-0.1-0.1-0.1-0.1h0.1c0-0.2-0.1-0.4-0.1-0.7c-0.1,0-0.2,0.2-0.4,0c0.1,0,0.1-0.1,0.1,0
								c0,0-0.1-0.1-0.1-0.1l0.1,0.1c0-0.1-0.1-0.1-0.1-0.1c0.1,0,0.1-0.1,0.1-0.1s0,0.1,0,0.1c0-0.1,0-0.3,0.1-0.3
								c-0.1,0-0.1,0-0.1-0.1c0-0.2,0.1-0.1,0.1-0.2c-0.1-0.1,0-0.2-0.1-0.1c0-0.1,0.1-0.1,0.1-0.1c-0.1-0.1-0.1-0.5-0.2-0.4
								c-0.2-0.4-0.1-0.7-0.1-1.1h0.1c-0.1-0.2-0.1-0.4-0.2-0.6c0-0.1,0.1-0.1,0.1-0.1c-0.1-0.1-0.1-0.1-0.1-0.4
								c0.1,0.1,0.1-0.1,0.1,0.1c0-0.2,0.1-0.3-0.1-0.5c0.1,0.1,0.1-0.2,0.1-0.3l-0.1,0.1c-0.1-0.1-0.1-0.2-0.1-0.3h0.1
								c0.1-0.5-0.5-0.7-0.2-1.1c-0.1-0.1,0,0.2-0.2,0.2c0-0.2,0.2-0.4,0.1-0.5c0.1-0.3-0.3-0.2-0.3-0.5c-0.1,0.1-0.2,0.1-0.4-0.1
								c0-0.2,0.2-0.3,0.3-0.2c0,0.1,0,0.1,0,0.1c0.1,0.1,0.1,0.1,0.1,0.1h-0.1c0.1-0.1,0-0.4,0.1-0.4c-0.1-0.1-0.1,0-0.1,0.1
								c0-0.3-0.1-0.4-0.1-0.6c0,0.1-0.1,0.1-0.1,0.1c0-0.4-0.1-0.1-0.3-0.4c0.1-0.1,0.3,0,0.1-0.2c0-0.1,0.1-0.1,0.2-0.1
								c-0.2-0.2,0-0.4,0-0.6l0.1,0.1c-0.1-0.1-0.1-0.1-0.1-0.2l-0.1,0.1c0-0.1,0-0.1,0.1-0.1c-0.1-0.1-0.2,0.1-0.4,0
								c0.1-0.1-0.1-0.3,0-0.4c0,0.3,0.1-0.1,0.3,0.1c0-0.1-0.1-0.1-0.1-0.2h0.1c0.1-0.4-0.2-0.1-0.3-0.4c0.1,0,0.1-0.1,0.1-0.1
								c0,0.1-0.1,0.1-0.3,0c0-0.2-0.1-0.2-0.1-0.3v0.1c-0.1,0-0.1-0.1-0.2-0.2c0.1-0.1,0.1,0.1,0.1,0.1c-0.2-0.1,0.1-0.4-0.1-0.6
								c0.1-0.1,0.2-0.1,0.2-0.1c-0.2-0.2,0.1-0.3-0.1-0.5c-0.1,0.1-0.1,0.1-0.3,0l0.2,0.4l-0.3-0.2c0.1,0.1,0.1,0.2,0.1,0.3
								c-0.1-0.1-0.1-0.1-0.2,0c0.1-0.2-0.2-0.3-0.1-0.5l0.4-0.1c0.1-0.4-0.4-0.4-0.4-0.9v0.1c-0.1,0-0.1-0.2-0.2-0.3
								c0.1,0,0.1-0.1,0.2-0.2c-0.1,0.1-0.1-0.3-0.4-0.2l0.1-0.2c0-0.3-0.5-0.2-0.5-0.5c0.1,0.1,0.2-0.1,0.4,0
								c0-0.1-0.1-0.2-0.1-0.1c0.1-0.1-0.3-0.2-0.1-0.4c-0.1,0-0.2,0-0.2-0.1h0.1c-0.1,0-0.1-0.1-0.2,0c0.3-0.4-0.3-0.8-0.1-1.1
								c-0.1-0.2-0.3-0.4-0.4-0.6c0.1,0,0.1,0,0.1,0c0-0.3-0.4,0-0.4-0.4c0.1-0.2,0.1,0.1,0.2,0c0.4-0.2-0.2-0.4,0-0.6l0.1,0.1
								c0.1-0.2-0.3-0.3-0.4-0.6h0.1c-0.3-0.1-0.5-0.4-0.6-0.6c0.2,0,0.1,0.1,0.3-0.1c-0.1-0.1-0.3,0.1-0.4-0.1
								c0.1-0.1,0.1-0.3,0.3-0.4l0.1,0.2c0.2-0.2-0.1-0.2-0.1-0.4h0.1c-0.1-0.3-0.4-0.2-0.5-0.5l-0.1,0.1c-0.4-0.1,0.1-0.2-0.1-0.3
								l0.2-0.1c-0.1-0.1-0.4-0.3-0.6-0.5c0.2,0,0.4,0.2,0.6,0.4c-0.1-0.1-0.2-0.4-0.4-0.4c0.1,0,0.1,0.1,0.1,0.1
								c-0.3-0.1-0.4-0.2-0.6-0.4c0.5-0.1-0.1-0.6,0.2-1c-0.4-0.3-0.3-0.9-0.5-1.3c-0.3,0.4-0.1-0.1-0.4,0.1
								c-0.1-0.1-0.1-0.1-0.1-0.1l0.1-0.4c0.1-0.1,0.1,0.1,0.2,0c-0.1-0.2,0.1-0.1,0.1-0.4c-0.1,0.1-0.2,0-0.2-0.1l-0.1,0.3
								c-0.4-0.2,0.2-0.4-0.1-0.6l0.1,0.1c-0.1-0.1-0.3-0.6-0.7-0.6c0-0.1,0.1-0.1,0.2-0.1c-0.1-0.4-0.8-0.7-0.7-1.1h0.1
								c-0.1-0.1-0.2-0.1-0.2-0.2c0.1,0,0.1,0,0.1-0.1c-0.1,0-0.3-0.1-0.3-0.2h0.1c-0.1-0.4-0.6-0.5-0.8-0.8
								c0.3-0.1,0.2-0.5,0.1-0.6h0.1c-0.2-0.5-0.6-0.6-0.9-1c0.1-0.4-0.4-0.9-0.4-1.4c0,0.1-0.2,0.1-0.3,0c0-0.1-0.3-0.1-0.1-0.3
								v0.1c0.2-0.2,0-0.4-0.1-0.5l-0.3,0.1c0.2-0.6-0.7-1-0.5-1.4c-0.1-0.1-0.2-0.2-0.3-0.2l0.1-0.1c-0.1-0.3-0.1-0.4-0.4-0.7h0.1
								c-0.1-0.2-0.6,0-0.6-0.1l0.2-0.1c-0.2-0.4-0.2-0.7-0.6-1c0,0,0.1,0,0.1,0c-0.1-0.1-0.2-0.6-0.4-0.4c0.1-0.1-0.2-0.4-0.4-0.5
								l0.1-0.1c-0.2-0.1-0.3,0-0.4-0.2c0-0.1,0.1-0.1,0.1,0c0-0.2-0.2-0.1-0.2-0.3h0.1c-0.1-0.1-0.1-0.1-0.3-0.1
								c-0.1-0.1-0.1-0.4-0.1-0.4c-0.1,0-0.2,0-0.2-0.1h0.1c-0.1-0.3-0.4-0.4-0.4-0.6l0.1-0.1c0.1,0.2,0.2,0.4,0.2,0.4
								c0.1-0.1,0-0.2,0.2-0.2c-0.1-0.1-0.5-0.2-0.6-0.4c0,0,0,0,0-0.1c0-0.1-0.1-0.1-0.1-0.1c0-0.1,0-0.1-0.1-0.1
								c0.1-0.1-0.1-0.2-0.1-0.3c-0.1,0.1-0.1-0.1-0.1,0.1c0,0,0,0,0.1,0.1c0.1,0.1,0.1,0.1,0.1,0.2c-0.1-0.1-0.2-0.1-0.2-0.2
								c-0.1,0-0.2,0-0.2,0c0.1-0.2,0-0.5,0.1-0.6c-0.2-0.2-0.4-0.6-0.7-0.6c-0.1-0.1,0-0.1,0-0.1c0.1,0,0.1,0.1,0.1,0.1
								c-0.1-0.1-0.3-0.4-0.4-0.4c-0.1-0.2,0.1,0.1,0-0.2h0.1c-0.2-0.6-0.8-0.7-1-1.3c0,0.1,0,0.1,0,0.1c-0.4-0.7-0.9-1.3-1.3-2
								c-0.1-0.2-0.1-0.2-0.3-0.3v-0.1l-0.1-0.1c-0.2-0.2-0.2-0.5-0.5-0.8v0.1c-0.1-0.1-0.3-0.4-0.2-0.4c0,0-0.1,0-0.1-0.1l-0.2-0.3
								c-0.1-0.2,0.1,0-0.2-0.3c-0.1-0.1-0.2-0.2-0.2-0.3c0,0,0.1,0.1,0.1,0.1l-0.1-0.1c0,0-0.1-0.1,0.1,0.2l0.1,0.2v0.1l-0.1-0.1
								c0.1,0.1,0.1,0.1,0.1,0.2c0,0,0,0.1,0.1,0.1l0.1,0.2c0,0-0.1-0.1,0,0.1c0.1,0.1,0-0.1,0.1,0.1c0.1,0.1,0,0.1,0.1,0.2
								c0,0,0,0-0.1-0.1c0.1,0.1,0.1,0.3,0.2,0.3c0.1,0.1,0.2,0.4,0.1,0.4c0,0,0.1,0.1,0.2,0.2c-0.1-0.1,0.2,0.4,0.1,0.4
								c0.1,0.1,0.3,0.4,0.4,0.6c0,0-0.1,0-0.1-0.1c0.1,0.1,0.1,0.2,0.1,0.3c0.1,0,0.2,0.1,0.3,0.2c0,0.2-0.1-0.1-0.1,0.1
								c0.1-0.1,0.2,0.2,0.2,0.1c0,0.1,0.1,0.1,0,0.2c0.1-0.1,0.1,0.1,0.2,0.1c0.1,0.2-0.1,0.1,0.1,0.3
								C257.7,374.3,257.5,374.2,257.5,374.2z M260.3,378.5C260.3,378.4,260.2,378.4,260.3,378.5
								C260.2,378.4,260.2,378.4,260.3,378.5z M260.5,378.9c0-0.1-0.1-0.1-0.1-0.1c0,0,0.1-0.1,0.1,0
								C260.5,378.7,260.5,378.8,260.5,378.9z M260.8,377.7C260.9,377.7,260.9,377.7,260.8,377.7
								C260.8,377.7,260.7,377.7,260.8,377.7C260.7,377.7,260.7,377.7,260.8,377.7z"/>
							<path id="Vector_150" class="st14" d="M272.5,405.9C272.5,405.9,272.5,405.9,272.5,405.9
								C272.4,405.8,272.5,405.9,272.5,405.9z"/>
							<path id="Vector_151" class="st14" d="M274,409.3C273.9,409.3,273.9,409.3,274,409.3C273.8,409.3,273.8,409.4,274,409.3z"/>
							<path id="Vector_152" class="st14" d="M273.8,409.1c0,0.1,0,0.1,0.1,0.1C273.8,409.2,273.8,409.1,273.8,409.1z"/>
							<path id="Vector_153" class="st14" d="M275.7,420c0,0.1,0,0.2,0,0.3C275.7,420.3,275.8,420.1,275.7,420z"/>
							<path id="Vector_154" class="st14" d="M275.8,418.7v0.3c0-0.1,0.1-0.1,0.1,0C276,418.6,275.8,419,275.8,418.7z"/>
							<path id="Vector_155" class="st14" d="M275.8,417.9C275.8,418,275.9,417.9,275.8,417.9C275.8,417.8,275.8,417.8,275.8,417.9z
								"/>
							<path id="Vector_156" class="st14" d="M275,411.9h0.1C275.2,411.8,275.1,411.9,275,411.9z"/>
							<path id="Vector_157" class="st14" d="M274.2,411v0.1h0.1L274.2,411z"/>
							<path id="Vector_158" class="st14" d="M275,410.1l-0.1-0.1L275,410.1z"/>
							<path id="Vector_159" class="st14" d="M272.1,400.4l-0.2,0.1C272,400.5,272.2,400.5,272.1,400.4z"/>
							<path id="Vector_160" class="st14" d="M270.3,396.4c0.1-0.1,0.1-0.2,0-0.3C270.3,396.3,270.3,396.4,270.3,396.4z"/>
							<path id="Vector_161" class="st14" d="M264.9,384.5l0.1,0.1L264.9,384.5L264.9,384.5z"/>
						</g>
					</g>
				</g>
			</g>
		</g>
	</g>
	<g class="speech_bubble">
		<path id="Vector_162" class="st5" d="M414.1,210.1c70.4,0,127.4-41.1,127.4-91.7s-57-91.7-127.4-91.7
			c-70.4,0-127.4,41.1-127.4,91.7S343.8,210.1,414.1,210.1z"/>
		<path id="Vector_163" class="st15" d="M282.8,210.6l55.1-19.5c2.4-0.9,3.1-3.9,1.4-5.7l-33.6-34.9c-1.7-1.8-4.9-1.2-5.7,1.1
			L278.3,206C277.3,208.8,280,211.6,282.8,210.6z"/>
		<path id="info_x40_HJHMedical.com" class="st16" d="M320.8,132.5h2v8.5h-2V132.5z M321.9,131c-0.4,0-0.7-0.1-0.9-0.3
			c-0.2-0.2-0.4-0.5-0.4-0.9c0-0.3,0.1-0.6,0.4-0.8c0.2-0.2,0.5-0.4,0.9-0.4s0.7,0.1,0.9,0.3c0.2,0.2,0.4,0.5,0.4,0.8
			c0,0.4-0.1,0.7-0.4,0.9C322.5,130.9,322.2,131,321.9,131z M330.3,132.4c1.1,0,1.9,0.3,2.6,0.9s1,1.6,1,2.8v4.9h-2v-4.6
			c0-0.7-0.2-1.3-0.5-1.7c-0.4-0.4-0.9-0.6-1.5-0.6c-0.7,0-1.3,0.2-1.7,0.7c-0.4,0.4-0.6,1.1-0.6,1.9v4.3h-2v-8.5h1.9v1.1
			c0.3-0.4,0.7-0.7,1.2-0.9C329.1,132.5,329.7,132.4,330.3,132.4z M339.9,130.6c-0.8,0-1.3,0.5-1.3,1.4v0.5h2.4v1.6h-2.3v6.9h-2
			v-6.9h-1.4v-1.6h1.4V132c0-0.9,0.3-1.6,0.8-2.2c0.5-0.5,1.3-0.8,2.3-0.8c0.8,0,1.4,0.2,1.8,0.5L341,131
			C340.7,130.7,340.3,130.6,339.9,130.6z M346,141.1c-0.9,0-1.6-0.2-2.3-0.6c-0.7-0.4-1.2-0.9-1.6-1.6c-0.4-0.7-0.6-1.4-0.6-2.3
			c0-0.8,0.2-1.6,0.6-2.3c0.4-0.7,0.9-1.2,1.6-1.6c0.7-0.4,1.5-0.6,2.3-0.6c0.9,0,1.7,0.2,2.4,0.6c0.7,0.4,1.2,0.9,1.6,1.6
			c0.4,0.7,0.6,1.4,0.6,2.3c0,0.8-0.2,1.6-0.6,2.3c-0.4,0.7-0.9,1.2-1.6,1.6C347.7,140.9,346.9,141.1,346,141.1z M346,139.4
			c0.7,0,1.3-0.2,1.8-0.7c0.5-0.5,0.7-1.1,0.7-1.9c0-0.8-0.2-1.4-0.7-1.9c-0.5-0.5-1.1-0.7-1.8-0.7c-0.7,0-1.3,0.2-1.8,0.7
			c-0.5,0.5-0.7,1.1-0.7,1.9c0,0.8,0.2,1.4,0.7,1.9C344.7,139.2,345.3,139.4,346,139.4z M359.6,129.7c1.5,0,2.7,0.3,3.9,0.9
			c1.1,0.6,2,1.4,2.7,2.5c0.6,1.1,1,2.3,1,3.6c0,1.4-0.3,2.5-0.8,3.3c-0.5,0.8-1.3,1.2-2.3,1.2c-0.5,0-0.9-0.1-1.3-0.4
			c-0.4-0.2-0.6-0.6-0.7-1c-0.6,0.9-1.6,1.4-2.9,1.4c-0.7,0-1.4-0.2-2-0.5c-0.6-0.4-1-0.8-1.4-1.5c-0.3-0.6-0.5-1.3-0.5-2.1
			c0-0.8,0.2-1.5,0.5-2.1c0.3-0.6,0.8-1.1,1.4-1.4c0.6-0.4,1.2-0.5,2-0.5c0.6,0,1.1,0.1,1.5,0.3c0.5,0.2,0.8,0.5,1.2,0.8v-1h1.8v5.4
			c0,0.4,0.1,0.7,0.2,0.8c0.2,0.2,0.4,0.3,0.6,0.3c0.4,0,0.8-0.2,1-0.7c0.2-0.5,0.4-1.2,0.4-2.2c0-1.1-0.3-2.1-0.8-3
			c-0.5-0.9-1.2-1.5-2.2-2s-2-0.7-3.2-0.7c-1.2,0-2.3,0.3-3.2,0.8c-0.9,0.5-1.7,1.2-2.2,2.1c-0.5,0.9-0.8,1.9-0.8,3.1
			c0,1.2,0.3,2.2,0.8,3.1c0.5,0.9,1.2,1.6,2.2,2.1c0.9,0.5,2,0.8,3.2,0.8c0.5,0,1.1-0.1,1.6-0.2c0.5-0.1,1.1-0.3,1.5-0.5l0.4,1.3
			c-0.5,0.2-1,0.4-1.7,0.6c-0.6,0.1-1.3,0.2-1.9,0.2c-1.5,0-2.8-0.3-4-0.9c-1.1-0.6-2-1.5-2.7-2.6c-0.6-1.1-0.9-2.4-0.9-3.8
			c0-1.4,0.3-2.6,1-3.7c0.6-1.1,1.5-2,2.7-2.6C356.7,130,358.1,129.7,359.6,129.7z M359.4,139.5c0.7,0,1.3-0.2,1.7-0.7
			c0.4-0.5,0.7-1.1,0.7-1.9c0-0.8-0.2-1.4-0.7-1.8c-0.4-0.4-1-0.7-1.7-0.7c-0.7,0-1.3,0.2-1.7,0.7c-0.4,0.4-0.7,1.1-0.7,1.8
			c0,0.8,0.2,1.4,0.7,1.8S358.7,139.5,359.4,139.5z M379.2,129.8V141h-2.1v-4.8h-5.8v4.8h-2.1v-11.2h2.1v4.6h5.8v-4.6H379.2z
			 M384,141.2c-0.7,0-1.4-0.1-2-0.4c-0.6-0.3-1.1-0.7-1.5-1.2l1.2-1.4c0.6,0.9,1.4,1.3,2.2,1.3c1.2,0,1.7-0.7,1.7-2.1v-5.8h-4v-1.7
			h6.1v7.4c0,1.3-0.3,2.3-1,3C386.1,140.8,385.2,141.2,384,141.2z M400.6,129.8V141h-2.1v-4.8h-5.8v4.8h-2.1v-11.2h2.1v4.6h5.8v-4.6
			H400.6z M413.9,141l0-7.4l-3.7,6.1h-0.9l-3.7-6v7.3h-2v-11.2h1.7l4.4,7.4l4.4-7.4h1.7l0,11.2H413.9z M426.7,136.8
			c0,0.1,0,0.3,0,0.6H420c0.1,0.6,0.4,1.1,0.9,1.5c0.5,0.4,1.1,0.5,1.9,0.5c0.9,0,1.7-0.3,2.3-0.9l1.1,1.2c-0.4,0.5-0.9,0.8-1.5,1
			c-0.6,0.2-1.2,0.4-2,0.4c-0.9,0-1.8-0.2-2.5-0.6c-0.7-0.4-1.3-0.9-1.7-1.6c-0.4-0.7-0.6-1.4-0.6-2.3c0-0.8,0.2-1.6,0.6-2.2
			c0.4-0.7,0.9-1.2,1.6-1.6s1.4-0.6,2.3-0.6c0.8,0,1.6,0.2,2.2,0.6c0.7,0.4,1.2,0.9,1.5,1.6C426.5,135.1,426.7,135.9,426.7,136.8z
			 M422.4,134c-0.6,0-1.2,0.2-1.6,0.6c-0.4,0.4-0.7,0.9-0.8,1.5h4.8c-0.1-0.6-0.3-1.1-0.8-1.5C423.6,134.2,423,134,422.4,134z
			 M437,129.1V141h-1.9v-1.1c-0.3,0.4-0.7,0.7-1.2,0.9c-0.5,0.2-1,0.3-1.6,0.3c-0.8,0-1.6-0.2-2.2-0.5c-0.7-0.4-1.2-0.9-1.5-1.5
			c-0.4-0.7-0.6-1.4-0.6-2.3c0-0.9,0.2-1.6,0.6-2.3c0.4-0.7,0.9-1.2,1.5-1.5c0.7-0.4,1.4-0.5,2.2-0.5c0.6,0,1.1,0.1,1.6,0.3
			c0.5,0.2,0.9,0.5,1.2,0.9v-4.4H437z M432.5,139.4c0.5,0,0.9-0.1,1.3-0.3c0.4-0.2,0.7-0.5,0.9-0.9s0.3-0.9,0.3-1.4
			c0-0.5-0.1-1-0.3-1.4s-0.5-0.7-0.9-0.9c-0.4-0.2-0.8-0.3-1.3-0.3s-0.9,0.1-1.3,0.3c-0.4,0.2-0.7,0.5-0.9,0.9s-0.3,0.9-0.3,1.4
			c0,0.5,0.1,1,0.3,1.4s0.5,0.7,0.9,0.9C431.6,139.3,432,139.4,432.5,139.4z M439.6,132.5h2v8.5h-2V132.5z M440.6,131
			c-0.4,0-0.7-0.1-0.9-0.3c-0.2-0.2-0.4-0.5-0.4-0.9c0-0.3,0.1-0.6,0.4-0.8c0.2-0.2,0.6-0.4,0.9-0.4c0.4,0,0.7,0.1,0.9,0.3
			c0.2,0.2,0.4,0.5,0.4,0.8c0,0.4-0.1,0.7-0.4,0.9C441.3,130.9,441,131,440.6,131z M448.2,141.1c-0.9,0-1.7-0.2-2.4-0.6
			s-1.3-0.9-1.6-1.6c-0.4-0.7-0.6-1.4-0.6-2.3c0-0.8,0.2-1.6,0.6-2.3c0.4-0.7,0.9-1.2,1.6-1.6c0.7-0.4,1.5-0.6,2.4-0.6
			c0.8,0,1.6,0.2,2.2,0.5c0.6,0.3,1.1,0.8,1.4,1.5l-1.5,0.9c-0.2-0.4-0.6-0.7-0.9-0.9c-0.4-0.2-0.8-0.3-1.2-0.3
			c-0.7,0-1.4,0.2-1.9,0.7c-0.5,0.5-0.7,1.1-0.7,1.9s0.2,1.5,0.7,2c0.5,0.5,1.1,0.7,1.9,0.7c0.4,0,0.8-0.1,1.2-0.3
			c0.4-0.2,0.7-0.5,0.9-0.9l1.5,0.9c-0.3,0.6-0.8,1.1-1.5,1.5C449.7,140.9,449,141.1,448.2,141.1z M456.8,132.4
			c1.3,0,2.2,0.3,2.9,0.9c0.7,0.6,1,1.5,1,2.7v5h-1.9v-1c-0.2,0.4-0.6,0.7-1.1,0.9c-0.4,0.2-1,0.3-1.6,0.3c-0.6,0-1.2-0.1-1.7-0.3
			c-0.5-0.2-0.9-0.5-1.1-0.9c-0.3-0.4-0.4-0.8-0.4-1.3c0-0.8,0.3-1.4,0.8-1.8c0.6-0.5,1.5-0.7,2.7-0.7h2.2v-0.1
			c0-0.6-0.2-1.1-0.5-1.4c-0.4-0.3-0.9-0.5-1.6-0.5c-0.5,0-1,0.1-1.4,0.2c-0.5,0.1-0.8,0.4-1.2,0.6l-0.8-1.5c0.4-0.3,1-0.6,1.6-0.8
			C455.4,132.5,456.1,132.4,456.8,132.4z M456.5,139.7c0.5,0,0.9-0.1,1.3-0.3c0.4-0.2,0.7-0.6,0.8-1v-1h-2.1c-1.2,0-1.7,0.4-1.7,1.1
			c0,0.4,0.1,0.7,0.4,0.9C455.6,139.5,456,139.7,456.5,139.7z M463.3,129.1h2V141h-2V129.1z M468.5,141.1c-0.4,0-0.7-0.1-0.9-0.4
			c-0.3-0.3-0.4-0.6-0.4-1c0-0.4,0.1-0.7,0.4-1c0.3-0.2,0.6-0.4,0.9-0.4c0.4,0,0.7,0.1,0.9,0.4c0.3,0.2,0.4,0.6,0.4,1
			c0,0.4-0.1,0.7-0.4,1C469.2,141,468.9,141.1,468.5,141.1z M475.6,141.1c-0.9,0-1.7-0.2-2.4-0.6c-0.7-0.4-1.3-0.9-1.6-1.6
			c-0.4-0.7-0.6-1.4-0.6-2.3c0-0.8,0.2-1.6,0.6-2.3c0.4-0.7,0.9-1.2,1.6-1.6c0.7-0.4,1.5-0.6,2.4-0.6c0.8,0,1.6,0.2,2.2,0.5
			c0.6,0.3,1.1,0.8,1.4,1.5l-1.5,0.9c-0.2-0.4-0.6-0.7-0.9-0.9c-0.4-0.2-0.8-0.3-1.2-0.3c-0.7,0-1.4,0.2-1.9,0.7
			c-0.5,0.5-0.7,1.1-0.7,1.9s0.2,1.5,0.7,2c0.5,0.5,1.1,0.7,1.9,0.7c0.4,0,0.8-0.1,1.2-0.3c0.4-0.2,0.7-0.5,0.9-0.9l1.5,0.9
			c-0.3,0.6-0.8,1.1-1.5,1.5C477.1,140.9,476.4,141.1,475.6,141.1z M484.7,141.1c-0.9,0-1.6-0.2-2.3-0.6c-0.7-0.4-1.2-0.9-1.6-1.6
			c-0.4-0.7-0.6-1.4-0.6-2.3c0-0.8,0.2-1.6,0.6-2.3c0.4-0.7,0.9-1.2,1.6-1.6c0.7-0.4,1.5-0.6,2.3-0.6c0.9,0,1.7,0.2,2.4,0.6
			c0.7,0.4,1.2,0.9,1.6,1.6c0.4,0.7,0.6,1.4,0.6,2.3c0,0.8-0.2,1.6-0.6,2.3c-0.4,0.7-0.9,1.2-1.6,1.6
			C486.3,140.9,485.5,141.1,484.7,141.1z M484.7,139.4c0.7,0,1.3-0.2,1.8-0.7c0.5-0.5,0.7-1.1,0.7-1.9c0-0.8-0.2-1.4-0.7-1.9
			c-0.5-0.5-1.1-0.7-1.8-0.7s-1.3,0.2-1.8,0.7c-0.5,0.5-0.7,1.1-0.7,1.9c0,0.8,0.2,1.4,0.7,1.9C483.3,139.2,483.9,139.4,484.7,139.4
			z M501.9,132.4c1.1,0,1.9,0.3,2.6,0.9c0.6,0.6,0.9,1.6,0.9,2.8v4.9h-2v-4.6c0-0.7-0.2-1.3-0.5-1.7c-0.3-0.4-0.8-0.6-1.4-0.6
			c-0.7,0-1.2,0.2-1.6,0.7c-0.4,0.4-0.6,1.1-0.6,1.9v4.3h-2v-4.6c0-0.7-0.2-1.3-0.5-1.7c-0.3-0.4-0.8-0.6-1.4-0.6
			c-0.7,0-1.2,0.2-1.6,0.7c-0.4,0.4-0.6,1.1-0.6,1.9v4.3h-2v-8.5h1.9v1.1c0.3-0.4,0.7-0.7,1.2-0.9c0.5-0.2,1-0.3,1.6-0.3
			c0.6,0,1.2,0.1,1.7,0.4c0.5,0.2,0.9,0.6,1.2,1.1c0.4-0.4,0.8-0.8,1.4-1C500.6,132.5,501.2,132.4,501.9,132.4z"/>
		<path id="_x83__xA0_" class="st3" d="M428.7,83.5h-24.4c-1.6,0-2.8,1.3-2.8,2.8v16.9c0,1.6,1.2,2.8,2.8,2.8h24.4
			c1.5,0,2.8-1.2,2.8-2.8V86.3C431.5,84.8,430.2,83.5,428.7,83.5z M428.7,86.3v2.4c-1.3,1.1-3.5,2.8-7.9,6.3c-1,0.8-2.9,2.6-4.3,2.6
			c-1.4,0.1-3.3-1.8-4.3-2.6c-4.5-3.5-6.6-5.2-7.9-6.3v-2.4H428.7z M404.3,103.2V92.3c1.3,1.1,3.2,2.6,6.1,4.9
			c1.3,1,3.6,3.2,6.1,3.2c2.5,0.1,4.7-2.2,6-3.2c2.9-2.3,4.8-3.8,6.2-4.9v10.8H404.3z"/>
	</g>
</g>
</svg>
