<?xml version="1.0" encoding="utf-8"?>
<!-- Generator: Adobe Illustrator 24.2.0, SVG Export Plug-In . SVG Version: 6.00 Build 0)  -->
<svg version="1.1" role="button" aria-labelledby="title_resources_topic_right desc_resources_topic_right"  id="resources_topic_right" xmlns="http://www.w3.org/2000/svg" xmlns:xlink="http://www.w3.org/1999/xlink" x="0px" y="0px" viewBox="0 0 450 400" enable-background="new 0 0 450 400" xml:space="preserve">
	<title id="title_resources_topic_right">What is “Covid 19"? How does Covid spread? How Can I protect myself from Covid?</title>
  	<desc id="desc_resources_topic_left">Read about the basics here</desc>
	<defs>
	    <filter id="dropshadow" height="130%">
	    	<feGaussianBlur in="SourceAlpha" stdDeviation="3"/>
	    	<feOffset dx="0" dy="2" result="offsetblur"/>
	    	<feComponentTransfer>
	        	<feFuncA type="linear" slope="0.1"/>
	    	</feComponentTransfer>
	    	<feMerge>
	        	<feMergeNode/>
	        	<feMergeNode in="SourceGraphic"/>
	    	</feMerge>
	    </filter>
	</defs>
	<g id="">
		<g class="ellipse_s">
			<ellipse fill="#FFFFFF" filter="url(#dropshadow)" cx="28.9" cy="375.9" rx="8" ry="8"/>
		</g>
		<g class="ellipse_m">
			<circle fill="#FFFFFF" filter="url(#dropshadow)" cx="67.9" cy="332.8" r="16"/>
		</g>
		<g class="ellipse_l">
			<ellipse fill="#FFFFFF" filter="url(#dropshadow)" cx="240.4" cy="216.2" rx="185" ry="146"/>
		</g>
		<g class="topic_text">
			<path fill="#6984AE" d="M133.9,230l-3.7,11.2h-1.7l-3.1-8.9l-3.1,8.9h-1.7l-3.7-11.2h1.6l3,9.1l3.2-9.1h1.5l3.1,9.2l3.1-9.2H133.9
				z M138.1,232.7c1.2,0,2.1,0.3,2.7,0.9c0.6,0.6,0.9,1.4,0.9,2.6v5.1h-1.5v-1.1c-0.3,0.4-0.6,0.7-1.1,0.9c-0.5,0.2-1,0.3-1.7,0.3
				c-0.9,0-1.7-0.2-2.3-0.7c-0.6-0.5-0.8-1.1-0.8-1.8c0-0.7,0.3-1.3,0.8-1.8c0.5-0.5,1.4-0.7,2.6-0.7h2.4v-0.3c0-0.7-0.2-1.2-0.6-1.5
				c-0.4-0.4-0.9-0.5-1.7-0.5c-0.5,0-1,0.1-1.5,0.3c-0.5,0.2-0.9,0.4-1.2,0.7l-0.6-1.2c0.4-0.4,1-0.6,1.6-0.8
				C136.8,232.8,137.4,232.7,138.1,232.7z M137.7,240.1c0.6,0,1.1-0.1,1.5-0.4c0.4-0.3,0.7-0.6,0.9-1.1v-1.2h-2.4c-1.3,0-2,0.4-2,1.3
				c0,0.4,0.2,0.8,0.5,1C136.7,240,137.2,240.1,137.7,240.1z M149.3,240.7c-0.2,0.2-0.5,0.3-0.8,0.4c-0.3,0.1-0.7,0.1-1,0.1
				c-0.9,0-1.5-0.2-2-0.7c-0.5-0.5-0.7-1.1-0.7-2V234h-1.4v-1.3h1.4v-1.9h1.5v1.9h2.4v1.3h-2.4v4.6c0,0.5,0.1,0.8,0.3,1.1
				c0.2,0.2,0.6,0.4,1,0.4c0.5,0,0.9-0.1,1.2-0.4L149.3,240.7z M154.6,241.3c-0.9,0-1.6-0.2-2.3-0.6c-0.7-0.4-1.2-0.9-1.6-1.5
				c-0.4-0.7-0.6-1.4-0.6-2.2s0.2-1.6,0.6-2.2c0.4-0.7,0.9-1.2,1.6-1.5c0.7-0.4,1.5-0.6,2.3-0.6c0.8,0,1.4,0.2,2,0.5
				c0.6,0.3,1.1,0.8,1.4,1.3l-1.2,0.8c-0.3-0.4-0.6-0.7-1-0.9c-0.4-0.2-0.8-0.3-1.3-0.3c-0.6,0-1.1,0.1-1.5,0.4
				c-0.4,0.2-0.8,0.6-1,1.1c-0.2,0.4-0.4,1-0.4,1.6c0,0.6,0.1,1.1,0.4,1.6c0.3,0.4,0.6,0.8,1,1c0.4,0.2,0.9,0.4,1.5,0.4
				c0.5,0,0.9-0.1,1.3-0.3c0.4-0.2,0.7-0.5,1-0.9l1.2,0.7c-0.3,0.6-0.8,1-1.4,1.4C156.1,241.2,155.4,241.3,154.6,241.3z M164.5,232.7
				c1.1,0,1.9,0.3,2.6,0.9c0.6,0.6,1,1.5,1,2.7v4.9h-1.5v-4.7c0-0.8-0.2-1.4-0.6-1.9c-0.4-0.4-1-0.6-1.7-0.6c-0.8,0-1.5,0.2-2,0.7
				c-0.5,0.5-0.7,1.2-0.7,2.1v4.4h-1.5v-11.9h1.5v4.6c0.3-0.4,0.7-0.7,1.2-0.9C163.2,232.8,163.8,232.7,164.5,232.7z M179.9,240.7
				c-0.2,0.2-0.5,0.3-0.8,0.4c-0.3,0.1-0.7,0.1-1,0.1c-0.9,0-1.5-0.2-2-0.7c-0.5-0.5-0.7-1.1-0.7-2V234h-1.4v-1.3h1.4v-1.9h1.5v1.9
				h2.4v1.3h-2.4v4.6c0,0.5,0.1,0.8,0.3,1.1c0.2,0.2,0.6,0.4,1,0.4c0.5,0,0.9-0.1,1.2-0.4L179.9,240.7z M186.3,232.7
				c1.1,0,1.9,0.3,2.6,0.9c0.6,0.6,1,1.5,1,2.7v4.9h-1.5v-4.7c0-0.8-0.2-1.4-0.6-1.9c-0.4-0.4-1-0.6-1.7-0.6c-0.8,0-1.5,0.2-2,0.7
				c-0.5,0.5-0.7,1.2-0.7,2.1v4.4h-1.5v-11.9h1.5v4.6c0.3-0.4,0.7-0.7,1.2-0.9C185.1,232.8,185.6,232.7,186.3,232.7z M200.4,237
				c0,0.1,0,0.3,0,0.5h-6.9c0.1,0.7,0.4,1.3,1,1.8c0.6,0.4,1.3,0.7,2.1,0.7c1,0,1.8-0.3,2.4-1l0.8,1c-0.4,0.4-0.9,0.8-1.4,1
				c-0.6,0.2-1.2,0.4-1.9,0.4c-0.9,0-1.7-0.2-2.4-0.5c-0.7-0.4-1.2-0.9-1.6-1.6c-0.4-0.7-0.6-1.4-0.6-2.2c0-0.8,0.2-1.6,0.5-2.2
				c0.4-0.7,0.9-1.2,1.5-1.5c0.7-0.4,1.4-0.6,2.2-0.6c0.8,0,1.5,0.2,2.2,0.6c0.6,0.4,1.1,0.9,1.5,1.5
				C200.2,235.4,200.4,236.2,200.4,237z M196.2,234c-0.7,0-1.4,0.2-1.9,0.7c-0.5,0.4-0.8,1-0.9,1.8h5.4c-0.1-0.7-0.4-1.3-0.9-1.7
				C197.5,234.2,196.9,234,196.2,234z M127.9,265.3c-0.9,0-1.6-0.2-2.3-0.6c-0.7-0.4-1.2-0.9-1.6-1.5c-0.4-0.7-0.6-1.4-0.6-2.2
				s0.2-1.6,0.6-2.2c0.4-0.7,0.9-1.2,1.6-1.5c0.7-0.4,1.5-0.6,2.3-0.6c0.8,0,1.5,0.2,2,0.5c0.6,0.3,1.1,0.8,1.4,1.3l-1.2,0.8
				c-0.3-0.4-0.6-0.7-1-0.9c-0.4-0.2-0.8-0.3-1.3-0.3c-0.6,0-1.1,0.1-1.5,0.4c-0.4,0.2-0.8,0.6-1,1.1c-0.2,0.4-0.4,1-0.4,1.6
				c0,0.6,0.1,1.1,0.4,1.6c0.3,0.4,0.6,0.8,1,1c0.4,0.2,0.9,0.4,1.5,0.4c0.5,0,0.9-0.1,1.3-0.3c0.4-0.2,0.7-0.5,1-0.9l1.2,0.7
				c-0.3,0.6-0.8,1-1.4,1.4C129.3,265.2,128.6,265.3,127.9,265.3z M134.8,258.2c0.3-0.5,0.7-0.9,1.2-1.1c0.5-0.3,1.2-0.4,1.9-0.4v1.5
				c-0.1,0-0.2,0-0.4,0c-0.8,0-1.5,0.3-2,0.8c-0.5,0.5-0.7,1.2-0.7,2.1v4.2h-1.5v-8.5h1.5V258.2z M147.4,261c0,0.1,0,0.3,0,0.5h-6.9
				c0.1,0.7,0.4,1.3,1,1.8c0.6,0.4,1.3,0.7,2.1,0.7c1,0,1.8-0.3,2.4-1l0.8,1c-0.4,0.4-0.9,0.8-1.4,1c-0.6,0.2-1.2,0.4-1.9,0.4
				c-0.9,0-1.7-0.2-2.4-0.5c-0.7-0.4-1.2-0.9-1.6-1.6c-0.4-0.7-0.6-1.4-0.6-2.2c0-0.8,0.2-1.6,0.5-2.2c0.4-0.7,0.9-1.2,1.5-1.5
				c0.6-0.4,1.4-0.6,2.2-0.6c0.8,0,1.5,0.2,2.2,0.6c0.6,0.4,1.1,0.9,1.5,1.5C147.2,259.4,147.4,260.2,147.4,261z M143.2,258
				c-0.7,0-1.4,0.2-1.9,0.7c-0.5,0.4-0.8,1-0.9,1.8h5.4c-0.1-0.7-0.4-1.3-0.9-1.7C144.5,258.2,143.9,258,143.2,258z M152.4,256.7
				c1.2,0,2.1,0.3,2.7,0.9c0.6,0.6,0.9,1.4,0.9,2.6v5.1h-1.5v-1.1c-0.3,0.4-0.6,0.7-1.1,0.9c-0.5,0.2-1,0.3-1.7,0.3
				c-0.9,0-1.7-0.2-2.3-0.7c-0.6-0.5-0.8-1.1-0.8-1.8s0.3-1.3,0.8-1.8c0.5-0.5,1.4-0.7,2.6-0.7h2.4v-0.3c0-0.7-0.2-1.2-0.6-1.5
				c-0.4-0.4-0.9-0.5-1.7-0.5c-0.5,0-1,0.1-1.5,0.3c-0.5,0.2-0.9,0.4-1.2,0.7l-0.6-1.2c0.4-0.4,1-0.6,1.6-0.8
				C151,256.8,151.7,256.7,152.4,256.7z M152,264.1c0.6,0,1.1-0.1,1.5-0.4c0.4-0.3,0.7-0.6,0.9-1.1v-1.2h-2.4c-1.3,0-2,0.4-2,1.3
				c0,0.4,0.2,0.8,0.5,1C151,264,151.4,264.1,152,264.1z M163.6,264.7c-0.2,0.2-0.5,0.3-0.8,0.4c-0.3,0.1-0.7,0.1-1,0.1
				c-0.9,0-1.5-0.2-2-0.7c-0.5-0.5-0.7-1.1-0.7-2V258h-1.4v-1.3h1.4v-1.9h1.5v1.9h2.4v1.3h-2.4v4.6c0,0.5,0.1,0.8,0.3,1.1
				c0.2,0.2,0.6,0.4,1,0.4c0.5,0,0.9-0.1,1.2-0.4L163.6,264.7z M172.8,261c0,0.1,0,0.3,0,0.5h-6.9c0.1,0.7,0.4,1.3,1,1.8
				c0.6,0.4,1.3,0.7,2.1,0.7c1,0,1.8-0.3,2.4-1l0.8,1c-0.4,0.4-0.9,0.8-1.4,1c-0.6,0.2-1.2,0.4-1.9,0.4c-0.9,0-1.7-0.2-2.4-0.5
				c-0.7-0.4-1.2-0.9-1.6-1.6c-0.4-0.7-0.6-1.4-0.6-2.2c0-0.8,0.2-1.6,0.5-2.2c0.4-0.7,0.9-1.2,1.5-1.5c0.7-0.4,1.4-0.6,2.2-0.6
				c0.8,0,1.5,0.2,2.2,0.6c0.6,0.4,1.1,0.9,1.5,1.5C172.7,259.4,172.8,260.2,172.8,261z M168.6,258c-0.7,0-1.4,0.2-1.9,0.7
				c-0.5,0.4-0.8,1-0.9,1.8h5.4c-0.1-0.7-0.4-1.3-0.9-1.7C170,258.2,169.4,258,168.6,258z M183,253.4v11.9h-1.5v-1.3
				c-0.3,0.5-0.8,0.8-1.3,1.1c-0.5,0.2-1.1,0.4-1.7,0.4c-0.8,0-1.6-0.2-2.2-0.5c-0.6-0.4-1.2-0.9-1.5-1.5c-0.4-0.7-0.5-1.4-0.5-2.3
				s0.2-1.6,0.5-2.3c0.4-0.7,0.9-1.2,1.5-1.5c0.7-0.4,1.4-0.5,2.2-0.5c0.6,0,1.2,0.1,1.7,0.4c0.5,0.2,0.9,0.6,1.3,1v-4.7H183z
				 M178.6,264c0.5,0,1-0.1,1.5-0.4c0.4-0.3,0.8-0.6,1-1.1c0.2-0.5,0.4-1,0.4-1.6s-0.1-1.1-0.4-1.6c-0.2-0.5-0.6-0.8-1-1.1
				c-0.4-0.2-0.9-0.4-1.5-0.4c-0.5,0-1,0.1-1.5,0.4c-0.4,0.2-0.8,0.6-1,1.1c-0.2,0.4-0.4,1-0.4,1.6s0.1,1.1,0.4,1.6
				c0.3,0.4,0.6,0.8,1,1.1C177.6,263.9,178.1,264,178.6,264z M194.7,256.7c0.8,0,1.6,0.2,2.2,0.5c0.7,0.4,1.2,0.9,1.5,1.5
				c0.4,0.7,0.6,1.4,0.6,2.3s-0.2,1.6-0.6,2.3c-0.4,0.7-0.9,1.2-1.5,1.5c-0.7,0.4-1.4,0.5-2.2,0.5c-0.6,0-1.2-0.1-1.7-0.4
				c-0.5-0.2-1-0.6-1.3-1.1v1.3h-1.5v-11.9h1.5v4.7c0.3-0.4,0.8-0.8,1.3-1C193.5,256.8,194.1,256.7,194.7,256.7z M194.5,264
				c0.5,0,1-0.1,1.5-0.4c0.4-0.3,0.8-0.6,1-1.1c0.3-0.5,0.4-1,0.4-1.6s-0.1-1.1-0.4-1.6c-0.2-0.5-0.6-0.8-1-1.1
				c-0.4-0.2-0.9-0.4-1.5-0.4c-0.5,0-1,0.1-1.5,0.4c-0.4,0.2-0.8,0.6-1,1.1c-0.2,0.4-0.4,1-0.4,1.6s0.1,1.1,0.4,1.6
				c0.2,0.4,0.6,0.8,1,1.1C193.5,263.9,194,264,194.5,264z M208.3,256.8l-4.1,9.3c-0.4,0.9-0.8,1.5-1.3,1.8c-0.5,0.4-1.1,0.5-1.7,0.5
				c-0.4,0-0.8-0.1-1.2-0.2c-0.4-0.1-0.7-0.3-1-0.6l0.7-1.2c0.4,0.4,0.9,0.6,1.5,0.6c0.4,0,0.7-0.1,0.9-0.3c0.3-0.2,0.5-0.5,0.7-1
				l0.3-0.6l-3.7-8.5h1.6l3,6.8l2.9-6.8H208.3z M218.8,264.7c-0.2,0.2-0.5,0.3-0.8,0.4c-0.3,0.1-0.7,0.1-1,0.1c-0.9,0-1.5-0.2-2-0.7
				c-0.5-0.5-0.7-1.1-0.7-2V258h-1.4v-1.3h1.4v-1.9h1.5v1.9h2.4v1.3h-2.4v4.6c0,0.5,0.1,0.8,0.3,1.1c0.2,0.2,0.6,0.4,1,0.4
				c0.5,0,0.9-0.1,1.2-0.4L218.8,264.7z M225.2,256.7c1.1,0,1.9,0.3,2.6,0.9c0.6,0.6,1,1.5,1,2.7v4.9h-1.5v-4.7
				c0-0.8-0.2-1.4-0.6-1.9c-0.4-0.4-1-0.6-1.7-0.6c-0.8,0-1.5,0.2-2,0.7c-0.5,0.5-0.7,1.2-0.7,2.1v4.4h-1.5v-11.9h1.5v4.6
				c0.3-0.4,0.7-0.7,1.2-0.9C224,256.8,224.6,256.7,225.2,256.7z M239.3,261c0,0.1,0,0.3,0,0.5h-6.9c0.1,0.7,0.4,1.3,1,1.8
				c0.6,0.4,1.3,0.7,2.1,0.7c1,0,1.8-0.3,2.4-1l0.8,1c-0.4,0.4-0.9,0.8-1.4,1c-0.6,0.2-1.2,0.4-1.9,0.4c-0.9,0-1.7-0.2-2.4-0.5
				c-0.7-0.4-1.2-0.9-1.6-1.6c-0.4-0.7-0.6-1.4-0.6-2.2c0-0.8,0.2-1.6,0.5-2.2c0.4-0.7,0.9-1.2,1.5-1.5c0.7-0.4,1.4-0.6,2.2-0.6
				c0.8,0,1.5,0.2,2.2,0.6c0.6,0.4,1.1,0.9,1.5,1.5C239.1,259.4,239.3,260.2,239.3,261z M235.1,258c-0.7,0-1.4,0.2-1.9,0.7
				c-0.5,0.4-0.8,1-0.9,1.8h5.4c-0.1-0.7-0.4-1.3-0.9-1.7C236.5,258.2,235.8,258,235.1,258z M261.8,254l-3.7,11.2h-1.7l-3.1-8.9
				l-3.1,8.9h-1.7l-3.7-11.2h1.6l3,9.1l3.2-9.1h1.5l3.1,9.2l3.1-9.2H261.8z M266.5,265.3c-0.8,0-1.6-0.2-2.3-0.6
				c-0.7-0.4-1.2-0.9-1.6-1.5c-0.4-0.7-0.6-1.4-0.6-2.2s0.2-1.6,0.6-2.2c0.4-0.7,0.9-1.2,1.6-1.5c0.7-0.4,1.4-0.6,2.3-0.6
				c0.8,0,1.6,0.2,2.3,0.6c0.7,0.4,1.2,0.9,1.6,1.5c0.4,0.7,0.6,1.4,0.6,2.2s-0.2,1.6-0.6,2.2c-0.4,0.7-0.9,1.2-1.6,1.5
				C268.1,265.1,267.3,265.3,266.5,265.3z M266.5,264c0.5,0,1-0.1,1.5-0.4c0.4-0.3,0.8-0.6,1-1.1c0.2-0.5,0.4-1,0.4-1.6
				s-0.1-1.1-0.4-1.6c-0.2-0.5-0.6-0.8-1-1.1c-0.4-0.2-0.9-0.4-1.5-0.4s-1,0.1-1.5,0.4c-0.4,0.2-0.8,0.6-1,1.1
				c-0.2,0.4-0.4,1-0.4,1.6s0.1,1.1,0.4,1.6c0.3,0.4,0.6,0.8,1,1.1C265.5,263.9,266,264,266.5,264z M274.5,258.2
				c0.3-0.5,0.7-0.9,1.2-1.1s1.2-0.4,1.9-0.4v1.5c-0.1,0-0.2,0-0.4,0c-0.8,0-1.5,0.3-2,0.8c-0.5,0.5-0.7,1.2-0.7,2.1v4.2H273v-8.5
				h1.5V258.2z M279.5,253.4h1.5v11.9h-1.5V253.4z M292,253.4v11.9h-1.5v-1.3c-0.3,0.5-0.8,0.8-1.3,1.1c-0.5,0.2-1.1,0.4-1.7,0.4
				c-0.8,0-1.6-0.2-2.2-0.5c-0.7-0.4-1.2-0.9-1.5-1.5c-0.4-0.7-0.5-1.4-0.5-2.3s0.2-1.6,0.5-2.3c0.4-0.7,0.9-1.2,1.5-1.5
				c0.6-0.4,1.4-0.5,2.2-0.5c0.6,0,1.2,0.1,1.7,0.4c0.5,0.2,0.9,0.6,1.3,1v-4.7H292z M287.6,264c0.5,0,1-0.1,1.5-0.4
				c0.4-0.3,0.8-0.6,1-1.1c0.2-0.5,0.4-1,0.4-1.6s-0.1-1.1-0.4-1.6c-0.2-0.5-0.6-0.8-1-1.1c-0.4-0.2-0.9-0.4-1.5-0.4
				c-0.5,0-1,0.1-1.5,0.4c-0.4,0.2-0.8,0.6-1,1.1c-0.2,0.4-0.4,1-0.4,1.6s0.1,1.1,0.4,1.6c0.3,0.4,0.6,0.8,1,1.1
				C286.5,263.9,287,264,287.6,264z M309,254v11.2h-1.6v-5H301v5h-1.6V254h1.6v4.8h6.4V254H309z M319.8,261c0,0.1,0,0.3,0,0.5h-6.9
				c0.1,0.7,0.4,1.3,1,1.8c0.6,0.4,1.3,0.7,2.1,0.7c1,0,1.8-0.3,2.4-1l0.8,1c-0.4,0.4-0.9,0.8-1.4,1c-0.6,0.2-1.2,0.4-1.9,0.4
				c-0.9,0-1.7-0.2-2.4-0.5c-0.7-0.4-1.2-0.9-1.6-1.6c-0.4-0.7-0.6-1.4-0.6-2.2c0-0.8,0.2-1.6,0.5-2.2c0.4-0.7,0.9-1.2,1.5-1.5
				c0.7-0.4,1.4-0.6,2.2-0.6c0.8,0,1.5,0.2,2.2,0.6c0.6,0.4,1.1,0.9,1.5,1.5C319.6,259.4,319.8,260.2,319.8,261z M315.6,258
				c-0.7,0-1.4,0.2-1.9,0.7c-0.5,0.4-0.8,1-0.9,1.8h5.4c-0.1-0.7-0.4-1.3-0.9-1.7C317,258.2,316.3,258,315.6,258z M324.8,256.7
				c1.2,0,2.1,0.3,2.7,0.9c0.6,0.6,0.9,1.4,0.9,2.6v5.1H327v-1.1c-0.3,0.4-0.6,0.7-1.1,0.9c-0.5,0.2-1,0.3-1.7,0.3
				c-1,0-1.7-0.2-2.3-0.7c-0.6-0.5-0.8-1.1-0.8-1.8s0.3-1.3,0.8-1.8c0.5-0.5,1.4-0.7,2.6-0.7h2.4v-0.3c0-0.7-0.2-1.2-0.6-1.5
				c-0.4-0.4-0.9-0.5-1.7-0.5c-0.5,0-1,0.1-1.5,0.3c-0.5,0.2-0.9,0.4-1.2,0.7l-0.6-1.2c0.4-0.4,1-0.6,1.6-0.8
				C323.5,256.8,324.1,256.7,324.8,256.7z M324.4,264.1c0.6,0,1.1-0.1,1.5-0.4c0.4-0.3,0.7-0.6,0.9-1.1v-1.2h-2.4c-1.3,0-2,0.4-2,1.3
				c0,0.4,0.2,0.8,0.5,1C323.4,264,323.8,264.1,324.4,264.1z M331.3,253.4h1.5v11.9h-1.5V253.4z M340.7,264.7
				c-0.2,0.2-0.5,0.3-0.8,0.4c-0.3,0.1-0.7,0.1-1,0.1c-0.9,0-1.5-0.2-2-0.7c-0.5-0.5-0.7-1.1-0.7-2V258h-1.4v-1.3h1.4v-1.9h1.5v1.9
				h2.4v1.3h-2.4v4.6c0,0.5,0.1,0.8,0.3,1.1c0.2,0.2,0.6,0.4,1,0.4c0.5,0,0.9-0.1,1.2-0.4L340.7,264.7z M347.1,256.7
				c1.1,0,1.9,0.3,2.6,0.9c0.6,0.6,1,1.5,1,2.7v4.9h-1.5v-4.7c0-0.8-0.2-1.4-0.6-1.9c-0.4-0.4-1-0.6-1.7-0.6c-0.8,0-1.5,0.2-2,0.7
				c-0.5,0.5-0.7,1.2-0.7,2.1v4.4h-1.5v-11.9h1.5v4.6c0.3-0.4,0.7-0.7,1.2-0.9C345.9,256.8,346.4,256.7,347.1,256.7z M191.2,289.4
				c-1.1,0-2.1-0.2-3.1-0.7c-0.9-0.5-1.6-1.2-2.1-2.1c-0.5-0.9-0.8-1.9-0.8-2.9c0-1.1,0.3-2.1,0.8-2.9c0.5-0.9,1.2-1.6,2.1-2
				c0.9-0.5,1.9-0.8,3.1-0.8c1.1,0,2.1,0.3,3,0.8c0.9,0.5,1.6,1.2,2.1,2c0.5,0.9,0.8,1.8,0.8,2.9c0,1.1-0.3,2.1-0.8,2.9
				c-0.5,0.9-1.2,1.5-2.1,2C193.3,289.1,192.3,289.4,191.2,289.4z M191.2,287.9c0.8,0,1.6-0.2,2.2-0.6c0.7-0.4,1.2-0.9,1.6-1.5
				c0.4-0.7,0.6-1.4,0.6-2.2c0-0.8-0.2-1.5-0.6-2.2c-0.4-0.7-0.9-1.2-1.6-1.6c-0.7-0.4-1.4-0.6-2.2-0.6s-1.6,0.2-2.2,0.6
				c-0.7,0.4-1.2,0.9-1.6,1.6c-0.4,0.7-0.6,1.4-0.6,2.2c0,0.8,0.2,1.5,0.6,2.2c0.4,0.7,0.9,1.2,1.6,1.5
				C189.6,287.8,190.4,287.9,191.2,287.9z M200.8,282.2c0.3-0.5,0.7-0.9,1.2-1.1c0.5-0.3,1.2-0.4,1.9-0.4v1.5c-0.1,0-0.2,0-0.4,0
				c-0.8,0-1.5,0.3-2,0.8c-0.5,0.5-0.7,1.2-0.7,2.1v4.2h-1.5v-8.5h1.5V282.2z M213.8,280.8v7.3c0,1.5-0.4,2.6-1.1,3.3
				c-0.7,0.7-1.8,1.1-3.3,1.1c-0.8,0-1.6-0.1-2.3-0.3c-0.7-0.2-1.3-0.5-1.8-0.9l0.7-1.2c0.4,0.3,0.9,0.6,1.5,0.8
				c0.6,0.2,1.2,0.3,1.8,0.3c1,0,1.7-0.2,2.2-0.7c0.5-0.5,0.7-1.2,0.7-2.1v-0.7c-0.4,0.4-0.8,0.8-1.3,1c-0.5,0.2-1.1,0.3-1.7,0.3
				c-0.8,0-1.5-0.2-2.2-0.5c-0.6-0.4-1.2-0.8-1.5-1.5c-0.4-0.6-0.6-1.3-0.6-2.1c0-0.8,0.2-1.5,0.6-2.1c0.4-0.6,0.9-1.1,1.5-1.5
				c0.7-0.3,1.4-0.5,2.2-0.5c0.6,0,1.2,0.1,1.8,0.4c0.6,0.2,1,0.6,1.4,1v-1.3H213.8z M209.4,287.5c0.6,0,1.1-0.1,1.5-0.4
				c0.4-0.2,0.8-0.6,1-1c0.3-0.4,0.4-0.9,0.4-1.4c0-0.8-0.3-1.5-0.8-2c-0.5-0.5-1.2-0.8-2.1-0.8c-0.9,0-1.6,0.3-2.1,0.8
				c-0.5,0.5-0.8,1.2-0.8,2c0,0.5,0.1,1,0.4,1.4c0.3,0.4,0.6,0.7,1,1C208.3,287.4,208.8,287.5,209.4,287.5z M219.9,280.7
				c1.2,0,2.1,0.3,2.7,0.9c0.6,0.6,0.9,1.4,0.9,2.6v5.1H222v-1.1c-0.3,0.4-0.6,0.7-1.1,0.9c-0.5,0.2-1,0.3-1.7,0.3
				c-0.9,0-1.7-0.2-2.3-0.7c-0.6-0.5-0.8-1.1-0.8-1.8s0.3-1.3,0.8-1.8c0.5-0.5,1.4-0.7,2.6-0.7h2.4v-0.3c0-0.7-0.2-1.2-0.6-1.5
				c-0.4-0.4-0.9-0.5-1.7-0.5c-0.5,0-1,0.1-1.5,0.3c-0.5,0.2-0.9,0.4-1.2,0.7l-0.6-1.2c0.4-0.4,1-0.6,1.6-0.8
				C218.5,280.8,219.2,280.7,219.9,280.7z M219.5,288.1c0.6,0,1.1-0.1,1.5-0.4c0.4-0.3,0.7-0.6,0.9-1.1v-1.2h-2.4c-1.3,0-2,0.4-2,1.3
				c0,0.4,0.2,0.8,0.5,1C218.5,288,218.9,288.1,219.5,288.1z M230.9,280.7c1.1,0,1.9,0.3,2.6,0.9c0.6,0.6,1,1.5,1,2.7v4.9h-1.5v-4.7
				c0-0.8-0.2-1.4-0.6-1.9c-0.4-0.4-1-0.6-1.7-0.6c-0.8,0-1.5,0.2-2,0.7c-0.5,0.5-0.7,1.2-0.7,2.1v4.4h-1.5v-8.5h1.5v1.3
				c0.3-0.4,0.7-0.8,1.2-1C229.6,280.8,230.2,280.7,230.9,280.7z M237.2,280.8h1.5v8.5h-1.5V280.8z M238,279.1
				c-0.3,0-0.5-0.1-0.8-0.3c-0.2-0.2-0.3-0.4-0.3-0.7c0-0.3,0.1-0.5,0.3-0.7c0.2-0.2,0.5-0.3,0.8-0.3c0.3,0,0.5,0.1,0.7,0.3
				c0.2,0.2,0.3,0.4,0.3,0.7c0,0.3-0.1,0.5-0.3,0.7C238.5,279,238.3,279.1,238,279.1z M248,288v1.3h-7.1v-1l5-6.2H241v-1.3h6.9v1
				l-5,6.2H248z M253.1,280.7c1.2,0,2.1,0.3,2.7,0.9c0.6,0.6,0.9,1.4,0.9,2.6v5.1h-1.5v-1.1c-0.3,0.4-0.6,0.7-1.1,0.9
				c-0.5,0.2-1,0.3-1.7,0.3c-0.9,0-1.7-0.2-2.3-0.7c-0.6-0.5-0.8-1.1-0.8-1.8s0.3-1.3,0.8-1.8c0.5-0.5,1.4-0.7,2.6-0.7h2.4v-0.3
				c0-0.7-0.2-1.2-0.6-1.5c-0.4-0.4-0.9-0.5-1.7-0.5c-0.5,0-1,0.1-1.5,0.3c-0.5,0.2-0.9,0.4-1.2,0.7l-0.6-1.2c0.4-0.4,1-0.6,1.6-0.8
				C251.8,280.8,252.4,280.7,253.1,280.7z M252.8,288.1c0.6,0,1.1-0.1,1.5-0.4c0.4-0.3,0.7-0.6,0.9-1.1v-1.2h-2.4c-1.3,0-2,0.4-2,1.3
				c0,0.4,0.2,0.8,0.5,1C251.7,288,252.2,288.1,252.8,288.1z M264.4,288.7c-0.2,0.2-0.5,0.3-0.8,0.4c-0.3,0.1-0.7,0.1-1,0.1
				c-0.9,0-1.5-0.2-2-0.7c-0.5-0.5-0.7-1.1-0.7-2V282h-1.4v-1.3h1.4v-1.9h1.5v1.9h2.4v1.3h-2.4v4.6c0,0.5,0.1,0.8,0.3,1.1
				c0.2,0.2,0.6,0.4,1,0.4c0.5,0,0.9-0.1,1.2-0.4L264.4,288.7z M266.2,280.8h1.5v8.5h-1.5V280.8z M267,279.1c-0.3,0-0.5-0.1-0.8-0.3
				c-0.2-0.2-0.3-0.4-0.3-0.7c0-0.3,0.1-0.5,0.3-0.7c0.2-0.2,0.5-0.3,0.8-0.3c0.3,0,0.5,0.1,0.7,0.3c0.2,0.2,0.3,0.4,0.3,0.7
				c0,0.3-0.1,0.5-0.3,0.7C267.5,279,267.3,279.1,267,279.1z M274.3,289.3c-0.8,0-1.6-0.2-2.3-0.6c-0.7-0.4-1.2-0.9-1.6-1.5
				c-0.4-0.7-0.6-1.4-0.6-2.2s0.2-1.6,0.6-2.2c0.4-0.7,0.9-1.2,1.6-1.5c0.7-0.4,1.4-0.6,2.3-0.6c0.8,0,1.6,0.2,2.3,0.6
				c0.7,0.4,1.2,0.9,1.6,1.5c0.4,0.7,0.6,1.4,0.6,2.2s-0.2,1.6-0.6,2.2c-0.4,0.7-0.9,1.2-1.6,1.5
				C275.9,289.1,275.2,289.3,274.3,289.3z M274.3,288c0.5,0,1-0.1,1.5-0.4c0.4-0.3,0.8-0.6,1-1.1c0.2-0.5,0.4-1,0.4-1.6
				s-0.1-1.1-0.4-1.6c-0.2-0.5-0.6-0.8-1-1.1c-0.4-0.2-0.9-0.4-1.5-0.4c-0.5,0-1,0.1-1.5,0.4c-0.4,0.2-0.8,0.6-1,1.1
				c-0.2,0.4-0.4,1-0.4,1.6s0.1,1.1,0.4,1.6c0.3,0.4,0.6,0.8,1,1.1C273.3,287.9,273.8,288,274.3,288z M285.4,280.7
				c1.1,0,1.9,0.3,2.6,0.9c0.6,0.6,1,1.5,1,2.7v4.9h-1.5v-4.7c0-0.8-0.2-1.4-0.6-1.9c-0.4-0.4-1-0.6-1.7-0.6c-0.8,0-1.5,0.2-2,0.7
				c-0.5,0.5-0.7,1.2-0.7,2.1v4.4h-1.5v-8.5h1.5v1.3c0.3-0.4,0.7-0.8,1.2-1C284.1,280.8,284.7,280.7,285.4,280.7z"/>
			<path fill="#5095FF" d="M214.5,237c0,0.1,0,0.3,0,0.5h-6.9c0.1,0.7,0.4,1.3,1,1.8c0.6,0.4,1.3,0.7,2.1,0.7c1,0,1.8-0.3,2.4-1
				l0.8,1c-0.4,0.4-0.9,0.8-1.4,1c-0.6,0.2-1.2,0.4-1.9,0.4c-0.9,0-1.7-0.2-2.4-0.5c-0.7-0.4-1.2-0.9-1.6-1.6
				c-0.4-0.7-0.6-1.4-0.6-2.2c0-0.8,0.2-1.6,0.5-2.2c0.4-0.7,0.9-1.2,1.5-1.5c0.6-0.4,1.4-0.6,2.2-0.6c0.8,0,1.5,0.2,2.2,0.6
				c0.6,0.4,1.1,0.9,1.5,1.5C214.3,235.4,214.5,236.2,214.5,237z M210.3,234c-0.7,0-1.4,0.2-1.9,0.7c-0.5,0.4-0.8,1-0.9,1.8h5.4
				c-0.1-0.7-0.4-1.3-0.9-1.7C211.6,234.2,211,234,210.3,234z M224.6,229.4v11.9h-1.5v-1.3c-0.3,0.5-0.8,0.8-1.3,1.1
				c-0.5,0.2-1.1,0.4-1.7,0.4c-0.8,0-1.6-0.2-2.2-0.5c-0.7-0.4-1.2-0.9-1.5-1.5c-0.4-0.7-0.5-1.4-0.5-2.3c0-0.9,0.2-1.6,0.5-2.3
				c0.4-0.7,0.9-1.2,1.5-1.5c0.6-0.4,1.4-0.5,2.2-0.5c0.6,0,1.2,0.1,1.7,0.4c0.5,0.2,0.9,0.6,1.3,1v-4.7H224.6z M220.2,240
				c0.5,0,1-0.1,1.5-0.4c0.4-0.3,0.8-0.6,1-1.1c0.2-0.5,0.4-1,0.4-1.6c0-0.6-0.1-1.1-0.4-1.6c-0.2-0.5-0.6-0.8-1-1.1
				c-0.4-0.2-0.9-0.4-1.5-0.4c-0.5,0-1,0.1-1.5,0.4c-0.4,0.2-0.8,0.6-1,1.1c-0.2,0.4-0.4,1-0.4,1.6c0,0.6,0.1,1.1,0.4,1.6
				c0.3,0.4,0.6,0.8,1,1.1C219.2,239.9,219.7,240,220.2,240z M235.4,232.8v8.5h-1.5V240c-0.3,0.4-0.7,0.8-1.2,1
				c-0.5,0.2-1.1,0.4-1.6,0.4c-1.1,0-2-0.3-2.7-0.9c-0.7-0.6-1-1.6-1-2.8v-4.9h1.5v4.7c0,0.8,0.2,1.4,0.6,1.9c0.4,0.4,1,0.6,1.7,0.6
				c0.8,0,1.5-0.2,1.9-0.7c0.5-0.5,0.7-1.2,0.7-2.1v-4.4H235.4z M242,241.3c-0.9,0-1.6-0.2-2.3-0.6c-0.7-0.4-1.2-0.9-1.6-1.5
				c-0.4-0.7-0.6-1.4-0.6-2.2s0.2-1.6,0.6-2.2c0.4-0.7,0.9-1.2,1.6-1.5c0.7-0.4,1.5-0.6,2.3-0.6c0.8,0,1.5,0.2,2,0.5
				c0.6,0.3,1.1,0.8,1.4,1.3l-1.2,0.8c-0.3-0.4-0.6-0.7-1-0.9s-0.8-0.3-1.3-0.3c-0.6,0-1.1,0.1-1.5,0.4c-0.4,0.2-0.8,0.6-1,1.1
				c-0.2,0.4-0.4,1-0.4,1.6c0,0.6,0.1,1.1,0.4,1.6c0.3,0.4,0.6,0.8,1,1c0.4,0.2,0.9,0.4,1.5,0.4c0.5,0,0.9-0.1,1.3-0.3s0.7-0.5,1-0.9
				l1.2,0.7c-0.3,0.6-0.8,1-1.4,1.4C243.5,241.2,242.8,241.3,242,241.3z M250.5,232.7c1.2,0,2.1,0.3,2.7,0.9c0.6,0.6,0.9,1.4,0.9,2.6
				v5.1h-1.5v-1.1c-0.3,0.4-0.6,0.7-1.1,0.9c-0.5,0.2-1,0.3-1.7,0.3c-0.9,0-1.7-0.2-2.3-0.7c-0.6-0.5-0.8-1.1-0.8-1.8
				c0-0.7,0.3-1.3,0.8-1.8c0.5-0.5,1.4-0.7,2.6-0.7h2.4v-0.3c0-0.7-0.2-1.2-0.6-1.5c-0.4-0.4-0.9-0.5-1.7-0.5c-0.5,0-1,0.1-1.5,0.3
				c-0.5,0.2-0.9,0.4-1.2,0.7l-0.6-1.2c0.4-0.4,1-0.6,1.6-0.8C249.2,232.8,249.9,232.7,250.5,232.7z M250.2,240.1
				c0.6,0,1.1-0.1,1.5-0.4c0.4-0.3,0.7-0.6,0.9-1.1v-1.2h-2.4c-1.3,0-2,0.4-2,1.3c0,0.4,0.2,0.8,0.5,1
				C249.1,240,249.6,240.1,250.2,240.1z M261.8,240.7c-0.2,0.2-0.5,0.3-0.8,0.4c-0.3,0.1-0.7,0.1-1,0.1c-0.9,0-1.5-0.2-2-0.7
				s-0.7-1.1-0.7-2V234h-1.4v-1.3h1.4v-1.9h1.5v1.9h2.4v1.3h-2.4v4.6c0,0.5,0.1,0.8,0.3,1.1c0.2,0.2,0.6,0.4,1,0.4
				c0.5,0,0.9-0.1,1.2-0.4L261.8,240.7z M263.6,232.8h1.5v8.5h-1.5V232.8z M264.4,231.1c-0.3,0-0.5-0.1-0.8-0.3
				c-0.2-0.2-0.3-0.4-0.3-0.7c0-0.3,0.1-0.5,0.3-0.7c0.2-0.2,0.5-0.3,0.8-0.3s0.5,0.1,0.7,0.3c0.2,0.2,0.3,0.4,0.3,0.7
				c0,0.3-0.1,0.5-0.3,0.7C265,231,264.7,231.1,264.4,231.1z M271.7,241.3c-0.8,0-1.6-0.2-2.3-0.6s-1.2-0.9-1.6-1.5
				c-0.4-0.7-0.6-1.4-0.6-2.2s0.2-1.6,0.6-2.2c0.4-0.7,0.9-1.2,1.6-1.5c0.7-0.4,1.4-0.6,2.3-0.6c0.8,0,1.6,0.2,2.3,0.6
				c0.7,0.4,1.2,0.9,1.6,1.5c0.4,0.7,0.6,1.4,0.6,2.2s-0.2,1.6-0.6,2.2c-0.4,0.7-0.9,1.2-1.6,1.5
				C273.3,241.1,272.6,241.3,271.7,241.3z M271.7,240c0.5,0,1-0.1,1.5-0.4c0.4-0.3,0.8-0.6,1-1.1c0.2-0.5,0.4-1,0.4-1.6
				c0-0.6-0.1-1.1-0.4-1.6c-0.2-0.5-0.6-0.8-1-1.1c-0.4-0.2-0.9-0.4-1.5-0.4c-0.5,0-1,0.1-1.5,0.4c-0.4,0.2-0.8,0.6-1,1.1
				c-0.2,0.4-0.4,1-0.4,1.6c0,0.6,0.1,1.1,0.4,1.6c0.3,0.4,0.6,0.8,1,1.1C270.7,239.9,271.2,240,271.7,240z M282.8,232.7
				c1.1,0,1.9,0.3,2.6,0.9c0.6,0.6,1,1.5,1,2.7v4.9h-1.5v-4.7c0-0.8-0.2-1.4-0.6-1.9c-0.4-0.4-1-0.6-1.7-0.6c-0.8,0-1.5,0.2-2,0.7
				c-0.5,0.5-0.7,1.2-0.7,2.1v4.4h-1.5v-8.5h1.5v1.3c0.3-0.4,0.7-0.8,1.2-1C281.5,232.8,282.1,232.7,282.8,232.7z M292.2,232.7
				c1.2,0,2.1,0.3,2.7,0.9c0.6,0.6,0.9,1.4,0.9,2.6v5.1h-1.5v-1.1c-0.3,0.4-0.6,0.7-1.1,0.9c-0.5,0.2-1,0.3-1.7,0.3
				c-1,0-1.7-0.2-2.3-0.7c-0.6-0.5-0.8-1.1-0.8-1.8c0-0.7,0.3-1.3,0.8-1.8c0.5-0.5,1.4-0.7,2.6-0.7h2.4v-0.3c0-0.7-0.2-1.2-0.6-1.5
				c-0.4-0.4-0.9-0.5-1.7-0.5c-0.5,0-1,0.1-1.5,0.3c-0.5,0.2-0.9,0.4-1.2,0.7l-0.6-1.2c0.4-0.4,1-0.6,1.6-0.8
				C290.9,232.8,291.6,232.7,292.2,232.7z M291.9,240.1c0.6,0,1.1-0.1,1.5-0.4c0.4-0.3,0.7-0.6,0.9-1.1v-1.2H292c-1.3,0-2,0.4-2,1.3
				c0,0.4,0.2,0.8,0.5,1C290.9,240,291.3,240.1,291.9,240.1z M298.7,229.4h1.5v11.9h-1.5V229.4z M315,232.8l-3.7,8.5h-1.6l-3.7-8.5
				h1.6l2.9,6.8l3-6.8H315z M316.4,232.8h1.5v8.5h-1.5V232.8z M317.2,231.1c-0.3,0-0.5-0.1-0.8-0.3c-0.2-0.2-0.3-0.4-0.3-0.7
				c0-0.3,0.1-0.5,0.3-0.7c0.2-0.2,0.5-0.3,0.8-0.3c0.3,0,0.5,0.1,0.7,0.3c0.2,0.2,0.3,0.4,0.3,0.7c0,0.3-0.1,0.5-0.3,0.7
				C317.7,231,317.5,231.1,317.2,231.1z M328.9,229.4v11.9h-1.5v-1.3c-0.3,0.5-0.8,0.8-1.3,1.1c-0.5,0.2-1.1,0.4-1.7,0.4
				c-0.8,0-1.6-0.2-2.2-0.5c-0.7-0.4-1.2-0.9-1.5-1.5c-0.4-0.7-0.5-1.4-0.5-2.3c0-0.9,0.2-1.6,0.5-2.3c0.4-0.7,0.9-1.2,1.5-1.5
				c0.7-0.4,1.4-0.5,2.2-0.5c0.6,0,1.2,0.1,1.7,0.4c0.5,0.2,0.9,0.6,1.3,1v-4.7H328.9z M324.5,240c0.5,0,1-0.1,1.5-0.4
				c0.4-0.3,0.8-0.6,1-1.1c0.2-0.5,0.4-1,0.4-1.6c0-0.6-0.1-1.1-0.4-1.6c-0.2-0.5-0.6-0.8-1-1.1c-0.4-0.2-0.9-0.4-1.5-0.4
				c-0.5,0-1,0.1-1.5,0.4c-0.4,0.2-0.8,0.6-1,1.1c-0.2,0.4-0.4,1-0.4,1.6c0,0.6,0.1,1.1,0.4,1.6c0.3,0.4,0.6,0.8,1,1.1
				C323.5,239.9,324,240,324.5,240z M339.5,237c0,0.1,0,0.3,0,0.5h-6.9c0.1,0.7,0.4,1.3,1,1.8c0.6,0.4,1.3,0.7,2.1,0.7
				c1,0,1.8-0.3,2.4-1l0.8,1c-0.4,0.4-0.9,0.8-1.4,1c-0.6,0.2-1.2,0.4-1.9,0.4c-0.9,0-1.7-0.2-2.4-0.5c-0.7-0.4-1.2-0.9-1.6-1.6
				c-0.4-0.7-0.6-1.4-0.6-2.2c0-0.8,0.2-1.6,0.5-2.2c0.4-0.7,0.9-1.2,1.5-1.5c0.7-0.4,1.4-0.6,2.2-0.6c0.8,0,1.5,0.2,2.2,0.6
				c0.6,0.4,1.1,0.9,1.5,1.5C339.3,235.4,339.5,236.2,339.5,237z M335.3,234c-0.7,0-1.4,0.2-1.9,0.7c-0.5,0.4-0.8,1-0.9,1.8h5.4
				c-0.1-0.7-0.4-1.3-0.9-1.7C336.6,234.2,336,234,335.3,234z M345.2,241.3c-0.8,0-1.6-0.2-2.3-0.6c-0.7-0.4-1.2-0.9-1.6-1.5
				c-0.4-0.7-0.6-1.4-0.6-2.2s0.2-1.6,0.6-2.2c0.4-0.7,0.9-1.2,1.6-1.5c0.7-0.4,1.4-0.6,2.3-0.6c0.8,0,1.6,0.2,2.3,0.6
				c0.7,0.4,1.2,0.9,1.6,1.5c0.4,0.7,0.6,1.4,0.6,2.2s-0.2,1.6-0.6,2.2c-0.4,0.7-0.9,1.2-1.6,1.5
				C346.8,241.1,346.1,241.3,345.2,241.3z M345.2,240c0.5,0,1-0.1,1.5-0.4c0.4-0.3,0.8-0.6,1-1.1c0.2-0.5,0.4-1,0.4-1.6
				c0-0.6-0.1-1.1-0.4-1.6c-0.2-0.5-0.6-0.8-1-1.1c-0.4-0.2-0.9-0.4-1.5-0.4c-0.5,0-1,0.1-1.5,0.4c-0.4,0.2-0.8,0.6-1,1.1
				c-0.2,0.4-0.4,1-0.4,1.6c0,0.6,0.1,1.1,0.4,1.6c0.3,0.4,0.6,0.8,1,1.1C344.2,239.9,344.7,240,345.2,240z M354.2,241.3
				c-0.7,0-1.4-0.1-2-0.3c-0.6-0.2-1.1-0.4-1.5-0.7l0.6-1.2c0.4,0.3,0.8,0.5,1.4,0.6c0.5,0.2,1.1,0.2,1.6,0.2c1.3,0,2-0.4,2-1.2
				c0-0.3-0.1-0.5-0.3-0.6c-0.2-0.1-0.4-0.3-0.7-0.3c-0.3-0.1-0.7-0.2-1.2-0.2c-0.7-0.1-1.2-0.2-1.7-0.4c-0.4-0.1-0.8-0.4-1.1-0.7
				c-0.3-0.3-0.5-0.8-0.5-1.4c0-0.8,0.3-1.4,1-1.8c0.6-0.5,1.5-0.7,2.6-0.7c0.6,0,1.1,0.1,1.7,0.2c0.6,0.1,1,0.3,1.4,0.6l-0.7,1.2
				c-0.7-0.4-1.5-0.7-2.4-0.7c-0.7,0-1.1,0.1-1.5,0.3c-0.3,0.2-0.5,0.5-0.5,0.8c0,0.3,0.1,0.5,0.3,0.7c0.2,0.2,0.4,0.3,0.7,0.4
				c0.3,0.1,0.7,0.2,1.2,0.3c0.7,0.1,1.2,0.2,1.6,0.4c0.4,0.1,0.8,0.4,1.1,0.7c0.3,0.3,0.4,0.8,0.4,1.3c0,0.8-0.3,1.4-1,1.8
				C356.2,241.1,355.3,241.3,354.2,241.3z"/>
			<path fill="#5095FF" d="M205.3,242.8h153v0.8h-153V242.8z"/>
		</g>
		<g class="topic_text">
			<path id="How_can_I_find_more_information_on_Covid_such_as_how_to_porperly_wear_a_mask_x3F_" fill="#F79FA8" d="M114.3,145v11.2
				h-2.6v-4.6h-5.1v4.6H104V145h2.6v4.4h5.1V145H114.3z M120.8,156.4c-0.9,0-1.7-0.2-2.4-0.6c-0.7-0.4-1.3-0.9-1.7-1.6
				c-0.4-0.7-0.6-1.4-0.6-2.3s0.2-1.6,0.6-2.3c0.4-0.7,1-1.2,1.7-1.6c0.7-0.4,1.5-0.6,2.4-0.6c0.9,0,1.7,0.2,2.4,0.6
				c0.7,0.4,1.3,0.9,1.7,1.6c0.4,0.7,0.6,1.4,0.6,2.3s-0.2,1.6-0.6,2.3c-0.4,0.7-1,1.2-1.7,1.6C122.5,156.2,121.7,156.4,120.8,156.4z
				 M120.8,154.3c0.6,0,1.2-0.2,1.6-0.6c0.4-0.4,0.6-1,0.6-1.7c0-0.7-0.2-1.3-0.6-1.7c-0.4-0.4-0.9-0.7-1.6-0.7s-1.2,0.2-1.6,0.7
				c-0.4,0.4-0.6,1-0.6,1.7c0,0.7,0.2,1.3,0.6,1.7C119.7,154.1,120.2,154.3,120.8,154.3z M140.8,147.6l-3.1,8.6h-2.4l-1.9-5.3l-2,5.3
				H129l-3.1-8.6h2.4l2,5.8l2.1-5.8h2.1l2,5.8l2.1-5.8H140.8z M150.7,156.4c-0.9,0-1.7-0.2-2.5-0.6c-0.7-0.4-1.3-0.9-1.7-1.6
				c-0.4-0.7-0.6-1.4-0.6-2.3s0.2-1.6,0.6-2.3c0.4-0.7,1-1.2,1.7-1.6c0.7-0.4,1.6-0.6,2.5-0.6c0.9,0,1.7,0.2,2.4,0.6
				c0.7,0.4,1.2,0.9,1.5,1.6l-1.9,1c-0.4-0.8-1.1-1.2-1.9-1.2c-0.6,0-1.2,0.2-1.6,0.6c-0.4,0.4-0.6,1-0.6,1.7c0,0.7,0.2,1.3,0.6,1.7
				c0.4,0.4,1,0.6,1.6,0.6c0.9,0,1.5-0.4,1.9-1.2l1.9,1.1c-0.3,0.7-0.8,1.2-1.5,1.6C152.4,156.2,151.6,156.4,150.7,156.4z
				 M159.4,147.5c1.3,0,2.4,0.3,3.1,1c0.7,0.6,1.1,1.6,1.1,2.9v4.9h-2.3v-1.1c-0.5,0.8-1.3,1.2-2.6,1.2c-0.7,0-1.2-0.1-1.7-0.3
				c-0.5-0.2-0.8-0.5-1.1-0.9s-0.4-0.8-0.4-1.3c0-0.8,0.3-1.4,0.9-1.9c0.6-0.5,1.5-0.7,2.8-0.7h2c0-0.5-0.2-1-0.5-1.2
				c-0.3-0.3-0.8-0.4-1.5-0.4c-0.5,0-0.9,0.1-1.4,0.2c-0.4,0.1-0.8,0.3-1.1,0.6l-0.9-1.7c0.5-0.3,1-0.6,1.7-0.8
				C158.1,147.6,158.7,147.5,159.4,147.5z M159.2,154.7c0.4,0,0.8-0.1,1.1-0.3c0.3-0.2,0.6-0.5,0.7-0.9v-0.9h-1.7c-1,0-1.5,0.3-1.5,1
				c0,0.3,0.1,0.6,0.4,0.8C158.4,154.6,158.8,154.7,159.2,154.7z M171.1,147.5c1.1,0,1.9,0.3,2.6,1c0.7,0.6,1,1.6,1,2.8v4.9h-2.5v-4.5
				c0-0.7-0.1-1.2-0.4-1.5c-0.3-0.3-0.7-0.5-1.3-0.5c-0.6,0-1.1,0.2-1.5,0.6c-0.4,0.4-0.6,1-0.6,1.7v4.3h-2.5v-8.6h2.4v1
				c0.3-0.4,0.7-0.6,1.2-0.8C169.9,147.6,170.5,147.5,171.1,147.5z M181.6,145h2.6v11.2h-2.6V145z M193.9,147.8h2.2v1.9H194v6.5h-2.5
				v-6.5h-1.3v-1.9h1.3v-0.4c0-1,0.3-1.8,0.9-2.3c0.6-0.6,1.4-0.9,2.5-0.9c0.4,0,0.7,0,1.1,0.1c0.3,0.1,0.6,0.2,0.8,0.3l-0.7,1.8
				c-0.3-0.2-0.6-0.3-1-0.3c-0.8,0-1.1,0.4-1.1,1.2V147.8z M198.7,147.6h2.5v8.6h-2.5V147.6z M199.9,146.4c-0.5,0-0.8-0.1-1.1-0.4
				c-0.3-0.3-0.4-0.6-0.4-1s0.1-0.7,0.4-1c0.3-0.3,0.7-0.4,1.1-0.4c0.5,0,0.8,0.1,1.1,0.4c0.3,0.3,0.4,0.6,0.4,1c0,0.4-0.1,0.8-0.4,1
				C200.7,146.3,200.4,146.4,199.9,146.4z M208.7,147.5c1.1,0,1.9,0.3,2.6,1c0.7,0.6,1,1.6,1,2.8v4.9h-2.5v-4.5c0-0.7-0.2-1.2-0.4-1.5
				c-0.3-0.3-0.7-0.5-1.3-0.5c-0.6,0-1.1,0.2-1.5,0.6c-0.4,0.4-0.6,1-0.6,1.7v4.3h-2.5v-8.6h2.4v1c0.3-0.4,0.7-0.6,1.2-0.8
				C207.6,147.6,208.1,147.5,208.7,147.5z M223.4,144.4v11.9H221v-1c-0.6,0.7-1.5,1.1-2.7,1.1c-0.8,0-1.5-0.2-2.2-0.5
				c-0.7-0.4-1.2-0.9-1.5-1.6c-0.4-0.7-0.6-1.5-0.6-2.3s0.2-1.7,0.6-2.3s0.9-1.2,1.5-1.6c0.7-0.4,1.4-0.5,2.2-0.5c1.1,0,2,0.3,2.6,1
				v-4.2H223.4z M218.8,154.3c0.6,0,1.2-0.2,1.6-0.6c0.4-0.4,0.6-1,0.6-1.7c0-0.7-0.2-1.3-0.6-1.7c-0.4-0.4-0.9-0.7-1.6-0.7
				c-0.6,0-1.2,0.2-1.6,0.7c-0.4,0.4-0.6,1-0.6,1.7c0,0.7,0.2,1.3,0.6,1.7C217.6,154.1,218.1,154.3,218.8,154.3z M241.3,147.5
				c1.1,0,1.9,0.3,2.6,1c0.6,0.6,1,1.6,1,2.8v4.9h-2.5v-4.5c0-0.7-0.1-1.2-0.4-1.5c-0.3-0.3-0.7-0.5-1.2-0.5c-0.6,0-1.1,0.2-1.4,0.6
				c-0.3,0.4-0.5,0.9-0.5,1.7v4.3h-2.5v-4.5c0-1.4-0.5-2-1.6-2c-0.6,0-1,0.2-1.4,0.6c-0.3,0.4-0.5,0.9-0.5,1.7v4.3h-2.5v-8.6h2.4v1
				c0.3-0.4,0.7-0.6,1.2-0.8c0.5-0.2,1-0.3,1.5-0.3c0.6,0,1.2,0.1,1.6,0.4c0.5,0.2,0.9,0.6,1.2,1c0.4-0.4,0.8-0.8,1.3-1
				C240,147.6,240.6,147.5,241.3,147.5z M251.2,156.4c-0.9,0-1.7-0.2-2.4-0.6c-0.7-0.4-1.3-0.9-1.7-1.6c-0.4-0.7-0.6-1.4-0.6-2.3
				s0.2-1.6,0.6-2.3c0.4-0.7,1-1.2,1.7-1.6c0.7-0.4,1.5-0.6,2.4-0.6c0.9,0,1.7,0.2,2.4,0.6c0.7,0.4,1.3,0.9,1.7,1.6
				c0.4,0.7,0.6,1.4,0.6,2.3s-0.2,1.6-0.6,2.3c-0.4,0.7-1,1.2-1.7,1.6C252.9,156.2,252.1,156.4,251.2,156.4z M251.2,154.3
				c0.6,0,1.2-0.2,1.6-0.6c0.4-0.4,0.6-1,0.6-1.7c0-0.7-0.2-1.3-0.6-1.7c-0.4-0.4-0.9-0.7-1.6-0.7s-1.2,0.2-1.6,0.7
				c-0.4,0.4-0.6,1-0.6,1.7c0,0.7,0.2,1.3,0.6,1.7C250.1,154.1,250.6,154.3,251.2,154.3z M260,148.8c0.3-0.4,0.7-0.7,1.2-0.9
				c0.5-0.2,1.1-0.3,1.8-0.3v2.3c-0.3,0-0.5,0-0.6,0c-0.7,0-1.3,0.2-1.7,0.6c-0.4,0.4-0.6,1-0.6,1.8v4.1h-2.5v-8.6h2.4V148.8z
				 M272.8,152c0,0,0,0.3,0,0.7h-6.5c0.1,0.5,0.4,1,0.8,1.3c0.4,0.3,1,0.5,1.6,0.5c0.4,0,0.8-0.1,1.2-0.2c0.4-0.1,0.7-0.4,1-0.6
				l1.3,1.4c-0.8,0.9-2,1.4-3.6,1.4c-1,0-1.8-0.2-2.6-0.6c-0.7-0.4-1.3-0.9-1.7-1.6c-0.4-0.7-0.6-1.4-0.6-2.3c0-0.8,0.2-1.6,0.6-2.3
				c0.4-0.7,1-1.2,1.6-1.6c0.7-0.4,1.5-0.6,2.4-0.6c0.8,0,1.6,0.2,2.3,0.5c0.7,0.4,1.2,0.9,1.6,1.6C272.6,150.3,272.8,151.1,272.8,152
				z M268.3,149.4c-0.6,0-1,0.2-1.4,0.5s-0.6,0.8-0.7,1.3h4.2c-0.1-0.5-0.3-1-0.7-1.3C269.3,149.6,268.9,149.4,268.3,149.4z
				 M279,147.6h2.5v8.6H279V147.6z M280.2,146.4c-0.5,0-0.8-0.1-1.1-0.4c-0.3-0.3-0.4-0.6-0.4-1s0.1-0.7,0.4-1
				c0.3-0.3,0.7-0.4,1.1-0.4c0.5,0,0.8,0.1,1.1,0.4c0.3,0.3,0.4,0.6,0.4,1c0,0.4-0.1,0.8-0.4,1C281.1,146.3,280.7,146.4,280.2,146.4z
				 M289,147.5c1.1,0,1.9,0.3,2.6,1c0.7,0.6,1,1.6,1,2.8v4.9h-2.5v-4.5c0-0.7-0.1-1.2-0.4-1.5c-0.3-0.3-0.7-0.5-1.3-0.5
				c-0.6,0-1.1,0.2-1.5,0.6c-0.4,0.4-0.6,1-0.6,1.7v4.3h-2.5v-8.6h2.4v1c0.3-0.4,0.7-0.6,1.2-0.8C287.9,147.6,288.4,147.5,289,147.5z
				 M297.6,147.8h2.2v1.9h-2.1v6.5h-2.5v-6.5h-1.3v-1.9h1.3v-0.4c0-1,0.3-1.8,0.9-2.3c0.6-0.6,1.4-0.9,2.5-0.9c0.4,0,0.7,0,1.1,0.1
				c0.3,0.1,0.6,0.2,0.8,0.3l-0.7,1.8c-0.3-0.2-0.6-0.3-1-0.3c-0.8,0-1.1,0.4-1.1,1.2V147.8z M305,156.4c-0.9,0-1.7-0.2-2.4-0.6
				c-0.7-0.4-1.3-0.9-1.7-1.6c-0.4-0.7-0.6-1.4-0.6-2.3s0.2-1.6,0.6-2.3s1-1.2,1.7-1.6c0.7-0.4,1.5-0.6,2.4-0.6c0.9,0,1.7,0.2,2.4,0.6
				c0.7,0.4,1.3,0.9,1.7,1.6s0.6,1.4,0.6,2.3s-0.2,1.6-0.6,2.3c-0.4,0.7-1,1.2-1.7,1.6C306.7,156.2,305.9,156.4,305,156.4z M305,154.3
				c0.6,0,1.2-0.2,1.6-0.6c0.4-0.4,0.6-1,0.6-1.7c0-0.7-0.2-1.3-0.6-1.7c-0.4-0.4-0.9-0.7-1.6-0.7c-0.6,0-1.2,0.2-1.6,0.7
				c-0.4,0.4-0.6,1-0.6,1.7c0,0.7,0.2,1.3,0.6,1.7C303.9,154.1,304.4,154.3,305,154.3z M313.8,148.8c0.3-0.4,0.7-0.7,1.2-0.9
				c0.5-0.2,1.1-0.3,1.8-0.3v2.3c-0.3,0-0.5,0-0.6,0c-0.7,0-1.3,0.2-1.7,0.6c-0.4,0.4-0.6,1-0.6,1.8v4.1h-2.5v-8.6h2.4V148.8z
				 M329.3,147.5c1.1,0,1.9,0.3,2.6,1c0.6,0.6,1,1.6,1,2.8v4.9h-2.5v-4.5c0-0.7-0.1-1.2-0.4-1.5c-0.3-0.3-0.7-0.5-1.2-0.5
				c-0.6,0-1,0.2-1.4,0.6c-0.3,0.4-0.5,0.9-0.5,1.7v4.3h-2.5v-4.5c0-1.4-0.5-2-1.6-2c-0.6,0-1,0.2-1.4,0.6c-0.3,0.4-0.5,0.9-0.5,1.7
				v4.3h-2.5v-8.6h2.4v1c0.3-0.4,0.7-0.6,1.2-0.8c0.5-0.2,1-0.3,1.5-0.3c0.6,0,1.2,0.1,1.6,0.4c0.5,0.2,0.9,0.6,1.2,1
				c0.4-0.4,0.8-0.8,1.3-1C328,147.6,328.6,147.5,329.3,147.5z M338.5,147.5c1.3,0,2.4,0.3,3.1,1c0.7,0.6,1.1,1.6,1.1,2.9v4.9h-2.3
				v-1.1c-0.5,0.8-1.3,1.2-2.6,1.2c-0.7,0-1.2-0.1-1.7-0.3c-0.5-0.2-0.8-0.5-1.1-0.9c-0.3-0.4-0.4-0.8-0.4-1.3c0-0.8,0.3-1.4,0.9-1.9
				c0.6-0.5,1.5-0.7,2.8-0.7h2c0-0.5-0.2-1-0.5-1.2c-0.3-0.3-0.8-0.4-1.5-0.4c-0.5,0-0.9,0.1-1.4,0.2c-0.4,0.1-0.8,0.3-1.1,0.6
				l-0.9-1.7c0.5-0.3,1-0.6,1.7-0.8C337.1,147.6,337.8,147.5,338.5,147.5z M338.3,154.7c0.4,0,0.8-0.1,1.1-0.3
				c0.3-0.2,0.6-0.5,0.7-0.9v-0.9h-1.7c-1,0-1.5,0.3-1.5,1c0,0.3,0.1,0.6,0.4,0.8C337.5,154.6,337.9,154.7,338.3,154.7z M350.5,155.8
				c-0.2,0.2-0.5,0.3-0.9,0.4c-0.4,0.1-0.7,0.1-1.1,0.1c-1,0-1.8-0.3-2.4-0.8c-0.6-0.5-0.8-1.3-0.8-2.3v-3.5h-1.3v-1.9h1.3v-2.1h2.5
				v2.1h2.1v1.9h-2.1v3.5c0,0.4,0.1,0.6,0.3,0.8c0.2,0.2,0.5,0.3,0.8,0.3c0.4,0,0.7-0.1,1-0.3L350.5,155.8z M351.9,147.6h2.5v8.6h-2.5
				V147.6z M353.1,146.4c-0.5,0-0.8-0.1-1.1-0.4c-0.3-0.3-0.4-0.6-0.4-1s0.1-0.7,0.4-1c0.3-0.3,0.7-0.4,1.1-0.4c0.5,0,0.8,0.1,1.1,0.4
				c0.3,0.3,0.4,0.6,0.4,1c0,0.4-0.1,0.8-0.4,1C353.9,146.3,353.6,146.4,353.1,146.4z M360.8,156.4c-0.9,0-1.7-0.2-2.4-0.6
				c-0.7-0.4-1.3-0.9-1.7-1.6c-0.4-0.7-0.6-1.4-0.6-2.3s0.2-1.6,0.6-2.3c0.4-0.7,1-1.2,1.7-1.6c0.7-0.4,1.5-0.6,2.4-0.6
				c0.9,0,1.7,0.2,2.4,0.6c0.7,0.4,1.3,0.9,1.7,1.6c0.4,0.7,0.6,1.4,0.6,2.3s-0.2,1.6-0.6,2.3c-0.4,0.7-1,1.2-1.7,1.6
				C362.5,156.2,361.7,156.4,360.8,156.4z M360.8,154.3c0.6,0,1.2-0.2,1.6-0.6c0.4-0.4,0.6-1,0.6-1.7c0-0.7-0.2-1.3-0.6-1.7
				c-0.4-0.4-0.9-0.7-1.6-0.7c-0.6,0-1.2,0.2-1.6,0.7c-0.4,0.4-0.6,1-0.6,1.7c0,0.7,0.2,1.3,0.6,1.7
				C359.6,154.1,360.1,154.3,360.8,154.3z M372.4,147.5c1.1,0,1.9,0.3,2.6,1c0.7,0.6,1,1.6,1,2.8v4.9h-2.5v-4.5c0-0.7-0.1-1.2-0.4-1.5
				c-0.3-0.3-0.7-0.5-1.3-0.5c-0.6,0-1.1,0.2-1.5,0.6c-0.4,0.4-0.6,1-0.6,1.7v4.3h-2.5v-8.6h2.4v1c0.3-0.4,0.7-0.6,1.2-0.8
				C371.3,147.6,371.8,147.5,372.4,147.5z M105.9,180.4c-0.9,0-1.7-0.2-2.4-0.6c-0.7-0.4-1.3-0.9-1.7-1.6c-0.4-0.7-0.6-1.4-0.6-2.3
				c0-0.9,0.2-1.6,0.6-2.3c0.4-0.7,1-1.2,1.7-1.6c0.7-0.4,1.5-0.6,2.4-0.6c0.9,0,1.7,0.2,2.4,0.6c0.7,0.4,1.3,0.9,1.7,1.6
				c0.4,0.7,0.6,1.4,0.6,2.3c0,0.9-0.2,1.6-0.6,2.3c-0.4,0.7-1,1.2-1.7,1.6C107.6,180.2,106.8,180.4,105.9,180.4z M105.9,178.3
				c0.6,0,1.2-0.2,1.6-0.6c0.4-0.4,0.6-1,0.6-1.7c0-0.7-0.2-1.3-0.6-1.7c-0.4-0.4-0.9-0.7-1.6-0.7c-0.6,0-1.2,0.2-1.6,0.7
				c-0.4,0.4-0.6,1-0.6,1.7c0,0.7,0.2,1.3,0.6,1.7C104.7,178.1,105.2,178.3,105.9,178.3z M117.5,171.5c1.1,0,1.9,0.3,2.6,1
				c0.7,0.6,1,1.6,1,2.8v4.9h-2.5v-4.5c0-0.7-0.1-1.2-0.4-1.5c-0.3-0.3-0.7-0.5-1.3-0.5c-0.6,0-1.1,0.2-1.5,0.6
				c-0.4,0.4-0.6,1-0.6,1.7v4.3h-2.5v-8.6h2.4v1c0.3-0.4,0.7-0.6,1.2-0.8C116.4,171.6,116.9,171.5,117.5,171.5z M133.4,180.4
				c-1.1,0-2.2-0.2-3.1-0.7c-0.9-0.5-1.6-1.2-2.2-2.1c-0.5-0.9-0.8-1.9-0.8-3c0-1.1,0.3-2.1,0.8-3c0.5-0.9,1.3-1.6,2.2-2.1
				c0.9-0.5,2-0.8,3.1-0.8c1,0,1.8,0.2,2.6,0.5c0.8,0.3,1.5,0.8,2,1.5l-1.7,1.5c-0.8-0.9-1.7-1.3-2.8-1.3c-0.7,0-1.3,0.2-1.9,0.5
				c-0.5,0.3-1,0.7-1.3,1.3c-0.3,0.5-0.4,1.2-0.4,1.9c0,0.7,0.1,1.3,0.4,1.9c0.3,0.5,0.7,1,1.3,1.3c0.5,0.3,1.2,0.4,1.9,0.4
				c1.1,0,2.1-0.4,2.8-1.3l1.7,1.5c-0.5,0.7-1.2,1.1-2,1.5C135.3,180.3,134.4,180.4,133.4,180.4z M143.4,180.4c-0.9,0-1.7-0.2-2.4-0.6
				c-0.7-0.4-1.3-0.9-1.7-1.6c-0.4-0.7-0.6-1.4-0.6-2.3c0-0.9,0.2-1.6,0.6-2.3s1-1.2,1.7-1.6c0.7-0.4,1.5-0.6,2.4-0.6s1.7,0.2,2.4,0.6
				c0.7,0.4,1.3,0.9,1.7,1.6s0.6,1.4,0.6,2.3c0,0.9-0.2,1.6-0.6,2.3c-0.4,0.7-1,1.2-1.7,1.6C145.1,180.2,144.3,180.4,143.4,180.4z
				 M143.4,178.3c0.6,0,1.2-0.2,1.6-0.6c0.4-0.4,0.6-1,0.6-1.7c0-0.7-0.2-1.3-0.6-1.7c-0.4-0.4-0.9-0.7-1.6-0.7s-1.2,0.2-1.6,0.7
				c-0.4,0.4-0.6,1-0.6,1.7c0,0.7,0.2,1.3,0.6,1.7C142.2,178.1,142.8,178.3,143.4,178.3z M158.1,171.6l-3.6,8.6h-2.6l-3.6-8.6h2.6
				l2.4,5.9l2.5-5.9H158.1z M159.1,171.6h2.5v8.6h-2.5V171.6z M160.4,170.4c-0.5,0-0.8-0.1-1.1-0.4c-0.3-0.3-0.4-0.6-0.4-1
				s0.1-0.7,0.4-1c0.3-0.3,0.7-0.4,1.1-0.4c0.5,0,0.8,0.1,1.1,0.4c0.3,0.3,0.4,0.6,0.4,1c0,0.4-0.1,0.8-0.4,1
				C161.2,170.3,160.8,170.4,160.4,170.4z M172.7,168.4v11.9h-2.4v-1c-0.6,0.7-1.5,1.1-2.7,1.1c-0.8,0-1.5-0.2-2.2-0.5
				c-0.7-0.4-1.2-0.9-1.5-1.6c-0.4-0.7-0.6-1.5-0.6-2.3c0-0.9,0.2-1.7,0.6-2.3s0.9-1.2,1.5-1.6c0.7-0.4,1.4-0.5,2.2-0.5
				c1.1,0,2,0.3,2.6,1v-4.2H172.7z M168.1,178.3c0.6,0,1.2-0.2,1.6-0.6c0.4-0.4,0.6-1,0.6-1.7c0-0.7-0.2-1.3-0.6-1.7
				c-0.4-0.4-0.9-0.7-1.6-0.7c-0.6,0-1.2,0.2-1.6,0.7c-0.4,0.4-0.6,1-0.6,1.7c0,0.7,0.2,1.3,0.6,1.7
				C166.9,178.1,167.4,178.3,168.1,178.3z M182.4,180.4c-0.7,0-1.4-0.1-2.1-0.3c-0.7-0.2-1.2-0.4-1.6-0.7l0.8-1.8
				c0.4,0.2,0.8,0.4,1.4,0.6c0.5,0.1,1.1,0.2,1.6,0.2c1.1,0,1.6-0.3,1.6-0.8c0-0.2-0.1-0.4-0.4-0.5c-0.3-0.1-0.7-0.2-1.3-0.3
				c-0.7-0.1-1.3-0.2-1.7-0.4c-0.5-0.1-0.9-0.4-1.2-0.7c-0.3-0.4-0.5-0.9-0.5-1.5c0-0.5,0.2-1,0.5-1.4c0.3-0.4,0.8-0.8,1.4-1
				c0.6-0.2,1.3-0.4,2.1-0.4c0.6,0,1.2,0.1,1.8,0.2c0.6,0.1,1.1,0.3,1.5,0.5l-0.8,1.8c-0.8-0.4-1.6-0.6-2.5-0.6
				c-0.5,0-0.9,0.1-1.2,0.2c-0.3,0.1-0.4,0.3-0.4,0.6c0,0.3,0.1,0.5,0.4,0.6c0.3,0.1,0.7,0.2,1.4,0.3c0.7,0.1,1.3,0.2,1.7,0.4
				c0.4,0.1,0.8,0.4,1.2,0.7c0.3,0.4,0.5,0.8,0.5,1.5c0,0.5-0.2,1-0.5,1.4c-0.3,0.4-0.8,0.7-1.4,1C184,180.3,183.3,180.4,182.4,180.4z
				 M196.7,171.6v8.6h-2.4v-1c-0.3,0.4-0.7,0.7-1.2,0.9c-0.5,0.2-1,0.3-1.5,0.3c-1.1,0-2-0.3-2.7-1c-0.7-0.7-1-1.6-1-2.9v-4.9h2.5v4.5
				c0,1.4,0.6,2.1,1.7,2.1c0.6,0,1.1-0.2,1.4-0.6c0.4-0.4,0.5-1,0.5-1.7v-4.3H196.7z M203.2,180.4c-0.9,0-1.7-0.2-2.5-0.6
				c-0.7-0.4-1.3-0.9-1.7-1.6c-0.4-0.7-0.6-1.4-0.6-2.3c0-0.9,0.2-1.6,0.6-2.3c0.4-0.7,1-1.2,1.7-1.6c0.7-0.4,1.6-0.6,2.5-0.6
				c0.9,0,1.7,0.2,2.4,0.6c0.7,0.4,1.2,0.9,1.5,1.6l-1.9,1c-0.4-0.8-1.1-1.2-1.9-1.2c-0.7,0-1.2,0.2-1.6,0.6c-0.4,0.4-0.6,1-0.6,1.7
				c0,0.7,0.2,1.3,0.6,1.7c0.4,0.4,1,0.6,1.6,0.6c0.9,0,1.5-0.4,1.9-1.2l1.9,1.1c-0.3,0.7-0.8,1.2-1.5,1.6
				C204.9,180.2,204.1,180.4,203.2,180.4z M213.6,171.5c1.1,0,1.9,0.3,2.6,1c0.7,0.6,1,1.6,1,2.8v4.9h-2.5v-4.5c0-0.7-0.1-1.2-0.4-1.5
				c-0.3-0.3-0.7-0.5-1.3-0.5c-0.6,0-1.1,0.2-1.5,0.6c-0.4,0.4-0.6,1-0.6,1.7v4.3h-2.5v-11.9h2.5v4.2c0.3-0.3,0.7-0.6,1.2-0.8
				C212.6,171.6,213.1,171.5,213.6,171.5z M227.5,171.5c1.3,0,2.4,0.3,3.1,1c0.7,0.6,1.1,1.6,1.1,2.9v4.9h-2.3v-1.1
				c-0.5,0.8-1.3,1.2-2.6,1.2c-0.7,0-1.2-0.1-1.7-0.3c-0.5-0.2-0.8-0.5-1.1-0.9c-0.3-0.4-0.4-0.8-0.4-1.3c0-0.8,0.3-1.4,0.9-1.9
				c0.6-0.5,1.5-0.7,2.8-0.7h2c0-0.5-0.2-1-0.5-1.2c-0.3-0.3-0.8-0.4-1.5-0.4c-0.5,0-0.9,0.1-1.4,0.2c-0.4,0.1-0.8,0.3-1.1,0.6
				l-0.9-1.7c0.5-0.3,1-0.6,1.7-0.8C226.1,171.6,226.8,171.5,227.5,171.5z M227.3,178.7c0.4,0,0.8-0.1,1.1-0.3
				c0.3-0.2,0.6-0.5,0.7-0.9v-0.9h-1.7c-1,0-1.5,0.3-1.5,1c0,0.3,0.1,0.6,0.4,0.8C226.5,178.6,226.8,178.7,227.3,178.7z M236.8,180.4
				c-0.7,0-1.4-0.1-2.1-0.3c-0.7-0.2-1.2-0.4-1.6-0.7l0.8-1.8c0.4,0.2,0.8,0.4,1.4,0.6c0.5,0.1,1.1,0.2,1.6,0.2c1.1,0,1.6-0.3,1.6-0.8
				c0-0.2-0.1-0.4-0.4-0.5c-0.3-0.1-0.7-0.2-1.3-0.3c-0.7-0.1-1.3-0.2-1.7-0.4c-0.5-0.1-0.9-0.4-1.2-0.7c-0.3-0.4-0.5-0.9-0.5-1.5
				c0-0.5,0.2-1,0.5-1.4c0.3-0.4,0.8-0.8,1.4-1c0.6-0.2,1.3-0.4,2.1-0.4c0.6,0,1.2,0.1,1.8,0.2c0.6,0.1,1.1,0.3,1.5,0.5l-0.8,1.8
				c-0.8-0.4-1.6-0.6-2.5-0.6c-0.5,0-0.9,0.1-1.2,0.2c-0.3,0.1-0.4,0.3-0.4,0.6c0,0.3,0.1,0.5,0.4,0.6c0.3,0.1,0.7,0.2,1.4,0.3
				c0.7,0.1,1.3,0.2,1.7,0.4c0.4,0.1,0.8,0.4,1.2,0.7c0.3,0.4,0.5,0.8,0.5,1.5c0,0.5-0.2,1-0.5,1.4c-0.3,0.4-0.8,0.7-1.4,1
				C238.3,180.3,237.6,180.4,236.8,180.4z M252.1,171.5c1.1,0,1.9,0.3,2.6,1c0.7,0.6,1,1.6,1,2.8v4.9h-2.5v-4.5c0-0.7-0.1-1.2-0.4-1.5
				c-0.3-0.3-0.7-0.5-1.3-0.5c-0.6,0-1.1,0.2-1.5,0.6c-0.4,0.4-0.6,1-0.6,1.7v4.3h-2.5v-11.9h2.5v4.2c0.3-0.3,0.7-0.6,1.2-0.8
				C251.1,171.6,251.6,171.5,252.1,171.5z M262.2,180.4c-0.9,0-1.7-0.2-2.4-0.6c-0.7-0.4-1.3-0.9-1.7-1.6c-0.4-0.7-0.6-1.4-0.6-2.3
				c0-0.9,0.2-1.6,0.6-2.3c0.4-0.7,1-1.2,1.7-1.6c0.7-0.4,1.5-0.6,2.4-0.6c0.9,0,1.7,0.2,2.4,0.6c0.7,0.4,1.3,0.9,1.7,1.6
				c0.4,0.7,0.6,1.4,0.6,2.3c0,0.9-0.2,1.6-0.6,2.3c-0.4,0.7-1,1.2-1.7,1.6C263.9,180.2,263.1,180.4,262.2,180.4z M262.2,178.3
				c0.6,0,1.2-0.2,1.6-0.6c0.4-0.4,0.6-1,0.6-1.7c0-0.7-0.2-1.3-0.6-1.7c-0.4-0.4-0.9-0.7-1.6-0.7c-0.6,0-1.2,0.2-1.6,0.7
				c-0.4,0.4-0.6,1-0.6,1.7c0,0.7,0.2,1.3,0.6,1.7C261,178.1,261.5,178.3,262.2,178.3z M282.1,171.6l-3.1,8.6h-2.4l-1.9-5.3l-2,5.3
				h-2.4l-3.1-8.6h2.4l2,5.8l2.1-5.8h2.1l2,5.8l2.1-5.8H282.1z M293.4,179.8c-0.2,0.2-0.5,0.3-0.9,0.4c-0.4,0.1-0.7,0.1-1.1,0.1
				c-1,0-1.8-0.3-2.4-0.8c-0.6-0.5-0.8-1.3-0.8-2.3v-3.5h-1.3v-1.9h1.3v-2.1h2.5v2.1h2.1v1.9h-2.1v3.5c0,0.4,0.1,0.6,0.3,0.8
				c0.2,0.2,0.5,0.3,0.8,0.3c0.4,0,0.7-0.1,1-0.3L293.4,179.8z M298.6,180.4c-0.9,0-1.7-0.2-2.4-0.6c-0.7-0.4-1.3-0.9-1.7-1.6
				c-0.4-0.7-0.6-1.4-0.6-2.3c0-0.9,0.2-1.6,0.6-2.3c0.4-0.7,1-1.2,1.7-1.6c0.7-0.4,1.5-0.6,2.4-0.6c0.9,0,1.7,0.2,2.4,0.6
				c0.7,0.4,1.3,0.9,1.7,1.6c0.4,0.7,0.6,1.4,0.6,2.3c0,0.9-0.2,1.6-0.6,2.3c-0.4,0.7-1,1.2-1.7,1.6
				C300.3,180.2,299.5,180.4,298.6,180.4z M298.6,178.3c0.6,0,1.2-0.2,1.6-0.6c0.4-0.4,0.6-1,0.6-1.7c0-0.7-0.2-1.3-0.6-1.7
				c-0.4-0.4-0.9-0.7-1.6-0.7c-0.6,0-1.2,0.2-1.6,0.7c-0.4,0.4-0.6,1-0.6,1.7c0,0.7,0.2,1.3,0.6,1.7
				C297.4,178.1,298,178.3,298.6,178.3z M314.6,171.5c0.8,0,1.5,0.2,2.2,0.6c0.7,0.4,1.2,0.9,1.6,1.6c0.4,0.7,0.6,1.4,0.6,2.3
				c0,0.9-0.2,1.7-0.6,2.3c-0.4,0.7-0.9,1.2-1.6,1.6c-0.6,0.4-1.4,0.5-2.2,0.5c-1.1,0-2-0.3-2.6-1v4h-2.5v-11.7h2.4v1
				C312.5,171.9,313.4,171.5,314.6,171.5z M314.2,178.3c0.6,0,1.2-0.2,1.6-0.6c0.4-0.4,0.6-1,0.6-1.7c0-0.7-0.2-1.3-0.6-1.7
				c-0.4-0.4-0.9-0.7-1.6-0.7c-0.6,0-1.2,0.2-1.6,0.7c-0.4,0.4-0.6,1-0.6,1.7c0,0.7,0.2,1.3,0.6,1.7
				C313,178.1,313.6,178.3,314.2,178.3z M324.7,180.4c-0.9,0-1.7-0.2-2.4-0.6c-0.7-0.4-1.3-0.9-1.7-1.6c-0.4-0.7-0.6-1.4-0.6-2.3
				c0-0.9,0.2-1.6,0.6-2.3c0.4-0.7,1-1.2,1.7-1.6c0.7-0.4,1.5-0.6,2.4-0.6c0.9,0,1.7,0.2,2.4,0.6c0.7,0.4,1.3,0.9,1.7,1.6
				c0.4,0.7,0.6,1.4,0.6,2.3c0,0.9-0.2,1.6-0.6,2.3c-0.4,0.7-1,1.2-1.7,1.6C326.4,180.2,325.6,180.4,324.7,180.4z M324.7,178.3
				c0.6,0,1.2-0.2,1.6-0.6c0.4-0.4,0.6-1,0.6-1.7c0-0.7-0.2-1.3-0.6-1.7c-0.4-0.4-0.9-0.7-1.6-0.7c-0.6,0-1.2,0.2-1.6,0.7
				c-0.4,0.4-0.6,1-0.6,1.7c0,0.7,0.2,1.3,0.6,1.7C323.5,178.1,324,178.3,324.7,178.3z M333.5,172.8c0.3-0.4,0.7-0.7,1.2-0.9
				c0.5-0.2,1.1-0.3,1.8-0.3v2.3c-0.3,0-0.5,0-0.6,0c-0.7,0-1.3,0.2-1.7,0.6c-0.4,0.4-0.6,1-0.6,1.8v4.1h-2.5v-8.6h2.4V172.8z
				 M343,171.5c0.8,0,1.5,0.2,2.2,0.6c0.7,0.4,1.2,0.9,1.6,1.6c0.4,0.7,0.6,1.4,0.6,2.3c0,0.9-0.2,1.7-0.6,2.3
				c-0.4,0.7-0.9,1.2-1.6,1.6c-0.7,0.4-1.4,0.5-2.2,0.5c-1.1,0-2-0.3-2.6-1v4h-2.5v-11.7h2.4v1C340.9,171.9,341.8,171.5,343,171.5z
				 M342.6,178.3c0.6,0,1.2-0.2,1.6-0.6c0.4-0.4,0.6-1,0.6-1.7c0-0.7-0.2-1.3-0.6-1.7c-0.4-0.4-0.9-0.7-1.6-0.7
				c-0.6,0-1.2,0.2-1.6,0.7c-0.4,0.4-0.6,1-0.6,1.7c0,0.7,0.2,1.3,0.6,1.7C341.4,178.1,341.9,178.3,342.6,178.3z M357.4,176
				c0,0,0,0.3,0,0.7h-6.5c0.1,0.5,0.4,1,0.8,1.3c0.4,0.3,1,0.5,1.6,0.5c0.4,0,0.8-0.1,1.2-0.2c0.4-0.1,0.7-0.4,1-0.6l1.3,1.4
				c-0.8,0.9-2,1.4-3.6,1.4c-1,0-1.8-0.2-2.6-0.6c-0.7-0.4-1.3-0.9-1.7-1.6c-0.4-0.7-0.6-1.4-0.6-2.3c0-0.8,0.2-1.6,0.6-2.3
				c0.4-0.7,1-1.2,1.6-1.6c0.7-0.4,1.5-0.6,2.4-0.6c0.8,0,1.6,0.2,2.3,0.5c0.7,0.4,1.2,0.9,1.6,1.6C357.2,174.3,357.4,175.1,357.4,176
				z M352.9,173.4c-0.6,0-1,0.2-1.4,0.5s-0.6,0.8-0.7,1.3h4.2c-0.1-0.5-0.3-1-0.7-1.3C353.9,173.6,353.5,173.4,352.9,173.4z
				 M361.4,172.8c0.3-0.4,0.7-0.7,1.2-0.9c0.5-0.2,1.1-0.3,1.8-0.3v2.3c-0.3,0-0.5,0-0.6,0c-0.7,0-1.3,0.2-1.7,0.6
				c-0.4,0.4-0.6,1-0.6,1.8v4.1H359v-8.6h2.4V172.8z M365.9,168.4h2.5v11.9h-2.5V168.4z M379.2,171.6l-3.9,9.1c-0.4,1-0.9,1.7-1.5,2.1
				c-0.6,0.4-1.3,0.6-2.1,0.6c-0.4,0-0.9-0.1-1.3-0.2c-0.4-0.1-0.8-0.3-1.1-0.6l0.9-1.8c0.2,0.2,0.4,0.3,0.7,0.4
				c0.3,0.1,0.5,0.1,0.8,0.1c0.3,0,0.6-0.1,0.8-0.3c0.2-0.2,0.4-0.4,0.6-0.8l0-0.1l-3.7-8.7h2.6l2.4,5.8l2.4-5.8H379.2z M197,195.6
				l-3.1,8.6h-2.4l-1.9-5.3l-2,5.3h-2.4l-3.1-8.6h2.4l2,5.8l2.1-5.8h2.1l2,5.8l2.1-5.8H197z M206.4,200c0,0,0,0.3,0,0.7h-6.5
				c0.1,0.5,0.4,1,0.8,1.3s1,0.5,1.6,0.5c0.4,0,0.8-0.1,1.2-0.2c0.4-0.1,0.7-0.4,1-0.6l1.3,1.4c-0.8,0.9-2,1.4-3.6,1.4
				c-1,0-1.8-0.2-2.6-0.6c-0.7-0.4-1.3-0.9-1.7-1.6c-0.4-0.7-0.6-1.4-0.6-2.3c0-0.8,0.2-1.6,0.6-2.3c0.4-0.7,1-1.2,1.6-1.6
				c0.7-0.4,1.5-0.6,2.4-0.6c0.8,0,1.6,0.2,2.3,0.5c0.7,0.4,1.2,0.9,1.6,1.6C206.2,198.3,206.4,199.1,206.4,200z M201.9,197.4
				c-0.6,0-1,0.2-1.4,0.5s-0.6,0.8-0.7,1.3h4.2c-0.1-0.5-0.3-1-0.7-1.3C202.9,197.6,202.5,197.4,201.9,197.4z M211.3,195.5
				c1.3,0,2.4,0.3,3.1,1c0.7,0.6,1.1,1.6,1.1,2.9v4.9h-2.3v-1.1c-0.5,0.8-1.3,1.2-2.6,1.2c-0.7,0-1.2-0.1-1.7-0.3
				c-0.5-0.2-0.8-0.5-1.1-0.9s-0.4-0.8-0.4-1.3c0-0.8,0.3-1.4,0.9-1.9c0.6-0.5,1.5-0.7,2.8-0.7h2c0-0.5-0.2-1-0.5-1.2
				c-0.3-0.3-0.8-0.4-1.5-0.4c-0.5,0-0.9,0.1-1.4,0.2c-0.4,0.1-0.8,0.3-1.1,0.6l-0.9-1.7c0.5-0.3,1-0.6,1.7-0.8
				C209.9,195.6,210.6,195.5,211.3,195.5z M211.1,202.7c0.4,0,0.8-0.1,1.1-0.3c0.3-0.2,0.6-0.5,0.7-0.9v-0.9h-1.7c-1,0-1.5,0.3-1.5,1
				c0,0.3,0.1,0.6,0.4,0.8C210.3,202.6,210.6,202.7,211.1,202.7z M220.1,196.8c0.3-0.4,0.7-0.7,1.2-0.9c0.5-0.2,1.1-0.3,1.8-0.3v2.3
				c-0.3,0-0.5,0-0.6,0c-0.7,0-1.3,0.2-1.7,0.6c-0.4,0.4-0.6,1-0.6,1.8v4.1h-2.5v-8.6h2.4V196.8z M232.6,195.5c1.3,0,2.4,0.3,3.1,1
				c0.7,0.6,1.1,1.6,1.1,2.9v4.9h-2.3v-1.1c-0.5,0.8-1.3,1.2-2.6,1.2c-0.7,0-1.2-0.1-1.7-0.3c-0.5-0.2-0.8-0.5-1.1-0.9
				s-0.4-0.8-0.4-1.3c0-0.8,0.3-1.4,0.9-1.9c0.6-0.5,1.5-0.7,2.8-0.7h2c0-0.5-0.2-1-0.5-1.2c-0.3-0.3-0.8-0.4-1.5-0.4
				c-0.5,0-0.9,0.1-1.4,0.2c-0.4,0.1-0.8,0.3-1.1,0.6l-0.9-1.7c0.5-0.3,1-0.6,1.7-0.8C231.2,195.6,231.9,195.5,232.6,195.5z
				 M232.4,202.7c0.4,0,0.8-0.1,1.1-0.3c0.3-0.2,0.6-0.5,0.7-0.9v-0.9h-1.7c-1,0-1.5,0.3-1.5,1c0,0.3,0.1,0.6,0.4,0.8
				C231.6,202.6,231.9,202.7,232.4,202.7z M254.5,195.5c1.1,0,1.9,0.3,2.6,1c0.6,0.6,1,1.6,1,2.8v4.9h-2.5v-4.5c0-0.7-0.1-1.2-0.4-1.5
				c-0.3-0.3-0.7-0.5-1.2-0.5c-0.6,0-1.1,0.2-1.4,0.6c-0.3,0.4-0.5,0.9-0.5,1.7v4.3h-2.5v-4.5c0-1.4-0.5-2-1.6-2c-0.6,0-1,0.2-1.4,0.6
				c-0.3,0.4-0.5,0.9-0.5,1.7v4.3h-2.5v-8.6h2.4v1c0.3-0.4,0.7-0.6,1.2-0.8c0.5-0.2,1-0.3,1.5-0.3c0.6,0,1.2,0.1,1.6,0.4
				c0.5,0.2,0.9,0.6,1.2,1c0.4-0.4,0.8-0.8,1.3-1C253.3,195.6,253.9,195.5,254.5,195.5z M263.8,195.5c1.3,0,2.4,0.3,3.1,1
				c0.7,0.6,1.1,1.6,1.1,2.9v4.9h-2.3v-1.1c-0.5,0.8-1.3,1.2-2.6,1.2c-0.7,0-1.2-0.1-1.7-0.3c-0.5-0.2-0.8-0.5-1.1-0.9
				c-0.3-0.4-0.4-0.8-0.4-1.3c0-0.8,0.3-1.4,0.9-1.9c0.6-0.5,1.5-0.7,2.8-0.7h2c0-0.5-0.2-1-0.5-1.2c-0.3-0.3-0.8-0.4-1.5-0.4
				c-0.5,0-0.9,0.1-1.4,0.2c-0.4,0.1-0.8,0.3-1.1,0.6l-0.9-1.7c0.5-0.3,1-0.6,1.7-0.8C262.4,195.6,263.1,195.5,263.8,195.5z
				 M263.6,202.7c0.4,0,0.8-0.1,1.1-0.3c0.3-0.2,0.6-0.5,0.7-0.9v-0.9h-1.7c-1,0-1.5,0.3-1.5,1c0,0.3,0.1,0.6,0.4,0.8
				C262.8,202.6,263.1,202.7,263.6,202.7z M273.1,204.4c-0.7,0-1.4-0.1-2.1-0.3c-0.7-0.2-1.2-0.4-1.6-0.7l0.8-1.8
				c0.4,0.2,0.8,0.4,1.4,0.6c0.5,0.1,1.1,0.2,1.6,0.2c1.1,0,1.6-0.3,1.6-0.8c0-0.2-0.1-0.4-0.4-0.5c-0.3-0.1-0.7-0.2-1.3-0.3
				c-0.7-0.1-1.3-0.2-1.7-0.4c-0.5-0.1-0.9-0.4-1.2-0.7c-0.3-0.4-0.5-0.9-0.5-1.5c0-0.5,0.2-1,0.5-1.4c0.3-0.4,0.8-0.8,1.4-1
				c0.6-0.2,1.3-0.4,2.1-0.4c0.6,0,1.2,0.1,1.8,0.2c0.6,0.1,1.1,0.3,1.5,0.5L276,198c-0.8-0.4-1.6-0.6-2.5-0.6c-0.5,0-0.9,0.1-1.2,0.2
				c-0.3,0.1-0.4,0.3-0.4,0.6c0,0.3,0.1,0.5,0.4,0.6c0.3,0.1,0.7,0.2,1.4,0.3c0.7,0.1,1.3,0.2,1.7,0.4c0.4,0.1,0.8,0.4,1.2,0.7
				c0.3,0.4,0.5,0.8,0.5,1.5c0,0.5-0.2,1-0.5,1.4c-0.3,0.4-0.8,0.7-1.4,1C274.6,204.3,273.9,204.4,273.1,204.4z M282.4,200.9l-1.2,1.2
				v2.2h-2.5v-11.9h2.5v6.7l3.6-3.5h3l-3.6,3.6l3.9,5h-3L282.4,200.9z M291.7,200.3c0-0.6,0.1-1,0.4-1.4c0.3-0.4,0.6-0.8,1.1-1.2
				c0.4-0.3,0.6-0.6,0.8-0.8c0.2-0.2,0.3-0.5,0.3-0.8c0-0.4-0.2-0.7-0.5-0.9c-0.3-0.2-0.7-0.4-1.2-0.4c-0.5,0-0.9,0.1-1.3,0.3
				c-0.4,0.2-0.7,0.5-1,0.9l-1.9-1.1c0.4-0.7,1.1-1.2,1.8-1.6c0.8-0.4,1.7-0.6,2.7-0.6c1.2,0,2.2,0.3,2.9,0.8c0.7,0.5,1.1,1.2,1.1,2.2
				c0,0.4-0.1,0.8-0.2,1.2c-0.1,0.3-0.3,0.6-0.5,0.8c-0.2,0.2-0.5,0.5-0.8,0.8c-0.4,0.4-0.7,0.7-0.9,0.9c-0.2,0.2-0.3,0.5-0.3,0.9
				H291.7z M293,204.4c-0.4,0-0.8-0.1-1.1-0.4c-0.3-0.3-0.4-0.6-0.4-1s0.1-0.7,0.4-1c0.3-0.3,0.7-0.4,1.1-0.4s0.8,0.1,1.1,0.4
				c0.3,0.3,0.4,0.6,0.4,1s-0.1,0.8-0.4,1C293.8,204.2,293.4,204.4,293,204.4z"/>
		</g>
	</g>
</svg>
