<?xml version="1.0" encoding="UTF-8" standalone="no"?>
<svg
   xmlns:dc="http://purl.org/dc/elements/1.1/"
   xmlns:cc="http://creativecommons.org/ns#"
   xmlns:rdf="http://www.w3.org/1999/02/22-rdf-syntax-ns#"
   xmlns:svg="http://www.w3.org/2000/svg"
   xmlns="http://www.w3.org/2000/svg"
   xmlns:sodipodi="http://sodipodi.sourceforge.net/DTD/sodipodi-0.dtd"
   xmlns:inkscape="http://www.inkscape.org/namespaces/inkscape"
   inkscape:version="1.0 (4035a4fb49, 2020-05-01)"
   sodipodi:docname="resources_topic_right.svg"
   xml:space="preserve"
   enable-background="new 0 0 450 400"
   viewBox="0 0 450 400"
   y="0px"
   x="0px"
   id="resources_topic_right"
   aria-labelledby="title_resources_topic_right desc_resources_topic_right"
   role="button"
   version="1.1"><metadata
   id="metadata432"><rdf:RDF><cc:Work
       rdf:about=""><dc:format>image/svg+xml</dc:format><dc:type
         rdf:resource="http://purl.org/dc/dcmitype/StillImage" /></cc:Work></rdf:RDF></metadata><sodipodi:namedview
   inkscape:current-layer="resources_topic_right"
   inkscape:window-maximized="1"
   inkscape:window-y="-6"
   inkscape:window-x="-6"
   inkscape:cy="200"
   inkscape:cx="225"
   inkscape:zoom="2.17"
   showgrid="false"
   id="namedview430"
   inkscape:window-height="1058"
   inkscape:window-width="1920"
   inkscape:pageshadow="2"
   inkscape:pageopacity="0"
   guidetolerance="10"
   gridtolerance="10"
   objecttolerance="10"
   borderopacity="1"
   bordercolor="#666666"
   pagecolor="#ffffff" />
	<title
   id="title_resources_topic_right">What is “Covid 19&quot;? How does Covid spread? How Can I protect myself from Covid?</title>
  	<desc
   id="desc_resources_topic_left">Read about the basics here</desc>
	<defs
   id="defs383">
	    <filter
   height="130%"
   id="dropshadow">
	    	<feGaussianBlur
   id="feGaussianBlur368"
   stdDeviation="3"
   in="SourceAlpha" />
	    	<feOffset
   id="feOffset370"
   result="offsetblur"
   dy="2"
   dx="0" />
	    	<feComponentTransfer
   id="feComponentTransfer374">
	        	<feFuncA
   id="feFuncA372"
   slope="0.1"
   type="linear" />
	    	</feComponentTransfer>
	    	<feMerge
   id="feMerge380">
	        	<feMergeNode
   id="feMergeNode376" />
	        	<feMergeNode
   id="feMergeNode378"
   in="SourceGraphic" />
	    	</feMerge>
	    </filter>
	</defs>
	<g
   id="">
		<g
   id="g387"
   class="ellipse_s">
			<ellipse
   id="ellipse385"
   ry="8"
   rx="8"
   cy="375.9"
   cx="28.9"
   filter="url(#dropshadow)"
   fill="#FFFFFF" />
		</g>
		<g
   id="g391"
   class="ellipse_m">
			<circle
   id="circle389"
   r="16"
   cy="332.8"
   cx="67.9"
   filter="url(#dropshadow)"
   fill="#FFFFFF" />
		</g>
		<g
   id="g395"
   class="ellipse_l">
			<ellipse
   id="ellipse393"
   ry="146"
   rx="185"
   cy="216.2"
   cx="240.4"
   filter="url(#dropshadow)"
   fill="#FFFFFF" />
		</g>
    <g  class="topic_text"
   transform="matrix(1,0,0,0.96409538,0,67.588268)"
   id="Watch the Covid myth busting videos created by the World Health Organization, and read through the information they have gathered">
      <path
   d="m 129.895,135.8 -3.744,11.2 h -1.68 l -3.056,-8.944 -3.056,8.944 h -1.712 l -3.744,-11.2 h 1.648 l 3.024,9.104 3.152,-9.104 h 1.472 l 3.088,9.152 3.088,-9.152 z m 4.18,2.64 c 1.174,0 2.07,0.288 2.688,0.864 0.63,0.576 0.944,1.435 0.944,2.576 V 147 h -1.456 v -1.12 c -0.256,0.395 -0.624,0.699 -1.104,0.912 -0.469,0.203 -1.029,0.304 -1.68,0.304 -0.949,0 -1.712,-0.229 -2.288,-0.688 -0.565,-0.459 -0.848,-1.061 -0.848,-1.808 0,-0.747 0.272,-1.344 0.816,-1.792 0.544,-0.459 1.408,-0.688 2.592,-0.688 h 2.432 v -0.304 c 0,-0.661 -0.192,-1.168 -0.576,-1.52 -0.384,-0.352 -0.949,-0.528 -1.696,-0.528 -0.501,0 -0.992,0.085 -1.472,0.256 -0.48,0.16 -0.885,0.379 -1.216,0.656 l -0.64,-1.152 c 0.438,-0.352 0.96,-0.619 1.568,-0.8 0.608,-0.192 1.254,-0.288 1.936,-0.288 z m -0.352,7.472 c 0.587,0 1.094,-0.128 1.52,-0.384 0.427,-0.267 0.736,-0.64 0.928,-1.12 v -1.184 h -2.368 c -1.301,0 -1.952,0.437 -1.952,1.312 0,0.427 0.166,0.763 0.496,1.008 0.331,0.245 0.79,0.368 1.376,0.368 z m 11.595,0.592 c -0.224,0.192 -0.502,0.341 -0.832,0.448 -0.331,0.096 -0.672,0.144 -1.024,0.144 -0.854,0 -1.515,-0.229 -1.984,-0.688 -0.47,-0.459 -0.704,-1.115 -0.704,-1.968 v -4.656 h -1.44 v -1.264 h 1.44 v -1.856 h 1.536 v 1.856 h 2.432 v 1.264 h -2.432 v 4.592 c 0,0.459 0.112,0.811 0.336,1.056 0.234,0.245 0.565,0.368 0.992,0.368 0.469,0 0.869,-0.133 1.2,-0.4 z m 5.272,0.592 c -0.864,0 -1.638,-0.187 -2.32,-0.56 -0.672,-0.373 -1.2,-0.885 -1.584,-1.536 -0.384,-0.661 -0.576,-1.408 -0.576,-2.24 0,-0.832 0.192,-1.573 0.576,-2.224 0.384,-0.661 0.912,-1.173 1.584,-1.536 0.682,-0.373 1.456,-0.56 2.32,-0.56 0.768,0 1.45,0.155 2.048,0.464 0.608,0.309 1.077,0.757 1.408,1.344 L 152.878,141 c -0.267,-0.405 -0.598,-0.709 -0.992,-0.912 -0.395,-0.203 -0.832,-0.304 -1.312,-0.304 -0.555,0 -1.056,0.123 -1.504,0.368 -0.438,0.245 -0.784,0.597 -1.04,1.056 -0.246,0.448 -0.368,0.965 -0.368,1.552 0,0.597 0.122,1.125 0.368,1.584 0.256,0.448 0.602,0.795 1.04,1.04 0.448,0.245 0.949,0.368 1.504,0.368 0.48,0 0.917,-0.101 1.312,-0.304 0.394,-0.203 0.725,-0.507 0.992,-0.912 l 1.168,0.736 c -0.331,0.587 -0.8,1.04 -1.408,1.36 -0.598,0.309 -1.28,0.464 -2.048,0.464 z m 9.863,-8.656 c 1.077,0 1.93,0.315 2.56,0.944 0.64,0.619 0.96,1.531 0.96,2.736 V 147 h -1.536 v -4.704 c 0,-0.821 -0.198,-1.44 -0.592,-1.856 -0.395,-0.416 -0.96,-0.624 -1.696,-0.624 -0.832,0 -1.488,0.245 -1.968,0.736 -0.48,0.48 -0.72,1.173 -0.72,2.08 V 147 h -1.536 v -11.872 h 1.536 v 4.592 c 0.32,-0.405 0.736,-0.72 1.248,-0.944 0.522,-0.224 1.104,-0.336 1.744,-0.336 z m 15.427,8.064 c -0.224,0.192 -0.501,0.341 -0.832,0.448 -0.33,0.096 -0.672,0.144 -1.024,0.144 -0.853,0 -1.514,-0.229 -1.984,-0.688 -0.469,-0.459 -0.704,-1.115 -0.704,-1.968 v -4.656 h -1.44 v -1.264 h 1.44 v -1.856 h 1.536 v 1.856 h 2.432 v 1.264 h -2.432 v 4.592 c 0,0.459 0.112,0.811 0.336,1.056 0.235,0.245 0.566,0.368 0.992,0.368 0.47,0 0.87,-0.133 1.2,-0.4 z m 6.385,-8.064 c 1.078,0 1.931,0.315 2.56,0.944 0.64,0.619 0.96,1.531 0.96,2.736 V 147 h -1.536 v -4.704 c 0,-0.821 -0.197,-1.44 -0.592,-1.856 -0.394,-0.416 -0.96,-0.624 -1.696,-0.624 -0.832,0 -1.488,0.245 -1.968,0.736 -0.48,0.48 -0.72,1.173 -0.72,2.08 V 147 h -1.536 v -11.872 h 1.536 v 4.592 c 0.32,-0.405 0.736,-0.72 1.248,-0.944 0.523,-0.224 1.104,-0.336 1.744,-0.336 z m 14.074,4.368 c 0,0.117 -0.011,0.272 -0.032,0.464 h -6.88 c 0.096,0.747 0.421,1.349 0.976,1.808 0.565,0.448 1.264,0.672 2.096,0.672 1.013,0 1.829,-0.341 2.448,-1.024 l 0.848,0.992 c -0.384,0.448 -0.864,0.789 -1.44,1.024 -0.566,0.235 -1.2,0.352 -1.904,0.352 -0.896,0 -1.691,-0.181 -2.384,-0.544 -0.694,-0.373 -1.232,-0.891 -1.616,-1.552 -0.374,-0.661 -0.56,-1.408 -0.56,-2.24 0,-0.821 0.181,-1.563 0.544,-2.224 0.373,-0.661 0.88,-1.173 1.52,-1.536 0.65,-0.373 1.381,-0.56 2.192,-0.56 0.81,0 1.53,0.187 2.16,0.56 0.64,0.363 1.136,0.875 1.488,1.536 0.362,0.661 0.544,1.419 0.544,2.272 z m -4.192,-3.072 c -0.736,0 -1.355,0.224 -1.856,0.672 -0.491,0.448 -0.779,1.035 -0.864,1.76 h 5.44 c -0.086,-0.715 -0.379,-1.296 -0.88,-1.744 -0.491,-0.459 -1.104,-0.688 -1.84,-0.688 z m -7.042,31.36 c -0.864,0 -1.637,-0.187 -2.32,-0.56 -0.672,-0.373 -1.2,-0.885 -1.584,-1.536 -0.384,-0.661 -0.576,-1.408 -0.576,-2.24 0,-0.832 0.192,-1.573 0.576,-2.224 0.384,-0.661 0.912,-1.173 1.584,-1.536 0.683,-0.373 1.456,-0.56 2.32,-0.56 0.768,0 1.451,0.155 2.048,0.464 0.608,0.309 1.077,0.757 1.408,1.344 L 187.393,165 c -0.267,-0.405 -0.597,-0.709 -0.992,-0.912 -0.395,-0.203 -0.832,-0.304 -1.312,-0.304 -0.555,0 -1.056,0.123 -1.504,0.368 -0.437,0.245 -0.784,0.597 -1.04,1.056 -0.245,0.448 -0.368,0.965 -0.368,1.552 0,0.597 0.123,1.125 0.368,1.584 0.256,0.448 0.603,0.795 1.04,1.04 0.448,0.245 0.949,0.368 1.504,0.368 0.48,0 0.917,-0.101 1.312,-0.304 0.395,-0.203 0.725,-0.507 0.992,-0.912 l 1.168,0.736 c -0.331,0.587 -0.8,1.04 -1.408,1.36 -0.597,0.309 -1.28,0.464 -2.048,0.464 z m 6.917,-7.152 c 0.266,-0.491 0.661,-0.864 1.184,-1.12 0.522,-0.256 1.157,-0.384 1.904,-0.384 v 1.488 c -0.086,-0.011 -0.203,-0.016 -0.352,-0.016 -0.832,0 -1.488,0.251 -1.968,0.752 -0.47,0.491 -0.704,1.195 -0.704,2.112 V 171 h -1.536 v -8.48 h 1.472 z m 12.567,2.864 c 0,0.117 -0.011,0.272 -0.032,0.464 h -6.88 c 0.096,0.747 0.421,1.349 0.976,1.808 0.565,0.448 1.264,0.672 2.096,0.672 1.013,0 1.829,-0.341 2.448,-1.024 l 0.848,0.992 c -0.384,0.448 -0.864,0.789 -1.44,1.024 -0.566,0.235 -1.2,0.352 -1.904,0.352 -0.896,0 -1.691,-0.181 -2.384,-0.544 -0.694,-0.373 -1.232,-0.891 -1.616,-1.552 -0.374,-0.661 -0.56,-1.408 -0.56,-2.24 0,-0.821 0.181,-1.563 0.544,-2.224 0.373,-0.661 0.88,-1.173 1.52,-1.536 0.65,-0.373 1.381,-0.56 2.192,-0.56 0.81,0 1.53,0.187 2.16,0.56 0.64,0.363 1.136,0.875 1.488,1.536 0.362,0.661 0.544,1.419 0.544,2.272 z m -4.192,-3.072 c -0.736,0 -1.355,0.224 -1.856,0.672 -0.491,0.448 -0.779,1.035 -0.864,1.76 h 5.44 c -0.086,-0.715 -0.379,-1.296 -0.88,-1.744 -0.491,-0.459 -1.104,-0.688 -1.84,-0.688 z m 9.178,-1.296 c 1.174,0 2.07,0.288 2.688,0.864 0.63,0.576 0.944,1.435 0.944,2.576 V 171 h -1.456 v -1.12 c -0.256,0.395 -0.624,0.699 -1.104,0.912 -0.469,0.203 -1.029,0.304 -1.68,0.304 -0.949,0 -1.712,-0.229 -2.288,-0.688 -0.565,-0.459 -0.848,-1.061 -0.848,-1.808 0,-0.747 0.272,-1.344 0.816,-1.792 0.544,-0.459 1.408,-0.688 2.592,-0.688 h 2.432 v -0.304 c 0,-0.661 -0.192,-1.168 -0.576,-1.52 -0.384,-0.352 -0.949,-0.528 -1.696,-0.528 -0.501,0 -0.992,0.085 -1.472,0.256 -0.48,0.16 -0.885,0.379 -1.216,0.656 l -0.64,-1.152 c 0.438,-0.352 0.96,-0.619 1.568,-0.8 0.608,-0.192 1.254,-0.288 1.936,-0.288 z m -0.352,7.472 c 0.587,0 1.094,-0.128 1.52,-0.384 0.427,-0.267 0.736,-0.64 0.928,-1.12 v -1.184 h -2.368 c -1.301,0 -1.952,0.437 -1.952,1.312 0,0.427 0.166,0.763 0.496,1.008 0.331,0.245 0.79,0.368 1.376,0.368 z m 11.595,0.592 c -0.224,0.192 -0.502,0.341 -0.832,0.448 -0.331,0.096 -0.672,0.144 -1.024,0.144 -0.854,0 -1.515,-0.229 -1.984,-0.688 -0.47,-0.459 -0.704,-1.115 -0.704,-1.968 v -4.656 h -1.44 v -1.264 h 1.44 v -1.856 h 1.536 v 1.856 h 2.432 v 1.264 h -2.432 v 4.592 c 0,0.459 0.112,0.811 0.336,1.056 0.234,0.245 0.565,0.368 0.992,0.368 0.469,0 0.869,-0.133 1.2,-0.4 z m 9.24,-3.696 c 0,0.117 -0.011,0.272 -0.032,0.464 h -6.88 c 0.096,0.747 0.421,1.349 0.976,1.808 0.565,0.448 1.264,0.672 2.096,0.672 1.013,0 1.829,-0.341 2.448,-1.024 l 0.848,0.992 c -0.384,0.448 -0.864,0.789 -1.44,1.024 -0.566,0.235 -1.2,0.352 -1.904,0.352 -0.896,0 -1.691,-0.181 -2.384,-0.544 -0.694,-0.373 -1.232,-0.891 -1.616,-1.552 -0.374,-0.661 -0.56,-1.408 -0.56,-2.24 0,-0.821 0.181,-1.563 0.544,-2.224 0.373,-0.661 0.88,-1.173 1.52,-1.536 0.65,-0.373 1.381,-0.56 2.192,-0.56 0.81,0 1.53,0.187 2.16,0.56 0.64,0.363 1.136,0.875 1.488,1.536 0.362,0.661 0.544,1.419 0.544,2.272 z m -4.192,-3.072 c -0.736,0 -1.355,0.224 -1.856,0.672 -0.491,0.448 -0.779,1.035 -0.864,1.76 h 5.44 c -0.086,-0.715 -0.379,-1.296 -0.88,-1.744 -0.491,-0.459 -1.104,-0.688 -1.84,-0.688 z m 14.324,-4.608 V 171 h -1.472 v -1.344 c -0.341,0.469 -0.773,0.827 -1.296,1.072 -0.522,0.245 -1.098,0.368 -1.728,0.368 -0.821,0 -1.557,-0.181 -2.208,-0.544 -0.65,-0.363 -1.162,-0.869 -1.536,-1.52 -0.362,-0.661 -0.544,-1.419 -0.544,-2.272 0,-0.853 0.182,-1.605 0.544,-2.256 0.374,-0.651 0.886,-1.157 1.536,-1.52 0.651,-0.363 1.387,-0.544 2.208,-0.544 0.608,0 1.168,0.117 1.68,0.352 0.512,0.224 0.939,0.56 1.28,1.008 v -4.672 z m -4.368,10.624 c 0.534,0 1.019,-0.123 1.456,-0.368 0.438,-0.256 0.779,-0.608 1.024,-1.056 0.246,-0.459 0.368,-0.981 0.368,-1.568 0,-0.587 -0.122,-1.104 -0.368,-1.552 -0.245,-0.459 -0.586,-0.811 -1.024,-1.056 -0.437,-0.245 -0.922,-0.368 -1.456,-0.368 -0.544,0 -1.034,0.123 -1.472,0.368 -0.426,0.245 -0.768,0.597 -1.024,1.056 -0.245,0.448 -0.368,0.965 -0.368,1.552 0,0.587 0.123,1.109 0.368,1.568 0.256,0.448 0.598,0.8 1.024,1.056 0.438,0.245 0.928,0.368 1.472,0.368 z m 16.068,-7.312 c 0.821,0 1.557,0.181 2.208,0.544 0.65,0.363 1.157,0.869 1.52,1.52 0.373,0.651 0.56,1.403 0.56,2.256 0,0.853 -0.187,1.611 -0.56,2.272 -0.363,0.651 -0.87,1.157 -1.52,1.52 -0.651,0.363 -1.387,0.544 -2.208,0.544 -0.63,0 -1.206,-0.123 -1.729,-0.368 -0.522,-0.245 -0.954,-0.603 -1.295,-1.072 V 171 h -1.472 v -11.872 h 1.536 v 4.672 c 0.341,-0.448 0.768,-0.784 1.28,-1.008 0.512,-0.235 1.072,-0.352 1.68,-0.352 z m -0.128,7.312 c 0.544,0 1.029,-0.123 1.456,-0.368 0.437,-0.256 0.778,-0.608 1.024,-1.056 0.256,-0.459 0.384,-0.981 0.384,-1.568 0,-0.587 -0.128,-1.104 -0.384,-1.552 -0.246,-0.459 -0.587,-0.811 -1.024,-1.056 -0.427,-0.245 -0.912,-0.368 -1.456,-0.368 -0.534,0 -1.019,0.123 -1.456,0.368 -0.438,0.245 -0.779,0.597 -1.024,1.056 -0.246,0.448 -0.368,0.965 -0.368,1.552 0,0.587 0.122,1.109 0.368,1.568 0.245,0.448 0.586,0.8 1.024,1.056 0.437,0.245 0.922,0.368 1.456,0.368 z m 13.807,-7.232 -4.112,9.328 c -0.362,0.864 -0.789,1.472 -1.28,1.824 -0.48,0.352 -1.061,0.528 -1.744,0.528 -0.416,0 -0.821,-0.069 -1.216,-0.208 -0.384,-0.128 -0.704,-0.32 -0.96,-0.576 l 0.656,-1.152 c 0.438,0.416 0.944,0.624 1.52,0.624 0.374,0 0.683,-0.101 0.928,-0.304 0.256,-0.192 0.486,-0.528 0.688,-1.008 l 0.272,-0.592 -3.744,-8.464 h 1.6 l 2.96,6.784 2.928,-6.784 z m 10.499,7.984 c -0.224,0.192 -0.502,0.341 -0.832,0.448 -0.331,0.096 -0.672,0.144 -1.024,0.144 -0.854,0 -1.515,-0.229 -1.984,-0.688 -0.47,-0.459 -0.704,-1.115 -0.704,-1.968 v -4.656 h -1.44 v -1.264 h 1.44 v -1.856 h 1.536 v 1.856 h 2.432 v 1.264 h -2.432 v 4.592 c 0,0.459 0.112,0.811 0.336,1.056 0.234,0.245 0.565,0.368 0.992,0.368 0.469,0 0.869,-0.133 1.2,-0.4 z m 6.385,-8.064 c 1.077,0 1.93,0.315 2.56,0.944 0.64,0.619 0.96,1.531 0.96,2.736 V 171 h -1.536 v -4.704 c 0,-0.821 -0.198,-1.44 -0.592,-1.856 -0.395,-0.416 -0.96,-0.624 -1.696,-0.624 -0.832,0 -1.488,0.245 -1.968,0.736 -0.48,0.48 -0.72,1.173 -0.72,2.08 V 171 h -1.536 v -11.872 h 1.536 v 4.592 c 0.32,-0.405 0.736,-0.72 1.248,-0.944 0.522,-0.224 1.104,-0.336 1.744,-0.336 z m 14.073,4.368 c 0,0.117 -0.01,0.272 -0.032,0.464 h -6.88 c 0.096,0.747 0.422,1.349 0.976,1.808 0.566,0.448 1.264,0.672 2.096,0.672 1.014,0 1.83,-0.341 2.448,-1.024 l 0.848,0.992 c -0.384,0.448 -0.864,0.789 -1.44,1.024 -0.565,0.235 -1.2,0.352 -1.904,0.352 -0.896,0 -1.69,-0.181 -2.384,-0.544 -0.693,-0.373 -1.232,-0.891 -1.616,-1.552 -0.373,-0.661 -0.56,-1.408 -0.56,-2.24 0,-0.821 0.182,-1.563 0.544,-2.224 0.374,-0.661 0.88,-1.173 1.52,-1.536 0.651,-0.373 1.382,-0.56 2.192,-0.56 0.811,0 1.531,0.187 2.16,0.56 0.64,0.363 1.136,0.875 1.488,1.536 0.363,0.661 0.544,1.419 0.544,2.272 z m -4.192,-3.072 c -0.736,0 -1.354,0.224 -1.856,0.672 -0.49,0.448 -0.778,1.035 -0.864,1.76 h 5.44 c -0.085,-0.715 -0.378,-1.296 -0.88,-1.744 -0.49,-0.459 -1.104,-0.688 -1.84,-0.688 z m 26.67,-3.936 -3.744,11.2 h -1.68 l -3.056,-8.944 -3.056,8.944 h -1.712 l -3.744,-11.2 h 1.648 l 3.024,9.104 3.152,-9.104 h 1.472 l 3.088,9.152 3.088,-9.152 z m 4.725,11.296 c -0.843,0 -1.6,-0.187 -2.272,-0.56 -0.672,-0.373 -1.2,-0.885 -1.584,-1.536 -0.374,-0.661 -0.56,-1.408 -0.56,-2.24 0,-0.832 0.186,-1.573 0.56,-2.224 0.384,-0.661 0.912,-1.173 1.584,-1.536 0.672,-0.373 1.429,-0.56 2.272,-0.56 0.842,0 1.594,0.187 2.256,0.56 0.672,0.363 1.194,0.875 1.568,1.536 0.384,0.651 0.576,1.392 0.576,2.224 0,0.832 -0.192,1.579 -0.576,2.24 -0.374,0.651 -0.896,1.163 -1.568,1.536 -0.662,0.373 -1.414,0.56 -2.256,0.56 z m 0,-1.344 c 0.544,0 1.029,-0.123 1.456,-0.368 0.437,-0.256 0.778,-0.608 1.024,-1.056 0.245,-0.459 0.368,-0.981 0.368,-1.568 0,-0.587 -0.123,-1.104 -0.368,-1.552 -0.246,-0.459 -0.587,-0.811 -1.024,-1.056 -0.427,-0.245 -0.912,-0.368 -1.456,-0.368 -0.544,0 -1.035,0.123 -1.472,0.368 -0.427,0.245 -0.768,0.597 -1.024,1.056 -0.246,0.448 -0.368,0.965 -0.368,1.552 0,0.587 0.122,1.109 0.368,1.568 0.256,0.448 0.597,0.8 1.024,1.056 0.437,0.245 0.928,0.368 1.472,0.368 z m 7.996,-5.808 c 0.267,-0.491 0.661,-0.864 1.184,-1.12 0.523,-0.256 1.157,-0.384 1.904,-0.384 v 1.488 c -0.085,-0.011 -0.203,-0.016 -0.352,-0.016 -0.832,0 -1.488,0.251 -1.968,0.752 -0.469,0.491 -0.704,1.195 -0.704,2.112 V 171 h -1.536 v -8.48 h 1.472 z m 4.981,-4.816 h 1.536 V 171 h -1.536 z m 12.469,0 V 171 h -1.472 v -1.344 c -0.342,0.469 -0.774,0.827 -1.296,1.072 -0.523,0.245 -1.099,0.368 -1.728,0.368 -0.822,0 -1.558,-0.181 -2.208,-0.544 -0.651,-0.363 -1.163,-0.869 -1.536,-1.52 -0.363,-0.661 -0.544,-1.419 -0.544,-2.272 0,-0.853 0.181,-1.605 0.544,-2.256 0.373,-0.651 0.885,-1.157 1.536,-1.52 0.65,-0.363 1.386,-0.544 2.208,-0.544 0.608,0 1.168,0.117 1.68,0.352 0.512,0.224 0.938,0.56 1.28,1.008 v -4.672 z m -4.368,10.624 c 0.533,0 1.018,-0.123 1.456,-0.368 0.437,-0.256 0.778,-0.608 1.024,-1.056 0.245,-0.459 0.368,-0.981 0.368,-1.568 0,-0.587 -0.123,-1.104 -0.368,-1.552 -0.246,-0.459 -0.587,-0.811 -1.024,-1.056 -0.438,-0.245 -0.923,-0.368 -1.456,-0.368 -0.544,0 -1.035,0.123 -1.472,0.368 -0.427,0.245 -0.768,0.597 -1.024,1.056 -0.246,0.448 -0.368,0.965 -0.368,1.552 0,0.587 0.122,1.109 0.368,1.568 0.256,0.448 0.597,0.8 1.024,1.056 0.437,0.245 0.928,0.368 1.472,0.368 z M 123.914,183.8 V 195 h -1.6 v -4.992 h -6.432 V 195 h -1.6 v -11.2 h 1.6 v 4.816 h 6.432 V 183.8 Z m 10.792,7.008 c 0,0.117 -0.011,0.272 -0.032,0.464 h -6.88 c 0.096,0.747 0.421,1.349 0.976,1.808 0.565,0.448 1.264,0.672 2.096,0.672 1.013,0 1.829,-0.341 2.448,-1.024 l 0.848,0.992 c -0.384,0.448 -0.864,0.789 -1.44,1.024 -0.565,0.235 -1.2,0.352 -1.904,0.352 -0.896,0 -1.691,-0.181 -2.384,-0.544 -0.693,-0.373 -1.232,-0.891 -1.616,-1.552 -0.373,-0.661 -0.56,-1.408 -0.56,-2.24 0,-0.821 0.181,-1.563 0.544,-2.224 0.373,-0.661 0.88,-1.173 1.52,-1.536 0.651,-0.373 1.381,-0.56 2.192,-0.56 0.811,0 1.531,0.187 2.16,0.56 0.64,0.363 1.136,0.875 1.488,1.536 0.363,0.661 0.544,1.419 0.544,2.272 z m -4.192,-3.072 c -0.736,0 -1.355,0.224 -1.856,0.672 -0.491,0.448 -0.779,1.035 -0.864,1.76 h 5.44 c -0.085,-0.715 -0.379,-1.296 -0.88,-1.744 -0.491,-0.459 -1.104,-0.688 -1.84,-0.688 z m 9.178,-1.296 c 1.174,0 2.07,0.288 2.688,0.864 0.63,0.576 0.944,1.435 0.944,2.576 V 195 h -1.456 v -1.12 c -0.256,0.395 -0.624,0.699 -1.104,0.912 -0.469,0.203 -1.029,0.304 -1.68,0.304 -0.949,0 -1.712,-0.229 -2.288,-0.688 -0.565,-0.459 -0.848,-1.061 -0.848,-1.808 0,-0.747 0.272,-1.344 0.816,-1.792 0.544,-0.459 1.408,-0.688 2.592,-0.688 h 2.432 v -0.304 c 0,-0.661 -0.192,-1.168 -0.576,-1.52 -0.384,-0.352 -0.949,-0.528 -1.696,-0.528 -0.501,0 -0.992,0.085 -1.472,0.256 -0.48,0.16 -0.885,0.379 -1.216,0.656 l -0.64,-1.152 c 0.438,-0.352 0.96,-0.619 1.568,-0.8 0.608,-0.192 1.254,-0.288 1.936,-0.288 z m -0.352,7.472 c 0.587,0 1.094,-0.128 1.52,-0.384 0.427,-0.267 0.736,-0.64 0.928,-1.12 v -1.184 h -2.368 c -1.301,0 -1.952,0.437 -1.952,1.312 0,0.427 0.166,0.763 0.496,1.008 0.331,0.245 0.79,0.368 1.376,0.368 z m 6.827,-10.784 h 1.536 V 195 h -1.536 z m 9.44,11.376 c -0.224,0.192 -0.502,0.341 -0.832,0.448 -0.331,0.096 -0.672,0.144 -1.024,0.144 -0.854,0 -1.515,-0.229 -1.984,-0.688 -0.47,-0.459 -0.704,-1.115 -0.704,-1.968 v -4.656 h -1.44 v -1.264 h 1.44 v -1.856 h 1.536 v 1.856 h 2.432 v 1.264 h -2.432 v 4.592 c 0,0.459 0.112,0.811 0.336,1.056 0.234,0.245 0.565,0.368 0.992,0.368 0.469,0 0.869,-0.133 1.2,-0.4 z m 6.385,-8.064 c 1.077,0 1.93,0.315 2.56,0.944 0.64,0.619 0.96,1.531 0.96,2.736 V 195 h -1.536 v -4.704 c 0,-0.821 -0.198,-1.44 -0.592,-1.856 -0.395,-0.416 -0.96,-0.624 -1.696,-0.624 -0.832,0 -1.488,0.245 -1.968,0.736 -0.48,0.48 -0.72,1.173 -0.72,2.08 V 195 h -1.536 V 183.128 H 159 v 4.592 c 0.32,-0.405 0.736,-0.72 1.248,-0.944 0.522,-0.224 1.104,-0.336 1.744,-0.336 z m 15.939,8.688 c -1.13,0 -2.149,-0.245 -3.056,-0.736 -0.906,-0.501 -1.621,-1.189 -2.144,-2.064 -0.512,-0.875 -0.768,-1.851 -0.768,-2.928 0,-1.077 0.256,-2.053 0.768,-2.928 0.523,-0.875 1.238,-1.557 2.144,-2.048 0.907,-0.501 1.926,-0.752 3.056,-0.752 1.12,0 2.134,0.251 3.04,0.752 0.907,0.491 1.616,1.173 2.128,2.048 0.512,0.864 0.768,1.84 0.768,2.928 0,1.088 -0.256,2.069 -0.768,2.944 -0.512,0.864 -1.221,1.547 -2.128,2.048 -0.906,0.491 -1.92,0.736 -3.04,0.736 z m 0,-1.424 c 0.822,0 1.558,-0.187 2.208,-0.56 0.662,-0.373 1.179,-0.885 1.552,-1.536 0.384,-0.661 0.576,-1.397 0.576,-2.208 0,-0.811 -0.192,-1.541 -0.576,-2.192 -0.373,-0.661 -0.89,-1.179 -1.552,-1.552 -0.65,-0.373 -1.386,-0.56 -2.208,-0.56 -0.821,0 -1.568,0.187 -2.24,0.56 -0.661,0.373 -1.184,0.891 -1.568,1.552 -0.373,0.651 -0.56,1.381 -0.56,2.192 0,0.811 0.187,1.547 0.56,2.208 0.384,0.651 0.907,1.163 1.568,1.536 0.672,0.373 1.419,0.56 2.24,0.56 z m 9.63,-5.76 c 0.266,-0.491 0.661,-0.864 1.184,-1.12 0.522,-0.256 1.157,-0.384 1.904,-0.384 v 1.488 c -0.086,-0.011 -0.203,-0.016 -0.352,-0.016 -0.832,0 -1.488,0.251 -1.968,0.752 -0.47,0.491 -0.704,1.195 -0.704,2.112 V 195 h -1.536 v -8.48 h 1.472 z m 13.015,-1.424 v 7.328 c 0,1.483 -0.368,2.576 -1.104,3.28 -0.736,0.715 -1.835,1.072 -3.296,1.072 -0.8,0 -1.563,-0.112 -2.288,-0.336 -0.726,-0.213 -1.312,-0.523 -1.76,-0.928 l 0.736,-1.184 c 0.394,0.341 0.88,0.608 1.456,0.8 0.586,0.203 1.189,0.304 1.808,0.304 0.992,0 1.722,-0.235 2.192,-0.704 0.48,-0.469 0.72,-1.184 0.72,-2.144 v -0.672 c -0.363,0.437 -0.811,0.768 -1.344,0.992 -0.523,0.213 -1.094,0.32 -1.712,0.32 -0.811,0 -1.547,-0.171 -2.208,-0.512 -0.651,-0.352 -1.163,-0.837 -1.536,-1.456 -0.374,-0.629 -0.56,-1.344 -0.56,-2.144 0,-0.8 0.186,-1.509 0.56,-2.128 0.373,-0.629 0.885,-1.115 1.536,-1.456 0.661,-0.341 1.397,-0.512 2.208,-0.512 0.64,0 1.232,0.117 1.776,0.352 0.554,0.235 1.008,0.581 1.36,1.04 v -1.312 z m -4.416,6.784 c 0.554,0 1.05,-0.117 1.488,-0.352 0.448,-0.235 0.794,-0.56 1.04,-0.976 0.256,-0.427 0.384,-0.907 0.384,-1.44 0,-0.821 -0.272,-1.483 -0.816,-1.984 -0.544,-0.512 -1.243,-0.768 -2.096,-0.768 -0.864,0 -1.568,0.256 -2.112,0.768 -0.544,0.501 -0.816,1.163 -0.816,1.984 0,0.533 0.122,1.013 0.368,1.44 0.256,0.416 0.602,0.741 1.04,0.976 0.448,0.235 0.954,0.352 1.52,0.352 z m 10.439,-6.864 c 1.173,0 2.069,0.288 2.688,0.864 0.629,0.576 0.944,1.435 0.944,2.576 V 195 h -1.456 v -1.12 c -0.256,0.395 -0.624,0.699 -1.104,0.912 -0.47,0.203 -1.03,0.304 -1.68,0.304 -0.95,0 -1.712,-0.229 -2.288,-0.688 -0.566,-0.459 -0.848,-1.061 -0.848,-1.808 0,-0.747 0.272,-1.344 0.816,-1.792 0.544,-0.459 1.408,-0.688 2.592,-0.688 h 2.432 v -0.304 c 0,-0.661 -0.192,-1.168 -0.576,-1.52 -0.384,-0.352 -0.95,-0.528 -1.696,-0.528 -0.502,0 -0.992,0.085 -1.472,0.256 -0.48,0.16 -0.886,0.379 -1.216,0.656 l -0.64,-1.152 c 0.437,-0.352 0.96,-0.619 1.568,-0.8 0.608,-0.192 1.253,-0.288 1.936,-0.288 z m -0.352,7.472 c 0.586,0 1.093,-0.128 1.52,-0.384 0.426,-0.267 0.736,-0.64 0.928,-1.12 v -1.184 h -2.368 c -1.302,0 -1.952,0.437 -1.952,1.312 0,0.427 0.165,0.763 0.496,1.008 0.33,0.245 0.789,0.368 1.376,0.368 z m 11.354,-7.472 c 1.078,0 1.931,0.315 2.56,0.944 0.64,0.619 0.96,1.531 0.96,2.736 V 195 h -1.536 v -4.704 c 0,-0.821 -0.197,-1.44 -0.592,-1.856 -0.394,-0.416 -0.96,-0.624 -1.696,-0.624 -0.832,0 -1.488,0.245 -1.968,0.736 -0.48,0.48 -0.72,1.173 -0.72,2.08 V 195 h -1.536 v -8.48 h 1.472 v 1.28 c 0.31,-0.437 0.726,-0.773 1.248,-1.008 0.534,-0.235 1.136,-0.352 1.808,-0.352 z m 6.363,0.08 H 225.5 V 195 h -1.536 z m 0.768,-1.632 c -0.299,0 -0.55,-0.096 -0.752,-0.288 -0.192,-0.192 -0.288,-0.427 -0.288,-0.704 0,-0.277 0.096,-0.512 0.288,-0.704 0.202,-0.203 0.453,-0.304 0.752,-0.304 0.298,0 0.544,0.096 0.736,0.288 0.202,0.181 0.304,0.411 0.304,0.688 0,0.288 -0.102,0.533 -0.304,0.736 -0.192,0.192 -0.438,0.288 -0.736,0.288 z m 9.989,8.848 V 195 h -7.104 v -0.992 l 5.008,-6.224 h -4.912 v -1.264 h 6.88 v 1.008 l -5.008,6.208 z m 5.143,-7.296 c 1.174,0 2.07,0.288 2.688,0.864 0.63,0.576 0.944,1.435 0.944,2.576 V 195 h -1.456 v -1.12 c -0.256,0.395 -0.624,0.699 -1.104,0.912 -0.469,0.203 -1.029,0.304 -1.68,0.304 -0.949,0 -1.712,-0.229 -2.288,-0.688 -0.565,-0.459 -0.848,-1.061 -0.848,-1.808 0,-0.747 0.272,-1.344 0.816,-1.792 0.544,-0.459 1.408,-0.688 2.592,-0.688 h 2.432 v -0.304 c 0,-0.661 -0.192,-1.168 -0.576,-1.52 -0.384,-0.352 -0.949,-0.528 -1.696,-0.528 -0.501,0 -0.992,0.085 -1.472,0.256 -0.48,0.16 -0.885,0.379 -1.216,0.656 l -0.64,-1.152 c 0.438,-0.352 0.96,-0.619 1.568,-0.8 0.608,-0.192 1.254,-0.288 1.936,-0.288 z m -0.352,7.472 c 0.587,0 1.094,-0.128 1.52,-0.384 0.427,-0.267 0.736,-0.64 0.928,-1.12 v -1.184 h -2.368 c -1.301,0 -1.952,0.437 -1.952,1.312 0,0.427 0.166,0.763 0.496,1.008 0.331,0.245 0.79,0.368 1.376,0.368 z m 11.595,0.592 c -0.224,0.192 -0.502,0.341 -0.832,0.448 -0.331,0.096 -0.672,0.144 -1.024,0.144 -0.854,0 -1.515,-0.229 -1.984,-0.688 -0.47,-0.459 -0.704,-1.115 -0.704,-1.968 v -4.656 h -1.44 v -1.264 h 1.44 v -1.856 h 1.536 v 1.856 h 2.432 v 1.264 h -2.432 v 4.592 c 0,0.459 0.112,0.811 0.336,1.056 0.234,0.245 0.565,0.368 0.992,0.368 0.469,0 0.869,-0.133 1.2,-0.4 z m 1.857,-7.984 H 254.5 V 195 h -1.536 z m 0.768,-1.632 c -0.299,0 -0.55,-0.096 -0.752,-0.288 -0.192,-0.192 -0.288,-0.427 -0.288,-0.704 0,-0.277 0.096,-0.512 0.288,-0.704 0.202,-0.203 0.453,-0.304 0.752,-0.304 0.298,0 0.544,0.096 0.736,0.288 0.202,0.181 0.304,0.411 0.304,0.688 0,0.288 -0.102,0.533 -0.304,0.736 -0.192,0.192 -0.438,0.288 -0.736,0.288 z m 7.333,10.208 c -0.843,0 -1.6,-0.187 -2.272,-0.56 -0.672,-0.373 -1.2,-0.885 -1.584,-1.536 -0.374,-0.661 -0.56,-1.408 -0.56,-2.24 0,-0.832 0.186,-1.573 0.56,-2.224 0.384,-0.661 0.912,-1.173 1.584,-1.536 0.672,-0.373 1.429,-0.56 2.272,-0.56 0.842,0 1.594,0.187 2.256,0.56 0.672,0.363 1.194,0.875 1.568,1.536 0.384,0.651 0.576,1.392 0.576,2.224 0,0.832 -0.192,1.579 -0.576,2.24 -0.374,0.651 -0.896,1.163 -1.568,1.536 -0.662,0.373 -1.414,0.56 -2.256,0.56 z m 0,-1.344 c 0.544,0 1.029,-0.123 1.456,-0.368 0.437,-0.256 0.778,-0.608 1.024,-1.056 0.245,-0.459 0.368,-0.981 0.368,-1.568 0,-0.587 -0.123,-1.104 -0.368,-1.552 -0.246,-0.459 -0.587,-0.811 -1.024,-1.056 -0.427,-0.245 -0.912,-0.368 -1.456,-0.368 -0.544,0 -1.035,0.123 -1.472,0.368 -0.427,0.245 -0.768,0.597 -1.024,1.056 -0.246,0.448 -0.368,0.965 -0.368,1.552 0,0.587 0.122,1.109 0.368,1.568 0.256,0.448 0.597,0.8 1.024,1.056 0.437,0.245 0.928,0.368 1.472,0.368 z m 11.052,-7.312 c 1.077,0 1.93,0.315 2.56,0.944 0.64,0.619 0.96,1.531 0.96,2.736 V 195 h -1.536 v -4.704 c 0,-0.821 -0.198,-1.44 -0.592,-1.856 -0.395,-0.416 -0.96,-0.624 -1.696,-0.624 -0.832,0 -1.488,0.245 -1.968,0.736 -0.48,0.48 -0.72,1.173 -0.72,2.08 V 195 h -1.536 v -8.48 h 1.472 v 1.28 c 0.309,-0.437 0.725,-0.773 1.248,-1.008 0.533,-0.235 1.136,-0.352 1.808,-0.352 z m 6.746,6.464 c 0.299,0 0.544,0.107 0.736,0.32 0.203,0.203 0.304,0.459 0.304,0.768 0,0.16 -0.021,0.315 -0.064,0.464 -0.032,0.149 -0.101,0.379 -0.208,0.688 l -0.752,2.224 h -1.008 l 0.592,-2.384 c -0.202,-0.075 -0.368,-0.197 -0.496,-0.368 -0.117,-0.181 -0.176,-0.389 -0.176,-0.624 0,-0.32 0.102,-0.581 0.304,-0.784 0.203,-0.203 0.459,-0.304 0.768,-0.304 z m 14.923,-6.464 c 1.174,0 2.07,0.288 2.688,0.864 0.63,0.576 0.944,1.435 0.944,2.576 V 195 h -1.456 v -1.12 c -0.256,0.395 -0.624,0.699 -1.104,0.912 -0.469,0.203 -1.029,0.304 -1.68,0.304 -0.949,0 -1.712,-0.229 -2.288,-0.688 -0.565,-0.459 -0.848,-1.061 -0.848,-1.808 0,-0.747 0.272,-1.344 0.816,-1.792 0.544,-0.459 1.408,-0.688 2.592,-0.688 h 2.432 v -0.304 c 0,-0.661 -0.192,-1.168 -0.576,-1.52 -0.384,-0.352 -0.949,-0.528 -1.696,-0.528 -0.501,0 -0.992,0.085 -1.472,0.256 -0.48,0.16 -0.885,0.379 -1.216,0.656 l -0.64,-1.152 c 0.438,-0.352 0.96,-0.619 1.568,-0.8 0.608,-0.192 1.254,-0.288 1.936,-0.288 z m -0.352,7.472 c 0.587,0 1.094,-0.128 1.52,-0.384 0.427,-0.267 0.736,-0.64 0.928,-1.12 v -1.184 h -2.368 c -1.301,0 -1.952,0.437 -1.952,1.312 0,0.427 0.166,0.763 0.496,1.008 0.331,0.245 0.79,0.368 1.376,0.368 z m 11.355,-7.472 c 1.077,0 1.93,0.315 2.56,0.944 0.64,0.619 0.96,1.531 0.96,2.736 V 195 h -1.536 v -4.704 c 0,-0.821 -0.198,-1.44 -0.592,-1.856 -0.395,-0.416 -0.96,-0.624 -1.696,-0.624 -0.832,0 -1.488,0.245 -1.968,0.736 -0.48,0.48 -0.72,1.173 -0.72,2.08 V 195 h -1.536 v -8.48 h 1.472 v 1.28 c 0.309,-0.437 0.725,-0.773 1.248,-1.008 0.533,-0.235 1.136,-0.352 1.808,-0.352 z m 14.409,-3.312 V 195 h -1.472 v -1.344 c -0.341,0.469 -0.773,0.827 -1.296,1.072 -0.522,0.245 -1.098,0.368 -1.728,0.368 -0.821,0 -1.557,-0.181 -2.208,-0.544 -0.65,-0.363 -1.162,-0.869 -1.536,-1.52 -0.362,-0.661 -0.544,-1.419 -0.544,-2.272 0,-0.853 0.182,-1.605 0.544,-2.256 0.374,-0.651 0.886,-1.157 1.536,-1.52 0.651,-0.363 1.387,-0.544 2.208,-0.544 0.608,0 1.168,0.117 1.68,0.352 0.512,0.224 0.939,0.56 1.28,1.008 v -4.672 z m -4.368,10.624 c 0.534,0 1.019,-0.123 1.456,-0.368 0.438,-0.256 0.779,-0.608 1.024,-1.056 0.246,-0.459 0.368,-0.981 0.368,-1.568 0,-0.587 -0.122,-1.104 -0.368,-1.552 -0.245,-0.459 -0.586,-0.811 -1.024,-1.056 -0.437,-0.245 -0.922,-0.368 -1.456,-0.368 -0.544,0 -1.034,0.123 -1.472,0.368 -0.426,0.245 -0.768,0.597 -1.024,1.056 -0.245,0.448 -0.368,0.965 -0.368,1.552 0,0.587 0.123,1.109 0.368,1.568 0.256,0.448 0.598,0.8 1.024,1.056 0.438,0.245 0.928,0.368 1.472,0.368 z m 13.043,-5.808 c 0.267,-0.491 0.662,-0.864 1.184,-1.12 0.523,-0.256 1.158,-0.384 1.904,-0.384 v 1.488 c -0.085,-0.011 -0.202,-0.016 -0.352,-0.016 -0.832,0 -1.488,0.251 -1.968,0.752 -0.469,0.491 -0.704,1.195 -0.704,2.112 V 195 h -1.536 v -8.48 h 1.472 z m 12.567,2.864 c 0,0.117 -0.01,0.272 -0.032,0.464 h -6.88 c 0.096,0.747 0.422,1.349 0.976,1.808 0.566,0.448 1.264,0.672 2.096,0.672 1.014,0 1.83,-0.341 2.448,-1.024 l 0.848,0.992 c -0.384,0.448 -0.864,0.789 -1.44,1.024 -0.565,0.235 -1.2,0.352 -1.904,0.352 -0.896,0 -1.69,-0.181 -2.384,-0.544 -0.693,-0.373 -1.232,-0.891 -1.616,-1.552 -0.373,-0.661 -0.56,-1.408 -0.56,-2.24 0,-0.821 0.182,-1.563 0.544,-2.224 0.374,-0.661 0.88,-1.173 1.52,-1.536 0.651,-0.373 1.382,-0.56 2.192,-0.56 0.811,0 1.531,0.187 2.16,0.56 0.64,0.363 1.136,0.875 1.488,1.536 0.363,0.661 0.544,1.419 0.544,2.272 z m -4.192,-3.072 c -0.736,0 -1.354,0.224 -1.856,0.672 -0.49,0.448 -0.778,1.035 -0.864,1.76 h 5.44 c -0.085,-0.715 -0.378,-1.296 -0.88,-1.744 -0.49,-0.459 -1.104,-0.688 -1.84,-0.688 z m 9.179,-1.296 c 1.173,0 2.069,0.288 2.688,0.864 0.629,0.576 0.944,1.435 0.944,2.576 V 195 h -1.456 v -1.12 c -0.256,0.395 -0.624,0.699 -1.104,0.912 -0.47,0.203 -1.03,0.304 -1.68,0.304 -0.95,0 -1.712,-0.229 -2.288,-0.688 -0.566,-0.459 -0.848,-1.061 -0.848,-1.808 0,-0.747 0.272,-1.344 0.816,-1.792 0.544,-0.459 1.408,-0.688 2.592,-0.688 h 2.432 v -0.304 c 0,-0.661 -0.192,-1.168 -0.576,-1.52 -0.384,-0.352 -0.95,-0.528 -1.696,-0.528 -0.502,0 -0.992,0.085 -1.472,0.256 -0.48,0.16 -0.886,0.379 -1.216,0.656 l -0.64,-1.152 c 0.437,-0.352 0.96,-0.619 1.568,-0.8 0.608,-0.192 1.253,-0.288 1.936,-0.288 z m -0.352,7.472 c 0.586,0 1.093,-0.128 1.52,-0.384 0.426,-0.267 0.736,-0.64 0.928,-1.12 v -1.184 h -2.368 c -1.302,0 -1.952,0.437 -1.952,1.312 0,0.427 0.165,0.763 0.496,1.008 0.33,0.245 0.789,0.368 1.376,0.368 z m 14.873,-10.784 V 195 h -1.472 v -1.344 c -0.341,0.469 -0.773,0.827 -1.296,1.072 -0.522,0.245 -1.098,0.368 -1.728,0.368 -0.821,0 -1.557,-0.181 -2.208,-0.544 -0.65,-0.363 -1.162,-0.869 -1.536,-1.52 -0.362,-0.661 -0.544,-1.419 -0.544,-2.272 0,-0.853 0.182,-1.605 0.544,-2.256 0.374,-0.651 0.886,-1.157 1.536,-1.52 0.651,-0.363 1.387,-0.544 2.208,-0.544 0.608,0 1.168,0.117 1.68,0.352 0.512,0.224 0.939,0.56 1.28,1.008 v -4.672 z m -4.368,10.624 c 0.534,0 1.019,-0.123 1.456,-0.368 0.438,-0.256 0.779,-0.608 1.024,-1.056 0.246,-0.459 0.368,-0.981 0.368,-1.568 0,-0.587 -0.122,-1.104 -0.368,-1.552 -0.245,-0.459 -0.586,-0.811 -1.024,-1.056 -0.437,-0.245 -0.922,-0.368 -1.456,-0.368 -0.544,0 -1.034,0.123 -1.472,0.368 -0.426,0.245 -0.768,0.597 -1.024,1.056 -0.245,0.448 -0.368,0.965 -0.368,1.552 0,0.587 0.123,1.109 0.368,1.568 0.256,0.448 0.598,0.8 1.024,1.056 0.438,0.245 0.928,0.368 1.472,0.368 z m -232.004,24.752 c -0.224,0.192 -0.502,0.341 -0.832,0.448 -0.331,0.096 -0.672,0.144 -1.024,0.144 -0.854,0 -1.515,-0.229 -1.984,-0.688 -0.47,-0.459 -0.704,-1.115 -0.704,-1.968 v -4.656 h -1.44 v -1.264 h 1.44 v -1.856 h 1.536 v 1.856 H 123 v 1.264 h -2.432 v 4.592 c 0,0.459 0.112,0.811 0.336,1.056 0.234,0.245 0.565,0.368 0.992,0.368 0.469,0 0.869,-0.133 1.2,-0.4 z m 6.385,-8.064 c 1.077,0 1.93,0.315 2.56,0.944 0.64,0.619 0.96,1.531 0.96,2.736 V 219 h -1.536 v -4.704 c 0,-0.821 -0.198,-1.44 -0.592,-1.856 -0.395,-0.416 -0.96,-0.624 -1.696,-0.624 -0.832,0 -1.488,0.245 -1.968,0.736 -0.48,0.48 -0.72,1.173 -0.72,2.08 V 219 h -1.536 v -11.872 h 1.536 v 4.592 c 0.32,-0.405 0.736,-0.72 1.248,-0.944 0.522,-0.224 1.104,-0.336 1.744,-0.336 z m 7.834,1.504 c 0.267,-0.491 0.662,-0.864 1.184,-1.12 0.523,-0.256 1.158,-0.384 1.904,-0.384 v 1.488 c -0.085,-0.011 -0.202,-0.016 -0.352,-0.016 -0.832,0 -1.488,0.251 -1.968,0.752 -0.469,0.491 -0.704,1.195 -0.704,2.112 V 219 h -1.536 v -8.48 h 1.472 z m 8.535,7.152 c -0.842,0 -1.6,-0.187 -2.272,-0.56 -0.672,-0.373 -1.2,-0.885 -1.584,-1.536 -0.373,-0.661 -0.56,-1.408 -0.56,-2.24 0,-0.832 0.187,-1.573 0.56,-2.224 0.384,-0.661 0.912,-1.173 1.584,-1.536 0.672,-0.373 1.43,-0.56 2.272,-0.56 0.843,0 1.595,0.187 2.256,0.56 0.672,0.363 1.195,0.875 1.568,1.536 0.384,0.651 0.576,1.392 0.576,2.224 0,0.832 -0.192,1.579 -0.576,2.24 -0.373,0.651 -0.896,1.163 -1.568,1.536 -0.661,0.373 -1.413,0.56 -2.256,0.56 z m 0,-1.344 c 0.544,0 1.03,-0.123 1.456,-0.368 0.438,-0.256 0.779,-0.608 1.024,-1.056 0.246,-0.459 0.368,-0.981 0.368,-1.568 0,-0.587 -0.122,-1.104 -0.368,-1.552 -0.245,-0.459 -0.586,-0.811 -1.024,-1.056 -0.426,-0.245 -0.912,-0.368 -1.456,-0.368 -0.544,0 -1.034,0.123 -1.472,0.368 -0.426,0.245 -0.768,0.597 -1.024,1.056 -0.245,0.448 -0.368,0.965 -0.368,1.552 0,0.587 0.123,1.109 0.368,1.568 0.256,0.448 0.598,0.8 1.024,1.056 0.438,0.245 0.928,0.368 1.472,0.368 z m 14.428,-7.232 V 219 h -1.456 v -1.28 c -0.309,0.437 -0.72,0.779 -1.232,1.024 -0.501,0.235 -1.05,0.352 -1.648,0.352 -1.13,0 -2.021,-0.309 -2.672,-0.928 -0.65,-0.629 -0.976,-1.552 -0.976,-2.768 v -4.88 h 1.536 v 4.704 c 0,0.821 0.198,1.445 0.592,1.872 0.395,0.416 0.96,0.624 1.696,0.624 0.811,0 1.451,-0.245 1.92,-0.736 0.47,-0.491 0.704,-1.184 0.704,-2.08 v -4.384 z m 11.037,0 v 7.328 c 0,1.483 -0.368,2.576 -1.104,3.28 -0.736,0.715 -1.835,1.072 -3.296,1.072 -0.8,0 -1.563,-0.112 -2.288,-0.336 -0.726,-0.213 -1.312,-0.523 -1.76,-0.928 l 0.736,-1.184 c 0.394,0.341 0.88,0.608 1.456,0.8 0.586,0.203 1.189,0.304 1.808,0.304 0.992,0 1.722,-0.235 2.192,-0.704 0.48,-0.469 0.72,-1.184 0.72,-2.144 v -0.672 c -0.363,0.437 -0.811,0.768 -1.344,0.992 -0.523,0.213 -1.094,0.32 -1.712,0.32 -0.811,0 -1.547,-0.171 -2.208,-0.512 -0.651,-0.352 -1.163,-0.837 -1.536,-1.456 -0.374,-0.629 -0.56,-1.344 -0.56,-2.144 0,-0.8 0.186,-1.509 0.56,-2.128 0.373,-0.629 0.885,-1.115 1.536,-1.456 0.661,-0.341 1.397,-0.512 2.208,-0.512 0.64,0 1.232,0.117 1.776,0.352 0.554,0.235 1.008,0.581 1.36,1.04 v -1.312 z m -4.416,6.784 c 0.554,0 1.05,-0.117 1.488,-0.352 0.448,-0.235 0.794,-0.56 1.04,-0.976 0.256,-0.427 0.384,-0.907 0.384,-1.44 0,-0.821 -0.272,-1.483 -0.816,-1.984 -0.544,-0.512 -1.243,-0.768 -2.096,-0.768 -0.864,0 -1.568,0.256 -2.112,0.768 -0.544,0.501 -0.816,1.163 -0.816,1.984 0,0.533 0.122,1.013 0.368,1.44 0.256,0.416 0.602,0.741 1.04,0.976 0.448,0.235 0.954,0.352 1.52,0.352 z m 11.878,-6.864 c 1.078,0 1.931,0.315 2.56,0.944 0.64,0.619 0.96,1.531 0.96,2.736 V 219 h -1.536 v -4.704 c 0,-0.821 -0.197,-1.44 -0.592,-1.856 -0.394,-0.416 -0.96,-0.624 -1.696,-0.624 -0.832,0 -1.488,0.245 -1.968,0.736 -0.48,0.48 -0.72,1.173 -0.72,2.08 V 219 h -1.536 v -11.872 h 1.536 v 4.592 c 0.32,-0.405 0.736,-0.72 1.248,-0.944 0.523,-0.224 1.104,-0.336 1.744,-0.336 z m 15.428,8.064 c -0.224,0.192 -0.501,0.341 -0.832,0.448 -0.331,0.096 -0.672,0.144 -1.024,0.144 -0.853,0 -1.515,-0.229 -1.984,-0.688 -0.469,-0.459 -0.704,-1.115 -0.704,-1.968 v -4.656 h -1.44 v -1.264 h 1.44 v -1.856 h 1.536 v 1.856 h 2.432 v 1.264 h -2.432 v 4.592 c 0,0.459 0.112,0.811 0.336,1.056 0.235,0.245 0.565,0.368 0.992,0.368 0.469,0 0.869,-0.133 1.2,-0.4 z m 6.385,-8.064 c 1.077,0 1.931,0.315 2.56,0.944 0.64,0.619 0.96,1.531 0.96,2.736 V 219 h -1.536 v -4.704 c 0,-0.821 -0.197,-1.44 -0.592,-1.856 -0.395,-0.416 -0.96,-0.624 -1.696,-0.624 -0.832,0 -1.488,0.245 -1.968,0.736 -0.48,0.48 -0.72,1.173 -0.72,2.08 V 219 h -1.536 v -11.872 h 1.536 v 4.592 c 0.32,-0.405 0.736,-0.72 1.248,-0.944 0.523,-0.224 1.104,-0.336 1.744,-0.336 z m 14.073,4.368 c 0,0.117 -0.01,0.272 -0.032,0.464 h -6.88 c 0.096,0.747 0.422,1.349 0.976,1.808 0.566,0.448 1.264,0.672 2.096,0.672 1.014,0 1.83,-0.341 2.448,-1.024 l 0.848,0.992 c -0.384,0.448 -0.864,0.789 -1.44,1.024 -0.565,0.235 -1.2,0.352 -1.904,0.352 -0.896,0 -1.69,-0.181 -2.384,-0.544 -0.693,-0.373 -1.232,-0.891 -1.616,-1.552 -0.373,-0.661 -0.56,-1.408 -0.56,-2.24 0,-0.821 0.182,-1.563 0.544,-2.224 0.374,-0.661 0.88,-1.173 1.52,-1.536 0.651,-0.373 1.382,-0.56 2.192,-0.56 0.811,0 1.531,0.187 2.16,0.56 0.64,0.363 1.136,0.875 1.488,1.536 0.363,0.661 0.544,1.419 0.544,2.272 z m -4.192,-3.072 c -0.736,0 -1.354,0.224 -1.856,0.672 -0.49,0.448 -0.778,1.035 -0.864,1.76 h 5.44 c -0.085,-0.715 -0.378,-1.296 -0.88,-1.744 -0.49,-0.459 -1.104,-0.688 -1.84,-0.688 z m 10.622,-1.216 h 1.536 V 219 h -1.536 z m 0.768,-1.632 c -0.298,0 -0.549,-0.096 -0.752,-0.288 -0.192,-0.192 -0.288,-0.427 -0.288,-0.704 0,-0.277 0.096,-0.512 0.288,-0.704 0.203,-0.203 0.454,-0.304 0.752,-0.304 0.299,0 0.544,0.096 0.736,0.288 0.203,0.181 0.304,0.411 0.304,0.688 0,0.288 -0.101,0.533 -0.304,0.736 -0.192,0.192 -0.437,0.288 -0.736,0.288 z m 8.229,1.552 c 1.077,0 1.931,0.315 2.56,0.944 0.64,0.619 0.96,1.531 0.96,2.736 V 219 h -1.536 v -4.704 c 0,-0.821 -0.197,-1.44 -0.592,-1.856 -0.395,-0.416 -0.96,-0.624 -1.696,-0.624 -0.832,0 -1.488,0.245 -1.968,0.736 -0.48,0.48 -0.72,1.173 -0.72,2.08 V 219 h -1.536 v -8.48 h 1.472 v 1.28 c 0.309,-0.437 0.725,-0.773 1.248,-1.008 0.533,-0.235 1.136,-0.352 1.808,-0.352 z m 9.467,-2.144 c -0.918,0 -1.376,0.496 -1.376,1.488 v 0.736 h 2.464 v 1.264 h -2.432 V 219 h -1.536 v -7.216 h -1.44 v -1.264 h 1.44 v -0.752 c 0,-0.843 0.245,-1.509 0.736,-2 0.49,-0.491 1.178,-0.736 2.064,-0.736 0.341,0 0.661,0.043 0.96,0.128 0.298,0.085 0.554,0.208 0.768,0.368 l -0.464,1.168 c -0.352,-0.267 -0.747,-0.4 -1.184,-0.4 z m 6.043,10.8 c -0.842,0 -1.6,-0.187 -2.272,-0.56 -0.672,-0.373 -1.2,-0.885 -1.584,-1.536 -0.373,-0.661 -0.56,-1.408 -0.56,-2.24 0,-0.832 0.187,-1.573 0.56,-2.224 0.384,-0.661 0.912,-1.173 1.584,-1.536 0.672,-0.373 1.43,-0.56 2.272,-0.56 0.843,0 1.595,0.187 2.256,0.56 0.672,0.363 1.195,0.875 1.568,1.536 0.384,0.651 0.576,1.392 0.576,2.224 0,0.832 -0.192,1.579 -0.576,2.24 -0.373,0.651 -0.896,1.163 -1.568,1.536 -0.661,0.373 -1.413,0.56 -2.256,0.56 z m 0,-1.344 c 0.544,0 1.03,-0.123 1.456,-0.368 0.438,-0.256 0.779,-0.608 1.024,-1.056 0.246,-0.459 0.368,-0.981 0.368,-1.568 0,-0.587 -0.122,-1.104 -0.368,-1.552 -0.245,-0.459 -0.586,-0.811 -1.024,-1.056 -0.426,-0.245 -0.912,-0.368 -1.456,-0.368 -0.544,0 -1.034,0.123 -1.472,0.368 -0.426,0.245 -0.768,0.597 -1.024,1.056 -0.245,0.448 -0.368,0.965 -0.368,1.552 0,0.587 0.123,1.109 0.368,1.568 0.256,0.448 0.598,0.8 1.024,1.056 0.438,0.245 0.928,0.368 1.472,0.368 z m 7.996,-5.808 c 0.267,-0.491 0.662,-0.864 1.184,-1.12 0.523,-0.256 1.158,-0.384 1.904,-0.384 v 1.488 c -0.085,-0.011 -0.202,-0.016 -0.352,-0.016 -0.832,0 -1.488,0.251 -1.968,0.752 -0.469,0.491 -0.704,1.195 -0.704,2.112 V 219 h -1.536 v -8.48 h 1.472 z m 15.59,-1.504 c 1.066,0 1.909,0.309 2.528,0.928 0.629,0.619 0.944,1.536 0.944,2.752 V 219 h -1.536 v -4.704 c 0,-0.821 -0.192,-1.44 -0.576,-1.856 -0.374,-0.416 -0.912,-0.624 -1.616,-0.624 -0.779,0 -1.398,0.245 -1.856,0.736 -0.459,0.48 -0.688,1.173 -0.688,2.08 V 219 h -1.536 v -4.704 c 0,-0.821 -0.192,-1.44 -0.576,-1.856 -0.374,-0.416 -0.912,-0.624 -1.616,-0.624 -0.779,0 -1.398,0.245 -1.856,0.736 -0.459,0.48 -0.688,1.173 -0.688,2.08 V 219 h -1.536 v -8.48 h 1.472 v 1.264 c 0.309,-0.437 0.714,-0.768 1.216,-0.992 0.501,-0.235 1.072,-0.352 1.712,-0.352 0.661,0 1.248,0.133 1.76,0.4 0.512,0.267 0.906,0.656 1.184,1.168 0.32,-0.491 0.762,-0.875 1.328,-1.152 0.576,-0.277 1.221,-0.416 1.936,-0.416 z m 9.386,0 c 1.173,0 2.069,0.288 2.688,0.864 0.629,0.576 0.944,1.435 0.944,2.576 V 219 h -1.456 v -1.12 c -0.256,0.395 -0.624,0.699 -1.104,0.912 -0.47,0.203 -1.03,0.304 -1.68,0.304 -0.95,0 -1.712,-0.229 -2.288,-0.688 -0.566,-0.459 -0.848,-1.061 -0.848,-1.808 0,-0.747 0.272,-1.344 0.816,-1.792 0.544,-0.459 1.408,-0.688 2.592,-0.688 h 2.432 v -0.304 c 0,-0.661 -0.192,-1.168 -0.576,-1.52 -0.384,-0.352 -0.95,-0.528 -1.696,-0.528 -0.502,0 -0.992,0.085 -1.472,0.256 -0.48,0.16 -0.886,0.379 -1.216,0.656 l -0.64,-1.152 c 0.437,-0.352 0.96,-0.619 1.568,-0.8 0.608,-0.192 1.253,-0.288 1.936,-0.288 z m -0.352,7.472 c 0.586,0 1.093,-0.128 1.52,-0.384 0.426,-0.267 0.736,-0.64 0.928,-1.12 v -1.184 h -2.368 c -1.302,0 -1.952,0.437 -1.952,1.312 0,0.427 0.165,0.763 0.496,1.008 0.33,0.245 0.789,0.368 1.376,0.368 z m 11.594,0.592 c -0.224,0.192 -0.501,0.341 -0.832,0.448 -0.33,0.096 -0.672,0.144 -1.024,0.144 -0.853,0 -1.514,-0.229 -1.984,-0.688 -0.469,-0.459 -0.704,-1.115 -0.704,-1.968 v -4.656 h -1.44 v -1.264 h 1.44 v -1.856 h 1.536 v 1.856 h 2.432 v 1.264 h -2.432 v 4.592 c 0,0.459 0.112,0.811 0.336,1.056 0.235,0.245 0.566,0.368 0.992,0.368 0.47,0 0.87,-0.133 1.2,-0.4 z m 1.857,-7.984 h 1.536 V 219 h -1.536 z m 0.768,-1.632 c -0.298,0 -0.549,-0.096 -0.752,-0.288 -0.192,-0.192 -0.288,-0.427 -0.288,-0.704 0,-0.277 0.096,-0.512 0.288,-0.704 0.203,-0.203 0.454,-0.304 0.752,-0.304 0.299,0 0.544,0.096 0.736,0.288 0.203,0.181 0.304,0.411 0.304,0.688 0,0.288 -0.101,0.533 -0.304,0.736 -0.192,0.192 -0.437,0.288 -0.736,0.288 z m 7.333,10.208 c -0.843,0 -1.6,-0.187 -2.272,-0.56 -0.672,-0.373 -1.2,-0.885 -1.584,-1.536 -0.373,-0.661 -0.56,-1.408 -0.56,-2.24 0,-0.832 0.187,-1.573 0.56,-2.224 0.384,-0.661 0.912,-1.173 1.584,-1.536 0.672,-0.373 1.429,-0.56 2.272,-0.56 0.843,0 1.595,0.187 2.256,0.56 0.672,0.363 1.195,0.875 1.568,1.536 0.384,0.651 0.576,1.392 0.576,2.224 0,0.832 -0.192,1.579 -0.576,2.24 -0.373,0.651 -0.896,1.163 -1.568,1.536 -0.661,0.373 -1.413,0.56 -2.256,0.56 z m 0,-1.344 c 0.544,0 1.029,-0.123 1.456,-0.368 0.437,-0.256 0.779,-0.608 1.024,-1.056 0.245,-0.459 0.368,-0.981 0.368,-1.568 0,-0.587 -0.123,-1.104 -0.368,-1.552 -0.245,-0.459 -0.587,-0.811 -1.024,-1.056 -0.427,-0.245 -0.912,-0.368 -1.456,-0.368 -0.544,0 -1.035,0.123 -1.472,0.368 -0.427,0.245 -0.768,0.597 -1.024,1.056 -0.245,0.448 -0.368,0.965 -0.368,1.552 0,0.587 0.123,1.109 0.368,1.568 0.256,0.448 0.597,0.8 1.024,1.056 0.437,0.245 0.928,0.368 1.472,0.368 z m 11.052,-7.312 c 1.078,0 1.931,0.315 2.56,0.944 0.64,0.619 0.96,1.531 0.96,2.736 V 219 h -1.536 v -4.704 c 0,-0.821 -0.197,-1.44 -0.592,-1.856 -0.394,-0.416 -0.96,-0.624 -1.696,-0.624 -0.832,0 -1.488,0.245 -1.968,0.736 -0.48,0.48 -0.72,1.173 -0.72,2.08 V 219 h -1.536 v -8.48 h 1.472 v 1.28 c 0.31,-0.437 0.726,-0.773 1.248,-1.008 0.534,-0.235 1.136,-0.352 1.808,-0.352 z m 15.428,8.064 c -0.224,0.192 -0.502,0.341 -0.832,0.448 -0.331,0.096 -0.672,0.144 -1.024,0.144 -0.854,0 -1.515,-0.229 -1.984,-0.688 -0.47,-0.459 -0.704,-1.115 -0.704,-1.968 v -4.656 h -1.44 v -1.264 h 1.44 v -1.856 h 1.536 v 1.856 h 2.432 v 1.264 h -2.432 v 4.592 c 0,0.459 0.112,0.811 0.336,1.056 0.234,0.245 0.565,0.368 0.992,0.368 0.469,0 0.869,-0.133 1.2,-0.4 z m 6.385,-8.064 c 1.077,0 1.93,0.315 2.56,0.944 0.64,0.619 0.96,1.531 0.96,2.736 V 219 h -1.536 v -4.704 c 0,-0.821 -0.198,-1.44 -0.592,-1.856 -0.395,-0.416 -0.96,-0.624 -1.696,-0.624 -0.832,0 -1.488,0.245 -1.968,0.736 -0.48,0.48 -0.72,1.173 -0.72,2.08 V 219 h -1.536 v -11.872 h 1.536 v 4.592 c 0.32,-0.405 0.736,-0.72 1.248,-0.944 0.522,-0.224 1.104,-0.336 1.744,-0.336 z m 14.073,4.368 c 0,0.117 -0.01,0.272 -0.032,0.464 h -6.88 c 0.096,0.747 0.422,1.349 0.976,1.808 0.566,0.448 1.264,0.672 2.096,0.672 1.014,0 1.83,-0.341 2.448,-1.024 l 0.848,0.992 c -0.384,0.448 -0.864,0.789 -1.44,1.024 -0.565,0.235 -1.2,0.352 -1.904,0.352 -0.896,0 -1.69,-0.181 -2.384,-0.544 -0.693,-0.373 -1.232,-0.891 -1.616,-1.552 -0.373,-0.661 -0.56,-1.408 -0.56,-2.24 0,-0.821 0.182,-1.563 0.544,-2.224 0.374,-0.661 0.88,-1.173 1.52,-1.536 0.651,-0.373 1.382,-0.56 2.192,-0.56 0.811,0 1.531,0.187 2.16,0.56 0.64,0.363 1.136,0.875 1.488,1.536 0.363,0.661 0.544,1.419 0.544,2.272 z m -4.192,-3.072 c -0.736,0 -1.354,0.224 -1.856,0.672 -0.49,0.448 -0.778,1.035 -0.864,1.76 h 5.44 c -0.085,-0.715 -0.378,-1.296 -0.88,-1.744 -0.49,-0.459 -1.104,-0.688 -1.84,-0.688 z m 13.673,-1.216 -4.112,9.328 c -0.363,0.864 -0.789,1.472 -1.28,1.824 -0.48,0.352 -1.061,0.528 -1.744,0.528 -0.416,0 -0.821,-0.069 -1.216,-0.208 -0.384,-0.128 -0.704,-0.32 -0.96,-0.576 l 0.656,-1.152 c 0.437,0.416 0.944,0.624 1.52,0.624 0.373,0 0.683,-0.101 0.928,-0.304 0.256,-0.192 0.485,-0.528 0.688,-1.008 l 0.272,-0.592 -3.744,-8.464 h 1.6 l 2.96,6.784 2.928,-6.784 z m -172.757,23.92 c 1.077,0 1.93,0.315 2.56,0.944 0.64,0.619 0.96,1.531 0.96,2.736 V 243 h -1.536 v -4.704 c 0,-0.821 -0.198,-1.44 -0.592,-1.856 -0.395,-0.416 -0.96,-0.624 -1.696,-0.624 -0.832,0 -1.488,0.245 -1.968,0.736 -0.48,0.48 -0.72,1.173 -0.72,2.08 V 243 h -1.536 v -11.872 h 1.536 v 4.592 c 0.32,-0.405 0.736,-0.72 1.248,-0.944 0.522,-0.224 1.104,-0.336 1.744,-0.336 z m 9.45,0 c 1.174,0 2.07,0.288 2.688,0.864 0.63,0.576 0.944,1.435 0.944,2.576 V 243 h -1.456 v -1.12 c -0.256,0.395 -0.624,0.699 -1.104,0.912 -0.469,0.203 -1.029,0.304 -1.68,0.304 -0.949,0 -1.712,-0.229 -2.288,-0.688 -0.565,-0.459 -0.848,-1.061 -0.848,-1.808 0,-0.747 0.272,-1.344 0.816,-1.792 0.544,-0.459 1.408,-0.688 2.592,-0.688 h 2.432 v -0.304 c 0,-0.661 -0.192,-1.168 -0.576,-1.52 -0.384,-0.352 -0.949,-0.528 -1.696,-0.528 -0.501,0 -0.992,0.085 -1.472,0.256 -0.48,0.16 -0.885,0.379 -1.216,0.656 l -0.64,-1.152 c 0.438,-0.352 0.96,-0.619 1.568,-0.8 0.608,-0.192 1.254,-0.288 1.936,-0.288 z m -0.352,7.472 c 0.587,0 1.094,-0.128 1.52,-0.384 0.427,-0.267 0.736,-0.64 0.928,-1.12 v -1.184 h -2.368 c -1.301,0 -1.952,0.437 -1.952,1.312 0,0.427 0.166,0.763 0.496,1.008 0.331,0.245 0.79,0.368 1.376,0.368 z m 14.175,-7.392 -3.712,8.48 h -1.568 l -3.712,-8.48 h 1.6 l 2.912,6.8 2.976,-6.8 z m 8.863,4.288 c 0,0.117 -0.011,0.272 -0.032,0.464 h -6.88 c 0.096,0.747 0.421,1.349 0.976,1.808 0.565,0.448 1.264,0.672 2.096,0.672 1.013,0 1.829,-0.341 2.448,-1.024 l 0.848,0.992 c -0.384,0.448 -0.864,0.789 -1.44,1.024 -0.566,0.235 -1.2,0.352 -1.904,0.352 -0.896,0 -1.691,-0.181 -2.384,-0.544 -0.694,-0.373 -1.232,-0.891 -1.616,-1.552 -0.374,-0.661 -0.56,-1.408 -0.56,-2.24 0,-0.821 0.181,-1.563 0.544,-2.224 0.373,-0.661 0.88,-1.173 1.52,-1.536 0.65,-0.373 1.381,-0.56 2.192,-0.56 0.81,0 1.53,0.187 2.16,0.56 0.64,0.363 1.136,0.875 1.488,1.536 0.362,0.661 0.544,1.419 0.544,2.272 z m -4.192,-3.072 c -0.736,0 -1.355,0.224 -1.856,0.672 -0.491,0.448 -0.779,1.035 -0.864,1.76 h 5.44 c -0.086,-0.715 -0.379,-1.296 -0.88,-1.744 -0.491,-0.459 -1.104,-0.688 -1.84,-0.688 z m 18.733,-1.216 v 7.328 c 0,1.483 -0.368,2.576 -1.104,3.28 -0.736,0.715 -1.834,1.072 -3.296,1.072 -0.8,0 -1.562,-0.112 -2.288,-0.336 -0.725,-0.213 -1.312,-0.523 -1.76,-0.928 l 0.736,-1.184 c 0.395,0.341 0.88,0.608 1.456,0.8 0.587,0.203 1.19,0.304 1.808,0.304 0.992,0 1.723,-0.235 2.192,-0.704 0.48,-0.469 0.72,-1.184 0.72,-2.144 v -0.672 c -0.362,0.437 -0.81,0.768 -1.344,0.992 -0.522,0.213 -1.093,0.32 -1.712,0.32 -0.81,0 -1.546,-0.171 -2.208,-0.512 -0.65,-0.352 -1.162,-0.837 -1.536,-1.456 -0.373,-0.629 -0.56,-1.344 -0.56,-2.144 0,-0.8 0.187,-1.509 0.56,-2.128 0.374,-0.629 0.886,-1.115 1.536,-1.456 0.662,-0.341 1.398,-0.512 2.208,-0.512 0.64,0 1.232,0.117 1.776,0.352 0.555,0.235 1.008,0.581 1.36,1.04 v -1.312 z m -4.416,6.784 c 0.555,0 1.051,-0.117 1.488,-0.352 0.448,-0.235 0.795,-0.56 1.04,-0.976 0.256,-0.427 0.384,-0.907 0.384,-1.44 0,-0.821 -0.272,-1.483 -0.816,-1.984 -0.544,-0.512 -1.242,-0.768 -2.096,-0.768 -0.864,0 -1.568,0.256 -2.112,0.768 -0.544,0.501 -0.816,1.163 -0.816,1.984 0,0.533 0.123,1.013 0.368,1.44 0.256,0.416 0.603,0.741 1.04,0.976 0.448,0.235 0.955,0.352 1.52,0.352 z m 10.439,-6.864 c 1.174,0 2.07,0.288 2.688,0.864 0.63,0.576 0.944,1.435 0.944,2.576 V 243 h -1.456 v -1.12 c -0.256,0.395 -0.624,0.699 -1.104,0.912 -0.469,0.203 -1.029,0.304 -1.68,0.304 -0.949,0 -1.712,-0.229 -2.288,-0.688 -0.565,-0.459 -0.848,-1.061 -0.848,-1.808 0,-0.747 0.272,-1.344 0.816,-1.792 0.544,-0.459 1.408,-0.688 2.592,-0.688 h 2.432 v -0.304 c 0,-0.661 -0.192,-1.168 -0.576,-1.52 -0.384,-0.352 -0.949,-0.528 -1.696,-0.528 -0.501,0 -0.992,0.085 -1.472,0.256 -0.48,0.16 -0.885,0.379 -1.216,0.656 l -0.64,-1.152 c 0.438,-0.352 0.96,-0.619 1.568,-0.8 0.608,-0.192 1.254,-0.288 1.936,-0.288 z m -0.352,7.472 c 0.587,0 1.094,-0.128 1.52,-0.384 0.427,-0.267 0.736,-0.64 0.928,-1.12 v -1.184 h -2.368 c -1.301,0 -1.952,0.437 -1.952,1.312 0,0.427 0.166,0.763 0.496,1.008 0.331,0.245 0.79,0.368 1.376,0.368 z m 11.595,0.592 c -0.224,0.192 -0.502,0.341 -0.832,0.448 -0.331,0.096 -0.672,0.144 -1.024,0.144 -0.854,0 -1.515,-0.229 -1.984,-0.688 -0.47,-0.459 -0.704,-1.115 -0.704,-1.968 v -4.656 h -1.44 v -1.264 h 1.44 v -1.856 h 1.536 v 1.856 h 2.432 v 1.264 h -2.432 v 4.592 c 0,0.459 0.112,0.811 0.336,1.056 0.234,0.245 0.565,0.368 0.992,0.368 0.469,0 0.869,-0.133 1.2,-0.4 z m 6.385,-8.064 c 1.077,0 1.93,0.315 2.56,0.944 0.64,0.619 0.96,1.531 0.96,2.736 V 243 h -1.536 v -4.704 c 0,-0.821 -0.198,-1.44 -0.592,-1.856 -0.395,-0.416 -0.96,-0.624 -1.696,-0.624 -0.832,0 -1.488,0.245 -1.968,0.736 -0.48,0.48 -0.72,1.173 -0.72,2.08 V 243 h -1.536 v -11.872 h 1.536 v 4.592 c 0.32,-0.405 0.736,-0.72 1.248,-0.944 0.522,-0.224 1.104,-0.336 1.744,-0.336 z m 14.073,4.368 c 0,0.117 -0.01,0.272 -0.032,0.464 h -6.88 c 0.096,0.747 0.422,1.349 0.976,1.808 0.566,0.448 1.264,0.672 2.096,0.672 1.014,0 1.83,-0.341 2.448,-1.024 l 0.848,0.992 c -0.384,0.448 -0.864,0.789 -1.44,1.024 -0.565,0.235 -1.2,0.352 -1.904,0.352 -0.896,0 -1.69,-0.181 -2.384,-0.544 -0.693,-0.373 -1.232,-0.891 -1.616,-1.552 -0.373,-0.661 -0.56,-1.408 -0.56,-2.24 0,-0.821 0.182,-1.563 0.544,-2.224 0.374,-0.661 0.88,-1.173 1.52,-1.536 0.651,-0.373 1.382,-0.56 2.192,-0.56 0.811,0 1.531,0.187 2.16,0.56 0.64,0.363 1.136,0.875 1.488,1.536 0.363,0.661 0.544,1.419 0.544,2.272 z m -4.192,-3.072 c -0.736,0 -1.354,0.224 -1.856,0.672 -0.49,0.448 -0.778,1.035 -0.864,1.76 h 5.44 c -0.085,-0.715 -0.378,-1.296 -0.88,-1.744 -0.49,-0.459 -1.104,-0.688 -1.84,-0.688 z m 7.797,0.208 c 0.267,-0.491 0.662,-0.864 1.184,-1.12 0.523,-0.256 1.158,-0.384 1.904,-0.384 v 1.488 c -0.085,-0.011 -0.202,-0.016 -0.352,-0.016 -0.832,0 -1.488,0.251 -1.968,0.752 -0.469,0.491 -0.704,1.195 -0.704,2.112 V 243 h -1.536 v -8.48 h 1.472 z m 12.567,2.864 c 0,0.117 -0.01,0.272 -0.032,0.464 h -6.88 c 0.096,0.747 0.422,1.349 0.976,1.808 0.566,0.448 1.264,0.672 2.096,0.672 1.014,0 1.83,-0.341 2.448,-1.024 l 0.848,0.992 c -0.384,0.448 -0.864,0.789 -1.44,1.024 -0.565,0.235 -1.2,0.352 -1.904,0.352 -0.896,0 -1.69,-0.181 -2.384,-0.544 -0.693,-0.373 -1.232,-0.891 -1.616,-1.552 -0.373,-0.661 -0.56,-1.408 -0.56,-2.24 0,-0.821 0.182,-1.563 0.544,-2.224 0.374,-0.661 0.88,-1.173 1.52,-1.536 0.651,-0.373 1.382,-0.56 2.192,-0.56 0.811,0 1.531,0.187 2.16,0.56 0.64,0.363 1.136,0.875 1.488,1.536 0.363,0.661 0.544,1.419 0.544,2.272 z m -4.192,-3.072 c -0.736,0 -1.354,0.224 -1.856,0.672 -0.49,0.448 -0.778,1.035 -0.864,1.76 h 5.44 c -0.085,-0.715 -0.378,-1.296 -0.88,-1.744 -0.49,-0.459 -1.104,-0.688 -1.84,-0.688 z m 14.325,-4.608 V 243 h -1.472 v -1.344 c -0.341,0.469 -0.773,0.827 -1.296,1.072 -0.523,0.245 -1.099,0.368 -1.728,0.368 -0.821,0 -1.557,-0.181 -2.208,-0.544 -0.651,-0.363 -1.163,-0.869 -1.536,-1.52 -0.363,-0.661 -0.544,-1.419 -0.544,-2.272 0,-0.853 0.181,-1.605 0.544,-2.256 0.373,-0.651 0.885,-1.157 1.536,-1.52 0.651,-0.363 1.387,-0.544 2.208,-0.544 0.608,0 1.168,0.117 1.68,0.352 0.512,0.224 0.939,0.56 1.28,1.008 v -4.672 z m -4.368,10.624 c 0.533,0 1.019,-0.123 1.456,-0.368 0.437,-0.256 0.779,-0.608 1.024,-1.056 0.245,-0.459 0.368,-0.981 0.368,-1.568 0,-0.587 -0.123,-1.104 -0.368,-1.552 -0.245,-0.459 -0.587,-0.811 -1.024,-1.056 -0.437,-0.245 -0.923,-0.368 -1.456,-0.368 -0.544,0 -1.035,0.123 -1.472,0.368 -0.427,0.245 -0.768,0.597 -1.024,1.056 -0.245,0.448 -0.368,0.965 -0.368,1.552 0,0.587 0.123,1.109 0.368,1.568 0.256,0.448 0.597,0.8 1.024,1.056 0.437,0.245 0.928,0.368 1.472,0.368 z"
   fill="#6984ae"
   id="path2364" />
      <path
   d="m 208.001,147.128 c -1.12,0 -2.134,-0.245 -3.04,-0.736 -0.896,-0.501 -1.6,-1.184 -2.112,-2.048 -0.512,-0.875 -0.768,-1.856 -0.768,-2.944 0,-1.088 0.256,-2.064 0.768,-2.928 0.512,-0.875 1.221,-1.557 2.128,-2.048 0.906,-0.501 1.92,-0.752 3.04,-0.752 0.874,0 1.674,0.149 2.4,0.448 0.725,0.288 1.344,0.72 1.856,1.296 l -1.04,1.008 c -0.843,-0.885 -1.894,-1.328 -3.152,-1.328 -0.832,0 -1.584,0.187 -2.256,0.56 -0.672,0.373 -1.2,0.891 -1.584,1.552 -0.374,0.651 -0.56,1.381 -0.56,2.192 0,0.811 0.186,1.547 0.56,2.208 0.384,0.651 0.912,1.163 1.584,1.536 0.672,0.373 1.424,0.56 2.256,0.56 1.248,0 2.298,-0.448 3.152,-1.344 l 1.04,1.008 c -0.512,0.576 -1.136,1.013 -1.872,1.312 -0.726,0.299 -1.526,0.448 -2.4,0.448 z m 9.603,-0.032 c -0.843,0 -1.6,-0.187 -2.272,-0.56 -0.672,-0.373 -1.2,-0.885 -1.584,-1.536 -0.374,-0.661 -0.56,-1.408 -0.56,-2.24 0,-0.832 0.186,-1.573 0.56,-2.224 0.384,-0.661 0.912,-1.173 1.584,-1.536 0.672,-0.373 1.429,-0.56 2.272,-0.56 0.842,0 1.594,0.187 2.256,0.56 0.672,0.363 1.194,0.875 1.568,1.536 0.384,0.651 0.576,1.392 0.576,2.224 0,0.832 -0.192,1.579 -0.576,2.24 -0.374,0.651 -0.896,1.163 -1.568,1.536 -0.662,0.373 -1.414,0.56 -2.256,0.56 z m 0,-1.344 c 0.544,0 1.029,-0.123 1.456,-0.368 0.437,-0.256 0.778,-0.608 1.024,-1.056 0.245,-0.459 0.368,-0.981 0.368,-1.568 0,-0.587 -0.123,-1.104 -0.368,-1.552 -0.246,-0.459 -0.587,-0.811 -1.024,-1.056 -0.427,-0.245 -0.912,-0.368 -1.456,-0.368 -0.544,0 -1.035,0.123 -1.472,0.368 -0.427,0.245 -0.768,0.597 -1.024,1.056 -0.246,0.448 -0.368,0.965 -0.368,1.552 0,0.587 0.122,1.109 0.368,1.568 0.256,0.448 0.597,0.8 1.024,1.056 0.437,0.245 0.928,0.368 1.472,0.368 z m 13.794,-7.232 -3.712,8.48 h -1.568 l -3.713,-8.48 h 1.601 l 2.912,6.8 2.976,-6.8 z m 1.433,0 h 1.536 V 147 h -1.536 z m 0.768,-1.632 c -0.299,0 -0.549,-0.096 -0.752,-0.288 -0.192,-0.192 -0.288,-0.427 -0.288,-0.704 0,-0.277 0.096,-0.512 0.288,-0.704 0.203,-0.203 0.453,-0.304 0.752,-0.304 0.299,0 0.544,0.096 0.736,0.288 0.203,0.181 0.304,0.411 0.304,0.688 0,0.288 -0.101,0.533 -0.304,0.736 -0.192,0.192 -0.437,0.288 -0.736,0.288 z m 11.701,-1.76 V 147 h -1.472 v -1.344 c -0.342,0.469 -0.774,0.827 -1.296,1.072 -0.523,0.245 -1.099,0.368 -1.728,0.368 -0.822,0 -1.558,-0.181 -2.208,-0.544 -0.651,-0.363 -1.163,-0.869 -1.536,-1.52 -0.363,-0.661 -0.544,-1.419 -0.544,-2.272 0,-0.853 0.181,-1.605 0.544,-2.256 0.373,-0.651 0.885,-1.157 1.536,-1.52 0.65,-0.363 1.386,-0.544 2.208,-0.544 0.608,0 1.168,0.117 1.68,0.352 0.512,0.224 0.938,0.56 1.28,1.008 v -4.672 z m -4.368,10.624 c 0.533,0 1.018,-0.123 1.456,-0.368 0.437,-0.256 0.778,-0.608 1.024,-1.056 0.245,-0.459 0.368,-0.981 0.368,-1.568 0,-0.587 -0.123,-1.104 -0.368,-1.552 -0.246,-0.459 -0.587,-0.811 -1.024,-1.056 -0.438,-0.245 -0.923,-0.368 -1.456,-0.368 -0.544,0 -1.035,0.123 -1.472,0.368 -0.427,0.245 -0.768,0.597 -1.024,1.056 -0.246,0.448 -0.368,0.965 -0.368,1.552 0,0.587 0.122,1.109 0.368,1.568 0.256,0.448 0.597,0.8 1.024,1.056 0.437,0.245 0.928,0.368 1.472,0.368 z m 22.179,-7.312 c 1.067,0 1.909,0.309 2.528,0.928 0.629,0.619 0.944,1.536 0.944,2.752 V 147 h -1.536 v -4.704 c 0,-0.821 -0.192,-1.44 -0.576,-1.856 -0.373,-0.416 -0.912,-0.624 -1.616,-0.624 -0.779,0 -1.397,0.245 -1.856,0.736 -0.459,0.48 -0.688,1.173 -0.688,2.08 V 147 h -1.536 v -4.704 c 0,-0.821 -0.192,-1.44 -0.576,-1.856 -0.373,-0.416 -0.912,-0.624 -1.616,-0.624 -0.779,0 -1.397,0.245 -1.856,0.736 -0.459,0.48 -0.688,1.173 -0.688,2.08 V 147 h -1.536 v -8.48 h 1.472 v 1.264 c 0.309,-0.437 0.715,-0.768 1.216,-0.992 0.501,-0.235 1.072,-0.352 1.712,-0.352 0.661,0 1.248,0.133 1.76,0.4 0.512,0.267 0.907,0.656 1.184,1.168 0.32,-0.491 0.763,-0.875 1.328,-1.152 0.576,-0.277 1.221,-0.416 1.936,-0.416 z m 13.646,0.08 -4.112,9.328 c -0.363,0.864 -0.789,1.472 -1.28,1.824 -0.48,0.352 -1.061,0.528 -1.744,0.528 -0.416,0 -0.821,-0.069 -1.216,-0.208 -0.384,-0.128 -0.704,-0.32 -0.96,-0.576 l 0.656,-1.152 c 0.437,0.416 0.944,0.624 1.52,0.624 0.373,0 0.683,-0.101 0.928,-0.304 0.256,-0.192 0.485,-0.528 0.688,-1.008 l 0.272,-0.592 -3.744,-8.464 h 1.6 l 2.96,6.784 2.928,-6.784 z m 6.436,7.984 c -0.224,0.192 -0.502,0.341 -0.832,0.448 -0.331,0.096 -0.672,0.144 -1.024,0.144 -0.854,0 -1.515,-0.229 -1.984,-0.688 -0.47,-0.459 -0.704,-1.115 -0.704,-1.968 v -4.656 h -1.44 v -1.264 h 1.44 v -1.856 h 1.536 v 1.856 h 2.432 v 1.264 h -2.432 v 4.592 c 0,0.459 0.112,0.811 0.336,1.056 0.234,0.245 0.565,0.368 0.992,0.368 0.469,0 0.869,-0.133 1.2,-0.4 z m 6.385,-8.064 c 1.077,0 1.93,0.315 2.56,0.944 0.64,0.619 0.96,1.531 0.96,2.736 V 147 h -1.536 v -4.704 c 0,-0.821 -0.198,-1.44 -0.592,-1.856 -0.395,-0.416 -0.96,-0.624 -1.696,-0.624 -0.832,0 -1.488,0.245 -1.968,0.736 -0.48,0.48 -0.72,1.173 -0.72,2.08 V 147 h -1.536 v -11.872 h 1.536 v 4.592 c 0.32,-0.405 0.736,-0.72 1.248,-0.944 0.522,-0.224 1.104,-0.336 1.744,-0.336 z m 15.155,0 c 0.822,0 1.558,0.181 2.208,0.544 0.651,0.363 1.158,0.869 1.52,1.52 0.374,0.651 0.56,1.403 0.56,2.256 0,0.853 -0.186,1.611 -0.56,2.272 -0.362,0.651 -0.869,1.157 -1.52,1.52 -0.65,0.363 -1.386,0.544 -2.208,0.544 -0.629,0 -1.205,-0.123 -1.728,-0.368 -0.522,-0.245 -0.954,-0.603 -1.296,-1.072 V 147 h -1.472 v -11.872 h 1.536 v 4.672 c 0.342,-0.448 0.768,-0.784 1.28,-1.008 0.512,-0.235 1.072,-0.352 1.68,-0.352 z m -0.128,7.312 c 0.544,0 1.03,-0.123 1.456,-0.368 0.438,-0.256 0.779,-0.608 1.024,-1.056 0.256,-0.459 0.384,-0.981 0.384,-1.568 0,-0.587 -0.128,-1.104 -0.384,-1.552 -0.245,-0.459 -0.586,-0.811 -1.024,-1.056 -0.426,-0.245 -0.912,-0.368 -1.456,-0.368 -0.533,0 -1.018,0.123 -1.456,0.368 -0.437,0.245 -0.778,0.597 -1.024,1.056 -0.245,0.448 -0.368,0.965 -0.368,1.552 0,0.587 0.123,1.109 0.368,1.568 0.246,0.448 0.587,0.8 1.024,1.056 0.438,0.245 0.923,0.368 1.456,0.368 z m 14.443,-7.232 V 147 h -1.456 v -1.28 c -0.31,0.437 -0.72,0.779 -1.232,1.024 -0.502,0.235 -1.051,0.352 -1.648,0.352 -1.131,0 -2.022,-0.309 -2.673,-0.928 -0.65,-0.629 -0.975,-1.552 -0.975,-2.768 v -4.88 h 1.536 v 4.704 c 0,0.821 0.197,1.445 0.592,1.872 0.394,0.416 0.96,0.624 1.696,0.624 0.81,0 1.45,-0.245 1.92,-0.736 0.469,-0.491 0.704,-1.184 0.704,-2.08 v -4.384 z m 5.356,8.576 c -0.694,0 -1.36,-0.091 -2,-0.272 -0.64,-0.192 -1.142,-0.432 -1.504,-0.72 l 0.64,-1.216 c 0.373,0.267 0.826,0.48 1.36,0.64 0.533,0.16 1.072,0.24 1.616,0.24 1.344,0 2.016,-0.384 2.016,-1.152 0,-0.256 -0.091,-0.459 -0.272,-0.608 -0.182,-0.149 -0.411,-0.256 -0.688,-0.32 -0.267,-0.075 -0.651,-0.155 -1.152,-0.24 -0.683,-0.107 -1.243,-0.229 -1.68,-0.368 -0.427,-0.139 -0.795,-0.373 -1.104,-0.704 -0.31,-0.331 -0.464,-0.795 -0.464,-1.392 0,-0.768 0.32,-1.381 0.96,-1.84 0.64,-0.469 1.498,-0.704 2.576,-0.704 0.565,0 1.13,0.069 1.696,0.208 0.565,0.139 1.029,0.325 1.392,0.56 l -0.656,1.216 c -0.694,-0.448 -1.51,-0.672 -2.448,-0.672 -0.651,0 -1.147,0.107 -1.488,0.32 -0.342,0.213 -0.512,0.496 -0.512,0.848 0,0.277 0.096,0.496 0.288,0.656 0.192,0.16 0.426,0.277 0.704,0.352 0.288,0.075 0.688,0.16 1.2,0.256 0.682,0.117 1.232,0.245 1.648,0.384 0.426,0.128 0.789,0.352 1.088,0.672 0.298,0.32 0.448,0.768 0.448,1.344 0,0.768 -0.331,1.381 -0.992,1.84 -0.651,0.448 -1.542,0.672 -2.672,0.672 z m 10.351,-0.592 c -0.224,0.192 -0.501,0.341 -0.832,0.448 -0.33,0.096 -0.672,0.144 -1.024,0.144 -0.853,0 -1.514,-0.229 -1.984,-0.688 -0.469,-0.459 -0.704,-1.115 -0.704,-1.968 v -4.656 h -1.44 v -1.264 h 1.44 v -1.856 h 1.536 v 1.856 h 2.432 v 1.264 h -2.432 v 4.592 c 0,0.459 0.112,0.811 0.336,1.056 0.235,0.245 0.566,0.368 0.992,0.368 0.47,0 0.87,-0.133 1.2,-0.4 z m 1.857,-7.984 h 1.536 V 147 h -1.536 z m 0.768,-1.632 c -0.298,0 -0.549,-0.096 -0.752,-0.288 -0.192,-0.192 -0.288,-0.427 -0.288,-0.704 0,-0.277 0.096,-0.512 0.288,-0.704 0.203,-0.203 0.454,-0.304 0.752,-0.304 0.299,0 0.544,0.096 0.736,0.288 0.203,0.181 0.304,0.411 0.304,0.688 0,0.288 -0.101,0.533 -0.304,0.736 -0.192,0.192 -0.437,0.288 -0.736,0.288 z m 8.229,1.552 c 1.077,0 1.931,0.315 2.56,0.944 0.64,0.619 0.96,1.531 0.96,2.736 V 147 h -1.536 v -4.704 c 0,-0.821 -0.197,-1.44 -0.592,-1.856 -0.395,-0.416 -0.96,-0.624 -1.696,-0.624 -0.832,0 -1.488,0.245 -1.968,0.736 -0.48,0.48 -0.72,1.173 -0.72,2.08 V 147 h -1.536 v -8.48 h 1.472 v 1.28 c 0.309,-0.437 0.725,-0.773 1.248,-1.008 0.533,-0.235 1.136,-0.352 1.808,-0.352 z m 14.522,0.08 v 7.328 c 0,1.483 -0.368,2.576 -1.104,3.28 -0.736,0.715 -1.835,1.072 -3.296,1.072 -0.8,0 -1.563,-0.112 -2.288,-0.336 -0.726,-0.213 -1.312,-0.523 -1.76,-0.928 l 0.736,-1.184 c 0.394,0.341 0.88,0.608 1.456,0.8 0.586,0.203 1.189,0.304 1.808,0.304 0.992,0 1.722,-0.235 2.192,-0.704 0.48,-0.469 0.72,-1.184 0.72,-2.144 v -0.672 c -0.363,0.437 -0.811,0.768 -1.344,0.992 -0.523,0.213 -1.094,0.32 -1.712,0.32 -0.811,0 -1.547,-0.171 -2.208,-0.512 -0.651,-0.352 -1.163,-0.837 -1.536,-1.456 -0.374,-0.629 -0.56,-1.344 -0.56,-2.144 0,-0.8 0.186,-1.509 0.56,-2.128 0.373,-0.629 0.885,-1.115 1.536,-1.456 0.661,-0.341 1.397,-0.512 2.208,-0.512 0.64,0 1.232,0.117 1.776,0.352 0.554,0.235 1.008,0.581 1.36,1.04 v -1.312 z m -4.416,6.784 c 0.554,0 1.05,-0.117 1.488,-0.352 0.448,-0.235 0.794,-0.56 1.04,-0.976 0.256,-0.427 0.384,-0.907 0.384,-1.44 0,-0.821 -0.272,-1.483 -0.816,-1.984 -0.544,-0.512 -1.243,-0.768 -2.096,-0.768 -0.864,0 -1.568,0.256 -2.112,0.768 -0.544,0.501 -0.816,1.163 -0.816,1.984 0,0.533 0.122,1.013 0.368,1.44 0.256,0.416 0.602,0.741 1.04,0.976 0.448,0.235 0.954,0.352 1.52,0.352 z m -223.38,17.216 -3.712,8.48 h -1.568 l -3.712,-8.48 h 1.6 l 2.912,6.8 2.976,-6.8 z m 1.434,0 h 1.536 V 171 h -1.536 z m 0.768,-1.632 c -0.299,0 -0.55,-0.096 -0.752,-0.288 -0.192,-0.192 -0.288,-0.427 -0.288,-0.704 0,-0.277 0.096,-0.512 0.288,-0.704 0.202,-0.203 0.453,-0.304 0.752,-0.304 0.298,0 0.544,0.096 0.736,0.288 0.202,0.181 0.304,0.411 0.304,0.688 0,0.288 -0.102,0.533 -0.304,0.736 -0.192,0.192 -0.438,0.288 -0.736,0.288 z m 11.7,-1.76 V 171 h -1.472 v -1.344 c -0.341,0.469 -0.773,0.827 -1.296,1.072 -0.522,0.245 -1.098,0.368 -1.728,0.368 -0.821,0 -1.557,-0.181 -2.208,-0.544 -0.65,-0.363 -1.162,-0.869 -1.536,-1.52 -0.362,-0.661 -0.544,-1.419 -0.544,-2.272 0,-0.853 0.182,-1.605 0.544,-2.256 0.374,-0.651 0.886,-1.157 1.536,-1.52 0.651,-0.363 1.387,-0.544 2.208,-0.544 0.608,0 1.168,0.117 1.68,0.352 0.512,0.224 0.939,0.56 1.28,1.008 v -4.672 z m -4.368,10.624 c 0.534,0 1.019,-0.123 1.456,-0.368 0.438,-0.256 0.779,-0.608 1.024,-1.056 0.246,-0.459 0.368,-0.981 0.368,-1.568 0,-0.587 -0.122,-1.104 -0.368,-1.552 -0.245,-0.459 -0.586,-0.811 -1.024,-1.056 -0.437,-0.245 -0.922,-0.368 -1.456,-0.368 -0.544,0 -1.034,0.123 -1.472,0.368 -0.426,0.245 -0.768,0.597 -1.024,1.056 -0.245,0.448 -0.368,0.965 -0.368,1.552 0,0.587 0.123,1.109 0.368,1.568 0.256,0.448 0.598,0.8 1.024,1.056 0.438,0.245 0.928,0.368 1.472,0.368 z m 14.939,-2.944 c 0,0.117 -0.011,0.272 -0.032,0.464 h -6.88 c 0.096,0.747 0.421,1.349 0.976,1.808 0.565,0.448 1.264,0.672 2.096,0.672 1.013,0 1.829,-0.341 2.448,-1.024 l 0.848,0.992 c -0.384,0.448 -0.864,0.789 -1.44,1.024 -0.566,0.235 -1.2,0.352 -1.904,0.352 -0.896,0 -1.691,-0.181 -2.384,-0.544 -0.694,-0.373 -1.232,-0.891 -1.616,-1.552 -0.374,-0.661 -0.56,-1.408 -0.56,-2.24 0,-0.821 0.181,-1.563 0.544,-2.224 0.373,-0.661 0.88,-1.173 1.52,-1.536 0.65,-0.373 1.381,-0.56 2.192,-0.56 0.81,0 1.53,0.187 2.16,0.56 0.64,0.363 1.136,0.875 1.488,1.536 0.362,0.661 0.544,1.419 0.544,2.272 z m -4.192,-3.072 c -0.736,0 -1.355,0.224 -1.856,0.672 -0.491,0.448 -0.779,1.035 -0.864,1.76 h 5.44 c -0.086,-0.715 -0.379,-1.296 -0.88,-1.744 -0.491,-0.459 -1.104,-0.688 -1.84,-0.688 z m 9.956,7.36 c -0.842,0 -1.6,-0.187 -2.272,-0.56 -0.672,-0.373 -1.2,-0.885 -1.584,-1.536 -0.373,-0.661 -0.56,-1.408 -0.56,-2.24 0,-0.832 0.187,-1.573 0.56,-2.224 0.384,-0.661 0.912,-1.173 1.584,-1.536 0.672,-0.373 1.43,-0.56 2.272,-0.56 0.843,0 1.595,0.187 2.256,0.56 0.672,0.363 1.195,0.875 1.568,1.536 0.384,0.651 0.576,1.392 0.576,2.224 0,0.832 -0.192,1.579 -0.576,2.24 -0.373,0.651 -0.896,1.163 -1.568,1.536 -0.661,0.373 -1.413,0.56 -2.256,0.56 z m 0,-1.344 c 0.544,0 1.03,-0.123 1.456,-0.368 0.438,-0.256 0.779,-0.608 1.024,-1.056 0.246,-0.459 0.368,-0.981 0.368,-1.568 0,-0.587 -0.122,-1.104 -0.368,-1.552 -0.245,-0.459 -0.586,-0.811 -1.024,-1.056 -0.426,-0.245 -0.912,-0.368 -1.456,-0.368 -0.544,0 -1.034,0.123 -1.472,0.368 -0.426,0.245 -0.768,0.597 -1.024,1.056 -0.245,0.448 -0.368,0.965 -0.368,1.552 0,0.587 0.123,1.109 0.368,1.568 0.256,0.448 0.598,0.8 1.024,1.056 0.438,0.245 0.928,0.368 1.472,0.368 z m 8.957,1.344 c -0.694,0 -1.36,-0.091 -2,-0.272 -0.64,-0.192 -1.142,-0.432 -1.504,-0.72 l 0.64,-1.216 c 0.373,0.267 0.826,0.48 1.36,0.64 0.533,0.16 1.072,0.24 1.616,0.24 1.344,0 2.016,-0.384 2.016,-1.152 0,-0.256 -0.091,-0.459 -0.272,-0.608 -0.182,-0.149 -0.411,-0.256 -0.688,-0.32 -0.267,-0.075 -0.651,-0.155 -1.152,-0.24 -0.683,-0.107 -1.243,-0.229 -1.68,-0.368 -0.427,-0.139 -0.795,-0.373 -1.104,-0.704 -0.31,-0.331 -0.464,-0.795 -0.464,-1.392 0,-0.768 0.32,-1.381 0.96,-1.84 0.64,-0.469 1.498,-0.704 2.576,-0.704 0.565,0 1.13,0.069 1.696,0.208 0.565,0.139 1.029,0.325 1.392,0.56 l -0.656,1.216 c -0.694,-0.448 -1.51,-0.672 -2.448,-0.672 -0.651,0 -1.147,0.107 -1.488,0.32 -0.342,0.213 -0.512,0.496 -0.512,0.848 0,0.277 0.096,0.496 0.288,0.656 0.192,0.16 0.426,0.277 0.704,0.352 0.288,0.075 0.688,0.16 1.2,0.256 0.682,0.117 1.232,0.245 1.648,0.384 0.426,0.128 0.789,0.352 1.088,0.672 0.298,0.32 0.448,0.768 0.448,1.344 0,0.768 -0.331,1.381 -0.992,1.84 -0.651,0.448 -1.542,0.672 -2.672,0.672 z"
   fill="#5095ff"
   id="path2366" />
      <path
   d="m 201.312,148.6 h 160.291 v 0.8 H 201.312 Z m -77.937,24 h 52.282 v 0.8 h -52.282 z"
   fill="#5095ff"
   id="path2368" />
      <path
   d="m 175.656,172.6 h 4.304 v 0.8 h -4.304 z"
   fill="#6984ae"
   id="path2370" />
    </g>
    <path  class="topic_text"
   style="stroke-width:0.999326"
   id="How can I find more information on Covid-19?"
   d="m 113.897,137.9972 v 11.18485 h -2.592 v -4.58578 h -5.088 v 4.58578 h -2.592 V 137.9972 h 2.592 v 4.41003 h 5.088 v -4.41003 z m 6.57,11.31267 c -0.907,0 -1.723,-0.18644 -2.448,-0.55924 -0.715,-0.38348 -1.275,-0.91077 -1.68,-1.58186 -0.406,-0.67109 -0.608,-1.43275 -0.608,-2.28489 0,-0.85216 0.202,-1.61382 0.608,-2.28491 0.405,-0.6711 0.965,-1.19307 1.68,-1.56588 0.725,-0.38348 1.541,-0.57522 2.448,-0.57522 0.906,0 1.717,0.19174 2.432,0.57522 0.714,0.37281 1.274,0.89478 1.68,1.56588 0.405,0.67109 0.608,1.43275 0.608,2.28491 0,0.85214 -0.203,1.6138 -0.608,2.28489 -0.406,0.67109 -0.966,1.19838 -1.68,1.58186 -0.715,0.3728 -1.526,0.55924 -2.432,0.55924 z m 0,-2.04523 c 0.64,0 1.162,-0.21301 1.568,-0.63913 0.416,-0.43672 0.624,-1.01732 0.624,-1.74163 0,-0.72433 -0.208,-1.29954 -0.624,-1.72568 -0.406,-0.43669 -0.928,-0.6551 -1.568,-0.6551 -0.64,0 -1.168,0.21841 -1.584,0.6551 -0.416,0.42614 -0.624,1.00135 -0.624,1.72568 0,0.72431 0.208,1.30491 0.624,1.74163 0.416,0.42612 0.944,0.63913 1.584,0.63913 z m 19.978,-6.67894 -3.12,8.59635 h -2.4 l -1.936,-5.33678 -2,5.33678 h -2.4 l -3.104,-8.59635 h 2.352 l 2.032,5.81612 2.112,-5.81612 h 2.112 l 2.048,5.81612 2.096,-5.81612 z m 9.851,8.72417 c -0.917,0 -1.744,-0.18644 -2.48,-0.55924 -0.725,-0.38348 -1.296,-0.91077 -1.712,-1.58186 -0.405,-0.67109 -0.608,-1.43275 -0.608,-2.28489 0,-0.85216 0.203,-1.61382 0.608,-2.28491 0.416,-0.6711 0.987,-1.19307 1.712,-1.56588 0.736,-0.38348 1.563,-0.57522 2.48,-0.57522 0.907,0 1.696,0.19174 2.368,0.57522 0.683,0.37281 1.179,0.91076 1.488,1.61381 l -1.936,1.03859 c -0.448,-0.78823 -1.093,-1.18239 -1.936,-1.18239 -0.65,0 -1.189,0.21301 -1.616,0.63913 -0.426,0.42612 -0.64,1.00664 -0.64,1.74165 0,0.735 0.214,1.31551 0.64,1.74163 0.427,0.42612 0.966,0.63913 1.616,0.63913 0.854,0 1.499,-0.39416 1.936,-1.18239 l 1.936,1.05457 c -0.309,0.68177 -0.805,1.21434 -1.488,1.59784 -0.672,0.38347 -1.461,0.57521 -2.368,0.57521 z m 8.766,-8.852 c 1.333,0 2.357,0.31956 3.072,0.9587 0.714,0.62846 1.072,1.58185 1.072,2.86012 v 4.90536 h -2.336 v -1.07055 c -0.47,0.79892 -1.344,1.19837 -2.624,1.19837 -0.662,0 -1.238,-0.11183 -1.728,-0.33554 -0.48,-0.2237 -0.848,-0.53258 -1.104,-0.92675 -0.256,-0.39416 -0.384,-0.84155 -0.384,-1.34217 0,-0.79893 0.298,-1.42737 0.896,-1.88546 0.608,-0.45807 1.541,-0.68706 2.8,-0.68706 h 1.984 c 0,-0.54327 -0.166,-0.9587 -0.496,-1.24632 -0.331,-0.29829 -0.827,-0.44738 -1.488,-0.44738 -0.459,0 -0.912,0.0746 -1.36,0.22369 -0.438,0.13851 -0.811,0.33025 -1.12,0.57522 l -0.896,-1.74164 c 0.469,-0.33024 1.029,-0.5859 1.68,-0.76695 0.661,-0.18107 1.338,-0.27164 2.032,-0.27164 z m -0.192,7.17428 c 0.426,0 0.805,-0.0959 1.136,-0.28761 0.33,-0.20243 0.565,-0.49532 0.704,-0.87881 v -0.87881 h -1.712 c -1.024,0 -1.536,0.33555 -1.536,1.00663 0,0.31958 0.122,0.57522 0.368,0.76697 0.256,0.18105 0.602,0.27163 1.04,0.27163 z m 11.827,-7.17428 c 1.066,0 1.925,0.31956 2.576,0.9587 0.661,0.63914 0.992,1.58714 0.992,2.84415 v 4.92133 h -2.496 v -4.53785 c 0,-0.68177 -0.15,-1.18769 -0.448,-1.51794 -0.299,-0.34084 -0.731,-0.51132 -1.296,-0.51132 -0.63,0 -1.131,0.19703 -1.504,0.5912 -0.374,0.38348 -0.56,0.9587 -0.56,1.72566 v 4.25025 h -2.496 v -8.59635 h 2.384 v 1.00664 c 0.33,-0.36222 0.741,-0.63913 1.232,-0.83088 0.49,-0.20244 1.029,-0.30359 1.616,-0.30359 z m 10.537,-2.46067 h 2.592 v 11.18485 h -2.592 z m 12.342,2.78023 h 2.208 v 1.91741 h -2.144 v 6.48721 h -2.496 v -6.48721 h -1.328 v -1.91741 h 1.328 v -0.38347 c 0,-0.97998 0.288,-1.75763 0.864,-2.33283 0.586,-0.57523 1.408,-0.86284 2.464,-0.86284 0.373,0 0.725,0.0426 1.056,0.12782 0.341,0.0746 0.624,0.18645 0.848,0.33556 l -0.656,1.80553 c -0.288,-0.20241 -0.624,-0.30358 -1.008,-0.30358 -0.758,0 -1.136,0.41544 -1.136,1.24633 z m 4.732,-0.19173 h 2.496 v 8.59635 h -2.496 z m 1.248,-1.19838 c -0.458,0 -0.832,-0.13312 -1.12,-0.39945 -0.288,-0.26635 -0.432,-0.5965 -0.432,-0.99067 0,-0.39416 0.144,-0.7243 0.432,-0.99066 0.288,-0.26633 0.662,-0.39945 1.12,-0.39945 0.459,0 0.832,0.12783 1.12,0.38347 0.288,0.25566 0.432,0.57524 0.432,0.9587 0,0.41546 -0.144,0.76167 -0.432,1.03861 -0.288,0.26633 -0.661,0.39945 -1.12,0.39945 z m 8.797,1.07055 c 1.066,0 1.925,0.31956 2.576,0.9587 0.661,0.63914 0.992,1.58714 0.992,2.84415 v 4.92133 h -2.496 v -4.53785 c 0,-0.68177 -0.15,-1.18769 -0.448,-1.51794 -0.299,-0.34084 -0.731,-0.51132 -1.296,-0.51132 -0.63,0 -1.131,0.19703 -1.504,0.5912 -0.374,0.38348 -0.56,0.9587 -0.56,1.72566 v 4.25025 h -2.496 v -8.59635 h 2.384 v 1.00664 c 0.33,-0.36222 0.741,-0.63913 1.232,-0.83088 0.49,-0.20244 1.029,-0.30359 1.616,-0.30359 z m 14.692,-3.13176 v 11.85594 h -2.384 v -0.99066 c -0.619,0.74569 -1.515,1.11848 -2.688,1.11848 -0.811,0 -1.547,-0.18105 -2.208,-0.54325 -0.651,-0.36222 -1.163,-0.87881 -1.536,-1.54991 -0.373,-0.6711 -0.56,-1.44874 -0.56,-2.33283 0,-0.88411 0.187,-1.66176 0.56,-2.33285 0.373,-0.67109 0.885,-1.18769 1.536,-1.54989 0.661,-0.36221 1.397,-0.54327 2.208,-0.54327 1.099,0 1.957,0.34624 2.576,1.03859 v -4.17035 z m -4.64,9.93853 c 0.629,0 1.152,-0.21301 1.568,-0.63913 0.416,-0.43672 0.624,-1.01732 0.624,-1.74163 0,-0.72433 -0.208,-1.29954 -0.624,-1.72568 -0.416,-0.43669 -0.939,-0.6551 -1.568,-0.6551 -0.64,0 -1.168,0.21841 -1.584,0.6551 -0.416,0.42614 -0.624,1.00135 -0.624,1.72568 0,0.72431 0.208,1.30491 0.624,1.74163 0.416,0.42612 0.944,0.63913 1.584,0.63913 z m 22.505,-6.80677 c 1.078,0 1.931,0.31956 2.56,0.9587 0.64,0.62846 0.96,1.57656 0.96,2.84415 v 4.92133 h -2.496 v -4.53785 c 0,-0.68177 -0.144,-1.18769 -0.432,-1.51794 -0.277,-0.34084 -0.677,-0.51132 -1.2,-0.51132 -0.586,0 -1.05,0.19174 -1.392,0.57523 -0.341,0.37279 -0.512,0.93204 -0.512,1.67772 v 4.31416 h -2.496 v -4.53785 c 0,-1.35287 -0.544,-2.02926 -1.632,-2.02926 -0.576,0 -1.034,0.19174 -1.376,0.57523 -0.341,0.37279 -0.512,0.93204 -0.512,1.67772 v 4.31416 h -2.496 v -8.59635 h 2.384 v 0.99065 c 0.32,-0.3622 0.71,-0.63913 1.168,-0.83088 0.47,-0.19173 0.982,-0.2876 1.536,-0.2876 0.608,0 1.158,0.12253 1.648,0.36751 0.491,0.23437 0.886,0.58052 1.184,1.03859 0.352,-0.4474 0.795,-0.79362 1.328,-1.03859 0.544,-0.24498 1.136,-0.36751 1.776,-0.36751 z m 9.947,8.852 c -0.906,0 -1.722,-0.18644 -2.448,-0.55924 -0.714,-0.38348 -1.274,-0.91077 -1.68,-1.58186 -0.405,-0.67109 -0.608,-1.43275 -0.608,-2.28489 0,-0.85216 0.203,-1.61382 0.608,-2.28491 0.406,-0.6711 0.966,-1.19307 1.68,-1.56588 0.726,-0.38348 1.542,-0.57522 2.448,-0.57522 0.907,0 1.718,0.19174 2.432,0.57522 0.715,0.37281 1.275,0.89478 1.68,1.56588 0.406,0.67109 0.608,1.43275 0.608,2.28491 0,0.85214 -0.202,1.6138 -0.608,2.28489 -0.405,0.67109 -0.965,1.19838 -1.68,1.58186 -0.714,0.3728 -1.525,0.55924 -2.432,0.55924 z m 0,-2.04523 c 0.64,0 1.163,-0.21301 1.568,-0.63913 0.416,-0.43672 0.624,-1.01732 0.624,-1.74163 0,-0.72433 -0.208,-1.29954 -0.624,-1.72568 -0.405,-0.43669 -0.928,-0.6551 -1.568,-0.6551 -0.64,0 -1.168,0.21841 -1.584,0.6551 -0.416,0.42614 -0.624,1.00135 -0.624,1.72568 0,0.72431 0.208,1.30491 0.624,1.74163 0.416,0.42612 0.944,0.63913 1.584,0.63913 z m 8.773,-5.54448 c 0.298,-0.41544 0.698,-0.72972 1.2,-0.94273 0.512,-0.213 1.098,-0.31956 1.76,-0.31956 v 2.30087 c -0.278,-0.0213 -0.464,-0.0319 -0.56,-0.0319 -0.715,0 -1.275,0.20242 -1.68,0.60718 -0.406,0.39416 -0.608,0.99065 -0.608,1.78957 v 4.0585 h -2.496 v -8.59635 h 2.384 z m 12.798,3.19566 c 0,0.0319 -0.016,0.25565 -0.048,0.6711 h -6.512 c 0.117,0.53258 0.394,0.9534 0.832,1.2623 0.437,0.30887 0.981,0.46336 1.632,0.46336 0.448,0 0.842,-0.0639 1.184,-0.19174 0.352,-0.13852 0.677,-0.35153 0.976,-0.63913 l 1.328,1.43804 c -0.811,0.92675 -1.995,1.39012 -3.552,1.39012 -0.971,0 -1.83,-0.18644 -2.576,-0.55924 -0.747,-0.38348 -1.323,-0.91077 -1.728,-1.58186 -0.406,-0.67109 -0.608,-1.43275 -0.608,-2.28489 0,-0.84157 0.197,-1.59784 0.592,-2.26894 0.405,-0.68178 0.954,-1.20904 1.648,-1.58185 0.704,-0.38348 1.488,-0.57522 2.352,-0.57522 0.842,0 1.605,0.18106 2.288,0.54327 0.682,0.3622 1.216,0.88409 1.6,1.56587 0.394,0.67109 0.592,1.45403 0.592,2.34881 z m -4.464,-2.5725 c -0.566,0 -1.04,0.15978 -1.424,0.47935 -0.384,0.31956 -0.619,0.75627 -0.704,1.31022 h 4.24 c -0.086,-0.54327 -0.32,-0.97469 -0.704,-1.29424 -0.384,-0.33026 -0.854,-0.49533 -1.408,-0.49533 z m 10.657,-1.75762 h 2.496 v 8.59635 h -2.496 z m 1.248,-1.19838 c -0.459,0 -0.832,-0.13312 -1.12,-0.39945 -0.288,-0.26635 -0.432,-0.5965 -0.432,-0.99067 0,-0.39416 0.144,-0.7243 0.432,-0.99066 0.288,-0.26633 0.661,-0.39945 1.12,-0.39945 0.458,0 0.832,0.12783 1.12,0.38347 0.288,0.25566 0.432,0.57524 0.432,0.9587 0,0.41546 -0.144,0.76167 -0.432,1.03861 -0.288,0.26633 -0.662,0.39945 -1.12,0.39945 z m 8.796,1.07055 c 1.067,0 1.926,0.31956 2.576,0.9587 0.662,0.63914 0.992,1.58714 0.992,2.84415 v 4.92133 h -2.496 v -4.53785 c 0,-0.68177 -0.149,-1.18769 -0.448,-1.51794 -0.298,-0.34084 -0.73,-0.51132 -1.296,-0.51132 -0.629,0 -1.13,0.19703 -1.504,0.5912 -0.373,0.38348 -0.56,0.9587 -0.56,1.72566 v 4.25025 h -2.496 v -8.59635 h 2.384 v 1.00664 c 0.331,-0.36222 0.742,-0.63913 1.232,-0.83088 0.491,-0.20244 1.03,-0.30359 1.616,-0.30359 z m 8.567,0.31956 h 2.208 v 1.91741 h -2.144 v 6.48721 H 294.8 v -6.48721 h -1.328 v -1.91741 h 1.328 v -0.38347 c 0,-0.97998 0.288,-1.75763 0.864,-2.33283 0.586,-0.57523 1.408,-0.86284 2.464,-0.86284 0.373,0 0.725,0.0426 1.056,0.12782 0.341,0.0746 0.624,0.18645 0.848,0.33556 l -0.656,1.80553 c -0.288,-0.20241 -0.624,-0.30358 -1.008,-0.30358 -0.758,0 -1.136,0.41544 -1.136,1.24633 z m 7.438,8.53244 c -0.907,0 -1.723,-0.18644 -2.448,-0.55924 -0.715,-0.38348 -1.275,-0.91077 -1.68,-1.58186 -0.405,-0.67109 -0.608,-1.43275 -0.608,-2.28489 0,-0.85216 0.203,-1.61382 0.608,-2.28491 0.405,-0.6711 0.965,-1.19307 1.68,-1.56588 0.725,-0.38348 1.541,-0.57522 2.448,-0.57522 0.907,0 1.717,0.19174 2.432,0.57522 0.715,0.37281 1.275,0.89478 1.68,1.56588 0.405,0.67109 0.608,1.43275 0.608,2.28491 0,0.85214 -0.203,1.6138 -0.608,2.28489 -0.405,0.67109 -0.965,1.19838 -1.68,1.58186 -0.715,0.3728 -1.525,0.55924 -2.432,0.55924 z m 0,-2.04523 c 0.64,0 1.163,-0.21301 1.568,-0.63913 0.416,-0.43672 0.624,-1.01732 0.624,-1.74163 0,-0.72433 -0.208,-1.29954 -0.624,-1.72568 -0.405,-0.43669 -0.928,-0.6551 -1.568,-0.6551 -0.64,0 -1.168,0.21841 -1.584,0.6551 -0.416,0.42614 -0.624,1.00135 -0.624,1.72568 0,0.72431 0.208,1.30491 0.624,1.74163 0.416,0.42612 0.944,0.63913 1.584,0.63913 z m 8.772,-5.54448 c 0.299,-0.41544 0.699,-0.72972 1.2,-0.94273 0.512,-0.213 1.099,-0.31956 1.76,-0.31956 v 2.30087 c -0.277,-0.0213 -0.464,-0.0319 -0.56,-0.0319 -0.714,0 -1.274,0.20242 -1.68,0.60718 -0.405,0.39416 -0.608,0.99065 -0.608,1.78957 v 4.0585 h -2.496 v -8.59635 h 2.384 z m 15.468,-1.26229 c 1.078,0 1.931,0.31956 2.56,0.9587 0.64,0.62846 0.96,1.57656 0.96,2.84415 v 4.92133 h -2.496 v -4.53785 c 0,-0.68177 -0.144,-1.18769 -0.432,-1.51794 -0.277,-0.34084 -0.677,-0.51132 -1.2,-0.51132 -0.586,0 -1.05,0.19174 -1.392,0.57523 -0.341,0.37279 -0.512,0.93204 -0.512,1.67772 v 4.31416 h -2.496 v -4.53785 c 0,-1.35287 -0.544,-2.02926 -1.632,-2.02926 -0.576,0 -1.034,0.19174 -1.376,0.57523 -0.341,0.37279 -0.512,0.93204 -0.512,1.67772 v 4.31416 h -2.496 v -8.59635 h 2.384 v 0.99065 c 0.32,-0.3622 0.71,-0.63913 1.168,-0.83088 0.47,-0.19173 0.982,-0.2876 1.536,-0.2876 0.608,0 1.158,0.12253 1.648,0.36751 0.491,0.23437 0.886,0.58052 1.184,1.03859 0.352,-0.4474 0.795,-0.79362 1.328,-1.03859 0.544,-0.24498 1.136,-0.36751 1.776,-0.36751 z m 9.23,0 c 1.333,0 2.357,0.31956 3.072,0.9587 0.714,0.62846 1.072,1.58185 1.072,2.86012 v 4.90536 h -2.336 v -1.07055 c -0.47,0.79892 -1.344,1.19837 -2.624,1.19837 -0.662,0 -1.238,-0.11183 -1.728,-0.33554 -0.48,-0.2237 -0.848,-0.53258 -1.104,-0.92675 -0.256,-0.39416 -0.384,-0.84155 -0.384,-1.34217 0,-0.79893 0.298,-1.42737 0.896,-1.88546 0.608,-0.45807 1.541,-0.68706 2.8,-0.68706 h 1.984 c 0,-0.54327 -0.166,-0.9587 -0.496,-1.24632 -0.331,-0.29829 -0.827,-0.44738 -1.488,-0.44738 -0.459,0 -0.912,0.0746 -1.36,0.22369 -0.438,0.13851 -0.811,0.33025 -1.12,0.57522 l -0.896,-1.74164 c 0.469,-0.33024 1.029,-0.5859 1.68,-0.76695 0.661,-0.18107 1.338,-0.27164 2.032,-0.27164 z m -0.192,7.17428 c 0.426,0 0.805,-0.0959 1.136,-0.28761 0.33,-0.20243 0.565,-0.49532 0.704,-0.87881 v -0.87881 h -1.712 c -1.024,0 -1.536,0.33555 -1.536,1.00663 0,0.31958 0.122,0.57522 0.368,0.76697 0.256,0.18105 0.602,0.27163 1.04,0.27163 z m 12.147,1.13447 c -0.246,0.18105 -0.55,0.31955 -0.912,0.41543 -0.352,0.0851 -0.726,0.12782 -1.12,0.12782 -1.024,0 -1.819,-0.26094 -2.384,-0.78293 -0.555,-0.52199 -0.832,-1.28896 -0.832,-2.30089 v -3.53121 h -1.328 v -1.91741 h 1.328 v -2.09316 h 2.496 v 2.09316 h 2.144 v 1.91741 h -2.144 v 3.49925 c 0,0.36222 0.09,0.64444 0.272,0.84686 0.192,0.19174 0.458,0.28761 0.8,0.28761 0.394,0 0.73,-0.10658 1.008,-0.31957 z m 1.401,-8.18092 h 2.496 v 8.59635 h -2.496 z m 1.248,-1.19838 c -0.459,0 -0.832,-0.13312 -1.12,-0.39945 -0.288,-0.26635 -0.432,-0.5965 -0.432,-0.99067 0,-0.39416 0.144,-0.7243 0.432,-0.99066 0.288,-0.26633 0.661,-0.39945 1.12,-0.39945 0.458,0 0.832,0.12783 1.12,0.38347 0.288,0.25566 0.432,0.57524 0.432,0.9587 0,0.41546 -0.144,0.76167 -0.432,1.03861 -0.288,0.26633 -0.662,0.39945 -1.12,0.39945 z m 7.66,9.92255 c -0.906,0 -1.722,-0.18644 -2.448,-0.55924 -0.714,-0.38348 -1.274,-0.91077 -1.68,-1.58186 -0.405,-0.67109 -0.608,-1.43275 -0.608,-2.28489 0,-0.85216 0.203,-1.61382 0.608,-2.28491 0.406,-0.6711 0.966,-1.19307 1.68,-1.56588 0.726,-0.38348 1.542,-0.57522 2.448,-0.57522 0.907,0 1.718,0.19174 2.432,0.57522 0.715,0.37281 1.275,0.89478 1.68,1.56588 0.406,0.67109 0.608,1.43275 0.608,2.28491 0,0.85214 -0.202,1.6138 -0.608,2.28489 -0.405,0.67109 -0.965,1.19838 -1.68,1.58186 -0.714,0.3728 -1.525,0.55924 -2.432,0.55924 z m 0,-2.04523 c 0.64,0 1.163,-0.21301 1.568,-0.63913 0.416,-0.43672 0.624,-1.01732 0.624,-1.74163 0,-0.72433 -0.208,-1.29954 -0.624,-1.72568 -0.405,-0.43669 -0.928,-0.6551 -1.568,-0.6551 -0.64,0 -1.168,0.21841 -1.584,0.6551 -0.416,0.42614 -0.624,1.00135 -0.624,1.72568 0,0.72431 0.208,1.30491 0.624,1.74163 0.416,0.42612 0.944,0.63913 1.584,0.63913 z m 11.621,-6.80677 c 1.066,0 1.925,0.31956 2.576,0.9587 0.661,0.63914 0.992,1.58714 0.992,2.84415 v 4.92133 h -2.496 v -4.53785 c 0,-0.68177 -0.15,-1.18769 -0.448,-1.51794 -0.299,-0.34084 -0.731,-0.51132 -1.296,-0.51132 -0.63,0 -1.131,0.19703 -1.504,0.5912 -0.374,0.38348 -0.56,0.9587 -0.56,1.72566 v 4.25025 h -2.496 v -8.59635 h 2.384 v 1.00664 c 0.33,-0.36222 0.741,-0.63913 1.232,-0.83088 0.49,-0.20244 1.029,-0.30359 1.616,-0.30359 z M 192.443,173.2774 c -0.906,0 -1.722,-0.18675 -2.448,-0.55926 -0.714,-0.38346 -1.274,-0.91076 -1.68,-1.58185 -0.405,-0.67108 -0.608,-1.43305 -0.608,-2.2849 0,-0.85184 0.203,-1.61381 0.608,-2.28491 0.406,-0.67107 0.966,-1.19307 1.68,-1.56587 0.726,-0.38349 1.542,-0.57523 2.448,-0.57523 0.907,0 1.718,0.19174 2.432,0.57523 0.715,0.3728 1.275,0.8948 1.68,1.56587 0.406,0.6711 0.608,1.43307 0.608,2.28491 0,0.85185 -0.202,1.61382 -0.608,2.2849 -0.405,0.67109 -0.965,1.19839 -1.68,1.58185 -0.714,0.37251 -1.525,0.55926 -2.432,0.55926 z m 0,-2.04524 c 0.64,0 1.163,-0.2127 1.568,-0.63913 0.416,-0.43641 0.624,-1.01762 0.624,-1.74164 0,-0.72401 -0.208,-1.29924 -0.624,-1.72565 -0.405,-0.43641 -0.928,-0.65513 -1.568,-0.65513 -0.64,0 -1.168,0.21872 -1.584,0.65513 -0.416,0.42641 -0.624,1.00164 -0.624,1.72565 0,0.72402 0.208,1.30523 0.624,1.74164 0.416,0.42643 0.944,0.63913 1.584,0.63913 z m 11.621,-6.80678 c 1.066,0 1.925,0.31958 2.576,0.95871 0.661,0.63913 0.992,1.58685 0.992,2.84415 v 4.92132 h -2.496 v -4.53784 c 0,-0.68207 -0.15,-1.18739 -0.448,-1.51795 -0.299,-0.34054 -0.731,-0.5113 -1.296,-0.5113 -0.63,0 -1.131,0.19672 -1.504,0.5912 -0.374,0.38347 -0.56,0.9587 -0.56,1.72567 v 4.25022 h -2.496 v -8.59635 h 2.384 v 1.00665 c 0.33,-0.36223 0.741,-0.63914 1.232,-0.83088 0.49,-0.20242 1.029,-0.3036 1.616,-0.3036 z m 15.897,8.91592 c -1.141,0 -2.176,-0.24466 -3.104,-0.735 -0.917,-0.50032 -1.642,-1.18739 -2.176,-2.0612 -0.522,-0.88381 -0.784,-1.88045 -0.784,-2.98796 0,-1.1075 0.262,-2.09844 0.784,-2.97196 0.534,-0.88411 1.259,-1.57118 2.176,-2.06122 0.928,-0.50061 1.968,-0.75097 3.12,-0.75097 0.971,0 1.846,0.17046 2.624,0.5113 0.79,0.34084 1.451,0.83088 1.984,1.47001 l -1.664,1.53392 c -0.757,-0.87352 -1.696,-1.31023 -2.816,-1.31023 -0.693,0 -1.312,0.1545 -1.856,0.46338 -0.544,0.29829 -0.97,0.71902 -1.28,1.26229 -0.298,0.54326 -0.448,1.16142 -0.448,1.85348 0,0.69207 0.15,1.31023 0.448,1.8535 0.31,0.54326 0.736,0.96968 1.28,1.27826 0.544,0.2986 1.163,0.44739 1.856,0.44739 1.12,0 2.059,-0.4424 2.816,-1.3262 l 1.664,1.53393 c -0.533,0.65012 -1.194,1.14544 -1.984,1.48598 -0.789,0.34054 -1.669,0.5113 -2.64,0.5113 z m 9.998,-0.0639 c -0.907,0 -1.723,-0.18674 -2.448,-0.55925 -0.715,-0.38347 -1.275,-0.91076 -1.68,-1.58185 -0.405,-0.67109 -0.608,-1.43305 -0.608,-2.2849 0,-0.85185 0.203,-1.61381 0.608,-2.28491 0.405,-0.67108 0.965,-1.19307 1.68,-1.56588 0.725,-0.38347 1.541,-0.57522 2.448,-0.57522 0.907,0 1.717,0.19175 2.432,0.57522 0.715,0.37281 1.275,0.8948 1.68,1.56588 0.405,0.6711 0.608,1.43306 0.608,2.28491 0,0.85185 -0.203,1.61381 -0.608,2.2849 -0.405,0.67109 -0.965,1.19838 -1.68,1.58185 -0.715,0.37251 -1.525,0.55925 -2.432,0.55925 z m 0,-2.04523 c 0.64,0 1.163,-0.21271 1.568,-0.63913 0.416,-0.43641 0.624,-1.01763 0.624,-1.74164 0,-0.72402 -0.208,-1.29925 -0.624,-1.72566 -0.405,-0.43641 -0.928,-0.65512 -1.568,-0.65512 -0.64,0 -1.168,0.21871 -1.584,0.65512 -0.416,0.42641 -0.624,1.00164 -0.624,1.72566 0,0.72401 0.208,1.30523 0.624,1.74164 0.416,0.42642 0.944,0.63913 1.584,0.63913 z m 14.698,-6.67895 -3.632,8.59635 h -2.576 l -3.616,-8.59635 h 2.576 l 2.384,5.84808 2.464,-5.84808 z m 1.018,0 h 2.496 v 8.59635 h -2.496 z m 1.248,-1.19837 c -0.458,0 -0.832,-0.13313 -1.12,-0.39946 -0.288,-0.26634 -0.432,-0.59649 -0.432,-0.99066 0,-0.39417 0.144,-0.72431 0.432,-0.99066 0.288,-0.26633 0.662,-0.39946 1.12,-0.39946 0.459,0 0.832,0.12783 1.12,0.38349 0.288,0.25564 0.432,0.57522 0.432,0.9587 0,0.41544 -0.144,0.76167 -0.432,1.03859 -0.288,0.26633 -0.661,0.39946 -1.12,0.39946 z m 12.333,-2.0612 v 11.85592 h -2.384 v -0.99066 c -0.619,0.74599 -1.515,1.11849 -2.688,1.11849 -0.811,0 -1.547,-0.18076 -2.208,-0.54326 -0.651,-0.36252 -1.163,-0.87881 -1.536,-1.54991 -0.373,-0.67107 -0.56,-1.44902 -0.56,-2.33283 0,-0.8838 0.187,-1.66174 0.56,-2.33284 0.373,-0.67108 0.885,-1.18769 1.536,-1.5499 0.661,-0.36221 1.397,-0.54327 2.208,-0.54327 1.099,0 1.957,0.34624 2.576,1.0386 v -4.17034 z m -4.64,9.93852 c 0.629,0 1.152,-0.21271 1.568,-0.63913 0.416,-0.43641 0.624,-1.01763 0.624,-1.74164 0,-0.72402 -0.208,-1.29925 -0.624,-1.72566 -0.416,-0.43641 -0.939,-0.65512 -1.568,-0.65512 -0.64,0 -1.168,0.21871 -1.584,0.65512 -0.416,0.42641 -0.624,1.00164 -0.624,1.72566 0,0.72401 0.208,1.30523 0.624,1.74164 0.416,0.42642 0.944,0.63913 1.584,0.63913 z m 6.63,-3.57916 h 4.528 v 1.99731 h -4.528 z m 9.94,-5.68828 v 11.18484 h -2.592 v -9.10765 h -2.24 v -2.07719 z m 5.882,-0.19174 c 1.568,0 2.794,0.47935 3.68,1.43806 0.885,0.94801 1.328,2.31685 1.328,4.10644 0,1.26727 -0.24,2.35379 -0.72,3.25957 -0.47,0.90576 -1.136,1.59284 -2,2.06121 -0.864,0.46835 -1.862,0.70304 -2.992,0.70304 -0.598,0 -1.168,-0.0639 -1.712,-0.19174 -0.544,-0.13882 -1.008,-0.33055 -1.392,-0.57523 l 0.96,-1.90141 c 0.544,0.3725 1.242,0.55924 2.096,0.55924 0.949,0 1.701,-0.27661 2.256,-0.83087 0.554,-0.56423 0.853,-1.37415 0.896,-2.42871 -0.672,0.67109 -1.6,1.00663 -2.784,1.00663 -0.715,0 -1.366,-0.1438 -1.952,-0.43141 -0.587,-0.2876 -1.051,-0.69207 -1.392,-1.21435 -0.342,-0.53228 -0.512,-1.14545 -0.512,-1.83752 0,-0.74568 0.186,-1.40079 0.56,-1.96534 0.373,-0.56453 0.88,-0.99594 1.52,-1.29423 0.65,-0.30888 1.37,-0.46338 2.16,-0.46338 z m 0.192,5.27285 c 0.565,0 1.024,-0.15478 1.376,-0.46336 0.362,-0.31958 0.544,-0.72432 0.544,-1.21436 0,-0.49003 -0.176,-0.88949 -0.528,-1.19838 -0.342,-0.30888 -0.816,-0.46337 -1.424,-0.46337 -0.555,0 -1.008,0.1491 -1.36,0.44739 -0.342,0.29829 -0.512,0.70305 -0.512,1.21436 0,0.5113 0.17,0.92176 0.512,1.23033 0.352,0.2986 0.816,0.44739 1.392,0.44739 z m 8.595,2.221 c 0,-0.55425 0.122,-1.01163 0.368,-1.37414 0.256,-0.36252 0.624,-0.76197 1.104,-1.19838 0.352,-0.31957 0.608,-0.5859 0.768,-0.79891 0.17,-0.2237 0.256,-0.47407 0.256,-0.75098 0,-0.39417 -0.16,-0.70305 -0.48,-0.92676 -0.31,-0.23438 -0.726,-0.35152 -1.248,-0.35152 -0.502,0 -0.95,0.10658 -1.344,0.31958 -0.384,0.20242 -0.71,0.49003 -0.976,0.86283 l -1.936,-1.13447 c 0.448,-0.68178 1.05,-1.20906 1.808,-1.58185 0.768,-0.37281 1.674,-0.55925 2.72,-0.55925 1.226,0 2.208,0.26095 2.944,0.78294 0.746,0.52199 1.12,1.24631 1.12,2.17306 0,0.43671 -0.075,0.82018 -0.224,1.15043 -0.139,0.33056 -0.315,0.61218 -0.528,0.84687 -0.203,0.22368 -0.47,0.48432 -0.8,0.78293 -0.395,0.35151 -0.683,0.65013 -0.864,0.89478 -0.182,0.23468 -0.272,0.52229 -0.272,0.86284 z m 1.216,4.01056 c -0.438,0 -0.806,-0.13881 -1.104,-0.41544 -0.288,-0.28762 -0.432,-0.63414 -0.432,-1.03859 0,-0.40445 0.144,-0.74 0.432,-1.00663 0.288,-0.27664 0.656,-0.41544 1.104,-0.41544 0.448,0 0.816,0.1388 1.104,0.41544 0.288,0.26663 0.432,0.60218 0.432,1.00663 0,0.40445 -0.15,0.75097 -0.448,1.03859 -0.288,0.27663 -0.651,0.41544 -1.088,0.41544 z"
   fill="#f79fa8" />
  </g>
  <defs
   id="defs2428">
    <filter
   id="filter0_d"
   x="0"
   y="289.531"
   width="56.9777"
   height="40.3292"
   filterUnits="userSpaceOnUse"
   color-interpolation-filters="sRGB">
      <feFlood
   flood-opacity="0"
   result="BackgroundImageFix"
   id="feFlood2383" />
      <feColorMatrix
   in="SourceAlpha"
   type="matrix"
   values="0 0 0 0 0 0 0 0 0 0 0 0 0 0 0 0 0 0 127 0"
   id="feColorMatrix2385" />
      <feOffset
   dy="4"
   id="feOffset2387" />
      <feGaussianBlur
   stdDeviation="2"
   id="feGaussianBlur2389" />
      <feColorMatrix
   type="matrix"
   values="0 0 0 0 0.792157 0 0 0 0 0.882353 0 0 0 0 0.996078 0 0 0 0.25 0"
   id="feColorMatrix2391" />
      <feBlend
   mode="normal"
   in2="BackgroundImageFix"
   result="effect1_dropShadow"
   id="feBlend2393" />
      <feBlend
   mode="normal"
   in="SourceGraphic"
   in2="effect1_dropShadow"
   result="shape"
   id="feBlend2395" />
    </filter>
    <filter
   id="filter1_d"
   x="45.0457"
   y="244"
   width="45.064"
   height="45.064"
   filterUnits="userSpaceOnUse"
   color-interpolation-filters="sRGB">
      <feFlood
   flood-opacity="0"
   result="BackgroundImageFix"
   id="feFlood2398" />
      <feColorMatrix
   in="SourceAlpha"
   type="matrix"
   values="0 0 0 0 0 0 0 0 0 0 0 0 0 0 0 0 0 0 127 0"
   id="feColorMatrix2400" />
      <feOffset
   dy="4"
   id="feOffset2402" />
      <feGaussianBlur
   stdDeviation="2"
   id="feGaussianBlur2404" />
      <feColorMatrix
   type="matrix"
   values="0 0 0 0 0.792157 0 0 0 0 0.882353 0 0 0 0 0.996078 0 0 0 0.25 0"
   id="feColorMatrix2406" />
      <feBlend
   mode="normal"
   in2="BackgroundImageFix"
   result="effect1_dropShadow"
   id="feBlend2408" />
      <feBlend
   mode="normal"
   in="SourceGraphic"
   in2="effect1_dropShadow"
   result="shape"
   id="feBlend2410" />
    </filter>
    <filter
   id="filter2_d"
   x="51"
   y="0"
   width="378"
   height="300"
   filterUnits="userSpaceOnUse"
   color-interpolation-filters="sRGB">
      <feFlood
   flood-opacity="0"
   result="BackgroundImageFix"
   id="feFlood2413" />
      <feColorMatrix
   in="SourceAlpha"
   type="matrix"
   values="0 0 0 0 0 0 0 0 0 0 0 0 0 0 0 0 0 0 127 0"
   id="feColorMatrix2415" />
      <feOffset
   dy="4"
   id="feOffset2417" />
      <feGaussianBlur
   stdDeviation="2"
   id="feGaussianBlur2419" />
      <feColorMatrix
   type="matrix"
   values="0 0 0 0 0.792157 0 0 0 0 0.882353 0 0 0 0 0.996078 0 0 0 0.25 0"
   id="feColorMatrix2421" />
      <feBlend
   mode="normal"
   in2="BackgroundImageFix"
   result="effect1_dropShadow"
   id="feBlend2423" />
      <feBlend
   mode="normal"
   in="SourceGraphic"
   in2="effect1_dropShadow"
   result="shape"
   id="feBlend2425" />
    </filter>
  </defs>
</svg>
