<?xml version="1.0" encoding="utf-8"?>
<!-- Generator: Adobe Illustrator 24.2.0, SVG Export Plug-In . SVG Version: 6.00 Build 0)  -->
<svg version="1.1" id="Layer_1" xmlns="http://www.w3.org/2000/svg" xmlns:xlink="http://www.w3.org/1999/xlink" x="0px" y="0px" viewBox="0 0 300 300" enable-background="new 0 0 300 300" xml:space="preserve">
	<title></title>
  	<desc></desc>
	<defs>
		<filter id="dropshadow" height="130%">
			<feGaussianBlur in="SourceAlpha" stdDeviation="3"/>
			<feOffset dx="0" dy="2" result="offsetblur"/>
			<feComponentTransfer>
				<feFuncA type="linear" slope="0.1"/>
			</feComponentTransfer>
			<feMerge>
				<feMergeNode/>
				<feMergeNode in="SourceGraphic"/>
			</feMerge>
		</filter>
		<filter id="innershadow">
			<!-- https://gist.github.com/seanbarclay/8627991 -->
			<!-- Shadow Offset, don't make vals lower or you'll break it -->
			<feOffset
				dx='0'
				dy='2'
				/>
			<!-- Shadow Blur -->
			<feGaussianBlur
				stdDeviation='3'
				result='offset-blur'
				/>
			<!-- Invert the drop shadow to create an inner shadow -->
			<feComposite
				operator='out'
				in='SourceGraphic'
				in2='offset-blur'
				result='inverse'
				/>
			<!-- Color & Opacity -->
			<feFlood
				flood-color='#004a9b'
				flood-opacity='0.45'
				result='color'
				/>
			<!-- Clip color inside shadow -->
			<feComposite
				operator='in'
				in='color'
				in2='inverse'
				result='shadow'
				/>
			<!-- Put shadow over original object -->
			<feComposite
				operator='over'
				in='shadow'
				in2='SourceGraphic'
				/>
		</filter>
	</defs>
	<g id="resources_doctor">
		<g id="bkgd_circle">
			<path fill="#e6f1ff" filter="url(#innershadow)" d="M153.5,297.9c67.9,0,123-55.1,123-123s-55.1-123-123-123s-123,55.1-123,123S85.6,297.9,153.5,297.9z"/>
		</g>
		<g id="Doctor">
			<defs>
				<filter id="Adobe_OpacityMaskFilter" filterUnits="userSpaceOnUse" x="49.1" y="29.3" width="193.9" height="605.3">
					<feColorMatrix  type="matrix" values="1 0 0 0 0  0 1 0 0 0  0 0 1 0 0  0 0 0 1 0"/>
				</filter>
			</defs>
			<mask maskUnits="userSpaceOnUse" x="49.1" y="29.3" width="193.9" height="605.3" id="mask0_1_">
				<path id="Vector_1_" fill="#FFE1E4" filter="url(#Adobe_OpacityMaskFilter)" d="M152.5,297.9c87.5,0,132-75.1,132-163.5
					c0-88.4-44-158.5-131.5-158.5C65.5-24.1,15.5,36,15.5,124.4C15.5,212.8,65,297.9,152.5,297.9z"/>
			</mask>
			<g mask="url(#mask0_1_)">
				<g id="Group">
					<path id="Vector_2" fill="#323364" d="M153,127.9c13,0,23.5-9.2,23.5-20.5S166,86.9,153,86.9s-23.5,9.2-23.5,20.5
						S140,127.9,153,127.9z"/>
					<path id="Vector_3" fill-rule="evenodd" clip-rule="evenodd" fill="#5095FF" d="M160.1,392.3c-6.4,63.7-12.3,170.1-19.3,201.2
						c-0.9,3.8-1.7,7.2-2.4,9.9c-0.4,1.4-0.8,2.6-1.1,3.6c-1.9,5.6,6.4,15.1-0.7,20.4c-5.9,4.3-32.4,6.6-39.1,5.7
						c-1.7-0.2-2.1-2.5-0.6-3.3c13.8-7.3,24.5-15.2,25.1-21.7c0.2-1.5,0.3-3,0.4-4.5c0.2-3.1,0.4-6.4,0.5-9.8
						c1.4-38-4.3-91.1-9.3-117.1c-6.8-35.2-15.2-106.2-9.3-144.1c6.1-38.8,12.6-70.9,12.6-70.9s10.1,4,21.3,10.1
						c9.7,5.3,20,12.2,24.9,19.4C173.7,306.8,166.6,328.2,160.1,392.3z"/>

						<linearGradient id="Vector_4_1_" gradientUnits="userSpaceOnUse" x1="130.5699" y1="-157.8545" x2="253.3789" y2="-186.1265" gradientTransform="matrix(1 0 0 -1 0 275.8085)">
						<stop  offset="0" style="stop-color:#5095FF"/>
						<stop  offset="1" style="stop-color:#5095FF"/>
					</linearGradient>
					<path id="Vector_4" fill-rule="evenodd" clip-rule="evenodd" fill="url(#Vector_4_1_)" d="M209.2,630.3
						c-4.6-1.9,1.3-12,1.1-14.8c-2.9-6.3-5.7-12.9-8.4-19.5c-39.2-96.5-39.7-228.1-41.1-264.1c-1.6-39.2-21.5-69.3-21.5-69.3
						s38.9-3.2,52.2,9.9c21.7,36.6,27.8,121.7,27.5,191c-0.3,62-2.1,98.7,0.7,133.7c0.3,3.6,0.6,7.1,1.1,10.7
						c-0.4,2.5,8.8,13.2,19.9,21.2C251.1,636.7,222.8,636,209.2,630.3z"/>
					<g id="Group_2">

							<linearGradient id="Vector_5_1_" gradientUnits="userSpaceOnUse" x1="105.1601" y1="48.2412" x2="208.929" y2="48.2412" gradientTransform="matrix(1 0 0 -1 0 275.8085)">
							<stop  offset="0" style="stop-color:#5095FF"/>
							<stop  offset="1" style="stop-color:#5095FF"/>
						</linearGradient>
						<path id="Vector_5" fill="url(#Vector_5_1_)" d="M208.9,324.9c-0.4-8.8-1.1-20.8-2.1-34.4c0-0.1,0-0.1,0-0.1
							c-4.1-59.7-12.1-151.4-14.5-152.5c-1.6-0.6-9.8-3.8-22.2-5.9c-3.5-0.6-7.4-1.1-11.5-1.5c-11.7-1.1-27.5,1.8-37.7,4.1H121
							c-6,1.4-10.1,2.5-10.1,2.5c2,12.6-4.1,51.2-4.1,81.4c0,0.5,0,1.1,0,1.7c0,1.5,0,2.9,0.1,4.4c0.2,8.4-1.1,74.5-1.7,100.3H130
							h47.1h31.7L208.9,324.9L208.9,324.9z"/>
						<path id="Vector_6" fill="#BFD8FF" d="M230.7,314.6c-4.8,0.1-12.4,0.4-17.8,1c-2.9,0.3-5.5-1.9-5.6-4.9
							c-0.6-21.1-0.6-94.1-4.7-91.8c-1.9,1.1,2.2,34.5,4.1,71.5c0,0.1,0,0.1,0,0.1c0.6,13.2,28.2,266.4,23.8,307.5h-31.7
							c-13-58.4-30.8-321.8-28.8-466c0-0.1,0-0.1-0.1-0.1c0,0,23.4,3.8,39.1,12.9c33,19.2,28,133.9,26.5,164.9
							C235.6,312.4,233.4,314.5,230.7,314.6z"/>
						<path id="Vector_7" fill="#BFD8FF" d="M95.8,607.3l43.1-4c5.7-54.5-0.3-461.3-4.9-471.4c-7.5,1-15.4,3.1-23.1,4.7
							c-30.8,6.2-59.7,86.2-60.6,93.9c-0.8,7.7,6.5,33.5,36.7,17.4c8.5-4.5,17.4-23.9,19.6-29.4c0.1-0.2,0.2-0.4,0.2-0.6
							c-0.1,0.5-0.2,1.2-0.2,2.2c-1.1,14.2-6.7,76.3-6.9,104.5L95.8,607.3z"/>
					</g>

						<linearGradient id="Vector_8_1_" gradientUnits="userSpaceOnUse" x1="150.6287" y1="126.8999" x2="151.0087" y2="153.0939" gradientTransform="matrix(1 0 0 -1 0 275.8085)">
						<stop  offset="0" style="stop-color:#FFA09F"/>
						<stop  offset="1" style="stop-color:#FEC7C6"/>
					</linearGradient>
					<path id="Vector_8" fill="url(#Vector_8_1_)" d="M138.9,108.5v25.4c0,4.5,5.4,8.3,12.1,8.3c6.7,0,12.1-3.7,12.1-8.3v-25.4H138.9
						z"/>

						<linearGradient id="Vector_9_1_" gradientUnits="userSpaceOnUse" x1="176.4779" y1="204.0547" x2="183.3489" y2="189.5488" gradientTransform="matrix(1 0 0 -1 0 275.8085)">
						<stop  offset="0" style="stop-color:#FFCECC"/>
						<stop  offset="1" style="stop-color:#FFA09F"/>
					</linearGradient>
					<path id="Vector_9" fill="url(#Vector_9_1_)" d="M186.1,80.1c-0.2,4.4-2.9,7.8-6.2,7.7c-3.2-0.2-5.7-3.8-5.4-8.2
						c0.2-4.4,2.9-7.8,6.2-7.7C183.9,72.1,186.3,75.7,186.1,80.1z"/>

						<linearGradient id="Vector_10_1_" gradientUnits="userSpaceOnUse" x1="123.5733" y1="197.4796" x2="113.4881" y2="193.8806" gradientTransform="matrix(1 0 0 -1 0 275.8085)">
						<stop  offset="0" style="stop-color:#FFCECC"/>
						<stop  offset="1" style="stop-color:#FFA09F"/>
					</linearGradient>
					<path id="Vector_10" fill="url(#Vector_10_1_)" d="M125.1,80.1c-0.2,4.4-2.9,7.8-6.2,7.7c-3.2-0.2-5.7-3.8-5.4-8.2
						c0.2-4.4,2.9-7.8,6.2-7.7C122.9,72.1,125.3,75.7,125.1,80.1z"/>

						<linearGradient id="Vector_11_1_" gradientUnits="userSpaceOnUse" x1="118.7747" y1="200.8819" x2="181.8167" y2="197.9471" gradientTransform="matrix(1 0 0 -1 0 275.8085)">
						<stop  offset="0" style="stop-color:#FFA09F"/>
						<stop  offset="1" style="stop-color:#FEC7C6"/>
					</linearGradient>
					<path id="Vector_11" fill="url(#Vector_11_1_)" d="M182.3,66.7l-0.8,16.2c-0.1,2.1-0.4,4.1-0.8,6.1c-0.5,2.4-1.3,4.7-2.3,6.9
						c-5.4,12.3-20.8,23.8-29.8,23.3c-7.4-0.4-22.9-12.3-27.5-24.2c-0.6-1.6-1.1-3.2-1.5-4.9c-0.8-3.4-1.2-6.8-1.1-10.2l0.8-16.2
						c0.8-17.4,15.6-30.9,33-30.1c8.7,0.4,16.4,4.3,21.9,10.3C179.6,49.9,182.8,58,182.3,66.7z"/>
					<g id="Group_3">
						<path id="Vector_12" fill="#323364" d="M141.1,67.7c-0.1,0.7-2.7,1-5.4,2.4c-2.7,1.3-4.5,3.2-5.1,2.8c-0.3-0.2-0.1-0.9,0.5-1.9
							c0.6-1,1.9-2.2,3.5-3c1.7-0.8,3.4-1.1,4.5-0.9C140.4,67,141.1,67.3,141.1,67.7z"/>
					</g>
					<g id="Group_4">
						<path id="Vector_13" fill="#323364" d="M162.5,66.8c0.1,0.7,2.7,0.9,5.4,2.2c2.8,1.2,4.6,3.1,5.2,2.7c0.2-0.2,0.1-0.9-0.5-1.9
							c-0.6-1-1.9-2.2-3.6-3c-1.7-0.8-3.4-1-4.5-0.9C163.1,66.1,162.5,66.5,162.5,66.8z"/>
					</g>
					<path id="Vector_14" fill="#323364" d="M140.3,78.5c0.1-1.9-0.7-3.5-1.7-3.6c-1,0-1.9,1.5-2,3.4c-0.1,1.9,0.7,3.5,1.7,3.6
						C139.4,82,140.3,80.5,140.3,78.5z"/>
					<path id="Vector_15" fill="#323364" d="M164.4,78.6c0.1-1.9-0.7-3.6-1.7-3.6c-1,0-1.9,1.5-2,3.4c-0.1,1.9,0.7,3.6,1.7,3.6
						C163.4,82.1,164.3,80.5,164.4,78.6z"/>
					<path id="Vector_16" fill="#FFFFFF" d="M166.7,108.1l-11.4,1.9c-5,0.8-9.9,0.6-14.7-0.8l-10.5-2.8c-2.4-0.1-4.2-2.5-4.1-5.4
						l0.4-8.7c0.1-2.9,2.2-5.1,4.6-5l10.8,2.9c4.8,1.3,9.8,1.5,14.7,0.7l11-1.9c2.4,0.1,4.2,2.5,4.1,5.4l-0.4,8.7
						C171.1,106,169.1,108.3,166.7,108.1z"/>
					<g id="Group_5">
						<path id="Vector_17" fill="#FFFFFF" d="M182.5,74.4c0,0.1,0,0.1,0,0.1c-0.1,0.4-0.1,0.8-0.2,1.1c-0.4,0.1-0.7,0.3-1.1,0.5
							c-6,3.2-11.3,13.4-11.4,13.5c-0.1,0.2-0.4,0.4-0.6,0.3c-0.1,0-0.1,0-0.1-0.1c-0.3-0.2-0.4-0.5-0.2-0.8
							c0.3-0.5,5.7-11,12.2-14.2C181.5,74.7,182,74.6,182.5,74.4z"/>
					</g>
					<g id="Group_6">
						<path id="Vector_18" fill="#FFFFFF" d="M180.7,88.9c-0.5,2.4-1.3,4.7-2.3,6.9c-2.1,2.8-4.9,5.3-8.2,6.6
							c-0.1,0.1-0.2,0.1-0.2,0.1c-0.2,0-0.4-0.2-0.5-0.4c-0.1-0.3,0-0.6,0.4-0.8C175.1,99.2,179.2,93.9,180.7,88.9z"/>
					</g>
					<g id="Group_7">
						<path id="Vector_19" fill="#FFFFFF" d="M128.2,100.1c-0.1,0.2-0.4,0.4-0.5,0.3c-0.1,0-0.2,0-0.2-0.1c-2.5-1.2-4.6-3.2-6.3-5.4
							c-0.6-1.6-1.1-3.2-1.5-4.9c1.7,3.8,4.6,7.3,8.3,9.3C128.2,99.5,128.3,99.8,128.2,100.1z"/>
					</g>
					<g id="Group_8">
						<path id="Vector_20" fill="#FFFFFF" d="M130.7,88.7c-0.1,0-0.1,0-0.2,0c-0.2,0-0.5-0.2-0.5-0.4c-2.7-10-9.5-14.4-10.8-15.2
							c0.1-0.4,0.1-0.8,0.1-1.2c0.1,0,0.2,0,0.2,0.1c0.4,0.2,8.5,4.5,11.6,16C131.2,88.3,131,88.7,130.7,88.7z"/>
					</g>
					<g id="Group_9">
						<path id="Vector_21" fill="#EEF7FF" d="M166.1,93.5C166.1,93.5,166,93.6,166.1,93.5C166.1,93.6,166.1,93.6,166.1,93.5
							c0.1,0,0.1,0,0.1,0c0.1,0,0,0,0.1,0C166.3,93.5,166.2,93.5,166.1,93.5C166.1,93.6,166.1,93.6,166.1,93.5z"/>
						<path id="Vector_22" fill="#EEF7FF" d="M158,94.9C158,94.9,158,94.8,158,94.9C158,94.8,158,94.9,158,94.9z"/>
						<path id="Vector_23" fill="#EEF7FF" d="M161.1,94.3L161.1,94.3C161,94.4,161.1,94.4,161.1,94.3z"/>
						<path id="Vector_24" fill="#EEF7FF" d="M165.4,93.7C165.4,93.7,165.5,93.7,165.4,93.7L165.4,93.7z"/>
						<path id="Vector_25" fill="#EEF7FF" d="M163.5,93.9C163.5,93.9,163.5,94,163.5,93.9C163.5,93.9,163.5,93.9,163.5,93.9z"/>
						<path id="Vector_26" fill="#EEF7FF" d="M147.7,95.6c0.1,0.1-0.2,0.1-0.1,0.2C147.6,95.9,147.8,95.8,147.7,95.6z"/>
						<path id="Vector_27" fill="#EEF7FF" d="M154.2,95.3C154.2,95.3,154.3,95.3,154.2,95.3C154.3,95.3,154.3,95.3,154.2,95.3z"/>
						<path id="Vector_28" fill="#EEF7FF" d="M153.4,95.6L153.4,95.6C153.3,95.6,153.3,95.6,153.4,95.6
							C153.3,95.6,153.4,95.6,153.4,95.6z"/>
						<path id="Vector_29" fill="#EEF7FF" d="M135.3,93.3L135.3,93.3C135.2,93.3,135.1,93.3,135.3,93.3z"/>
						<path id="Vector_30" fill="#EEF7FF" d="M153,96.6c-0.1-0.1-0.1-0.1-0.1-0.1c0,0,0,0,0,0.1H153z"/>
						<path id="Vector_31" fill="#EEF7FF" d="M134.3,93.2c0.1,0.1,0.1-0.1,0.1-0.1c0.2,0.1,0.1,0.1,0.1,0.1c0.1,0,0.2,0,0.2,0
							c0.1,0,0.3,0.1,0.5,0.1c0-0.1,0-0.1,0-0.1c0.1,0,0.1,0,0.1,0.1c-0.1,0-0.1,0-0.1,0h0.1c0.1,0.1-0.1,0-0.1,0.1
							c0.1,0,0.3,0,0.4,0.1c0,0.1-0.2-0.1-0.1,0.1l-0.1-0.1c0.1,0.1-0.1-0.1,0,0.1c0.2,0.1,0.2,0.1,0.4,0.1c0.1,0,0-0.1,0.1-0.1
							c0.3,0,0.2,0.2,0.4,0.2c0.1-0.1,0.1-0.1,0.2-0.1l-0.1,0.1c0.2,0.1,0.1-0.1,0.3,0c-0.1,0-0.2,0-0.1,0c0.1,0.1,0.1,0,0.2,0v0.1
							c0.2,0.1,0.4,0.1,0.6,0.1c0,0-0.1,0.1,0,0.1c0.3,0.1,0.6,0.2,0.8,0.3l0.1-0.1c0,0,0.1,0.1,0,0.1c0.1,0.1,0-0.1,0.1-0.1
							c0.1,0,0.1,0.1,0,0.1c0.2,0,0.5,0,0.7,0.1h-0.1c0.1,0.1,0.2-0.1,0.4,0h-0.1c0.3,0.1,0.7,0.1,0.9,0.4c0.1-0.1,0.3,0.2,0.4-0.1
							c0.2,0.2,0.1,0.2,0.4,0.3c0.1,0.1,0.1-0.1,0.2-0.1V95l0.1-0.1v0.2h0.1c-0.1,0-0.1-0.1-0.1-0.1c0.1,0,0.3,0.2,0.3,0.2h0.3
							c0,0.1-0.1,0.1-0.1,0.1c0.2-0.1,0,0.1,0.2,0.1c0-0.1,0-0.1,0.1-0.1c0.1,0.1,0.2,0.1,0.4,0.1l-0.1,0.1c0.2,0.1,0.5,0.1,0.7,0.2
							c-0.1-0.1,0-0.2,0.1-0.2v0.1c0.1-0.1-0.1-0.1,0.1-0.1c0.1,0.1,0,0.2-0.1,0.2h0.1c0,0.1-0.1,0.1-0.1,0.1
							c0.1-0.1,0.2,0.2,0.2,0.1v0.1c0.2,0.1,0.4,0.1,0.6,0.1c0.1-0.1,0.1-0.1,0.2-0.1c0.1,0.1,0.3,0.2,0.5,0.2c0.1,0,0.1-0.1,0.1-0.1
							c0,0.1,0.2,0.1,0.1,0.2c0.2,0.1,0.3,0.1,0.6,0.1c0-0.1-0.1-0.1,0-0.1c0.1,0,0.1,0.1,0.1,0.1c0.4-0.1,0.6,0.5,0.9,0.3l0.3-0.1
							c0.1,0.1-0.1,0.1,0,0.2c0.3-0.1,0.5,0.1,0.7,0c0.1,0.4,0.6,0.1,0.9,0.3v-0.1c0.1-0.1,0.1,0.1,0.1,0.1c0-0.1-0.1-0.1,0-0.1
							c0.5-0.1,1.1,0.2,1.7,0.2c0.2,0,0.1-0.4,0.4-0.2l-0.1,0.2c0.4-0.2,0.8-0.1,1.2-0.2c0,0.1,0,0.1-0.1,0.1
							c0.1,0.1,0.3-0.1,0.3-0.1c0.1,0,0,0.1,0.1,0.1c0.1,0.1,0.2-0.2,0.2-0.1c0,0,0,0.1-0.1,0.1c0.1-0.1,0.2,0,0.2-0.1
							c0.2,0.1,0.3-0.1,0.4-0.1c0.1-0.1,0.3,0,0.2-0.2c0,0.2,0.3,0.1,0.4,0c0,0.1,0.1,0.1,0.1,0.1c0.1,0,0.2-0.1,0.2-0.2
							c0.2,0.2,0.4-0.2,0.5,0c0.3-0.2,0.6-0.3,0.8-0.4c0,0.2-0.3,0.1-0.2,0.2c0.2-0.1,0.4-0.3,0.6-0.3c0.1,0,0,0.1-0.1,0.1
							c0.2-0.1,0.5-0.1,0.7-0.2c0,0,0,0.1-0.1,0.1c0.1,0,0.1,0,0.1-0.1l-0.1,0.1c-0.1-0.1,0.1-0.3,0.1-0.4c-0.1,0.2,0.2,0,0.2,0.3
							c0,0,0.1-0.1,0.1-0.1c0.1,0,0.1,0.1,0.1,0.1c0.2-0.1,0.1-0.1,0.2-0.2c0,0.1,0,0.1,0,0.1c0.1-0.1,0.1-0.2,0.2-0.2v0.1
							c0.2-0.1,0.4-0.2,0.6-0.2c-0.1,0.2,0.1,0.1,0.1,0.2l0.1-0.1l-0.1-0.1c0.1,0,0.2-0.1,0.3-0.1l-0.1,0.1l0.2-0.1h-0.1
							c0.1-0.1-0.1-0.2,0.1-0.2c0,0,0.1,0,0.2,0.1c0.1-0.1,0.1-0.1,0.2-0.1c0,0.1,0,0.1,0,0.2c0.1-0.1,0.2-0.1,0.3-0.2v0.1l0.1-0.1
							c0.1,0,0.1,0,0.1,0.1c0.2,0-0.1-0.1,0.1-0.1c0,0,0,0-0.1,0.1c0.2,0,0.4-0.1,0.5-0.1c0.1,0.1-0.1,0.1-0.1,0.1
							c0.2-0.1,0.5-0.2,0.7-0.2h-0.1c0-0.2,0.2,0.1,0.3-0.1v0.1c0.2,0,0.4-0.1,0.6-0.2v0.1c0.1,0,0.2-0.1,0.4-0.1
							c0-0.1,0.1-0.1,0.1-0.1c0.4,0.1,0.6-0.2,0.9-0.1c-0.1,0-0.1,0.1-0.1,0.1l0.2-0.1c0-0.1-0.1,0-0.1-0.1c0-0.1,0.1-0.1,0.2-0.1
							c-0.1,0.1,0,0.1,0.1,0.1v-0.1c0.1,0.1,0-0.1,0.2-0.1c0.1,0,0.1-0.1,0.2-0.1c0.1,0.1-0.1,0.1-0.1,0.1c0.1,0,0.2-0.1,0.3-0.1
							c-0.1,0-0.1,0.1-0.1,0.1c0.1,0.1,0.1,0,0.2,0h0.2h-0.1c0.1-0.1,0.2-0.1,0.4-0.2c-0.2,0.1,0,0.1,0,0.1c0.1,0,0.1,0,0.1,0
							c0.1-0.1,0.1,0,0.2-0.1h0.1c0.1-0.1,0,0,0-0.1c0.2-0.1,0.4-0.1,0.6-0.1c0.2-0.1,0.2-0.1,0.4-0.1c0.1,0-0.1,0.1-0.1,0.1
							c0.1,0,0.2,0,0.2-0.1c0,0,0,0,0.1,0c0.1,0,0.1-0.1,0.1-0.1c0,0-0.1,0-0.1,0.1c0.1,0,0.2-0.1,0.2-0.1c0,0-0.1,0-0.1,0.1
							c0.1,0,0.2-0.1,0.3-0.1h-0.1c0.1,0,0,0,0,0c-0.1,0-0.1,0-0.1,0h0.1c-0.1,0-0.2,0.1-0.4,0.1l0.1-0.1l-0.1,0.1
							c-0.1,0-0.1,0,0-0.1c-0.1,0-0.1,0-0.2,0h-0.1c0,0,0,0,0.1,0c-0.2,0-0.2,0.1-0.4,0.1c-0.2,0.1,0,0.1-0.2,0.1l-0.1-0.1V94h-0.1
							c-0.1,0.1,0,0,0,0.1c-0.1,0-0.3,0.1-0.4,0c-0.1,0.1,0.1,0,0,0.1c-0.1-0.1-0.1,0.1-0.2,0c0-0.1,0.1-0.1,0-0.1
							c-0.1,0.1-0.2,0-0.3,0.1c0,0.1-0.2,0.1-0.4,0.1c0,0-0.3,0-0.4,0c0,0.1-0.2,0.1-0.2,0.1c0-0.1,0-0.1,0.1-0.1h-0.1
							c0,0-0.1,0.1-0.1,0.1v-0.1c-0.1,0-0.2,0.1-0.4,0.1c0,0.1,0.2,0.1,0,0.2c0,0,0-0.1,0-0.1c0,0-0.1,0.1-0.1,0l0.1-0.1
							c-0.1,0-0.1,0.1-0.1,0.1c0-0.1-0.1,0-0.1-0.1h0.1c-0.1,0-0.2,0-0.2-0.1c0,0,0,0.1-0.1,0.1c-0.1,0-0.1-0.1-0.1-0.1
							c0,0.1-0.1,0-0.1,0.1c-0.1,0-0.1,0-0.1-0.1c-0.1,0.1-0.3,0.1-0.2,0.1c-0.2,0.1-0.5,0.1-0.6,0.1c-0.1,0.1-0.3,0.1-0.4,0.1
							c-0.1,0-0.1-0.1-0.1-0.1c-0.1,0.1-0.1,0.1-0.2,0.1c0.1-0.1-0.1-0.1,0.1-0.1c-0.1,0-0.2-0.1-0.3,0.1c0.1-0.1-0.1-0.1-0.2-0.1
							l0.1,0.1c-0.1,0-0.1,0-0.2,0.1v-0.1c-0.3-0.1-0.4,0.3-0.6,0.1c-0.1,0.1,0.2,0,0.1,0.1c-0.1,0-0.3-0.1-0.3-0.1
							c-0.2-0.1-0.1,0.2-0.3,0.2c0,0.1,0.1,0.1-0.1,0.2c-0.1,0-0.2-0.1-0.1-0.2h0.1c0.1,0,0.1-0.1,0-0.1v0.1c-0.1-0.1-0.2,0-0.2-0.1
							c-0.1,0.1,0,0.1,0.1,0.1c-0.2-0.1-0.2,0.1-0.4,0c0.1,0,0.1,0.1,0.1,0.1c-0.2,0-0.1,0.1-0.2,0.1c-0.1-0.1,0-0.2-0.1-0.1
							c-0.1,0-0.1-0.1,0-0.2c-0.1,0.1-0.3,0-0.4,0l0.1-0.1c-0.1,0-0.1,0.1-0.1,0.1l0.1,0.1c-0.1,0-0.1,0-0.1-0.1
							c-0.1,0.1,0.1,0.1,0,0.2c-0.1-0.1-0.2,0.1-0.2-0.1c0.2,0-0.1-0.1,0.1-0.2c0,0-0.1,0-0.1,0c0,0,0,0,0-0.1
							c-0.2-0.1-0.1,0.1-0.2,0.2c0-0.1-0.1-0.1-0.1-0.1c0.1,0,0.1,0.1,0,0.2c-0.1-0.1-0.1,0.1-0.2,0.1h0.1c0,0.1-0.1,0.1-0.2,0.1
							c0-0.1,0.1-0.1,0.1-0.1c-0.1,0.1-0.2-0.1-0.4,0c-0.1-0.1-0.1-0.1-0.1-0.2c-0.1,0.1-0.2-0.1-0.3,0.1c0.1,0.1,0.1,0.1,0,0.2
							l0.2-0.1l-0.1,0.2c0.1,0,0.2-0.1,0.2-0.1c-0.1,0.1-0.1,0.1,0,0.1c-0.1-0.1-0.2,0.1-0.4,0.1l-0.1-0.2c-0.2-0.1-0.3,0.2-0.5,0.2
							h0.1c0,0.1-0.1,0.1-0.2,0.1c0-0.1-0.1-0.1-0.1-0.1c0,0.1-0.2,0-0.2,0.2l-0.1-0.1c-0.2,0-0.2,0.3-0.4,0.3
							c0.1-0.1-0.1-0.1,0.1-0.2c-0.1,0-0.1,0-0.1,0.1c-0.1-0.1-0.1,0.1-0.2,0.1c0,0.1,0,0.1-0.1,0.1v-0.1c0,0.1-0.1,0.1,0,0.2
							c-0.2-0.2-0.5,0.1-0.7-0.1c-0.1,0.1-0.3,0.1-0.4,0.1v-0.1c-0.2-0.1-0.1,0.2-0.3,0.2c-0.1-0.1,0.1-0.1,0-0.1
							c-0.1-0.3-0.2,0.1-0.4-0.1c-0.1-0.1-0.2,0.1-0.4,0.1c0,0,0,0,0-0.1c-0.1,0.2-0.3,0.2-0.5,0.2c0.1-0.1,0.1-0.1,0.1-0.2
							c-0.1,0,0.1,0.2-0.1,0.2c-0.1-0.1-0.2-0.1-0.2-0.2h0.1c-0.1-0.2-0.2,0-0.2,0v-0.1c-0.2,0-0.2,0.2-0.4,0.2v0.1
							c-0.1,0.2-0.1-0.1-0.2,0.1l-0.1-0.2c-0.1,0.1-0.3,0.2-0.4,0.2c0.1-0.1,0.2-0.2,0.4-0.2c-0.1,0-0.2,0-0.3,0.1
							c0.1,0,0.1-0.1,0.1-0.1c-0.1,0.1-0.2,0.2-0.4,0.2c0.1-0.4-0.4-0.1-0.5-0.4c-0.3,0.1-0.5-0.1-0.8-0.1c0.1,0.3-0.1,0-0.1,0.3
							c-0.1,0-0.1,0-0.1,0l-0.2-0.2c-0.1-0.1,0.1-0.1,0.1-0.1c-0.2-0.1-0.1-0.1-0.1-0.2c0,0.1-0.1,0.1-0.2,0.1l0.1,0.1
							c-0.2,0.1-0.2-0.2-0.4-0.1l0.1-0.1c-0.1,0.1-0.4-0.1-0.5,0.1c0-0.1,0-0.1,0-0.1c-0.2-0.1-0.6,0.1-0.8-0.1l0.1-0.1
							c-0.1,0-0.1,0.1-0.2,0c0,0,0.1-0.1,0-0.1s-0.2,0.1-0.2,0l0.1-0.1c-0.2-0.1-0.5,0.1-0.6,0.1c0.1-0.2-0.1-0.3-0.2-0.4
							c-0.3-0.1-0.5,0-0.9,0c-0.1-0.2-0.6-0.2-0.8-0.4c0.1,0.1-0.1,0.1-0.1,0.1c-0.1-0.1-0.2,0.1-0.2-0.1c0-0.2-0.2-0.2-0.2-0.2
							l-0.1,0.2c-0.2-0.4-0.8-0.1-0.8-0.4c-0.1,0.1-0.2,0-0.2,0.1l0.1-0.1c-0.2-0.1-0.3-0.1-0.5-0.1l0.1-0.1
							c-0.1-0.1-0.2,0.2-0.4,0.2v-0.2c-0.2-0.1-0.4-0.2-0.7-0.2c0,0,0-0.1,0.1-0.1c-0.1,0-0.4-0.2-0.4,0c0-0.1-0.2-0.1-0.4-0.1
							l0.1-0.1c-0.1,0.1-0.1,0.1-0.3,0.1c-0.1,0,0-0.1,0-0.1c-0.1-0.1-0.1,0.1-0.2,0l0.1-0.1c-0.1-0.1-0.1,0-0.2,0.1
							c-0.1,0-0.2-0.1-0.2-0.2c0,0.1-0.1,0.1-0.2,0.1c0,0,0-0.1,0.1-0.1c-0.2-0.1-0.3,0-0.4-0.1v-0.1c0.2,0.1,0.3,0.1,0.3,0.1
							c0-0.1-0.1-0.1,0-0.2c-0.1,0.1-0.3,0.1-0.4,0.1h-0.1c-0.1,0-0.1-0.1-0.1-0.1c0-0.1-0.1-0.1-0.2-0.1c0,0.1-0.1,0.1-0.1,0.1
							c0,0,0,0,0.1,0c0.1,0,0.1,0,0.2,0.1c-0.1,0-0.1,0.1-0.2,0c-0.1,0.1-0.1,0.1-0.1,0.1c-0.1-0.1-0.2-0.2-0.2-0.3
							c-0.2,0-0.5-0.1-0.6,0c-0.1,0-0.1-0.1-0.1-0.1c0.1,0,0.1,0,0.1,0c-0.1,0-0.4-0.1-0.4,0c-0.1-0.1,0.1-0.1-0.1-0.1h0.1
							c-0.4-0.2-0.6,0.1-1-0.2c0,0,0.1,0,0.1,0.1c-0.5-0.2-1-0.2-1.4-0.4c-0.1-0.1-0.2,0-0.2,0v-0.1h-0.1c-0.2,0-0.3-0.1-0.6-0.2
							c-0.1,0-0.3-0.1-0.2-0.1h-0.1l-0.2-0.1c-0.2-0.1,0.1,0-0.2-0.1c-0.1,0-0.2-0.1-0.2-0.1c0,0,0.1,0,0.1,0h-0.1c0,0-0.1,0,0.1,0.1
							l0.1,0.1h0.1l-0.1-0.1c0.1,0,0.1,0.1,0.2,0.1h0.1l0.1,0.1c0,0-0.1,0,0,0c0.1,0-0.1-0.1,0.1,0c0.1,0,0.1,0.1,0.1,0.1
							c0,0,0,0-0.1,0c0.1,0,0.2,0.1,0.2,0.1c0.1,0.1,0.2,0.1,0.2,0.1c0,0,0.1,0,0.2,0.1c-0.1,0,0.2,0.1,0.2,0.1
							c0.1,0,0.3,0.1,0.5,0.1c0,0,0,0-0.1,0c0.1,0.1,0.1,0.1,0.2,0.1c0-0.1,0.2,0,0.2,0c0.1,0.1-0.1,0.1-0.1,0.1c0-0.1,0.2,0,0.2-0.1
							c0.1,0.1,0.1,0.1,0.1,0.1c0.1-0.1,0.1,0,0.2,0c0.1,0.1,0,0.1,0.2,0.1C134.4,93.2,134.3,93.2,134.3,93.2z M137.4,93.9
							L137.4,93.9L137.4,93.9z M137.7,94c-0.1,0-0.1,0-0.1-0.1c0,0,0-0.1,0.1-0.1C137.6,93.9,137.6,93.9,137.7,94z M137.2,93.3
							C137.3,93.3,137.3,93.3,137.2,93.3C137.3,93.3,137.3,93.3,137.2,93.3z"/>
						<path id="Vector_32" fill="#EEF7FF" d="M141.2,95.2L141.2,95.2L141.2,95.2L141.2,95.2z"/>
						<path id="Vector_33" fill="#EEF7FF" d="M158.3,95.2L158.3,95.2C158.3,95.2,158.3,95.2,158.3,95.2z"/>
						<path id="Vector_34" fill="#EEF7FF" d="M165,93.8c0.1,0,0.1,0,0.2-0.1C165.2,93.8,165.1,93.8,165,93.8z"/>
						<path id="Vector_35" fill="#EEF7FF" d="M164.2,93.9h0.2c-0.1,0-0.1,0,0-0.1C164.1,93.8,164.4,93.8,164.2,93.9z"/>
						<path id="Vector_36" fill="#EEF7FF" d="M163.6,93.9C163.8,93.9,163.6,93.9,163.6,93.9C163.6,93.9,163.6,93.9,163.6,93.9z"/>
						<path id="Vector_37" fill="#EEF7FF" d="M160,94.5L160,94.5C159.9,94.5,160,94.5,160,94.5z"/>
						<path id="Vector_38" fill="#EEF7FF" d="M159.3,95L159.3,95l0.1-0.1L159.3,95z"/>
						<path id="Vector_39" fill="#EEF7FF" d="M158.8,94.6L158.8,94.6L158.8,94.6L158.8,94.6z"/>
						<path id="Vector_40" fill="#EEF7FF" d="M152.6,95.6l0.1,0.1C152.7,95.7,152.7,95.6,152.6,95.6z"/>
						<path id="Vector_41" fill="#EEF7FF" d="M150,96c-0.1-0.1-0.1-0.1-0.2-0.1C149.9,95.9,150,96,150,96z"/>
					</g>
					<g id="Group_10">
						<path id="Vector_42" fill="#EEF7FF" d="M164.8,101.7C164.8,101.7,164.7,101.8,164.8,101.7C164.8,101.7,164.8,101.7,164.8,101.7
							c0.1,0,0.1,0,0.1,0c0.1,0,0,0,0.1,0C165,101.7,164.9,101.7,164.8,101.7z"/>
						<path id="Vector_43" fill="#EEF7FF" d="M156.8,103.1C156.8,103.1,156.8,103.1,156.8,103.1C156.8,103.1,156.7,103.1,156.8,103.1
							z"/>
						<path id="Vector_44" fill="#EEF7FF" d="M161.2,102.3C161.2,102.2,161.2,102.2,161.2,102.3L161.2,102.3z"/>
						<path id="Vector_45" fill="#EEF7FF" d="M163.9,101.9C163.9,101.8,163.9,101.9,163.9,101.9L163.9,101.9z"/>
						<path id="Vector_46" fill="#EEF7FF" d="M146.4,104c0.1,0.1-0.2,0.1-0.1,0.2C146.4,104.1,146.6,104,146.4,104z"/>
						<path id="Vector_47" fill="#EEF7FF" d="M133.9,101.9C133.9,101.9,133.9,101.9,133.9,101.9C133.9,101.9,133.8,101.9,133.9,101.9
							z"/>
						<path id="Vector_48" fill="#EEF7FF" d="M151.7,105c-0.1-0.1-0.1-0.1-0.1-0.1c0,0,0,0,0,0.1H151.7z"/>
						<path id="Vector_49" fill="#EEF7FF" d="M132.9,101.8c0.1,0.1,0.1-0.1,0.1-0.1c0.2,0,0.1,0.1,0.1,0.1c0.1,0,0.2,0,0.2,0
							c0.1,0,0.3,0.1,0.5,0.1c0-0.1,0-0.1,0-0.1c0.1,0,0.1,0,0.1,0.1c-0.1,0-0.1,0-0.1,0h0.1c0.1,0.1-0.1,0-0.1,0.1
							c0.1,0,0.3,0,0.4,0.1c0,0.1-0.2-0.1-0.1,0.1l-0.1-0.1c0.1,0.1-0.1-0.1,0,0.1c0.2,0.1,0.2,0,0.4,0.1c0.1,0,0-0.1,0.1-0.1
							c0.3,0,0.2,0.2,0.4,0.2c0.1-0.1,0.1-0.1,0.2-0.1l-0.1,0.1c0.2,0.1,0.1-0.1,0.3,0c-0.1,0-0.2,0-0.1,0c0.1,0.1,0.1-0.1,0.2,0v0.1
							c0.2,0.1,0.4,0.1,0.6,0.1c0,0-0.1,0.1,0,0.1c0.3,0,0.6,0.2,0.8,0.3l0.1-0.1c0,0,0.1,0.1,0,0.1c0.1,0.1,0-0.1,0.1-0.1
							c0.1,0,0.1,0.1,0,0.1c0.2,0,0.5-0.1,0.7,0.1h-0.1c0.1,0.1,0.2-0.2,0.4,0H138c0.3,0.1,0.7,0.1,0.9,0.4c0.1-0.1,0.3,0.1,0.4-0.1
							c0.2,0.2,0.1,0.2,0.4,0.3c0.1,0,0.1-0.1,0.2-0.1v0.1l0.1-0.1l0.1,0.2h0.1c-0.1,0-0.1-0.1-0.1-0.1c0.1,0,0.3,0.2,0.3,0.2h0.3
							c0,0.1-0.1,0.1-0.1,0.1c0.2-0.1,0,0.1,0.2,0.1c0-0.1,0-0.1,0.1-0.1c0.1,0.1,0.2,0.1,0.4,0.1l-0.1,0.1c0.2,0.1,0.5,0.1,0.7,0.1
							c-0.1-0.1,0-0.2,0.1-0.2v0.1c0.1-0.1-0.1-0.1,0.1-0.1c0.1,0.1,0.1,0.2-0.1,0.2h0.1c0,0.1-0.1,0.1-0.1,0.1
							c0.1-0.1,0.2,0.2,0.2,0.1v0.1c0.2,0.1,0.4,0.1,0.6,0.1c0-0.1,0.1-0.1,0.2-0.2c0.1,0.1,0.3,0.2,0.5,0.2c0.1,0,0.1-0.1,0.1-0.1
							c0,0.1,0.2,0.1,0.1,0.2c0.2,0.1,0.3,0.1,0.6,0c0-0.1-0.1-0.1,0-0.1c0.1,0,0.1,0.1,0.1,0.1c0.4-0.1,0.6,0.5,0.9,0.3l0.3-0.1
							c0.1,0.1-0.1,0.1,0,0.2c0.3-0.1,0.5,0.1,0.7,0c0.1,0.4,0.6,0.1,0.9,0.3V105c0.1-0.1,0.1,0.1,0.1,0.1c0-0.1-0.1-0.1,0-0.1
							c0.5-0.1,1.1,0.2,1.7,0.2c0.2,0,0.1-0.4,0.4-0.2l-0.1,0.2c0.4-0.2,0.8-0.1,1.2-0.2c0,0.1,0,0.1-0.1,0.1
							c0.1,0.1,0.3-0.1,0.3-0.1c0.1,0,0,0.1,0.1,0.1c0.1,0.1,0.2-0.2,0.2-0.1c0,0,0,0.1-0.1,0.1c0.1-0.1,0.2,0,0.2-0.1
							c0.2,0.1,0.3-0.1,0.4-0.1c0.1-0.1,0.3,0,0.2-0.2c0,0.2,0.3,0.1,0.4,0c0,0.1,0.1,0.1,0.1,0.1c0.1,0,0.2-0.1,0.2-0.2
							c0.2,0.2,0.4-0.2,0.5,0c0.3-0.2,0.6-0.3,0.8-0.4c0,0.2-0.3,0.1-0.2,0.3c0.2-0.1,0.4-0.3,0.6-0.4c0.1,0,0,0.1-0.1,0.1
							c0.2-0.1,0.5-0.1,0.7-0.2c0,0,0,0.1-0.1,0.1c0.1,0,0.1,0,0.1-0.1l-0.1,0.1c-0.1-0.1,0.1-0.3,0.1-0.4c-0.1,0.2,0.2,0,0.2,0.3
							c0,0,0.1-0.1,0.1-0.1c0.1,0,0.1,0.1,0.1,0.1c0.2-0.1,0.1-0.1,0.2-0.2c0,0.1,0,0.1,0,0.1c0.1-0.1,0.1-0.2,0.2-0.2v0.1
							c0.2-0.1,0.4-0.2,0.6-0.2c-0.1,0.2,0.1,0.1,0.1,0.2l0.1-0.1l-0.1-0.1c0.1,0,0.2-0.1,0.3-0.1l-0.1,0.1l0.2-0.1h-0.1
							c0.1-0.1-0.1-0.2,0.1-0.2c0,0,0.1,0,0.2,0.1c0.1-0.1,0.1-0.1,0.2-0.1c0,0.1,0,0.1,0,0.2c0.1-0.1,0.2-0.1,0.3-0.2v0.1l0.1-0.1
							c0.1,0,0.1,0,0.1,0.1c0.2,0-0.1-0.1,0.1-0.1c0,0,0,0-0.1,0.1c0.2,0,0.4-0.1,0.5-0.1c0.1,0.1-0.1,0.1-0.1,0.1
							c0.2-0.1,0.5-0.2,0.7-0.3h-0.1c0-0.2,0.2,0.1,0.3-0.1v0.1c0.2,0,0.4-0.1,0.6-0.2v0.1c0.1,0,0.2-0.1,0.4-0.1
							c0-0.1,0.1-0.1,0.1-0.1c0.4,0.1,0.6-0.2,0.9-0.1c-0.1,0-0.1,0.1-0.1,0.1l0.2-0.1c0-0.1-0.1,0-0.1-0.1c0-0.1,0.1-0.1,0.2-0.1
							c-0.1,0.1,0,0.1,0.1,0.1v-0.1c0.1,0.1,0-0.1,0.2-0.1c0.1,0,0.1-0.1,0.2-0.1c0.1,0.1-0.1,0.1-0.1,0.1c0.1,0,0.2-0.1,0.3-0.1
							c-0.1,0-0.1,0.1-0.1,0.1c0.1,0.1,0.1,0,0.2,0h0.2h-0.1c0.1-0.1,0.2-0.1,0.4-0.2c-0.2,0.1,0,0.1,0,0.1c0.1,0,0.1,0,0.1,0
							c0.1-0.1,0.1,0,0.2-0.1h0.1c0.1-0.1,0,0,0-0.1c0.2-0.1,0.4-0.1,0.6-0.1c0.2-0.1,0.2-0.1,0.4-0.2c0.1,0-0.1,0.1-0.1,0.1
							c0.1,0,0.2-0.1,0.2-0.1c0,0,0,0,0.1,0c0.1,0,0.1-0.1,0.1-0.1c0,0-0.1,0-0.1,0.1c0.1,0,0.2-0.1,0.2-0.1c0,0-0.1,0-0.1,0.1
							c0.1,0,0.2-0.1,0.3-0.1h-0.1c0.1,0,0,0,0,0c-0.1,0-0.1,0-0.1,0h0.1c-0.1,0-0.2,0.1-0.4,0.1l0.1-0.1l-0.1,0.1
							c-0.1,0-0.1,0,0-0.1c-0.1,0-0.1,0-0.2,0h-0.1c0,0,0,0,0.1,0c-0.2,0-0.2,0.1-0.4,0.1c-0.2,0.1,0,0.1-0.2,0.1l-0.1-0.1v0.1h-0.1
							c-0.1,0.1,0,0,0,0.1c-0.1,0-0.3,0.1-0.4,0c-0.1,0.1,0.1,0,0,0.1c-0.1-0.1-0.1,0.1-0.2,0c0-0.1,0.1-0.1,0-0.1
							c-0.1,0.1-0.2,0-0.3,0.1c0,0.1-0.2,0.1-0.4,0.1c0,0-0.3,0-0.4,0c0,0.1-0.2,0.1-0.2,0.1c0-0.1,0-0.1,0.1-0.1H161
							c0,0-0.1,0.1-0.1,0.1v-0.1c-0.1,0-0.2,0.1-0.4,0.1c0,0.1,0.2,0.1,0,0.2c0,0,0-0.1,0-0.1c0,0-0.1,0.1-0.1,0l0.1-0.1
							c-0.1,0-0.1,0.1-0.1,0.1c0-0.1-0.1,0-0.1-0.1h0.1c-0.1,0-0.2,0-0.2-0.1c0,0,0,0.1-0.1,0.1c-0.1,0-0.1-0.1-0.1-0.1
							c0,0.1-0.1,0-0.1,0.1c-0.1,0-0.1,0-0.1-0.1c-0.1,0.1-0.3,0.1-0.2,0.1c-0.2,0.1-0.5,0.1-0.6,0.1c-0.1,0.1-0.3,0.1-0.4,0.1
							c-0.1,0-0.1-0.1-0.1-0.1c-0.1,0.1-0.1,0.1-0.2,0.1c0.1-0.1-0.1-0.1,0.1-0.1c-0.1,0-0.2-0.1-0.3,0.1c0.1-0.1-0.1-0.1-0.2-0.1
							l0.1,0.1c-0.1,0-0.1,0-0.2,0.1v-0.1c-0.3-0.1-0.4,0.3-0.6,0.1c-0.1,0.1,0.2,0,0.1,0.1c-0.1,0-0.3-0.1-0.3-0.1
							c-0.2-0.1-0.1,0.2-0.3,0.2c0.1,0.1,0.1,0.1-0.1,0.2c-0.1,0-0.2-0.1-0.1-0.2h0.1c0.1,0,0.1-0.1,0-0.1v0.1
							c-0.1-0.1-0.2,0-0.2-0.1c-0.1,0.1,0,0.1,0.1,0.1c-0.2-0.1-0.2,0.1-0.4,0.1c0.1,0,0.1,0.1,0.1,0.1c-0.2,0-0.1,0.1-0.2,0.1
							c-0.1-0.1,0-0.2-0.1-0.1c-0.1,0-0.1-0.1,0-0.2c-0.1,0.1-0.3,0-0.4,0l0.1-0.1c-0.1,0-0.1,0.1-0.1,0.1l0.1,0.1
							c-0.1,0-0.1,0-0.1-0.1c-0.1,0.1,0.1,0.1,0,0.2c-0.1-0.1-0.2,0.1-0.2-0.1c0.2,0-0.1-0.1,0.1-0.2c0,0-0.1,0-0.1,0c0,0,0,0,0-0.1
							c-0.2-0.1-0.1,0.1-0.2,0.2c0-0.1-0.1-0.1-0.1-0.1c0.1,0,0.1,0.1,0,0.2c-0.1,0-0.1,0.1-0.2,0.1h0.1c0,0.1-0.1,0.1-0.2,0.1
							c0-0.1,0.1-0.1,0.1-0.1c-0.1,0.1-0.2-0.1-0.4,0c-0.1-0.1-0.1-0.1-0.1-0.2c-0.1,0.1-0.2-0.1-0.3,0.1c0.1,0.1,0.1,0.1,0,0.2
							l0.2-0.1l-0.1,0.2c0.1,0,0.1-0.1,0.2-0.1c-0.1,0.1-0.1,0.1,0,0.1c-0.1-0.1-0.2,0.1-0.4,0.1l-0.1-0.2c-0.2-0.1-0.3,0.2-0.5,0.2
							h0.1c0,0.1-0.1,0.1-0.2,0.1c0-0.1-0.1-0.1-0.1-0.1c0,0.1-0.2,0-0.2,0.2l-0.1-0.1c-0.2,0-0.2,0.3-0.4,0.3
							c0.1-0.1-0.1-0.1,0.1-0.2c-0.1,0-0.1,0-0.1,0.1c-0.1-0.1-0.1,0.1-0.2,0.1c0,0.1,0,0.1-0.1,0.1v-0.1c0,0.1-0.1,0.1,0,0.2
							c-0.2-0.2-0.5,0.1-0.7-0.1c-0.1,0.1-0.3,0.1-0.4,0.1v-0.1c-0.2-0.1-0.1,0.2-0.3,0.2c-0.1-0.1,0.1-0.1,0-0.1
							c-0.1-0.3-0.2,0.1-0.4-0.1c-0.1-0.1-0.2,0.1-0.4,0.1c0,0,0,0,0-0.1c-0.1,0.2-0.3,0.2-0.5,0.2c0.1-0.1,0.1-0.1,0.1-0.2
							c-0.1,0,0,0.2-0.1,0.2c-0.1-0.1-0.2-0.1-0.2-0.2h0.1c-0.1-0.2-0.2,0-0.2,0v-0.1c-0.2,0-0.2,0.2-0.4,0.2v0.1
							c-0.1,0.2-0.1-0.1-0.2,0.1L148,104c-0.1,0.1-0.3,0.2-0.4,0.2c0.1-0.1,0.2-0.2,0.4-0.2c-0.1,0-0.2,0-0.3,0.1
							c0.1,0,0.1-0.1,0.1-0.1c-0.1,0.1-0.2,0.2-0.4,0.2c0.1-0.4-0.4-0.1-0.5-0.4c-0.3,0.1-0.5-0.1-0.8-0.1c0.1,0.3-0.1,0-0.1,0.3
							c-0.1,0-0.1,0-0.1,0l-0.2-0.2c-0.1-0.1,0.1-0.1,0.1-0.1c-0.2-0.1-0.1-0.1-0.1-0.2c0,0.1-0.1,0.1-0.2,0.1l0.1,0.1
							c-0.2,0.1-0.2-0.2-0.4-0.2l0.1-0.1c-0.1,0.1-0.4-0.1-0.5,0.1c0-0.1,0-0.1,0-0.1c-0.2-0.1-0.6,0.1-0.8-0.1l0.1-0.1
							c-0.1,0-0.1,0.1-0.2,0c0,0,0.1-0.1,0-0.1c-0.1,0-0.2,0.1-0.2,0.1l0.1-0.1c-0.2-0.1-0.5,0.1-0.6,0.1c0.1-0.2-0.2-0.3-0.2-0.4
							c-0.3-0.1-0.5,0.1-0.9,0.1c-0.1-0.2-0.6-0.2-0.8-0.4c0.1,0.1-0.1,0.1-0.1,0.1c-0.1-0.1-0.2,0.1-0.2-0.1c0-0.2-0.2-0.2-0.3-0.2
							l-0.1,0.2c-0.2-0.4-0.8-0.1-0.8-0.4c-0.1,0.1-0.2,0-0.2,0.1v-0.1c-0.2-0.1-0.3-0.1-0.5-0.1l0.1-0.1c-0.1-0.1-0.2,0.2-0.4,0.2
							v-0.2c-0.2-0.1-0.4-0.2-0.7-0.1c0,0,0-0.1,0.1-0.1c-0.1,0-0.4-0.2-0.4,0c0-0.1-0.2-0.1-0.4-0.1l0.1-0.1
							c-0.1,0.1-0.1,0.1-0.3,0.1c-0.1,0,0-0.1,0-0.1c-0.1-0.1-0.1,0.1-0.2,0l0.1-0.1c-0.1-0.1-0.1,0-0.2,0.1c-0.1,0-0.2-0.1-0.2-0.1
							c0,0.1-0.1,0.1-0.2,0.1c0,0,0-0.1,0.1-0.1c-0.2-0.1-0.3,0.1-0.4-0.1v-0.1c0.2,0.1,0.3,0.1,0.3,0.1c0-0.1-0.1-0.1,0-0.2
							c-0.1,0.1-0.3,0.1-0.4,0.1h-0.1c-0.1,0-0.1-0.1-0.1-0.1c0-0.1-0.1-0.1-0.2-0.1c0,0.1-0.1,0.1,0,0.1c0,0,0,0,0.1,0
							c0.1,0,0.1,0,0.2,0c-0.1,0-0.1,0.1-0.2,0c-0.1,0.1-0.1,0.1-0.1,0.1c-0.1-0.1-0.2-0.2-0.2-0.3c-0.2,0-0.5-0.1-0.6,0.1
							c-0.1,0-0.1-0.1-0.1-0.1c0.1,0,0.1,0,0.1,0c-0.1,0-0.4-0.1-0.4,0c-0.1-0.1,0.1-0.1-0.1-0.1h0.1c-0.4-0.2-0.6,0.1-1-0.2
							c0,0,0.1,0,0.1,0.1c-0.5-0.1-1-0.2-1.4-0.3c-0.1-0.1-0.2,0-0.2,0v-0.1h-0.1c-0.2,0-0.4-0.1-0.6-0.1c-0.1,0-0.3-0.1-0.3-0.1
							h-0.1l-0.2-0.1c-0.2-0.1,0.1,0-0.2-0.1c-0.1,0-0.2-0.1-0.2-0.1c0,0,0.1,0,0.1,0h-0.1c0,0-0.1,0,0.1,0.1l0.1,0.1h0.1l-0.1-0.1
							c0.1,0,0.1,0.1,0.2,0.1h0.1h0.1c0,0-0.1,0,0,0s-0.1-0.1,0.1,0c0.1,0,0.1,0.1,0.1,0.1c0,0,0,0-0.1,0c0.1,0,0.2,0.1,0.2,0.1
							c0.1,0.1,0.2,0.1,0.2,0.1c0,0,0.1,0,0.2,0c-0.1,0,0.2,0.1,0.2,0.1c0.1,0,0.3,0.1,0.5,0.1c0,0,0,0-0.1,0c0.1,0,0.1,0.1,0.2,0.1
							c0-0.1,0.2,0,0.2-0.1c0.1,0.1-0.1,0.1-0.1,0.1c0-0.1,0.2,0,0.2-0.1c0.1,0.1,0.1,0.1,0.1,0.1c0.1-0.1,0.1,0,0.2,0
							c0.1,0.1,0,0.1,0.2,0.1C133,101.8,132.9,101.8,132.9,101.8z M136.1,102.4L136.1,102.4C136.1,102.4,136.1,102.4,136.1,102.4z
							 M136.4,102.5c-0.1,0-0.1,0-0.1-0.1c0,0,0-0.1,0.1-0.1C136.3,102.4,136.4,102.5,136.4,102.5z M135.9,101.8
							C136,101.8,136,101.9,135.9,101.8C135.9,101.9,135.9,101.9,135.9,101.8C135.9,101.9,135.9,101.8,135.9,101.8z"/>
						<path id="Vector_50" fill="#EEF7FF" d="M161.3,102.5C161.3,102.5,161.4,102.5,161.3,102.5C161.4,102.5,161.4,102.5,161.3,102.5
							z"/>
						<path id="Vector_51" fill="#EEF7FF" d="M154.8,104.1C154.7,104.2,154.8,104.1,154.8,104.1L154.8,104.1z"/>
						<path id="Vector_52" fill="#EEF7FF" d="M157,103.4L157,103.4C157,103.5,157.1,103.5,157,103.4z"/>
						<path id="Vector_53" fill="#EEF7FF" d="M163.8,102c0.1,0,0.1,0,0.2-0.1C163.9,101.9,163.8,101.9,163.8,102z"/>
						<path id="Vector_54" fill="#EEF7FF" d="M162.9,102h0.2c-0.1,0-0.1,0,0-0.1C162.9,101.9,163.1,102,162.9,102z"/>
						<path id="Vector_55" fill="#EEF7FF" d="M158.7,102.7L158.7,102.7C158.6,102.7,158.7,102.7,158.7,102.7z"/>
						<path id="Vector_56" fill="#EEF7FF" d="M158.1,103.2L158.1,103.2L158.1,103.2L158.1,103.2z"/>
						<path id="Vector_57" fill="#EEF7FF" d="M157.6,102.8l-0.1,0.1L157.6,102.8z"/>
						<path id="Vector_58" fill="#EEF7FF" d="M151.4,104l0.1,0.1C151.5,104,151.4,103.9,151.4,104z"/>
						<path id="Vector_59" fill="#EEF7FF" d="M148.8,104.2c0-0.1-0.1-0.1-0.2-0.1C148.7,104.2,148.7,104.3,148.8,104.2z"/>
					</g>
					<g id="Group_11">
						<path id="Vector_60" fill="#8EBAFE" d="M131,244.4c0.1,0.1,0,0-0.1-0.1l-0.1-0.1L131,244.4z"/>
						<path id="Vector_61" fill="#8EBAFE" d="M130.4,243.4c-0.1-0.2-0.2-0.4-0.2-0.2c0.1,0.1,0.1,0.2,0.2,0.4
							c0.1,0.1,0.1,0.2,0.1,0.2c0.1,0.1,0.1,0.2,0.2,0.3C130.7,243.9,130.6,243.6,130.4,243.4C130.4,243.4,130.4,243.4,130.4,243.4z"
							/>
						<path id="Vector_62" fill="#8EBAFE" d="M123.6,229.2v0.1C123.7,229.2,123.6,229.2,123.6,229.2z"/>
						<path id="Vector_63" fill="#8EBAFE" d="M120.6,219.9c0,0.1,0.1,0.1,0.1,0.1C120.7,220,120.6,219.9,120.6,219.9z"/>
						<path id="Vector_64" fill="#8EBAFE" d="M120.5,218.2c0,0.1,0,0.1,0,0.1C120.5,218.3,120.5,218.3,120.5,218.2z"/>
						<path id="Vector_65" fill="#8EBAFE" d="M123.6,229.2v-0.3C123.5,229,123.6,229.1,123.6,229.2z"/>
						<path id="Vector_66" fill="#8EBAFE" d="M129.2,241.6c0.1,0.1,0.1,0.1,0.1,0.1L129.2,241.6z"/>
						<path id="Vector_67" fill="#8EBAFE" d="M125.4,233.1L125.4,233.1c0.1,0.1,0.1,0.1,0.2,0.1L125.4,233.1z"/>
						<path id="Vector_68" fill="#8EBAFE" d="M126.9,236.1c0-0.1-0.2-0.1-0.2-0.1C126.7,236,126.7,236.1,126.9,236.1
							C126.8,236.2,126.8,236.2,126.9,236.1z"/>
						<path id="Vector_69" fill="#8EBAFE" d="M129,240.9L129,240.9C129,240.9,129,240.9,129,240.9z"/>
						<path id="Vector_70" fill="#8EBAFE" d="M129,138.2L129,138.2L129,138.2z"/>
						<path id="Vector_71" fill="#8EBAFE" d="M120.1,215.2C120.2,215.3,120.2,215.3,120.1,215.2L120.1,215.2z"/>
						<path id="Vector_72" fill="#8EBAFE" d="M117,187.8c-0.4,0.3-0.4-0.5-0.8-0.1C116.4,187.7,116.8,188.2,117,187.8z"/>
						<path id="Vector_73" fill="#8EBAFE" d="M129.2,241.5l-0.1-0.1C129.1,241.5,129.2,241.5,129.2,241.5z"/>
						<path id="Vector_74" fill="#8EBAFE" d="M118.5,208.5c-0.1,0-0.1,0.1-0.1,0.1C118.5,208.5,118.5,208.5,118.5,208.5z"/>
						<path id="Vector_75" fill="#8EBAFE" d="M117.7,205.9c0-0.1,0.1-0.1,0-0.2c0,0,0,0-0.1,0.1C117.7,205.8,117.7,205.8,117.7,205.9
							z"/>
						<path id="Vector_76" fill="#8EBAFE" d="M117.3,203.1L117.3,203.1l-0.1,0.1L117.3,203.1z"/>
						<path id="Vector_77" fill="#8EBAFE" d="M122.8,149.1c0.1-0.1,0.1-0.1,0.2-0.1C122.9,149,123,148.6,122.8,149.1z"/>
						<path id="Vector_78" fill="#8EBAFE" d="M129.2,241.6C129.2,241.6,129.2,241.6,129.2,241.6L129.2,241.6
							C129.2,241.6,129.2,241.6,129.2,241.6z"/>
						<path id="Vector_79" fill="#8EBAFE" d="M116.4,168.6v-0.1C116.3,168.5,116.3,168.5,116.4,168.6z"/>
						<path id="Vector_80" fill="#8EBAFE" d="M114.6,204.4c0.1-0.1,0.2-0.2,0.2-0.3c-0.1,0-0.1-0.1-0.1-0.1L114.6,204.4z"/>
						<path id="Vector_81" fill="#8EBAFE" d="M124,146.2c-0.2,0.4,0.1,0.2,0.1,0.4c-0.2,0.5-0.2,0.2-0.4,0.3
							c-0.1,0.3-0.1,0.6-0.2,0.8c-0.1,0-0.1,0.1-0.1,0c0,0.4-0.4,0.9-0.4,1.4c-0.1,0-0.1,0-0.1,0c0.1,0,0.2,0,0.3,0.1
							c-0.1,0.2,0,0.4-0.2,0.4c0.1-0.1,0-0.1,0-0.2v0.2c-0.3,0.1,0.1-0.3-0.1-0.4c-0.1,0.4-0.1,0.9-0.3,1.1c-0.2,0,0.2-0.6-0.1-0.4
							l0.2-0.4c-0.5,0.2,0.1-0.2-0.3-0.1c-0.3,0.5-0.2,0.6-0.5,1.2c0.1,0.2,0.2,0,0.2,0.2c-0.1,0.9-0.8,0.4-0.8,1.1
							c0.1,0.2,0.4,0.4,0,0.8l-0.2-0.2c-0.2,0.5,0.2,0.5-0.2,0.9c-0.1-0.1,0.1-0.5,0-0.4c-0.4,0.3,0.1,0.3-0.1,0.6h-0.3
							c-0.2,0.6-0.2,1.4-0.5,2c-0.1-0.1-0.1-0.2-0.2-0.1c-0.2,0.9-0.7,1.8-1.1,2.5l0.2,0.4c0,0.1-0.2,0.1-0.2,0
							c-0.2,0.3,0.2,0.1,0.2,0.2c-0.1,0.2-0.2,0.2-0.3,0.1c0,0.6-0.1,1.8-0.5,2.2l-0.1-0.1c-0.2,0.4,0.4,0.7,0,1.1v-0.1
							c-0.4,0.9-0.5,2.2-1.1,2.8c0.4,0.2-0.5,0.9,0.1,1.2c-0.5,0.5-0.5,0.3-0.9,1.1c-0.1,0.2,0.3,0.4,0.4,0.7l-0.4-0.1l0.3,0.5
							l-0.5,0.1v0.3c0.1-0.1,0.2-0.2,0.3-0.2c0.1,0.4-0.5,0.9-0.6,0.9l0.1,1c-0.1-0.1-0.2-0.2-0.2-0.4c0.2,0.6-0.4,0-0.2,0.5
							c0.1-0.1,0.2,0.1,0.3,0.1c-0.2,0.2-0.4,0.7-0.4,1.1l-0.2-0.1c-0.2,0.7-0.2,1.5-0.3,2.3c0.2-0.3,0.6-0.1,0.6,0.1l-0.4,0.1
							c0.2,0.2,0.2-0.2,0.4,0.1c-0.1,0.3-0.5,0.1-0.6-0.1l0.1,0.4c-0.1,0-0.2-0.1-0.3-0.1c0.2,0.2-0.5,0.6-0.1,0.8h-0.1
							c-0.1,0.8-0.1,1.2-0.1,1.8c0.4,0.1,0.2,0.3,0.5,0.5c-0.2,0.5-0.5,0.9-0.5,1.5c0.1,0.4,0.3,0.2,0.5,0.4c-0.4,0-0.4,0.6-0.6,0.2
							c0,0.7-0.1,0.9,0.1,1.8c0.1-0.1,0.2-0.2,0.3-0.1c0.1,0.2-0.2,0.4-0.4,0.3l-0.1-0.1c0.4,1-1.1,2.2-0.5,3.1l-0.1-0.1l0.3,0.8
							c-0.1,0.4-0.2-0.2-0.5,0.1c0.5,0.9-0.1,1.4,0.2,2.1c-1,0.5,0.1,2-0.6,2.8l0.2-0.1c0.2,0.2-0.1,0.2-0.2,0.4
							c0.2,0,0.2-0.2,0.4-0.1c0.4,1.7-0.3,3.5-0.4,5.2c0,0.6,1.2,0.3,0.8,1.1l-0.5-0.2c0.6,1.2,0.1,2.6,0.8,3.8
							c-0.1-0.1-0.2-0.1-0.2-0.2c-0.3,0.3,0.1,0.9,0.4,0.9c0,0.2-0.2,0.1-0.4,0.2c-0.2,0.3,0.5,0.6,0.2,0.8c-0.1,0.1-0.1-0.1-0.1-0.1
							c0.2,0.2,0.1,0.8,0.4,0.6c-0.1,0.5,0.3,0.9,0.1,1.2c0.4,0.2-0.1,0.8,0.5,0.8c-0.6,0.1-0.3,0.9,0,1.1c-0.2-0.1-0.1,0.3-0.4,0.2
							c0.1,0.4,0.2,0.6,0.5,0.5c-0.5,0.7,0.8,1.1-0.1,1.6c0.5,0.9,0.9,1.8,1.2,2.7c-0.5,0.1-0.3-0.9-0.8-0.8c0.4,0.8,1,1.2,1.1,2
							c0,0.2-0.2-0.1-0.4-0.1c0.4,0.8,0.3,1.6,0.8,2.3c-0.1,0-0.1-0.1-0.2-0.1c0.1,0.1,0,0.4,0.2,0.3l-0.1-0.1c0.3-0.3,0.8,0.4,1,0.4
							c-0.7-0.1,0.1,0.8-0.9,0.6c0.1,0.1,0.2,0.2,0.4,0.1c0,0.2-0.1,0.2-0.3,0.1c0.3,0.5,0.5,0.2,0.6,0.7c-0.1,0-0.2-0.1-0.3-0.1
							c0.3,0.2,0.5,0.4,0.6,0.8c-0.1,0-0.1,0.1-0.2-0.1c0.2,0.6,0.9,1,0.9,1.8c-0.5-0.1-0.1,0.3-0.4,0.4l0.2,0.4l0.1-0.2
							c0.1,0.4,0.5,0.6,0.5,0.9l-0.2-0.2l0.3,0.6V220c0.3,0.3,0.5-0.2,0.5,0.3c-0.1-0.1,0.1,0.4-0.1,0.6c0.2,0.1,0.4,0.3,0.4,0.5
							c-0.1,0.1-0.4,0.1-0.5,0.1c0.4,0.1,0.4,0.8,0.7,0.9c-0.1-0.1-0.3,0-0.3,0.1l0.3,0.1c0,0.2-0.1,0.2-0.2,0.2
							c0.1,0.5,0.4-0.3,0.4,0.4c-0.1-0.1-0.1,0-0.1-0.1c0.1,0.6,0.5,1.1,0.6,1.6c-0.2,0.3-0.2-0.4-0.5-0.1c0.4,0.7,1,1.4,1.2,2.1
							v-0.1c0.5-0.1,0,0.6,0.4,0.9c-0.1-0.1-0.3,0-0.2,0c0.1,0.5,0.5,0.9,0.9,1.7l-0.1-0.1c0.1,0.3,0.3,0.8,0.4,1.1
							c0.1,0.1,0.2,0.2,0.3,0.1c-0.1,1.1,1.1,1.7,1.1,2.7c-0.1-0.1-0.2-0.2-0.1-0.1l0.4,0.6c0.1-0.1,0.1-0.1,0.1-0.3
							c0.1,0.1,0.2,0.2,0.4,0.4c-0.2-0.3-0.2,0.1-0.2,0.2c0-0.1,0.1,0,0.1-0.1c-0.1,0.5,0.2-0.1,0.4,0.5h-0.1
							c0.1,0.2,0.3,0.3,0.4,0.5c-0.1,0.1-0.2-0.2-0.3-0.1c0.2,0.3,0.5,0.4,0.5,0.8c-0.1-0.1-0.2-0.3-0.3-0.4c0,0.4,0.1,0.4,0.1,0.6
							l0.2,0.5V236c0.5,0.2,0.4,0.6,0.9,1.1c-0.4-0.4-0.1,0-0.3,0c0.1,0.1,0.1,0.4,0.1,0.3c0.2,0.2,0.1,0.4,0.4,0.6
							c0,0.1,0.1,0.2,0,0.2c0.2,0.3,0-0.1,0.1-0.1c0.4,0.4,0.4,1.1,0.9,1.7c0.4,0.5,0.5,0.5,0.8,1.1c0.1,0.2-0.2-0.1-0.2-0.1
							c0.1,0.3,0.2,0.5,0.4,0.7c-0.1-0.1,0,0,0,0.1c0.1,0.2,0.1,0.1,0.3,0.4c-0.1-0.1-0.1-0.1-0.2-0.2c0.2,0.2,0.4,0.5,0.5,0.7
							c0,0.1-0.1-0.1-0.2-0.2c0.2,0.3,0.5,0.7,0.5,0.8l-0.1-0.2c0.1,0.1,0,0.1-0.1,0c-0.2-0.2-0.2-0.4-0.2-0.4l0.1,0.2
							c-0.1-0.2-0.4-0.7-0.6-1.1l0.2,0.1l-0.3-0.4c0-0.1,0-0.2,0.1,0c-0.1-0.3-0.2-0.2-0.2-0.5l-0.2-0.2c0.1,0.1,0.1-0.1,0.1,0.1
							c-0.2-0.5-0.5-0.7-0.5-0.9v0.1c-0.4-0.6-0.1,0-0.5-0.4c0-0.1,0-0.3,0.1-0.4h-0.1c-0.1-0.1-0.1-0.2-0.1-0.2
							c-0.2-0.2,0,0.1-0.2-0.1c-0.1-0.4-0.5-0.9-0.4-1c-0.1-0.1,0.1,0.4-0.1,0c0.1-0.2-0.2-0.4-0.3-0.7c0.2,0.1,0.2,0.4,0.2,0
							c-0.2-0.1-0.2-0.6-0.4-0.8c-0.2,0.1-0.4-0.5-0.6-0.9c0.1,0-0.3-0.8-0.4-1.2h0.1c-0.2,0-0.4-0.4-0.5-0.7c0.1-0.1,0.2,0,0.3,0.1
							l-0.1-0.3c-0.1-0.1-0.2-0.1-0.2-0.3h0.2c-0.2-0.4-0.5-0.6-0.6-1.2c-0.2,0.1-0.2,0.6-0.6,0.1c0.1-0.1,0.2-0.1,0.3,0
							c-0.1-0.1-0.1-0.1-0.1-0.2l0.2,0.1c-0.1-0.2-0.2-0.1-0.2-0.2c0.1-0.1,0.1-0.2,0.1-0.2c0.1,0.1,0,0.2,0.1,0.2
							c-0.1-0.2-0.1-0.5,0-0.6c-0.1,0.1-0.2,0.1-0.2-0.1c-0.2-0.4,0.1-0.2,0.1-0.4c-0.1-0.1-0.1-0.4-0.4-0.2
							c-0.1-0.1,0.1-0.2,0.1-0.2c-0.2-0.2-0.4-0.9-0.5-0.6v0.1c-0.5-0.5-0.4-1.4-0.7-1.9h0.1c-0.2-0.4-0.4-0.8-0.6-1.1
							c-0.1-0.1,0.1-0.3,0.2-0.3c-0.2-0.3-0.3-0.3-0.3-0.7c0.2,0.2,0.1-0.2,0.2,0.2c-0.1-0.4,0.1-0.5-0.4-0.9
							c0.2,0.1,0.2-0.4,0.1-0.5l-0.1,0.3c-0.1-0.2-0.2-0.4-0.2-0.5h0.3c0.1-0.9-1.1-1.2-0.6-2c-0.3-0.1,0,0.5-0.4,0.4
							c-0.1-0.4,0.2-0.9,0.2-1c0-0.5-0.6-0.3-0.6-0.9c-0.1,0.1-0.4,0.2-0.6-0.1c-0.1-0.4,0.4-0.6,0.5-0.4c0.1,0.1,0,0.1,0,0.1
							c0.1,0.1,0.2,0.2,0.2,0.1h-0.1c0.1-0.2-0.1-0.7,0.1-0.6c-0.2-0.2-0.2-0.1-0.2,0.2c0.1-0.5-0.2-0.7-0.2-1.2
							c-0.1,0.1-0.2,0.2-0.2,0.1c0-0.8-0.3-0.2-0.5-0.7c0.1-0.4,0.5,0,0.2-0.5c0.1-0.4,0.3-0.2,0.4-0.1c-0.4-0.4-0.1-0.9-0.1-1.1
							l0.2,0.2c-0.1-0.1-0.1-0.2-0.1-0.4l-0.2,0.2c0-0.2,0-0.2,0.1-0.3c-0.2-0.1-0.4,0.2-0.7,0c0.1-0.2-0.3-0.5,0.1-0.6
							c0,0.6,0.4-0.2,0.5,0.3c-0.1-0.1-0.1-0.2-0.1-0.4c0.1-0.1,0.1,0,0.1,0.1c0.2-0.7-0.5-0.2-0.6-0.7c0.2,0,0.4-0.2,0.3-0.3
							c0.1,0.2-0.3,0.2-0.5,0c0.1-0.4-0.2-0.4-0.2-0.6v0.2c-0.2,0-0.2-0.2-0.4-0.5c0.2-0.1,0.2,0.2,0.2,0.1c-0.4-0.2,0.2-0.7-0.1-1.1
							c0.1-0.2,0.4-0.1,0.4-0.3c-0.4-0.4,0.2-0.5-0.1-0.9c-0.2,0.2-0.2,0.2-0.5-0.1l0.4,0.7l-0.5-0.4c0.1,0.2,0.3,0.5,0.2,0.6
							c-0.3-0.2-0.2-0.2-0.4,0c0.4-0.4-0.4-0.6-0.2-1l0.7-0.1c0.2-0.6-0.5-0.9-0.5-1.7l-0.1,0.2c-0.3-0.1-0.1-0.4-0.3-0.6
							c0.2,0,0.3-0.2,0.4-0.3c-0.2,0.1-0.1-0.5-0.5-0.5l0.2-0.4c0.1-0.6-0.8-0.5-0.8-1.1c0.3,0.1,0.4-0.2,0.6,0.2
							c0-0.2,0-0.4-0.2-0.4c0.1-0.1-0.4-0.5-0.2-0.6c-0.1-0.1-0.4-0.1-0.4-0.2c0.1-0.1,0.1,0,0.1,0c-0.1,0-0.2-0.3-0.5-0.1
							c0.4-0.4,0.2-0.8,0.2-1.1c-0.1-0.4-0.2-0.8,0.1-1.1c-0.1-0.4-0.3-0.9-0.4-1.2c0.1,0,0.1,0,0.1,0.1c0.2-0.5-0.8-0.2-0.6-0.8
							c0.4-0.4,0.2,0.3,0.4,0.1c0.8-0.2-0.2-0.7,0.2-1.1l0.1,0.1c0.2-0.4-0.4-0.7-0.4-1.2c0,0,0.1,0,0.1,0c-0.5-0.3-0.6-0.9-0.8-1.4
							c0.4,0.1,0.2,0.2,0.5,0.1c-0.1-0.2-0.5,0.1-0.6-0.3c0.2-0.2,0.3-0.5,0.6-0.5l0.1,0.4c0.5-0.2-0.1-0.5,0-0.7h0.2
							c-0.1-0.6-0.6-0.6-0.6-1.2l-0.2,0.1c-0.5-0.4,0.3-0.3-0.1-0.6l0.5-0.1c-0.1-0.2-0.5-0.8-0.6-1.2c0.4,0.2,0.6,0.7,0.8,1
							c0-0.2-0.1-0.8-0.3-0.9c0.1,0.1,0.2,0.2,0.1,0.3c-0.4-0.3-0.6-0.6-0.6-1.1c1,0.1,0.2-1.2,1-1.6c-0.4-0.8,0.2-1.7,0.1-2.6
							c-0.8,0.4,0-0.3-0.8-0.2c-0.1-0.2-0.1-0.3,0-0.4l0.5-0.6c0.2-0.2,0.2,0.2,0.4,0.2c0.1-0.5,0.4-0.2,0.6-0.5
							c-0.3,0.1-0.4-0.2-0.3-0.5l-0.4,0.4c-0.4-0.7,0.7-0.6,0.3-1.3l0.2,0.2c-0.1-0.4,0.1-1.3-0.5-1.7c0.1-0.1,0.3-0.1,0.4,0.1
							c0.1-0.8-0.6-1.9-0.1-2.6l0.2,0.1c-0.1-0.2-0.4-0.3-0.1-0.5c0.1,0,0.2,0.1,0.2,0c-0.1-0.1-0.3-0.5-0.2-0.6l0.2,0.2
							c0.3-0.8-0.4-1.3-0.5-2c0.5,0.1,0.8-0.6,0.9-0.9h0.1c0.2-0.9-0.2-1.7-0.4-2.6c0.6-0.5,0.5-1.8,0.9-2.7
							c-0.1,0.1-0.4-0.1-0.4-0.2c0.1-0.2-0.2-0.6,0.2-0.5v0.1c0.5-0.1,0.4-0.5,0.5-0.8l-0.6-0.2c1-0.7,0.1-2.4,0.9-2.7
							c-0.1-0.2-0.1-0.5-0.2-0.8l0.3,0.1c0.2-0.6,0.3-0.8,0.4-1.6l0.2,0.2c0.1-0.4-0.8-0.7-0.6-1.1h0.5c0.2-0.7,0.6-1.3,0.5-2.1
							c0.1,0,0.2,0.1,0.2,0.2c0.1-0.4,0.6-1.2,0-1.2c0.4,0.1,0.2-0.7,0.2-1.1l0.2,0.1c-0.2-0.4-0.4-0.5-0.3-0.9
							c0.1-0.1,0.2-0.1,0.1,0.1c0.2-0.3-0.2-0.4,0.1-0.7l0.1,0.2c0.1-0.4,0-0.4-0.1-0.6c-0.1-0.2,0.2-0.6,0.5-0.6
							c-0.1-0.1-0.2-0.4-0.1-0.5c0.1,0,0.1,0.1,0.1,0.1c0.3-0.5,0-1,0.4-1.3c0.1,0,0.1,0,0.2,0c-0.2,0.5-0.3,0.8-0.3,0.8
							c0.2,0.1,0.4-0.3,0.6,0.1c-0.1-0.4-0.2-1-0.1-1.4h0.1v0.1c0.1-0.1,0.1-0.2,0.1-0.2c0.1-0.1,0.1-0.2,0.2-0.3
							c0.2,0,0.2-0.4,0.3-0.6c-0.2-0.1-0.1-0.3-0.4-0.1c0,0,0,0.1,0,0.2c0,0.1,0,0.1,0,0.1c-0.1,0.1-0.1,0.3-0.1,0.5
							c-0.1-0.2-0.1-0.4,0.1-0.5c-0.1-0.1-0.2-0.3-0.2-0.4c0.4-0.2,0.7-0.6,0.9-0.6c0.1-0.6,0.4-1.4,0.2-1.9c0-0.2,0.2-0.2,0.2-0.2
							c0,0.1-0.1,0.2,0,0.3c0-0.4,0.3-1,0.1-1.1c0.2-0.4,0.1,0.3,0.3-0.3l0.1,0.1c0.4-0.5,0.4-1,0.5-1.5c0.1-0.5,0.2-1,0.6-1.5
							c-0.1,0.1-0.1,0.1-0.1,0.1c0.7-1.4,1.1-2.9,1.8-4.2c0.2-0.4,0.1-0.5,0.2-0.7l0.1-0.1l0.1-0.4c0.2-0.6,0.6-0.9,0.9-1.7l-0.1,0.1
							c0.1-0.2,0.4-0.8,0.4-0.8c0,0,0-0.1,0.1-0.2l0.3-0.6c0.2-0.5,0,0.1,0.4-0.6c0.1-0.2,0.4-0.8,0.4-0.6c-0.1,0.1-0.2,0.2-0.2,0.3
							l0.1-0.2c0-0.1,0.1-0.2-0.2,0.4c-0.1,0.1-0.2,0.2-0.2,0.4l-0.1,0.1l0.2-0.3c-0.1,0.2-0.2,0.3-0.3,0.4c0,0-0.1,0.1-0.1,0.2
							c-0.1,0.1-0.1,0.2-0.2,0.4c-0.1,0.1,0.1-0.2-0.1,0.1c-0.1,0.2,0.2-0.2,0,0.2c-0.1,0.2-0.1,0.1-0.2,0.4c-0.1,0,0,0,0.1-0.1
							c-0.1,0.2-0.3,0.5-0.4,0.6c-0.2,0.2-0.4,0.6-0.5,0.6c0,0.1-0.1,0.4-0.2,0.6c0.1-0.4-0.4,0.7-0.5,0.5c0,0.3-0.5,0.9-0.6,1.4
							c0-0.1,0-0.1,0.1-0.1c-0.2,0.2-0.2,0.3-0.4,0.4c0.1,0.1-0.1,0.5-0.1,0.8c-0.3,0.2-0.1-0.3-0.2-0.2c0.1,0.1-0.2,0.6,0,0.5
							c-0.2,0.2-0.1,0.2-0.4,0.2c0.2,0.1-0.1,0.2-0.1,0.5c-0.3,0.3-0.2,0-0.4,0.4C123.9,146.6,124,146.2,124,146.2z M120.5,155.7
							c0-0.1,0.1-0.2,0.1-0.2S120.5,155.6,120.5,155.7z M120.2,156.5c0.1-0.1,0.1-0.2,0.1-0.4c0.1,0,0.2,0.1,0.1,0.1
							C120.4,156.2,120.3,156.4,120.2,156.5z M122.3,155.3c0,0.1-0.1,0.2-0.1,0.2C122.2,155.4,122.2,155.4,122.3,155.3
							C122.3,155.2,122.3,155.3,122.3,155.3z"/>
						<path id="Vector_82" fill="#8EBAFE" d="M122.1,155C122.1,154.9,122.1,154.9,122.1,155C122.1,154.9,122,155,122.1,155L122.1,155
							C122.1,155,122.1,155,122.1,155z"/>
						<path id="Vector_83" fill="#8EBAFE" d="M116.4,167.6L116.4,167.6v-0.1V167.6z"/>
						<path id="Vector_84" fill="#8EBAFE" d="M125,233.8L125,233.8C124.9,233.9,124.9,233.8,125,233.8z"/>
						<path id="Vector_85" fill="#8EBAFE" d="M125.9,235.6l0.1,0.3C125.9,235.8,125.9,235.7,125.9,235.6z"/>
						<path id="Vector_86" fill="#8EBAFE" d="M117.1,214.3C117,214.2,117,214.2,117.1,214.3C116.9,214.1,117,214.1,117.1,214.3z"/>
						<path id="Vector_87" fill="#8EBAFE" d="M119.8,221.1c-0.1-0.1-0.1-0.1-0.2-0.2C119.7,221,119.7,221.2,119.8,221.1z"/>
						<path id="Vector_88" fill="#8EBAFE" d="M119.5,220.6c0,0.1,0.1,0.2,0.1,0.4C119.6,220.8,119.6,220.7,119.5,220.6z"/>
						<path id="Vector_89" fill="#8EBAFE" d="M129.9,242.8L129.9,242.8L129.9,242.8z"/>
						<path id="Vector_90" fill="#8EBAFE" d="M130,242.8L130,242.8C130,242.9,130,242.9,130,242.8z"/>
						<path id="Vector_91" fill="#8EBAFE" d="M130.1,243.1l-0.1-0.1C130,242.9,130.1,243,130.1,243.1z"/>
						<path id="Vector_92" fill="#8EBAFE" d="M128.5,240.5c0.1,0.1,0.2,0.4,0.3,0.5C128.7,241,128.6,240.6,128.5,240.5z"/>
						<path id="Vector_93" fill="#8EBAFE" d="M127.6,238l0.2,0.5c0-0.1,0-0.2,0.1,0C127.7,237.9,127.9,238.7,127.6,238z"/>
						<path id="Vector_94" fill="#8EBAFE" d="M127,236.6c0.1,0.2,0.1-0.1,0.1-0.1C127,236.4,126.9,236.4,127,236.6z"/>
						<path id="Vector_95" fill="#8EBAFE" d="M122.6,225.9l0.2-0.1C122.7,225.6,122.7,225.8,122.6,225.9z"/>
						<path id="Vector_96" fill="#8EBAFE" d="M120.7,224.2l-0.1,0.2l0.2,0.1L120.7,224.2z"/>
						<path id="Vector_97" fill="#8EBAFE" d="M121.8,222.4L121.8,222.4l-0.1-0.2L121.8,222.4z"/>
						<path id="Vector_98" fill="#8EBAFE" d="M117.7,203.5l-0.4,0.1C117.4,203.8,117.8,203.8,117.7,203.5z"/>
						<path id="Vector_99" fill="#8EBAFE" d="M116.5,195.3c0.2-0.1,0.3-0.4,0.1-0.5C116.6,195,116.4,195.2,116.5,195.3z"/>
						<path id="Vector_100" fill="#8EBAFE" d="M118.8,170.4l0.1,0.2l-0.1-0.4V170.4z"/>
					</g>
					<g id="Group_12">
						<path id="Vector_101" fill="#8EBAFE" d="M171.7,231c0,0.1,0,0,0.1-0.1l0.1-0.1L171.7,231z"/>
						<path id="Vector_102" fill="#8EBAFE" d="M172.3,230.1c0.1-0.2,0.2-0.4,0.1-0.2c-0.1,0.2-0.1,0.2-0.2,0.4
							c-0.1,0.1-0.1,0.2-0.1,0.2c-0.1,0.1-0.1,0.2-0.2,0.3C172,230.5,172.1,230.3,172.3,230.1C172.3,230.1,172.3,230.1,172.3,230.1z"
							/>
						<path id="Vector_103" fill="#8EBAFE" d="M179.2,217.7L179.2,217.7L179.2,217.7z"/>
						<path id="Vector_104" fill="#8EBAFE" d="M182.5,209.4c0,0.1,0,0.1,0,0.1C182.6,209.5,182.6,209.4,182.5,209.4z"/>
						<path id="Vector_105" fill="#8EBAFE" d="M183.3,208.1C183.3,208.1,183.2,208.1,183.3,208.1
							C183.3,208.1,183.3,208.1,183.3,208.1z"/>
						<path id="Vector_106" fill="#8EBAFE" d="M179.2,217.7l0.2-0.2C179.3,217.4,179.3,217.6,179.2,217.7z"/>
						<path id="Vector_107" fill="#8EBAFE" d="M173.1,228.4c0,0.1-0.1,0.1-0.1,0.1L173.1,228.4z"/>
						<path id="Vector_108" fill="#8EBAFE" d="M177.6,221.3L177.6,221.3c-0.1,0.1-0.1,0.1,0,0.1V221.3z"/>
						<path id="Vector_109" fill="#8EBAFE" d="M176.2,223.9c0.1-0.1-0.1-0.1-0.1-0.2C176.1,223.8,176.1,223.8,176.2,223.9
							L176.2,223.9z"/>
						<path id="Vector_110" fill="#8EBAFE" d="M173.7,227.9L173.7,227.9C173.6,227.9,173.7,227.9,173.7,227.9z"/>
						<path id="Vector_111" fill="#8EBAFE" d="M186.6,179.9c-0.3,0.3-0.4-0.5-0.7,0C186,179.9,186.4,180.3,186.6,179.9z"/>
						<path id="Vector_112" fill="#8EBAFE" d="M173.2,228.3l0.1-0.1C173.2,228.2,173.2,228.3,173.2,228.3z"/>
						<path id="Vector_113" fill="#8EBAFE" d="M185.7,199.1c-0.1,0-0.1,0-0.1,0.1C185.6,199.2,185.6,199.1,185.7,199.1z"/>
						<path id="Vector_114" fill="#8EBAFE" d="M184.3,203.8l0.1-0.1C184.3,203.7,184.3,203.7,184.3,203.8z"/>
						<path id="Vector_115" fill="#8EBAFE" d="M185.6,196.6c0.1-0.1,0.1-0.1,0.1-0.2c0,0,0,0-0.1,0
							C185.7,196.5,185.7,196.6,185.6,196.6z"/>
						<path id="Vector_116" fill="#8EBAFE" d="M185.9,194C185.9,194,185.9,194,185.9,194l-0.1,0.1L185.9,194z"/>
						<path id="Vector_117" fill="#8EBAFE" d="M175.1,146.2c0-0.1,0.1-0.1,0.1-0.2C175.1,146.1,175,145.8,175.1,146.2z"/>
						<path id="Vector_118" fill="#8EBAFE" d="M183.2,196.2l0.1-0.4C183.3,195.9,183.2,196,183.2,196.2z"/>
						<path id="Vector_119" fill="#8EBAFE" d="M181.2,163.4L181.2,163.4C181.1,163.3,181.1,163.3,181.2,163.4z"/>
						<path id="Vector_120" fill="#8EBAFE" d="M183.4,194.6c0.1-0.1,0.2-0.1,0.2-0.2l-0.1-0.1L183.4,194.6z"/>
						<path id="Vector_121" fill="#8EBAFE" d="M173.8,143.7c0.2,0.4,0.2,0.1,0.4,0.1c0.2,0.4,0,0.2,0,0.4c0.2,0.2,0.4,0.4,0.5,0.6
							c0,0,0,0.1-0.1,0.1c0.2,0.2,0.4,0.8,0.7,1.1c0,0.1,0,0.1,0,0.1c0.1-0.1,0.1-0.1,0.2-0.2c0.1,0.2,0.2,0.2,0.2,0.4
							c-0.1-0.1-0.1-0.1-0.2-0.1l0.1,0.1c-0.1,0.2-0.2-0.2-0.3-0.1c0.2,0.3,0.5,0.6,0.6,0.9c-0.2,0.1-0.3-0.5-0.3-0.1l-0.1-0.4
							c-0.1,0.4-0.1-0.2-0.2,0.2c0.2,0.5,0.4,0.5,0.5,1.1c0.2,0.1,0.1-0.1,0.3-0.1c0.5,0.6-0.2,0.8,0.2,1.2c0.2,0.1,0.5,0,0.5,0.5
							h-0.3c0.2,0.5,0.5,0.1,0.5,0.7c-0.1-0.1-0.2-0.4-0.2-0.3c-0.1,0.4,0.2,0.2,0.4,0.4l-0.2,0.1c0.2,0.5,0.6,1,0.9,1.6
							c-0.1,0-0.2-0.1-0.2,0.1c0.4,0.7,0.6,1.6,0.6,2.4l0.3,0.2c0,0.1-0.1,0.2-0.1,0.1c0,0.3,0.1-0.1,0.3,0.1
							c0.1,0.2-0.1,0.2-0.2,0.2c0.4,0.4,0.9,1.2,0.8,1.9l-0.1-0.1c0,0.5,0.6,0.3,0.5,0.8l-0.1-0.1c0.2,0.9,0.8,1.8,0.5,2.7
							c0.4,0,0.1,0.9,0.6,0.8c-0.1,0.6-0.2,0.5-0.2,1.2c0,0.2,0.4,0.2,0.5,0.4l-0.3,0.1l0.4,0.2l-0.3,0.3l0.1,0.2
							c0-0.1,0.1-0.2,0.2-0.2c0.2,0.3,0,0.9-0.2,0.9l0.5,0.8c-0.1,0-0.2-0.1-0.3-0.2c0.4,0.4-0.3,0.2,0.1,0.5c0.1-0.1,0.2,0,0.2,0
							c-0.1,0.2,0,0.7,0.1,1.1h-0.2c0.1,0.6,0.4,1.3,0.5,2c0.1-0.3,0.5-0.3,0.5-0.1l-0.4,0.2c0.2,0.1,0.1-0.2,0.4,0
							c0,0.3-0.4,0.2-0.5,0.1l0.2,0.3c-0.1,0.1-0.2,0-0.3,0c0.2,0.1-0.2,0.6,0.2,0.7l-0.1,0.1c0.1,0.7,0.3,1,0.4,1.5
							c0.3-0.1,0.3,0.2,0.6,0.3c0,0.4-0.2,0.9-0.1,1.5c0.2,0.4,0.3,0.1,0.5,0.2c-0.3,0.1-0.2,0.6-0.4,0.4c0.1,0.6,0.2,0.8,0.5,1.5
							c0.1-0.1,0.1-0.2,0.2-0.2c0.1,0.1-0.1,0.4-0.2,0.4l-0.1-0.1c0.6,0.8-0.6,2.1,0.1,2.7l-0.1-0.1l0.4,0.7c0,0.4-0.2-0.2-0.4,0.1
							c0.6,0.7,0.1,1.2,0.4,1.8c-0.9,0.5,0.2,1.8-0.4,2.4l0.2-0.1c0.2,0.2-0.1,0.2-0.2,0.4c0.2,0,0.2-0.2,0.3-0.1
							c0.4,1.5-0.2,3-0.4,4.5c-0.1,0.5,1.1,0.4,0.5,1l-0.4-0.2c0.4,1.1-0.1,2.2,0.2,3.4c-0.1-0.1-0.2-0.1-0.2-0.2
							c-0.3,0.2-0.1,0.8,0.1,0.9c-0.1,0.2-0.2,0-0.4,0.1c-0.2,0.2,0.3,0.6,0,0.7c-0.1,0-0.1-0.1-0.1-0.1c0.1,0.2-0.1,0.7,0.2,0.6
							c-0.2,0.4,0.1,0.8-0.1,1.1c0.4,0.2-0.2,0.6,0.2,0.8c-0.5-0.1-0.5,0.6-0.3,0.9c-0.1-0.1-0.2,0.2-0.4,0.1c-0.1,0.3,0,0.6,0.3,0.5
							c-0.6,0.5,0.4,1.1-0.5,1.4c0.1,0.5,0.1,0.9,0.2,1.3c0,0.4,0,0.8,0,1.2c-0.5-0.1,0.1-0.9-0.4-0.9c0.1,0.8,0.4,1.2,0.1,1.9
							c-0.1,0.2-0.2-0.2-0.2-0.2c0.1,0.8-0.3,1.4-0.2,2.1c-0.1,0-0.1-0.1-0.1-0.2c0,0.1-0.1,0.3,0.1,0.3l-0.1-0.1
							c0.4-0.1,0.5,0.6,0.6,0.7c-0.5-0.4-0.3,0.6-0.9,0.1c0,0.1,0.1,0.2,0.2,0.2c-0.1,0.1-0.2,0.1-0.3,0c0,0.5,0.2,0.4,0.1,0.8
							c-0.1,0-0.1-0.1-0.2-0.2c0.1,0.2,0.2,0.5,0.1,0.8c-0.1-0.1-0.1,0-0.1-0.1c-0.1,0.6,0.2,1.2-0.1,1.8c-0.4-0.3-0.2,0.2-0.5,0.1
							c0,0.1,0,0.2,0,0.4l0.2-0.1c-0.1,0.3,0.1,0.6-0.1,0.9l-0.1-0.3l-0.1,0.6l0.2-0.3c0.1,0.4,0.4,0.1,0.2,0.5
							c0-0.1-0.1,0.3-0.4,0.4c0.1,0.2,0.1,0.4-0.1,0.6c-0.1,0-0.4-0.2-0.4-0.1c0.2,0.2-0.2,0.8,0.1,1c-0.1-0.1-0.2-0.1-0.2-0.1
							l0.2,0.2c-0.1,0.1-0.2,0.1-0.3,0.1c-0.2,0.4,0.4,0,0.1,0.5c0-0.1-0.1-0.1-0.1-0.1c-0.2,0.5-0.2,1-0.5,1.5
							c-0.4,0.1,0.1-0.4-0.2-0.4c-0.2,0.7-0.2,1.5-0.5,2.1l0.1-0.1c0.4,0.2-0.4,0.4-0.3,0.8c0-0.1-0.2-0.2-0.1-0.1
							c-0.2,0.4-0.2,0.9-0.4,1.7l-0.1-0.1c-0.2,0.2-0.4,0.6-0.5,0.9c0.1,0.1-0.1,0.3,0.1,0.2c-0.8,0.6-0.5,1.7-1.2,2.3
							c0.1-0.1,0.1-0.2,0-0.2l-0.2,0.6c0.1,0,0.1-0.1,0.2-0.1c0.1,0.1,0,0.3-0.1,0.5c0.1-0.3-0.2-0.1-0.3,0c0.1,0,0.1,0.1,0.1,0.1
							c-0.4,0.2,0.2,0.2-0.2,0.5l-0.1-0.1c-0.1,0.2-0.1,0.4-0.2,0.5c-0.2,0,0.1-0.2-0.1-0.2c-0.1,0.2-0.1,0.6-0.3,0.8
							c0-0.1,0.1-0.3,0.1-0.4c-0.2,0.2-0.2,0.2-0.4,0.4l-0.3,0.4l0.1-0.1c0.1,0.5-0.3,0.6-0.4,1.2c0.1-0.5-0.1-0.1-0.1-0.2
							c-0.1,0.1-0.2,0.2-0.2,0.2c0,0.2-0.2,0.3-0.2,0.6c-0.1,0-0.1,0.2-0.2,0.1c-0.1,0.3,0.1-0.1,0.1,0c-0.1,0.2-0.2,0.5-0.4,0.7
							c-0.1,0.2-0.3,0.5-0.4,0.8c-0.2,0.5-0.2,0.6-0.5,1.1c-0.1,0.1,0-0.2,0-0.2c-0.2,0.2-0.3,0.4-0.4,0.6c0-0.1,0,0-0.1,0.1
							c-0.1,0.2,0,0.2-0.2,0.4c0-0.1,0-0.1,0.1-0.2c-0.1,0.2-0.2,0.5-0.4,0.7c-0.1,0.1,0.1-0.2,0.1-0.2c-0.1,0.2-0.4,0.6-0.4,0.8
							l0.1-0.2c-0.1,0.1-0.1,0.1,0-0.1c0.1-0.2,0.2-0.3,0.2-0.3l-0.1,0.2c0.2-0.1,0.4-0.6,0.5-0.9v0.2l0.1-0.4
							c0.1-0.1,0.1-0.1,0.1,0.1c0.2-0.2,0.1-0.2,0.2-0.4l0.1-0.2c0,0.1,0.1,0,0,0.1c0.3-0.4,0.4-0.6,0.5-0.8v0.1
							c0.3-0.6-0.1-0.1,0.1-0.5l0.4-0.2l-0.1-0.1c0.1-0.1,0.1-0.2,0.1-0.1c0.1-0.2-0.1,0-0.1-0.1c0.2-0.2,0.4-0.8,0.6-0.8
							c0-0.1-0.2,0.2-0.1-0.1c0.2,0,0.2-0.4,0.4-0.6c0.1,0.1-0.1,0.4,0.1,0.1c-0.1-0.2,0.3-0.5,0.4-0.7c-0.1-0.1,0.2-0.5,0.4-0.9
							c0.1,0.1,0.5-0.6,0.7-0.9c-0.1-0.1,0.1-0.5,0.2-0.8c0.1,0.1,0.1,0.1,0.1,0.3l0.1-0.2c0-0.1,0-0.2,0.1-0.4l0.1,0.1
							c0.2-0.4,0.2-0.8,0.5-1.1c-0.1-0.1-0.5,0.2-0.4-0.4c0.1,0,0.2,0.1,0.2,0.2c0-0.1,0-0.2,0.1-0.2l0.1,0.2c0.2-0.2-0.1-0.2,0-0.3
							c0.1,0.1,0.1-0.1,0.2,0c0,0.1-0.1,0.1-0.1,0.2c0.1-0.2,0.3-0.4,0.4-0.4c-0.1,0-0.2-0.1-0.1-0.2c0.2-0.4,0.2-0.1,0.4-0.2
							c-0.1-0.1,0.1-0.3,0-0.4c0.1-0.1,0.1-0.1,0.2-0.1c0-0.2,0.4-0.8,0.1-0.7l-0.1,0.1c0,0,0,0,0-0.1c0.1-0.6,0.6-1.1,0.8-1.8h0.1
							c0.1-0.4,0.3-0.8,0.2-1.1c0.1-0.1,0.2-0.2,0.3-0.1c0.1-0.3,0-0.4,0.2-0.6c0,0.3,0.2-0.1,0,0.3c0.2-0.3,0.4-0.4,0.3-0.8
							c0.1,0.2,0.4-0.2,0.4-0.4l-0.2,0.2c0.1-0.2,0.1-0.4,0.2-0.5l0.2,0.2c0.6-0.6-0.1-1.5,0.6-1.8c-0.1-0.2-0.3,0.4-0.4,0.1
							c0.1-0.3,0.6-0.5,0.7-0.6c0.3-0.4-0.2-0.5,0-1c-0.1,0-0.4,0-0.4-0.4c0.1-0.3,0.6-0.3,0.6-0.1c0,0.1-0.1,0.1-0.1,0.1
							c0,0.1,0,0.3,0.2,0.2l-0.1-0.1c0.2-0.1,0.3-0.6,0.4-0.4c0-0.3-0.1-0.2-0.2,0c0.3-0.4,0.2-0.6,0.5-1.1c-0.1,0.1-0.2,0.1-0.2,0
							c0.3-0.6-0.1-0.4-0.1-0.8c0.2-0.2,0.4,0.2,0.4-0.3c0.2-0.2,0.3,0,0.4,0.2c-0.1-0.5,0.4-0.7,0.5-0.9v0.2c0-0.1,0-0.2,0.1-0.4
							l-0.2,0.1c0.1-0.1,0.1-0.2,0.2-0.2c-0.1-0.2-0.4,0-0.5-0.3c0.2-0.1,0-0.5,0.4-0.5c-0.2,0.5,0.3,0,0.2,0.5c0-0.1,0-0.2,0.1-0.3
							c0.1,0,0.1,0.1,0.1,0.1c0.4-0.4-0.3-0.3-0.1-0.8c0.2,0.1,0.4-0.1,0.4-0.1c-0.1,0.2-0.3,0.1-0.4-0.2c0.2-0.3,0-0.4,0.1-0.6
							l-0.1,0.2c-0.2-0.1-0.1-0.3-0.1-0.5c0.1,0,0.1,0.2,0.1,0.2c-0.2-0.4,0.5-0.5,0.3-0.9c0.2-0.1,0.4,0.1,0.5-0.1
							c-0.1-0.5,0.4-0.4,0.2-0.9c-0.3,0.1-0.2,0.1-0.4-0.2v0.8L184,202c-0.1,0.2,0.1,0.5,0,0.6c-0.2-0.2-0.1-0.2-0.3-0.2
							c0.4-0.2-0.1-0.6,0.2-0.9l0.6,0.1c0.4-0.5-0.1-0.9,0.2-1.6c-0.1,0.1-0.1,0.1-0.2,0.2c-0.2-0.1,0.1-0.4-0.1-0.6
							c0.2,0.1,0.3-0.1,0.5-0.1c-0.2,0,0.1-0.5-0.3-0.6l0.4-0.2c0.2-0.5-0.5-0.7-0.4-1.2c0.2,0.2,0.4,0,0.5,0.4
							c0-0.2,0.1-0.3-0.1-0.4c0.2-0.1-0.2-0.5,0-0.6c-0.1-0.1-0.3-0.1-0.2-0.4c0.1,0,0.1,0,0.1,0c-0.1,0-0.1-0.3-0.4-0.2
							c0.8-0.5,0.1-1.5,0.8-1.9c-0.1-0.4-0.1-0.8-0.1-1.2c0.1,0,0.1,0,0.1,0.1c0.2-0.5-0.6-0.4-0.4-0.9c0.4-0.2,0.2,0.3,0.4,0.1
							c0.8,0-0.1-0.6,0.4-1l0.1,0.1c0.3-0.2-0.2-0.7-0.2-1.1c0,0,0.1,0,0.1,0c-0.4-0.4-0.5-0.9-0.6-1.4c0.3,0.1,0.2,0.2,0.5,0.1
							c-0.1-0.2-0.5,0.1-0.5-0.4c0.2-0.1,0.3-0.4,0.6-0.4v0.4c0.4-0.2,0-0.5,0.1-0.6h0.2c-0.1-0.6-0.5-0.6-0.5-1.2l-0.1,0.1
							c-0.5-0.4,0.2-0.3-0.1-0.6l0.5-0.1c-0.1-0.2-0.5-0.8-0.5-1.2c0.4,0.2,0.5,0.7,0.7,0.9c0-0.2-0.1-0.8-0.3-0.8
							c0.1,0.1,0.2,0.2,0.1,0.3c-0.4-0.2-0.5-0.6-0.5-1.1c0.9,0.1,0.2-1.1,0.9-1.5c-0.4-0.8,0.1-1.5-0.1-2.4
							c-0.7,0.4-0.1-0.2-0.8-0.2c-0.1-0.2-0.1-0.3,0-0.3c0.1-0.2,0.2-0.4,0.4-0.6c0.2-0.2,0.2,0.2,0.4,0.2c0-0.5,0.3-0.2,0.5-0.5
							c-0.2,0.1-0.4-0.1-0.3-0.4l-0.3,0.4c-0.5-0.6,0.5-0.6,0.1-1.2l0.2,0.2c-0.2-0.3-0.1-1.2-0.7-1.5c0.1-0.1,0.2-0.2,0.4,0
							c0-0.8-0.8-1.7-0.6-2.3l0.2,0.1c-0.1-0.1-0.4-0.2-0.2-0.4c0.1,0,0.2,0.1,0.2-0.1c-0.1-0.1-0.4-0.4-0.3-0.5l0.2,0.1
							c0.1-0.8-0.6-1.1-0.9-1.7c0.5-0.1,0.5-0.7,0.5-1h0.1c-0.1-0.9-0.7-1.4-1.1-2.2c0.4-0.6-0.2-1.7-0.1-2.6
							c-0.1,0.1-0.4,0.1-0.4-0.1c0.1-0.2-0.4-0.5,0-0.5v0.1c0.4-0.2,0.2-0.6,0.1-0.9l-0.5,0.1c0.5-1-0.9-1.9-0.3-2.6
							c-0.2-0.2-0.2-0.4-0.5-0.5l0.3-0.1c-0.1-0.5-0.2-0.8-0.4-1.4l0.2,0.1c-0.1-0.4-0.9-0.2-1-0.5l0.4-0.2c-0.2-0.6-0.1-1.4-0.7-1.9
							c0.1,0,0.2,0,0.2,0.1c-0.1-0.3-0.2-1.2-0.6-0.9c0.3-0.1-0.2-0.6-0.5-0.9l0.2-0.1c-0.4-0.2-0.5-0.2-0.7-0.5c0-0.1,0.1-0.1,0.1,0
							c0-0.4-0.3-0.2-0.4-0.6l0.2,0.1c-0.1-0.3-0.2-0.3-0.4-0.4c-0.2-0.2-0.2-0.6,0-0.8c-0.1,0-0.4-0.1-0.4-0.3c0.1-0.1,0.1,0,0.2,0
							c-0.1-0.6-0.6-0.7-0.5-1.1c0.1-0.1,0.1-0.1,0.1-0.1c0.2,0.4,0.3,0.8,0.3,0.7c0.2-0.1,0.1-0.4,0.4-0.2c-0.2-0.2-0.8-0.5-0.8-0.9
							c0,0,0-0.1,0.1-0.1h0.1c0-0.1-0.1-0.1-0.1-0.2c0-0.1,0-0.2-0.1-0.3c0.1-0.1-0.1-0.4-0.2-0.6c-0.2,0.1-0.2-0.1-0.3,0.1
							c0-0.1,0.1,0,0.1,0.1l0.1,0.1c0.1,0.1,0.1,0.2,0.2,0.4c-0.2-0.1-0.3-0.2-0.3-0.4c-0.2-0.1-0.3-0.1-0.4-0.1
							c0.2-0.4,0.1-0.8,0.2-0.9c-0.4-0.5-0.6-1.2-1.1-1.3c-0.1-0.1,0-0.2,0-0.3c0.1,0.1,0.1,0.2,0.2,0.2c-0.2-0.2-0.5-0.8-0.7-0.8
							c-0.1-0.4,0.3,0.1,0-0.4l0.1,0.1c-0.1-0.5-0.4-0.9-0.7-1.2c-0.3-0.4-0.6-0.7-0.7-1.3c0,0.1,0.1,0.1,0,0.2
							c-0.5-1.2-1.5-2.4-2-3.6c-0.2-0.4-0.2-0.4-0.4-0.5v-0.1l-0.3-0.3c-0.4-0.5-0.4-0.9-0.9-1.4v0.1c-0.1-0.2-0.5-0.6-0.4-0.6
							c0,0-0.1-0.1-0.1-0.1l-0.4-0.5c-0.3-0.4,0.1,0.1-0.4-0.5c-0.1-0.2-0.4-0.4-0.4-0.5c0.1,0.1,0.2,0.2,0.2,0.2l-0.1-0.2
							c-0.1-0.1-0.1-0.2,0.2,0.3l0.2,0.4l0.1,0.1l-0.2-0.3c0.1,0.2,0.2,0.3,0.2,0.4c0,0.1,0.1,0.1,0.1,0.2l0.2,0.4
							c0,0.1-0.1-0.1,0,0.1c0.1,0.2-0.1-0.2,0.1,0.1c0.1,0.2,0.1,0.1,0.2,0.4c0,0.1-0.1,0-0.1-0.1c0.1,0.2,0.3,0.5,0.4,0.5
							c0.1,0.2,0.4,0.6,0.3,0.6c0.1,0.1,0.2,0.3,0.4,0.5c-0.2-0.2,0.4,0.6,0.2,0.6c0.2,0.2,0.5,0.8,0.7,1.2c0,0-0.1-0.1-0.1-0.1
							c0.1,0.2,0.1,0.3,0.1,0.5c0.1-0.1,0.4,0.3,0.5,0.5c0,0.4-0.2-0.1-0.3,0.1c0.1-0.1,0.4,0.4,0.4,0.3c0,0.2,0.1,0.2,0,0.4
							c0.2-0.1,0.1,0.2,0.3,0.3c0.1,0.4-0.1,0.2,0.1,0.5C174,144,173.8,143.7,173.8,143.7z M177.8,151.8c-0.1-0.1-0.1-0.1-0.1-0.2
							C177.7,151.7,177.7,151.8,177.8,151.8z M178.1,152.5c0-0.1-0.1-0.2-0.1-0.3c0.1-0.1,0.1-0.1,0.2,0
							C178,152.2,178.1,152.4,178.1,152.5z M178.7,150.5c0.1,0.1,0.1,0.2,0,0.2c0-0.1-0.1-0.1-0.1-0.2
							C178.7,150.5,178.7,150.5,178.7,150.5z"/>
						<path id="Vector_122" fill="#8EBAFE" d="M178.4,150.4C178.4,150.4,178.4,150.4,178.4,150.4
							C178.4,150.4,178.4,150.4,178.4,150.4C178.4,150.5,178.4,150.5,178.4,150.4z"/>
						<path id="Vector_123" fill="#8EBAFE" d="M180.8,162.6L180.8,162.6L180.8,162.6L180.8,162.6z"/>
						<path id="Vector_124" fill="#8EBAFE" d="M176,222.9l-0.2,0.2C176,223,176,223,176,222.9z"/>
						<path id="Vector_125" fill="#8EBAFE" d="M182.4,203.4C182.3,203.2,182.4,203.3,182.4,203.4L182.4,203.4z"/>
						<path id="Vector_126" fill="#8EBAFE" d="M181.3,209.9c0-0.1-0.1-0.2-0.1-0.2C181.3,209.8,181.2,209.8,181.3,209.9z"/>
						<path id="Vector_127" fill="#8EBAFE" d="M181.4,209.4c-0.1,0.1-0.1,0.2-0.1,0.3C181.3,209.6,181.4,209.5,181.4,209.4z"/>
						<path id="Vector_128" fill="#8EBAFE" d="M172.6,229.5C172.5,229.5,172.5,229.5,172.6,229.5L172.6,229.5z"/>
						<path id="Vector_129" fill="#8EBAFE" d="M172.5,229.5L172.5,229.5C172.5,229.5,172.5,229.5,172.5,229.5z"/>
						<path id="Vector_130" fill="#8EBAFE" d="M172.4,229.7l0.1-0.1C172.4,229.7,172.4,229.7,172.4,229.7z"/>
						<path id="Vector_131" fill="#8EBAFE" d="M173.7,227.4c-0.1,0.1-0.2,0.3-0.3,0.4C173.4,227.7,173.7,227.5,173.7,227.4z"/>
						<path id="Vector_132" fill="#8EBAFE" d="M175.1,225.5l-0.2,0.4c0.1-0.1,0.2-0.1,0.1,0.1C175.4,225.5,174.9,226.1,175.1,225.5z"
							/>
						<path id="Vector_133" fill="#8EBAFE" d="M175.9,224.3C175.8,224.5,176,224.3,175.9,224.3C176,224.2,176.1,224.1,175.9,224.3z"
							/>
						<path id="Vector_134" fill="#8EBAFE" d="M180.6,214.8l0.2,0.1C180.8,214.7,180.7,214.8,180.6,214.8z"/>
						<path id="Vector_135" fill="#8EBAFE" d="M180.3,212.5c-0.1,0.1-0.1,0.1-0.2,0.1l0.2,0.2C180.3,212.7,180.3,212.7,180.3,212.5z"
							/>
						<path id="Vector_136" fill="#8EBAFE" d="M182.1,211.9v0.1l0.1-0.4L182.1,211.9z"/>
						<path id="Vector_137" fill="#8EBAFE" d="M186.2,194.5h-0.4C185.9,194.7,186.3,194.8,186.2,194.5z"/>
						<path id="Vector_138" fill="#8EBAFE" d="M186.3,186.8c0.2-0.1,0.3-0.3,0.1-0.4C186.4,186.5,186.2,186.7,186.3,186.8z"/>
						<path id="Vector_139" fill="#8EBAFE" d="M183.8,163.9l0.1,0.1l-0.2-0.2L183.8,163.9z"/>
					</g>
					<g id="Group_13">
						<path id="Vector_140" fill="#323364" d="M137.9,129.9c-9.1,5.4-12,16.3-13.8,26.1c-1.2,6.7-2.2,13.5-3.2,20.2
							c-1,7.2-2.1,14.4-2.3,21.7c-0.1,0.9,1.2,0.9,1.3,0.1c2.4-13.2,3.7-26.5,5.8-39.8c1.7-10,4.4-20.9,12.7-27.6
							C138.8,130.4,138.4,129.6,137.9,129.9z"/>
						<path id="Vector_141" fill="#323364" d="M120.5,250.3c-0.3-0.3-8.4,0.9-8.4,0.9c-1.8-13.7-4-28.7-0.7-42.4
							c0.8-3.2,1.9-6.7,4.7-8.7c3-2.2,6.4-1.6,8.7,1.3c1.9,2.4,2.9,5.6,4,8.5c1.4,3.8,2.5,7.7,3.5,11.6c1.1,4.1,2.1,8.4,2.9,12.6
							c0.8,4.5,1.8,8.5,2.3,12.9c0.1,0.2-2,0.7-4,1.1c-3.5,0.6-4.2,1-4,1.1c0.2,0.2-0.4,1,4.6,0c2.8-0.5,5.4-1.2,5.4-1.3
							c0.4-4.3-1.1-9.1-1.8-13.4c-0.7-4.5-1.6-9-2.7-13.5c-1.1-4.3-2.4-8.5-3.9-12.7c-1.2-3.2-2.2-6.6-4.6-9.1
							c-5-5.5-12.6-2.8-15.7,3.1c-1.7,3.1-2.3,6.7-2.8,10.1c-0.6,4.2-0.9,8.4-0.8,12.6c0.1,9.5,1.7,18.8,3.5,28.1
							c0.1,0.6,4.9-0.4,7.5-1C120.6,251.4,121.2,250.9,120.5,250.3z"/>
						<path id="Vector_142" fill="#323364" d="M120.1,252.9c1.4-0.3,2.4-1.5,2.1-2.7c-0.2-1.2-1.6-1.9-3-1.7
							c-1.4,0.3-2.4,1.5-2.1,2.7C117.3,252.4,118.7,253.1,120.1,252.9z"/>
						<path id="Vector_143" fill="#323364" d="M131,250.7c1.4-0.3,2.4-1.5,2.1-2.7c-0.2-1.2-1.6-1.9-3-1.7c-1.4,0.3-2.4,1.5-2.1,2.7
							C128.2,250.2,129.6,251,131,250.7z"/>
					</g>
					<g id="Group_14">
						<path id="Vector_144" fill="#323364" d="M167.2,131.5c8.8,6,10.9,17.2,12,27c0.8,6.8,1.3,13.6,1.8,20.4
							c0.5,7.3,1.1,14.5,0.9,21.8c0,0.9-1.2,0.8-1.3,0c-1.5-13.3-1.8-26.7-3.1-40c-0.9-10.2-2.9-21.1-10.8-28.3
							C166.2,131.9,166.7,131.2,167.2,131.5z"/>
						<path id="Vector_145" fill="#323364" d="M184.3,215.3c4.8-1.2,7.6-6.1,6.4-10.9c-1.2-4.7-6.1-7.6-10.8-6.4s-7.6,6.1-6.4,10.9
							C174.7,213.7,179.6,216.5,184.3,215.3z"/>
						<path id="Vector_146" fill="#474A7C" d="M183,210.2c1.9-0.5,3.1-2.5,2.6-4.5c-0.5-1.9-2.5-3.1-4.5-2.6
							c-1.9,0.5-3.1,2.5-2.7,4.5C179,209.5,181,210.7,183,210.2z"/>
					</g>
					<path id="Vector_7_1_" fill="#323364" d="M164,54.4c-22,10.5-42.8,10.5-45.5,29.5c-6.5-14-5-43.8,13-51c22.5-9,37.5,1.5,37.5,5
						c7-1.5,22.5,11,13,40.5C166,58.9,170.5,52.9,164,54.4z"/>
					<path id="Vector_147" fill="none" stroke="#FFFFFF" stroke-miterlimit="10" d="M138.6,86.1c3.9,0,7.1-3.2,7.1-7.1
						c0-3.9-3.2-7.1-7.1-7.1c-3.9,0-7.1,3.2-7.1,7.1C131.5,82.9,134.7,86.1,138.6,86.1z"/>
					<path id="Vector_148" fill="none" stroke="#FFFFFF" stroke-miterlimit="10" d="M163.6,86.1c3.9,0,7.1-3.2,7.1-7.1
						c0-3.9-3.2-7.1-7.1-7.1c-3.9,0-7.1,3.2-7.1,7.1C156.5,82.9,159.7,86.1,163.6,86.1z"/>
					<path id="Vector_149" fill="none" stroke="#FFFFFF" stroke-miterlimit="10" d="M145.5,79.9h11"/>
					<g id="Group_15">

							<linearGradient id="Union_1_" gradientUnits="userSpaceOnUse" x1="34.4818" y1="206.5959" x2="84.8078" y2="58.599" gradientTransform="matrix(1 0 0 -1 0 275.8085)">
							<stop  offset="0" style="stop-color:#FFA09F"/>
							<stop  offset="0.6915" style="stop-color:#FEC7C6"/>
						</linearGradient>
						<path id="Union" fill-rule="evenodd" clip-rule="evenodd" fill="url(#Union_1_)" d="M78.7,96.3c0.2,2.5,1.2,15,2.5,22
							c0.4-0.7,0.8-1.3,1.4-1.8c1.8-1.9,4.1-2.8,5.2-1.4c0.5,0.7,0.1,1.5-0.5,2.5c-0.7,1.3-1.7,3.1-1.3,5.6c0.4,3.8,0.4,7.6-1.2,10.2
							c-0.7,2.8-3.8,5.8-6.6,7.9c0.1,11.2,1.4,24.5,2.7,37.3c1.7,17.2,3.3,33.4,1.8,42.6c-3,18.2-17.2,29.1-26.2,20.2
							c-8.3-8.2-1.7-41.8,1.8-59.6c0.3-1.6,0.6-3,0.8-4.3c2.8-14.5,4.7-28.5,4.2-34.5c-0.9-0.6-1.7-1.4-2.4-2.4
							c-2.9-4.4-2.9-15.9-2.9-21.4l0,0c0-1,0-1.8,0-2.3c-0.1-3.6,1.9-5.8,3.9-4.4c-0.4-3.3,4.8-5.1,6-2.7c0.1-1,0.5-3.2,2.4-3.5
							c2.9-0.6,4.1,2.4,4.1,3.5c0,0,0.3-8.3,0-12.9C74,92.3,78.4,93.3,78.7,96.3z"/>
					</g>

						<linearGradient id="Vector_150_1_" gradientUnits="userSpaceOnUse" x1="89.0105" y1="94.9144" x2="35.9793" y2="44.9474" gradientTransform="matrix(1 0 0 -1 0 275.8085)">
						<stop  offset="0" style="stop-color:#CDE1FF"/>
						<stop  offset="1" style="stop-color:#B8D4FF"/>
					</linearGradient>
					<path id="Vector_150" fill="url(#Vector_150_1_)" d="M59.8,152.7l20.8-0.5c1.9-0.1,3.7,1.4,4,3.3c2.9,17.4,14.2,96.3-16.5,96.8
						c-30.9,0.6-15.4-79.8-11.9-96.5C56.4,154.1,58,152.8,59.8,152.7z"/>
				</g>
			</g>
		</g>
	</g>
</svg>
