<?xml version="1.0" encoding="utf-8"?>
<!-- Generator: Adobe Illustrator 24.2.0, SVG Export Plug-In . SVG Version: 6.00 Build 0)  -->
<svg version="1.1" role="button" aria-labelledby="title_resources_topic_left desc_resources_topic_left" id="resources_topic_left" xmlns="http://www.w3.org/2000/svg" xmlns:xlink="http://www.w3.org/1999/xlink" x="0px" y="0px" viewBox="0 0 450 400" enable-background="new 0 0 450 400" xml:space="preserve">
	<title id="title_resources_topic_left">How to know if your face mask is real and will protect you? Video content.</title>
  	<desc id="desc_resources_topic_left">Watch this informational video guide and try the testing procedure with your mask! (remember to be safe)</desc>
	<defs>
	    <filter id="dropshadow" height="130%">
	    	<feGaussianBlur in="SourceAlpha" stdDeviation="3"/>
	    	<feOffset dx="0" dy="2" result="offsetblur"/>
	    	<feComponentTransfer>
	        	<feFuncA type="linear" slope="0.1"/>
	    	</feComponentTransfer>
	    	<feMerge>
	        	<feMergeNode/>
	        	<feMergeNode in="SourceGraphic"/>
	    	</feMerge>
	    </filter>
	</defs>
	<g id="">
		<g class="ellipse_s">
			<ellipse fill="#FFFFFF" filter="url(#dropshadow)" cx="421.8" cy="378.1" rx="8" ry="8"/>
		</g>
		<g class="ellipse_m">
			<circle fill="#FFFFFF" filter="url(#dropshadow)" cx="371" cy="336" r="16"/>
		</g>
		<g class="ellipse_l">
			<ellipse fill="#FFFFFF" filter="url(#dropshadow)" cx="214.5" cy="200.5" rx="185" ry="146"/>
		</g>
		<g class="topic_text">
			<path fill="#6984AE" d="M106.9,202.3l-3.7,11.2h-1.7l-3.1-8.9l-3.1,8.9h-1.7l-3.7-11.2h1.6l3,9.1l3.2-9.1h1.5l3.1,9.2l3.1-9.2
				H106.9z M111.1,204.9c1.2,0,2.1,0.3,2.7,0.9c0.6,0.6,0.9,1.4,0.9,2.6v5.1h-1.5v-1.1c-0.3,0.4-0.6,0.7-1.1,0.9
				c-0.5,0.2-1,0.3-1.7,0.3c-0.9,0-1.7-0.2-2.3-0.7c-0.6-0.5-0.8-1.1-0.8-1.8c0-0.7,0.3-1.3,0.8-1.8c0.5-0.5,1.4-0.7,2.6-0.7h2.4
				v-0.3c0-0.7-0.2-1.2-0.6-1.5c-0.4-0.4-0.9-0.5-1.7-0.5c-0.5,0-1,0.1-1.5,0.3c-0.5,0.2-0.9,0.4-1.2,0.7l-0.6-1.2
				c0.4-0.4,1-0.6,1.6-0.8C109.7,205,110.4,204.9,111.1,204.9z M110.7,212.4c0.6,0,1.1-0.1,1.5-0.4c0.4-0.3,0.7-0.6,0.9-1.1v-1.2
				h-2.4c-1.3,0-2,0.4-2,1.3c0,0.4,0.2,0.8,0.5,1C109.7,212.3,110.1,212.4,110.7,212.4z M122.3,213c-0.2,0.2-0.5,0.3-0.8,0.4
				c-0.3,0.1-0.7,0.1-1,0.1c-0.9,0-1.5-0.2-2-0.7c-0.5-0.5-0.7-1.1-0.7-2v-4.7h-1.4V205h1.4v-1.9h1.5v1.9h2.4v1.3h-2.4v4.6
				c0,0.5,0.1,0.8,0.3,1.1c0.2,0.2,0.6,0.4,1,0.4c0.5,0,0.9-0.1,1.2-0.4L122.3,213z M127.6,213.6c-0.9,0-1.6-0.2-2.3-0.6
				c-0.7-0.4-1.2-0.9-1.6-1.5c-0.4-0.7-0.6-1.4-0.6-2.2s0.2-1.6,0.6-2.2c0.4-0.7,0.9-1.2,1.6-1.5c0.7-0.4,1.5-0.6,2.3-0.6
				c0.8,0,1.5,0.2,2,0.5c0.6,0.3,1.1,0.8,1.4,1.3l-1.2,0.8c-0.3-0.4-0.6-0.7-1-0.9c-0.4-0.2-0.8-0.3-1.3-0.3c-0.6,0-1.1,0.1-1.5,0.4
				c-0.4,0.2-0.8,0.6-1,1.1c-0.2,0.4-0.4,1-0.4,1.6c0,0.6,0.1,1.1,0.4,1.6c0.3,0.4,0.6,0.8,1,1c0.4,0.2,0.9,0.4,1.5,0.4
				c0.5,0,0.9-0.1,1.3-0.3c0.4-0.2,0.7-0.5,1-0.9l1.2,0.7c-0.3,0.6-0.8,1-1.4,1.4C129,213.4,128.3,213.6,127.6,213.6z M137.4,204.9
				c1.1,0,1.9,0.3,2.6,0.9c0.6,0.6,1,1.5,1,2.7v4.9h-1.5v-4.7c0-0.8-0.2-1.4-0.6-1.9c-0.4-0.4-1-0.6-1.7-0.6c-0.8,0-1.5,0.2-2,0.7
				c-0.5,0.5-0.7,1.2-0.7,2.1v4.4h-1.5v-11.9h1.5v4.6c0.3-0.4,0.7-0.7,1.2-0.9C136.2,205.1,136.8,204.9,137.4,204.9z M152.9,213
				c-0.2,0.2-0.5,0.3-0.8,0.4c-0.3,0.1-0.7,0.1-1,0.1c-0.9,0-1.5-0.2-2-0.7c-0.5-0.5-0.7-1.1-0.7-2v-4.7h-1.4V205h1.4v-1.9h1.5v1.9
				h2.4v1.3h-2.4v4.6c0,0.5,0.1,0.8,0.3,1.1c0.2,0.2,0.6,0.4,1,0.4c0.5,0,0.9-0.1,1.2-0.4L152.9,213z M159.3,204.9
				c1.1,0,1.9,0.3,2.6,0.9c0.6,0.6,1,1.5,1,2.7v4.9h-1.5v-4.7c0-0.8-0.2-1.4-0.6-1.9c-0.4-0.4-1-0.6-1.7-0.6c-0.8,0-1.5,0.2-2,0.7
				c-0.5,0.5-0.7,1.2-0.7,2.1v4.4h-1.5v-11.9h1.5v4.6c0.3-0.4,0.7-0.7,1.2-0.9C158,205.1,158.6,204.9,159.3,204.9z M165.6,205h1.5
				v8.5h-1.5V205z M166.4,203.4c-0.3,0-0.5-0.1-0.8-0.3c-0.2-0.2-0.3-0.4-0.3-0.7c0-0.3,0.1-0.5,0.3-0.7c0.2-0.2,0.5-0.3,0.8-0.3
				c0.3,0,0.5,0.1,0.7,0.3c0.2,0.2,0.3,0.4,0.3,0.7c0,0.3-0.1,0.5-0.3,0.7C166.9,203.3,166.7,203.4,166.4,203.4z M172.5,213.6
				c-0.7,0-1.4-0.1-2-0.3c-0.6-0.2-1.1-0.4-1.5-0.7l0.6-1.2c0.4,0.3,0.8,0.5,1.4,0.6s1.1,0.2,1.6,0.2c1.3,0,2-0.4,2-1.2
				c0-0.3-0.1-0.5-0.3-0.6s-0.4-0.3-0.7-0.3c-0.3-0.1-0.7-0.2-1.2-0.2c-0.7-0.1-1.2-0.2-1.7-0.4c-0.4-0.1-0.8-0.4-1.1-0.7
				c-0.3-0.3-0.5-0.8-0.5-1.4c0-0.8,0.3-1.4,1-1.8c0.6-0.5,1.5-0.7,2.6-0.7c0.6,0,1.1,0.1,1.7,0.2c0.6,0.1,1,0.3,1.4,0.6l-0.7,1.2
				c-0.7-0.4-1.5-0.7-2.4-0.7c-0.7,0-1.1,0.1-1.5,0.3c-0.3,0.2-0.5,0.5-0.5,0.8c0,0.3,0.1,0.5,0.3,0.7c0.2,0.2,0.4,0.3,0.7,0.4
				c0.3,0.1,0.7,0.2,1.2,0.3c0.7,0.1,1.2,0.2,1.6,0.4c0.4,0.1,0.8,0.4,1.1,0.7c0.3,0.3,0.4,0.8,0.4,1.3c0,0.8-0.3,1.4-1,1.8
				C174.5,213.4,173.6,213.6,172.5,213.6z M182.4,205h1.5v8.5h-1.5V205z M183.2,203.4c-0.3,0-0.6-0.1-0.8-0.3
				c-0.2-0.2-0.3-0.4-0.3-0.7c0-0.3,0.1-0.5,0.3-0.7c0.2-0.2,0.5-0.3,0.8-0.3c0.3,0,0.5,0.1,0.7,0.3c0.2,0.2,0.3,0.4,0.3,0.7
				c0,0.3-0.1,0.5-0.3,0.7C183.7,203.3,183.5,203.4,183.2,203.4z M191.4,204.9c1.1,0,1.9,0.3,2.6,0.9c0.6,0.6,1,1.5,1,2.7v4.9h-1.5
				v-4.7c0-0.8-0.2-1.4-0.6-1.9c-0.4-0.4-1-0.6-1.7-0.6c-0.8,0-1.5,0.2-2,0.7c-0.5,0.5-0.7,1.2-0.7,2.1v4.4h-1.5V205h1.5v1.3
				c0.3-0.4,0.7-0.8,1.2-1C190.1,205.1,190.7,204.9,191.4,204.9z M200.9,202.8c-0.9,0-1.4,0.5-1.4,1.5v0.7h2.5v1.3h-2.4v7.2H198v-7.2
				h-1.4V205h1.4v-0.8c0-0.8,0.2-1.5,0.7-2c0.5-0.5,1.2-0.7,2.1-0.7c0.3,0,0.7,0,1,0.1c0.3,0.1,0.6,0.2,0.8,0.4l-0.5,1.2
				C201.7,202.9,201.3,202.8,200.9,202.8z M206.9,213.6c-0.8,0-1.6-0.2-2.3-0.6s-1.2-0.9-1.6-1.5c-0.4-0.7-0.6-1.4-0.6-2.2
				s0.2-1.6,0.6-2.2c0.4-0.7,0.9-1.2,1.6-1.5c0.7-0.4,1.4-0.6,2.3-0.6c0.8,0,1.6,0.2,2.3,0.6c0.7,0.4,1.2,0.9,1.6,1.5
				c0.4,0.7,0.6,1.4,0.6,2.2s-0.2,1.6-0.6,2.2c-0.4,0.7-0.9,1.2-1.6,1.5C208.5,213.4,207.7,213.6,206.9,213.6z M206.9,212.3
				c0.5,0,1-0.1,1.5-0.4c0.4-0.3,0.8-0.6,1-1.1c0.2-0.5,0.4-1,0.4-1.6c0-0.6-0.1-1.1-0.4-1.6c-0.2-0.5-0.6-0.8-1-1.1
				c-0.4-0.2-0.9-0.4-1.5-0.4s-1,0.1-1.5,0.4c-0.4,0.2-0.8,0.6-1,1.1c-0.2,0.4-0.4,1-0.4,1.6c0,0.6,0.1,1.1,0.4,1.6
				c0.3,0.4,0.6,0.8,1,1.1C205.9,212.1,206.4,212.3,206.9,212.3z M214.9,206.4c0.3-0.5,0.7-0.9,1.2-1.1c0.5-0.3,1.2-0.4,1.9-0.4v1.5
				c-0.1,0-0.2,0-0.4,0c-0.8,0-1.5,0.3-2,0.8c-0.5,0.5-0.7,1.2-0.7,2.1v4.2h-1.5V205h1.5V206.4z M230.5,204.9c1.1,0,1.9,0.3,2.5,0.9
				c0.6,0.6,0.9,1.5,0.9,2.8v4.9h-1.5v-4.7c0-0.8-0.2-1.4-0.6-1.9c-0.4-0.4-0.9-0.6-1.6-0.6c-0.8,0-1.4,0.2-1.9,0.7
				c-0.5,0.5-0.7,1.2-0.7,2.1v4.4h-1.5v-4.7c0-0.8-0.2-1.4-0.6-1.9c-0.4-0.4-0.9-0.6-1.6-0.6c-0.8,0-1.4,0.2-1.9,0.7
				c-0.5,0.5-0.7,1.2-0.7,2.1v4.4h-1.5V205h1.5v1.3c0.3-0.4,0.7-0.8,1.2-1c0.5-0.2,1.1-0.4,1.7-0.4c0.7,0,1.2,0.1,1.8,0.4
				c0.5,0.3,0.9,0.7,1.2,1.2c0.3-0.5,0.8-0.9,1.3-1.2C229.1,205.1,229.8,204.9,230.5,204.9z M239.9,204.9c1.2,0,2.1,0.3,2.7,0.9
				c0.6,0.6,0.9,1.4,0.9,2.6v5.1H242v-1.1c-0.3,0.4-0.6,0.7-1.1,0.9c-0.5,0.2-1,0.3-1.7,0.3c-0.9,0-1.7-0.2-2.3-0.7
				c-0.6-0.5-0.8-1.1-0.8-1.8c0-0.7,0.3-1.3,0.8-1.8c0.5-0.5,1.4-0.7,2.6-0.7h2.4v-0.3c0-0.7-0.2-1.2-0.6-1.5
				c-0.4-0.4-0.9-0.5-1.7-0.5c-0.5,0-1,0.1-1.5,0.3c-0.5,0.2-0.9,0.4-1.2,0.7l-0.6-1.2c0.4-0.4,1-0.6,1.6-0.8
				C238.5,205,239.2,204.9,239.9,204.9z M239.5,212.4c0.6,0,1.1-0.1,1.5-0.4c0.4-0.3,0.7-0.6,0.9-1.1v-1.2h-2.4c-1.3,0-2,0.4-2,1.3
				c0,0.4,0.2,0.8,0.5,1C238.5,212.3,238.9,212.4,239.5,212.4z M251.1,213c-0.2,0.2-0.5,0.3-0.8,0.4c-0.3,0.1-0.7,0.1-1,0.1
				c-0.9,0-1.5-0.2-2-0.7c-0.5-0.5-0.7-1.1-0.7-2v-4.7h-1.4V205h1.4v-1.9h1.5v1.9h2.4v1.3h-2.4v4.6c0,0.5,0.1,0.8,0.3,1.1
				c0.2,0.2,0.6,0.4,1,0.4c0.5,0,0.9-0.1,1.2-0.4L251.1,213z M253,205h1.5v8.5H253V205z M253.7,203.4c-0.3,0-0.6-0.1-0.8-0.3
				c-0.2-0.2-0.3-0.4-0.3-0.7c0-0.3,0.1-0.5,0.3-0.7c0.2-0.2,0.5-0.3,0.8-0.3c0.3,0,0.5,0.1,0.7,0.3c0.2,0.2,0.3,0.4,0.3,0.7
				c0,0.3-0.1,0.5-0.3,0.7C254.3,203.3,254,203.4,253.7,203.4z M261.1,213.6c-0.8,0-1.6-0.2-2.3-0.6s-1.2-0.9-1.6-1.5
				c-0.4-0.7-0.6-1.4-0.6-2.2s0.2-1.6,0.6-2.2c0.4-0.7,0.9-1.2,1.6-1.5c0.7-0.4,1.4-0.6,2.3-0.6c0.8,0,1.6,0.2,2.3,0.6
				c0.7,0.4,1.2,0.9,1.6,1.5c0.4,0.7,0.6,1.4,0.6,2.2s-0.2,1.6-0.6,2.2c-0.4,0.7-0.9,1.2-1.6,1.5
				C262.7,213.4,261.9,213.6,261.1,213.6z M261.1,212.3c0.5,0,1-0.1,1.5-0.4c0.4-0.3,0.8-0.6,1-1.1c0.2-0.5,0.4-1,0.4-1.6
				c0-0.6-0.1-1.1-0.4-1.6c-0.2-0.5-0.6-0.8-1-1.1c-0.4-0.2-0.9-0.4-1.5-0.4c-0.5,0-1,0.1-1.5,0.4c-0.4,0.2-0.8,0.6-1,1.1
				c-0.2,0.4-0.4,1-0.4,1.6c0,0.6,0.1,1.1,0.4,1.6c0.3,0.4,0.6,0.8,1,1.1C260,212.1,260.5,212.3,261.1,212.3z M272.1,204.9
				c1.1,0,1.9,0.3,2.6,0.9c0.6,0.6,1,1.5,1,2.7v4.9h-1.5v-4.7c0-0.8-0.2-1.4-0.6-1.9c-0.4-0.4-1-0.6-1.7-0.6c-0.8,0-1.5,0.2-2,0.7
				c-0.5,0.5-0.7,1.2-0.7,2.1v4.4h-1.5V205h1.5v1.3c0.3-0.4,0.7-0.8,1.2-1C270.9,205.1,271.5,204.9,272.1,204.9z M281.6,204.9
				c1.2,0,2.1,0.3,2.7,0.9c0.6,0.6,0.9,1.4,0.9,2.6v5.1h-1.5v-1.1c-0.3,0.4-0.6,0.7-1.1,0.9c-0.5,0.2-1,0.3-1.7,0.3
				c-0.9,0-1.7-0.2-2.3-0.7c-0.6-0.5-0.8-1.1-0.8-1.8c0-0.7,0.3-1.3,0.8-1.8c0.5-0.5,1.4-0.7,2.6-0.7h2.4v-0.3c0-0.7-0.2-1.2-0.6-1.5
				c-0.4-0.4-0.9-0.5-1.7-0.5c-0.5,0-1,0.1-1.5,0.3c-0.5,0.2-0.9,0.4-1.2,0.7l-0.6-1.2c0.4-0.4,1-0.6,1.6-0.8
				C280.2,205,280.9,204.9,281.6,204.9z M281.2,212.4c0.6,0,1.1-0.1,1.5-0.4c0.4-0.3,0.7-0.6,0.9-1.1v-1.2h-2.4c-1.3,0-2,0.4-2,1.3
				c0,0.4,0.2,0.8,0.5,1C280.2,212.3,280.6,212.4,281.2,212.4z M288,201.6h1.5v11.9H288V201.6z M169.1,228.9c1.2,0,2.1,0.3,2.7,0.9
				c0.6,0.6,0.9,1.4,0.9,2.6v5.1h-1.5v-1.1c-0.3,0.4-0.6,0.7-1.1,0.9c-0.5,0.2-1,0.3-1.7,0.3c-0.9,0-1.7-0.2-2.3-0.7
				c-0.6-0.5-0.8-1.1-0.8-1.8c0-0.7,0.3-1.3,0.8-1.8c0.5-0.5,1.4-0.7,2.6-0.7h2.4v-0.3c0-0.7-0.2-1.2-0.6-1.5
				c-0.4-0.4-0.9-0.5-1.7-0.5c-0.5,0-1,0.1-1.5,0.3c-0.5,0.2-0.9,0.4-1.2,0.7l-0.6-1.2c0.4-0.4,1-0.6,1.6-0.8
				C167.8,229,168.4,228.9,169.1,228.9z M168.7,236.4c0.6,0,1.1-0.1,1.5-0.4c0.4-0.3,0.7-0.6,0.9-1.1v-1.2h-2.4c-1.3,0-2,0.4-2,1.3
				c0,0.4,0.2,0.8,0.5,1C167.7,236.3,168.2,236.4,168.7,236.4z M180.1,228.9c1.1,0,1.9,0.3,2.6,0.9c0.6,0.6,1,1.5,1,2.7v4.9h-1.5
				v-4.7c0-0.8-0.2-1.4-0.6-1.9c-0.4-0.4-1-0.6-1.7-0.6c-0.8,0-1.5,0.2-2,0.7c-0.5,0.5-0.7,1.2-0.7,2.1v4.4h-1.5V229h1.5v1.3
				c0.3-0.4,0.7-0.8,1.2-1C178.8,229.1,179.4,228.9,180.1,228.9z M194.5,225.6v11.9H193v-1.3c-0.3,0.5-0.8,0.8-1.3,1.1
				c-0.5,0.2-1.1,0.4-1.7,0.4c-0.8,0-1.6-0.2-2.2-0.5c-0.7-0.4-1.2-0.9-1.5-1.5c-0.4-0.7-0.5-1.4-0.5-2.3c0-0.9,0.2-1.6,0.5-2.3
				c0.4-0.7,0.9-1.2,1.5-1.5c0.7-0.4,1.4-0.5,2.2-0.5c0.6,0,1.2,0.1,1.7,0.4c0.5,0.2,0.9,0.6,1.3,1v-4.7H194.5z M190.1,236.3
				c0.5,0,1-0.1,1.5-0.4c0.4-0.3,0.8-0.6,1-1.1c0.2-0.5,0.4-1,0.4-1.6c0-0.6-0.1-1.1-0.4-1.6c-0.2-0.5-0.6-0.8-1-1.1
				c-0.4-0.2-0.9-0.4-1.5-0.4c-0.5,0-1,0.1-1.5,0.4c-0.4,0.2-0.8,0.6-1,1.1c-0.2,0.4-0.4,1-0.4,1.6c0,0.6,0.1,1.1,0.4,1.6
				c0.3,0.4,0.6,0.8,1,1.1C189.1,236.1,189.6,236.3,190.1,236.3z M206.5,237c-0.2,0.2-0.5,0.3-0.8,0.4c-0.3,0.1-0.7,0.1-1,0.1
				c-0.9,0-1.5-0.2-2-0.7c-0.5-0.5-0.7-1.1-0.7-2v-4.7h-1.4V229h1.4v-1.9h1.5v1.9h2.4v1.3h-2.4v4.6c0,0.5,0.1,0.8,0.3,1.1
				c0.2,0.2,0.6,0.4,1,0.4c0.5,0,0.9-0.1,1.2-0.4L206.5,237z M209.8,230.4c0.3-0.5,0.7-0.9,1.2-1.1c0.5-0.3,1.2-0.4,1.9-0.4v1.5
				c-0.1,0-0.2,0-0.4,0c-0.8,0-1.5,0.3-2,0.8c-0.5,0.5-0.7,1.2-0.7,2.1v4.2h-1.5V229h1.5V230.4z M222.6,229l-4.1,9.3
				c-0.4,0.9-0.8,1.5-1.3,1.8c-0.5,0.4-1.1,0.5-1.7,0.5c-0.4,0-0.8-0.1-1.2-0.2c-0.4-0.1-0.7-0.3-1-0.6l0.7-1.2
				c0.4,0.4,0.9,0.6,1.5,0.6c0.4,0,0.7-0.1,0.9-0.3c0.3-0.2,0.5-0.5,0.7-1l0.3-0.6l-3.7-8.5h1.6l3,6.8l2.9-6.8H222.6z M233.1,237
				c-0.2,0.2-0.5,0.3-0.8,0.4c-0.3,0.1-0.7,0.1-1,0.1c-0.9,0-1.5-0.2-2-0.7c-0.5-0.5-0.7-1.1-0.7-2v-4.7h-1.4V229h1.4v-1.9h1.5v1.9
				h2.4v1.3h-2.4v4.6c0,0.5,0.1,0.8,0.3,1.1c0.2,0.2,0.6,0.4,1,0.4c0.5,0,0.9-0.1,1.2-0.4L233.1,237z M239.5,228.9
				c1.1,0,1.9,0.3,2.6,0.9c0.6,0.6,1,1.5,1,2.7v4.9h-1.5v-4.7c0-0.8-0.2-1.4-0.6-1.9c-0.4-0.4-1-0.6-1.7-0.6c-0.8,0-1.5,0.2-2,0.7
				c-0.5,0.5-0.7,1.2-0.7,2.1v4.4H235v-11.9h1.5v4.6c0.3-0.4,0.7-0.7,1.2-0.9C238.3,229.1,238.9,228.9,239.5,228.9z M253.6,233.3
				c0,0.1,0,0.3,0,0.5h-6.9c0.1,0.7,0.4,1.3,1,1.8c0.6,0.4,1.3,0.7,2.1,0.7c1,0,1.8-0.3,2.4-1l0.8,1c-0.4,0.4-0.9,0.8-1.4,1
				c-0.6,0.2-1.2,0.4-1.9,0.4c-0.9,0-1.7-0.2-2.4-0.5c-0.7-0.4-1.2-0.9-1.6-1.6c-0.4-0.7-0.6-1.4-0.6-2.2c0-0.8,0.2-1.6,0.5-2.2
				c0.4-0.7,0.9-1.2,1.5-1.5c0.6-0.4,1.4-0.6,2.2-0.6c0.8,0,1.5,0.2,2.2,0.6c0.6,0.4,1.1,0.9,1.5,1.5
				C253.4,231.7,253.6,232.5,253.6,233.3z M249.4,230.2c-0.7,0-1.4,0.2-1.9,0.7c-0.5,0.4-0.8,1-0.9,1.8h5.4c-0.1-0.7-0.4-1.3-0.9-1.7
				C250.7,230.5,250.1,230.2,249.4,230.2z M264.8,237c-0.2,0.2-0.5,0.3-0.8,0.4c-0.3,0.1-0.7,0.1-1,0.1c-0.9,0-1.5-0.2-2-0.7
				c-0.5-0.5-0.7-1.1-0.7-2v-4.7h-1.4V229h1.4v-1.9h1.5v1.9h2.4v1.3h-2.4v4.6c0,0.5,0.1,0.8,0.3,1.1c0.2,0.2,0.6,0.4,1,0.4
				c0.5,0,0.9-0.1,1.2-0.4L264.8,237z M274,233.3c0,0.1,0,0.3,0,0.5h-6.9c0.1,0.7,0.4,1.3,1,1.8c0.6,0.4,1.3,0.7,2.1,0.7
				c1,0,1.8-0.3,2.4-1l0.8,1c-0.4,0.4-0.9,0.8-1.4,1c-0.6,0.2-1.2,0.4-1.9,0.4c-0.9,0-1.7-0.2-2.4-0.5c-0.7-0.4-1.2-0.9-1.6-1.6
				c-0.4-0.7-0.6-1.4-0.6-2.2c0-0.8,0.2-1.6,0.5-2.2c0.4-0.7,0.9-1.2,1.5-1.5c0.7-0.4,1.4-0.6,2.2-0.6c0.8,0,1.5,0.2,2.2,0.6
				c0.6,0.4,1.1,0.9,1.5,1.5C273.8,231.7,274,232.5,274,233.3z M269.8,230.2c-0.7,0-1.4,0.2-1.9,0.7c-0.5,0.4-0.8,1-0.9,1.8h5.4
				c-0.1-0.7-0.4-1.3-0.9-1.7C271.2,230.5,270.6,230.2,269.8,230.2z M278.6,237.6c-0.7,0-1.4-0.1-2-0.3c-0.6-0.2-1.1-0.4-1.5-0.7
				l0.6-1.2c0.4,0.3,0.8,0.5,1.4,0.6s1.1,0.2,1.6,0.2c1.3,0,2-0.4,2-1.2c0-0.3-0.1-0.5-0.3-0.6c-0.2-0.1-0.4-0.3-0.7-0.3
				c-0.3-0.1-0.7-0.2-1.2-0.2c-0.7-0.1-1.2-0.2-1.7-0.4c-0.4-0.1-0.8-0.4-1.1-0.7c-0.3-0.3-0.5-0.8-0.5-1.4c0-0.8,0.3-1.4,1-1.8
				c0.6-0.5,1.5-0.7,2.6-0.7c0.6,0,1.1,0.1,1.7,0.2c0.6,0.1,1,0.3,1.4,0.6l-0.7,1.2c-0.7-0.4-1.5-0.7-2.4-0.7c-0.7,0-1.1,0.1-1.5,0.3
				c-0.3,0.2-0.5,0.5-0.5,0.8c0,0.3,0.1,0.5,0.3,0.7c0.2,0.2,0.4,0.3,0.7,0.4c0.3,0.1,0.7,0.2,1.2,0.3c0.7,0.1,1.2,0.2,1.6,0.4
				c0.4,0.1,0.8,0.4,1.1,0.7c0.3,0.3,0.4,0.8,0.4,1.3c0,0.8-0.3,1.4-1,1.8C280.6,237.4,279.7,237.6,278.6,237.6z M288.9,237
				c-0.2,0.2-0.5,0.3-0.8,0.4c-0.3,0.1-0.7,0.1-1,0.1c-0.9,0-1.5-0.2-2-0.7c-0.5-0.5-0.7-1.1-0.7-2v-4.7H283V229h1.4v-1.9h1.5v1.9
				h2.4v1.3h-2.4v4.6c0,0.5,0.1,0.8,0.3,1.1c0.2,0.2,0.6,0.4,1,0.4c0.5,0,0.9-0.1,1.2-0.4L288.9,237z M290.8,229h1.5v8.5h-1.5V229z
				 M291.6,227.4c-0.3,0-0.5-0.1-0.8-0.3c-0.2-0.2-0.3-0.4-0.3-0.7c0-0.3,0.1-0.5,0.3-0.7c0.2-0.2,0.5-0.3,0.8-0.3
				c0.3,0,0.5,0.1,0.7,0.3c0.2,0.2,0.3,0.4,0.3,0.7c0,0.3-0.1,0.5-0.3,0.7C292.1,227.3,291.9,227.4,291.6,227.4z M299.8,228.9
				c1.1,0,1.9,0.3,2.6,0.9c0.6,0.6,1,1.5,1,2.7v4.9h-1.5v-4.7c0-0.8-0.2-1.4-0.6-1.9c-0.4-0.4-1-0.6-1.7-0.6c-0.8,0-1.5,0.2-2,0.7
				c-0.5,0.5-0.7,1.2-0.7,2.1v4.4h-1.5V229h1.5v1.3c0.3-0.4,0.7-0.8,1.2-1C298.5,229.1,299.1,228.9,299.8,228.9z M314.3,229v7.3
				c0,1.5-0.4,2.6-1.1,3.3c-0.7,0.7-1.8,1.1-3.3,1.1c-0.8,0-1.6-0.1-2.3-0.3c-0.7-0.2-1.3-0.5-1.8-0.9l0.7-1.2
				c0.4,0.3,0.9,0.6,1.5,0.8c0.6,0.2,1.2,0.3,1.8,0.3c1,0,1.7-0.2,2.2-0.7c0.5-0.5,0.7-1.2,0.7-2.1v-0.7c-0.4,0.4-0.8,0.8-1.3,1
				c-0.5,0.2-1.1,0.3-1.7,0.3c-0.8,0-1.5-0.2-2.2-0.5c-0.7-0.4-1.2-0.8-1.5-1.5c-0.4-0.6-0.6-1.3-0.6-2.1s0.2-1.5,0.6-2.1
				c0.4-0.6,0.9-1.1,1.5-1.5c0.7-0.3,1.4-0.5,2.2-0.5c0.6,0,1.2,0.1,1.8,0.4c0.6,0.2,1,0.6,1.4,1V229H314.3z M309.9,235.8
				c0.6,0,1.1-0.1,1.5-0.4c0.4-0.2,0.8-0.6,1-1c0.3-0.4,0.4-0.9,0.4-1.4c0-0.8-0.3-1.5-0.8-2c-0.5-0.5-1.2-0.8-2.1-0.8
				c-0.9,0-1.6,0.3-2.1,0.8c-0.5,0.5-0.8,1.2-0.8,2c0,0.5,0.1,1,0.4,1.4c0.3,0.4,0.6,0.7,1,1C308.8,235.7,309.3,235.8,309.9,235.8z
				 M111.3,252.9c0.8,0,1.6,0.2,2.2,0.5c0.7,0.4,1.2,0.9,1.5,1.5c0.4,0.7,0.6,1.4,0.6,2.3c0,0.9-0.2,1.6-0.6,2.3
				c-0.4,0.7-0.9,1.2-1.5,1.5c-0.7,0.4-1.4,0.5-2.2,0.5c-0.6,0-1.2-0.1-1.7-0.4c-0.5-0.2-0.9-0.6-1.3-1v4.4h-1.5V253h1.5v1.3
				c0.3-0.5,0.8-0.8,1.3-1.1C110.1,253.1,110.7,252.9,111.3,252.9z M111.2,260.3c0.5,0,1-0.1,1.5-0.4c0.4-0.3,0.8-0.6,1-1.1
				c0.3-0.5,0.4-1,0.4-1.6c0-0.6-0.1-1.1-0.4-1.6c-0.2-0.5-0.6-0.8-1-1.1c-0.4-0.2-0.9-0.4-1.5-0.4c-0.5,0-1,0.1-1.5,0.4
				c-0.4,0.2-0.8,0.6-1,1c-0.2,0.4-0.4,1-0.4,1.6c0,0.6,0.1,1.1,0.4,1.6c0.2,0.4,0.6,0.8,1,1.1C110.2,260.1,110.6,260.3,111.2,260.3z
				 M119.2,254.4c0.3-0.5,0.7-0.9,1.2-1.1c0.5-0.3,1.2-0.4,1.9-0.4v1.5c-0.1,0-0.2,0-0.4,0c-0.8,0-1.5,0.3-2,0.8
				c-0.5,0.5-0.7,1.2-0.7,2.1v4.2h-1.5V253h1.5V254.4z M127.7,261.6c-0.8,0-1.6-0.2-2.3-0.6c-0.7-0.4-1.2-0.9-1.6-1.5
				c-0.4-0.7-0.6-1.4-0.6-2.2c0-0.8,0.2-1.6,0.6-2.2c0.4-0.7,0.9-1.2,1.6-1.5c0.7-0.4,1.4-0.6,2.3-0.6c0.8,0,1.6,0.2,2.3,0.6
				c0.7,0.4,1.2,0.9,1.6,1.5c0.4,0.7,0.6,1.4,0.6,2.2c0,0.8-0.2,1.6-0.6,2.2c-0.4,0.7-0.9,1.2-1.6,1.5
				C129.3,261.4,128.6,261.6,127.7,261.6z M127.7,260.3c0.5,0,1-0.1,1.5-0.4c0.4-0.3,0.8-0.6,1-1.1c0.2-0.5,0.4-1,0.4-1.6
				c0-0.6-0.1-1.1-0.4-1.6c-0.2-0.5-0.6-0.8-1-1.1c-0.4-0.2-0.9-0.4-1.5-0.4s-1,0.1-1.5,0.4c-0.4,0.2-0.8,0.6-1,1.1
				c-0.2,0.4-0.4,1-0.4,1.6c0,0.6,0.1,1.1,0.4,1.6c0.3,0.4,0.6,0.8,1,1.1C126.7,260.1,127.2,260.3,127.7,260.3z M137.9,261.6
				c-0.9,0-1.6-0.2-2.3-0.6c-0.7-0.4-1.2-0.9-1.6-1.5c-0.4-0.7-0.6-1.4-0.6-2.2c0-0.8,0.2-1.6,0.6-2.2c0.4-0.7,0.9-1.2,1.6-1.5
				c0.7-0.4,1.5-0.6,2.3-0.6c0.8,0,1.5,0.2,2,0.5c0.6,0.3,1.1,0.8,1.4,1.3l-1.2,0.8c-0.3-0.4-0.6-0.7-1-0.9c-0.4-0.2-0.8-0.3-1.3-0.3
				c-0.6,0-1.1,0.1-1.5,0.4c-0.4,0.2-0.8,0.6-1,1.1c-0.2,0.4-0.4,1-0.4,1.6c0,0.6,0.1,1.1,0.4,1.6c0.3,0.4,0.6,0.8,1,1
				c0.4,0.2,0.9,0.4,1.5,0.4c0.5,0,0.9-0.1,1.3-0.3c0.4-0.2,0.7-0.5,1-0.9l1.2,0.7c-0.3,0.6-0.8,1-1.4,1.4
				C139.4,261.4,138.7,261.6,137.9,261.6z M150.9,257.3c0,0.1,0,0.3,0,0.5H144c0.1,0.7,0.4,1.3,1,1.8c0.6,0.4,1.3,0.7,2.1,0.7
				c1,0,1.8-0.3,2.4-1l0.8,1c-0.4,0.4-0.9,0.8-1.4,1c-0.6,0.2-1.2,0.4-1.9,0.4c-0.9,0-1.7-0.2-2.4-0.5c-0.7-0.4-1.2-0.9-1.6-1.6
				c-0.4-0.7-0.6-1.4-0.6-2.2c0-0.8,0.2-1.6,0.5-2.2c0.4-0.7,0.9-1.2,1.5-1.5c0.7-0.4,1.4-0.6,2.2-0.6c0.8,0,1.5,0.2,2.2,0.6
				c0.6,0.4,1.1,0.9,1.5,1.5C150.7,255.7,150.9,256.5,150.9,257.3z M146.7,254.2c-0.7,0-1.4,0.2-1.9,0.7c-0.5,0.4-0.8,1-0.9,1.8h5.4
				c-0.1-0.7-0.4-1.3-0.9-1.7C148.1,254.5,147.5,254.2,146.7,254.2z M161.1,249.6v11.9h-1.5v-1.3c-0.3,0.5-0.8,0.8-1.3,1.1
				c-0.5,0.2-1.1,0.4-1.7,0.4c-0.8,0-1.6-0.2-2.2-0.5c-0.7-0.4-1.2-0.9-1.5-1.5c-0.4-0.7-0.5-1.4-0.5-2.3c0-0.9,0.2-1.6,0.5-2.3
				c0.4-0.7,0.9-1.2,1.5-1.5c0.6-0.4,1.4-0.5,2.2-0.5c0.6,0,1.2,0.1,1.7,0.4c0.5,0.2,0.9,0.6,1.3,1v-4.7H161.1z M156.7,260.3
				c0.5,0,1-0.1,1.5-0.4c0.4-0.3,0.8-0.6,1-1.1c0.2-0.5,0.4-1,0.4-1.6c0-0.6-0.1-1.1-0.4-1.6c-0.2-0.5-0.6-0.8-1-1.1
				c-0.4-0.2-0.9-0.4-1.5-0.4c-0.5,0-1,0.1-1.5,0.4c-0.4,0.2-0.8,0.6-1,1.1c-0.2,0.4-0.4,1-0.4,1.6c0,0.6,0.1,1.1,0.4,1.6
				c0.3,0.4,0.6,0.8,1,1.1C155.7,260.1,156.1,260.3,156.7,260.3z M171.9,253v8.5h-1.5v-1.3c-0.3,0.4-0.7,0.8-1.2,1
				c-0.5,0.2-1.1,0.4-1.6,0.4c-1.1,0-2-0.3-2.7-0.9c-0.7-0.6-1-1.6-1-2.8V253h1.5v4.7c0,0.8,0.2,1.4,0.6,1.9c0.4,0.4,1,0.6,1.7,0.6
				c0.8,0,1.5-0.2,1.9-0.7c0.5-0.5,0.7-1.2,0.7-2.1V253H171.9z M176.3,254.4c0.3-0.5,0.7-0.9,1.2-1.1c0.5-0.3,1.2-0.4,1.9-0.4v1.5
				c-0.1,0-0.2,0-0.4,0c-0.8,0-1.5,0.3-2,0.8c-0.5,0.5-0.7,1.2-0.7,2.1v4.2h-1.5V253h1.5V254.4z M188.8,257.3c0,0.1,0,0.3,0,0.5h-6.9
				c0.1,0.7,0.4,1.3,1,1.8c0.6,0.4,1.3,0.7,2.1,0.7c1,0,1.8-0.3,2.4-1l0.8,1c-0.4,0.4-0.9,0.8-1.4,1c-0.6,0.2-1.2,0.4-1.9,0.4
				c-0.9,0-1.7-0.2-2.4-0.5c-0.7-0.4-1.2-0.9-1.6-1.6c-0.4-0.7-0.6-1.4-0.6-2.2c0-0.8,0.2-1.6,0.5-2.2c0.4-0.7,0.9-1.2,1.5-1.5
				c0.7-0.4,1.4-0.6,2.2-0.6c0.8,0,1.5,0.2,2.2,0.6c0.6,0.4,1.1,0.9,1.5,1.5C188.6,255.7,188.8,256.5,188.8,257.3z M184.6,254.2
				c-0.7,0-1.4,0.2-1.9,0.7c-0.5,0.4-0.8,1-0.9,1.8h5.4c-0.1-0.7-0.4-1.3-0.9-1.7C186,254.5,185.4,254.2,184.6,254.2z M208.1,253
				l-3.2,8.5h-1.5l-2.4-6.4l-2.5,6.4h-1.5l-3.2-8.5h1.5l2.5,6.8l2.6-6.8h1.3l2.5,6.8l2.5-6.8H208.1z M209.7,253h1.5v8.5h-1.5V253z
				 M210.4,251.4c-0.3,0-0.5-0.1-0.8-0.3c-0.2-0.2-0.3-0.4-0.3-0.7c0-0.3,0.1-0.5,0.3-0.7c0.2-0.2,0.5-0.3,0.8-0.3
				c0.3,0,0.5,0.1,0.7,0.3c0.2,0.2,0.3,0.4,0.3,0.7c0,0.3-0.1,0.5-0.3,0.7C211,251.3,210.7,251.4,210.4,251.4z M218.9,261
				c-0.2,0.2-0.5,0.3-0.8,0.4c-0.3,0.1-0.7,0.1-1,0.1c-0.9,0-1.5-0.2-2-0.7c-0.5-0.5-0.7-1.1-0.7-2v-4.7h-1.4V253h1.4v-1.9h1.5v1.9
				h2.4v1.3h-2.4v4.6c0,0.5,0.1,0.8,0.3,1.1c0.2,0.2,0.6,0.4,1,0.4c0.5,0,0.9-0.1,1.2-0.4L218.9,261z M225.3,252.9
				c1.1,0,1.9,0.3,2.6,0.9c0.6,0.6,1,1.5,1,2.7v4.9h-1.5v-4.7c0-0.8-0.2-1.4-0.6-1.9c-0.4-0.4-1-0.6-1.7-0.6c-0.8,0-1.5,0.2-2,0.7
				c-0.5,0.5-0.7,1.2-0.7,2.1v4.4h-1.5v-11.9h1.5v4.6c0.3-0.4,0.7-0.7,1.2-0.9C224.1,253.1,224.6,252.9,225.3,252.9z M243.4,253
				l-4.1,9.3c-0.4,0.9-0.8,1.5-1.3,1.8c-0.5,0.4-1.1,0.5-1.7,0.5c-0.4,0-0.8-0.1-1.2-0.2c-0.4-0.1-0.7-0.3-1-0.6l0.7-1.2
				c0.4,0.4,0.9,0.6,1.5,0.6c0.4,0,0.7-0.1,0.9-0.3c0.3-0.2,0.5-0.5,0.7-1l0.3-0.6l-3.7-8.5h1.6l3,6.8l2.9-6.8H243.4z M248.3,261.6
				c-0.8,0-1.6-0.2-2.3-0.6c-0.7-0.4-1.2-0.9-1.6-1.5c-0.4-0.7-0.6-1.4-0.6-2.2c0-0.8,0.2-1.6,0.6-2.2c0.4-0.7,0.9-1.2,1.6-1.5
				c0.7-0.4,1.4-0.6,2.3-0.6c0.8,0,1.6,0.2,2.3,0.6c0.7,0.4,1.2,0.9,1.6,1.5c0.4,0.7,0.6,1.4,0.6,2.2c0,0.8-0.2,1.6-0.6,2.2
				c-0.4,0.7-0.9,1.2-1.6,1.5C249.9,261.4,249.1,261.6,248.3,261.6z M248.3,260.3c0.5,0,1-0.1,1.5-0.4c0.4-0.3,0.8-0.6,1-1.1
				c0.2-0.5,0.4-1,0.4-1.6c0-0.6-0.1-1.1-0.4-1.6c-0.2-0.5-0.6-0.8-1-1.1c-0.4-0.2-0.9-0.4-1.5-0.4c-0.5,0-1,0.1-1.5,0.4
				c-0.4,0.2-0.8,0.6-1,1.1c-0.2,0.4-0.4,1-0.4,1.6c0,0.6,0.1,1.1,0.4,1.6c0.3,0.4,0.6,0.8,1,1.1
				C247.2,260.1,247.7,260.3,248.3,260.3z M262.7,253v8.5h-1.5v-1.3c-0.3,0.4-0.7,0.8-1.2,1c-0.5,0.2-1.1,0.4-1.6,0.4
				c-1.1,0-2-0.3-2.7-0.9c-0.7-0.6-1-1.6-1-2.8V253h1.5v4.7c0,0.8,0.2,1.4,0.6,1.9c0.4,0.4,1,0.6,1.7,0.6c0.8,0,1.5-0.2,1.9-0.7
				c0.5-0.5,0.7-1.2,0.7-2.1V253H262.7z M267.1,254.4c0.3-0.5,0.7-0.9,1.2-1.1c0.5-0.3,1.2-0.4,1.9-0.4v1.5c-0.1,0-0.2,0-0.4,0
				c-0.8,0-1.5,0.3-2,0.8c-0.5,0.5-0.7,1.2-0.7,2.1v4.2h-1.5V253h1.5V254.4z M287.1,252.9c1.1,0,1.9,0.3,2.5,0.9
				c0.6,0.6,0.9,1.5,0.9,2.8v4.9H289v-4.7c0-0.8-0.2-1.4-0.6-1.9c-0.4-0.4-0.9-0.6-1.6-0.6c-0.8,0-1.4,0.2-1.9,0.7
				c-0.5,0.5-0.7,1.2-0.7,2.1v4.4h-1.5v-4.7c0-0.8-0.2-1.4-0.6-1.9c-0.4-0.4-0.9-0.6-1.6-0.6c-0.8,0-1.4,0.2-1.9,0.7
				c-0.5,0.5-0.7,1.2-0.7,2.1v4.4h-1.5V253h1.5v1.3c0.3-0.4,0.7-0.8,1.2-1c0.5-0.2,1.1-0.4,1.7-0.4c0.7,0,1.2,0.1,1.8,0.4
				s0.9,0.7,1.2,1.2c0.3-0.5,0.8-0.9,1.3-1.2C285.7,253.1,286.4,252.9,287.1,252.9z M296.5,252.9c1.2,0,2.1,0.3,2.7,0.9
				c0.6,0.6,0.9,1.4,0.9,2.6v5.1h-1.5v-1.1c-0.3,0.4-0.6,0.7-1.1,0.9c-0.5,0.2-1,0.3-1.7,0.3c-1,0-1.7-0.2-2.3-0.7
				c-0.6-0.5-0.8-1.1-0.8-1.8c0-0.7,0.3-1.3,0.8-1.8c0.5-0.5,1.4-0.7,2.6-0.7h2.4v-0.3c0-0.7-0.2-1.2-0.6-1.5
				c-0.4-0.4-0.9-0.5-1.7-0.5c-0.5,0-1,0.1-1.5,0.3c-0.5,0.2-0.9,0.4-1.2,0.7L293,254c0.4-0.4,1-0.6,1.6-0.8
				C295.1,253,295.8,252.9,296.5,252.9z M296.1,260.4c0.6,0,1.1-0.1,1.5-0.4c0.4-0.3,0.7-0.6,0.9-1.1v-1.2h-2.4c-1.3,0-2,0.4-2,1.3
				c0,0.4,0.2,0.8,0.5,1C295.1,260.3,295.5,260.4,296.1,260.4z M305.4,261.6c-0.7,0-1.4-0.1-2-0.3c-0.6-0.2-1.1-0.4-1.5-0.7l0.6-1.2
				c0.4,0.3,0.8,0.5,1.4,0.6c0.5,0.2,1.1,0.2,1.6,0.2c1.3,0,2-0.4,2-1.2c0-0.3-0.1-0.5-0.3-0.6c-0.2-0.1-0.4-0.3-0.7-0.3
				c-0.3-0.1-0.6-0.2-1.2-0.2c-0.7-0.1-1.2-0.2-1.7-0.4c-0.4-0.1-0.8-0.4-1.1-0.7c-0.3-0.3-0.5-0.8-0.5-1.4c0-0.8,0.3-1.4,1-1.8
				c0.6-0.5,1.5-0.7,2.6-0.7c0.6,0,1.1,0.1,1.7,0.2c0.6,0.1,1,0.3,1.4,0.6l-0.7,1.2c-0.7-0.4-1.5-0.7-2.4-0.7c-0.6,0-1.1,0.1-1.5,0.3
				c-0.3,0.2-0.5,0.5-0.5,0.8c0,0.3,0.1,0.5,0.3,0.7c0.2,0.2,0.4,0.3,0.7,0.4c0.3,0.1,0.7,0.2,1.2,0.3c0.7,0.1,1.2,0.2,1.6,0.4
				c0.4,0.1,0.8,0.4,1.1,0.7c0.3,0.3,0.4,0.8,0.4,1.3c0,0.8-0.3,1.4-1,1.8C307.4,261.4,306.5,261.6,305.4,261.6z M314.3,257.5
				l-1.8,1.6v2.3H311v-11.9h1.5v7.6l4.6-4.2h1.9l-3.6,3.5l3.9,5h-1.9L314.3,257.5z M320.6,250.3h1.8l-0.3,7.7h-1.2L320.6,250.3z
				 M321.5,261.6c-0.3,0-0.5-0.1-0.8-0.3c-0.2-0.2-0.3-0.4-0.3-0.7c0-0.3,0.1-0.5,0.3-0.7c0.2-0.2,0.5-0.3,0.8-0.3
				c0.3,0,0.5,0.1,0.7,0.3c0.2,0.2,0.3,0.4,0.3,0.7c0,0.3-0.1,0.5-0.3,0.7C322.1,261.5,321.8,261.6,321.5,261.6z M127.5,288.6
				c-0.6-1-1.1-2.1-1.4-3.4c-0.3-1.3-0.5-2.7-0.5-4.1s0.2-2.8,0.5-4.1c0.3-1.3,0.8-2.4,1.4-3.4h1.5c-0.6,1.1-1.1,2.3-1.4,3.5
				c-0.3,1.2-0.4,2.5-0.4,4c0,1.4,0.1,2.7,0.4,4c0.3,1.2,0.8,2.4,1.4,3.5H127.5z M132.4,278.4c0.3-0.5,0.7-0.9,1.2-1.1
				c0.5-0.3,1.2-0.4,1.9-0.4v1.5c-0.1,0-0.2,0-0.4,0c-0.8,0-1.5,0.3-2,0.8c-0.5,0.5-0.7,1.2-0.7,2.1v4.2h-1.5V277h1.5V278.4z
				 M144.9,281.3c0,0.1,0,0.3,0,0.5H138c0.1,0.7,0.4,1.3,1,1.8c0.6,0.4,1.3,0.7,2.1,0.7c1,0,1.8-0.3,2.4-1l0.8,1
				c-0.4,0.4-0.9,0.8-1.4,1c-0.6,0.2-1.2,0.4-1.9,0.4c-0.9,0-1.7-0.2-2.4-0.5c-0.7-0.4-1.2-0.9-1.6-1.6c-0.4-0.7-0.6-1.4-0.6-2.2
				c0-0.8,0.2-1.6,0.5-2.2c0.4-0.7,0.9-1.2,1.5-1.5c0.7-0.4,1.4-0.6,2.2-0.6c0.8,0,1.5,0.2,2.2,0.6c0.6,0.4,1.1,0.9,1.5,1.5
				C144.8,279.7,144.9,280.5,144.9,281.3z M140.8,278.2c-0.7,0-1.4,0.2-1.9,0.7c-0.5,0.4-0.8,1-0.9,1.8h5.4c-0.1-0.7-0.4-1.3-0.9-1.7
				C142.1,278.5,141.5,278.2,140.8,278.2z M157.7,276.9c1.1,0,1.9,0.3,2.5,0.9c0.6,0.6,0.9,1.5,0.9,2.8v4.9h-1.5v-4.7
				c0-0.8-0.2-1.4-0.6-1.9c-0.4-0.4-0.9-0.6-1.6-0.6c-0.8,0-1.4,0.2-1.9,0.7c-0.5,0.5-0.7,1.2-0.7,2.1v4.4h-1.5v-4.7
				c0-0.8-0.2-1.4-0.6-1.9c-0.4-0.4-0.9-0.6-1.6-0.6c-0.8,0-1.4,0.2-1.9,0.7c-0.5,0.5-0.7,1.2-0.7,2.1v4.4h-1.5V277h1.5v1.3
				c0.3-0.4,0.7-0.8,1.2-1c0.5-0.2,1.1-0.4,1.7-0.4c0.7,0,1.2,0.1,1.8,0.4c0.5,0.3,0.9,0.7,1.2,1.2c0.3-0.5,0.8-0.9,1.3-1.2
				C156.3,277.1,157,276.9,157.7,276.9z M171.7,281.3c0,0.1,0,0.3,0,0.5h-6.9c0.1,0.7,0.4,1.3,1,1.8c0.6,0.4,1.3,0.7,2.1,0.7
				c1,0,1.8-0.3,2.4-1l0.8,1c-0.4,0.4-0.9,0.8-1.4,1c-0.6,0.2-1.2,0.4-1.9,0.4c-0.9,0-1.7-0.2-2.4-0.5c-0.7-0.4-1.2-0.9-1.6-1.6
				c-0.4-0.7-0.6-1.4-0.6-2.2c0-0.8,0.2-1.6,0.5-2.2c0.4-0.7,0.9-1.2,1.5-1.5c0.7-0.4,1.4-0.6,2.2-0.6c0.8,0,1.5,0.2,2.2,0.6
				c0.6,0.4,1.1,0.9,1.5,1.5C171.5,279.7,171.7,280.5,171.7,281.3z M167.5,278.2c-0.7,0-1.4,0.2-1.9,0.7c-0.5,0.4-0.8,1-0.9,1.8h5.4
				c-0.1-0.7-0.4-1.3-0.9-1.7C168.9,278.5,168.2,278.2,167.5,278.2z M184.4,276.9c1.1,0,1.9,0.3,2.5,0.9c0.6,0.6,0.9,1.5,0.9,2.8v4.9
				h-1.5v-4.7c0-0.8-0.2-1.4-0.6-1.9c-0.4-0.4-0.9-0.6-1.6-0.6c-0.8,0-1.4,0.2-1.9,0.7c-0.5,0.5-0.7,1.2-0.7,2.1v4.4h-1.5v-4.7
				c0-0.8-0.2-1.4-0.6-1.9c-0.4-0.4-0.9-0.6-1.6-0.6c-0.8,0-1.4,0.2-1.9,0.7c-0.5,0.5-0.7,1.2-0.7,2.1v4.4h-1.5V277h1.5v1.3
				c0.3-0.4,0.7-0.8,1.2-1c0.5-0.2,1.1-0.4,1.7-0.4c0.7,0,1.2,0.1,1.8,0.4c0.5,0.3,0.9,0.7,1.2,1.2c0.3-0.5,0.8-0.9,1.3-1.2
				C183.1,277.1,183.7,276.9,184.4,276.9z M195.2,276.9c0.8,0,1.6,0.2,2.2,0.5c0.7,0.4,1.2,0.9,1.5,1.5c0.4,0.7,0.6,1.4,0.6,2.3
				c0,0.9-0.2,1.6-0.6,2.3c-0.4,0.7-0.9,1.2-1.5,1.5c-0.6,0.4-1.4,0.5-2.2,0.5c-0.6,0-1.2-0.1-1.7-0.4c-0.5-0.2-1-0.6-1.3-1.1v1.3
				h-1.5v-11.9h1.5v4.7c0.3-0.4,0.8-0.8,1.3-1C194.1,277.1,194.6,276.9,195.2,276.9z M195.1,284.3c0.5,0,1-0.1,1.5-0.4
				c0.4-0.3,0.8-0.6,1-1.1c0.3-0.5,0.4-1,0.4-1.6c0-0.6-0.1-1.1-0.4-1.6c-0.2-0.5-0.6-0.8-1-1.1c-0.4-0.2-0.9-0.4-1.5-0.4
				c-0.5,0-1,0.1-1.5,0.4c-0.4,0.2-0.8,0.6-1,1.1c-0.2,0.4-0.4,1-0.4,1.6c0,0.6,0.1,1.1,0.4,1.6c0.2,0.4,0.6,0.8,1,1.1
				C194.1,284.1,194.6,284.3,195.1,284.3z M209.3,281.3c0,0.1,0,0.3,0,0.5h-6.9c0.1,0.7,0.4,1.3,1,1.8c0.6,0.4,1.3,0.7,2.1,0.7
				c1,0,1.8-0.3,2.4-1l0.8,1c-0.4,0.4-0.9,0.8-1.4,1c-0.6,0.2-1.2,0.4-1.9,0.4c-0.9,0-1.7-0.2-2.4-0.5c-0.7-0.4-1.2-0.9-1.6-1.6
				c-0.4-0.7-0.6-1.4-0.6-2.2c0-0.8,0.2-1.6,0.5-2.2c0.4-0.7,0.9-1.2,1.5-1.5c0.7-0.4,1.4-0.6,2.2-0.6c0.8,0,1.5,0.2,2.2,0.6
				c0.6,0.4,1.1,0.9,1.5,1.5C209.1,279.7,209.3,280.5,209.3,281.3z M205.1,278.2c-0.7,0-1.4,0.2-1.9,0.7c-0.5,0.4-0.8,1-0.9,1.8h5.4
				c-0.1-0.7-0.4-1.3-0.9-1.7C206.5,278.5,205.9,278.2,205.1,278.2z M212.9,278.4c0.3-0.5,0.7-0.9,1.2-1.1c0.5-0.3,1.2-0.4,1.9-0.4
				v1.5c-0.1,0-0.2,0-0.4,0c-0.8,0-1.5,0.3-2,0.8c-0.5,0.5-0.7,1.2-0.7,2.1v4.2h-1.5V277h1.5V278.4z M227.1,285
				c-0.2,0.2-0.5,0.3-0.8,0.4c-0.3,0.1-0.7,0.1-1,0.1c-0.9,0-1.5-0.2-2-0.7c-0.5-0.5-0.7-1.1-0.7-2v-4.7h-1.4V277h1.4v-1.9h1.5v1.9
				h2.4v1.3h-2.4v4.6c0,0.5,0.1,0.8,0.3,1.1c0.2,0.2,0.6,0.4,1,0.4c0.5,0,0.9-0.1,1.2-0.4L227.1,285z M232.3,285.6
				c-0.8,0-1.6-0.2-2.3-0.6c-0.7-0.4-1.2-0.9-1.6-1.5c-0.4-0.7-0.6-1.4-0.6-2.2c0-0.8,0.2-1.6,0.6-2.2c0.4-0.7,0.9-1.2,1.6-1.5
				c0.7-0.4,1.4-0.6,2.3-0.6c0.8,0,1.6,0.2,2.3,0.6c0.7,0.4,1.2,0.9,1.6,1.5c0.4,0.7,0.6,1.4,0.6,2.2c0,0.8-0.2,1.6-0.6,2.2
				c-0.4,0.7-0.9,1.2-1.6,1.5C233.9,285.4,233.1,285.6,232.3,285.6z M232.3,284.3c0.5,0,1-0.1,1.5-0.4c0.4-0.3,0.8-0.6,1-1.1
				c0.2-0.5,0.4-1,0.4-1.6c0-0.6-0.1-1.1-0.4-1.6c-0.2-0.5-0.6-0.8-1-1.1c-0.4-0.2-0.9-0.4-1.5-0.4s-1,0.1-1.5,0.4
				c-0.4,0.2-0.8,0.6-1,1.1c-0.2,0.4-0.4,1-0.4,1.6c0,0.6,0.1,1.1,0.4,1.6c0.3,0.4,0.6,0.8,1,1.1
				C231.2,284.1,231.7,284.3,232.3,284.3z M247.6,276.9c0.8,0,1.6,0.2,2.2,0.5c0.7,0.4,1.2,0.9,1.5,1.5c0.4,0.7,0.6,1.4,0.6,2.3
				c0,0.9-0.2,1.6-0.6,2.3c-0.4,0.7-0.9,1.2-1.5,1.5c-0.7,0.4-1.4,0.5-2.2,0.5c-0.6,0-1.2-0.1-1.7-0.4c-0.5-0.2-1-0.6-1.3-1.1v1.3
				h-1.5v-11.9h1.5v4.7c0.3-0.4,0.8-0.8,1.3-1C246.4,277.1,247,276.9,247.6,276.9z M247.5,284.3c0.5,0,1-0.1,1.5-0.4
				c0.4-0.3,0.8-0.6,1-1.1c0.3-0.5,0.4-1,0.4-1.6c0-0.6-0.1-1.1-0.4-1.6c-0.2-0.5-0.6-0.8-1-1.1c-0.4-0.2-0.9-0.4-1.5-0.4
				c-0.5,0-1,0.1-1.5,0.4c-0.4,0.2-0.8,0.6-1,1.1c-0.2,0.4-0.4,1-0.4,1.6c0,0.6,0.1,1.1,0.4,1.6c0.2,0.4,0.6,0.8,1,1.1
				C246.4,284.1,246.9,284.3,247.5,284.3z M261.7,281.3c0,0.1,0,0.3,0,0.5h-6.9c0.1,0.7,0.4,1.3,1,1.8c0.6,0.4,1.3,0.7,2.1,0.7
				c1,0,1.8-0.3,2.4-1l0.8,1c-0.4,0.4-0.9,0.8-1.4,1c-0.6,0.2-1.2,0.4-1.9,0.4c-0.9,0-1.7-0.2-2.4-0.5c-0.7-0.4-1.2-0.9-1.6-1.6
				c-0.4-0.7-0.6-1.4-0.6-2.2c0-0.8,0.2-1.6,0.5-2.2c0.4-0.7,0.9-1.2,1.5-1.5c0.7-0.4,1.4-0.6,2.2-0.6s1.5,0.2,2.2,0.6
				c0.6,0.4,1.1,0.9,1.5,1.5C261.5,279.7,261.7,280.5,261.7,281.3z M257.5,278.2c-0.7,0-1.4,0.2-1.9,0.7c-0.5,0.4-0.8,1-0.9,1.8h5.4
				c-0.1-0.7-0.4-1.3-0.9-1.7C258.8,278.5,258.2,278.2,257.5,278.2z M270.5,285.6c-0.7,0-1.4-0.1-2-0.3c-0.6-0.2-1.1-0.4-1.5-0.7
				l0.6-1.2c0.4,0.3,0.8,0.5,1.4,0.6c0.5,0.2,1.1,0.2,1.6,0.2c1.3,0,2-0.4,2-1.2c0-0.3-0.1-0.5-0.3-0.6c-0.2-0.1-0.4-0.3-0.7-0.3
				c-0.3-0.1-0.7-0.2-1.2-0.2c-0.7-0.1-1.2-0.2-1.7-0.4c-0.4-0.1-0.8-0.4-1.1-0.7c-0.3-0.3-0.5-0.8-0.5-1.4c0-0.8,0.3-1.4,1-1.8
				c0.6-0.5,1.5-0.7,2.6-0.7c0.6,0,1.1,0.1,1.7,0.2c0.6,0.1,1,0.3,1.4,0.6l-0.7,1.2c-0.7-0.4-1.5-0.7-2.4-0.7c-0.7,0-1.1,0.1-1.5,0.3
				c-0.3,0.2-0.5,0.5-0.5,0.8c0,0.3,0.1,0.5,0.3,0.7c0.2,0.2,0.4,0.3,0.7,0.4c0.3,0.1,0.7,0.2,1.2,0.3c0.7,0.1,1.2,0.2,1.6,0.4
				c0.4,0.1,0.8,0.4,1.1,0.7c0.3,0.3,0.4,0.8,0.4,1.3c0,0.8-0.3,1.4-1,1.8C272.5,285.4,271.7,285.6,270.5,285.6z M279.2,276.9
				c1.2,0,2.1,0.3,2.7,0.9c0.6,0.6,0.9,1.4,0.9,2.6v5.1h-1.5v-1.1c-0.3,0.4-0.6,0.7-1.1,0.9c-0.5,0.2-1,0.3-1.7,0.3
				c-0.9,0-1.7-0.2-2.3-0.7c-0.6-0.5-0.8-1.1-0.8-1.8c0-0.7,0.3-1.3,0.8-1.8c0.5-0.5,1.4-0.7,2.6-0.7h2.4v-0.3c0-0.7-0.2-1.2-0.6-1.5
				c-0.4-0.4-0.9-0.5-1.7-0.5c-0.5,0-1,0.1-1.5,0.3c-0.5,0.2-0.9,0.4-1.2,0.7l-0.6-1.2c0.4-0.4,1-0.6,1.6-0.8
				C277.9,277,278.5,276.9,279.2,276.9z M278.8,284.4c0.6,0,1.1-0.1,1.5-0.4c0.4-0.3,0.7-0.6,0.9-1.1v-1.2h-2.4c-1.3,0-2,0.4-2,1.3
				c0,0.4,0.2,0.8,0.5,1C277.8,284.3,278.3,284.4,278.8,284.4z M288.8,274.8c-0.9,0-1.4,0.5-1.4,1.5v0.7h2.5v1.3h-2.4v7.2h-1.5v-7.2
				h-1.4V277h1.4v-0.8c0-0.8,0.2-1.5,0.7-2c0.5-0.5,1.2-0.7,2.1-0.7c0.3,0,0.7,0,1,0.1c0.3,0.1,0.6,0.2,0.8,0.4l-0.5,1.2
				C289.6,274.9,289.2,274.8,288.8,274.8z M298.9,281.3c0,0.1,0,0.3,0,0.5h-6.9c0.1,0.7,0.4,1.3,1,1.8c0.6,0.4,1.3,0.7,2.1,0.7
				c1,0,1.8-0.3,2.4-1l0.8,1c-0.4,0.4-0.9,0.8-1.4,1c-0.6,0.2-1.2,0.4-1.9,0.4c-0.9,0-1.7-0.2-2.4-0.5c-0.7-0.4-1.2-0.9-1.6-1.6
				c-0.4-0.7-0.6-1.4-0.6-2.2c0-0.8,0.2-1.6,0.5-2.2c0.4-0.7,0.9-1.2,1.5-1.5c0.7-0.4,1.4-0.6,2.2-0.6c0.8,0,1.5,0.2,2.2,0.6
				c0.6,0.4,1.1,0.9,1.5,1.5C298.7,279.7,298.9,280.5,298.9,281.3z M294.7,278.2c-0.7,0-1.4,0.2-1.9,0.7c-0.5,0.4-0.8,1-0.9,1.8h5.4
				c-0.1-0.7-0.4-1.3-0.9-1.7C296,278.5,295.4,278.2,294.7,278.2z M300,288.6c0.6-1.1,1.1-2.3,1.4-3.5c0.3-1.2,0.5-2.5,0.5-4
				c0-1.4-0.2-2.7-0.5-4c-0.3-1.2-0.8-2.4-1.4-3.5h1.5c0.6,1,1.1,2.1,1.4,3.4c0.3,1.3,0.5,2.7,0.5,4.1c0,1.5-0.2,2.8-0.5,4.1
				c-0.3,1.3-0.8,2.4-1.4,3.4H300z"/>
			<path fill="#5095FF" d="M304.3,205l-3.7,8.5H299l-3.7-8.5h1.6l2.9,6.8l3-6.8H304.3z M305.8,205h1.5v8.5h-1.5V205z M306.5,203.4
				c-0.3,0-0.5-0.1-0.8-0.3c-0.2-0.2-0.3-0.4-0.3-0.7c0-0.3,0.1-0.5,0.3-0.7c0.2-0.2,0.5-0.3,0.8-0.3s0.5,0.1,0.7,0.3
				c0.2,0.2,0.3,0.4,0.3,0.7c0,0.3-0.1,0.5-0.3,0.7C307.1,203.3,306.8,203.4,306.5,203.4z M318.2,201.6v11.9h-1.5v-1.3
				c-0.3,0.5-0.8,0.8-1.3,1.1c-0.5,0.2-1.1,0.4-1.7,0.4c-0.8,0-1.6-0.2-2.2-0.5c-0.7-0.4-1.2-0.9-1.5-1.5c-0.4-0.7-0.5-1.4-0.5-2.3
				c0-0.9,0.2-1.6,0.5-2.3c0.4-0.7,0.9-1.2,1.5-1.5c0.6-0.4,1.4-0.5,2.2-0.5c0.6,0,1.2,0.1,1.7,0.4c0.5,0.2,0.9,0.6,1.3,1v-4.7H318.2
				z M313.9,212.3c0.5,0,1-0.1,1.5-0.4c0.4-0.3,0.8-0.6,1-1.1c0.2-0.5,0.4-1,0.4-1.6c0-0.6-0.1-1.1-0.4-1.6c-0.2-0.5-0.6-0.8-1-1.1
				c-0.4-0.2-0.9-0.4-1.5-0.4c-0.5,0-1,0.1-1.5,0.4c-0.4,0.2-0.8,0.6-1,1.1c-0.2,0.4-0.4,1-0.4,1.6c0,0.6,0.1,1.1,0.4,1.6
				c0.3,0.4,0.6,0.8,1,1.1C312.8,212.1,313.3,212.3,313.9,212.3z M328.8,209.3c0,0.1,0,0.3,0,0.5h-6.9c0.1,0.7,0.4,1.3,1,1.8
				c0.6,0.4,1.3,0.7,2.1,0.7c1,0,1.8-0.3,2.4-1l0.8,1c-0.4,0.4-0.9,0.8-1.4,1c-0.6,0.2-1.2,0.4-1.9,0.4c-0.9,0-1.7-0.2-2.4-0.5
				c-0.7-0.4-1.2-0.9-1.6-1.6c-0.4-0.7-0.6-1.4-0.6-2.2c0-0.8,0.2-1.6,0.5-2.2c0.4-0.7,0.9-1.2,1.5-1.5c0.7-0.4,1.4-0.6,2.2-0.6
				s1.5,0.2,2.2,0.6c0.6,0.4,1.1,0.9,1.5,1.5C328.6,207.7,328.8,208.5,328.8,209.3z M324.6,206.2c-0.7,0-1.4,0.2-1.9,0.7
				c-0.5,0.4-0.8,1-0.9,1.8h5.4c-0.1-0.7-0.4-1.3-0.9-1.7C325.9,206.5,325.3,206.2,324.6,206.2z M334.6,213.6c-0.8,0-1.6-0.2-2.3-0.6
				s-1.2-0.9-1.6-1.5c-0.4-0.7-0.6-1.4-0.6-2.2s0.2-1.6,0.6-2.2c0.4-0.7,0.9-1.2,1.6-1.5c0.7-0.4,1.4-0.6,2.3-0.6
				c0.8,0,1.6,0.2,2.3,0.6c0.7,0.4,1.2,0.9,1.6,1.5c0.4,0.7,0.6,1.4,0.6,2.2s-0.2,1.6-0.6,2.2c-0.4,0.7-0.9,1.2-1.6,1.5
				C336.2,213.4,335.4,213.6,334.6,213.6z M334.6,212.3c0.5,0,1-0.1,1.5-0.4c0.4-0.3,0.8-0.6,1-1.1c0.2-0.5,0.4-1,0.4-1.6
				c0-0.6-0.1-1.1-0.4-1.6c-0.2-0.5-0.6-0.8-1-1.1c-0.4-0.2-0.9-0.4-1.5-0.4s-1,0.1-1.5,0.4c-0.4,0.2-0.8,0.6-1,1.1
				c-0.2,0.4-0.4,1-0.4,1.6c0,0.6,0.1,1.1,0.4,1.6c0.3,0.4,0.6,0.8,1,1.1C333.5,212.1,334,212.3,334.6,212.3z M122.8,229v7.3
				c0,1.5-0.4,2.6-1.1,3.3c-0.7,0.7-1.8,1.1-3.3,1.1c-0.8,0-1.6-0.1-2.3-0.3c-0.7-0.2-1.3-0.5-1.8-0.9l0.7-1.2
				c0.4,0.3,0.9,0.6,1.5,0.8c0.6,0.2,1.2,0.3,1.8,0.3c1,0,1.7-0.2,2.2-0.7c0.5-0.5,0.7-1.2,0.7-2.1v-0.7c-0.4,0.4-0.8,0.8-1.3,1
				c-0.5,0.2-1.1,0.3-1.7,0.3c-0.8,0-1.5-0.2-2.2-0.5c-0.7-0.4-1.2-0.8-1.5-1.5c-0.4-0.6-0.6-1.3-0.6-2.1s0.2-1.5,0.6-2.1
				c0.4-0.6,0.9-1.1,1.5-1.5c0.7-0.3,1.4-0.5,2.2-0.5c0.6,0,1.2,0.1,1.8,0.4c0.6,0.2,1,0.6,1.4,1V229H122.8z M118.4,235.8
				c0.6,0,1.1-0.1,1.5-0.4c0.4-0.2,0.8-0.6,1-1c0.3-0.4,0.4-0.9,0.4-1.4c0-0.8-0.3-1.5-0.8-2c-0.5-0.5-1.2-0.8-2.1-0.8
				c-0.9,0-1.6,0.3-2.1,0.8c-0.5,0.5-0.8,1.2-0.8,2c0,0.5,0.1,1,0.4,1.4c0.3,0.4,0.6,0.7,1,1C117.3,235.7,117.8,235.8,118.4,235.8z
				 M133.6,229v8.5h-1.5v-1.3c-0.3,0.4-0.7,0.8-1.2,1c-0.5,0.2-1.1,0.4-1.6,0.4c-1.1,0-2-0.3-2.7-0.9c-0.7-0.6-1-1.6-1-2.8V229h1.5
				v4.7c0,0.8,0.2,1.4,0.6,1.9c0.4,0.4,1,0.6,1.7,0.6c0.8,0,1.5-0.2,1.9-0.7c0.5-0.5,0.7-1.2,0.7-2.1V229H133.6z M136.5,229h1.5v8.5
				h-1.5V229z M137.3,227.4c-0.3,0-0.5-0.1-0.8-0.3c-0.2-0.2-0.3-0.4-0.3-0.7c0-0.3,0.1-0.5,0.3-0.7c0.2-0.2,0.5-0.3,0.8-0.3
				c0.3,0,0.5,0.1,0.7,0.3c0.2,0.2,0.3,0.4,0.3,0.7c0,0.3-0.1,0.5-0.3,0.7C137.8,227.3,137.6,227.4,137.3,227.4z M149,225.6v11.9
				h-1.5v-1.3c-0.3,0.5-0.8,0.8-1.3,1.1c-0.5,0.2-1.1,0.4-1.7,0.4c-0.8,0-1.6-0.2-2.2-0.5c-0.7-0.4-1.2-0.9-1.5-1.5
				c-0.4-0.7-0.5-1.4-0.5-2.3c0-0.9,0.2-1.6,0.5-2.3c0.4-0.7,0.9-1.2,1.5-1.5c0.7-0.4,1.4-0.5,2.2-0.5c0.6,0,1.2,0.1,1.7,0.4
				c0.5,0.2,0.9,0.6,1.3,1v-4.7H149z M144.6,236.3c0.5,0,1-0.1,1.5-0.4c0.4-0.3,0.8-0.6,1-1.1c0.2-0.5,0.4-1,0.4-1.6
				c0-0.6-0.1-1.1-0.4-1.6c-0.2-0.5-0.6-0.8-1-1.1c-0.4-0.2-0.9-0.4-1.5-0.4c-0.5,0-1,0.1-1.5,0.4c-0.4,0.2-0.8,0.6-1,1.1
				c-0.2,0.4-0.4,1-0.4,1.6c0,0.6,0.1,1.1,0.4,1.6c0.3,0.4,0.6,0.8,1,1.1C143.6,236.1,144.1,236.3,144.6,236.3z M159.6,233.3
				c0,0.1,0,0.3,0,0.5h-6.9c0.1,0.7,0.4,1.3,1,1.8c0.6,0.4,1.3,0.7,2.1,0.7c1,0,1.8-0.3,2.4-1l0.8,1c-0.4,0.4-0.9,0.8-1.4,1
				c-0.6,0.2-1.2,0.4-1.9,0.4c-0.9,0-1.7-0.2-2.4-0.5c-0.7-0.4-1.2-0.9-1.6-1.6c-0.4-0.7-0.6-1.4-0.6-2.2c0-0.8,0.2-1.6,0.5-2.2
				c0.4-0.7,0.9-1.2,1.5-1.5c0.7-0.4,1.4-0.6,2.2-0.6c0.8,0,1.5,0.2,2.2,0.6c0.6,0.4,1.1,0.9,1.5,1.5
				C159.4,231.7,159.6,232.5,159.6,233.3z M155.4,230.2c-0.7,0-1.4,0.2-1.9,0.7c-0.5,0.4-0.8,1-0.9,1.8h5.4c-0.1-0.7-0.4-1.3-0.9-1.7
				C156.7,230.5,156.1,230.2,155.4,230.2z"/>
			<path fill="#5095FF" d="M295.4,215.1h44.3v0.8h-44.3V215.1z M113.2,239.1h47v0.8h-47V239.1z"/>
		</g>
		<g class="topic_text">
			<path id="How_to_know_if_your_face_mask_is_real_and_will_protect_you_x3F_" fill="#F79FA8" d="M87.1,141.3v11.2h-2.6v-4.6h-5.1
				v4.6h-2.6v-11.2h2.6v4.4h5.1v-4.4H87.1z M93.6,152.6c-0.9,0-1.7-0.2-2.4-0.6c-0.7-0.4-1.3-0.9-1.7-1.6c-0.4-0.7-0.6-1.4-0.6-2.3
				s0.2-1.6,0.6-2.3c0.4-0.7,1-1.2,1.7-1.6c0.7-0.4,1.5-0.6,2.4-0.6s1.7,0.2,2.4,0.6c0.7,0.4,1.3,0.9,1.7,1.6c0.4,0.7,0.6,1.4,0.6,2.3
				s-0.2,1.6-0.6,2.3c-0.4,0.7-1,1.2-1.7,1.6C95.3,152.4,94.5,152.6,93.6,152.6z M93.6,150.6c0.6,0,1.2-0.2,1.6-0.6
				c0.4-0.4,0.6-1,0.6-1.7s-0.2-1.3-0.6-1.7c-0.4-0.4-0.9-0.7-1.6-0.7s-1.2,0.2-1.6,0.7c-0.4,0.4-0.6,1-0.6,1.7s0.2,1.3,0.6,1.7
				C92.5,150.4,93,150.6,93.6,150.6z M113.6,143.9l-3.1,8.6h-2.4l-1.9-5.3l-2,5.3h-2.4l-3.1-8.6h2.4l2,5.8l2.1-5.8h2.1l2,5.8l2.1-5.8
				H113.6z M124.8,152.1c-0.2,0.2-0.5,0.3-0.9,0.4c-0.4,0.1-0.7,0.1-1.1,0.1c-1,0-1.8-0.3-2.4-0.8c-0.6-0.5-0.8-1.3-0.8-2.3V146h-1.3
				v-1.9h1.3V142h2.5v2.1h2.1v1.9h-2.1v3.5c0,0.4,0.1,0.6,0.3,0.8c0.2,0.2,0.5,0.3,0.8,0.3c0.4,0,0.7-0.1,1-0.3L124.8,152.1z
				 M130.1,152.6c-0.9,0-1.7-0.2-2.4-0.6c-0.7-0.4-1.3-0.9-1.7-1.6c-0.4-0.7-0.6-1.4-0.6-2.3s0.2-1.6,0.6-2.3c0.4-0.7,1-1.2,1.7-1.6
				c0.7-0.4,1.5-0.6,2.4-0.6c0.9,0,1.7,0.2,2.4,0.6c0.7,0.4,1.3,0.9,1.7,1.6c0.4,0.7,0.6,1.4,0.6,2.3s-0.2,1.6-0.6,2.3
				c-0.4,0.7-1,1.2-1.7,1.6C131.8,152.4,131,152.6,130.1,152.6z M130.1,150.6c0.6,0,1.2-0.2,1.6-0.6c0.4-0.4,0.6-1,0.6-1.7
				s-0.2-1.3-0.6-1.7c-0.4-0.4-0.9-0.7-1.6-0.7c-0.6,0-1.2,0.2-1.6,0.7c-0.4,0.4-0.6,1-0.6,1.7s0.2,1.3,0.6,1.7
				C128.9,150.4,129.4,150.6,130.1,150.6z M144.7,149.1l-1.2,1.2v2.2H141v-11.9h2.5v6.7l3.6-3.5h3l-3.6,3.6l3.9,5h-3L144.7,149.1z
				 M156.7,143.8c1.1,0,1.9,0.3,2.6,1c0.7,0.6,1,1.6,1,2.8v4.9h-2.5V148c0-0.7-0.2-1.2-0.4-1.5c-0.3-0.3-0.7-0.5-1.3-0.5
				c-0.6,0-1.1,0.2-1.5,0.6c-0.4,0.4-0.6,1-0.6,1.7v4.3h-2.5v-8.6h2.4v1c0.3-0.4,0.7-0.6,1.2-0.8C155.6,143.9,156.1,143.8,156.7,143.8
				z M166.7,152.6c-0.9,0-1.7-0.2-2.4-0.6c-0.7-0.4-1.3-0.9-1.7-1.6c-0.4-0.7-0.6-1.4-0.6-2.3s0.2-1.6,0.6-2.3c0.4-0.7,1-1.2,1.7-1.6
				c0.7-0.4,1.5-0.6,2.4-0.6s1.7,0.2,2.4,0.6c0.7,0.4,1.3,0.9,1.7,1.6c0.4,0.7,0.6,1.4,0.6,2.3s-0.2,1.6-0.6,2.3
				c-0.4,0.7-1,1.2-1.7,1.6C168.5,152.4,167.7,152.6,166.7,152.6z M166.7,150.6c0.6,0,1.2-0.2,1.6-0.6c0.4-0.4,0.6-1,0.6-1.7
				s-0.2-1.3-0.6-1.7c-0.4-0.4-0.9-0.7-1.6-0.7s-1.2,0.2-1.6,0.7c-0.4,0.4-0.6,1-0.6,1.7s0.2,1.3,0.6,1.7
				C165.6,150.4,166.1,150.6,166.7,150.6z M186.7,143.9l-3.1,8.6h-2.4l-1.9-5.3l-2,5.3h-2.4l-3.1-8.6h2.4l2,5.8l2.1-5.8h2.1l2,5.8
				l2.1-5.8H186.7z M192.4,143.9h2.5v8.6h-2.5V143.9z M193.7,142.7c-0.5,0-0.8-0.1-1.1-0.4c-0.3-0.3-0.4-0.6-0.4-1s0.1-0.7,0.4-1
				c0.3-0.3,0.7-0.4,1.1-0.4c0.5,0,0.8,0.1,1.1,0.4c0.3,0.3,0.4,0.6,0.4,1c0,0.4-0.1,0.8-0.4,1C194.5,142.6,194.1,142.7,193.7,142.7z
				 M200,144.1h2.2v1.9H200v6.5h-2.5V146h-1.3v-1.9h1.3v-0.4c0-1,0.3-1.8,0.9-2.3c0.6-0.6,1.4-0.9,2.5-0.9c0.4,0,0.7,0,1.1,0.1
				c0.3,0.1,0.6,0.2,0.8,0.3l-0.7,1.8c-0.3-0.2-0.6-0.3-1-0.3c-0.8,0-1.1,0.4-1.1,1.2V144.1z M216.5,143.9l-3.9,9.1
				c-0.4,1-0.9,1.7-1.5,2.1c-0.6,0.4-1.3,0.6-2.1,0.6c-0.4,0-0.9-0.1-1.3-0.2s-0.8-0.3-1.1-0.6l0.9-1.8c0.2,0.2,0.4,0.3,0.7,0.4
				c0.3,0.1,0.5,0.1,0.8,0.1c0.3,0,0.6-0.1,0.8-0.3c0.2-0.2,0.4-0.4,0.6-0.8l0-0.1l-3.7-8.7h2.6l2.4,5.8l2.4-5.8H216.5z M221.4,152.6
				c-0.9,0-1.7-0.2-2.4-0.6c-0.7-0.4-1.3-0.9-1.7-1.6c-0.4-0.7-0.6-1.4-0.6-2.3s0.2-1.6,0.6-2.3c0.4-0.7,1-1.2,1.7-1.6
				c0.7-0.4,1.5-0.6,2.4-0.6s1.7,0.2,2.4,0.6c0.7,0.4,1.3,0.9,1.7,1.6c0.4,0.7,0.6,1.4,0.6,2.3s-0.2,1.6-0.6,2.3
				c-0.4,0.7-1,1.2-1.7,1.6C223.1,152.4,222.3,152.6,221.4,152.6z M221.4,150.6c0.6,0,1.2-0.2,1.6-0.6c0.4-0.4,0.6-1,0.6-1.7
				s-0.2-1.3-0.6-1.7c-0.4-0.4-0.9-0.7-1.6-0.7s-1.2,0.2-1.6,0.7c-0.4,0.4-0.6,1-0.6,1.7s0.2,1.3,0.6,1.7
				C220.2,150.4,220.7,150.6,221.4,150.6z M236.4,143.9v8.6h-2.4v-1c-0.3,0.4-0.7,0.7-1.2,0.9c-0.5,0.2-1,0.3-1.5,0.3
				c-1.1,0-2-0.3-2.7-1c-0.7-0.7-1-1.6-1-2.9v-4.9h2.5v4.5c0,1.4,0.6,2.1,1.7,2.1c0.6,0,1.1-0.2,1.4-0.6c0.4-0.4,0.5-1,0.5-1.7v-4.3
				H236.4z M241.1,145c0.3-0.4,0.7-0.7,1.2-0.9c0.5-0.2,1.1-0.3,1.8-0.3v2.3c-0.3,0-0.5,0-0.6,0c-0.7,0-1.3,0.2-1.7,0.6
				c-0.4,0.4-0.6,1-0.6,1.8v4.1h-2.5v-8.6h2.4V145z M252.9,144.1h2.2v1.9H253v6.5h-2.5V146h-1.3v-1.9h1.3v-0.4c0-1,0.3-1.8,0.9-2.3
				c0.6-0.6,1.4-0.9,2.5-0.9c0.4,0,0.7,0,1.1,0.1c0.3,0.1,0.6,0.2,0.8,0.3l-0.7,1.8c-0.3-0.2-0.6-0.3-1-0.3c-0.8,0-1.1,0.4-1.1,1.2
				V144.1z M259.7,143.8c1.3,0,2.4,0.3,3.1,1c0.7,0.6,1.1,1.6,1.1,2.9v4.9h-2.3v-1.1c-0.5,0.8-1.3,1.2-2.6,1.2c-0.7,0-1.2-0.1-1.7-0.3
				c-0.5-0.2-0.8-0.5-1.1-0.9c-0.3-0.4-0.4-0.8-0.4-1.3c0-0.8,0.3-1.4,0.9-1.9c0.6-0.5,1.5-0.7,2.8-0.7h2c0-0.5-0.2-1-0.5-1.2
				c-0.3-0.3-0.8-0.4-1.5-0.4c-0.5,0-0.9,0.1-1.4,0.2c-0.4,0.1-0.8,0.3-1.1,0.6l-0.9-1.7c0.5-0.3,1-0.6,1.7-0.8
				C258.3,143.9,259,143.8,259.7,143.8z M259.5,150.9c0.4,0,0.8-0.1,1.1-0.3c0.3-0.2,0.6-0.5,0.7-0.9v-0.9h-1.7c-1,0-1.5,0.3-1.5,1
				c0,0.3,0.1,0.6,0.4,0.8C258.7,150.9,259,150.9,259.5,150.9z M270.3,152.6c-0.9,0-1.7-0.2-2.5-0.6c-0.7-0.4-1.3-0.9-1.7-1.6
				c-0.4-0.7-0.6-1.4-0.6-2.3s0.2-1.6,0.6-2.3c0.4-0.7,1-1.2,1.7-1.6c0.7-0.4,1.6-0.6,2.5-0.6c0.9,0,1.7,0.2,2.4,0.6
				c0.7,0.4,1.2,0.9,1.5,1.6l-1.9,1c-0.4-0.8-1.1-1.2-1.9-1.2c-0.7,0-1.2,0.2-1.6,0.6c-0.4,0.4-0.6,1-0.6,1.7s0.2,1.3,0.6,1.7
				c0.4,0.4,1,0.6,1.6,0.6c0.9,0,1.5-0.4,1.9-1.2l1.9,1.1c-0.3,0.7-0.8,1.2-1.5,1.6C272,152.4,271.2,152.6,270.3,152.6z M283.9,148.2
				c0,0,0,0.3,0,0.7h-6.5c0.1,0.5,0.4,1,0.8,1.3c0.4,0.3,1,0.5,1.6,0.5c0.4,0,0.8-0.1,1.2-0.2c0.4-0.1,0.7-0.4,1-0.6l1.3,1.4
				c-0.8,0.9-2,1.4-3.6,1.4c-1,0-1.8-0.2-2.6-0.6c-0.7-0.4-1.3-0.9-1.7-1.6c-0.4-0.7-0.6-1.4-0.6-2.3c0-0.8,0.2-1.6,0.6-2.3
				c0.4-0.7,1-1.2,1.6-1.6c0.7-0.4,1.5-0.6,2.4-0.6c0.8,0,1.6,0.2,2.3,0.5c0.7,0.4,1.2,0.9,1.6,1.6
				C283.7,146.5,283.9,147.3,283.9,148.2z M279.5,145.7c-0.6,0-1,0.2-1.4,0.5c-0.4,0.3-0.6,0.8-0.7,1.3h4.2c-0.1-0.5-0.3-1-0.7-1.3
				C280.5,145.8,280,145.7,279.5,145.7z M301.2,143.8c1.1,0,1.9,0.3,2.6,1c0.6,0.6,1,1.6,1,2.8v4.9h-2.5V148c0-0.7-0.1-1.2-0.4-1.5
				c-0.3-0.3-0.7-0.5-1.2-0.5c-0.6,0-1,0.2-1.4,0.6c-0.3,0.4-0.5,0.9-0.5,1.7v4.3h-2.5V148c0-1.4-0.5-2-1.6-2c-0.6,0-1,0.2-1.4,0.6
				c-0.3,0.4-0.5,0.9-0.5,1.7v4.3h-2.5v-8.6h2.4v1c0.3-0.4,0.7-0.6,1.2-0.8c0.5-0.2,1-0.3,1.5-0.3c0.6,0,1.2,0.1,1.6,0.4
				c0.5,0.2,0.9,0.6,1.2,1c0.4-0.4,0.8-0.8,1.3-1C299.9,143.9,300.5,143.8,301.2,143.8z M310.4,143.8c1.3,0,2.4,0.3,3.1,1
				c0.7,0.6,1.1,1.6,1.1,2.9v4.9h-2.3v-1.1c-0.5,0.8-1.3,1.2-2.6,1.2c-0.7,0-1.2-0.1-1.7-0.3c-0.5-0.2-0.8-0.5-1.1-0.9
				c-0.3-0.4-0.4-0.8-0.4-1.3c0-0.8,0.3-1.4,0.9-1.9c0.6-0.5,1.5-0.7,2.8-0.7h2c0-0.5-0.2-1-0.5-1.2c-0.3-0.3-0.8-0.4-1.5-0.4
				c-0.5,0-0.9,0.1-1.4,0.2c-0.4,0.1-0.8,0.3-1.1,0.6l-0.9-1.7c0.5-0.3,1-0.6,1.7-0.8C309,143.9,309.7,143.8,310.4,143.8z
				 M310.2,150.9c0.4,0,0.8-0.1,1.1-0.3c0.3-0.2,0.6-0.5,0.7-0.9v-0.9h-1.7c-1,0-1.5,0.3-1.5,1c0,0.3,0.1,0.6,0.4,0.8
				C309.4,150.9,309.8,150.9,310.2,150.9z M319.7,152.6c-0.7,0-1.4-0.1-2.1-0.3c-0.7-0.2-1.2-0.4-1.6-0.7l0.8-1.8
				c0.4,0.2,0.8,0.4,1.4,0.6c0.5,0.1,1.1,0.2,1.6,0.2c1.1,0,1.6-0.3,1.6-0.8c0-0.2-0.1-0.4-0.4-0.5c-0.3-0.1-0.7-0.2-1.3-0.3
				c-0.7-0.1-1.3-0.2-1.7-0.4c-0.5-0.1-0.9-0.4-1.2-0.7c-0.3-0.4-0.5-0.9-0.5-1.5c0-0.5,0.2-1,0.5-1.4c0.3-0.4,0.8-0.8,1.4-1
				c0.6-0.2,1.3-0.4,2.1-0.4c0.6,0,1.2,0.1,1.8,0.2c0.6,0.1,1.1,0.3,1.5,0.5l-0.8,1.8c-0.8-0.4-1.6-0.6-2.5-0.6
				c-0.5,0-0.9,0.1-1.2,0.2c-0.3,0.1-0.4,0.3-0.4,0.6c0,0.3,0.1,0.5,0.4,0.6c0.3,0.1,0.7,0.2,1.4,0.3c0.7,0.1,1.3,0.2,1.7,0.4
				c0.4,0.1,0.8,0.4,1.2,0.7c0.3,0.4,0.5,0.8,0.5,1.5c0,0.5-0.2,1-0.5,1.4c-0.3,0.4-0.8,0.7-1.4,1
				C321.3,152.5,320.5,152.6,319.7,152.6z M329,149.1l-1.2,1.2v2.2h-2.5v-11.9h2.5v6.7l3.6-3.5h3l-3.6,3.6l3.9,5h-3L329,149.1z
				 M340.4,143.9h2.5v8.6h-2.5V143.9z M341.6,142.7c-0.5,0-0.8-0.1-1.1-0.4c-0.3-0.3-0.4-0.6-0.4-1s0.1-0.7,0.4-1s0.7-0.4,1.1-0.4
				c0.5,0,0.8,0.1,1.1,0.4c0.3,0.3,0.4,0.6,0.4,1c0,0.4-0.1,0.8-0.4,1C342.5,142.6,342.1,142.7,341.6,142.7z M348.1,152.6
				c-0.7,0-1.4-0.1-2.1-0.3c-0.7-0.2-1.2-0.4-1.6-0.7l0.8-1.8c0.4,0.2,0.8,0.4,1.4,0.6c0.5,0.1,1.1,0.2,1.6,0.2c1.1,0,1.6-0.3,1.6-0.8
				c0-0.2-0.1-0.4-0.4-0.5c-0.3-0.1-0.7-0.2-1.3-0.3c-0.7-0.1-1.3-0.2-1.7-0.4c-0.5-0.1-0.9-0.4-1.2-0.7c-0.3-0.4-0.5-0.9-0.5-1.5
				c0-0.5,0.2-1,0.5-1.4c0.3-0.4,0.8-0.8,1.4-1c0.6-0.2,1.3-0.4,2.1-0.4c0.6,0,1.2,0.1,1.8,0.2c0.6,0.1,1.1,0.3,1.5,0.5l-0.8,1.8
				c-0.8-0.4-1.6-0.6-2.5-0.6c-0.5,0-0.9,0.1-1.2,0.2c-0.3,0.1-0.4,0.3-0.4,0.6c0,0.3,0.1,0.5,0.4,0.6c0.3,0.1,0.7,0.2,1.4,0.3
				c0.7,0.1,1.3,0.2,1.7,0.4c0.4,0.1,0.8,0.4,1.2,0.7s0.5,0.8,0.5,1.5c0,0.5-0.2,1-0.5,1.4c-0.3,0.4-0.8,0.7-1.4,1
				C349.7,152.5,348.9,152.6,348.1,152.6z M110.9,169c0.3-0.4,0.7-0.7,1.2-0.9c0.5-0.2,1.1-0.3,1.8-0.3v2.3c-0.3,0-0.5,0-0.6,0
				c-0.7,0-1.3,0.2-1.7,0.6c-0.4,0.4-0.6,1-0.6,1.8v4.1h-2.5v-8.6h2.4V169z M123.7,172.2c0,0,0,0.3,0,0.7h-6.5c0.1,0.5,0.4,1,0.8,1.3
				c0.4,0.3,1,0.5,1.6,0.5c0.4,0,0.8-0.1,1.2-0.2c0.4-0.1,0.7-0.4,1-0.6l1.3,1.4c-0.8,0.9-2,1.4-3.6,1.4c-1,0-1.8-0.2-2.6-0.6
				c-0.7-0.4-1.3-0.9-1.7-1.6c-0.4-0.7-0.6-1.4-0.6-2.3c0-0.8,0.2-1.6,0.6-2.3c0.4-0.7,1-1.2,1.6-1.6c0.7-0.4,1.5-0.6,2.4-0.6
				c0.8,0,1.6,0.2,2.3,0.5c0.7,0.4,1.2,0.9,1.6,1.6C123.5,170.5,123.7,171.3,123.7,172.2z M119.3,169.7c-0.6,0-1,0.2-1.4,0.5
				c-0.4,0.3-0.6,0.8-0.7,1.3h4.2c-0.1-0.5-0.3-1-0.7-1.3C120.3,169.8,119.8,169.7,119.3,169.7z M128.6,167.8c1.3,0,2.4,0.3,3.1,1
				c0.7,0.6,1.1,1.6,1.1,2.9v4.9h-2.3v-1.1c-0.5,0.8-1.3,1.2-2.6,1.2c-0.7,0-1.2-0.1-1.7-0.3c-0.5-0.2-0.8-0.5-1.1-0.9
				s-0.4-0.8-0.4-1.3c0-0.8,0.3-1.4,0.9-1.9c0.6-0.5,1.5-0.7,2.8-0.7h2c0-0.5-0.2-1-0.5-1.2c-0.3-0.3-0.8-0.4-1.5-0.4
				c-0.5,0-0.9,0.1-1.4,0.2c-0.4,0.1-0.8,0.3-1.1,0.6l-0.9-1.7c0.5-0.3,1-0.6,1.7-0.8C127.3,167.9,127.9,167.8,128.6,167.8z
				 M128.4,174.9c0.4,0,0.8-0.1,1.1-0.3c0.3-0.2,0.6-0.5,0.7-0.9v-0.9h-1.7c-1,0-1.5,0.3-1.5,1c0,0.3,0.1,0.6,0.4,0.8
				C127.7,174.9,128,174.9,128.4,174.9z M135,164.6h2.5v11.9H135V164.6z M147.9,167.8c1.3,0,2.4,0.3,3.1,1c0.7,0.6,1.1,1.6,1.1,2.9
				v4.9h-2.3v-1.1c-0.5,0.8-1.3,1.2-2.6,1.2c-0.7,0-1.2-0.1-1.7-0.3c-0.5-0.2-0.8-0.5-1.1-0.9c-0.3-0.4-0.4-0.8-0.4-1.3
				c0-0.8,0.3-1.4,0.9-1.9c0.6-0.5,1.5-0.7,2.8-0.7h2c0-0.5-0.2-1-0.5-1.2c-0.3-0.3-0.8-0.4-1.5-0.4c-0.5,0-0.9,0.1-1.4,0.2
				c-0.4,0.1-0.8,0.3-1.1,0.6l-0.9-1.7c0.5-0.3,1-0.6,1.7-0.8C146.5,167.9,147.2,167.8,147.9,167.8z M147.7,174.9
				c0.4,0,0.8-0.1,1.1-0.3c0.3-0.2,0.6-0.5,0.7-0.9v-0.9h-1.7c-1,0-1.5,0.3-1.5,1c0,0.3,0.1,0.6,0.4,0.8
				C146.9,174.9,147.2,174.9,147.7,174.9z M159.5,167.8c1.1,0,1.9,0.3,2.6,1c0.7,0.6,1,1.6,1,2.8v4.9h-2.5V172c0-0.7-0.1-1.2-0.4-1.5
				c-0.3-0.3-0.7-0.5-1.3-0.5c-0.6,0-1.1,0.2-1.5,0.6c-0.4,0.4-0.6,1-0.6,1.7v4.3h-2.5v-8.6h2.4v1c0.3-0.4,0.7-0.6,1.2-0.8
				C158.4,167.9,158.9,167.8,159.5,167.8z M174.2,164.6v11.9h-2.4v-1c-0.6,0.7-1.5,1.1-2.7,1.1c-0.8,0-1.5-0.2-2.2-0.5
				c-0.7-0.4-1.2-0.9-1.5-1.6c-0.4-0.7-0.6-1.5-0.6-2.3s0.2-1.7,0.6-2.3c0.4-0.7,0.9-1.2,1.5-1.6c0.7-0.4,1.4-0.5,2.2-0.5
				c1.1,0,2,0.3,2.6,1v-4.2H174.2z M169.5,174.6c0.6,0,1.2-0.2,1.6-0.6c0.4-0.4,0.6-1,0.6-1.7s-0.2-1.3-0.6-1.7
				c-0.4-0.4-0.9-0.7-1.6-0.7c-0.6,0-1.2,0.2-1.6,0.7c-0.4,0.4-0.6,1-0.6,1.7s0.2,1.3,0.6,1.7C168.4,174.4,168.9,174.6,169.5,174.6z
				 M194.9,167.9l-3.1,8.6h-2.4l-1.9-5.3l-2,5.3H183l-3.1-8.6h2.4l2,5.8l2.1-5.8h2.1l2,5.8l2.1-5.8H194.9z M196,167.9h2.5v8.6H196
				V167.9z M197.3,166.7c-0.5,0-0.8-0.1-1.1-0.4c-0.3-0.3-0.4-0.6-0.4-1s0.1-0.7,0.4-1c0.3-0.3,0.7-0.4,1.1-0.4c0.5,0,0.8,0.1,1.1,0.4
				c0.3,0.3,0.4,0.6,0.4,1c0,0.4-0.1,0.8-0.4,1C198.1,166.6,197.7,166.7,197.3,166.7z M200.8,164.6h2.5v11.9h-2.5V164.6z M205.6,164.6
				h2.5v11.9h-2.5V164.6z M220.1,167.8c0.8,0,1.5,0.2,2.2,0.6c0.7,0.4,1.2,0.9,1.6,1.6c0.4,0.7,0.6,1.4,0.6,2.3s-0.2,1.7-0.6,2.3
				c-0.4,0.7-0.9,1.2-1.6,1.6c-0.7,0.4-1.4,0.5-2.2,0.5c-1.1,0-2-0.3-2.6-1v4H215v-11.7h2.4v1C218,168.1,218.9,167.8,220.1,167.8z
				 M219.6,174.6c0.6,0,1.2-0.2,1.6-0.6c0.4-0.4,0.6-1,0.6-1.7s-0.2-1.3-0.6-1.7c-0.4-0.4-0.9-0.7-1.6-0.7s-1.2,0.2-1.6,0.7
				c-0.4,0.4-0.6,1-0.6,1.7s0.2,1.3,0.6,1.7C218.5,174.4,219,174.6,219.6,174.6z M228.4,169c0.3-0.4,0.7-0.7,1.2-0.9
				c0.5-0.2,1.1-0.3,1.8-0.3v2.3c-0.3,0-0.5,0-0.6,0c-0.7,0-1.3,0.2-1.7,0.6c-0.4,0.4-0.6,1-0.6,1.8v4.1H226v-8.6h2.4V169z
				 M236.9,176.6c-0.9,0-1.7-0.2-2.4-0.6c-0.7-0.4-1.3-0.9-1.7-1.6c-0.4-0.7-0.6-1.4-0.6-2.3c0-0.9,0.2-1.6,0.6-2.3
				c0.4-0.7,1-1.2,1.7-1.6c0.7-0.4,1.5-0.6,2.4-0.6s1.7,0.2,2.4,0.6c0.7,0.4,1.3,0.9,1.7,1.6c0.4,0.7,0.6,1.4,0.6,2.3
				c0,0.9-0.2,1.6-0.6,2.3c-0.4,0.7-1,1.2-1.7,1.6C238.6,176.4,237.8,176.6,236.9,176.6z M236.9,174.6c0.6,0,1.2-0.2,1.6-0.6
				c0.4-0.4,0.6-1,0.6-1.7s-0.2-1.3-0.6-1.7c-0.4-0.4-0.9-0.7-1.6-0.7s-1.2,0.2-1.6,0.7c-0.4,0.4-0.6,1-0.6,1.7s0.2,1.3,0.6,1.7
				C235.7,174.4,236.2,174.6,236.9,174.6z M248.8,176.1c-0.2,0.2-0.5,0.3-0.9,0.4c-0.4,0.1-0.7,0.1-1.1,0.1c-1,0-1.8-0.3-2.4-0.8
				c-0.6-0.5-0.8-1.3-0.8-2.3V170h-1.3v-1.9h1.3V166h2.5v2.1h2.1v1.9h-2.1v3.5c0,0.4,0.1,0.6,0.3,0.8c0.2,0.2,0.5,0.3,0.8,0.3
				c0.4,0,0.7-0.1,1-0.3L248.8,176.1z M258.4,172.2c0,0,0,0.3,0,0.7h-6.5c0.1,0.5,0.4,1,0.8,1.3s1,0.5,1.6,0.5c0.4,0,0.8-0.1,1.2-0.2
				c0.4-0.1,0.7-0.4,1-0.6l1.3,1.4c-0.8,0.9-2,1.4-3.6,1.4c-1,0-1.8-0.2-2.6-0.6c-0.7-0.4-1.3-0.9-1.7-1.6c-0.4-0.7-0.6-1.4-0.6-2.3
				c0-0.8,0.2-1.6,0.6-2.3c0.4-0.7,1-1.2,1.6-1.6c0.7-0.4,1.5-0.6,2.4-0.6c0.8,0,1.6,0.2,2.3,0.5c0.7,0.4,1.2,0.9,1.6,1.6
				C258.2,170.5,258.4,171.3,258.4,172.2z M253.9,169.7c-0.6,0-1,0.2-1.4,0.5c-0.4,0.3-0.6,0.8-0.7,1.3h4.2c-0.1-0.5-0.3-1-0.7-1.3
				C254.9,169.8,254.5,169.7,253.9,169.7z M264.2,176.6c-0.9,0-1.7-0.2-2.5-0.6c-0.7-0.4-1.3-0.9-1.7-1.6c-0.4-0.7-0.6-1.4-0.6-2.3
				c0-0.9,0.2-1.6,0.6-2.3c0.4-0.7,1-1.2,1.7-1.6c0.7-0.4,1.6-0.6,2.5-0.6c0.9,0,1.7,0.2,2.4,0.6c0.7,0.4,1.2,0.9,1.5,1.6l-1.9,1
				c-0.4-0.8-1.1-1.2-1.9-1.2c-0.7,0-1.2,0.2-1.6,0.6c-0.4,0.4-0.6,1-0.6,1.7s0.2,1.3,0.6,1.7c0.4,0.4,1,0.6,1.6,0.6
				c0.9,0,1.5-0.4,1.9-1.2l1.9,1.1c-0.3,0.7-0.8,1.2-1.5,1.6C265.9,176.4,265.1,176.6,264.2,176.6z M275.2,176.1
				c-0.2,0.2-0.6,0.3-0.9,0.4c-0.4,0.1-0.7,0.1-1.1,0.1c-1,0-1.8-0.3-2.4-0.8c-0.6-0.5-0.8-1.3-0.8-2.3V170h-1.3v-1.9h1.3V166h2.5v2.1
				h2.1v1.9h-2.1v3.5c0,0.4,0.1,0.6,0.3,0.8c0.2,0.2,0.5,0.3,0.8,0.3c0.4,0,0.7-0.1,1-0.3L275.2,176.1z M289.6,167.9l-3.9,9.1
				c-0.4,1-0.9,1.7-1.5,2.1c-0.6,0.4-1.3,0.6-2.1,0.6c-0.4,0-0.9-0.1-1.3-0.2s-0.8-0.3-1.1-0.6l0.9-1.8c0.2,0.2,0.4,0.3,0.7,0.4
				c0.3,0.1,0.5,0.1,0.8,0.1c0.3,0,0.6-0.1,0.8-0.3c0.2-0.2,0.4-0.4,0.6-0.8l0-0.1l-3.7-8.7h2.6l2.4,5.8l2.4-5.8H289.6z M294.5,176.6
				c-0.9,0-1.7-0.2-2.4-0.6c-0.7-0.4-1.3-0.9-1.7-1.6c-0.4-0.7-0.6-1.4-0.6-2.3c0-0.9,0.2-1.6,0.6-2.3c0.4-0.7,1-1.2,1.7-1.6
				c0.7-0.4,1.5-0.6,2.4-0.6c0.9,0,1.7,0.2,2.4,0.6c0.7,0.4,1.3,0.9,1.7,1.6c0.4,0.7,0.6,1.4,0.6,2.3c0,0.9-0.2,1.6-0.6,2.3
				c-0.4,0.7-1,1.2-1.7,1.6C296.2,176.4,295.4,176.6,294.5,176.6z M294.5,174.6c0.6,0,1.2-0.2,1.6-0.6c0.4-0.4,0.6-1,0.6-1.7
				s-0.2-1.3-0.6-1.7c-0.4-0.4-0.9-0.7-1.6-0.7c-0.6,0-1.2,0.2-1.6,0.7c-0.4,0.4-0.6,1-0.6,1.7s0.2,1.3,0.6,1.7
				C293.4,174.4,293.9,174.6,294.5,174.6z M309.6,167.9v8.6h-2.4v-1c-0.3,0.4-0.7,0.7-1.2,0.9c-0.5,0.2-1,0.3-1.5,0.3
				c-1.1,0-2-0.3-2.7-1c-0.7-0.7-1-1.6-1-2.9v-4.9h2.5v4.5c0,1.4,0.6,2.1,1.7,2.1c0.6,0,1.1-0.2,1.4-0.6c0.4-0.4,0.5-1,0.5-1.7v-4.3
				H309.6z M314.6,172.6c0-0.6,0.1-1,0.4-1.4c0.3-0.4,0.6-0.8,1.1-1.2c0.4-0.3,0.6-0.6,0.8-0.8c0.2-0.2,0.3-0.5,0.3-0.8
				c0-0.4-0.2-0.7-0.5-0.9c-0.3-0.2-0.7-0.4-1.2-0.4c-0.5,0-0.9,0.1-1.3,0.3c-0.4,0.2-0.7,0.5-1,0.9l-1.9-1.1c0.4-0.7,1.1-1.2,1.8-1.6
				c0.8-0.4,1.7-0.6,2.7-0.6c1.2,0,2.2,0.3,2.9,0.8c0.7,0.5,1.1,1.2,1.1,2.2c0,0.4-0.1,0.8-0.2,1.2c-0.1,0.3-0.3,0.6-0.5,0.8
				c-0.2,0.2-0.5,0.5-0.8,0.8c-0.4,0.4-0.7,0.7-0.9,0.9c-0.2,0.2-0.3,0.5-0.3,0.9H314.6z M315.9,176.6c-0.4,0-0.8-0.1-1.1-0.4
				c-0.3-0.3-0.4-0.6-0.4-1s0.1-0.7,0.4-1c0.3-0.3,0.7-0.4,1.1-0.4c0.4,0,0.8,0.1,1.1,0.4c0.3,0.3,0.4,0.6,0.4,1s-0.1,0.8-0.4,1
				C316.7,176.5,316.3,176.6,315.9,176.6z"/>
		</g>
	</g>
</svg>
