<?xml version="1.0" encoding="UTF-8"?>
<svg id="resources_topic_right" enable-background="new 0 0 450 400" aria-labelledby="title_resources_topic_right desc_resources_topic_right" role="button" version="1.1" viewBox="0 0 450 400" xml:space="preserve" xmlns="http://www.w3.org/2000/svg" xmlns:cc="http://creativecommons.org/ns#" xmlns:dc="http://purl.org/dc/elements/1.1/" xmlns:rdf="http://www.w3.org/1999/02/22-rdf-syntax-ns#"><metadata><rdf:RDF><cc:Work rdf:about=""><dc:format>image/svg+xml</dc:format><dc:type rdf:resource="http://purl.org/dc/dcmitype/StillImage"/><dc:title>How can I find more information on Covid-19?</dc:title></cc:Work></rdf:RDF></metadata>
	<title id="title_resources_topic_right">How can I find more information on Covid-19?</title>
  	<desc id="desc_resources_topic_left">Watch the Covid myth busting videos created by the World Health Organization, and read through the information they have gathered.</desc>
	<g class="ellipse_s">
		<circle cx="28.9" cy="375.9" r="8" fill="#fff" filter="url(#dropshadow)"/>
	</g>
    <g class="ellipse_m">
		<circle cx="67.9" cy="332.8" r="16" fill="#fff" filter="url(#dropshadow)"/>
	</g>
    <g class="ellipse_l">
		<ellipse cx="240.4" cy="216.2" rx="185" ry="146" fill="#fff" filter="url(#dropshadow)"/>
	</g>
    <g id="rtr-sub-title" class="topic_text" transform="translate(2.3041 66.359)">
        <path d="m128.9 135.8-3.744 11.2h-1.68l-3.056-8.944-3.056 8.944h-1.712l-3.744-11.2h1.648l3.024 9.104 3.152-9.104h1.472l3.088 9.152 3.088-9.152zm4.18 2.64c1.174 0 2.07 0.288 2.688 0.864 0.63 0.576 0.944 1.435 0.944 2.576v5.12h-1.456v-1.12c-0.256 0.395-0.624 0.699-1.104 0.912-0.469 0.203-1.029 0.304-1.68 0.304-0.949 0-1.712-0.229-2.288-0.688-0.565-0.459-0.848-1.061-0.848-1.808s0.272-1.344 0.816-1.792c0.544-0.459 1.408-0.688 2.592-0.688h2.432v-0.304c0-0.661-0.192-1.168-0.576-1.52s-0.949-0.528-1.696-0.528c-0.501 0-0.992 0.085-1.472 0.256-0.48 0.16-0.885 0.379-1.216 0.656l-0.64-1.152c0.438-0.352 0.96-0.619 1.568-0.8 0.608-0.192 1.254-0.288 1.936-0.288zm-0.352 7.472c0.587 0 1.094-0.128 1.52-0.384 0.427-0.267 0.736-0.64 0.928-1.12v-1.184h-2.368c-1.301 0-1.952 0.437-1.952 1.312 0 0.427 0.166 0.763 0.496 1.008 0.331 0.245 0.79 0.368 1.376 0.368zm11.595 0.592c-0.224 0.192-0.502 0.341-0.832 0.448-0.331 0.096-0.672 0.144-1.024 0.144-0.854 0-1.515-0.229-1.984-0.688-0.47-0.459-0.704-1.115-0.704-1.968v-4.656h-1.44v-1.264h1.44v-1.856h1.536v1.856h2.432v1.264h-2.432v4.592c0 0.459 0.112 0.811 0.336 1.056 0.234 0.245 0.565 0.368 0.992 0.368 0.469 0 0.869-0.133 1.2-0.4zm5.272 0.592c-0.864 0-1.638-0.187-2.32-0.56-0.672-0.373-1.2-0.885-1.584-1.536-0.384-0.661-0.576-1.408-0.576-2.24s0.192-1.573 0.576-2.224c0.384-0.661 0.912-1.173 1.584-1.536 0.682-0.373 1.456-0.56 2.32-0.56 0.768 0 1.45 0.155 2.048 0.464 0.608 0.309 1.077 0.757 1.408 1.344l-1.168 0.752c-0.267-0.405-0.598-0.709-0.992-0.912-0.395-0.203-0.832-0.304-1.312-0.304-0.555 0-1.056 0.123-1.504 0.368-0.438 0.245-0.784 0.597-1.04 1.056-0.246 0.448-0.368 0.965-0.368 1.552 0 0.597 0.122 1.125 0.368 1.584 0.256 0.448 0.602 0.795 1.04 1.04 0.448 0.245 0.949 0.368 1.504 0.368 0.48 0 0.917-0.101 1.312-0.304 0.394-0.203 0.725-0.507 0.992-0.912l1.168 0.736c-0.331 0.587-0.8 1.04-1.408 1.36-0.598 0.309-1.28 0.464-2.048 0.464zm9.863-8.656c1.077 0 1.93 0.315 2.56 0.944 0.64 0.619 0.96 1.531 0.96 2.736v4.88h-1.536v-4.704c0-0.821-0.198-1.44-0.592-1.856-0.395-0.416-0.96-0.624-1.696-0.624-0.832 0-1.488 0.245-1.968 0.736-0.48 0.48-0.72 1.173-0.72 2.08v4.368h-1.536v-11.872h1.536v4.592c0.32-0.405 0.736-0.72 1.248-0.944 0.522-0.224 1.104-0.336 1.744-0.336zm15.427 8.064c-0.224 0.192-0.501 0.341-0.832 0.448-0.33 0.096-0.672 0.144-1.024 0.144-0.853 0-1.514-0.229-1.984-0.688-0.469-0.459-0.704-1.115-0.704-1.968v-4.656h-1.44v-1.264h1.44v-1.856h1.536v1.856h2.432v1.264h-2.432v4.592c0 0.459 0.112 0.811 0.336 1.056 0.235 0.245 0.566 0.368 0.992 0.368 0.47 0 0.87-0.133 1.2-0.4zm6.385-8.064c1.078 0 1.931 0.315 2.56 0.944 0.64 0.619 0.96 1.531 0.96 2.736v4.88h-1.536v-4.704c0-0.821-0.197-1.44-0.592-1.856-0.394-0.416-0.96-0.624-1.696-0.624-0.832 0-1.488 0.245-1.968 0.736-0.48 0.48-0.72 1.173-0.72 2.08v4.368h-1.536v-11.872h1.536v4.592c0.32-0.405 0.736-0.72 1.248-0.944 0.523-0.224 1.104-0.336 1.744-0.336zm14.074 4.368c0 0.117-0.011 0.272-0.032 0.464h-6.88c0.096 0.747 0.421 1.349 0.976 1.808 0.565 0.448 1.264 0.672 2.096 0.672 1.013 0 1.829-0.341 2.448-1.024l0.848 0.992c-0.384 0.448-0.864 0.789-1.44 1.024-0.566 0.235-1.2 0.352-1.904 0.352-0.896 0-1.691-0.181-2.384-0.544-0.694-0.373-1.232-0.891-1.616-1.552-0.374-0.661-0.56-1.408-0.56-2.24 0-0.821 0.181-1.563 0.544-2.224 0.373-0.661 0.88-1.173 1.52-1.536 0.65-0.373 1.381-0.56 2.192-0.56 0.81 0 1.53 0.187 2.16 0.56 0.64 0.363 1.136 0.875 1.488 1.536 0.362 0.661 0.544 1.419 0.544 2.272zm-4.192-3.072c-0.736 0-1.355 0.224-1.856 0.672-0.491 0.448-0.779 1.035-0.864 1.76h5.44c-0.086-0.715-0.379-1.296-0.88-1.744-0.491-0.459-1.104-0.688-1.84-0.688zm-7.042 31.36c-0.864 0-1.637-0.187-2.32-0.56-0.672-0.373-1.2-0.885-1.584-1.536-0.384-0.661-0.576-1.408-0.576-2.24s0.192-1.573 0.576-2.224c0.384-0.661 0.912-1.173 1.584-1.536 0.683-0.373 1.456-0.56 2.32-0.56 0.768 0 1.451 0.155 2.048 0.464 0.608 0.309 1.077 0.757 1.408 1.344l-1.168 0.752c-0.267-0.405-0.597-0.709-0.992-0.912s-0.832-0.304-1.312-0.304c-0.555 0-1.056 0.123-1.504 0.368-0.437 0.245-0.784 0.597-1.04 1.056-0.245 0.448-0.368 0.965-0.368 1.552 0 0.597 0.123 1.125 0.368 1.584 0.256 0.448 0.603 0.795 1.04 1.04 0.448 0.245 0.949 0.368 1.504 0.368 0.48 0 0.917-0.101 1.312-0.304s0.725-0.507 0.992-0.912l1.168 0.736c-0.331 0.587-0.8 1.04-1.408 1.36-0.597 0.309-1.28 0.464-2.048 0.464zm6.917-7.152c0.266-0.491 0.661-0.864 1.184-1.12 0.522-0.256 1.157-0.384 1.904-0.384v1.488c-0.086-0.011-0.203-0.016-0.352-0.016-0.832 0-1.488 0.251-1.968 0.752-0.47 0.491-0.704 1.195-0.704 2.112v4.224h-1.536v-8.48h1.472zm12.567 2.864c0 0.117-0.011 0.272-0.032 0.464h-6.88c0.096 0.747 0.421 1.349 0.976 1.808 0.565 0.448 1.264 0.672 2.096 0.672 1.013 0 1.829-0.341 2.448-1.024l0.848 0.992c-0.384 0.448-0.864 0.789-1.44 1.024-0.566 0.235-1.2 0.352-1.904 0.352-0.896 0-1.691-0.181-2.384-0.544-0.694-0.373-1.232-0.891-1.616-1.552-0.374-0.661-0.56-1.408-0.56-2.24 0-0.821 0.181-1.563 0.544-2.224 0.373-0.661 0.88-1.173 1.52-1.536 0.65-0.373 1.381-0.56 2.192-0.56 0.81 0 1.53 0.187 2.16 0.56 0.64 0.363 1.136 0.875 1.488 1.536 0.362 0.661 0.544 1.419 0.544 2.272zm-4.192-3.072c-0.736 0-1.355 0.224-1.856 0.672-0.491 0.448-0.779 1.035-0.864 1.76h5.44c-0.086-0.715-0.379-1.296-0.88-1.744-0.491-0.459-1.104-0.688-1.84-0.688zm9.178-1.296c1.174 0 2.07 0.288 2.688 0.864 0.63 0.576 0.944 1.435 0.944 2.576v5.12h-1.456v-1.12c-0.256 0.395-0.624 0.699-1.104 0.912-0.469 0.203-1.029 0.304-1.68 0.304-0.949 0-1.712-0.229-2.288-0.688-0.565-0.459-0.848-1.061-0.848-1.808s0.272-1.344 0.816-1.792c0.544-0.459 1.408-0.688 2.592-0.688h2.432v-0.304c0-0.661-0.192-1.168-0.576-1.52s-0.949-0.528-1.696-0.528c-0.501 0-0.992 0.085-1.472 0.256-0.48 0.16-0.885 0.379-1.216 0.656l-0.64-1.152c0.438-0.352 0.96-0.619 1.568-0.8 0.608-0.192 1.254-0.288 1.936-0.288zm-0.352 7.472c0.587 0 1.094-0.128 1.52-0.384 0.427-0.267 0.736-0.64 0.928-1.12v-1.184h-2.368c-1.301 0-1.952 0.437-1.952 1.312 0 0.427 0.166 0.763 0.496 1.008 0.331 0.245 0.79 0.368 1.376 0.368zm11.595 0.592c-0.224 0.192-0.502 0.341-0.832 0.448-0.331 0.096-0.672 0.144-1.024 0.144-0.854 0-1.515-0.229-1.984-0.688-0.47-0.459-0.704-1.115-0.704-1.968v-4.656h-1.44v-1.264h1.44v-1.856h1.536v1.856h2.432v1.264h-2.432v4.592c0 0.459 0.112 0.811 0.336 1.056 0.234 0.245 0.565 0.368 0.992 0.368 0.469 0 0.869-0.133 1.2-0.4zm9.24-3.696c0 0.117-0.011 0.272-0.032 0.464h-6.88c0.096 0.747 0.421 1.349 0.976 1.808 0.565 0.448 1.264 0.672 2.096 0.672 1.013 0 1.829-0.341 2.448-1.024l0.848 0.992c-0.384 0.448-0.864 0.789-1.44 1.024-0.566 0.235-1.2 0.352-1.904 0.352-0.896 0-1.691-0.181-2.384-0.544-0.694-0.373-1.232-0.891-1.616-1.552-0.374-0.661-0.56-1.408-0.56-2.24 0-0.821 0.181-1.563 0.544-2.224 0.373-0.661 0.88-1.173 1.52-1.536 0.65-0.373 1.381-0.56 2.192-0.56 0.81 0 1.53 0.187 2.16 0.56 0.64 0.363 1.136 0.875 1.488 1.536 0.362 0.661 0.544 1.419 0.544 2.272zm-4.192-3.072c-0.736 0-1.355 0.224-1.856 0.672-0.491 0.448-0.779 1.035-0.864 1.76h5.44c-0.086-0.715-0.379-1.296-0.88-1.744-0.491-0.459-1.104-0.688-1.84-0.688zm14.324-4.608v11.872h-1.472v-1.344c-0.341 0.469-0.773 0.827-1.296 1.072-0.522 0.245-1.098 0.368-1.728 0.368-0.821 0-1.557-0.181-2.208-0.544-0.65-0.363-1.162-0.869-1.536-1.52-0.362-0.661-0.544-1.419-0.544-2.272s0.182-1.605 0.544-2.256c0.374-0.651 0.886-1.157 1.536-1.52 0.651-0.363 1.387-0.544 2.208-0.544 0.608 0 1.168 0.117 1.68 0.352 0.512 0.224 0.939 0.56 1.28 1.008v-4.672zm-4.368 10.624c0.534 0 1.019-0.123 1.456-0.368 0.438-0.256 0.779-0.608 1.024-1.056 0.246-0.459 0.368-0.981 0.368-1.568s-0.122-1.104-0.368-1.552c-0.245-0.459-0.586-0.811-1.024-1.056-0.437-0.245-0.922-0.368-1.456-0.368-0.544 0-1.034 0.123-1.472 0.368-0.426 0.245-0.768 0.597-1.024 1.056-0.245 0.448-0.368 0.965-0.368 1.552s0.123 1.109 0.368 1.568c0.256 0.448 0.598 0.8 1.024 1.056 0.438 0.245 0.928 0.368 1.472 0.368zm16.068-7.312c0.821 0 1.557 0.181 2.208 0.544 0.65 0.363 1.157 0.869 1.52 1.52 0.373 0.651 0.56 1.403 0.56 2.256s-0.187 1.611-0.56 2.272c-0.363 0.651-0.87 1.157-1.52 1.52-0.651 0.363-1.387 0.544-2.208 0.544-0.63 0-1.206-0.123-1.729-0.368-0.522-0.245-0.954-0.603-1.295-1.072v1.344h-1.472v-11.872h1.536v4.672c0.341-0.448 0.768-0.784 1.28-1.008 0.512-0.235 1.072-0.352 1.68-0.352zm-0.128 7.312c0.544 0 1.029-0.123 1.456-0.368 0.437-0.256 0.778-0.608 1.024-1.056 0.256-0.459 0.384-0.981 0.384-1.568s-0.128-1.104-0.384-1.552c-0.246-0.459-0.587-0.811-1.024-1.056-0.427-0.245-0.912-0.368-1.456-0.368-0.534 0-1.019 0.123-1.456 0.368-0.438 0.245-0.779 0.597-1.024 1.056-0.246 0.448-0.368 0.965-0.368 1.552s0.122 1.109 0.368 1.568c0.245 0.448 0.586 0.8 1.024 1.056 0.437 0.245 0.922 0.368 1.456 0.368zm13.807-7.232-4.112 9.328c-0.362 0.864-0.789 1.472-1.28 1.824-0.48 0.352-1.061 0.528-1.744 0.528-0.416 0-0.821-0.069-1.216-0.208-0.384-0.128-0.704-0.32-0.96-0.576l0.656-1.152c0.438 0.416 0.944 0.624 1.52 0.624 0.374 0 0.683-0.101 0.928-0.304 0.256-0.192 0.486-0.528 0.688-1.008l0.272-0.592-3.744-8.464h1.6l2.96 6.784 2.928-6.784zm10.499 7.984c-0.224 0.192-0.502 0.341-0.832 0.448-0.331 0.096-0.672 0.144-1.024 0.144-0.854 0-1.515-0.229-1.984-0.688-0.47-0.459-0.704-1.115-0.704-1.968v-4.656h-1.44v-1.264h1.44v-1.856h1.536v1.856h2.432v1.264h-2.432v4.592c0 0.459 0.112 0.811 0.336 1.056 0.234 0.245 0.565 0.368 0.992 0.368 0.469 0 0.869-0.133 1.2-0.4zm6.385-8.064c1.077 0 1.93 0.315 2.56 0.944 0.64 0.619 0.96 1.531 0.96 2.736v4.88h-1.536v-4.704c0-0.821-0.198-1.44-0.592-1.856-0.395-0.416-0.96-0.624-1.696-0.624-0.832 0-1.488 0.245-1.968 0.736-0.48 0.48-0.72 1.173-0.72 2.08v4.368h-1.536v-11.872h1.536v4.592c0.32-0.405 0.736-0.72 1.248-0.944 0.522-0.224 1.104-0.336 1.744-0.336zm14.073 4.368c0 0.117-0.01 0.272-0.032 0.464h-6.88c0.096 0.747 0.422 1.349 0.976 1.808 0.566 0.448 1.264 0.672 2.096 0.672 1.014 0 1.83-0.341 2.448-1.024l0.848 0.992c-0.384 0.448-0.864 0.789-1.44 1.024-0.565 0.235-1.2 0.352-1.904 0.352-0.896 0-1.69-0.181-2.384-0.544-0.693-0.373-1.232-0.891-1.616-1.552-0.373-0.661-0.56-1.408-0.56-2.24 0-0.821 0.182-1.563 0.544-2.224 0.374-0.661 0.88-1.173 1.52-1.536 0.651-0.373 1.382-0.56 2.192-0.56 0.811 0 1.531 0.187 2.16 0.56 0.64 0.363 1.136 0.875 1.488 1.536 0.363 0.661 0.544 1.419 0.544 2.272zm-4.192-3.072c-0.736 0-1.354 0.224-1.856 0.672-0.49 0.448-0.778 1.035-0.864 1.76h5.44c-0.085-0.715-0.378-1.296-0.88-1.744-0.49-0.459-1.104-0.688-1.84-0.688zm26.67-3.936-3.744 11.2h-1.68l-3.056-8.944-3.056 8.944h-1.712l-3.744-11.2h1.648l3.024 9.104 3.152-9.104h1.472l3.088 9.152 3.088-9.152zm4.725 11.296c-0.843 0-1.6-0.187-2.272-0.56s-1.2-0.885-1.584-1.536c-0.374-0.661-0.56-1.408-0.56-2.24s0.186-1.573 0.56-2.224c0.384-0.661 0.912-1.173 1.584-1.536 0.672-0.373 1.429-0.56 2.272-0.56 0.842 0 1.594 0.187 2.256 0.56 0.672 0.363 1.194 0.875 1.568 1.536 0.384 0.651 0.576 1.392 0.576 2.224s-0.192 1.579-0.576 2.24c-0.374 0.651-0.896 1.163-1.568 1.536-0.662 0.373-1.414 0.56-2.256 0.56zm0-1.344c0.544 0 1.029-0.123 1.456-0.368 0.437-0.256 0.778-0.608 1.024-1.056 0.245-0.459 0.368-0.981 0.368-1.568s-0.123-1.104-0.368-1.552c-0.246-0.459-0.587-0.811-1.024-1.056-0.427-0.245-0.912-0.368-1.456-0.368s-1.035 0.123-1.472 0.368c-0.427 0.245-0.768 0.597-1.024 1.056-0.246 0.448-0.368 0.965-0.368 1.552s0.122 1.109 0.368 1.568c0.256 0.448 0.597 0.8 1.024 1.056 0.437 0.245 0.928 0.368 1.472 0.368zm7.996-5.808c0.267-0.491 0.661-0.864 1.184-1.12s1.157-0.384 1.904-0.384v1.488c-0.085-0.011-0.203-0.016-0.352-0.016-0.832 0-1.488 0.251-1.968 0.752-0.469 0.491-0.704 1.195-0.704 2.112v4.224h-1.536v-8.48h1.472zm4.981-4.816h1.536v11.872h-1.536zm12.469 0v11.872h-1.472v-1.344c-0.342 0.469-0.774 0.827-1.296 1.072-0.523 0.245-1.099 0.368-1.728 0.368-0.822 0-1.558-0.181-2.208-0.544-0.651-0.363-1.163-0.869-1.536-1.52-0.363-0.661-0.544-1.419-0.544-2.272s0.181-1.605 0.544-2.256c0.373-0.651 0.885-1.157 1.536-1.52 0.65-0.363 1.386-0.544 2.208-0.544 0.608 0 1.168 0.117 1.68 0.352 0.512 0.224 0.938 0.56 1.28 1.008v-4.672zm-4.368 10.624c0.533 0 1.018-0.123 1.456-0.368 0.437-0.256 0.778-0.608 1.024-1.056 0.245-0.459 0.368-0.981 0.368-1.568s-0.123-1.104-0.368-1.552c-0.246-0.459-0.587-0.811-1.024-1.056-0.438-0.245-0.923-0.368-1.456-0.368-0.544 0-1.035 0.123-1.472 0.368-0.427 0.245-0.768 0.597-1.024 1.056-0.246 0.448-0.368 0.965-0.368 1.552s0.122 1.109 0.368 1.568c0.256 0.448 0.597 0.8 1.024 1.056 0.437 0.245 0.928 0.368 1.472 0.368zm-220.89 14.048v11.2h-1.6v-4.992h-6.432v4.992h-1.6v-11.2h1.6v4.816h6.432v-4.816zm10.792 7.008c0 0.117-0.011 0.272-0.032 0.464h-6.88c0.096 0.747 0.421 1.349 0.976 1.808 0.565 0.448 1.264 0.672 2.096 0.672 1.013 0 1.829-0.341 2.448-1.024l0.848 0.992c-0.384 0.448-0.864 0.789-1.44 1.024-0.565 0.235-1.2 0.352-1.904 0.352-0.896 0-1.691-0.181-2.384-0.544-0.693-0.373-1.232-0.891-1.616-1.552-0.373-0.661-0.56-1.408-0.56-2.24 0-0.821 0.181-1.563 0.544-2.224 0.373-0.661 0.88-1.173 1.52-1.536 0.651-0.373 1.381-0.56 2.192-0.56s1.531 0.187 2.16 0.56c0.64 0.363 1.136 0.875 1.488 1.536 0.363 0.661 0.544 1.419 0.544 2.272zm-4.192-3.072c-0.736 0-1.355 0.224-1.856 0.672-0.491 0.448-0.779 1.035-0.864 1.76h5.44c-0.085-0.715-0.379-1.296-0.88-1.744-0.491-0.459-1.104-0.688-1.84-0.688zm9.178-1.296c1.174 0 2.07 0.288 2.688 0.864 0.63 0.576 0.944 1.435 0.944 2.576v5.12h-1.456v-1.12c-0.256 0.395-0.624 0.699-1.104 0.912-0.469 0.203-1.029 0.304-1.68 0.304-0.949 0-1.712-0.229-2.288-0.688-0.565-0.459-0.848-1.061-0.848-1.808s0.272-1.344 0.816-1.792c0.544-0.459 1.408-0.688 2.592-0.688h2.432v-0.304c0-0.661-0.192-1.168-0.576-1.52s-0.949-0.528-1.696-0.528c-0.501 0-0.992 0.085-1.472 0.256-0.48 0.16-0.885 0.379-1.216 0.656l-0.64-1.152c0.438-0.352 0.96-0.619 1.568-0.8 0.608-0.192 1.254-0.288 1.936-0.288zm-0.352 7.472c0.587 0 1.094-0.128 1.52-0.384 0.427-0.267 0.736-0.64 0.928-1.12v-1.184h-2.368c-1.301 0-1.952 0.437-1.952 1.312 0 0.427 0.166 0.763 0.496 1.008 0.331 0.245 0.79 0.368 1.376 0.368zm6.827-10.784h1.536v11.872h-1.536zm9.44 11.376c-0.224 0.192-0.502 0.341-0.832 0.448-0.331 0.096-0.672 0.144-1.024 0.144-0.854 0-1.515-0.229-1.984-0.688-0.47-0.459-0.704-1.115-0.704-1.968v-4.656h-1.44v-1.264h1.44v-1.856h1.536v1.856h2.432v1.264h-2.432v4.592c0 0.459 0.112 0.811 0.336 1.056 0.234 0.245 0.565 0.368 0.992 0.368 0.469 0 0.869-0.133 1.2-0.4zm6.385-8.064c1.077 0 1.93 0.315 2.56 0.944 0.64 0.619 0.96 1.531 0.96 2.736v4.88h-1.536v-4.704c0-0.821-0.198-1.44-0.592-1.856-0.395-0.416-0.96-0.624-1.696-0.624-0.832 0-1.488 0.245-1.968 0.736-0.48 0.48-0.72 1.173-0.72 2.08v4.368h-1.536v-11.872h1.536v4.592c0.32-0.405 0.736-0.72 1.248-0.944 0.522-0.224 1.104-0.336 1.744-0.336zm15.939 8.688c-1.13 0-2.149-0.245-3.056-0.736-0.906-0.501-1.621-1.189-2.144-2.064-0.512-0.875-0.768-1.851-0.768-2.928s0.256-2.053 0.768-2.928c0.523-0.875 1.238-1.557 2.144-2.048 0.907-0.501 1.926-0.752 3.056-0.752 1.12 0 2.134 0.251 3.04 0.752 0.907 0.491 1.616 1.173 2.128 2.048 0.512 0.864 0.768 1.84 0.768 2.928s-0.256 2.069-0.768 2.944c-0.512 0.864-1.221 1.547-2.128 2.048-0.906 0.491-1.92 0.736-3.04 0.736zm0-1.424c0.822 0 1.558-0.187 2.208-0.56 0.662-0.373 1.179-0.885 1.552-1.536 0.384-0.661 0.576-1.397 0.576-2.208s-0.192-1.541-0.576-2.192c-0.373-0.661-0.89-1.179-1.552-1.552-0.65-0.373-1.386-0.56-2.208-0.56-0.821 0-1.568 0.187-2.24 0.56-0.661 0.373-1.184 0.891-1.568 1.552-0.373 0.651-0.56 1.381-0.56 2.192s0.187 1.547 0.56 2.208c0.384 0.651 0.907 1.163 1.568 1.536 0.672 0.373 1.419 0.56 2.24 0.56zm9.63-5.76c0.266-0.491 0.661-0.864 1.184-1.12 0.522-0.256 1.157-0.384 1.904-0.384v1.488c-0.086-0.011-0.203-0.016-0.352-0.016-0.832 0-1.488 0.251-1.968 0.752-0.47 0.491-0.704 1.195-0.704 2.112v4.224h-1.536v-8.48h1.472zm13.015-1.424v7.328c0 1.483-0.368 2.576-1.104 3.28-0.736 0.715-1.835 1.072-3.296 1.072-0.8 0-1.563-0.112-2.288-0.336-0.726-0.213-1.312-0.523-1.76-0.928l0.736-1.184c0.394 0.341 0.88 0.608 1.456 0.8 0.586 0.203 1.189 0.304 1.808 0.304 0.992 0 1.722-0.235 2.192-0.704 0.48-0.469 0.72-1.184 0.72-2.144v-0.672c-0.363 0.437-0.811 0.768-1.344 0.992-0.523 0.213-1.094 0.32-1.712 0.32-0.811 0-1.547-0.171-2.208-0.512-0.651-0.352-1.163-0.837-1.536-1.456-0.374-0.629-0.56-1.344-0.56-2.144s0.186-1.509 0.56-2.128c0.373-0.629 0.885-1.115 1.536-1.456 0.661-0.341 1.397-0.512 2.208-0.512 0.64 0 1.232 0.117 1.776 0.352 0.554 0.235 1.008 0.581 1.36 1.04v-1.312zm-4.416 6.784c0.554 0 1.05-0.117 1.488-0.352 0.448-0.235 0.794-0.56 1.04-0.976 0.256-0.427 0.384-0.907 0.384-1.44 0-0.821-0.272-1.483-0.816-1.984-0.544-0.512-1.243-0.768-2.096-0.768-0.864 0-1.568 0.256-2.112 0.768-0.544 0.501-0.816 1.163-0.816 1.984 0 0.533 0.122 1.013 0.368 1.44 0.256 0.416 0.602 0.741 1.04 0.976 0.448 0.235 0.954 0.352 1.52 0.352zm10.439-6.864c1.173 0 2.069 0.288 2.688 0.864 0.629 0.576 0.944 1.435 0.944 2.576v5.12h-1.456v-1.12c-0.256 0.395-0.624 0.699-1.104 0.912-0.47 0.203-1.03 0.304-1.68 0.304-0.95 0-1.712-0.229-2.288-0.688-0.566-0.459-0.848-1.061-0.848-1.808s0.272-1.344 0.816-1.792c0.544-0.459 1.408-0.688 2.592-0.688h2.432v-0.304c0-0.661-0.192-1.168-0.576-1.52s-0.95-0.528-1.696-0.528c-0.502 0-0.992 0.085-1.472 0.256-0.48 0.16-0.886 0.379-1.216 0.656l-0.64-1.152c0.437-0.352 0.96-0.619 1.568-0.8 0.608-0.192 1.253-0.288 1.936-0.288zm-0.352 7.472c0.586 0 1.093-0.128 1.52-0.384 0.426-0.267 0.736-0.64 0.928-1.12v-1.184h-2.368c-1.302 0-1.952 0.437-1.952 1.312 0 0.427 0.165 0.763 0.496 1.008 0.33 0.245 0.789 0.368 1.376 0.368zm11.354-7.472c1.078 0 1.931 0.315 2.56 0.944 0.64 0.619 0.96 1.531 0.96 2.736v4.88h-1.536v-4.704c0-0.821-0.197-1.44-0.592-1.856-0.394-0.416-0.96-0.624-1.696-0.624-0.832 0-1.488 0.245-1.968 0.736-0.48 0.48-0.72 1.173-0.72 2.08v4.368h-1.536v-8.48h1.472v1.28c0.31-0.437 0.726-0.773 1.248-1.008 0.534-0.235 1.136-0.352 1.808-0.352zm6.363 0.08h1.536v8.48h-1.536zm0.768-1.632c-0.299 0-0.55-0.096-0.752-0.288-0.192-0.192-0.288-0.427-0.288-0.704s0.096-0.512 0.288-0.704c0.202-0.203 0.453-0.304 0.752-0.304 0.298 0 0.544 0.096 0.736 0.288 0.202 0.181 0.304 0.411 0.304 0.688 0 0.288-0.102 0.533-0.304 0.736-0.192 0.192-0.438 0.288-0.736 0.288zm9.989 8.848v1.264h-7.104v-0.992l5.008-6.224h-4.912v-1.264h6.88v1.008l-5.008 6.208zm5.143-7.296c1.174 0 2.07 0.288 2.688 0.864 0.63 0.576 0.944 1.435 0.944 2.576v5.12h-1.456v-1.12c-0.256 0.395-0.624 0.699-1.104 0.912-0.469 0.203-1.029 0.304-1.68 0.304-0.949 0-1.712-0.229-2.288-0.688-0.565-0.459-0.848-1.061-0.848-1.808s0.272-1.344 0.816-1.792c0.544-0.459 1.408-0.688 2.592-0.688h2.432v-0.304c0-0.661-0.192-1.168-0.576-1.52s-0.949-0.528-1.696-0.528c-0.501 0-0.992 0.085-1.472 0.256-0.48 0.16-0.885 0.379-1.216 0.656l-0.64-1.152c0.438-0.352 0.96-0.619 1.568-0.8 0.608-0.192 1.254-0.288 1.936-0.288zm-0.352 7.472c0.587 0 1.094-0.128 1.52-0.384 0.427-0.267 0.736-0.64 0.928-1.12v-1.184h-2.368c-1.301 0-1.952 0.437-1.952 1.312 0 0.427 0.166 0.763 0.496 1.008 0.331 0.245 0.79 0.368 1.376 0.368zm11.595 0.592c-0.224 0.192-0.502 0.341-0.832 0.448-0.331 0.096-0.672 0.144-1.024 0.144-0.854 0-1.515-0.229-1.984-0.688-0.47-0.459-0.704-1.115-0.704-1.968v-4.656h-1.44v-1.264h1.44v-1.856h1.536v1.856h2.432v1.264h-2.432v4.592c0 0.459 0.112 0.811 0.336 1.056 0.234 0.245 0.565 0.368 0.992 0.368 0.469 0 0.869-0.133 1.2-0.4zm1.857-7.984h1.536v8.48h-1.536zm0.768-1.632c-0.299 0-0.55-0.096-0.752-0.288-0.192-0.192-0.288-0.427-0.288-0.704s0.096-0.512 0.288-0.704c0.202-0.203 0.453-0.304 0.752-0.304 0.298 0 0.544 0.096 0.736 0.288 0.202 0.181 0.304 0.411 0.304 0.688 0 0.288-0.102 0.533-0.304 0.736-0.192 0.192-0.438 0.288-0.736 0.288zm7.333 10.208c-0.843 0-1.6-0.187-2.272-0.56s-1.2-0.885-1.584-1.536c-0.374-0.661-0.56-1.408-0.56-2.24s0.186-1.573 0.56-2.224c0.384-0.661 0.912-1.173 1.584-1.536 0.672-0.373 1.429-0.56 2.272-0.56 0.842 0 1.594 0.187 2.256 0.56 0.672 0.363 1.194 0.875 1.568 1.536 0.384 0.651 0.576 1.392 0.576 2.224s-0.192 1.579-0.576 2.24c-0.374 0.651-0.896 1.163-1.568 1.536-0.662 0.373-1.414 0.56-2.256 0.56zm0-1.344c0.544 0 1.029-0.123 1.456-0.368 0.437-0.256 0.778-0.608 1.024-1.056 0.245-0.459 0.368-0.981 0.368-1.568s-0.123-1.104-0.368-1.552c-0.246-0.459-0.587-0.811-1.024-1.056-0.427-0.245-0.912-0.368-1.456-0.368s-1.035 0.123-1.472 0.368c-0.427 0.245-0.768 0.597-1.024 1.056-0.246 0.448-0.368 0.965-0.368 1.552s0.122 1.109 0.368 1.568c0.256 0.448 0.597 0.8 1.024 1.056 0.437 0.245 0.928 0.368 1.472 0.368zm11.052-7.312c1.077 0 1.93 0.315 2.56 0.944 0.64 0.619 0.96 1.531 0.96 2.736v4.88h-1.536v-4.704c0-0.821-0.198-1.44-0.592-1.856-0.395-0.416-0.96-0.624-1.696-0.624-0.832 0-1.488 0.245-1.968 0.736-0.48 0.48-0.72 1.173-0.72 2.08v4.368h-1.536v-8.48h1.472v1.28c0.309-0.437 0.725-0.773 1.248-1.008 0.533-0.235 1.136-0.352 1.808-0.352zm6.746 6.464c0.299 0 0.544 0.107 0.736 0.32 0.203 0.203 0.304 0.459 0.304 0.768 0 0.16-0.021 0.315-0.064 0.464-0.032 0.149-0.101 0.379-0.208 0.688l-0.752 2.224h-1.008l0.592-2.384c-0.202-0.075-0.368-0.197-0.496-0.368-0.117-0.181-0.176-0.389-0.176-0.624 0-0.32 0.102-0.581 0.304-0.784 0.203-0.203 0.459-0.304 0.768-0.304zm14.923-6.464c1.174 0 2.07 0.288 2.688 0.864 0.63 0.576 0.944 1.435 0.944 2.576v5.12h-1.456v-1.12c-0.256 0.395-0.624 0.699-1.104 0.912-0.469 0.203-1.029 0.304-1.68 0.304-0.949 0-1.712-0.229-2.288-0.688-0.565-0.459-0.848-1.061-0.848-1.808s0.272-1.344 0.816-1.792c0.544-0.459 1.408-0.688 2.592-0.688h2.432v-0.304c0-0.661-0.192-1.168-0.576-1.52s-0.949-0.528-1.696-0.528c-0.501 0-0.992 0.085-1.472 0.256-0.48 0.16-0.885 0.379-1.216 0.656l-0.64-1.152c0.438-0.352 0.96-0.619 1.568-0.8 0.608-0.192 1.254-0.288 1.936-0.288zm-0.352 7.472c0.587 0 1.094-0.128 1.52-0.384 0.427-0.267 0.736-0.64 0.928-1.12v-1.184h-2.368c-1.301 0-1.952 0.437-1.952 1.312 0 0.427 0.166 0.763 0.496 1.008 0.331 0.245 0.79 0.368 1.376 0.368zm11.355-7.472c1.077 0 1.93 0.315 2.56 0.944 0.64 0.619 0.96 1.531 0.96 2.736v4.88h-1.536v-4.704c0-0.821-0.198-1.44-0.592-1.856-0.395-0.416-0.96-0.624-1.696-0.624-0.832 0-1.488 0.245-1.968 0.736-0.48 0.48-0.72 1.173-0.72 2.08v4.368h-1.536v-8.48h1.472v1.28c0.309-0.437 0.725-0.773 1.248-1.008 0.533-0.235 1.136-0.352 1.808-0.352zm14.409-3.312v11.872h-1.472v-1.344c-0.341 0.469-0.773 0.827-1.296 1.072-0.522 0.245-1.098 0.368-1.728 0.368-0.821 0-1.557-0.181-2.208-0.544-0.65-0.363-1.162-0.869-1.536-1.52-0.362-0.661-0.544-1.419-0.544-2.272s0.182-1.605 0.544-2.256c0.374-0.651 0.886-1.157 1.536-1.52 0.651-0.363 1.387-0.544 2.208-0.544 0.608 0 1.168 0.117 1.68 0.352 0.512 0.224 0.939 0.56 1.28 1.008v-4.672zm-4.368 10.624c0.534 0 1.019-0.123 1.456-0.368 0.438-0.256 0.779-0.608 1.024-1.056 0.246-0.459 0.368-0.981 0.368-1.568s-0.122-1.104-0.368-1.552c-0.245-0.459-0.586-0.811-1.024-1.056-0.437-0.245-0.922-0.368-1.456-0.368-0.544 0-1.034 0.123-1.472 0.368-0.426 0.245-0.768 0.597-1.024 1.056-0.245 0.448-0.368 0.965-0.368 1.552s0.123 1.109 0.368 1.568c0.256 0.448 0.598 0.8 1.024 1.056 0.438 0.245 0.928 0.368 1.472 0.368zm13.043-5.808c0.267-0.491 0.662-0.864 1.184-1.12 0.523-0.256 1.158-0.384 1.904-0.384v1.488c-0.085-0.011-0.202-0.016-0.352-0.016-0.832 0-1.488 0.251-1.968 0.752-0.469 0.491-0.704 1.195-0.704 2.112v4.224h-1.536v-8.48h1.472zm12.567 2.864c0 0.117-0.01 0.272-0.032 0.464h-6.88c0.096 0.747 0.422 1.349 0.976 1.808 0.566 0.448 1.264 0.672 2.096 0.672 1.014 0 1.83-0.341 2.448-1.024l0.848 0.992c-0.384 0.448-0.864 0.789-1.44 1.024-0.565 0.235-1.2 0.352-1.904 0.352-0.896 0-1.69-0.181-2.384-0.544-0.693-0.373-1.232-0.891-1.616-1.552-0.373-0.661-0.56-1.408-0.56-2.24 0-0.821 0.182-1.563 0.544-2.224 0.374-0.661 0.88-1.173 1.52-1.536 0.651-0.373 1.382-0.56 2.192-0.56 0.811 0 1.531 0.187 2.16 0.56 0.64 0.363 1.136 0.875 1.488 1.536 0.363 0.661 0.544 1.419 0.544 2.272zm-4.192-3.072c-0.736 0-1.354 0.224-1.856 0.672-0.49 0.448-0.778 1.035-0.864 1.76h5.44c-0.085-0.715-0.378-1.296-0.88-1.744-0.49-0.459-1.104-0.688-1.84-0.688zm9.179-1.296c1.173 0 2.069 0.288 2.688 0.864 0.629 0.576 0.944 1.435 0.944 2.576v5.12h-1.456v-1.12c-0.256 0.395-0.624 0.699-1.104 0.912-0.47 0.203-1.03 0.304-1.68 0.304-0.95 0-1.712-0.229-2.288-0.688-0.566-0.459-0.848-1.061-0.848-1.808s0.272-1.344 0.816-1.792c0.544-0.459 1.408-0.688 2.592-0.688h2.432v-0.304c0-0.661-0.192-1.168-0.576-1.52s-0.95-0.528-1.696-0.528c-0.502 0-0.992 0.085-1.472 0.256-0.48 0.16-0.886 0.379-1.216 0.656l-0.64-1.152c0.437-0.352 0.96-0.619 1.568-0.8 0.608-0.192 1.253-0.288 1.936-0.288zm-0.352 7.472c0.586 0 1.093-0.128 1.52-0.384 0.426-0.267 0.736-0.64 0.928-1.12v-1.184h-2.368c-1.302 0-1.952 0.437-1.952 1.312 0 0.427 0.165 0.763 0.496 1.008 0.33 0.245 0.789 0.368 1.376 0.368zm14.873-10.784v11.872h-1.472v-1.344c-0.341 0.469-0.773 0.827-1.296 1.072-0.522 0.245-1.098 0.368-1.728 0.368-0.821 0-1.557-0.181-2.208-0.544-0.65-0.363-1.162-0.869-1.536-1.52-0.362-0.661-0.544-1.419-0.544-2.272s0.182-1.605 0.544-2.256c0.374-0.651 0.886-1.157 1.536-1.52 0.651-0.363 1.387-0.544 2.208-0.544 0.608 0 1.168 0.117 1.68 0.352 0.512 0.224 0.939 0.56 1.28 1.008v-4.672zm-4.368 10.624c0.534 0 1.019-0.123 1.456-0.368 0.438-0.256 0.779-0.608 1.024-1.056 0.246-0.459 0.368-0.981 0.368-1.568s-0.122-1.104-0.368-1.552c-0.245-0.459-0.586-0.811-1.024-1.056-0.437-0.245-0.922-0.368-1.456-0.368-0.544 0-1.034 0.123-1.472 0.368-0.426 0.245-0.768 0.597-1.024 1.056-0.245 0.448-0.368 0.965-0.368 1.552s0.123 1.109 0.368 1.568c0.256 0.448 0.598 0.8 1.024 1.056 0.438 0.245 0.928 0.368 1.472 0.368zm-232 24.752c-0.224 0.192-0.502 0.341-0.832 0.448-0.331 0.096-0.672 0.144-1.024 0.144-0.854 0-1.515-0.229-1.984-0.688-0.47-0.459-0.704-1.115-0.704-1.968v-4.656h-1.44v-1.264h1.44v-1.856h1.536v1.856h2.432v1.264h-2.432v4.592c0 0.459 0.112 0.811 0.336 1.056 0.234 0.245 0.565 0.368 0.992 0.368 0.469 0 0.869-0.133 1.2-0.4zm6.385-8.064c1.077 0 1.93 0.315 2.56 0.944 0.64 0.619 0.96 1.531 0.96 2.736v4.88h-1.536v-4.704c0-0.821-0.198-1.44-0.592-1.856-0.395-0.416-0.96-0.624-1.696-0.624-0.832 0-1.488 0.245-1.968 0.736-0.48 0.48-0.72 1.173-0.72 2.08v4.368h-1.536v-11.872h1.536v4.592c0.32-0.405 0.736-0.72 1.248-0.944 0.522-0.224 1.104-0.336 1.744-0.336zm7.834 1.504c0.267-0.491 0.662-0.864 1.184-1.12 0.523-0.256 1.158-0.384 1.904-0.384v1.488c-0.085-0.011-0.202-0.016-0.352-0.016-0.832 0-1.488 0.251-1.968 0.752-0.469 0.491-0.704 1.195-0.704 2.112v4.224h-1.536v-8.48h1.472zm8.535 7.152c-0.842 0-1.6-0.187-2.272-0.56s-1.2-0.885-1.584-1.536c-0.373-0.661-0.56-1.408-0.56-2.24s0.187-1.573 0.56-2.224c0.384-0.661 0.912-1.173 1.584-1.536 0.672-0.373 1.43-0.56 2.272-0.56 0.843 0 1.595 0.187 2.256 0.56 0.672 0.363 1.195 0.875 1.568 1.536 0.384 0.651 0.576 1.392 0.576 2.224s-0.192 1.579-0.576 2.24c-0.373 0.651-0.896 1.163-1.568 1.536-0.661 0.373-1.413 0.56-2.256 0.56zm0-1.344c0.544 0 1.03-0.123 1.456-0.368 0.438-0.256 0.779-0.608 1.024-1.056 0.246-0.459 0.368-0.981 0.368-1.568s-0.122-1.104-0.368-1.552c-0.245-0.459-0.586-0.811-1.024-1.056-0.426-0.245-0.912-0.368-1.456-0.368s-1.034 0.123-1.472 0.368c-0.426 0.245-0.768 0.597-1.024 1.056-0.245 0.448-0.368 0.965-0.368 1.552s0.123 1.109 0.368 1.568c0.256 0.448 0.598 0.8 1.024 1.056 0.438 0.245 0.928 0.368 1.472 0.368zm14.428-7.232v8.48h-1.456v-1.28c-0.309 0.437-0.72 0.779-1.232 1.024-0.501 0.235-1.05 0.352-1.648 0.352-1.13 0-2.021-0.309-2.672-0.928-0.65-0.629-0.976-1.552-0.976-2.768v-4.88h1.536v4.704c0 0.821 0.198 1.445 0.592 1.872 0.395 0.416 0.96 0.624 1.696 0.624 0.811 0 1.451-0.245 1.92-0.736 0.47-0.491 0.704-1.184 0.704-2.08v-4.384zm11.037 0v7.328c0 1.483-0.368 2.576-1.104 3.28-0.736 0.715-1.835 1.072-3.296 1.072-0.8 0-1.563-0.112-2.288-0.336-0.726-0.213-1.312-0.523-1.76-0.928l0.736-1.184c0.394 0.341 0.88 0.608 1.456 0.8 0.586 0.203 1.189 0.304 1.808 0.304 0.992 0 1.722-0.235 2.192-0.704 0.48-0.469 0.72-1.184 0.72-2.144v-0.672c-0.363 0.437-0.811 0.768-1.344 0.992-0.523 0.213-1.094 0.32-1.712 0.32-0.811 0-1.547-0.171-2.208-0.512-0.651-0.352-1.163-0.837-1.536-1.456-0.374-0.629-0.56-1.344-0.56-2.144s0.186-1.509 0.56-2.128c0.373-0.629 0.885-1.115 1.536-1.456 0.661-0.341 1.397-0.512 2.208-0.512 0.64 0 1.232 0.117 1.776 0.352 0.554 0.235 1.008 0.581 1.36 1.04v-1.312zm-4.416 6.784c0.554 0 1.05-0.117 1.488-0.352 0.448-0.235 0.794-0.56 1.04-0.976 0.256-0.427 0.384-0.907 0.384-1.44 0-0.821-0.272-1.483-0.816-1.984-0.544-0.512-1.243-0.768-2.096-0.768-0.864 0-1.568 0.256-2.112 0.768-0.544 0.501-0.816 1.163-0.816 1.984 0 0.533 0.122 1.013 0.368 1.44 0.256 0.416 0.602 0.741 1.04 0.976 0.448 0.235 0.954 0.352 1.52 0.352zm11.878-6.864c1.078 0 1.931 0.315 2.56 0.944 0.64 0.619 0.96 1.531 0.96 2.736v4.88h-1.536v-4.704c0-0.821-0.197-1.44-0.592-1.856-0.394-0.416-0.96-0.624-1.696-0.624-0.832 0-1.488 0.245-1.968 0.736-0.48 0.48-0.72 1.173-0.72 2.08v4.368h-1.536v-11.872h1.536v4.592c0.32-0.405 0.736-0.72 1.248-0.944 0.523-0.224 1.104-0.336 1.744-0.336zm15.428 8.064c-0.224 0.192-0.501 0.341-0.832 0.448-0.331 0.096-0.672 0.144-1.024 0.144-0.853 0-1.515-0.229-1.984-0.688s-0.704-1.115-0.704-1.968v-4.656h-1.44v-1.264h1.44v-1.856h1.536v1.856h2.432v1.264h-2.432v4.592c0 0.459 0.112 0.811 0.336 1.056 0.235 0.245 0.565 0.368 0.992 0.368 0.469 0 0.869-0.133 1.2-0.4zm6.385-8.064c1.077 0 1.931 0.315 2.56 0.944 0.64 0.619 0.96 1.531 0.96 2.736v4.88h-1.536v-4.704c0-0.821-0.197-1.44-0.592-1.856s-0.96-0.624-1.696-0.624c-0.832 0-1.488 0.245-1.968 0.736-0.48 0.48-0.72 1.173-0.72 2.08v4.368h-1.536v-11.872h1.536v4.592c0.32-0.405 0.736-0.72 1.248-0.944 0.523-0.224 1.104-0.336 1.744-0.336zm14.073 4.368c0 0.117-0.01 0.272-0.032 0.464h-6.88c0.096 0.747 0.422 1.349 0.976 1.808 0.566 0.448 1.264 0.672 2.096 0.672 1.014 0 1.83-0.341 2.448-1.024l0.848 0.992c-0.384 0.448-0.864 0.789-1.44 1.024-0.565 0.235-1.2 0.352-1.904 0.352-0.896 0-1.69-0.181-2.384-0.544-0.693-0.373-1.232-0.891-1.616-1.552-0.373-0.661-0.56-1.408-0.56-2.24 0-0.821 0.182-1.563 0.544-2.224 0.374-0.661 0.88-1.173 1.52-1.536 0.651-0.373 1.382-0.56 2.192-0.56 0.811 0 1.531 0.187 2.16 0.56 0.64 0.363 1.136 0.875 1.488 1.536 0.363 0.661 0.544 1.419 0.544 2.272zm-4.192-3.072c-0.736 0-1.354 0.224-1.856 0.672-0.49 0.448-0.778 1.035-0.864 1.76h5.44c-0.085-0.715-0.378-1.296-0.88-1.744-0.49-0.459-1.104-0.688-1.84-0.688zm10.622-1.216h1.536v8.48h-1.536zm0.768-1.632c-0.298 0-0.549-0.096-0.752-0.288-0.192-0.192-0.288-0.427-0.288-0.704s0.096-0.512 0.288-0.704c0.203-0.203 0.454-0.304 0.752-0.304 0.299 0 0.544 0.096 0.736 0.288 0.203 0.181 0.304 0.411 0.304 0.688 0 0.288-0.101 0.533-0.304 0.736-0.192 0.192-0.437 0.288-0.736 0.288zm8.229 1.552c1.077 0 1.931 0.315 2.56 0.944 0.64 0.619 0.96 1.531 0.96 2.736v4.88h-1.536v-4.704c0-0.821-0.197-1.44-0.592-1.856s-0.96-0.624-1.696-0.624c-0.832 0-1.488 0.245-1.968 0.736-0.48 0.48-0.72 1.173-0.72 2.08v4.368h-1.536v-8.48h1.472v1.28c0.309-0.437 0.725-0.773 1.248-1.008 0.533-0.235 1.136-0.352 1.808-0.352zm9.467-2.144c-0.918 0-1.376 0.496-1.376 1.488v0.736h2.464v1.264h-2.432v7.216h-1.536v-7.216h-1.44v-1.264h1.44v-0.752c0-0.843 0.245-1.509 0.736-2 0.49-0.491 1.178-0.736 2.064-0.736 0.341 0 0.661 0.043 0.96 0.128 0.298 0.085 0.554 0.208 0.768 0.368l-0.464 1.168c-0.352-0.267-0.747-0.4-1.184-0.4zm6.043 10.8c-0.842 0-1.6-0.187-2.272-0.56s-1.2-0.885-1.584-1.536c-0.373-0.661-0.56-1.408-0.56-2.24s0.187-1.573 0.56-2.224c0.384-0.661 0.912-1.173 1.584-1.536 0.672-0.373 1.43-0.56 2.272-0.56 0.843 0 1.595 0.187 2.256 0.56 0.672 0.363 1.195 0.875 1.568 1.536 0.384 0.651 0.576 1.392 0.576 2.224s-0.192 1.579-0.576 2.24c-0.373 0.651-0.896 1.163-1.568 1.536-0.661 0.373-1.413 0.56-2.256 0.56zm0-1.344c0.544 0 1.03-0.123 1.456-0.368 0.438-0.256 0.779-0.608 1.024-1.056 0.246-0.459 0.368-0.981 0.368-1.568s-0.122-1.104-0.368-1.552c-0.245-0.459-0.586-0.811-1.024-1.056-0.426-0.245-0.912-0.368-1.456-0.368s-1.034 0.123-1.472 0.368c-0.426 0.245-0.768 0.597-1.024 1.056-0.245 0.448-0.368 0.965-0.368 1.552s0.123 1.109 0.368 1.568c0.256 0.448 0.598 0.8 1.024 1.056 0.438 0.245 0.928 0.368 1.472 0.368zm7.996-5.808c0.267-0.491 0.662-0.864 1.184-1.12 0.523-0.256 1.158-0.384 1.904-0.384v1.488c-0.085-0.011-0.202-0.016-0.352-0.016-0.832 0-1.488 0.251-1.968 0.752-0.469 0.491-0.704 1.195-0.704 2.112v4.224h-1.536v-8.48h1.472zm15.59-1.504c1.066 0 1.909 0.309 2.528 0.928 0.629 0.619 0.944 1.536 0.944 2.752v4.88h-1.536v-4.704c0-0.821-0.192-1.44-0.576-1.856-0.374-0.416-0.912-0.624-1.616-0.624-0.779 0-1.398 0.245-1.856 0.736-0.459 0.48-0.688 1.173-0.688 2.08v4.368h-1.536v-4.704c0-0.821-0.192-1.44-0.576-1.856-0.374-0.416-0.912-0.624-1.616-0.624-0.779 0-1.398 0.245-1.856 0.736-0.459 0.48-0.688 1.173-0.688 2.08v4.368h-1.536v-8.48h1.472v1.264c0.309-0.437 0.714-0.768 1.216-0.992 0.501-0.235 1.072-0.352 1.712-0.352 0.661 0 1.248 0.133 1.76 0.4s0.906 0.656 1.184 1.168c0.32-0.491 0.762-0.875 1.328-1.152 0.576-0.277 1.221-0.416 1.936-0.416zm9.386 0c1.173 0 2.069 0.288 2.688 0.864 0.629 0.576 0.944 1.435 0.944 2.576v5.12h-1.456v-1.12c-0.256 0.395-0.624 0.699-1.104 0.912-0.47 0.203-1.03 0.304-1.68 0.304-0.95 0-1.712-0.229-2.288-0.688-0.566-0.459-0.848-1.061-0.848-1.808s0.272-1.344 0.816-1.792c0.544-0.459 1.408-0.688 2.592-0.688h2.432v-0.304c0-0.661-0.192-1.168-0.576-1.52s-0.95-0.528-1.696-0.528c-0.502 0-0.992 0.085-1.472 0.256-0.48 0.16-0.886 0.379-1.216 0.656l-0.64-1.152c0.437-0.352 0.96-0.619 1.568-0.8 0.608-0.192 1.253-0.288 1.936-0.288zm-0.352 7.472c0.586 0 1.093-0.128 1.52-0.384 0.426-0.267 0.736-0.64 0.928-1.12v-1.184h-2.368c-1.302 0-1.952 0.437-1.952 1.312 0 0.427 0.165 0.763 0.496 1.008 0.33 0.245 0.789 0.368 1.376 0.368zm11.594 0.592c-0.224 0.192-0.501 0.341-0.832 0.448-0.33 0.096-0.672 0.144-1.024 0.144-0.853 0-1.514-0.229-1.984-0.688-0.469-0.459-0.704-1.115-0.704-1.968v-4.656h-1.44v-1.264h1.44v-1.856h1.536v1.856h2.432v1.264h-2.432v4.592c0 0.459 0.112 0.811 0.336 1.056 0.235 0.245 0.566 0.368 0.992 0.368 0.47 0 0.87-0.133 1.2-0.4zm1.857-7.984h1.536v8.48h-1.536zm0.768-1.632c-0.298 0-0.549-0.096-0.752-0.288-0.192-0.192-0.288-0.427-0.288-0.704s0.096-0.512 0.288-0.704c0.203-0.203 0.454-0.304 0.752-0.304 0.299 0 0.544 0.096 0.736 0.288 0.203 0.181 0.304 0.411 0.304 0.688 0 0.288-0.101 0.533-0.304 0.736-0.192 0.192-0.437 0.288-0.736 0.288zm7.333 10.208c-0.843 0-1.6-0.187-2.272-0.56s-1.2-0.885-1.584-1.536c-0.373-0.661-0.56-1.408-0.56-2.24s0.187-1.573 0.56-2.224c0.384-0.661 0.912-1.173 1.584-1.536 0.672-0.373 1.429-0.56 2.272-0.56s1.595 0.187 2.256 0.56c0.672 0.363 1.195 0.875 1.568 1.536 0.384 0.651 0.576 1.392 0.576 2.224s-0.192 1.579-0.576 2.24c-0.373 0.651-0.896 1.163-1.568 1.536-0.661 0.373-1.413 0.56-2.256 0.56zm0-1.344c0.544 0 1.029-0.123 1.456-0.368 0.437-0.256 0.779-0.608 1.024-1.056 0.245-0.459 0.368-0.981 0.368-1.568s-0.123-1.104-0.368-1.552c-0.245-0.459-0.587-0.811-1.024-1.056-0.427-0.245-0.912-0.368-1.456-0.368s-1.035 0.123-1.472 0.368c-0.427 0.245-0.768 0.597-1.024 1.056-0.245 0.448-0.368 0.965-0.368 1.552s0.123 1.109 0.368 1.568c0.256 0.448 0.597 0.8 1.024 1.056 0.437 0.245 0.928 0.368 1.472 0.368zm11.052-7.312c1.078 0 1.931 0.315 2.56 0.944 0.64 0.619 0.96 1.531 0.96 2.736v4.88h-1.536v-4.704c0-0.821-0.197-1.44-0.592-1.856-0.394-0.416-0.96-0.624-1.696-0.624-0.832 0-1.488 0.245-1.968 0.736-0.48 0.48-0.72 1.173-0.72 2.08v4.368h-1.536v-8.48h1.472v1.28c0.31-0.437 0.726-0.773 1.248-1.008 0.534-0.235 1.136-0.352 1.808-0.352zm15.428 8.064c-0.224 0.192-0.502 0.341-0.832 0.448-0.331 0.096-0.672 0.144-1.024 0.144-0.854 0-1.515-0.229-1.984-0.688-0.47-0.459-0.704-1.115-0.704-1.968v-4.656h-1.44v-1.264h1.44v-1.856h1.536v1.856h2.432v1.264h-2.432v4.592c0 0.459 0.112 0.811 0.336 1.056 0.234 0.245 0.565 0.368 0.992 0.368 0.469 0 0.869-0.133 1.2-0.4zm6.385-8.064c1.077 0 1.93 0.315 2.56 0.944 0.64 0.619 0.96 1.531 0.96 2.736v4.88h-1.536v-4.704c0-0.821-0.198-1.44-0.592-1.856-0.395-0.416-0.96-0.624-1.696-0.624-0.832 0-1.488 0.245-1.968 0.736-0.48 0.48-0.72 1.173-0.72 2.08v4.368h-1.536v-11.872h1.536v4.592c0.32-0.405 0.736-0.72 1.248-0.944 0.522-0.224 1.104-0.336 1.744-0.336zm14.073 4.368c0 0.117-0.01 0.272-0.032 0.464h-6.88c0.096 0.747 0.422 1.349 0.976 1.808 0.566 0.448 1.264 0.672 2.096 0.672 1.014 0 1.83-0.341 2.448-1.024l0.848 0.992c-0.384 0.448-0.864 0.789-1.44 1.024-0.565 0.235-1.2 0.352-1.904 0.352-0.896 0-1.69-0.181-2.384-0.544-0.693-0.373-1.232-0.891-1.616-1.552-0.373-0.661-0.56-1.408-0.56-2.24 0-0.821 0.182-1.563 0.544-2.224 0.374-0.661 0.88-1.173 1.52-1.536 0.651-0.373 1.382-0.56 2.192-0.56 0.811 0 1.531 0.187 2.16 0.56 0.64 0.363 1.136 0.875 1.488 1.536 0.363 0.661 0.544 1.419 0.544 2.272zm-4.192-3.072c-0.736 0-1.354 0.224-1.856 0.672-0.49 0.448-0.778 1.035-0.864 1.76h5.44c-0.085-0.715-0.378-1.296-0.88-1.744-0.49-0.459-1.104-0.688-1.84-0.688zm13.673-1.216-4.112 9.328c-0.363 0.864-0.789 1.472-1.28 1.824-0.48 0.352-1.061 0.528-1.744 0.528-0.416 0-0.821-0.069-1.216-0.208-0.384-0.128-0.704-0.32-0.96-0.576l0.656-1.152c0.437 0.416 0.944 0.624 1.52 0.624 0.373 0 0.683-0.101 0.928-0.304 0.256-0.192 0.485-0.528 0.688-1.008l0.272-0.592-3.744-8.464h1.6l2.96 6.784 2.928-6.784zm-172.76 23.92c1.077 0 1.93 0.315 2.56 0.944 0.64 0.619 0.96 1.531 0.96 2.736v4.88h-1.536v-4.704c0-0.821-0.198-1.44-0.592-1.856-0.395-0.416-0.96-0.624-1.696-0.624-0.832 0-1.488 0.245-1.968 0.736-0.48 0.48-0.72 1.173-0.72 2.08v4.368h-1.536v-11.872h1.536v4.592c0.32-0.405 0.736-0.72 1.248-0.944 0.522-0.224 1.104-0.336 1.744-0.336zm9.45 0c1.174 0 2.07 0.288 2.688 0.864 0.63 0.576 0.944 1.435 0.944 2.576v5.12h-1.456v-1.12c-0.256 0.395-0.624 0.699-1.104 0.912-0.469 0.203-1.029 0.304-1.68 0.304-0.949 0-1.712-0.229-2.288-0.688-0.565-0.459-0.848-1.061-0.848-1.808s0.272-1.344 0.816-1.792c0.544-0.459 1.408-0.688 2.592-0.688h2.432v-0.304c0-0.661-0.192-1.168-0.576-1.52s-0.949-0.528-1.696-0.528c-0.501 0-0.992 0.085-1.472 0.256-0.48 0.16-0.885 0.379-1.216 0.656l-0.64-1.152c0.438-0.352 0.96-0.619 1.568-0.8 0.608-0.192 1.254-0.288 1.936-0.288zm-0.352 7.472c0.587 0 1.094-0.128 1.52-0.384 0.427-0.267 0.736-0.64 0.928-1.12v-1.184h-2.368c-1.301 0-1.952 0.437-1.952 1.312 0 0.427 0.166 0.763 0.496 1.008 0.331 0.245 0.79 0.368 1.376 0.368zm14.175-7.392-3.712 8.48h-1.568l-3.712-8.48h1.6l2.912 6.8 2.976-6.8zm8.863 4.288c0 0.117-0.011 0.272-0.032 0.464h-6.88c0.096 0.747 0.421 1.349 0.976 1.808 0.565 0.448 1.264 0.672 2.096 0.672 1.013 0 1.829-0.341 2.448-1.024l0.848 0.992c-0.384 0.448-0.864 0.789-1.44 1.024-0.566 0.235-1.2 0.352-1.904 0.352-0.896 0-1.691-0.181-2.384-0.544-0.694-0.373-1.232-0.891-1.616-1.552-0.374-0.661-0.56-1.408-0.56-2.24 0-0.821 0.181-1.563 0.544-2.224 0.373-0.661 0.88-1.173 1.52-1.536 0.65-0.373 1.381-0.56 2.192-0.56 0.81 0 1.53 0.187 2.16 0.56 0.64 0.363 1.136 0.875 1.488 1.536 0.362 0.661 0.544 1.419 0.544 2.272zm-4.192-3.072c-0.736 0-1.355 0.224-1.856 0.672-0.491 0.448-0.779 1.035-0.864 1.76h5.44c-0.086-0.715-0.379-1.296-0.88-1.744-0.491-0.459-1.104-0.688-1.84-0.688zm18.733-1.216v7.328c0 1.483-0.368 2.576-1.104 3.28-0.736 0.715-1.834 1.072-3.296 1.072-0.8 0-1.562-0.112-2.288-0.336-0.725-0.213-1.312-0.523-1.76-0.928l0.736-1.184c0.395 0.341 0.88 0.608 1.456 0.8 0.587 0.203 1.19 0.304 1.808 0.304 0.992 0 1.723-0.235 2.192-0.704 0.48-0.469 0.72-1.184 0.72-2.144v-0.672c-0.362 0.437-0.81 0.768-1.344 0.992-0.522 0.213-1.093 0.32-1.712 0.32-0.81 0-1.546-0.171-2.208-0.512-0.65-0.352-1.162-0.837-1.536-1.456-0.373-0.629-0.56-1.344-0.56-2.144s0.187-1.509 0.56-2.128c0.374-0.629 0.886-1.115 1.536-1.456 0.662-0.341 1.398-0.512 2.208-0.512 0.64 0 1.232 0.117 1.776 0.352 0.555 0.235 1.008 0.581 1.36 1.04v-1.312zm-4.416 6.784c0.555 0 1.051-0.117 1.488-0.352 0.448-0.235 0.795-0.56 1.04-0.976 0.256-0.427 0.384-0.907 0.384-1.44 0-0.821-0.272-1.483-0.816-1.984-0.544-0.512-1.242-0.768-2.096-0.768-0.864 0-1.568 0.256-2.112 0.768-0.544 0.501-0.816 1.163-0.816 1.984 0 0.533 0.123 1.013 0.368 1.44 0.256 0.416 0.603 0.741 1.04 0.976 0.448 0.235 0.955 0.352 1.52 0.352zm10.439-6.864c1.174 0 2.07 0.288 2.688 0.864 0.63 0.576 0.944 1.435 0.944 2.576v5.12h-1.456v-1.12c-0.256 0.395-0.624 0.699-1.104 0.912-0.469 0.203-1.029 0.304-1.68 0.304-0.949 0-1.712-0.229-2.288-0.688-0.565-0.459-0.848-1.061-0.848-1.808s0.272-1.344 0.816-1.792c0.544-0.459 1.408-0.688 2.592-0.688h2.432v-0.304c0-0.661-0.192-1.168-0.576-1.52s-0.949-0.528-1.696-0.528c-0.501 0-0.992 0.085-1.472 0.256-0.48 0.16-0.885 0.379-1.216 0.656l-0.64-1.152c0.438-0.352 0.96-0.619 1.568-0.8 0.608-0.192 1.254-0.288 1.936-0.288zm-0.352 7.472c0.587 0 1.094-0.128 1.52-0.384 0.427-0.267 0.736-0.64 0.928-1.12v-1.184h-2.368c-1.301 0-1.952 0.437-1.952 1.312 0 0.427 0.166 0.763 0.496 1.008 0.331 0.245 0.79 0.368 1.376 0.368zm11.595 0.592c-0.224 0.192-0.502 0.341-0.832 0.448-0.331 0.096-0.672 0.144-1.024 0.144-0.854 0-1.515-0.229-1.984-0.688-0.47-0.459-0.704-1.115-0.704-1.968v-4.656h-1.44v-1.264h1.44v-1.856h1.536v1.856h2.432v1.264h-2.432v4.592c0 0.459 0.112 0.811 0.336 1.056 0.234 0.245 0.565 0.368 0.992 0.368 0.469 0 0.869-0.133 1.2-0.4zm6.385-8.064c1.077 0 1.93 0.315 2.56 0.944 0.64 0.619 0.96 1.531 0.96 2.736v4.88h-1.536v-4.704c0-0.821-0.198-1.44-0.592-1.856-0.395-0.416-0.96-0.624-1.696-0.624-0.832 0-1.488 0.245-1.968 0.736-0.48 0.48-0.72 1.173-0.72 2.08v4.368h-1.536v-11.872h1.536v4.592c0.32-0.405 0.736-0.72 1.248-0.944 0.522-0.224 1.104-0.336 1.744-0.336zm14.073 4.368c0 0.117-0.01 0.272-0.032 0.464h-6.88c0.096 0.747 0.422 1.349 0.976 1.808 0.566 0.448 1.264 0.672 2.096 0.672 1.014 0 1.83-0.341 2.448-1.024l0.848 0.992c-0.384 0.448-0.864 0.789-1.44 1.024-0.565 0.235-1.2 0.352-1.904 0.352-0.896 0-1.69-0.181-2.384-0.544-0.693-0.373-1.232-0.891-1.616-1.552-0.373-0.661-0.56-1.408-0.56-2.24 0-0.821 0.182-1.563 0.544-2.224 0.374-0.661 0.88-1.173 1.52-1.536 0.651-0.373 1.382-0.56 2.192-0.56 0.811 0 1.531 0.187 2.16 0.56 0.64 0.363 1.136 0.875 1.488 1.536 0.363 0.661 0.544 1.419 0.544 2.272zm-4.192-3.072c-0.736 0-1.354 0.224-1.856 0.672-0.49 0.448-0.778 1.035-0.864 1.76h5.44c-0.085-0.715-0.378-1.296-0.88-1.744-0.49-0.459-1.104-0.688-1.84-0.688zm7.797 0.208c0.267-0.491 0.662-0.864 1.184-1.12 0.523-0.256 1.158-0.384 1.904-0.384v1.488c-0.085-0.011-0.202-0.016-0.352-0.016-0.832 0-1.488 0.251-1.968 0.752-0.469 0.491-0.704 1.195-0.704 2.112v4.224h-1.536v-8.48h1.472zm12.567 2.864c0 0.117-0.01 0.272-0.032 0.464h-6.88c0.096 0.747 0.422 1.349 0.976 1.808 0.566 0.448 1.264 0.672 2.096 0.672 1.014 0 1.83-0.341 2.448-1.024l0.848 0.992c-0.384 0.448-0.864 0.789-1.44 1.024-0.565 0.235-1.2 0.352-1.904 0.352-0.896 0-1.69-0.181-2.384-0.544-0.693-0.373-1.232-0.891-1.616-1.552-0.373-0.661-0.56-1.408-0.56-2.24 0-0.821 0.182-1.563 0.544-2.224 0.374-0.661 0.88-1.173 1.52-1.536 0.651-0.373 1.382-0.56 2.192-0.56 0.811 0 1.531 0.187 2.16 0.56 0.64 0.363 1.136 0.875 1.488 1.536 0.363 0.661 0.544 1.419 0.544 2.272zm-4.192-3.072c-0.736 0-1.354 0.224-1.856 0.672-0.49 0.448-0.778 1.035-0.864 1.76h5.44c-0.085-0.715-0.378-1.296-0.88-1.744-0.49-0.459-1.104-0.688-1.84-0.688zm14.325-4.608v11.872h-1.472v-1.344c-0.341 0.469-0.773 0.827-1.296 1.072s-1.099 0.368-1.728 0.368c-0.821 0-1.557-0.181-2.208-0.544s-1.163-0.869-1.536-1.52c-0.363-0.661-0.544-1.419-0.544-2.272s0.181-1.605 0.544-2.256c0.373-0.651 0.885-1.157 1.536-1.52s1.387-0.544 2.208-0.544c0.608 0 1.168 0.117 1.68 0.352 0.512 0.224 0.939 0.56 1.28 1.008v-4.672zm-4.368 10.624c0.533 0 1.019-0.123 1.456-0.368 0.437-0.256 0.779-0.608 1.024-1.056 0.245-0.459 0.368-0.981 0.368-1.568s-0.123-1.104-0.368-1.552c-0.245-0.459-0.587-0.811-1.024-1.056s-0.923-0.368-1.456-0.368c-0.544 0-1.035 0.123-1.472 0.368-0.427 0.245-0.768 0.597-1.024 1.056-0.245 0.448-0.368 0.965-0.368 1.552s0.123 1.109 0.368 1.568c0.256 0.448 0.597 0.8 1.024 1.056 0.437 0.245 0.928 0.368 1.472 0.368z" fill="#6984ae"/>
        <path d="m207 147.13c-1.12 0-2.134-0.245-3.04-0.736-0.896-0.501-1.6-1.184-2.112-2.048-0.512-0.875-0.768-1.856-0.768-2.944s0.256-2.064 0.768-2.928c0.512-0.875 1.221-1.557 2.128-2.048 0.906-0.501 1.92-0.752 3.04-0.752 0.874 0 1.674 0.149 2.4 0.448 0.725 0.288 1.344 0.72 1.856 1.296l-1.04 1.008c-0.843-0.885-1.894-1.328-3.152-1.328-0.832 0-1.584 0.187-2.256 0.56s-1.2 0.891-1.584 1.552c-0.374 0.651-0.56 1.381-0.56 2.192s0.186 1.547 0.56 2.208c0.384 0.651 0.912 1.163 1.584 1.536s1.424 0.56 2.256 0.56c1.248 0 2.298-0.448 3.152-1.344l1.04 1.008c-0.512 0.576-1.136 1.013-1.872 1.312-0.726 0.299-1.526 0.448-2.4 0.448zm9.603-0.032c-0.843 0-1.6-0.187-2.272-0.56s-1.2-0.885-1.584-1.536c-0.374-0.661-0.56-1.408-0.56-2.24s0.186-1.573 0.56-2.224c0.384-0.661 0.912-1.173 1.584-1.536 0.672-0.373 1.429-0.56 2.272-0.56 0.842 0 1.594 0.187 2.256 0.56 0.672 0.363 1.194 0.875 1.568 1.536 0.384 0.651 0.576 1.392 0.576 2.224s-0.192 1.579-0.576 2.24c-0.374 0.651-0.896 1.163-1.568 1.536-0.662 0.373-1.414 0.56-2.256 0.56zm0-1.344c0.544 0 1.029-0.123 1.456-0.368 0.437-0.256 0.778-0.608 1.024-1.056 0.245-0.459 0.368-0.981 0.368-1.568s-0.123-1.104-0.368-1.552c-0.246-0.459-0.587-0.811-1.024-1.056-0.427-0.245-0.912-0.368-1.456-0.368s-1.035 0.123-1.472 0.368c-0.427 0.245-0.768 0.597-1.024 1.056-0.246 0.448-0.368 0.965-0.368 1.552s0.122 1.109 0.368 1.568c0.256 0.448 0.597 0.8 1.024 1.056 0.437 0.245 0.928 0.368 1.472 0.368zm13.794-7.232-3.712 8.48h-1.568l-3.713-8.48h1.601l2.912 6.8 2.976-6.8zm1.433 0h1.536v8.48h-1.536zm0.768-1.632c-0.299 0-0.549-0.096-0.752-0.288-0.192-0.192-0.288-0.427-0.288-0.704s0.096-0.512 0.288-0.704c0.203-0.203 0.453-0.304 0.752-0.304s0.544 0.096 0.736 0.288c0.203 0.181 0.304 0.411 0.304 0.688 0 0.288-0.101 0.533-0.304 0.736-0.192 0.192-0.437 0.288-0.736 0.288zm11.701-1.76v11.872h-1.472v-1.344c-0.342 0.469-0.774 0.827-1.296 1.072-0.523 0.245-1.099 0.368-1.728 0.368-0.822 0-1.558-0.181-2.208-0.544-0.651-0.363-1.163-0.869-1.536-1.52-0.363-0.661-0.544-1.419-0.544-2.272s0.181-1.605 0.544-2.256c0.373-0.651 0.885-1.157 1.536-1.52 0.65-0.363 1.386-0.544 2.208-0.544 0.608 0 1.168 0.117 1.68 0.352 0.512 0.224 0.938 0.56 1.28 1.008v-4.672zm-4.368 10.624c0.533 0 1.018-0.123 1.456-0.368 0.437-0.256 0.778-0.608 1.024-1.056 0.245-0.459 0.368-0.981 0.368-1.568s-0.123-1.104-0.368-1.552c-0.246-0.459-0.587-0.811-1.024-1.056-0.438-0.245-0.923-0.368-1.456-0.368-0.544 0-1.035 0.123-1.472 0.368-0.427 0.245-0.768 0.597-1.024 1.056-0.246 0.448-0.368 0.965-0.368 1.552s0.122 1.109 0.368 1.568c0.256 0.448 0.597 0.8 1.024 1.056 0.437 0.245 0.928 0.368 1.472 0.368zm22.179-7.312c1.067 0 1.909 0.309 2.528 0.928 0.629 0.619 0.944 1.536 0.944 2.752v4.88h-1.536v-4.704c0-0.821-0.192-1.44-0.576-1.856-0.373-0.416-0.912-0.624-1.616-0.624-0.779 0-1.397 0.245-1.856 0.736-0.459 0.48-0.688 1.173-0.688 2.08v4.368h-1.536v-4.704c0-0.821-0.192-1.44-0.576-1.856-0.373-0.416-0.912-0.624-1.616-0.624-0.779 0-1.397 0.245-1.856 0.736-0.459 0.48-0.688 1.173-0.688 2.08v4.368h-1.536v-8.48h1.472v1.264c0.309-0.437 0.715-0.768 1.216-0.992 0.501-0.235 1.072-0.352 1.712-0.352 0.661 0 1.248 0.133 1.76 0.4s0.907 0.656 1.184 1.168c0.32-0.491 0.763-0.875 1.328-1.152 0.576-0.277 1.221-0.416 1.936-0.416zm13.646 0.08-4.112 9.328c-0.363 0.864-0.789 1.472-1.28 1.824-0.48 0.352-1.061 0.528-1.744 0.528-0.416 0-0.821-0.069-1.216-0.208-0.384-0.128-0.704-0.32-0.96-0.576l0.656-1.152c0.437 0.416 0.944 0.624 1.52 0.624 0.373 0 0.683-0.101 0.928-0.304 0.256-0.192 0.485-0.528 0.688-1.008l0.272-0.592-3.744-8.464h1.6l2.96 6.784 2.928-6.784zm6.436 7.984c-0.224 0.192-0.502 0.341-0.832 0.448-0.331 0.096-0.672 0.144-1.024 0.144-0.854 0-1.515-0.229-1.984-0.688-0.47-0.459-0.704-1.115-0.704-1.968v-4.656h-1.44v-1.264h1.44v-1.856h1.536v1.856h2.432v1.264h-2.432v4.592c0 0.459 0.112 0.811 0.336 1.056 0.234 0.245 0.565 0.368 0.992 0.368 0.469 0 0.869-0.133 1.2-0.4zm6.385-8.064c1.077 0 1.93 0.315 2.56 0.944 0.64 0.619 0.96 1.531 0.96 2.736v4.88h-1.536v-4.704c0-0.821-0.198-1.44-0.592-1.856-0.395-0.416-0.96-0.624-1.696-0.624-0.832 0-1.488 0.245-1.968 0.736-0.48 0.48-0.72 1.173-0.72 2.08v4.368h-1.536v-11.872h1.536v4.592c0.32-0.405 0.736-0.72 1.248-0.944 0.522-0.224 1.104-0.336 1.744-0.336zm15.155 0c0.822 0 1.558 0.181 2.208 0.544 0.651 0.363 1.158 0.869 1.52 1.52 0.374 0.651 0.56 1.403 0.56 2.256s-0.186 1.611-0.56 2.272c-0.362 0.651-0.869 1.157-1.52 1.52-0.65 0.363-1.386 0.544-2.208 0.544-0.629 0-1.205-0.123-1.728-0.368-0.522-0.245-0.954-0.603-1.296-1.072v1.344h-1.472v-11.872h1.536v4.672c0.342-0.448 0.768-0.784 1.28-1.008 0.512-0.235 1.072-0.352 1.68-0.352zm-0.128 7.312c0.544 0 1.03-0.123 1.456-0.368 0.438-0.256 0.779-0.608 1.024-1.056 0.256-0.459 0.384-0.981 0.384-1.568s-0.128-1.104-0.384-1.552c-0.245-0.459-0.586-0.811-1.024-1.056-0.426-0.245-0.912-0.368-1.456-0.368-0.533 0-1.018 0.123-1.456 0.368-0.437 0.245-0.778 0.597-1.024 1.056-0.245 0.448-0.368 0.965-0.368 1.552s0.123 1.109 0.368 1.568c0.246 0.448 0.587 0.8 1.024 1.056 0.438 0.245 0.923 0.368 1.456 0.368zm14.443-7.232v8.48h-1.456v-1.28c-0.31 0.437-0.72 0.779-1.232 1.024-0.502 0.235-1.051 0.352-1.648 0.352-1.131 0-2.022-0.309-2.673-0.928-0.65-0.629-0.975-1.552-0.975-2.768v-4.88h1.536v4.704c0 0.821 0.197 1.445 0.592 1.872 0.394 0.416 0.96 0.624 1.696 0.624 0.81 0 1.45-0.245 1.92-0.736 0.469-0.491 0.704-1.184 0.704-2.08v-4.384zm5.356 8.576c-0.694 0-1.36-0.091-2-0.272-0.64-0.192-1.142-0.432-1.504-0.72l0.64-1.216c0.373 0.267 0.826 0.48 1.36 0.64 0.533 0.16 1.072 0.24 1.616 0.24 1.344 0 2.016-0.384 2.016-1.152 0-0.256-0.091-0.459-0.272-0.608-0.182-0.149-0.411-0.256-0.688-0.32-0.267-0.075-0.651-0.155-1.152-0.24-0.683-0.107-1.243-0.229-1.68-0.368-0.427-0.139-0.795-0.373-1.104-0.704-0.31-0.331-0.464-0.795-0.464-1.392 0-0.768 0.32-1.381 0.96-1.84 0.64-0.469 1.498-0.704 2.576-0.704 0.565 0 1.13 0.069 1.696 0.208 0.565 0.139 1.029 0.325 1.392 0.56l-0.656 1.216c-0.694-0.448-1.51-0.672-2.448-0.672-0.651 0-1.147 0.107-1.488 0.32-0.342 0.213-0.512 0.496-0.512 0.848 0 0.277 0.096 0.496 0.288 0.656s0.426 0.277 0.704 0.352c0.288 0.075 0.688 0.16 1.2 0.256 0.682 0.117 1.232 0.245 1.648 0.384 0.426 0.128 0.789 0.352 1.088 0.672 0.298 0.32 0.448 0.768 0.448 1.344 0 0.768-0.331 1.381-0.992 1.84-0.651 0.448-1.542 0.672-2.672 0.672zm10.351-0.592c-0.224 0.192-0.501 0.341-0.832 0.448-0.33 0.096-0.672 0.144-1.024 0.144-0.853 0-1.514-0.229-1.984-0.688-0.469-0.459-0.704-1.115-0.704-1.968v-4.656h-1.44v-1.264h1.44v-1.856h1.536v1.856h2.432v1.264h-2.432v4.592c0 0.459 0.112 0.811 0.336 1.056 0.235 0.245 0.566 0.368 0.992 0.368 0.47 0 0.87-0.133 1.2-0.4zm1.857-7.984h1.536v8.48h-1.536zm0.768-1.632c-0.298 0-0.549-0.096-0.752-0.288-0.192-0.192-0.288-0.427-0.288-0.704s0.096-0.512 0.288-0.704c0.203-0.203 0.454-0.304 0.752-0.304 0.299 0 0.544 0.096 0.736 0.288 0.203 0.181 0.304 0.411 0.304 0.688 0 0.288-0.101 0.533-0.304 0.736-0.192 0.192-0.437 0.288-0.736 0.288zm8.229 1.552c1.077 0 1.931 0.315 2.56 0.944 0.64 0.619 0.96 1.531 0.96 2.736v4.88h-1.536v-4.704c0-0.821-0.197-1.44-0.592-1.856s-0.96-0.624-1.696-0.624c-0.832 0-1.488 0.245-1.968 0.736-0.48 0.48-0.72 1.173-0.72 2.08v4.368h-1.536v-8.48h1.472v1.28c0.309-0.437 0.725-0.773 1.248-1.008 0.533-0.235 1.136-0.352 1.808-0.352zm14.522 0.08v7.328c0 1.483-0.368 2.576-1.104 3.28-0.736 0.715-1.835 1.072-3.296 1.072-0.8 0-1.563-0.112-2.288-0.336-0.726-0.213-1.312-0.523-1.76-0.928l0.736-1.184c0.394 0.341 0.88 0.608 1.456 0.8 0.586 0.203 1.189 0.304 1.808 0.304 0.992 0 1.722-0.235 2.192-0.704 0.48-0.469 0.72-1.184 0.72-2.144v-0.672c-0.363 0.437-0.811 0.768-1.344 0.992-0.523 0.213-1.094 0.32-1.712 0.32-0.811 0-1.547-0.171-2.208-0.512-0.651-0.352-1.163-0.837-1.536-1.456-0.374-0.629-0.56-1.344-0.56-2.144s0.186-1.509 0.56-2.128c0.373-0.629 0.885-1.115 1.536-1.456 0.661-0.341 1.397-0.512 2.208-0.512 0.64 0 1.232 0.117 1.776 0.352 0.554 0.235 1.008 0.581 1.36 1.04v-1.312zm-4.416 6.784c0.554 0 1.05-0.117 1.488-0.352 0.448-0.235 0.794-0.56 1.04-0.976 0.256-0.427 0.384-0.907 0.384-1.44 0-0.821-0.272-1.483-0.816-1.984-0.544-0.512-1.243-0.768-2.096-0.768-0.864 0-1.568 0.256-2.112 0.768-0.544 0.501-0.816 1.163-0.816 1.984 0 0.533 0.122 1.013 0.368 1.44 0.256 0.416 0.602 0.741 1.04 0.976 0.448 0.235 0.954 0.352 1.52 0.352zm-223.38 17.216-3.712 8.48h-1.568l-3.712-8.48h1.6l2.912 6.8 2.976-6.8zm1.434 0h1.536v8.48h-1.536zm0.768-1.632c-0.299 0-0.55-0.096-0.752-0.288-0.192-0.192-0.288-0.427-0.288-0.704s0.096-0.512 0.288-0.704c0.202-0.203 0.453-0.304 0.752-0.304 0.298 0 0.544 0.096 0.736 0.288 0.202 0.181 0.304 0.411 0.304 0.688 0 0.288-0.102 0.533-0.304 0.736-0.192 0.192-0.438 0.288-0.736 0.288zm11.7-1.76v11.872h-1.472v-1.344c-0.341 0.469-0.773 0.827-1.296 1.072-0.522 0.245-1.098 0.368-1.728 0.368-0.821 0-1.557-0.181-2.208-0.544-0.65-0.363-1.162-0.869-1.536-1.52-0.362-0.661-0.544-1.419-0.544-2.272s0.182-1.605 0.544-2.256c0.374-0.651 0.886-1.157 1.536-1.52 0.651-0.363 1.387-0.544 2.208-0.544 0.608 0 1.168 0.117 1.68 0.352 0.512 0.224 0.939 0.56 1.28 1.008v-4.672zm-4.368 10.624c0.534 0 1.019-0.123 1.456-0.368 0.438-0.256 0.779-0.608 1.024-1.056 0.246-0.459 0.368-0.981 0.368-1.568s-0.122-1.104-0.368-1.552c-0.245-0.459-0.586-0.811-1.024-1.056-0.437-0.245-0.922-0.368-1.456-0.368-0.544 0-1.034 0.123-1.472 0.368-0.426 0.245-0.768 0.597-1.024 1.056-0.245 0.448-0.368 0.965-0.368 1.552s0.123 1.109 0.368 1.568c0.256 0.448 0.598 0.8 1.024 1.056 0.438 0.245 0.928 0.368 1.472 0.368zm14.939-2.944c0 0.117-0.011 0.272-0.032 0.464h-6.88c0.096 0.747 0.421 1.349 0.976 1.808 0.565 0.448 1.264 0.672 2.096 0.672 1.013 0 1.829-0.341 2.448-1.024l0.848 0.992c-0.384 0.448-0.864 0.789-1.44 1.024-0.566 0.235-1.2 0.352-1.904 0.352-0.896 0-1.691-0.181-2.384-0.544-0.694-0.373-1.232-0.891-1.616-1.552-0.374-0.661-0.56-1.408-0.56-2.24 0-0.821 0.181-1.563 0.544-2.224 0.373-0.661 0.88-1.173 1.52-1.536 0.65-0.373 1.381-0.56 2.192-0.56 0.81 0 1.53 0.187 2.16 0.56 0.64 0.363 1.136 0.875 1.488 1.536 0.362 0.661 0.544 1.419 0.544 2.272zm-4.192-3.072c-0.736 0-1.355 0.224-1.856 0.672-0.491 0.448-0.779 1.035-0.864 1.76h5.44c-0.086-0.715-0.379-1.296-0.88-1.744-0.491-0.459-1.104-0.688-1.84-0.688zm9.956 7.36c-0.842 0-1.6-0.187-2.272-0.56s-1.2-0.885-1.584-1.536c-0.373-0.661-0.56-1.408-0.56-2.24s0.187-1.573 0.56-2.224c0.384-0.661 0.912-1.173 1.584-1.536 0.672-0.373 1.43-0.56 2.272-0.56 0.843 0 1.595 0.187 2.256 0.56 0.672 0.363 1.195 0.875 1.568 1.536 0.384 0.651 0.576 1.392 0.576 2.224s-0.192 1.579-0.576 2.24c-0.373 0.651-0.896 1.163-1.568 1.536-0.661 0.373-1.413 0.56-2.256 0.56zm0-1.344c0.544 0 1.03-0.123 1.456-0.368 0.438-0.256 0.779-0.608 1.024-1.056 0.246-0.459 0.368-0.981 0.368-1.568s-0.122-1.104-0.368-1.552c-0.245-0.459-0.586-0.811-1.024-1.056-0.426-0.245-0.912-0.368-1.456-0.368s-1.034 0.123-1.472 0.368c-0.426 0.245-0.768 0.597-1.024 1.056-0.245 0.448-0.368 0.965-0.368 1.552s0.123 1.109 0.368 1.568c0.256 0.448 0.598 0.8 1.024 1.056 0.438 0.245 0.928 0.368 1.472 0.368zm8.957 1.344c-0.694 0-1.36-0.091-2-0.272-0.64-0.192-1.142-0.432-1.504-0.72l0.64-1.216c0.373 0.267 0.826 0.48 1.36 0.64 0.533 0.16 1.072 0.24 1.616 0.24 1.344 0 2.016-0.384 2.016-1.152 0-0.256-0.091-0.459-0.272-0.608-0.182-0.149-0.411-0.256-0.688-0.32-0.267-0.075-0.651-0.155-1.152-0.24-0.683-0.107-1.243-0.229-1.68-0.368-0.427-0.139-0.795-0.373-1.104-0.704-0.31-0.331-0.464-0.795-0.464-1.392 0-0.768 0.32-1.381 0.96-1.84 0.64-0.469 1.498-0.704 2.576-0.704 0.565 0 1.13 0.069 1.696 0.208 0.565 0.139 1.029 0.325 1.392 0.56l-0.656 1.216c-0.694-0.448-1.51-0.672-2.448-0.672-0.651 0-1.147 0.107-1.488 0.32-0.342 0.213-0.512 0.496-0.512 0.848 0 0.277 0.096 0.496 0.288 0.656s0.426 0.277 0.704 0.352c0.288 0.075 0.688 0.16 1.2 0.256 0.682 0.117 1.232 0.245 1.648 0.384 0.426 0.128 0.789 0.352 1.088 0.672 0.298 0.32 0.448 0.768 0.448 1.344 0 0.768-0.331 1.381-0.992 1.84-0.651 0.448-1.542 0.672-2.672 0.672z" fill="#5095ff"/>
        <path d="m200.31 148.6h160.29v0.8h-160.29zm-77.937 24h52.282v0.8h-52.282z" fill="#5095ff"/>
        <path d="m174.66 172.6h4.304v0.8h-4.304z" fill="#6984ae"/>
    </g>
    <g id="rtr-title" class="topic_text" transform="translate(2.3041 66.359)">
        <path d="m112.9 71.8v11.2h-2.592v-4.592h-5.088v4.592h-2.592v-11.2h2.592v4.416h5.088v-4.416zm6.57 11.328c-0.907 0-1.723-0.1867-2.448-0.56-0.715-0.384-1.275-0.912-1.68-1.584-0.406-0.672-0.608-1.4347-0.608-2.288s0.202-1.616 0.608-2.288c0.405-0.672 0.965-1.1947 1.68-1.568 0.725-0.384 1.541-0.576 2.448-0.576 0.906 0 1.717 0.192 2.432 0.576 0.714 0.3733 1.274 0.896 1.68 1.568 0.405 0.672 0.608 1.4347 0.608 2.288s-0.203 1.616-0.608 2.288c-0.406 0.672-0.966 1.2-1.68 1.584-0.715 0.3733-1.526 0.56-2.432 0.56zm0-2.048c0.64 0 1.162-0.2133 1.568-0.64 0.416-0.4373 0.624-1.0187 0.624-1.744s-0.208-1.3013-0.624-1.728c-0.406-0.4373-0.928-0.656-1.568-0.656s-1.168 0.2187-1.584 0.656c-0.416 0.4267-0.624 1.0027-0.624 1.728s0.208 1.3067 0.624 1.744c0.416 0.4267 0.944 0.64 1.584 0.64zm19.978-6.688-3.12 8.608h-2.4l-1.936-5.344-2 5.344h-2.4l-3.104-8.608h2.352l2.032 5.824 2.112-5.824h2.112l2.048 5.824 2.096-5.824zm9.851 8.736c-0.917 0-1.744-0.1867-2.48-0.56-0.725-0.384-1.296-0.912-1.712-1.584-0.405-0.672-0.608-1.4347-0.608-2.288s0.203-1.616 0.608-2.288c0.416-0.672 0.987-1.1947 1.712-1.568 0.736-0.384 1.563-0.576 2.48-0.576 0.907 0 1.696 0.192 2.368 0.576 0.683 0.3733 1.179 0.912 1.488 1.616l-1.936 1.04c-0.448-0.7893-1.093-1.184-1.936-1.184-0.65 0-1.189 0.2133-1.616 0.64-0.426 0.4267-0.64 1.008-0.64 1.744s0.214 1.3173 0.64 1.744c0.427 0.4267 0.966 0.64 1.616 0.64 0.854 0 1.499-0.3947 1.936-1.184l1.936 1.056c-0.309 0.6827-0.805 1.216-1.488 1.6-0.672 0.384-1.461 0.576-2.368 0.576zm8.766-8.864c1.333 0 2.357 0.32 3.072 0.96 0.714 0.6293 1.072 1.584 1.072 2.864v4.912h-2.336v-1.072c-0.47 0.8-1.344 1.2-2.624 1.2-0.662 0-1.238-0.112-1.728-0.336-0.48-0.224-0.848-0.5333-1.104-0.928s-0.384-0.8427-0.384-1.344c0-0.8 0.298-1.4293 0.896-1.888 0.608-0.4587 1.541-0.688 2.8-0.688h1.984c0-0.544-0.166-0.96-0.496-1.248-0.331-0.2987-0.827-0.448-1.488-0.448-0.459 0-0.912 0.0747-1.36 0.224-0.438 0.1387-0.811 0.3307-1.12 0.576l-0.896-1.744c0.469-0.3307 1.029-0.5867 1.68-0.768 0.661-0.1813 1.338-0.272 2.032-0.272zm-0.192 7.184c0.426 0 0.805-0.096 1.136-0.288 0.33-0.2027 0.565-0.496 0.704-0.88v-0.88h-1.712c-1.024 0-1.536 0.336-1.536 1.008 0 0.32 0.122 0.576 0.368 0.768 0.256 0.1813 0.602 0.272 1.04 0.272zm11.827-7.184c1.066 0 1.925 0.32 2.576 0.96 0.661 0.64 0.992 1.5893 0.992 2.848v4.928h-2.496v-4.544c0-0.6827-0.15-1.1893-0.448-1.52-0.299-0.3413-0.731-0.512-1.296-0.512-0.63 0-1.131 0.1973-1.504 0.592-0.374 0.384-0.56 0.96-0.56 1.728v4.256h-2.496v-8.608h2.384v1.008c0.33-0.3627 0.741-0.64 1.232-0.832 0.49-0.2027 1.029-0.304 1.616-0.304zm10.537-2.464h2.592v11.2h-2.592zm12.342 2.784h2.208v1.92h-2.144v6.496h-2.496v-6.496h-1.328v-1.92h1.328v-0.384c0-0.9813 0.288-1.76 0.864-2.336 0.586-0.576 1.408-0.864 2.464-0.864 0.373 0 0.725 0.0427 1.056 0.128 0.341 0.0747 0.624 0.1867 0.848 0.336l-0.656 1.808c-0.288-0.2027-0.624-0.304-1.008-0.304-0.758 0-1.136 0.416-1.136 1.248zm4.732-0.192h2.496v8.608h-2.496zm1.248-1.2c-0.458 0-0.832-0.1333-1.12-0.4s-0.432-0.5973-0.432-0.992 0.144-0.7253 0.432-0.992 0.662-0.4 1.12-0.4c0.459 0 0.832 0.128 1.12 0.384s0.432 0.576 0.432 0.96c0 0.416-0.144 0.7627-0.432 1.04-0.288 0.2667-0.661 0.4-1.12 0.4zm8.797 1.072c1.066 0 1.925 0.32 2.576 0.96 0.661 0.64 0.992 1.5893 0.992 2.848v4.928h-2.496v-4.544c0-0.6827-0.15-1.1893-0.448-1.52-0.299-0.3413-0.731-0.512-1.296-0.512-0.63 0-1.131 0.1973-1.504 0.592-0.374 0.384-0.56 0.96-0.56 1.728v4.256h-2.496v-8.608h2.384v1.008c0.33-0.3627 0.741-0.64 1.232-0.832 0.49-0.2027 1.029-0.304 1.616-0.304zm14.692-3.136v11.872h-2.384v-0.992c-0.619 0.7467-1.515 1.12-2.688 1.12-0.811 0-1.547-0.1813-2.208-0.544-0.651-0.3627-1.163-0.88-1.536-1.552s-0.56-1.4507-0.56-2.336 0.187-1.664 0.56-2.336 0.885-1.1893 1.536-1.552c0.661-0.3627 1.397-0.544 2.208-0.544 1.099 0 1.957 0.3467 2.576 1.04v-4.176zm-4.64 9.952c0.629 0 1.152-0.2133 1.568-0.64 0.416-0.4373 0.624-1.0187 0.624-1.744s-0.208-1.3013-0.624-1.728c-0.416-0.4373-0.939-0.656-1.568-0.656-0.64 0-1.168 0.2187-1.584 0.656-0.416 0.4267-0.624 1.0027-0.624 1.728s0.208 1.3067 0.624 1.744c0.416 0.4267 0.944 0.64 1.584 0.64zm22.505-6.816c1.078 0 1.931 0.32 2.56 0.96 0.64 0.6293 0.96 1.5787 0.96 2.848v4.928h-2.496v-4.544c0-0.6827-0.144-1.1893-0.432-1.52-0.277-0.3413-0.677-0.512-1.2-0.512-0.586 0-1.05 0.192-1.392 0.576-0.341 0.3733-0.512 0.9333-0.512 1.68v4.32h-2.496v-4.544c0-1.3547-0.544-2.032-1.632-2.032-0.576 0-1.034 0.192-1.376 0.576-0.341 0.3733-0.512 0.9333-0.512 1.68v4.32h-2.496v-8.608h2.384v0.992c0.32-0.3627 0.71-0.64 1.168-0.832 0.47-0.192 0.982-0.288 1.536-0.288 0.608 0 1.158 0.1227 1.648 0.368 0.491 0.2347 0.886 0.5813 1.184 1.04 0.352-0.448 0.795-0.7947 1.328-1.04 0.544-0.2453 1.136-0.368 1.776-0.368zm9.947 8.864c-0.906 0-1.722-0.1867-2.448-0.56-0.714-0.384-1.274-0.912-1.68-1.584-0.405-0.672-0.608-1.4347-0.608-2.288s0.203-1.616 0.608-2.288c0.406-0.672 0.966-1.1947 1.68-1.568 0.726-0.384 1.542-0.576 2.448-0.576 0.907 0 1.718 0.192 2.432 0.576 0.715 0.3733 1.275 0.896 1.68 1.568 0.406 0.672 0.608 1.4347 0.608 2.288s-0.202 1.616-0.608 2.288c-0.405 0.672-0.965 1.2-1.68 1.584-0.714 0.3733-1.525 0.56-2.432 0.56zm0-2.048c0.64 0 1.163-0.2133 1.568-0.64 0.416-0.4373 0.624-1.0187 0.624-1.744s-0.208-1.3013-0.624-1.728c-0.405-0.4373-0.928-0.656-1.568-0.656s-1.168 0.2187-1.584 0.656c-0.416 0.4267-0.624 1.0027-0.624 1.728s0.208 1.3067 0.624 1.744c0.416 0.4267 0.944 0.64 1.584 0.64zm8.773-5.552c0.298-0.416 0.698-0.7307 1.2-0.944 0.512-0.2133 1.098-0.32 1.76-0.32v2.304c-0.278-0.0213-0.464-0.032-0.56-0.032-0.715 0-1.275 0.2027-1.68 0.608-0.406 0.3947-0.608 0.992-0.608 1.792v4.064h-2.496v-8.608h2.384zm12.798 3.2c0 0.032-0.016 0.256-0.048 0.672h-6.512c0.117 0.5333 0.394 0.9547 0.832 1.264 0.437 0.3093 0.981 0.464 1.632 0.464 0.448 0 0.842-0.064 1.184-0.192 0.352-0.1387 0.677-0.352 0.976-0.64l1.328 1.44c-0.811 0.928-1.995 1.392-3.552 1.392-0.971 0-1.83-0.1867-2.576-0.56-0.747-0.384-1.323-0.912-1.728-1.584-0.406-0.672-0.608-1.4347-0.608-2.288 0-0.8427 0.197-1.6 0.592-2.272 0.405-0.6827 0.954-1.2107 1.648-1.584 0.704-0.384 1.488-0.576 2.352-0.576 0.842 0 1.605 0.1813 2.288 0.544 0.682 0.3627 1.216 0.8853 1.6 1.568 0.394 0.672 0.592 1.456 0.592 2.352zm-4.464-2.576c-0.566 0-1.04 0.16-1.424 0.48s-0.619 0.7573-0.704 1.312h4.24c-0.086-0.544-0.32-0.976-0.704-1.296-0.384-0.3307-0.854-0.496-1.408-0.496zm10.657-1.76h2.496v8.608h-2.496zm1.248-1.2c-0.459 0-0.832-0.1333-1.12-0.4s-0.432-0.5973-0.432-0.992 0.144-0.7253 0.432-0.992 0.661-0.4 1.12-0.4c0.458 0 0.832 0.128 1.12 0.384s0.432 0.576 0.432 0.96c0 0.416-0.144 0.7627-0.432 1.04-0.288 0.2667-0.662 0.4-1.12 0.4zm8.796 1.072c1.067 0 1.926 0.32 2.576 0.96 0.662 0.64 0.992 1.5893 0.992 2.848v4.928h-2.496v-4.544c0-0.6827-0.149-1.1893-0.448-1.52-0.298-0.3413-0.73-0.512-1.296-0.512-0.629 0-1.13 0.1973-1.504 0.592-0.373 0.384-0.56 0.96-0.56 1.728v4.256h-2.496v-8.608h2.384v1.008c0.331-0.3627 0.742-0.64 1.232-0.832 0.491-0.2027 1.03-0.304 1.616-0.304zm8.567 0.32h2.208v1.92h-2.144v6.496h-2.496v-6.496h-1.328v-1.92h1.328v-0.384c0-0.9813 0.288-1.76 0.864-2.336 0.586-0.576 1.408-0.864 2.464-0.864 0.373 0 0.725 0.0427 1.056 0.128 0.341 0.0747 0.624 0.1867 0.848 0.336l-0.656 1.808c-0.288-0.2027-0.624-0.304-1.008-0.304-0.758 0-1.136 0.416-1.136 1.248zm7.438 8.544c-0.907 0-1.723-0.1867-2.448-0.56-0.715-0.384-1.275-0.912-1.68-1.584s-0.608-1.4347-0.608-2.288 0.203-1.616 0.608-2.288 0.965-1.1947 1.68-1.568c0.725-0.384 1.541-0.576 2.448-0.576s1.717 0.192 2.432 0.576c0.715 0.3733 1.275 0.896 1.68 1.568s0.608 1.4347 0.608 2.288-0.203 1.616-0.608 2.288-0.965 1.2-1.68 1.584c-0.715 0.3733-1.525 0.56-2.432 0.56zm0-2.048c0.64 0 1.163-0.2133 1.568-0.64 0.416-0.4373 0.624-1.0187 0.624-1.744s-0.208-1.3013-0.624-1.728c-0.405-0.4373-0.928-0.656-1.568-0.656s-1.168 0.2187-1.584 0.656c-0.416 0.4267-0.624 1.0027-0.624 1.728s0.208 1.3067 0.624 1.744c0.416 0.4267 0.944 0.64 1.584 0.64zm8.772-5.552c0.299-0.416 0.699-0.7307 1.2-0.944 0.512-0.2133 1.099-0.32 1.76-0.32v2.304c-0.277-0.0213-0.464-0.032-0.56-0.032-0.714 0-1.274 0.2027-1.68 0.608-0.405 0.3947-0.608 0.992-0.608 1.792v4.064h-2.496v-8.608h2.384zm15.468-1.264c1.078 0 1.931 0.32 2.56 0.96 0.64 0.6293 0.96 1.5787 0.96 2.848v4.928h-2.496v-4.544c0-0.6827-0.144-1.1893-0.432-1.52-0.277-0.3413-0.677-0.512-1.2-0.512-0.586 0-1.05 0.192-1.392 0.576-0.341 0.3733-0.512 0.9333-0.512 1.68v4.32h-2.496v-4.544c0-1.3547-0.544-2.032-1.632-2.032-0.576 0-1.034 0.192-1.376 0.576-0.341 0.3733-0.512 0.9333-0.512 1.68v4.32h-2.496v-8.608h2.384v0.992c0.32-0.3627 0.71-0.64 1.168-0.832 0.47-0.192 0.982-0.288 1.536-0.288 0.608 0 1.158 0.1227 1.648 0.368 0.491 0.2347 0.886 0.5813 1.184 1.04 0.352-0.448 0.795-0.7947 1.328-1.04 0.544-0.2453 1.136-0.368 1.776-0.368zm9.23 0c1.333 0 2.357 0.32 3.072 0.96 0.714 0.6293 1.072 1.584 1.072 2.864v4.912h-2.336v-1.072c-0.47 0.8-1.344 1.2-2.624 1.2-0.662 0-1.238-0.112-1.728-0.336-0.48-0.224-0.848-0.5333-1.104-0.928s-0.384-0.8427-0.384-1.344c0-0.8 0.298-1.4293 0.896-1.888 0.608-0.4587 1.541-0.688 2.8-0.688h1.984c0-0.544-0.166-0.96-0.496-1.248-0.331-0.2987-0.827-0.448-1.488-0.448-0.459 0-0.912 0.0747-1.36 0.224-0.438 0.1387-0.811 0.3307-1.12 0.576l-0.896-1.744c0.469-0.3307 1.029-0.5867 1.68-0.768 0.661-0.1813 1.338-0.272 2.032-0.272zm-0.192 7.184c0.426 0 0.805-0.096 1.136-0.288 0.33-0.2027 0.565-0.496 0.704-0.88v-0.88h-1.712c-1.024 0-1.536 0.336-1.536 1.008 0 0.32 0.122 0.576 0.368 0.768 0.256 0.1813 0.602 0.272 1.04 0.272zm12.147 1.136c-0.246 0.1813-0.55 0.32-0.912 0.416-0.352 0.0853-0.726 0.128-1.12 0.128-1.024 0-1.819-0.2613-2.384-0.784-0.555-0.5227-0.832-1.2907-0.832-2.304v-3.536h-1.328v-1.92h1.328v-2.096h2.496v2.096h2.144v1.92h-2.144v3.504c0 0.3627 0.09 0.6453 0.272 0.848 0.192 0.192 0.458 0.288 0.8 0.288 0.394 0 0.73-0.1067 1.008-0.32zm1.401-8.192h2.496v8.608h-2.496zm1.248-1.2c-0.459 0-0.832-0.1333-1.12-0.4s-0.432-0.5973-0.432-0.992 0.144-0.7253 0.432-0.992 0.661-0.4 1.12-0.4c0.458 0 0.832 0.128 1.12 0.384s0.432 0.576 0.432 0.96c0 0.416-0.144 0.7627-0.432 1.04-0.288 0.2667-0.662 0.4-1.12 0.4zm7.66 9.936c-0.906 0-1.722-0.1867-2.448-0.56-0.714-0.384-1.274-0.912-1.68-1.584-0.405-0.672-0.608-1.4347-0.608-2.288s0.203-1.616 0.608-2.288c0.406-0.672 0.966-1.1947 1.68-1.568 0.726-0.384 1.542-0.576 2.448-0.576 0.907 0 1.718 0.192 2.432 0.576 0.715 0.3733 1.275 0.896 1.68 1.568 0.406 0.672 0.608 1.4347 0.608 2.288s-0.202 1.616-0.608 2.288c-0.405 0.672-0.965 1.2-1.68 1.584-0.714 0.3733-1.525 0.56-2.432 0.56zm0-2.048c0.64 0 1.163-0.2133 1.568-0.64 0.416-0.4373 0.624-1.0187 0.624-1.744s-0.208-1.3013-0.624-1.728c-0.405-0.4373-0.928-0.656-1.568-0.656s-1.168 0.2187-1.584 0.656c-0.416 0.4267-0.624 1.0027-0.624 1.728s0.208 1.3067 0.624 1.744c0.416 0.4267 0.944 0.64 1.584 0.64zm11.621-6.816c1.066 0 1.925 0.32 2.576 0.96 0.661 0.64 0.992 1.5893 0.992 2.848v4.928h-2.496v-4.544c0-0.6827-0.15-1.1893-0.448-1.52-0.299-0.3413-0.731-0.512-1.296-0.512-0.63 0-1.131 0.1973-1.504 0.592-0.374 0.384-0.56 0.96-0.56 1.728v4.256h-2.496v-8.608h2.384v1.008c0.33-0.3627 0.741-0.64 1.232-0.832 0.49-0.2027 1.029-0.304 1.616-0.304zm-179.58 32.864c-0.906 0-1.722-0.187-2.448-0.56-0.714-0.384-1.274-0.912-1.68-1.584-0.405-0.672-0.608-1.435-0.608-2.288s0.203-1.616 0.608-2.288c0.406-0.672 0.966-1.1947 1.68-1.568 0.726-0.384 1.542-0.576 2.448-0.576 0.907 0 1.718 0.192 2.432 0.576 0.715 0.3733 1.275 0.896 1.68 1.568 0.406 0.672 0.608 1.435 0.608 2.288s-0.202 1.616-0.608 2.288c-0.405 0.672-0.965 1.2-1.68 1.584-0.714 0.373-1.525 0.56-2.432 0.56zm0-2.048c0.64 0 1.163-0.213 1.568-0.64 0.416-0.437 0.624-1.019 0.624-1.744s-0.208-1.301-0.624-1.728c-0.405-0.437-0.928-0.656-1.568-0.656s-1.168 0.219-1.584 0.656c-0.416 0.427-0.624 1.003-0.624 1.728s0.208 1.307 0.624 1.744c0.416 0.427 0.944 0.64 1.584 0.64zm11.621-6.816c1.066 0 1.925 0.32 2.576 0.96 0.661 0.64 0.992 1.589 0.992 2.848v4.928h-2.496v-4.544c0-0.683-0.15-1.189-0.448-1.52-0.299-0.341-0.731-0.512-1.296-0.512-0.63 0-1.131 0.197-1.504 0.592-0.374 0.384-0.56 0.96-0.56 1.728v4.256h-2.496v-8.608h2.384v1.008c0.33-0.3627 0.741-0.64 1.232-0.832 0.49-0.2027 1.029-0.304 1.616-0.304zm15.897 8.928c-1.141 0-2.176-0.245-3.104-0.736-0.917-0.501-1.642-1.189-2.176-2.064-0.522-0.885-0.784-1.883-0.784-2.992s0.262-2.1013 0.784-2.976c0.534-0.8853 1.259-1.5733 2.176-2.064 0.928-0.5013 1.968-0.752 3.12-0.752 0.971 0 1.846 0.1707 2.624 0.512 0.79 0.3413 1.451 0.832 1.984 1.472l-1.664 1.536c-0.757-0.8747-1.696-1.312-2.816-1.312-0.693 0-1.312 0.1547-1.856 0.464-0.544 0.2987-0.97 0.72-1.28 1.264-0.298 0.544-0.448 1.163-0.448 1.856s0.15 1.312 0.448 1.856c0.31 0.544 0.736 0.971 1.28 1.28 0.544 0.299 1.163 0.448 1.856 0.448 1.12 0 2.059-0.443 2.816-1.328l1.664 1.536c-0.533 0.651-1.194 1.147-1.984 1.488-0.789 0.341-1.669 0.512-2.64 0.512zm9.998-0.064c-0.907 0-1.723-0.187-2.448-0.56-0.715-0.384-1.275-0.912-1.68-1.584s-0.608-1.435-0.608-2.288 0.203-1.616 0.608-2.288 0.965-1.1947 1.68-1.568c0.725-0.384 1.541-0.576 2.448-0.576s1.717 0.192 2.432 0.576c0.715 0.3733 1.275 0.896 1.68 1.568s0.608 1.435 0.608 2.288-0.203 1.616-0.608 2.288-0.965 1.2-1.68 1.584c-0.715 0.373-1.525 0.56-2.432 0.56zm0-2.048c0.64 0 1.163-0.213 1.568-0.64 0.416-0.437 0.624-1.019 0.624-1.744s-0.208-1.301-0.624-1.728c-0.405-0.437-0.928-0.656-1.568-0.656s-1.168 0.219-1.584 0.656c-0.416 0.427-0.624 1.003-0.624 1.728s0.208 1.307 0.624 1.744c0.416 0.427 0.944 0.64 1.584 0.64zm14.698-6.688-3.632 8.608h-2.576l-3.616-8.608h2.576l2.384 5.856 2.464-5.856zm1.018 0h2.496v8.608h-2.496zm1.248-1.2c-0.458 0-0.832-0.1333-1.12-0.4s-0.432-0.5973-0.432-0.992 0.144-0.7253 0.432-0.992 0.662-0.4 1.12-0.4c0.459 0 0.832 0.128 1.12 0.384s0.432 0.576 0.432 0.96c0 0.416-0.144 0.7627-0.432 1.04-0.288 0.2667-0.661 0.4-1.12 0.4zm12.333-2.064v11.872h-2.384v-0.992c-0.619 0.747-1.515 1.12-2.688 1.12-0.811 0-1.547-0.181-2.208-0.544-0.651-0.363-1.163-0.88-1.536-1.552s-0.56-1.451-0.56-2.336 0.187-1.664 0.56-2.336 0.885-1.1893 1.536-1.552c0.661-0.3627 1.397-0.544 2.208-0.544 1.099 0 1.957 0.3467 2.576 1.04v-4.176zm-4.64 9.952c0.629 0 1.152-0.213 1.568-0.64 0.416-0.437 0.624-1.019 0.624-1.744s-0.208-1.301-0.624-1.728c-0.416-0.437-0.939-0.656-1.568-0.656-0.64 0-1.168 0.219-1.584 0.656-0.416 0.427-0.624 1.003-0.624 1.728s0.208 1.307 0.624 1.744c0.416 0.427 0.944 0.64 1.584 0.64zm6.63-3.584h4.528v2h-4.528zm9.94-5.696v11.2h-2.592v-9.12h-2.24v-2.08zm5.882-0.192c1.568 0 2.794 0.48 3.68 1.44 0.885 0.9493 1.328 2.32 1.328 4.112 0 1.269-0.24 2.357-0.72 3.264-0.47 0.907-1.136 1.595-2 2.064s-1.862 0.704-2.992 0.704c-0.598 0-1.168-0.064-1.712-0.192-0.544-0.139-1.008-0.331-1.392-0.576l0.96-1.904c0.544 0.373 1.242 0.56 2.096 0.56 0.949 0 1.701-0.277 2.256-0.832 0.554-0.565 0.853-1.376 0.896-2.432-0.672 0.672-1.6 1.008-2.784 1.008-0.715 0-1.366-0.144-1.952-0.432-0.587-0.288-1.051-0.693-1.392-1.216-0.342-0.533-0.512-1.147-0.512-1.84 0-0.7467 0.186-1.4027 0.56-1.968 0.373-0.5653 0.88-0.9973 1.52-1.296 0.65-0.3093 1.37-0.464 2.16-0.464zm0.192 5.28c0.565 0 1.024-0.155 1.376-0.464 0.362-0.32 0.544-0.7253 0.544-1.216s-0.176-0.8907-0.528-1.2c-0.342-0.3093-0.816-0.464-1.424-0.464-0.555 0-1.008 0.1493-1.36 0.448-0.342 0.2987-0.512 0.704-0.512 1.216s0.17 0.923 0.512 1.232c0.352 0.299 0.816 0.448 1.392 0.448zm8.595 2.224c0-0.555 0.122-1.013 0.368-1.376 0.256-0.363 0.624-0.763 1.104-1.2 0.352-0.32 0.608-0.5867 0.768-0.8 0.17-0.224 0.256-0.4747 0.256-0.752 0-0.3947-0.16-0.704-0.48-0.928-0.31-0.2347-0.726-0.352-1.248-0.352-0.502 0-0.95 0.1067-1.344 0.32-0.384 0.2027-0.71 0.4907-0.976 0.864l-1.936-1.136c0.448-0.6827 1.05-1.2107 1.808-1.584 0.768-0.3733 1.674-0.56 2.72-0.56 1.226 0 2.208 0.2613 2.944 0.784 0.746 0.5227 1.12 1.248 1.12 2.176 0 0.4373-0.075 0.8213-0.224 1.152-0.139 0.331-0.315 0.613-0.528 0.848-0.203 0.224-0.47 0.485-0.8 0.784-0.395 0.352-0.683 0.651-0.864 0.896-0.182 0.235-0.272 0.523-0.272 0.864zm1.216 4.016c-0.438 0-0.806-0.139-1.104-0.416-0.288-0.288-0.432-0.635-0.432-1.04s0.144-0.741 0.432-1.008c0.288-0.277 0.656-0.416 1.104-0.416s0.816 0.139 1.104 0.416c0.288 0.267 0.432 0.603 0.432 1.008s-0.15 0.752-0.448 1.04c-0.288 0.277-0.651 0.416-1.088 0.416z" fill="#f79fa8"/>
    </g>
    <defs>
	    <filter id="dropshadow" height="130%">
	    	<feGaussianBlur in="SourceAlpha" stdDeviation="3"/>
	    	<feOffset dx="0" dy="2" result="offsetblur"/>
	    	<feComponentTransfer>
	        	<feFuncA slope="0.1" type="linear"/>
	    	</feComponentTransfer>
	    	<feMerge>
	        	<feMergeNode/>
	        	<feMergeNode in="SourceGraphic"/>
	    	</feMerge>
	    </filter>









    </defs>
</svg>
