<?xml version="1.0" encoding="utf-8"?>
<!-- Generator: Adobe Illustrator 24.2.0, SVG Export Plug-In . SVG Version: 6.00 Build 0)  -->
<svg version="1.1" id="resources_topic_top" xmlns="http://www.w3.org/2000/svg" xmlns:xlink="http://www.w3.org/1999/xlink" x="0px" y="0px" viewBox="0 0 400 400" enable-background="new 0 0 400 400" xml:space="preserve">
	<title>How can I find more information on Covid such as how to porperly wear a mask? Video content</title>
  	<desc>Watch the educational videos created by the World Health Organization.</desc>
	<defs>
	    <filter id="dropshadow" height="130%">
	    	<feGaussianBlur in="SourceAlpha" stdDeviation="3"/>
	    	<feOffset dx="0" dy="2" result="offsetblur"/>
	    	<feComponentTransfer>
	        	<feFuncA type="linear" slope="0.1"/>
	    	</feComponentTransfer>
	    	<feMerge>
	        	<feMergeNode/>
	        	<feMergeNode in="SourceGraphic"/>
	    	</feMerge>
	    </filter>
	</defs>
	<g id="">
		<g class="ellipse_s">
			<circle fill="#FFFFFF" filter="url(#dropshadow)" cx="152" cy="387.7" r="8"/>
		</g>
		<g class="ellipse_m">
			<ellipse fill="#FFFFFF" filter="url(#dropshadow)" cx="133.9" cy="346.1" rx="16" ry="16"/>
		</g>
		<g class="ellipse_l">
			<ellipse fill="#FFFFFF" filter="url(#dropshadow)" cx="200" cy="175" rx="185" ry="146"/>
		</g>
		<g class="topic_text">
			<path fill="#6984AE" d="M98.2,245l-2.4-3.4c-0.3,0-0.5,0-0.7,0h-2.8v3.4h-1.6v-11.2H95c1.5,0,2.6,0.3,3.4,1
				c0.8,0.7,1.2,1.6,1.2,2.9c0,0.9-0.2,1.6-0.6,2.2c-0.4,0.6-1,1.1-1.8,1.3l2.7,3.8H98.2z M95,240.3c1,0,1.8-0.2,2.3-0.7
				s0.8-1.1,0.8-1.9c0-0.8-0.3-1.4-0.8-1.9c-0.5-0.4-1.3-0.7-2.3-0.7h-2.7v5H95z M109.7,240.8c0,0.1,0,0.3,0,0.5h-6.9
				c0.1,0.7,0.4,1.3,1,1.8c0.6,0.4,1.3,0.7,2.1,0.7c1,0,1.8-0.3,2.4-1l0.8,1c-0.4,0.4-0.9,0.8-1.4,1c-0.6,0.2-1.2,0.4-1.9,0.4
				c-0.9,0-1.7-0.2-2.4-0.5c-0.7-0.4-1.2-0.9-1.6-1.6c-0.4-0.7-0.6-1.4-0.6-2.2c0-0.8,0.2-1.6,0.5-2.2c0.4-0.7,0.9-1.2,1.5-1.5
				c0.7-0.4,1.4-0.6,2.2-0.6s1.5,0.2,2.2,0.6c0.6,0.4,1.1,0.9,1.5,1.5C109.6,239.2,109.7,240,109.7,240.8z M105.6,237.8
				c-0.7,0-1.4,0.2-1.9,0.7c-0.5,0.4-0.8,1-0.9,1.8h5.4c-0.1-0.7-0.4-1.3-0.9-1.7C106.9,238,106.3,237.8,105.6,237.8z M114.7,236.5
				c1.2,0,2.1,0.3,2.7,0.9c0.6,0.6,0.9,1.4,0.9,2.6v5.1h-1.5v-1.1c-0.3,0.4-0.6,0.7-1.1,0.9c-0.5,0.2-1,0.3-1.7,0.3
				c-0.9,0-1.7-0.2-2.3-0.7c-0.6-0.5-0.8-1.1-0.8-1.8c0-0.7,0.3-1.3,0.8-1.8c0.5-0.5,1.4-0.7,2.6-0.7h2.4v-0.3c0-0.7-0.2-1.2-0.6-1.5
				c-0.4-0.4-0.9-0.5-1.7-0.5c-0.5,0-1,0.1-1.5,0.3c-0.5,0.2-0.9,0.4-1.2,0.7l-0.6-1.2c0.4-0.4,1-0.6,1.6-0.8
				C113.4,236.6,114,236.5,114.7,236.5z M114.4,243.9c0.6,0,1.1-0.1,1.5-0.4c0.4-0.3,0.7-0.6,0.9-1.1v-1.2h-2.4c-1.3,0-2,0.4-2,1.3
				c0,0.4,0.2,0.8,0.5,1C113.3,243.8,113.8,243.9,114.4,243.9z M129.3,233.1V245h-1.5v-1.3c-0.3,0.5-0.8,0.8-1.3,1.1
				c-0.5,0.2-1.1,0.4-1.7,0.4c-0.8,0-1.6-0.2-2.2-0.5c-0.7-0.4-1.2-0.9-1.5-1.5c-0.4-0.7-0.5-1.4-0.5-2.3c0-0.9,0.2-1.6,0.5-2.3
				c0.4-0.7,0.9-1.2,1.5-1.5c0.7-0.4,1.4-0.5,2.2-0.5c0.6,0,1.2,0.1,1.7,0.4c0.5,0.2,0.9,0.6,1.3,1v-4.7H129.3z M124.9,243.8
				c0.5,0,1-0.1,1.5-0.4c0.4-0.3,0.8-0.6,1-1.1c0.2-0.5,0.4-1,0.4-1.6c0-0.6-0.1-1.1-0.4-1.6c-0.2-0.5-0.6-0.8-1-1.1
				c-0.4-0.2-0.9-0.4-1.5-0.4c-0.5,0-1,0.1-1.5,0.4c-0.4,0.2-0.8,0.6-1,1.1c-0.2,0.4-0.4,1-0.4,1.6c0,0.6,0.1,1.1,0.4,1.6
				c0.3,0.4,0.6,0.8,1,1.1C123.8,243.7,124.3,243.8,124.9,243.8z M139.5,236.5c1.2,0,2.1,0.3,2.7,0.9c0.6,0.6,0.9,1.4,0.9,2.6v5.1
				h-1.5v-1.1c-0.3,0.4-0.6,0.7-1.1,0.9c-0.5,0.2-1,0.3-1.7,0.3c-0.9,0-1.7-0.2-2.3-0.7c-0.6-0.5-0.8-1.1-0.8-1.8
				c0-0.7,0.3-1.3,0.8-1.8c0.5-0.5,1.4-0.7,2.6-0.7h2.4v-0.3c0-0.7-0.2-1.2-0.6-1.5c-0.4-0.4-0.9-0.5-1.7-0.5c-0.5,0-1,0.1-1.5,0.3
				c-0.5,0.2-0.9,0.4-1.2,0.7l-0.6-1.2c0.4-0.4,1-0.6,1.6-0.8C138.2,236.6,138.9,236.5,139.5,236.5z M139.2,243.9
				c0.6,0,1.1-0.1,1.5-0.4c0.4-0.3,0.7-0.6,0.9-1.1v-1.2h-2.4c-1.3,0-2,0.4-2,1.3c0,0.4,0.2,0.8,0.5,1
				C138.1,243.8,138.6,243.9,139.2,243.9z M150.5,236.5c0.8,0,1.6,0.2,2.2,0.5c0.6,0.4,1.2,0.9,1.5,1.5c0.4,0.7,0.6,1.4,0.6,2.3
				c0,0.9-0.2,1.6-0.6,2.3c-0.4,0.7-0.9,1.2-1.5,1.5c-0.7,0.4-1.4,0.5-2.2,0.5c-0.6,0-1.2-0.1-1.7-0.4c-0.5-0.2-1-0.6-1.3-1.1v1.3
				H146v-11.9h1.5v4.7c0.3-0.4,0.8-0.8,1.3-1C149.3,236.6,149.9,236.5,150.5,236.5z M150.4,243.8c0.5,0,1-0.1,1.5-0.4
				c0.4-0.3,0.8-0.6,1-1.1c0.3-0.5,0.4-1,0.4-1.6c0-0.6-0.1-1.1-0.4-1.6c-0.2-0.5-0.6-0.8-1-1.1c-0.4-0.2-0.9-0.4-1.5-0.4
				c-0.5,0-1,0.1-1.5,0.4c-0.4,0.2-0.8,0.6-1,1.1c-0.2,0.4-0.4,1-0.4,1.6c0,0.6,0.1,1.1,0.4,1.6c0.2,0.4,0.6,0.8,1,1.1
				C149.4,243.7,149.9,243.8,150.4,243.8z M160.6,245.1c-0.8,0-1.6-0.2-2.3-0.6s-1.2-0.9-1.6-1.5c-0.4-0.7-0.6-1.4-0.6-2.2
				s0.2-1.6,0.6-2.2c0.4-0.7,0.9-1.2,1.6-1.5c0.7-0.4,1.4-0.6,2.3-0.6c0.8,0,1.6,0.2,2.3,0.6c0.7,0.4,1.2,0.9,1.6,1.5
				c0.4,0.7,0.6,1.4,0.6,2.2s-0.2,1.6-0.6,2.2c-0.4,0.7-0.9,1.2-1.6,1.5C162.2,244.9,161.4,245.1,160.6,245.1z M160.6,243.8
				c0.5,0,1-0.1,1.5-0.4c0.4-0.3,0.8-0.6,1-1.1c0.2-0.5,0.4-1,0.4-1.6c0-0.6-0.1-1.1-0.4-1.6c-0.2-0.5-0.6-0.8-1-1.1
				c-0.4-0.2-0.9-0.4-1.5-0.4c-0.5,0-1,0.1-1.5,0.4c-0.4,0.2-0.8,0.6-1,1.1c-0.2,0.4-0.4,1-0.4,1.6c0,0.6,0.1,1.1,0.4,1.6
				c0.3,0.4,0.6,0.8,1,1.1C159.5,243.7,160,243.8,160.6,243.8z M175,236.5v8.5h-1.5v-1.3c-0.3,0.4-0.7,0.8-1.2,1
				c-0.5,0.2-1.1,0.4-1.6,0.4c-1.1,0-2-0.3-2.7-0.9c-0.7-0.6-1-1.6-1-2.8v-4.9h1.5v4.7c0,0.8,0.2,1.4,0.6,1.9c0.4,0.4,1,0.6,1.7,0.6
				c0.8,0,1.5-0.2,1.9-0.7c0.5-0.5,0.7-1.2,0.7-2.1v-4.4H175z M182.7,244.5c-0.2,0.2-0.5,0.3-0.8,0.4c-0.3,0.1-0.7,0.1-1,0.1
				c-0.9,0-1.5-0.2-2-0.7c-0.5-0.5-0.7-1.1-0.7-2v-4.7h-1.4v-1.3h1.4v-1.9h1.5v1.9h2.4v1.3h-2.4v4.6c0,0.5,0.1,0.8,0.3,1.1
				c0.2,0.2,0.6,0.4,1,0.4c0.5,0,0.9-0.1,1.2-0.4L182.7,244.5z M193.6,244.5c-0.2,0.2-0.5,0.3-0.8,0.4c-0.3,0.1-0.7,0.1-1,0.1
				c-0.9,0-1.5-0.2-2-0.7c-0.5-0.5-0.7-1.1-0.7-2v-4.7h-1.4v-1.3h1.4v-1.9h1.5v1.9h2.4v1.3h-2.4v4.6c0,0.5,0.1,0.8,0.3,1.1
				c0.2,0.2,0.6,0.4,1,0.4c0.5,0,0.9-0.1,1.2-0.4L193.6,244.5z M200,236.5c1.1,0,1.9,0.3,2.6,0.9c0.6,0.6,1,1.5,1,2.7v4.9H202v-4.7
				c0-0.8-0.2-1.4-0.6-1.9c-0.4-0.4-1-0.6-1.7-0.6c-0.8,0-1.5,0.2-2,0.7c-0.5,0.5-0.7,1.2-0.7,2.1v4.4h-1.5v-11.9h1.5v4.6
				c0.3-0.4,0.7-0.7,1.2-0.9C198.8,236.6,199.3,236.5,200,236.5z M214.1,240.8c0,0.1,0,0.3,0,0.5h-6.9c0.1,0.7,0.4,1.3,1,1.8
				c0.6,0.4,1.3,0.7,2.1,0.7c1,0,1.8-0.3,2.4-1l0.8,1c-0.4,0.4-0.9,0.8-1.4,1c-0.6,0.2-1.2,0.4-1.9,0.4c-0.9,0-1.7-0.2-2.4-0.5
				c-0.7-0.4-1.2-0.9-1.6-1.6c-0.4-0.7-0.6-1.4-0.6-2.2c0-0.8,0.2-1.6,0.5-2.2c0.4-0.7,0.9-1.2,1.5-1.5c0.7-0.4,1.4-0.6,2.2-0.6
				c0.8,0,1.5,0.2,2.2,0.6c0.6,0.4,1.1,0.9,1.5,1.5C213.9,239.2,214.1,240,214.1,240.8z M209.9,237.8c-0.7,0-1.4,0.2-1.9,0.7
				c-0.5,0.4-0.8,1-0.9,1.8h5.4c-0.1-0.7-0.4-1.3-0.9-1.7C211.2,238,210.6,237.8,209.9,237.8z M225,236.5c0.8,0,1.6,0.2,2.2,0.5
				c0.7,0.4,1.2,0.9,1.5,1.5c0.4,0.7,0.6,1.4,0.6,2.3c0,0.9-0.2,1.6-0.6,2.3c-0.4,0.7-0.9,1.2-1.5,1.5c-0.6,0.4-1.4,0.5-2.2,0.5
				c-0.6,0-1.2-0.1-1.7-0.4c-0.5-0.2-1-0.6-1.3-1.1v1.3h-1.5v-11.9h1.5v4.7c0.3-0.4,0.8-0.8,1.3-1C223.8,236.6,224.4,236.5,225,236.5
				z M224.9,243.8c0.5,0,1-0.1,1.5-0.4c0.4-0.3,0.8-0.6,1-1.1c0.3-0.5,0.4-1,0.4-1.6c0-0.6-0.1-1.1-0.4-1.6c-0.2-0.5-0.6-0.8-1-1.1
				c-0.4-0.2-0.9-0.4-1.5-0.4c-0.5,0-1,0.1-1.5,0.4c-0.4,0.2-0.8,0.6-1,1.1c-0.2,0.4-0.4,1-0.4,1.6c0,0.6,0.1,1.1,0.4,1.6
				c0.2,0.4,0.6,0.8,1,1.1C223.8,243.7,224.3,243.8,224.9,243.8z M234.4,236.5c1.2,0,2.1,0.3,2.7,0.9c0.6,0.6,0.9,1.4,0.9,2.6v5.1
				h-1.5v-1.1c-0.3,0.4-0.6,0.7-1.1,0.9c-0.5,0.2-1,0.3-1.7,0.3c-0.9,0-1.7-0.2-2.3-0.7c-0.6-0.5-0.8-1.1-0.8-1.8
				c0-0.7,0.3-1.3,0.8-1.8c0.5-0.5,1.4-0.7,2.6-0.7h2.4v-0.3c0-0.7-0.2-1.2-0.6-1.5c-0.4-0.4-0.9-0.5-1.7-0.5c-0.5,0-1,0.1-1.5,0.3
				c-0.5,0.2-0.9,0.4-1.2,0.7l-0.6-1.2c0.4-0.4,1-0.6,1.6-0.8C233.1,236.6,233.7,236.5,234.4,236.5z M234.1,243.9
				c0.6,0,1.1-0.1,1.5-0.4c0.4-0.3,0.7-0.6,0.9-1.1v-1.2h-2.4c-1.3,0-2,0.4-2,1.3c0,0.4,0.2,0.8,0.5,1
				C233,243.8,233.5,243.9,234.1,243.9z M243.3,245.1c-0.7,0-1.4-0.1-2-0.3c-0.6-0.2-1.1-0.4-1.5-0.7l0.6-1.2
				c0.4,0.3,0.8,0.5,1.4,0.6s1.1,0.2,1.6,0.2c1.3,0,2-0.4,2-1.2c0-0.3-0.1-0.5-0.3-0.6s-0.4-0.3-0.7-0.3c-0.3-0.1-0.7-0.2-1.2-0.2
				c-0.7-0.1-1.2-0.2-1.7-0.4c-0.4-0.1-0.8-0.4-1.1-0.7c-0.3-0.3-0.5-0.8-0.5-1.4c0-0.8,0.3-1.4,1-1.8c0.6-0.5,1.5-0.7,2.6-0.7
				c0.6,0,1.1,0.1,1.7,0.2c0.6,0.1,1,0.3,1.4,0.6l-0.7,1.2c-0.7-0.4-1.5-0.7-2.4-0.7c-0.7,0-1.1,0.1-1.5,0.3
				c-0.3,0.2-0.5,0.5-0.5,0.8c0,0.3,0.1,0.5,0.3,0.7c0.2,0.2,0.4,0.3,0.7,0.4c0.3,0.1,0.7,0.2,1.2,0.3c0.7,0.1,1.2,0.2,1.6,0.4
				c0.4,0.1,0.8,0.4,1.1,0.7c0.3,0.3,0.4,0.8,0.4,1.3c0,0.8-0.3,1.4-1,1.8C245.3,244.9,244.4,245.1,243.3,245.1z M248.9,236.5h1.5
				v8.5h-1.5V236.5z M249.7,234.9c-0.3,0-0.6-0.1-0.8-0.3c-0.2-0.2-0.3-0.4-0.3-0.7c0-0.3,0.1-0.5,0.3-0.7c0.2-0.2,0.5-0.3,0.8-0.3
				c0.3,0,0.5,0.1,0.7,0.3c0.2,0.2,0.3,0.4,0.3,0.7c0,0.3-0.1,0.5-0.3,0.7C250.2,234.8,250,234.9,249.7,234.9z M257.1,245.1
				c-0.9,0-1.6-0.2-2.3-0.6c-0.7-0.4-1.2-0.9-1.6-1.5c-0.4-0.7-0.6-1.4-0.6-2.2s0.2-1.6,0.6-2.2c0.4-0.7,0.9-1.2,1.6-1.5
				c0.7-0.4,1.5-0.6,2.3-0.6c0.8,0,1.5,0.2,2,0.5c0.6,0.3,1.1,0.8,1.4,1.3l-1.2,0.8c-0.3-0.4-0.6-0.7-1-0.9c-0.4-0.2-0.8-0.3-1.3-0.3
				c-0.6,0-1.1,0.1-1.5,0.4c-0.4,0.2-0.8,0.6-1,1.1c-0.2,0.4-0.4,1-0.4,1.6c0,0.6,0.1,1.1,0.4,1.6c0.3,0.4,0.6,0.8,1,1
				c0.4,0.2,1,0.4,1.5,0.4c0.5,0,0.9-0.1,1.3-0.3c0.4-0.2,0.7-0.5,1-0.9l1.2,0.7c-0.3,0.6-0.8,1-1.4,1.4
				C258.5,245,257.8,245.1,257.1,245.1z M264.9,245.1c-0.7,0-1.4-0.1-2-0.3c-0.6-0.2-1.1-0.4-1.5-0.7l0.6-1.2
				c0.4,0.3,0.8,0.5,1.4,0.6s1.1,0.2,1.6,0.2c1.3,0,2-0.4,2-1.2c0-0.3-0.1-0.5-0.3-0.6c-0.2-0.1-0.4-0.3-0.7-0.3
				c-0.3-0.1-0.7-0.2-1.2-0.2c-0.7-0.1-1.2-0.2-1.7-0.4c-0.4-0.1-0.8-0.4-1.1-0.7c-0.3-0.3-0.5-0.8-0.5-1.4c0-0.8,0.3-1.4,1-1.8
				c0.6-0.5,1.5-0.7,2.6-0.7c0.6,0,1.1,0.1,1.7,0.2c0.6,0.1,1,0.3,1.4,0.6l-0.7,1.2c-0.7-0.4-1.5-0.7-2.4-0.7c-0.7,0-1.1,0.1-1.5,0.3
				c-0.3,0.2-0.5,0.5-0.5,0.8c0,0.3,0.1,0.5,0.3,0.7c0.2,0.2,0.4,0.3,0.7,0.4c0.3,0.1,0.7,0.2,1.2,0.3c0.7,0.1,1.2,0.2,1.6,0.4
				c0.4,0.1,0.8,0.4,1.1,0.7c0.3,0.3,0.4,0.8,0.4,1.3c0,0.8-0.3,1.4-1,1.8C267,244.9,266.1,245.1,264.9,245.1z"/>
			<path fill="#5095FF" d="M279.3,236.5c1.1,0,1.9,0.3,2.6,0.9c0.6,0.6,1,1.5,1,2.7v4.9h-1.5v-4.7c0-0.8-0.2-1.4-0.6-1.9
				c-0.4-0.4-1-0.6-1.7-0.6c-0.8,0-1.5,0.2-2,0.7c-0.5,0.5-0.7,1.2-0.7,2.1v4.4h-1.5v-11.9h1.5v4.6c0.3-0.4,0.7-0.7,1.2-0.9
				C278.1,236.6,278.7,236.5,279.3,236.5z M293.4,240.8c0,0.1,0,0.3,0,0.5h-6.9c0.1,0.7,0.4,1.3,1,1.8c0.6,0.4,1.3,0.7,2.1,0.7
				c1,0,1.8-0.3,2.4-1l0.8,1c-0.4,0.4-0.9,0.8-1.4,1c-0.6,0.2-1.2,0.4-1.9,0.4c-0.9,0-1.7-0.2-2.4-0.5c-0.7-0.4-1.2-0.9-1.6-1.6
				c-0.4-0.7-0.6-1.4-0.6-2.2c0-0.8,0.2-1.6,0.5-2.2c0.4-0.7,0.9-1.2,1.5-1.5c0.7-0.4,1.4-0.6,2.2-0.6s1.5,0.2,2.2,0.6
				c0.6,0.4,1.1,0.9,1.5,1.5C293.2,239.2,293.4,240,293.4,240.8z M289.2,237.8c-0.7,0-1.4,0.2-1.9,0.7c-0.5,0.4-0.8,1-0.9,1.8h5.4
				c-0.1-0.7-0.4-1.3-0.9-1.7C290.6,238,290,237.8,289.2,237.8z M297,238c0.3-0.5,0.7-0.9,1.2-1.1c0.5-0.3,1.2-0.4,1.9-0.4v1.5
				c-0.1,0-0.2,0-0.4,0c-0.8,0-1.5,0.3-2,0.8c-0.5,0.5-0.7,1.2-0.7,2.1v4.2h-1.5v-8.5h1.5V238z M309.6,240.8c0,0.1,0,0.3,0,0.5h-6.9
				c0.1,0.7,0.4,1.3,1,1.8c0.6,0.4,1.3,0.7,2.1,0.7c1,0,1.8-0.3,2.4-1l0.8,1c-0.4,0.4-0.9,0.8-1.4,1c-0.6,0.2-1.2,0.4-1.9,0.4
				c-0.9,0-1.7-0.2-2.4-0.5c-0.7-0.4-1.2-0.9-1.6-1.6c-0.4-0.7-0.6-1.4-0.6-2.2c0-0.8,0.2-1.6,0.5-2.2c0.4-0.7,0.9-1.2,1.5-1.5
				c0.7-0.4,1.4-0.6,2.2-0.6c0.8,0,1.5,0.2,2.2,0.6c0.6,0.4,1.1,0.9,1.5,1.5C309.4,239.2,309.6,240,309.6,240.8z M305.4,237.8
				c-0.7,0-1.4,0.2-1.9,0.7c-0.5,0.4-0.8,1-0.9,1.8h5.4c-0.1-0.7-0.4-1.3-0.9-1.7C306.7,238,306.1,237.8,305.4,237.8z"/>
			<path fill="#5095FF" d="M273.4,246.6h36.9v0.8h-36.9V246.6z"/>
		</g>
		<g class="topic_text">
			<path id="What_is_â_x80__x9C_Covid_19_x22__x3F__How_does_Covid_spread_x3F__How_Can_I_protect_myself_from_Covid_x3F_" fill="#F79FA8" d="
			M134.6,119.8l-3.7,11.2h-2.8l-2.5-7.6l-2.5,7.6h-2.8l-3.7-11.2h2.7l2.5,7.9l2.6-7.9h2.4l2.6,7.9l2.6-7.9H134.6z M141.3,122.3
			c1.1,0,1.9,0.3,2.6,1c0.7,0.6,1,1.6,1,2.8v4.9h-2.5v-4.5c0-0.7-0.1-1.2-0.4-1.5c-0.3-0.3-0.7-0.5-1.3-0.5c-0.6,0-1.1,0.2-1.5,0.6
			c-0.4,0.4-0.6,1-0.6,1.7v4.3h-2.5v-11.9h2.5v4.2c0.3-0.3,0.7-0.6,1.2-0.8C140.2,122.4,140.7,122.3,141.3,122.3z M150.6,122.3
			c1.3,0,2.4,0.3,3.1,1c0.7,0.6,1.1,1.6,1.1,2.9v4.9h-2.3v-1.1c-0.5,0.8-1.3,1.2-2.6,1.2c-0.7,0-1.2-0.1-1.7-0.3
			c-0.5-0.2-0.8-0.5-1.1-0.9c-0.3-0.4-0.4-0.8-0.4-1.3c0-0.8,0.3-1.4,0.9-1.9c0.6-0.5,1.5-0.7,2.8-0.7h2c0-0.5-0.2-1-0.5-1.2
			c-0.3-0.3-0.8-0.4-1.5-0.4c-0.5,0-0.9,0.1-1.4,0.2c-0.4,0.1-0.8,0.3-1.1,0.6l-0.9-1.7c0.5-0.3,1-0.6,1.7-0.8
			C149.2,122.4,149.9,122.3,150.6,122.3z M150.4,129.5c0.4,0,0.8-0.1,1.1-0.3c0.3-0.2,0.6-0.5,0.7-0.9v-0.9h-1.7c-1,0-1.5,0.3-1.5,1
			c0,0.3,0.1,0.6,0.4,0.8C149.6,129.4,150,129.5,150.4,129.5z M162.5,130.6c-0.2,0.2-0.6,0.3-0.9,0.4c-0.4,0.1-0.7,0.1-1.1,0.1
			c-1,0-1.8-0.3-2.4-0.8c-0.6-0.5-0.8-1.3-0.8-2.3v-3.5H156v-1.9h1.3v-2.1h2.5v2.1h2.1v1.9h-2.1v3.5c0,0.4,0.1,0.6,0.3,0.8
			c0.2,0.2,0.5,0.3,0.8,0.3c0.4,0,0.7-0.1,1-0.3L162.5,130.6z M168.5,122.4h2.5v8.6h-2.5V122.4z M169.7,121.2c-0.5,0-0.8-0.1-1.1-0.4
			s-0.4-0.6-0.4-1c0-0.4,0.1-0.7,0.4-1s0.7-0.4,1.1-0.4s0.8,0.1,1.1,0.4c0.3,0.3,0.4,0.6,0.4,1c0,0.4-0.1,0.8-0.4,1
			C170.6,121.1,170.2,121.2,169.7,121.2z M176.2,131.1c-0.7,0-1.4-0.1-2.1-0.3c-0.7-0.2-1.2-0.4-1.6-0.7l0.8-1.8
			c0.4,0.2,0.8,0.4,1.4,0.6c0.5,0.1,1.1,0.2,1.6,0.2c1.1,0,1.6-0.3,1.6-0.8c0-0.2-0.1-0.4-0.4-0.5c-0.3-0.1-0.7-0.2-1.3-0.3
			c-0.7-0.1-1.3-0.2-1.7-0.4c-0.5-0.1-0.9-0.4-1.2-0.7c-0.3-0.4-0.5-0.9-0.5-1.5c0-0.5,0.2-1,0.5-1.4c0.3-0.4,0.8-0.8,1.4-1
			c0.6-0.2,1.3-0.4,2.1-0.4c0.6,0,1.2,0.1,1.8,0.2c0.6,0.1,1.1,0.3,1.5,0.5l-0.8,1.8c-0.8-0.4-1.6-0.6-2.5-0.6
			c-0.5,0-0.9,0.1-1.2,0.2c-0.3,0.1-0.4,0.3-0.4,0.6c0,0.3,0.1,0.5,0.4,0.6c0.3,0.1,0.7,0.2,1.4,0.3c0.7,0.1,1.3,0.2,1.7,0.4
			c0.4,0.1,0.8,0.4,1.2,0.7c0.3,0.4,0.5,0.8,0.5,1.5c0,0.5-0.2,1-0.5,1.4c-0.3,0.4-0.8,0.7-1.4,1C177.8,131,177,131.1,176.2,131.1z
			 M188,121.7c0.3,0.1,0.5,0.3,0.6,0.5c0.1,0.2,0.2,0.5,0.2,0.8c0,0.5-0.1,0.8-0.4,1.1c-0.3,0.3-0.7,0.4-1.1,0.4s-0.8-0.1-1.1-0.4
			c-0.3-0.3-0.4-0.7-0.4-1.1c0-0.2,0-0.4,0.1-0.6c0.1-0.2,0.2-0.5,0.4-1l0.9-2.3h1.6L188,121.7z M191.7,121.7
			c0.3,0.1,0.5,0.3,0.6,0.5c0.1,0.2,0.2,0.5,0.2,0.8c0,0.5-0.1,0.8-0.4,1.1c-0.3,0.3-0.7,0.4-1.1,0.4c-0.4,0-0.8-0.1-1.1-0.4
			c-0.3-0.3-0.4-0.7-0.4-1.1c0-0.2,0-0.4,0.1-0.6c0.1-0.2,0.2-0.5,0.4-1l0.9-2.3h1.6L191.7,121.7z M199.8,131.2
			c-1.1,0-2.2-0.2-3.1-0.7c-0.9-0.5-1.6-1.2-2.2-2.1c-0.5-0.9-0.8-1.9-0.8-3s0.3-2.1,0.8-3c0.5-0.9,1.3-1.6,2.2-2.1
			c0.9-0.5,2-0.8,3.1-0.8c1,0,1.8,0.2,2.6,0.5c0.8,0.3,1.5,0.8,2,1.5l-1.7,1.5c-0.8-0.9-1.7-1.3-2.8-1.3c-0.7,0-1.3,0.2-1.9,0.5
			c-0.5,0.3-1,0.7-1.3,1.3c-0.3,0.5-0.4,1.2-0.4,1.9s0.1,1.3,0.4,1.9c0.3,0.5,0.7,1,1.3,1.3c0.5,0.3,1.2,0.4,1.9,0.4
			c1.1,0,2.1-0.4,2.8-1.3l1.7,1.5c-0.5,0.7-1.2,1.1-2,1.5C201.7,131,200.8,131.2,199.8,131.2z M209.8,131.1c-0.9,0-1.7-0.2-2.4-0.6
			c-0.7-0.4-1.3-0.9-1.7-1.6c-0.4-0.7-0.6-1.4-0.6-2.3s0.2-1.6,0.6-2.3c0.4-0.7,1-1.2,1.7-1.6c0.7-0.4,1.5-0.6,2.4-0.6
			s1.7,0.2,2.4,0.6c0.7,0.4,1.3,0.9,1.7,1.6c0.4,0.7,0.6,1.4,0.6,2.3s-0.2,1.6-0.6,2.3c-0.4,0.7-1,1.2-1.7,1.6
			C211.5,131,210.7,131.1,209.8,131.1z M209.8,129.1c0.6,0,1.2-0.2,1.6-0.6c0.4-0.4,0.6-1,0.6-1.7c0-0.7-0.2-1.3-0.6-1.7
			c-0.4-0.4-0.9-0.7-1.6-0.7s-1.2,0.2-1.6,0.7c-0.4,0.4-0.6,1-0.6,1.7c0,0.7,0.2,1.3,0.6,1.7C208.7,128.9,209.2,129.1,209.8,129.1z
			 M224.5,122.4l-3.6,8.6h-2.6l-3.6-8.6h2.6l2.4,5.9l2.5-5.9H224.5z M225.5,122.4h2.5v8.6h-2.5V122.4z M226.8,121.2
			c-0.5,0-0.8-0.1-1.1-0.4c-0.3-0.3-0.4-0.6-0.4-1c0-0.4,0.1-0.7,0.4-1c0.3-0.3,0.7-0.4,1.1-0.4c0.5,0,0.8,0.1,1.1,0.4
			c0.3,0.3,0.4,0.6,0.4,1c0,0.4-0.1,0.8-0.4,1C227.6,121.1,227.2,121.2,226.8,121.2z M239.1,119.1V131h-2.4v-1
			c-0.6,0.7-1.5,1.1-2.7,1.1c-0.8,0-1.5-0.2-2.2-0.5c-0.7-0.4-1.2-0.9-1.5-1.6c-0.4-0.7-0.6-1.5-0.6-2.3s0.2-1.7,0.6-2.3
			c0.4-0.7,0.9-1.2,1.5-1.6c0.7-0.4,1.4-0.5,2.2-0.5c1.1,0,2,0.3,2.6,1v-4.2H239.1z M234.5,129.1c0.6,0,1.2-0.2,1.6-0.6
			c0.4-0.4,0.6-1,0.6-1.7c0-0.7-0.2-1.3-0.6-1.7c-0.4-0.4-0.9-0.7-1.6-0.7c-0.6,0-1.2,0.2-1.6,0.7c-0.4,0.4-0.6,1-0.6,1.7
			c0,0.7,0.2,1.3,0.6,1.7C233.3,128.9,233.8,129.1,234.5,129.1z M249.8,119.8V131h-2.6v-9.1h-2.2v-2.1H249.8z M255.6,119.6
			c1.6,0,2.8,0.5,3.7,1.4c0.9,0.9,1.3,2.3,1.3,4.1c0,1.3-0.2,2.4-0.7,3.3c-0.5,0.9-1.1,1.6-2,2.1c-0.9,0.5-1.9,0.7-3,0.7
			c-0.6,0-1.2-0.1-1.7-0.2c-0.5-0.1-1-0.3-1.4-0.6l1-1.9c0.5,0.4,1.2,0.6,2.1,0.6c0.9,0,1.7-0.3,2.3-0.8c0.6-0.6,0.9-1.4,0.9-2.4
			c-0.7,0.7-1.6,1-2.8,1c-0.7,0-1.4-0.1-2-0.4s-1.1-0.7-1.4-1.2c-0.3-0.5-0.5-1.1-0.5-1.8c0-0.7,0.2-1.4,0.6-2c0.4-0.6,0.9-1,1.5-1.3
			C254.1,119.8,254.8,119.6,255.6,119.6z M255.8,124.9c0.6,0,1-0.2,1.4-0.5c0.4-0.3,0.5-0.7,0.5-1.2s-0.2-0.9-0.5-1.2
			c-0.3-0.3-0.8-0.5-1.4-0.5c-0.6,0-1,0.1-1.4,0.4c-0.3,0.3-0.5,0.7-0.5,1.2s0.2,0.9,0.5,1.2C254.8,124.8,255.3,124.9,255.8,124.9z
			 M262.1,119.8h2.1l-0.2,4.5h-1.8L262.1,119.8z M265.4,119.8h2.1l-0.2,4.5h-1.8L265.4,119.8z M272.2,127.1c0-0.6,0.1-1,0.4-1.4
			c0.3-0.4,0.6-0.8,1.1-1.2c0.4-0.3,0.6-0.6,0.8-0.8c0.2-0.2,0.3-0.5,0.3-0.8c0-0.4-0.2-0.7-0.5-0.9c-0.3-0.2-0.7-0.4-1.2-0.4
			c-0.5,0-0.9,0.1-1.3,0.3c-0.4,0.2-0.7,0.5-1,0.9l-1.9-1.1c0.4-0.7,1.1-1.2,1.8-1.6c0.8-0.4,1.7-0.6,2.7-0.6c1.2,0,2.2,0.3,2.9,0.8
			c0.7,0.5,1.1,1.2,1.1,2.2c0,0.4-0.1,0.8-0.2,1.2c-0.1,0.3-0.3,0.6-0.5,0.8c-0.2,0.2-0.5,0.5-0.8,0.8c-0.4,0.4-0.7,0.7-0.9,0.9
			c-0.2,0.2-0.3,0.5-0.3,0.9H272.2z M273.4,131.1c-0.4,0-0.8-0.1-1.1-0.4c-0.3-0.3-0.4-0.6-0.4-1c0-0.4,0.1-0.7,0.4-1
			c0.3-0.3,0.7-0.4,1.1-0.4s0.8,0.1,1.1,0.4c0.3,0.3,0.4,0.6,0.4,1c0,0.4-0.1,0.8-0.4,1C274.2,131,273.9,131.1,273.4,131.1z
			 M108.3,143.8V155h-2.6v-4.6h-5.1v4.6H98v-11.2h2.6v4.4h5.1v-4.4H108.3z M114.8,155.1c-0.9,0-1.7-0.2-2.4-0.6
			c-0.7-0.4-1.3-0.9-1.7-1.6c-0.4-0.7-0.6-1.4-0.6-2.3c0-0.9,0.2-1.6,0.6-2.3c0.4-0.7,1-1.2,1.7-1.6c0.7-0.4,1.5-0.6,2.4-0.6
			s1.7,0.2,2.4,0.6c0.7,0.4,1.3,0.9,1.7,1.6s0.6,1.4,0.6,2.3c0,0.9-0.2,1.6-0.6,2.3c-0.4,0.7-1,1.2-1.7,1.6
			C116.6,155,115.7,155.1,114.8,155.1z M114.8,153.1c0.6,0,1.2-0.2,1.6-0.6c0.4-0.4,0.6-1,0.6-1.7c0-0.7-0.2-1.3-0.6-1.7
			c-0.4-0.4-0.9-0.7-1.6-0.7s-1.2,0.2-1.6,0.7c-0.4,0.4-0.6,1-0.6,1.7c0,0.7,0.2,1.3,0.6,1.7C113.7,152.9,114.2,153.1,114.8,153.1z
			 M134.8,146.4l-3.1,8.6h-2.4l-1.9-5.3l-2,5.3H123l-3.1-8.6h2.4l2,5.8l2.1-5.8h2.1l2,5.8l2.1-5.8H134.8z M149.3,143.1V155h-2.4v-1
			c-0.6,0.7-1.5,1.1-2.7,1.1c-0.8,0-1.5-0.2-2.2-0.5c-0.7-0.4-1.2-0.9-1.5-1.6c-0.4-0.7-0.6-1.5-0.6-2.3c0-0.9,0.2-1.7,0.6-2.3
			c0.4-0.7,0.9-1.2,1.5-1.6c0.7-0.4,1.4-0.5,2.2-0.5c1.1,0,2,0.3,2.6,1v-4.2H149.3z M144.6,153.1c0.6,0,1.2-0.2,1.6-0.6
			c0.4-0.4,0.6-1,0.6-1.7c0-0.7-0.2-1.3-0.6-1.7c-0.4-0.4-0.9-0.7-1.6-0.7c-0.6,0-1.2,0.2-1.6,0.7c-0.4,0.4-0.6,1-0.6,1.7
			c0,0.7,0.2,1.3,0.6,1.7C143.5,152.9,144,153.1,144.6,153.1z M155.7,155.1c-0.9,0-1.7-0.2-2.4-0.6c-0.7-0.4-1.3-0.9-1.7-1.6
			c-0.4-0.7-0.6-1.4-0.6-2.3c0-0.9,0.2-1.6,0.6-2.3c0.4-0.7,1-1.2,1.7-1.6c0.7-0.4,1.5-0.6,2.4-0.6c0.9,0,1.7,0.2,2.4,0.6
			c0.7,0.4,1.3,0.9,1.7,1.6c0.4,0.7,0.6,1.4,0.6,2.3c0,0.9-0.2,1.6-0.6,2.3c-0.4,0.7-1,1.2-1.7,1.6
			C157.4,155,156.6,155.1,155.7,155.1z M155.7,153.1c0.6,0,1.2-0.2,1.6-0.6c0.4-0.4,0.6-1,0.6-1.7c0-0.7-0.2-1.3-0.6-1.7
			c-0.4-0.4-0.9-0.7-1.6-0.7s-1.2,0.2-1.6,0.7c-0.4,0.4-0.6,1-0.6,1.7c0,0.7,0.2,1.3,0.6,1.7C154.5,152.9,155,153.1,155.7,153.1z
			 M170.5,150.7c0,0,0,0.3,0,0.7h-6.5c0.1,0.5,0.4,1,0.8,1.3c0.4,0.3,1,0.5,1.6,0.5c0.4,0,0.8-0.1,1.2-0.2c0.4-0.1,0.7-0.4,1-0.6
			l1.3,1.4c-0.8,0.9-2,1.4-3.6,1.4c-1,0-1.8-0.2-2.6-0.6c-0.7-0.4-1.3-0.9-1.7-1.6c-0.4-0.7-0.6-1.4-0.6-2.3c0-0.8,0.2-1.6,0.6-2.3
			c0.4-0.7,1-1.2,1.6-1.6c0.7-0.4,1.5-0.6,2.4-0.6c0.8,0,1.6,0.2,2.3,0.5c0.7,0.4,1.2,0.9,1.6,1.6
			C170.3,149.1,170.5,149.9,170.5,150.7z M166,148.2c-0.6,0-1,0.2-1.4,0.5s-0.6,0.8-0.7,1.3h4.2c-0.1-0.5-0.3-1-0.7-1.3
			C167.1,148.3,166.6,148.2,166,148.2z M175.1,155.1c-0.7,0-1.4-0.1-2.1-0.3c-0.7-0.2-1.2-0.4-1.6-0.7l0.8-1.8
			c0.4,0.2,0.8,0.4,1.4,0.6c0.5,0.1,1.1,0.2,1.6,0.2c1.1,0,1.6-0.3,1.6-0.8c0-0.2-0.1-0.4-0.4-0.5c-0.3-0.1-0.7-0.2-1.3-0.3
			c-0.7-0.1-1.3-0.2-1.7-0.4c-0.5-0.1-0.9-0.4-1.2-0.7c-0.3-0.4-0.5-0.9-0.5-1.5c0-0.5,0.2-1,0.5-1.4c0.3-0.4,0.8-0.8,1.4-1
			c0.6-0.2,1.3-0.4,2.1-0.4c0.6,0,1.2,0.1,1.8,0.2c0.6,0.1,1.1,0.3,1.5,0.5l-0.8,1.8c-0.8-0.4-1.6-0.6-2.5-0.6
			c-0.5,0-0.9,0.1-1.2,0.2c-0.3,0.1-0.4,0.3-0.4,0.6c0,0.3,0.1,0.5,0.4,0.6c0.3,0.1,0.7,0.2,1.4,0.3c0.7,0.1,1.3,0.2,1.7,0.4
			c0.4,0.1,0.8,0.4,1.2,0.7c0.3,0.4,0.5,0.8,0.5,1.5c0,0.5-0.2,1-0.5,1.4c-0.3,0.4-0.8,0.7-1.4,1C176.6,155,175.9,155.1,175.1,155.1z
			 M190.7,155.2c-1.1,0-2.2-0.2-3.1-0.7c-0.9-0.5-1.6-1.2-2.2-2.1c-0.5-0.9-0.8-1.9-0.8-3c0-1.1,0.3-2.1,0.8-3
			c0.5-0.9,1.3-1.6,2.2-2.1c0.9-0.5,2-0.8,3.1-0.8c1,0,1.8,0.2,2.6,0.5c0.8,0.3,1.5,0.8,2,1.5l-1.7,1.5c-0.8-0.9-1.7-1.3-2.8-1.3
			c-0.7,0-1.3,0.2-1.9,0.5c-0.5,0.3-1,0.7-1.3,1.3c-0.3,0.5-0.4,1.2-0.4,1.9c0,0.7,0.1,1.3,0.4,1.9c0.3,0.5,0.7,1,1.3,1.3
			c0.5,0.3,1.2,0.4,1.9,0.4c1.1,0,2.1-0.4,2.8-1.3l1.7,1.5c-0.5,0.7-1.2,1.1-2,1.5S191.7,155.2,190.7,155.2z M200.7,155.1
			c-0.9,0-1.7-0.2-2.4-0.6c-0.7-0.4-1.3-0.9-1.7-1.6c-0.4-0.7-0.6-1.4-0.6-2.3c0-0.9,0.2-1.6,0.6-2.3c0.4-0.7,1-1.2,1.7-1.6
			c0.7-0.4,1.5-0.6,2.4-0.6c0.9,0,1.7,0.2,2.4,0.6c0.7,0.4,1.3,0.9,1.7,1.6c0.4,0.7,0.6,1.4,0.6,2.3c0,0.9-0.2,1.6-0.6,2.3
			c-0.4,0.7-1,1.2-1.7,1.6C202.4,155,201.6,155.1,200.7,155.1z M200.7,153.1c0.6,0,1.2-0.2,1.6-0.6c0.4-0.4,0.6-1,0.6-1.7
			c0-0.7-0.2-1.3-0.6-1.7c-0.4-0.4-0.9-0.7-1.6-0.7s-1.2,0.2-1.6,0.7c-0.4,0.4-0.6,1-0.6,1.7c0,0.7,0.2,1.3,0.6,1.7
			C199.6,152.9,200.1,153.1,200.7,153.1z M215.4,146.4l-3.6,8.6h-2.6l-3.6-8.6h2.6l2.4,5.9l2.5-5.9H215.4z M216.4,146.4h2.5v8.6h-2.5
			V146.4z M217.7,145.2c-0.5,0-0.8-0.1-1.1-0.4s-0.4-0.6-0.4-1s0.1-0.7,0.4-1s0.7-0.4,1.1-0.4s0.8,0.1,1.1,0.4c0.3,0.3,0.4,0.6,0.4,1
			c0,0.4-0.1,0.8-0.4,1C218.5,145.1,218.1,145.2,217.7,145.2z M230,143.1V155h-2.4v-1c-0.6,0.7-1.5,1.1-2.7,1.1
			c-0.8,0-1.5-0.2-2.2-0.5c-0.7-0.4-1.2-0.9-1.5-1.6c-0.4-0.7-0.6-1.5-0.6-2.3c0-0.9,0.2-1.7,0.6-2.3c0.4-0.7,0.9-1.2,1.5-1.6
			c0.7-0.4,1.4-0.5,2.2-0.5c1.1,0,2,0.3,2.6,1v-4.2H230z M225.4,153.1c0.6,0,1.2-0.2,1.6-0.6c0.4-0.4,0.6-1,0.6-1.7
			c0-0.7-0.2-1.3-0.6-1.7c-0.4-0.4-0.9-0.7-1.6-0.7c-0.6,0-1.2,0.2-1.6,0.7c-0.4,0.4-0.6,1-0.6,1.7c0,0.7,0.2,1.3,0.6,1.7
			C224.2,152.9,224.7,153.1,225.4,153.1z M239.8,155.1c-0.7,0-1.4-0.1-2.1-0.3c-0.7-0.2-1.2-0.4-1.6-0.7l0.8-1.8
			c0.4,0.2,0.8,0.4,1.4,0.6c0.5,0.1,1.1,0.2,1.6,0.2c1.1,0,1.6-0.3,1.6-0.8c0-0.2-0.1-0.4-0.4-0.5c-0.3-0.1-0.7-0.2-1.3-0.3
			c-0.7-0.1-1.3-0.2-1.7-0.4c-0.5-0.1-0.9-0.4-1.2-0.7c-0.3-0.4-0.5-0.9-0.5-1.5c0-0.5,0.2-1,0.5-1.4c0.3-0.4,0.8-0.8,1.4-1
			c0.6-0.2,1.3-0.4,2.1-0.4c0.6,0,1.2,0.1,1.8,0.2c0.6,0.1,1.1,0.3,1.5,0.5l-0.8,1.8c-0.8-0.4-1.6-0.6-2.5-0.6
			c-0.5,0-0.9,0.1-1.2,0.2s-0.4,0.3-0.4,0.6c0,0.3,0.1,0.5,0.4,0.6c0.3,0.1,0.7,0.2,1.4,0.3c0.7,0.1,1.3,0.2,1.7,0.4
			c0.4,0.1,0.8,0.4,1.2,0.7c0.3,0.4,0.5,0.8,0.5,1.5c0,0.5-0.2,1-0.5,1.4c-0.3,0.4-0.8,0.7-1.4,1C241.3,155,240.6,155.1,239.8,155.1z
			 M250.5,146.3c0.8,0,1.5,0.2,2.2,0.6c0.7,0.4,1.2,0.9,1.6,1.6c0.4,0.7,0.6,1.4,0.6,2.3c0,0.9-0.2,1.7-0.6,2.3
			c-0.4,0.7-0.9,1.2-1.6,1.6c-0.7,0.4-1.4,0.5-2.2,0.5c-1.1,0-2-0.3-2.6-1v4h-2.5v-11.7h2.4v1C248.4,146.7,249.3,146.3,250.5,146.3z
			 M250,153.1c0.6,0,1.2-0.2,1.6-0.6c0.4-0.4,0.6-1,0.6-1.7c0-0.7-0.2-1.3-0.6-1.7c-0.4-0.4-0.9-0.7-1.6-0.7s-1.2,0.2-1.6,0.7
			c-0.4,0.4-0.6,1-0.6,1.7c0,0.7,0.2,1.3,0.6,1.7C248.9,152.9,249.4,153.1,250,153.1z M258.8,147.5c0.3-0.4,0.7-0.7,1.2-0.9
			c0.5-0.2,1.1-0.3,1.8-0.3v2.3c-0.3,0-0.5,0-0.6,0c-0.7,0-1.3,0.2-1.7,0.6c-0.4,0.4-0.6,1-0.6,1.8v4.1h-2.5v-8.6h2.4V147.5z
			 M271.6,150.7c0,0,0,0.3,0,0.7H265c0.1,0.5,0.4,1,0.8,1.3c0.4,0.3,1,0.5,1.6,0.5c0.4,0,0.8-0.1,1.2-0.2c0.4-0.1,0.7-0.4,1-0.6
			l1.3,1.4c-0.8,0.9-2,1.4-3.6,1.4c-1,0-1.8-0.2-2.6-0.6c-0.7-0.4-1.3-0.9-1.7-1.6c-0.4-0.7-0.6-1.4-0.6-2.3c0-0.8,0.2-1.6,0.6-2.3
			c0.4-0.7,1-1.2,1.6-1.6c0.7-0.4,1.5-0.6,2.4-0.6c0.8,0,1.6,0.2,2.3,0.5c0.7,0.4,1.2,0.9,1.6,1.6
			C271.4,149.1,271.6,149.9,271.6,150.7z M267.1,148.2c-0.6,0-1,0.2-1.4,0.5c-0.4,0.3-0.6,0.8-0.7,1.3h4.2c-0.1-0.5-0.3-1-0.7-1.3
			C268.2,148.3,267.7,148.2,267.1,148.2z M276.5,146.3c1.3,0,2.4,0.3,3.1,1c0.7,0.6,1.1,1.6,1.1,2.9v4.9h-2.3v-1.1
			c-0.5,0.8-1.3,1.2-2.6,1.2c-0.7,0-1.2-0.1-1.7-0.3c-0.5-0.2-0.8-0.5-1.1-0.9c-0.3-0.4-0.4-0.8-0.4-1.3c0-0.8,0.3-1.4,0.9-1.9
			c0.6-0.5,1.5-0.7,2.8-0.7h2c0-0.5-0.2-1-0.5-1.2c-0.3-0.3-0.8-0.4-1.5-0.4c-0.5,0-0.9,0.1-1.4,0.2c-0.4,0.1-0.8,0.3-1.1,0.6
			l-0.9-1.7c0.5-0.3,1-0.6,1.7-0.8C275.1,146.4,275.8,146.3,276.5,146.3z M276.3,153.5c0.4,0,0.8-0.1,1.1-0.3
			c0.3-0.2,0.6-0.5,0.7-0.9v-0.9h-1.7c-1,0-1.5,0.3-1.5,1c0,0.3,0.1,0.6,0.4,0.8C275.5,153.4,275.9,153.5,276.3,153.5z M291.8,143.1
			V155h-2.4v-1c-0.6,0.7-1.5,1.1-2.7,1.1c-0.8,0-1.5-0.2-2.2-0.5c-0.7-0.4-1.2-0.9-1.5-1.6c-0.4-0.7-0.6-1.5-0.6-2.3
			c0-0.9,0.2-1.7,0.6-2.3c0.4-0.7,0.9-1.2,1.5-1.6c0.7-0.4,1.4-0.5,2.2-0.5c1.1,0,2,0.3,2.6,1v-4.2H291.8z M287.1,153.1
			c0.6,0,1.2-0.2,1.6-0.6c0.4-0.4,0.6-1,0.6-1.7c0-0.7-0.2-1.3-0.6-1.7c-0.4-0.4-0.9-0.7-1.6-0.7c-0.6,0-1.2,0.2-1.6,0.7
			c-0.4,0.4-0.6,1-0.6,1.7c0,0.7,0.2,1.3,0.6,1.7C285.9,152.9,286.5,153.1,287.1,153.1z M296.4,151.1c0-0.6,0.1-1,0.4-1.4
			c0.3-0.4,0.6-0.8,1.1-1.2c0.4-0.3,0.6-0.6,0.8-0.8c0.2-0.2,0.3-0.5,0.3-0.8c0-0.4-0.2-0.7-0.5-0.9c-0.3-0.2-0.7-0.4-1.2-0.4
			c-0.5,0-0.9,0.1-1.3,0.3c-0.4,0.2-0.7,0.5-1,0.9l-1.9-1.1c0.4-0.7,1.1-1.2,1.8-1.6c0.8-0.4,1.7-0.6,2.7-0.6c1.2,0,2.2,0.3,2.9,0.8
			c0.7,0.5,1.1,1.2,1.1,2.2c0,0.4-0.1,0.8-0.2,1.2c-0.1,0.3-0.3,0.6-0.5,0.8c-0.2,0.2-0.5,0.5-0.8,0.8c-0.4,0.4-0.7,0.7-0.9,0.9
			c-0.2,0.2-0.3,0.5-0.3,0.9H296.4z M297.6,155.1c-0.4,0-0.8-0.1-1.1-0.4c-0.3-0.3-0.4-0.6-0.4-1c0-0.4,0.1-0.7,0.4-1
			c0.3-0.3,0.7-0.4,1.1-0.4s0.8,0.1,1.1,0.4c0.3,0.3,0.4,0.6,0.4,1c0,0.4-0.1,0.8-0.4,1C298.4,155,298,155.1,297.6,155.1z
			 M105.4,167.8V179h-2.6v-4.6h-5.1v4.6h-2.6v-11.2h2.6v4.4h5.1v-4.4H105.4z M112,179.1c-0.9,0-1.7-0.2-2.4-0.6
			c-0.7-0.4-1.3-0.9-1.7-1.6c-0.4-0.7-0.6-1.4-0.6-2.3s0.2-1.6,0.6-2.3c0.4-0.7,1-1.2,1.7-1.6c0.7-0.4,1.5-0.6,2.4-0.6
			c0.9,0,1.7,0.2,2.4,0.6c0.7,0.4,1.3,0.9,1.7,1.6c0.4,0.7,0.6,1.4,0.6,2.3s-0.2,1.6-0.6,2.3c-0.4,0.7-1,1.2-1.7,1.6
			C113.7,179,112.9,179.1,112,179.1z M112,177.1c0.6,0,1.2-0.2,1.6-0.6c0.4-0.4,0.6-1,0.6-1.7s-0.2-1.3-0.6-1.7
			c-0.4-0.4-0.9-0.7-1.6-0.7s-1.2,0.2-1.6,0.7c-0.4,0.4-0.6,1-0.6,1.7s0.2,1.3,0.6,1.7C110.8,176.9,111.3,177.1,112,177.1z
			 M132,170.4l-3.1,8.6h-2.4l-1.9-5.3l-2,5.3h-2.4l-3.1-8.6h2.4l2,5.8l2.1-5.8h2.1l2,5.8l2.1-5.8H132z M143.2,179.2
			c-1.1,0-2.2-0.2-3.1-0.7c-0.9-0.5-1.6-1.2-2.2-2.1c-0.5-0.9-0.8-1.9-0.8-3c0-1.1,0.3-2.1,0.8-3c0.5-0.9,1.3-1.6,2.2-2.1
			c0.9-0.5,2-0.8,3.1-0.8c1,0,1.8,0.2,2.6,0.5c0.8,0.3,1.5,0.8,2,1.5l-1.7,1.5c-0.8-0.9-1.7-1.3-2.8-1.3c-0.7,0-1.3,0.2-1.9,0.5
			c-0.5,0.3-1,0.7-1.3,1.3c-0.3,0.5-0.4,1.2-0.4,1.9c0,0.7,0.1,1.3,0.4,1.9c0.3,0.5,0.7,1,1.3,1.3c0.5,0.3,1.2,0.4,1.9,0.4
			c1.1,0,2.1-0.4,2.8-1.3l1.7,1.5c-0.5,0.7-1.2,1.1-2,1.5C145,179,144.2,179.2,143.2,179.2z M152.8,170.3c1.3,0,2.4,0.3,3.1,1
			c0.7,0.6,1.1,1.6,1.1,2.9v4.9h-2.3v-1.1c-0.5,0.8-1.3,1.2-2.6,1.2c-0.7,0-1.2-0.1-1.7-0.3c-0.5-0.2-0.8-0.5-1.1-0.9
			s-0.4-0.8-0.4-1.3c0-0.8,0.3-1.4,0.9-1.9c0.6-0.5,1.5-0.7,2.8-0.7h2c0-0.5-0.2-1-0.5-1.2c-0.3-0.3-0.8-0.4-1.5-0.4
			c-0.5,0-0.9,0.1-1.4,0.2c-0.4,0.1-0.8,0.3-1.1,0.6l-0.9-1.7c0.5-0.3,1-0.6,1.7-0.8C151.4,170.4,152.1,170.3,152.8,170.3z
			 M152.6,177.5c0.4,0,0.8-0.1,1.1-0.3c0.3-0.2,0.6-0.5,0.7-0.9v-0.9h-1.7c-1,0-1.5,0.3-1.5,1c0,0.3,0.1,0.6,0.4,0.8
			C151.8,177.4,152.2,177.5,152.6,177.5z M164.4,170.3c1.1,0,1.9,0.3,2.6,1c0.7,0.6,1,1.6,1,2.8v4.9h-2.5v-4.5c0-0.7-0.1-1.2-0.4-1.5
			c-0.3-0.3-0.7-0.5-1.3-0.5c-0.6,0-1.1,0.2-1.5,0.6c-0.4,0.4-0.6,1-0.6,1.7v4.3h-2.5v-8.6h2.4v1c0.3-0.4,0.7-0.6,1.2-0.8
			C163.3,170.4,163.8,170.3,164.4,170.3z M175,167.8h2.6V179H175V167.8z M189.7,170.3c0.8,0,1.5,0.2,2.2,0.6c0.7,0.4,1.2,0.9,1.6,1.6
			c0.4,0.7,0.6,1.4,0.6,2.3s-0.2,1.7-0.6,2.3c-0.4,0.7-0.9,1.2-1.6,1.6c-0.7,0.4-1.4,0.5-2.2,0.5c-1.1,0-2-0.3-2.6-1v4h-2.5v-11.7
			h2.4v1C187.6,170.7,188.5,170.3,189.7,170.3z M189.2,177.1c0.6,0,1.2-0.2,1.6-0.6c0.4-0.4,0.6-1,0.6-1.7s-0.2-1.3-0.6-1.7
			c-0.4-0.4-0.9-0.7-1.6-0.7s-1.2,0.2-1.6,0.7c-0.4,0.4-0.6,1-0.6,1.7s0.2,1.3,0.6,1.7C188.1,176.9,188.6,177.1,189.2,177.1z
			 M198,171.5c0.3-0.4,0.7-0.7,1.2-0.9c0.5-0.2,1.1-0.3,1.8-0.3v2.3c-0.3,0-0.5,0-0.6,0c-0.7,0-1.3,0.2-1.7,0.6
			c-0.4,0.4-0.6,1-0.6,1.8v4.1h-2.5v-8.6h2.4V171.5z M206.5,179.1c-0.9,0-1.7-0.2-2.4-0.6c-0.7-0.4-1.3-0.9-1.7-1.6
			c-0.4-0.7-0.6-1.4-0.6-2.3s0.2-1.6,0.6-2.3c0.4-0.7,1-1.2,1.7-1.6c0.7-0.4,1.5-0.6,2.4-0.6s1.7,0.2,2.4,0.6
			c0.7,0.4,1.3,0.9,1.7,1.6c0.4,0.7,0.6,1.4,0.6,2.3s-0.2,1.6-0.6,2.3c-0.4,0.7-1,1.2-1.7,1.6C208.2,179,207.4,179.1,206.5,179.1z
			 M206.5,177.1c0.6,0,1.2-0.2,1.6-0.6c0.4-0.4,0.6-1,0.6-1.7s-0.2-1.3-0.6-1.7c-0.4-0.4-0.9-0.7-1.6-0.7s-1.2,0.2-1.6,0.7
			c-0.4,0.4-0.6,1-0.6,1.7s0.2,1.3,0.6,1.7C205.3,176.9,205.8,177.1,206.5,177.1z M218.4,178.6c-0.2,0.2-0.5,0.3-0.9,0.4
			c-0.4,0.1-0.7,0.1-1.1,0.1c-1,0-1.8-0.3-2.4-0.8c-0.6-0.5-0.8-1.3-0.8-2.3v-3.5h-1.3v-1.9h1.3v-2.1h2.5v2.1h2.1v1.9h-2.1v3.5
			c0,0.4,0.1,0.6,0.3,0.8c0.2,0.2,0.5,0.3,0.8,0.3c0.4,0,0.7-0.1,1-0.3L218.4,178.6z M228,174.7c0,0,0,0.3,0,0.7h-6.5
			c0.1,0.5,0.4,1,0.8,1.3c0.4,0.3,1,0.5,1.6,0.5c0.4,0,0.8-0.1,1.2-0.2c0.4-0.1,0.7-0.4,1-0.6l1.3,1.4c-0.8,0.9-2,1.4-3.6,1.4
			c-1,0-1.8-0.2-2.6-0.6c-0.7-0.4-1.3-0.9-1.7-1.6c-0.4-0.7-0.6-1.4-0.6-2.3c0-0.8,0.2-1.6,0.6-2.3c0.4-0.7,1-1.2,1.6-1.6
			c0.7-0.4,1.5-0.6,2.4-0.6c0.8,0,1.6,0.2,2.3,0.5c0.7,0.4,1.2,0.9,1.6,1.6C227.8,173.1,228,173.9,228,174.7z M223.5,172.2
			c-0.6,0-1,0.2-1.4,0.5c-0.4,0.3-0.6,0.8-0.7,1.3h4.2c-0.1-0.5-0.3-1-0.7-1.3C224.5,172.3,224.1,172.2,223.5,172.2z M233.8,179.1
			c-0.9,0-1.7-0.2-2.5-0.6c-0.7-0.4-1.3-0.9-1.7-1.6c-0.4-0.7-0.6-1.4-0.6-2.3s0.2-1.6,0.6-2.3c0.4-0.7,1-1.2,1.7-1.6
			c0.7-0.4,1.6-0.6,2.5-0.6c0.9,0,1.7,0.2,2.4,0.6c0.7,0.4,1.2,0.9,1.5,1.6l-1.9,1c-0.4-0.8-1.1-1.2-1.9-1.2c-0.7,0-1.2,0.2-1.6,0.6
			c-0.4,0.4-0.6,1-0.6,1.7c0,0.7,0.2,1.3,0.6,1.7c0.4,0.4,1,0.6,1.6,0.6c0.9,0,1.5-0.4,1.9-1.2l1.9,1.1c-0.3,0.7-0.8,1.2-1.5,1.6
			C235.5,179,234.7,179.1,233.8,179.1z M244.8,178.6c-0.2,0.2-0.6,0.3-0.9,0.4c-0.4,0.1-0.7,0.1-1.1,0.1c-1,0-1.8-0.3-2.4-0.8
			c-0.6-0.5-0.8-1.3-0.8-2.3v-3.5h-1.3v-1.9h1.3v-2.1h2.5v2.1h2.1v1.9H242v3.5c0,0.4,0.1,0.6,0.3,0.8c0.2,0.2,0.5,0.3,0.8,0.3
			c0.4,0,0.7-0.1,1-0.3L244.8,178.6z M261.7,170.3c1.1,0,1.9,0.3,2.6,1c0.6,0.6,1,1.6,1,2.8v4.9h-2.5v-4.5c0-0.7-0.1-1.2-0.4-1.5
			c-0.3-0.3-0.7-0.5-1.2-0.5c-0.6,0-1.1,0.2-1.4,0.6c-0.3,0.4-0.5,0.9-0.5,1.7v4.3h-2.5v-4.5c0-1.4-0.5-2-1.6-2c-0.6,0-1,0.2-1.4,0.6
			c-0.3,0.4-0.5,0.9-0.5,1.7v4.3h-2.5v-8.6h2.4v1c0.3-0.4,0.7-0.6,1.2-0.8c0.5-0.2,1-0.3,1.5-0.3c0.6,0,1.2,0.1,1.6,0.4
			c0.5,0.2,0.9,0.6,1.2,1c0.4-0.4,0.8-0.8,1.3-1C260.5,170.4,261.1,170.3,261.7,170.3z M275.9,170.4l-3.9,9.1c-0.4,1-0.9,1.7-1.5,2.1
			c-0.6,0.4-1.3,0.6-2.1,0.6c-0.4,0-0.9-0.1-1.3-0.2c-0.4-0.1-0.8-0.3-1.1-0.6l0.9-1.8c0.2,0.2,0.4,0.3,0.7,0.4
			c0.3,0.1,0.5,0.1,0.8,0.1c0.3,0,0.6-0.1,0.8-0.3c0.2-0.2,0.4-0.4,0.6-0.8l0-0.1l-3.7-8.7h2.6l2.4,5.8l2.4-5.8H275.9z M279.6,179.1
			c-0.7,0-1.4-0.1-2.1-0.3c-0.7-0.2-1.2-0.4-1.6-0.7l0.8-1.8c0.4,0.2,0.8,0.4,1.4,0.6c0.5,0.1,1.1,0.2,1.6,0.2c1.1,0,1.6-0.3,1.6-0.8
			c0-0.2-0.1-0.4-0.4-0.5c-0.3-0.1-0.7-0.2-1.3-0.3c-0.7-0.1-1.3-0.2-1.7-0.4c-0.5-0.1-0.9-0.4-1.2-0.7c-0.3-0.4-0.5-0.9-0.5-1.5
			c0-0.5,0.2-1,0.5-1.4c0.3-0.4,0.8-0.8,1.4-1c0.6-0.2,1.3-0.4,2.1-0.4c0.6,0,1.2,0.1,1.8,0.2c0.6,0.1,1.1,0.3,1.5,0.5l-0.8,1.8
			c-0.8-0.4-1.6-0.6-2.5-0.6c-0.5,0-0.9,0.1-1.2,0.2c-0.3,0.1-0.4,0.3-0.4,0.6c0,0.3,0.1,0.5,0.4,0.6c0.3,0.1,0.7,0.2,1.4,0.3
			c0.7,0.1,1.3,0.2,1.7,0.4c0.4,0.1,0.8,0.4,1.2,0.7c0.3,0.4,0.5,0.8,0.5,1.5c0,0.5-0.2,1-0.5,1.4c-0.3,0.4-0.8,0.7-1.4,1
			C281.2,179,280.5,179.1,279.6,179.1z M293.7,174.7c0,0,0,0.3,0,0.7h-6.5c0.1,0.5,0.4,1,0.8,1.3c0.4,0.3,1,0.5,1.6,0.5
			c0.4,0,0.8-0.1,1.2-0.2c0.4-0.1,0.7-0.4,1-0.6l1.3,1.4c-0.8,0.9-2,1.4-3.6,1.4c-1,0-1.8-0.2-2.6-0.6c-0.7-0.4-1.3-0.9-1.7-1.6
			c-0.4-0.7-0.6-1.4-0.6-2.3c0-0.8,0.2-1.6,0.6-2.3c0.4-0.7,1-1.2,1.6-1.6c0.7-0.4,1.5-0.6,2.4-0.6c0.8,0,1.6,0.2,2.3,0.5
			c0.7,0.4,1.2,0.9,1.6,1.6C293.5,173.1,293.7,173.9,293.7,174.7z M289.2,172.2c-0.6,0-1,0.2-1.4,0.5c-0.4,0.3-0.6,0.8-0.7,1.3h4.2
			c-0.1-0.5-0.3-1-0.7-1.3C290.2,172.3,289.8,172.2,289.2,172.2z M295.3,167.1h2.5V179h-2.5V167.1z M302.9,170.6h2.2v1.9H303v6.5
			h-2.5v-6.5h-1.3v-1.9h1.3v-0.4c0-1,0.3-1.8,0.9-2.3c0.6-0.6,1.4-0.9,2.5-0.9c0.4,0,0.7,0,1.1,0.1c0.3,0.1,0.6,0.2,0.8,0.3l-0.7,1.8
			c-0.3-0.2-0.6-0.3-1-0.3c-0.8,0-1.1,0.4-1.1,1.2V170.6z M152.1,194.6h2.2v1.9h-2.1v6.5h-2.5v-6.5h-1.3v-1.9h1.3v-0.4
			c0-1,0.3-1.8,0.9-2.3c0.6-0.6,1.4-0.9,2.5-0.9c0.4,0,0.7,0,1.1,0.1c0.3,0.1,0.6,0.2,0.8,0.3l-0.7,1.8c-0.3-0.2-0.6-0.3-1-0.3
			c-0.8,0-1.1,0.4-1.1,1.2V194.6z M159.2,195.5c0.3-0.4,0.7-0.7,1.2-0.9c0.5-0.2,1.1-0.3,1.8-0.3v2.3c-0.3,0-0.5,0-0.6,0
			c-0.7,0-1.3,0.2-1.7,0.6c-0.4,0.4-0.6,1-0.6,1.8v4.1h-2.5v-8.6h2.4V195.5z M167.7,203.1c-0.9,0-1.7-0.2-2.4-0.6
			c-0.7-0.4-1.3-0.9-1.7-1.6c-0.4-0.7-0.6-1.4-0.6-2.3s0.2-1.6,0.6-2.3c0.4-0.7,1-1.2,1.7-1.6c0.7-0.4,1.5-0.6,2.4-0.6
			c0.9,0,1.7,0.2,2.4,0.6c0.7,0.4,1.3,0.9,1.7,1.6c0.4,0.7,0.6,1.4,0.6,2.3s-0.2,1.6-0.6,2.3c-0.4,0.7-1,1.2-1.7,1.6
			C169.4,203,168.6,203.1,167.7,203.1z M167.7,201.1c0.6,0,1.2-0.2,1.6-0.6c0.4-0.4,0.6-1,0.6-1.7s-0.2-1.3-0.6-1.7
			c-0.4-0.4-0.9-0.7-1.6-0.7s-1.2,0.2-1.6,0.7c-0.4,0.4-0.6,1-0.6,1.7s0.2,1.3,0.6,1.7C166.5,200.9,167,201.1,167.7,201.1z
			 M185.1,194.3c1.1,0,1.9,0.3,2.6,1c0.6,0.6,1,1.6,1,2.8v4.9h-2.5v-4.5c0-0.7-0.1-1.2-0.4-1.5c-0.3-0.3-0.7-0.5-1.2-0.5
			c-0.6,0-1.1,0.2-1.4,0.6c-0.3,0.4-0.5,0.9-0.5,1.7v4.3h-2.5v-4.5c0-1.4-0.5-2-1.6-2c-0.6,0-1,0.2-1.4,0.6c-0.3,0.4-0.5,0.9-0.5,1.7
			v4.3h-2.5v-8.6h2.4v1c0.3-0.4,0.7-0.6,1.2-0.8c0.5-0.2,1-0.3,1.5-0.3c0.6,0,1.2,0.1,1.6,0.4c0.5,0.2,0.9,0.6,1.2,1
			c0.4-0.4,0.8-0.8,1.3-1C183.9,194.4,184.4,194.3,185.1,194.3z M200.9,203.2c-1.1,0-2.2-0.2-3.1-0.7c-0.9-0.5-1.6-1.2-2.2-2.1
			c-0.5-0.9-0.8-1.9-0.8-3c0-1.1,0.3-2.1,0.8-3c0.5-0.9,1.3-1.6,2.2-2.1c0.9-0.5,2-0.8,3.1-0.8c1,0,1.8,0.2,2.6,0.5
			c0.8,0.3,1.5,0.8,2,1.5l-1.7,1.5c-0.8-0.9-1.7-1.3-2.8-1.3c-0.7,0-1.3,0.2-1.9,0.5c-0.5,0.3-1,0.7-1.3,1.3
			c-0.3,0.5-0.4,1.2-0.4,1.9c0,0.7,0.1,1.3,0.4,1.9c0.3,0.5,0.7,1,1.3,1.3c0.5,0.3,1.2,0.4,1.9,0.4c1.1,0,2.1-0.4,2.8-1.3l1.7,1.5
			c-0.5,0.7-1.2,1.1-2,1.5C202.8,203,201.9,203.2,200.9,203.2z M210.9,203.1c-0.9,0-1.7-0.2-2.4-0.6c-0.7-0.4-1.3-0.9-1.7-1.6
			c-0.4-0.7-0.6-1.4-0.6-2.3s0.2-1.6,0.6-2.3c0.4-0.7,1-1.2,1.7-1.6c0.7-0.4,1.5-0.6,2.4-0.6s1.7,0.2,2.4,0.6
			c0.7,0.4,1.3,0.9,1.7,1.6c0.4,0.7,0.6,1.4,0.6,2.3s-0.2,1.6-0.6,2.3c-0.4,0.7-1,1.2-1.7,1.6C212.6,203,211.8,203.1,210.9,203.1z
			 M210.9,201.1c0.6,0,1.2-0.2,1.6-0.6c0.4-0.4,0.6-1,0.6-1.7s-0.2-1.3-0.6-1.7c-0.4-0.4-0.9-0.7-1.6-0.7s-1.2,0.2-1.6,0.7
			c-0.4,0.4-0.6,1-0.6,1.7s0.2,1.3,0.6,1.7C209.7,200.9,210.3,201.1,210.9,201.1z M225.6,194.4L222,203h-2.6l-3.6-8.6h2.6l2.4,5.9
			l2.5-5.9H225.6z M226.6,194.4h2.5v8.6h-2.5V194.4z M227.9,193.2c-0.5,0-0.8-0.1-1.1-0.4c-0.3-0.3-0.4-0.6-0.4-1s0.1-0.7,0.4-1
			c0.3-0.3,0.7-0.4,1.1-0.4c0.5,0,0.8,0.1,1.1,0.4c0.3,0.3,0.4,0.6,0.4,1c0,0.4-0.1,0.8-0.4,1C228.7,193.1,228.3,193.2,227.9,193.2z
			 M240.2,191.1V203h-2.4v-1c-0.6,0.7-1.5,1.1-2.7,1.1c-0.8,0-1.5-0.2-2.2-0.5c-0.7-0.4-1.2-0.9-1.5-1.6s-0.6-1.5-0.6-2.3
			s0.2-1.7,0.6-2.3s0.9-1.2,1.5-1.6c0.7-0.4,1.4-0.5,2.2-0.5c1.1,0,2,0.3,2.6,1v-4.2H240.2z M235.6,201.1c0.6,0,1.2-0.2,1.6-0.6
			c0.4-0.4,0.6-1,0.6-1.7s-0.2-1.3-0.6-1.7c-0.4-0.4-0.9-0.7-1.6-0.7c-0.6,0-1.2,0.2-1.6,0.7c-0.4,0.4-0.6,1-0.6,1.7s0.2,1.3,0.6,1.7
			C234.4,200.9,234.9,201.1,235.6,201.1z M244.8,199.1c0-0.6,0.1-1,0.4-1.4c0.3-0.4,0.6-0.8,1.1-1.2c0.4-0.3,0.6-0.6,0.8-0.8
			c0.2-0.2,0.3-0.5,0.3-0.8c0-0.4-0.2-0.7-0.5-0.9c-0.3-0.2-0.7-0.4-1.2-0.4c-0.5,0-0.9,0.1-1.3,0.3c-0.4,0.2-0.7,0.5-1,0.9l-1.9-1.1
			c0.4-0.7,1.1-1.2,1.8-1.6c0.8-0.4,1.7-0.6,2.7-0.6c1.2,0,2.2,0.3,2.9,0.8c0.7,0.5,1.1,1.2,1.1,2.2c0,0.4-0.1,0.8-0.2,1.2
			c-0.1,0.3-0.3,0.6-0.5,0.8c-0.2,0.2-0.5,0.5-0.8,0.8c-0.4,0.4-0.7,0.7-0.9,0.9c-0.2,0.2-0.3,0.5-0.3,0.9H244.8z M246.1,203.1
			c-0.4,0-0.8-0.1-1.1-0.4c-0.3-0.3-0.4-0.6-0.4-1s0.1-0.7,0.4-1c0.3-0.3,0.7-0.4,1.1-0.4c0.4,0,0.8,0.1,1.1,0.4
			c0.3,0.3,0.4,0.6,0.4,1s-0.1,0.8-0.4,1C246.9,203,246.5,203.1,246.1,203.1z"/>
		</g>
	</g>
</svg>
